<?xml version="1.0" encoding="utf-8"?>
<svg xmlns="http://www.w3.org/2000/svg" xmlns:xlink="http://www.w3.org/1999/xlink" width="600" height="400" viewBox="0 0 2400 1600">
<defs>
  <clipPath id="clip870">
    <rect x="0" y="0" width="2400" height="1600"/>
  </clipPath>
</defs>
<path clip-path="url(#clip870)" d="
M0 1600 L2400 1600 L2400 0 L0 0  Z
  " fill="#ffffff" fill-rule="evenodd" fill-opacity="0"/>
<defs>
  <clipPath id="clip871">
    <rect x="480" y="0" width="1681" height="1600"/>
  </clipPath>
</defs>
<path clip-path="url(#clip870)" d="
M249.542 1423.18 L1850.56 1423.18 L1850.56 47.2441 L249.542 47.2441  Z
  " fill="#ffffff" fill-rule="evenodd" fill-opacity="0"/>
<defs>
  <clipPath id="clip872">
    <rect x="249" y="47" width="1602" height="1377"/>
  </clipPath>
</defs>
<polyline clip-path="url(#clip872)" style="stroke:#000000; stroke-linecap:round; stroke-linejoin:round; stroke-width:2; stroke-opacity:0.1; fill:none" points="
  294.85,1423.18 294.85,47.2441 
  "/>
<polyline clip-path="url(#clip872)" style="stroke:#000000; stroke-linecap:round; stroke-linejoin:round; stroke-width:2; stroke-opacity:0.1; fill:none" points="
  672.45,1423.18 672.45,47.2441 
  "/>
<polyline clip-path="url(#clip872)" style="stroke:#000000; stroke-linecap:round; stroke-linejoin:round; stroke-width:2; stroke-opacity:0.1; fill:none" points="
  1050.05,1423.18 1050.05,47.2441 
  "/>
<polyline clip-path="url(#clip872)" style="stroke:#000000; stroke-linecap:round; stroke-linejoin:round; stroke-width:2; stroke-opacity:0.1; fill:none" points="
  1427.65,1423.18 1427.65,47.2441 
  "/>
<polyline clip-path="url(#clip872)" style="stroke:#000000; stroke-linecap:round; stroke-linejoin:round; stroke-width:2; stroke-opacity:0.1; fill:none" points="
  1805.25,1423.18 1805.25,47.2441 
  "/>
<polyline clip-path="url(#clip870)" style="stroke:#000000; stroke-linecap:round; stroke-linejoin:round; stroke-width:4; stroke-opacity:1; fill:none" points="
  249.542,1423.18 1850.56,1423.18 
  "/>
<polyline clip-path="url(#clip870)" style="stroke:#000000; stroke-linecap:round; stroke-linejoin:round; stroke-width:4; stroke-opacity:1; fill:none" points="
  294.85,1423.18 294.85,1404.28 
  "/>
<polyline clip-path="url(#clip870)" style="stroke:#000000; stroke-linecap:round; stroke-linejoin:round; stroke-width:4; stroke-opacity:1; fill:none" points="
  672.45,1423.18 672.45,1404.28 
  "/>
<polyline clip-path="url(#clip870)" style="stroke:#000000; stroke-linecap:round; stroke-linejoin:round; stroke-width:4; stroke-opacity:1; fill:none" points="
  1050.05,1423.18 1050.05,1404.28 
  "/>
<polyline clip-path="url(#clip870)" style="stroke:#000000; stroke-linecap:round; stroke-linejoin:round; stroke-width:4; stroke-opacity:1; fill:none" points="
  1427.65,1423.18 1427.65,1404.28 
  "/>
<polyline clip-path="url(#clip870)" style="stroke:#000000; stroke-linecap:round; stroke-linejoin:round; stroke-width:4; stroke-opacity:1; fill:none" points="
  1805.25,1423.18 1805.25,1404.28 
  "/>
<path clip-path="url(#clip870)" d="M257.154 1454.1 Q253.543 1454.1 251.714 1457.66 Q249.909 1461.2 249.909 1468.33 Q249.909 1475.44 251.714 1479.01 Q253.543 1482.55 257.154 1482.55 Q260.788 1482.55 262.594 1479.01 Q264.422 1475.44 264.422 1468.33 Q264.422 1461.2 262.594 1457.66 Q260.788 1454.1 257.154 1454.1 M257.154 1450.39 Q262.964 1450.39 266.02 1455 Q269.098 1459.58 269.098 1468.33 Q269.098 1477.06 266.02 1481.67 Q262.964 1486.25 257.154 1486.25 Q251.344 1486.25 248.265 1481.67 Q245.209 1477.06 245.209 1468.33 Q245.209 1459.58 248.265 1455 Q251.344 1450.39 257.154 1450.39 Z" fill="#000000" fill-rule="evenodd" fill-opacity="1" /><path clip-path="url(#clip870)" d="M277.316 1479.7 L282.2 1479.7 L282.2 1485.58 L277.316 1485.58 L277.316 1479.7 Z" fill="#000000" fill-rule="evenodd" fill-opacity="1" /><path clip-path="url(#clip870)" d="M302.385 1454.1 Q298.774 1454.1 296.945 1457.66 Q295.14 1461.2 295.14 1468.33 Q295.14 1475.44 296.945 1479.01 Q298.774 1482.55 302.385 1482.55 Q306.019 1482.55 307.825 1479.01 Q309.654 1475.44 309.654 1468.33 Q309.654 1461.2 307.825 1457.66 Q306.019 1454.1 302.385 1454.1 M302.385 1450.39 Q308.195 1450.39 311.251 1455 Q314.329 1459.58 314.329 1468.33 Q314.329 1477.06 311.251 1481.67 Q308.195 1486.25 302.385 1486.25 Q296.575 1486.25 293.496 1481.67 Q290.441 1477.06 290.441 1468.33 Q290.441 1459.58 293.496 1455 Q296.575 1450.39 302.385 1450.39 Z" fill="#000000" fill-rule="evenodd" fill-opacity="1" /><path clip-path="url(#clip870)" d="M332.547 1454.1 Q328.936 1454.1 327.107 1457.66 Q325.302 1461.2 325.302 1468.33 Q325.302 1475.44 327.107 1479.01 Q328.936 1482.55 332.547 1482.55 Q336.181 1482.55 337.987 1479.01 Q339.815 1475.44 339.815 1468.33 Q339.815 1461.2 337.987 1457.66 Q336.181 1454.1 332.547 1454.1 M332.547 1450.39 Q338.357 1450.39 341.413 1455 Q344.491 1459.58 344.491 1468.33 Q344.491 1477.06 341.413 1481.67 Q338.357 1486.25 332.547 1486.25 Q326.737 1486.25 323.658 1481.67 Q320.603 1477.06 320.603 1468.33 Q320.603 1459.58 323.658 1455 Q326.737 1450.39 332.547 1450.39 Z" fill="#000000" fill-rule="evenodd" fill-opacity="1" /><path clip-path="url(#clip870)" d="M635.251 1454.1 Q631.64 1454.1 629.811 1457.66 Q628.005 1461.2 628.005 1468.33 Q628.005 1475.44 629.811 1479.01 Q631.64 1482.55 635.251 1482.55 Q638.885 1482.55 640.69 1479.01 Q642.519 1475.44 642.519 1468.33 Q642.519 1461.2 640.69 1457.66 Q638.885 1454.1 635.251 1454.1 M635.251 1450.39 Q641.061 1450.39 644.116 1455 Q647.195 1459.58 647.195 1468.33 Q647.195 1477.06 644.116 1481.67 Q641.061 1486.25 635.251 1486.25 Q629.441 1486.25 626.362 1481.67 Q623.306 1477.06 623.306 1468.33 Q623.306 1459.58 626.362 1455 Q629.441 1450.39 635.251 1450.39 Z" fill="#000000" fill-rule="evenodd" fill-opacity="1" /><path clip-path="url(#clip870)" d="M655.413 1479.7 L660.297 1479.7 L660.297 1485.58 L655.413 1485.58 L655.413 1479.7 Z" fill="#000000" fill-rule="evenodd" fill-opacity="1" /><path clip-path="url(#clip870)" d="M674.51 1481.64 L690.829 1481.64 L690.829 1485.58 L668.885 1485.58 L668.885 1481.64 Q671.547 1478.89 676.13 1474.26 Q680.737 1469.61 681.917 1468.27 Q684.162 1465.74 685.042 1464.01 Q685.945 1462.25 685.945 1460.56 Q685.945 1457.8 684 1456.07 Q682.079 1454.33 678.977 1454.33 Q676.778 1454.33 674.325 1455.09 Q671.894 1455.86 669.116 1457.41 L669.116 1452.69 Q671.94 1451.55 674.394 1450.97 Q676.848 1450.39 678.885 1450.39 Q684.255 1450.39 687.45 1453.08 Q690.644 1455.77 690.644 1460.26 Q690.644 1462.39 689.834 1464.31 Q689.047 1466.2 686.94 1468.8 Q686.362 1469.47 683.26 1472.69 Q680.158 1475.88 674.51 1481.64 Z" fill="#000000" fill-rule="evenodd" fill-opacity="1" /><path clip-path="url(#clip870)" d="M700.69 1451.02 L719.047 1451.02 L719.047 1454.96 L704.973 1454.96 L704.973 1463.43 Q705.991 1463.08 707.01 1462.92 Q708.028 1462.73 709.047 1462.73 Q714.834 1462.73 718.213 1465.9 Q721.593 1469.08 721.593 1474.49 Q721.593 1480.07 718.121 1483.17 Q714.648 1486.25 708.329 1486.25 Q706.153 1486.25 703.885 1485.88 Q701.639 1485.51 699.232 1484.77 L699.232 1480.07 Q701.315 1481.2 703.537 1481.76 Q705.76 1482.32 708.236 1482.32 Q712.241 1482.32 714.579 1480.21 Q716.917 1478.1 716.917 1474.49 Q716.917 1470.88 714.579 1468.77 Q712.241 1466.67 708.236 1466.67 Q706.361 1466.67 704.486 1467.08 Q702.635 1467.5 700.69 1468.38 L700.69 1451.02 Z" fill="#000000" fill-rule="evenodd" fill-opacity="1" /><path clip-path="url(#clip870)" d="M1012.35 1454.1 Q1008.74 1454.1 1006.91 1457.66 Q1005.11 1461.2 1005.11 1468.33 Q1005.11 1475.44 1006.91 1479.01 Q1008.74 1482.55 1012.35 1482.55 Q1015.99 1482.55 1017.79 1479.01 Q1019.62 1475.44 1019.62 1468.33 Q1019.62 1461.2 1017.79 1457.66 Q1015.99 1454.1 1012.35 1454.1 M1012.35 1450.39 Q1018.16 1450.39 1021.22 1455 Q1024.3 1459.58 1024.3 1468.33 Q1024.3 1477.06 1021.22 1481.67 Q1018.16 1486.25 1012.35 1486.25 Q1006.54 1486.25 1003.46 1481.67 Q1000.41 1477.06 1000.41 1468.33 Q1000.41 1459.58 1003.46 1455 Q1006.54 1450.39 1012.35 1450.39 Z" fill="#000000" fill-rule="evenodd" fill-opacity="1" /><path clip-path="url(#clip870)" d="M1032.51 1479.7 L1037.4 1479.7 L1037.4 1485.58 L1032.51 1485.58 L1032.51 1479.7 Z" fill="#000000" fill-rule="evenodd" fill-opacity="1" /><path clip-path="url(#clip870)" d="M1047.63 1451.02 L1065.99 1451.02 L1065.99 1454.96 L1051.91 1454.96 L1051.91 1463.43 Q1052.93 1463.08 1053.95 1462.92 Q1054.97 1462.73 1055.99 1462.73 Q1061.77 1462.73 1065.15 1465.9 Q1068.53 1469.08 1068.53 1474.49 Q1068.53 1480.07 1065.06 1483.17 Q1061.59 1486.25 1055.27 1486.25 Q1053.09 1486.25 1050.82 1485.88 Q1048.58 1485.51 1046.17 1484.77 L1046.17 1480.07 Q1048.25 1481.2 1050.48 1481.76 Q1052.7 1482.32 1055.18 1482.32 Q1059.18 1482.32 1061.52 1480.21 Q1063.86 1478.1 1063.86 1474.49 Q1063.86 1470.88 1061.52 1468.77 Q1059.18 1466.67 1055.18 1466.67 Q1053.3 1466.67 1051.43 1467.08 Q1049.57 1467.5 1047.63 1468.38 L1047.63 1451.02 Z" fill="#000000" fill-rule="evenodd" fill-opacity="1" /><path clip-path="url(#clip870)" d="M1087.75 1454.1 Q1084.13 1454.1 1082.31 1457.66 Q1080.5 1461.2 1080.5 1468.33 Q1080.5 1475.44 1082.31 1479.01 Q1084.13 1482.55 1087.75 1482.55 Q1091.38 1482.55 1093.19 1479.01 Q1095.01 1475.44 1095.01 1468.33 Q1095.01 1461.2 1093.19 1457.66 Q1091.38 1454.1 1087.75 1454.1 M1087.75 1450.39 Q1093.56 1450.39 1096.61 1455 Q1099.69 1459.58 1099.69 1468.33 Q1099.69 1477.06 1096.61 1481.67 Q1093.56 1486.25 1087.75 1486.25 Q1081.94 1486.25 1078.86 1481.67 Q1075.8 1477.06 1075.8 1468.33 Q1075.8 1459.58 1078.86 1455 Q1081.94 1450.39 1087.75 1450.39 Z" fill="#000000" fill-rule="evenodd" fill-opacity="1" /><path clip-path="url(#clip870)" d="M1390.45 1454.1 Q1386.84 1454.1 1385.01 1457.66 Q1383.2 1461.2 1383.2 1468.33 Q1383.2 1475.44 1385.01 1479.01 Q1386.84 1482.55 1390.45 1482.55 Q1394.08 1482.55 1395.89 1479.01 Q1397.72 1475.44 1397.72 1468.33 Q1397.72 1461.2 1395.89 1457.66 Q1394.08 1454.1 1390.45 1454.1 M1390.45 1450.39 Q1396.26 1450.39 1399.31 1455 Q1402.39 1459.58 1402.39 1468.33 Q1402.39 1477.06 1399.31 1481.67 Q1396.26 1486.25 1390.45 1486.25 Q1384.64 1486.25 1381.56 1481.67 Q1378.5 1477.06 1378.5 1468.33 Q1378.5 1459.58 1381.56 1455 Q1384.64 1450.39 1390.45 1450.39 Z" fill="#000000" fill-rule="evenodd" fill-opacity="1" /><path clip-path="url(#clip870)" d="M1410.61 1479.7 L1415.5 1479.7 L1415.5 1485.58 L1410.61 1485.58 L1410.61 1479.7 Z" fill="#000000" fill-rule="evenodd" fill-opacity="1" /><path clip-path="url(#clip870)" d="M1424.5 1451.02 L1446.72 1451.02 L1446.72 1453.01 L1434.18 1485.58 L1429.29 1485.58 L1441.1 1454.96 L1424.5 1454.96 L1424.5 1451.02 Z" fill="#000000" fill-rule="evenodd" fill-opacity="1" /><path clip-path="url(#clip870)" d="M1455.89 1451.02 L1474.24 1451.02 L1474.24 1454.96 L1460.17 1454.96 L1460.17 1463.43 Q1461.19 1463.08 1462.21 1462.92 Q1463.23 1462.73 1464.24 1462.73 Q1470.03 1462.73 1473.41 1465.9 Q1476.79 1469.08 1476.79 1474.49 Q1476.79 1480.07 1473.32 1483.17 Q1469.85 1486.25 1463.53 1486.25 Q1461.35 1486.25 1459.08 1485.88 Q1456.84 1485.51 1454.43 1484.77 L1454.43 1480.07 Q1456.51 1481.2 1458.74 1481.76 Q1460.96 1482.32 1463.43 1482.32 Q1467.44 1482.32 1469.78 1480.21 Q1472.12 1478.1 1472.12 1474.49 Q1472.12 1470.88 1469.78 1468.77 Q1467.44 1466.67 1463.43 1466.67 Q1461.56 1466.67 1459.68 1467.08 Q1457.83 1467.5 1455.89 1468.38 L1455.89 1451.02 Z" fill="#000000" fill-rule="evenodd" fill-opacity="1" /><path clip-path="url(#clip870)" d="M1757.32 1481.64 L1764.96 1481.64 L1764.96 1455.28 L1756.65 1456.95 L1756.65 1452.69 L1764.91 1451.02 L1769.59 1451.02 L1769.59 1481.64 L1777.23 1481.64 L1777.23 1485.58 L1757.32 1485.58 L1757.32 1481.64 Z" fill="#000000" fill-rule="evenodd" fill-opacity="1" /><path clip-path="url(#clip870)" d="M1786.67 1479.7 L1791.56 1479.7 L1791.56 1485.58 L1786.67 1485.58 L1786.67 1479.7 Z" fill="#000000" fill-rule="evenodd" fill-opacity="1" /><path clip-path="url(#clip870)" d="M1811.74 1454.1 Q1808.13 1454.1 1806.3 1457.66 Q1804.49 1461.2 1804.49 1468.33 Q1804.49 1475.44 1806.3 1479.01 Q1808.13 1482.55 1811.74 1482.55 Q1815.37 1482.55 1817.18 1479.01 Q1819.01 1475.44 1819.01 1468.33 Q1819.01 1461.2 1817.18 1457.66 Q1815.37 1454.1 1811.74 1454.1 M1811.74 1450.39 Q1817.55 1450.39 1820.61 1455 Q1823.68 1459.58 1823.68 1468.33 Q1823.68 1477.06 1820.61 1481.67 Q1817.55 1486.25 1811.74 1486.25 Q1805.93 1486.25 1802.85 1481.67 Q1799.8 1477.06 1799.8 1468.33 Q1799.8 1459.58 1802.85 1455 Q1805.93 1450.39 1811.74 1450.39 Z" fill="#000000" fill-rule="evenodd" fill-opacity="1" /><path clip-path="url(#clip870)" d="M1841.9 1454.1 Q1838.29 1454.1 1836.46 1457.66 Q1834.66 1461.2 1834.66 1468.33 Q1834.66 1475.44 1836.46 1479.01 Q1838.29 1482.55 1841.9 1482.55 Q1845.54 1482.55 1847.34 1479.01 Q1849.17 1475.44 1849.17 1468.33 Q1849.17 1461.2 1847.34 1457.66 Q1845.54 1454.1 1841.9 1454.1 M1841.9 1450.39 Q1847.71 1450.39 1850.77 1455 Q1853.85 1459.58 1853.85 1468.33 Q1853.85 1477.06 1850.77 1481.67 Q1847.71 1486.25 1841.9 1486.25 Q1836.09 1486.25 1833.01 1481.67 Q1829.96 1477.06 1829.96 1468.33 Q1829.96 1459.58 1833.01 1455 Q1836.09 1450.39 1841.9 1450.39 Z" fill="#000000" fill-rule="evenodd" fill-opacity="1" /><path clip-path="url(#clip870)" d="M1032.83 1549.81 Q1032.83 1543.44 1030.19 1539.94 Q1027.58 1536.44 1022.84 1536.44 Q1018.13 1536.44 1015.48 1539.94 Q1012.87 1543.44 1012.87 1549.81 Q1012.87 1556.14 1015.48 1559.64 Q1018.13 1563.14 1022.84 1563.14 Q1027.58 1563.14 1030.19 1559.64 Q1032.83 1556.14 1032.83 1549.81 M1038.69 1563.62 Q1038.69 1572.72 1034.64 1577.15 Q1030.6 1581.6 1022.26 1581.6 Q1019.18 1581.6 1016.44 1581.13 Q1013.7 1580.68 1011.12 1579.72 L1011.12 1574.03 Q1013.7 1575.43 1016.22 1576.1 Q1018.73 1576.76 1021.34 1576.76 Q1027.1 1576.76 1029.97 1573.74 Q1032.83 1570.75 1032.83 1564.67 L1032.83 1561.77 Q1031.02 1564.92 1028.18 1566.48 Q1025.35 1568.04 1021.4 1568.04 Q1014.85 1568.04 1010.84 1563.05 Q1006.83 1558.05 1006.83 1549.81 Q1006.83 1541.53 1010.84 1536.53 Q1014.85 1531.54 1021.4 1531.54 Q1025.35 1531.54 1028.18 1533.1 Q1031.02 1534.66 1032.83 1537.81 L1032.83 1532.4 L1038.69 1532.4 L1038.69 1563.62 Z" fill="#000000" fill-rule="evenodd" fill-opacity="1" /><path clip-path="url(#clip870)" d="M1071.92 1519.66 L1075.48 1538.13 L1093.27 1531.98 L1079.05 1544.3 L1093.27 1556.62 L1075.48 1550.47 L1071.92 1568.97 L1068.35 1550.47 L1050.56 1556.62 L1064.79 1544.3 L1050.56 1531.98 L1068.35 1538.13 L1071.92 1519.66 Z" fill="#000000" fill-rule="evenodd" fill-opacity="1" /><polyline clip-path="url(#clip872)" style="stroke:#000000; stroke-linecap:round; stroke-linejoin:round; stroke-width:2; stroke-opacity:0.1; fill:none" points="
  249.542,1190.3 1850.56,1190.3 
  "/>
<polyline clip-path="url(#clip872)" style="stroke:#000000; stroke-linecap:round; stroke-linejoin:round; stroke-width:2; stroke-opacity:0.1; fill:none" points="
  249.542,878.521 1850.56,878.521 
  "/>
<polyline clip-path="url(#clip872)" style="stroke:#000000; stroke-linecap:round; stroke-linejoin:round; stroke-width:2; stroke-opacity:0.1; fill:none" points="
  249.542,566.741 1850.56,566.741 
  "/>
<polyline clip-path="url(#clip872)" style="stroke:#000000; stroke-linecap:round; stroke-linejoin:round; stroke-width:2; stroke-opacity:0.1; fill:none" points="
  249.542,254.96 1850.56,254.96 
  "/>
<polyline clip-path="url(#clip870)" style="stroke:#000000; stroke-linecap:round; stroke-linejoin:round; stroke-width:4; stroke-opacity:1; fill:none" points="
  249.542,1423.18 249.542,47.2441 
  "/>
<polyline clip-path="url(#clip870)" style="stroke:#000000; stroke-linecap:round; stroke-linejoin:round; stroke-width:4; stroke-opacity:1; fill:none" points="
  249.542,1190.3 263.927,1190.3 
  "/>
<polyline clip-path="url(#clip870)" style="stroke:#000000; stroke-linecap:round; stroke-linejoin:round; stroke-width:4; stroke-opacity:1; fill:none" points="
  249.542,878.521 263.927,878.521 
  "/>
<polyline clip-path="url(#clip870)" style="stroke:#000000; stroke-linecap:round; stroke-linejoin:round; stroke-width:4; stroke-opacity:1; fill:none" points="
  249.542,566.741 263.927,566.741 
  "/>
<polyline clip-path="url(#clip870)" style="stroke:#000000; stroke-linecap:round; stroke-linejoin:round; stroke-width:4; stroke-opacity:1; fill:none" points="
  249.542,254.96 263.927,254.96 
  "/>
<path clip-path="url(#clip870)" d="M127.2 1176.1 Q123.589 1176.1 121.76 1179.66 Q119.955 1183.21 119.955 1190.34 Q119.955 1197.44 121.76 1201.01 Q123.589 1204.55 127.2 1204.55 Q130.834 1204.55 132.64 1201.01 Q134.468 1197.44 134.468 1190.34 Q134.468 1183.21 132.64 1179.66 Q130.834 1176.1 127.2 1176.1 M127.2 1172.4 Q133.01 1172.4 136.066 1177 Q139.144 1181.59 139.144 1190.34 Q139.144 1199.06 136.066 1203.67 Q133.01 1208.25 127.2 1208.25 Q121.39 1208.25 118.311 1203.67 Q115.256 1199.06 115.256 1190.34 Q115.256 1181.59 118.311 1177 Q121.39 1172.4 127.2 1172.4 Z" fill="#000000" fill-rule="evenodd" fill-opacity="1" /><path clip-path="url(#clip870)" d="M147.362 1201.7 L152.246 1201.7 L152.246 1207.58 L147.362 1207.58 L147.362 1201.7 Z" fill="#000000" fill-rule="evenodd" fill-opacity="1" /><path clip-path="url(#clip870)" d="M172.431 1176.1 Q168.82 1176.1 166.991 1179.66 Q165.186 1183.21 165.186 1190.34 Q165.186 1197.44 166.991 1201.01 Q168.82 1204.55 172.431 1204.55 Q176.065 1204.55 177.871 1201.01 Q179.7 1197.44 179.7 1190.34 Q179.7 1183.21 177.871 1179.66 Q176.065 1176.1 172.431 1176.1 M172.431 1172.4 Q178.241 1172.4 181.297 1177 Q184.376 1181.59 184.376 1190.34 Q184.376 1199.06 181.297 1203.67 Q178.241 1208.25 172.431 1208.25 Q166.621 1208.25 163.542 1203.67 Q160.487 1199.06 160.487 1190.34 Q160.487 1181.59 163.542 1177 Q166.621 1172.4 172.431 1172.4 Z" fill="#000000" fill-rule="evenodd" fill-opacity="1" /><path clip-path="url(#clip870)" d="M192.639 1173.02 L210.996 1173.02 L210.996 1176.96 L196.922 1176.96 L196.922 1185.43 Q197.94 1185.08 198.959 1184.92 Q199.977 1184.73 200.996 1184.73 Q206.783 1184.73 210.162 1187.91 Q213.542 1191.08 213.542 1196.49 Q213.542 1202.07 210.07 1205.17 Q206.598 1208.25 200.278 1208.25 Q198.102 1208.25 195.834 1207.88 Q193.588 1207.51 191.181 1206.77 L191.181 1202.07 Q193.264 1203.21 195.487 1203.76 Q197.709 1204.32 200.186 1204.32 Q204.19 1204.32 206.528 1202.21 Q208.866 1200.1 208.866 1196.49 Q208.866 1192.88 206.528 1190.78 Q204.19 1188.67 200.186 1188.67 Q198.311 1188.67 196.436 1189.09 Q194.584 1189.5 192.639 1190.38 L192.639 1173.02 Z" fill="#000000" fill-rule="evenodd" fill-opacity="1" /><path clip-path="url(#clip870)" d="M126.205 864.32 Q122.593 864.32 120.765 867.884 Q118.959 871.426 118.959 878.556 Q118.959 885.662 120.765 889.227 Q122.593 892.769 126.205 892.769 Q129.839 892.769 131.644 889.227 Q133.473 885.662 133.473 878.556 Q133.473 871.426 131.644 867.884 Q129.839 864.32 126.205 864.32 M126.205 860.616 Q132.015 860.616 135.07 865.222 Q138.149 869.806 138.149 878.556 Q138.149 887.282 135.07 891.889 Q132.015 896.472 126.205 896.472 Q120.394 896.472 117.316 891.889 Q114.26 887.282 114.26 878.556 Q114.26 869.806 117.316 865.222 Q120.394 860.616 126.205 860.616 Z" fill="#000000" fill-rule="evenodd" fill-opacity="1" /><path clip-path="url(#clip870)" d="M146.366 889.921 L151.251 889.921 L151.251 895.801 L146.366 895.801 L146.366 889.921 Z" fill="#000000" fill-rule="evenodd" fill-opacity="1" /><path clip-path="url(#clip870)" d="M162.246 891.866 L169.885 891.866 L169.885 865.5 L161.575 867.167 L161.575 862.908 L169.839 861.241 L174.514 861.241 L174.514 891.866 L182.153 891.866 L182.153 895.801 L162.246 895.801 L162.246 891.866 Z" fill="#000000" fill-rule="evenodd" fill-opacity="1" /><path clip-path="url(#clip870)" d="M201.598 864.32 Q197.987 864.32 196.158 867.884 Q194.352 871.426 194.352 878.556 Q194.352 885.662 196.158 889.227 Q197.987 892.769 201.598 892.769 Q205.232 892.769 207.037 889.227 Q208.866 885.662 208.866 878.556 Q208.866 871.426 207.037 867.884 Q205.232 864.32 201.598 864.32 M201.598 860.616 Q207.408 860.616 210.463 865.222 Q213.542 869.806 213.542 878.556 Q213.542 887.282 210.463 891.889 Q207.408 896.472 201.598 896.472 Q195.787 896.472 192.709 891.889 Q189.653 887.282 189.653 878.556 Q189.653 869.806 192.709 865.222 Q195.787 860.616 201.598 860.616 Z" fill="#000000" fill-rule="evenodd" fill-opacity="1" /><path clip-path="url(#clip870)" d="M127.2 552.539 Q123.589 552.539 121.76 556.104 Q119.955 559.646 119.955 566.775 Q119.955 573.882 121.76 577.447 Q123.589 580.988 127.2 580.988 Q130.834 580.988 132.64 577.447 Q134.468 573.882 134.468 566.775 Q134.468 559.646 132.64 556.104 Q130.834 552.539 127.2 552.539 M127.2 548.836 Q133.01 548.836 136.066 553.442 Q139.144 558.025 139.144 566.775 Q139.144 575.502 136.066 580.109 Q133.01 584.692 127.2 584.692 Q121.39 584.692 118.311 580.109 Q115.256 575.502 115.256 566.775 Q115.256 558.025 118.311 553.442 Q121.39 548.836 127.2 548.836 Z" fill="#000000" fill-rule="evenodd" fill-opacity="1" /><path clip-path="url(#clip870)" d="M147.362 578.141 L152.246 578.141 L152.246 584.021 L147.362 584.021 L147.362 578.141 Z" fill="#000000" fill-rule="evenodd" fill-opacity="1" /><path clip-path="url(#clip870)" d="M163.241 580.085 L170.88 580.085 L170.88 553.72 L162.57 555.387 L162.57 551.127 L170.834 549.461 L175.51 549.461 L175.51 580.085 L183.149 580.085 L183.149 584.021 L163.241 584.021 L163.241 580.085 Z" fill="#000000" fill-rule="evenodd" fill-opacity="1" /><path clip-path="url(#clip870)" d="M192.639 549.461 L210.996 549.461 L210.996 553.396 L196.922 553.396 L196.922 561.868 Q197.94 561.521 198.959 561.359 Q199.977 561.174 200.996 561.174 Q206.783 561.174 210.162 564.345 Q213.542 567.516 213.542 572.933 Q213.542 578.511 210.07 581.613 Q206.598 584.692 200.278 584.692 Q198.102 584.692 195.834 584.322 Q193.588 583.951 191.181 583.21 L191.181 578.511 Q193.264 579.646 195.487 580.201 Q197.709 580.757 200.186 580.757 Q204.19 580.757 206.528 578.65 Q208.866 576.544 208.866 572.933 Q208.866 569.322 206.528 567.215 Q204.19 565.109 200.186 565.109 Q198.311 565.109 196.436 565.525 Q194.584 565.942 192.639 566.822 L192.639 549.461 Z" fill="#000000" fill-rule="evenodd" fill-opacity="1" /><path clip-path="url(#clip870)" d="M126.205 240.759 Q122.593 240.759 120.765 244.324 Q118.959 247.865 118.959 254.995 Q118.959 262.101 120.765 265.666 Q122.593 269.208 126.205 269.208 Q129.839 269.208 131.644 265.666 Q133.473 262.101 133.473 254.995 Q133.473 247.865 131.644 244.324 Q129.839 240.759 126.205 240.759 M126.205 237.055 Q132.015 237.055 135.07 241.662 Q138.149 246.245 138.149 254.995 Q138.149 263.722 135.07 268.328 Q132.015 272.912 126.205 272.912 Q120.394 272.912 117.316 268.328 Q114.26 263.722 114.26 254.995 Q114.26 246.245 117.316 241.662 Q120.394 237.055 126.205 237.055 Z" fill="#000000" fill-rule="evenodd" fill-opacity="1" /><path clip-path="url(#clip870)" d="M146.366 266.361 L151.251 266.361 L151.251 272.24 L146.366 272.24 L146.366 266.361 Z" fill="#000000" fill-rule="evenodd" fill-opacity="1" /><path clip-path="url(#clip870)" d="M165.464 268.305 L181.783 268.305 L181.783 272.24 L159.839 272.24 L159.839 268.305 Q162.501 265.551 167.084 260.921 Q171.69 256.268 172.871 254.926 Q175.116 252.402 175.996 250.666 Q176.899 248.907 176.899 247.217 Q176.899 244.463 174.954 242.727 Q173.033 240.99 169.931 240.99 Q167.732 240.99 165.278 241.754 Q162.848 242.518 160.07 244.069 L160.07 239.347 Q162.894 238.213 165.348 237.634 Q167.802 237.055 169.839 237.055 Q175.209 237.055 178.403 239.74 Q181.598 242.426 181.598 246.916 Q181.598 249.046 180.788 250.967 Q180.001 252.865 177.894 255.458 Q177.315 256.129 174.214 259.347 Q171.112 262.541 165.464 268.305 Z" fill="#000000" fill-rule="evenodd" fill-opacity="1" /><path clip-path="url(#clip870)" d="M201.598 240.759 Q197.987 240.759 196.158 244.324 Q194.352 247.865 194.352 254.995 Q194.352 262.101 196.158 265.666 Q197.987 269.208 201.598 269.208 Q205.232 269.208 207.037 265.666 Q208.866 262.101 208.866 254.995 Q208.866 247.865 207.037 244.324 Q205.232 240.759 201.598 240.759 M201.598 237.055 Q207.408 237.055 210.463 241.662 Q213.542 246.245 213.542 254.995 Q213.542 263.722 210.463 268.328 Q207.408 272.912 201.598 272.912 Q195.787 272.912 192.709 268.328 Q189.653 263.722 189.653 254.995 Q189.653 246.245 192.709 241.662 Q195.787 237.055 201.598 237.055 Z" fill="#000000" fill-rule="evenodd" fill-opacity="1" /><path clip-path="url(#clip870)" d="M14.479 723.865 L19.3487 723.865 L19.3487 729.467 Q19.3487 732.618 20.6219 733.859 Q21.895 735.069 25.2052 735.069 L28.3562 735.069 L28.3562 725.425 L32.9077 725.425 L32.9077 735.069 L64.0042 735.069 L64.0042 740.957 L32.9077 740.957 L32.9077 746.559 L28.3562 746.559 L28.3562 740.957 L25.8736 740.957 Q19.9216 740.957 17.2162 738.188 Q14.479 735.419 14.479 729.403 L14.479 723.865 Z" fill="#000000" fill-rule="evenodd" fill-opacity="1" /><polyline clip-path="url(#clip872)" style="stroke:#000000; stroke-linecap:round; stroke-linejoin:round; stroke-width:4; stroke-opacity:1; fill:none" stroke-dasharray="16, 10" points="
  452.457,765.417 459.921,762.276 467.692,759.078 475.785,755.894 484.213,752.529 492.99,749.45 502.13,746.413 511.649,742.977 521.563,740.071 531.887,737.161 
  542.639,733.975 553.838,731.157 565.5,728.222 577.645,726.017 590.292,722.56 603.463,719.729 617.177,717.322 631.456,714.761 646.323,712.34 661.799,709.937 
  677.909,707.915 694.676,705.214 712.123,703.404 730.276,701.588 749.158,699.853 768.796,698.44 789.212,697.117 810.432,695.752 832.48,695.065 855.379,694.121 
  879.15,693.663 903.814,693.64 929.389,693.222 955.894,693.534 983.339,694.125 1011.74,694.92 1041.09,696.138 1071.39,697.784 1102.65,699.666 1134.84,702.263 
  1167.93,705.013 1201.9,708.05 1236.69,712.393 1272.24,716.768 1308.48,721.896 1345.29,727.614 1382.56,733.996 1420.14,741.072 
  "/>
<polyline clip-path="url(#clip872)" style="stroke:#000000; stroke-linecap:round; stroke-linejoin:round; stroke-width:4; stroke-opacity:1; fill:none" stroke-dasharray="16, 10" points="
  1569.44,777.718 1605.17,789.2 1639.57,801.684 1672.21,815.204 1702.61,829.841 1730.25,845.656 1754.54,862.636 1774.85,880.815 1790.51,900.17 1800.85,920.778 
  1805.16,942.295 1802.78,965.476 1793.07,989.256 1775.51,1014.05 1749.73,1039.52 1715.52,1065.48 1672.98,1091.7 1622.46,1117.83 1564.71,1143.6 1500.8,1168.65 
  1432.15,1192.62 1360.43,1215.29 1287.46,1236.27 1215.08,1255.46 1144.95,1272.76 1078.45,1288.08 1016.61,1301.51 960.045,1313.16 909.001,1323.14 863.432,1331.68 
  823.066,1339.02 787.497,1345.06 756.248,1350.26 728.824,1354.64 704.749,1358.38 683.58,1361.53 664.921,1364.25 648.425,1366.56 633.789,1368.56 620.756,1370.2 
  609.105,1371.78 598.648,1373.01 589.225,1374.14 580.702,1375.11 572.962,1375.99 565.909,1376.77 559.458,1377.42 553.537,1378.03 548.086,1378.58 543.05,1379.05 
  538.385,1379.48 534.05,1379.87 530.011,1380.3 526.238,1380.54 522.703,1380.82 519.385,1381.09 516.262,1381.33 513.317,1381.54 510.533,1381.75 507.896,1381.92 
  505.394,1382.13 503.015,1382.16 500.749,1382.29 498.586,1382.53 496.519,1382.62 494.54,1382.72 492.642,1382.81 490.82,1382.93 489.067,1383.04 487.378,1383.1 
  485.75,1383.18 484.177,1383.28 482.655,1383.37 481.182,1383.37 479.754,1383.4 478.367,1383.56 477.019,1383.58 475.708,1383.56 474.431,1383.61 473.185,1383.61 
  471.969,1383.45 470.781,1383.79 469.618,1383.75 468.48,1383.84 467.364,1383.85 466.269,1383.88 465.194,1383.84 464.137,1383.91 463.096,1383.91 462.072,1383.89 
  461.062,1383.9 460.065,1384.24 459.081,1383.64 458.108,1383.99 457.146,1383.77 456.193,1383.95 455.248,1383.91 454.312,1384.01 453.382,1383.94 452.459,1383.94 
  451.54,1383.98 450.626,1383.95 449.716,1383.94 448.809,1383.82 447.904,1383.9 447.001,1384.24 446.098,1383.99 445.196,1383.58 444.292,1383.85 443.388,1383.84 
  442.481,1383.82 441.571,1383.78 440.658,1383.69 439.74,1383.74 438.817,1383.69 437.888,1383.65 436.953,1383.69 436.01,1383.51 435.058,1383.57 434.097,1383.51 
  433.127,1383.53 432.145,1383.42 431.151,1383.34 430.143,1383.33 429.122,1383.22 428.086,1383.14 427.033,1383.17 425.963,1383.05 424.874,1382.95 423.764,1382.86 
  422.634,1382.61 421.48,1382.7 420.301,1382.58 419.097,1382.46 417.864,1382.34 416.602,1382.22 415.308,1382.08 413.98,1381.94 412.616,1381.78 411.213,1381.64 
  409.769,1381.41 408.282,1381.22 406.748,1381.02 405.165,1380.76 403.528,1380.51 401.836,1380.26 400.083,1379.94 398.267,1379.61 396.382,1379.25 394.425,1378.86 
  392.391,1378.41 390.275,1377.92 388.072,1377.34 385.777,1376.69 383.385,1376.04 380.891,1375.27 378.289,1374.54 375.574,1373.53 372.743,1372.45 369.791,1371.23 
  366.715,1369.87 363.516,1368.24 360.193,1366.42 356.75,1364.25 353.196,1361.88 349.54,1359.1 345.798,1355.86 341.993,1352.13 338.152,1347.81 334.308,1342.82 
  330.498,1337.07 326.763,1330.48 323.147,1323.01 319.691,1314.55 316.431,1305.09 313.398,1294.62 310.612,1283.19 308.088,1270.87 305.828,1257.69 303.827,1243.88 
  302.077,1229.58 300.562,1214.81 299.266,1199.82 298.172,1184.76 297.263,1169.78 296.521,1155 295.933,1140.39 295.484,1126.16 295.163,1112.26 294.958,1098.91 
  294.861,1086 294.864,1073.76 294.961,1061.55 295.145,1050.23 295.412,1039.3 295.759,1028.84 296.181,1018.84 296.677,1009.3 297.243,1000.19 297.88,991.583 
  298.584,983.177 299.356,975.299 300.194,967.718 301.1,960.387 302.071,953.444 303.11,946.687 304.216,940.231 305.39,934.064 306.632,928.097 307.945,922.338 
  309.329,916.768 310.785,911.413 312.316,906.227 313.923,901.183 315.608,896.267 317.372,891.578 319.219,886.908 321.151,882.321 323.17,878.004 325.279,873.671 
  327.481,869.448 329.779,865.292 332.176,861.327 334.677,857.229 337.283,853.328 340,849.494 342.831,845.433 345.78,841.915 348.853,838.167 352.053,834.46 
  355.386,830.818 358.856,827.218 362.47,823.576 366.232,820.219 370.149,816.359 374.227,812.935 378.473,809.5 382.892,806.055 387.494,802.224 392.283,799.18 
  397.27,795.762 402.461,792.72 407.865,788.92 413.491,785.571 419.348,782.173 425.446,778.047 431.796,775.404 438.406,772.141 445.29,768.735 452.457,765.417 
  
  "/>
<polyline clip-path="url(#clip872)" style="stroke:#000000; stroke-linecap:round; stroke-linejoin:round; stroke-width:4; stroke-opacity:1; fill:none" stroke-dasharray="16, 10" points="
  544.334,920.248 555.499,917.606 567.051,915.518 579.004,913.399 591.368,910.968 604.156,909.024 617.38,907.603 631.05,905.922 645.182,904.06 659.785,902.413 
  674.872,900.708 690.456,899.167 706.548,897.708 723.161,896.324 740.306,894.953 757.995,893.443 776.237,892.236 795.044,891.614 814.425,890.692 834.388,889.917 
  854.944,889.381 876.096,888.582 897.852,888.241 920.215,887.972 943.188,887.748 966.771,887.72 990.962,887.863 1015.76,888.206 1041.15,888.771 1067.13,889.38 
  1093.67,890.491 1120.78,891.364 1148.41,892.651 1176.55,894.183 1205.15,895.883 1234.19,897.885 1263.61,900.141 1293.37,902.549 1323.39,905.341 1353.61,908.327 
  1383.96,911.613 1414.34,915.242 1444.65,919.126 1474.79,923.261 1504.64,927.907 1534.05,932.735 1562.9,937.987 1591.02,943.556 
  "/>
<polyline clip-path="url(#clip872)" style="stroke:#000000; stroke-linecap:round; stroke-linejoin:round; stroke-width:4; stroke-opacity:1; fill:none" stroke-dasharray="16, 10" points="
  1692.75,969.023 1714.54,976.37 1734.48,984.062 1752.35,992.014 1767.95,1000.3 1781.07,1008.87 1791.53,1017.35 1799.14,1026.59 1803.76,1035.9 1805.24,1046.32 
  1803.49,1055.53 1798.43,1065.75 1790.04,1075.85 1778.32,1085.93 1763.33,1096.38 1745.18,1106.6 1724.02,1116.85 1700.03,1126.96 1673.45,1136.9 1644.55,1146.81 
  1613.63,1156.44 1581.01,1165.84 1547.02,1174.91 1511.98,1183.73 1476.25,1192.2 1440.12,1200.33 1403.91,1208.03 1367.89,1215.38 1332.29,1222.36 1297.35,1228.96 
  1263.22,1235.18 1230.07,1240.98 1198.01,1246.42 1167.12,1251.49 1137.47,1256.28 1109.08,1260.7 1081.97,1264.86 1056.15,1268.65 1031.58,1272.2 1008.25,1275.5 
  986.12,1278.57 965.137,1281.44 945.258,1284.03 926.43,1286.46 908.6,1288.71 891.716,1290.81 875.724,1292.74 860.571,1294.57 846.209,1296.18 832.588,1297.77 
  819.661,1299.24 807.384,1300.58 795.718,1301.81 784.621,1302.98 774.057,1304.08 763.992,1305.07 754.393,1306.04 745.229,1307.01 736.473,1307.74 728.099,1308.51 
  720.082,1309.25 712.399,1309.88 705.029,1310.52 697.951,1311.14 691.149,1311.72 684.605,1312.18 678.303,1312.7 672.227,1313.26 666.365,1313.54 660.703,1313.92 
  655.23,1314.33 649.933,1314.69 644.804,1315.03 639.831,1315.33 635.006,1315.61 630.32,1315.9 625.765,1316.2 621.335,1316.4 617.02,1316.62 612.816,1316.84 
  608.715,1317.07 604.712,1317.25 600.802,1317.38 596.979,1317.55 593.238,1317.67 589.575,1317.96 585.985,1318.01 582.463,1317.96 579.007,1318.04 575.613,1318.27 
  572.276,1318.4 568.994,1318.78 565.762,1318.57 562.579,1318.65 559.442,1318.7 556.346,1318.77 553.29,1318.78 550.272,1318.79 547.288,1318.89 544.336,1318.89 
  541.415,1318.83 538.521,1318.87 535.653,1318.9 532.808,1318.86 529.985,1318.86 527.182,1318.8 524.396,1318.81 521.626,1318.71 518.871,1318.69 516.128,1318.79 
  513.395,1318.63 510.672,1318.46 507.956,1318.39 505.246,1318.31 502.54,1318.22 499.836,1318.12 497.134,1317.99 494.432,1317.83 491.727,1317.71 489.019,1317.57 
  486.306,1317.35 483.587,1317.2 480.86,1317.01 478.124,1316.8 475.378,1316.59 472.619,1316.38 469.847,1316.11 467.06,1315.86 464.257,1315.58 461.437,1315.28 
  458.598,1315.01 455.739,1314.55 452.858,1314.21 449.955,1314.06 447.028,1313.35 444.076,1313.31 441.097,1312.61 438.092,1312.08 435.058,1311.58 431.995,1311.01 
  428.902,1310.41 425.778,1309.79 422.623,1309.13 419.436,1308.27 416.217,1307.57 412.966,1306.82 409.683,1305.95 406.367,1305.03 403.02,1304.03 399.643,1302.94 
  396.236,1301.83 392.801,1300.7 389.341,1299.35 385.856,1297.93 382.351,1296.42 378.828,1294.85 375.292,1293.13 371.746,1291.29 368.196,1289.34 364.646,1287.25 
  361.104,1285 357.576,1282.62 354.069,1280.08 350.59,1277.35 347.149,1274.4 343.753,1271.36 340.412,1268.04 337.135,1264.58 333.931,1260.92 330.81,1257 
  327.78,1252.95 324.851,1248.62 322.03,1244.06 319.325,1239.31 316.745,1234.45 314.294,1229.3 311.979,1224.02 309.805,1218.54 307.775,1212.91 305.891,1207.15 
  304.157,1201.27 302.573,1195.24 301.14,1189.17 299.858,1183.06 298.725,1176.77 297.742,1170.55 296.906,1164.34 296.215,1158.15 295.668,1151.73 295.262,1145.4 
  294.995,1139.33 294.865,1133.64 294.869,1126.86 295.006,1121.01 295.273,1115.38 295.668,1109.56 296.19,1103.92 296.838,1098.23 297.609,1092.82 298.504,1087.48 
  299.521,1082.13 300.661,1077.02 301.921,1072.02 303.303,1067.15 304.807,1062.36 306.432,1057.51 308.18,1053.06 310.052,1048.59 312.048,1044.25 314.17,1039.94 
  316.419,1035.81 318.797,1031.65 321.306,1027.67 323.948,1023.74 326.726,1019.93 329.642,1016.17 332.699,1012.54 335.899,1008.98 339.248,1005.39 342.746,1001.96 
  346.399,998.515 350.21,995.187 354.184,991.944 358.324,988.716 362.636,985.521 367.123,982.422 371.792,979.365 376.646,976.428 381.693,973.222 386.937,970.421 
  392.384,967.589 398.041,964.715 403.914,961.848 410.01,959.132 416.336,956.422 422.899,953.596 429.706,951.098 436.765,948.397 444.085,945.796 451.673,943.247 
  459.538,940.757 467.689,938.551 476.134,935.506 484.885,933.368 493.949,931.014 503.337,928.689 513.059,926.369 523.126,924.112 533.547,921.902 544.334,920.248 
  
  "/>
<polyline clip-path="url(#clip872)" style="stroke:#000000; stroke-linecap:round; stroke-linejoin:round; stroke-width:4; stroke-opacity:1; fill:none" stroke-dasharray="16, 10" points="
  652.778,1015.65 667.163,1014.31 681.929,1013.09 697.081,1011.35 712.624,1010.52 728.562,1009.19 744.898,1008.48 761.635,1007.4 778.776,1006.53 796.324,1005.72 
  814.277,1004.96 832.639,1004.2 851.41,1003.56 870.587,1003.03 890.169,1002.49 910.154,1002.08 930.538,1001.69 951.314,1001.47 972.478,1001.21 994.019,1001.24 
  1015.93,1001.15 1038.2,1001.23 1060.82,1001.39 1083.76,1001.67 1107.03,1002.04 1130.58,1002.5 1154.42,1003.12 1178.5,1003.77 1202.81,1004.59 1227.32,1005.49 
  1251.99,1006.35 1276.8,1007.59 1301.7,1009.04 1326.66,1010.29 1351.63,1011.86 1376.57,1013.57 1401.43,1015.29 1426.15,1017.15 
  "/>
<polyline clip-path="url(#clip872)" style="stroke:#000000; stroke-linecap:round; stroke-linejoin:round; stroke-width:4; stroke-opacity:1; fill:none" stroke-dasharray="16, 10" points="
  1522.53,1026.21 1545.68,1028.81 1568.32,1031.49 1590.37,1034.38 1611.76,1037.36 1632.42,1040.5 1652.27,1043.75 1671.23,1047.11 1689.23,1050.69 1706.18,1054.23 
  1722.02,1058.1 1736.67,1062.01 1750.07,1065.97 1762.13,1070.09 1772.81,1074.27 1782.05,1078.51 1789.8,1082.92 1796.01,1087.27 1800.66,1092.44 1803.7,1096.49 
  1805.13,1101.76 1804.93,1105.15 1803.12,1110.35 1799.69,1115.23 1794.67,1119.96 1788.09,1124.86 1779.99,1129.66 1770.43,1134.48 1759.45,1139.14 1747.14,1143.87 
  1733.55,1148.5 1718.78,1153.02 1702.9,1157.61 1686.01,1162.07 1668.21,1166.47 1649.57,1170.79 1630.21,1175.01 1610.22,1179.18 1589.68,1183.17 1568.7,1187.1 
  1547.36,1190.92 1525.75,1194.64 1503.94,1198.25 1482.02,1201.73 1460.06,1205.1 1438.12,1208.37 1416.26,1211.5 1394.53,1214.57 1373,1217.49 1351.69,1220.3 
  1330.66,1223.02 1309.92,1225.61 1289.51,1228.12 1269.46,1230.49 1249.79,1232.8 1230.5,1234.99 1211.61,1237.08 1193.13,1239.06 1175.08,1241.01 1157.44,1242.84 
  1140.22,1244.6 1123.42,1246.31 1107.04,1247.91 1091.08,1249.42 1075.52,1250.85 1060.36,1252.23 1045.6,1253.53 1031.22,1254.91 1017.21,1256.06 1003.58,1257.24 
  990.294,1258.32 977.36,1259.37 964.76,1260.37 952.487,1261.3 940.528,1262.22 928.874,1263.1 917.515,1263.91 906.44,1264.69 895.639,1265.58 885.102,1266.39 
  874.82,1266.81 864.783,1267.48 854.982,1268.08 845.408,1268.66 836.052,1269.24 826.906,1269.73 817.963,1269.98 809.213,1270.76 800.649,1270.84 792.264,1271.44 
  784.05,1271.89 776.001,1272.33 768.111,1272.67 760.372,1273.01 752.779,1273.31 745.325,1273.55 738.005,1273.91 730.814,1274.09 723.745,1274.42 716.795,1274.64 
  709.958,1274.83 703.228,1275.05 696.603,1275.21 690.077,1275.42 683.646,1275.47 677.306,1275.62 671.053,1275.76 664.884,1275.85 658.794,1275.92 652.78,1275.99 
  646.84,1276.02 640.968,1276.09 635.164,1276.1 629.423,1276.1 623.743,1276.09 618.119,1276.06 612.552,1276.01 607.037,1275.93 601.572,1275.9 596.155,1275.82 
  590.782,1275.72 585.454,1275.6 580.166,1275.33 574.918,1275.33 569.706,1275.2 564.53,1275.03 559.388,1275.22 554.277,1274.75 549.197,1274.62 544.145,1274.13 
  539.121,1273.92 534.122,1273.64 529.148,1273.36 524.198,1273.01 519.27,1272.68 514.364,1272.34 509.478,1271.94 504.613,1271.63 499.765,1271.13 494.937,1270.67 
  490.127,1270.2 485.334,1269.7 480.558,1269.17 475.8,1268.62 471.058,1268.05 466.334,1267.42 461.627,1266.78 456.937,1266.13 452.265,1265.41 447.613,1264.65 
  442.98,1263.88 438.367,1263.01 433.775,1262.21 429.207,1261.29 424.662,1260.35 420.143,1259.37 415.652,1258.35 411.19,1257.3 406.759,1256.15 402.362,1254.99 
  398.002,1253.7 393.681,1252.47 389.401,1251.16 385.166,1249.77 380.98,1248.33 376.845,1246.79 372.764,1245.21 368.743,1243.62 364.784,1241.92 360.891,1240.2 
  357.069,1238.35 353.321,1236.44 349.653,1234.46 346.068,1232.45 342.57,1230.36 339.164,1228.21 335.855,1225.95 332.646,1223.64 329.543,1221.26 326.549,1218.86 
  323.667,1216.3 320.904,1213.71 318.262,1211.1 315.744,1208.41 313.356,1205.71 311.1,1202.91 308.979,1200 306.996,1197.11 305.155,1194.18 303.458,1191.19 
  301.907,1188.06 300.505,1184.98 299.254,1181.92 298.156,1178.75 297.213,1175.69 296.425,1172.38 295.796,1169.18 295.325,1166.09 295.014,1162.96 294.865,1158.74 
  294.878,1155 295.054,1153.25 295.395,1149.59 295.9,1146.47 296.572,1143.43 297.41,1140.19 298.416,1136.98 299.591,1133.85 300.935,1130.64 302.45,1127.62 
  304.137,1124.33 305.996,1121.4 308.03,1118.35 310.239,1115.35 312.625,1112.43 315.189,1109.44 317.934,1106.61 320.86,1103.71 323.97,1100.9 327.266,1098.07 
  330.75,1095.29 334.424,1092.57 338.291,1089.89 342.354,1087.24 346.615,1084.62 351.077,1082.04 355.743,1079.5 360.617,1077.04 365.702,1074.53 371.001,1072.04 
  376.518,1069.66 382.258,1067.28 388.223,1064.96 394.418,1062.67 400.847,1060.41 407.516,1058.15 414.427,1055.96 421.587,1053.86 429,1051.7 436.671,1049.6 
  444.605,1047.54 452.806,1045.52 461.282,1043.53 470.037,1041.59 479.076,1039.66 488.406,1037.77 498.031,1035.95 507.959,1034.12 518.194,1032.35 528.743,1030.63 
  539.611,1028.86 550.804,1027.25 562.33,1025.57 574.192,1023.99 586.398,1022.48 598.953,1021.14 611.862,1019.45 625.133,1017.85 638.77,1016.86 652.778,1015.65 
  
  "/>
<polyline clip-path="url(#clip872)" style="stroke:#000000; stroke-linecap:round; stroke-linejoin:round; stroke-width:4; stroke-opacity:1; fill:none" points="
  626.897,323.302 638.272,321.096 649.902,319.298 661.791,317.007 673.942,314.978 686.358,311.993 699.043,308.8 711.999,306.083 725.229,304.026 738.737,301.172 
  752.523,298.386 766.591,295.397 780.943,292.48 795.581,289.448 810.506,286.27 825.72,283.112 841.224,279.787 857.019,276.333 873.105,273.064 889.482,269.479 
  906.151,265.966 923.11,262.64 940.359,258.891 957.896,254.931 975.719,251.125 993.825,247.161 1012.21,243.426 1030.88,239.336 1049.81,235.293 1069.02,231.213 
  1088.48,227.353 1108.21,223.303 1128.18,219.063 1148.39,215.216 1168.84,211.064 1189.51,207.076 1210.39,203.289 1231.48,199.595 1252.76,195.748 1274.22,192.331 
  1295.84,189.416 1317.62,186.085 1339.53,183.885 1361.56,181.415 1383.7,179.837 1405.91,179.138 1428.19,178.353 1450.51,178.469 1472.84,180.362 1495.17,183.292 
  1517.45,186.397 1539.67,191.826 1561.77,198.001 1583.73,206.507 1605.48,216.704 1626.96,229.44 1648.11,244.176 1668.83,262.071 1689,282.488 1708.5,306.376 
  1727.13,332.351 1744.67,361.224 1760.84,393.273 1775.28,427.867 1787.54,464.633 1797.07,503.226 1803.22,543.634 1805.24,584.145 1802.28,626.089 
  "/>
<polyline clip-path="url(#clip872)" style="stroke:#000000; stroke-linecap:round; stroke-linejoin:round; stroke-width:4; stroke-opacity:1; fill:none" points="
  1778.08,706.349 1755.41,743.793 1725.16,778.992 1687.48,811.27 1643.01,840.737 1592.89,866.967 1538.65,890.212 1482.04,910.523 1424.78,928.114 1368.41,943.248 
  1314.13,956.144 1262.82,967.182 1214.98,976.51 1170.87,984.549 1130.49,991.255 1093.74,997.045 1060.38,1001.83 1030.15,1006.25 1002.77,1009.31 977.954,1012.76 
  955.437,1015.3 934.966,1017.59 916.317,1019.74 899.287,1021.63 883.696,1023.37 869.384,1024.51 856.211,1025.6 844.055,1026.8 832.807,1027.76 822.371,1028.15 
  812.665,1029.17 803.615,1030.24 795.156,1030.48 787.232,1031.23 779.79,1031.84 772.787,1031.63 766.183,1032.48 759.942,1032.76 754.033,1032.54 748.427,1033.48 
  743.099,1033.56 738.026,1034.14 733.187,1034.47 728.564,1034.14 724.14,1034.23 719.901,1035.18 715.831,1034.42 711.919,1034.54 708.154,1034.68 704.523,1034.82 
  701.019,1035.49 697.632,1036.06 694.354,1035.34 691.178,1035.67 688.097,1036.38 685.104,1035.19 682.194,1035.54 679.36,1035.67 676.599,1035.7 673.905,1035.5 
  671.274,1037.49 668.701,1035.9 666.184,1035.87 663.717,1036.33 661.298,1035.71 658.924,1036.24 656.592,1036.41 654.298,1035.65 652.04,1038.26 649.815,1036.42 
  647.621,1035.71 645.456,1036.19 643.317,1036.75 641.202,1036.15 639.109,1035.22 637.037,1037.59 634.982,1035.99 632.944,1034.88 630.92,1035.76 628.909,1035.85 
  626.909,1036 624.919,1035.78 622.936,1035.55 620.959,1036.15 618.986,1035.72 617.017,1035.7 615.048,1035.5 613.08,1035.43 611.109,1035.45 609.135,1035.57 
  607.156,1033.23 605.17,1035.01 603.176,1035.09 601.172,1035.26 599.156,1034.37 597.127,1034.91 595.083,1037.07 593.022,1036.63 590.943,1034.59 588.843,1034.78 
  586.72,1032.38 584.572,1034.42 582.398,1034.41 580.195,1033.18 577.961,1033.86 575.693,1033.37 573.389,1033.22 571.046,1032.93 568.661,1034.44 566.232,1030.92 
  563.756,1032.82 561.228,1032.45 558.647,1032.31 556.008,1032.16 553.306,1031.94 550.54,1030.56 547.702,1031.32 544.791,1029.24 541.799,1031.31 538.723,1030.21 
  535.556,1029.71 532.293,1028.39 528.927,1027.31 525.451,1028.61 521.859,1027.84 518.142,1029.03 514.293,1026.43 510.303,1025.88 506.162,1025.82 501.861,1023.4 
  497.39,1025.14 492.738,1021.14 487.893,1021.8 482.845,1019.63 477.581,1018.8 472.09,1015.77 466.359,1014.35 460.378,1014.15 454.137,1011.4 447.627,1009.2 
  440.842,1006.99 433.779,1003.14 426.44,999.845 418.834,993.673 410.975,990.332 402.889,985.783 394.615,978.632 386.202,975.482 377.717,962.435 369.239,951.641 
  360.863,942.408 352.694,929.238 344.841,912.255 337.412,895.088 330.504,875.677 324.197,853.405 318.545,830.197 313.575,804.728 309.29,778.441 305.667,750.58 
  302.668,715.224 300.244,688.685 298.34,659.431 296.903,627.657 295.881,612.023 295.228,591.567 294.903,542.267 294.871,523.646 295.102,521.069 295.571,502.327 
  296.258,485.735 297.146,473.379 298.221,461.492 299.472,450.092 300.888,440.61 302.464,431.796 304.193,424.101 306.069,417.178 308.09,411.338 310.251,406.163 
  312.552,401.615 314.99,397.561 317.563,394.019 320.272,390.913 323.115,388.214 326.093,385.744 329.206,383.642 332.453,381.783 335.837,380.243 339.357,378.456 
  343.015,377.014 346.812,375.954 350.749,374.407 354.827,373.48 359.048,372.546 363.415,371.435 367.928,370.156 372.589,369.375 377.401,368.527 382.366,368.015 
  387.486,366.492 392.762,365.344 398.198,364.676 403.796,364.195 409.559,362.965 415.488,361.305 421.588,360.962 427.859,360.71 434.306,358.718 440.931,358.004 
  447.738,356.227 454.728,355.901 461.906,354.27 469.274,353.299 476.835,352.198 484.593,350.562 492.551,349.091 500.713,347.661 509.081,346.22 517.66,344.68 
  526.452,343.048 535.462,341.406 544.692,339.833 554.146,337.921 563.827,336.205 573.74,334.216 583.888,332.997 594.274,330.976 604.902,328.258 615.775,325.505 
  626.897,323.302 
  "/>
<polyline clip-path="url(#clip872)" style="stroke:#000000; stroke-linecap:round; stroke-linejoin:round; stroke-width:4; stroke-opacity:1; fill:none" points="
  677.856,219.136 690.942,217.016 704.299,214.844 717.932,212.548 731.842,210.236 746.031,207.862 760.502,205.428 775.256,202.936 790.296,200.401 805.621,197.806 
  821.235,195.167 837.137,192.482 853.328,189.743 869.81,186.974 886.581,184.191 903.641,181.238 920.99,178.426 938.628,175.537 956.551,172.614 974.758,169.684 
  993.247,166.737 1012.01,163.797 1031.06,160.862 1050.37,157.94 1069.95,154.888 1089.78,152.183 1109.87,149.369 1130.2,146.61 1150.77,143.928 1171.57,141.311 
  1192.58,138.821 1213.79,136.438 1235.2,134.189 1256.78,132.105 1278.52,130.179 1300.4,128.459 1322.4,126.977 1344.5,125.737 1366.68,124.775 1388.9,124.114 
  1411.15,123.795 1433.39,123.845 1455.58,124.301 1477.69,125.193 1499.67,126.553 1521.48,128.425 1543.08,130.846 1564.4,133.864 1585.39,137.302 1605.99,141.699 
  1626.11,146.649 1645.7,152.273 1664.66,158.665 1682.9,165.8 1700.33,173.575 1716.85,182.334 1732.34,191.733 1746.7,201.839 1759.78,212.691 1771.48,224.42 
  1781.66,236.598 1790.18,249.526 1796.92,262.934 1801.75,276.678 1804.55,290.759 1805.2,306.118 1803.62,320.894 1799.74,336.014 1793.5,351.463 1784.87,366.536 
  1773.89,381.774 1760.57,396.538 1745.01,411.183 1727.31,425.438 
  "/>
<polyline clip-path="url(#clip872)" style="stroke:#000000; stroke-linecap:round; stroke-linejoin:round; stroke-width:4; stroke-opacity:1; fill:none" points="
  1638.48,478.118 1612.78,489.95 1586.14,501.208 1558.79,511.891 1530.96,521.989 1502.86,531.46 1474.69,540.43 1446.62,548.655 1418.83,556.592 1391.43,563.949 
  1364.55,570.866 1338.29,577.143 1312.7,583.127 1287.86,588.596 1263.79,593.727 1240.53,598.521 1218.09,602.967 1196.47,607.05 1175.67,610.87 1155.68,614.408 
  1136.47,617.718 1118.03,620.781 1100.34,623.632 1083.36,626.283 1067.07,628.757 1051.44,631.038 1036.43,633.134 1022.03,635.197 1008.2,637.045 994.911,638.733 
  982.138,640.302 969.853,641.791 958.03,643.262 946.646,644.4 935.677,645.861 925.1,647.069 914.894,648.087 905.04,649.094 895.517,649.851 886.308,650.915 
  877.395,651.696 868.763,652.447 860.396,653.292 852.28,653.942 844.4,654.582 836.745,655.127 829.302,655.759 822.06,656.08 815.007,656.573 808.133,657.191 
  801.43,657.553 794.887,658.122 788.495,658.56 782.248,658.731 776.137,658.961 770.154,659.408 764.292,659.863 758.546,659.856 752.908,660.049 747.373,660.397 
  741.935,660.306 736.588,660.766 731.327,660.99 726.148,660.917 721.045,660.922 716.014,661.294 711.051,661.321 706.151,660.952 701.311,661.689 696.526,661.371 
  691.793,661.299 687.108,661.373 682.469,661.126 677.87,661.417 673.31,661.521 668.785,661.323 664.292,661.152 659.828,660.927 655.39,660.953 650.976,660.837 
  646.582,660.779 642.206,660.667 637.845,660.596 633.497,660.216 629.159,659.779 624.829,659.665 620.503,659.586 616.181,659.708 611.859,659.153 607.534,658.862 
  603.206,659.312 598.87,658.235 594.526,657.725 590.17,657.216 585.8,656.84 581.415,656.423 577.011,655.932 572.587,655.554 568.141,655.12 563.669,653.87 
  559.171,653.74 554.643,653.074 550.085,652.563 545.492,651.998 540.865,651.058 536.2,650.121 531.496,649.768 526.75,648.492 521.962,647.759 517.128,646.897 
  512.248,645.323 507.32,644.535 502.343,642.943 497.315,642.059 492.236,640.789 487.104,639.265 481.92,637.508 476.682,635.848 471.391,634.133 466.048,632.496 
  460.653,629.817 455.208,627.876 449.714,626.71 444.175,623.381 438.593,620.81 432.972,618.002 427.317,615.443 421.634,612.047 415.928,608.591 410.208,604.614 
  404.482,600.995 398.759,596.563 393.05,592.408 387.367,587.669 381.722,582.65 376.13,576.737 370.605,572.036 365.163,564.811 359.821,558.711 354.594,552.407 
  349.501,544.701 344.559,537.13 339.784,530.099 335.193,521.075 330.803,512.948 326.627,504.135 322.679,494.23 318.972,483.952 315.515,475.506 312.318,464.812 
  309.386,454.292 306.723,442.845 304.334,433.862 302.22,423.104 300.378,414.136 298.809,405.951 297.508,393.596 296.472,381.273 295.695,373.97 295.173,361.418 
  294.898,355.734 294.866,339.988 295.07,341.785 295.504,334.386 296.162,328.126 297.038,320.292 298.127,314.764 299.424,308.472 300.924,303.966 302.622,298.974 
  304.515,294.402 306.6,290.377 308.872,286.762 311.33,283.864 313.971,280.386 316.793,278.477 319.795,275.716 322.974,273.793 326.331,271.737 329.864,269.978 
  333.572,268.493 337.456,266.876 341.515,265.688 345.75,264.359 350.16,263.343 354.747,262.518 359.512,261.669 364.454,260.857 369.576,259.92 374.879,259.344 
  380.363,258.581 386.03,257.814 391.883,257.186 397.922,256.608 404.149,255.862 410.568,255.123 417.178,254.354 423.984,253.725 430.986,253.109 438.188,252.403 
  445.591,251.622 453.198,250.833 461.012,249.89 469.036,248.907 477.271,248.126 485.721,247.022 494.389,245.961 503.276,245.029 512.387,243.794 521.725,242.59 
  531.291,241.239 541.089,240.067 551.122,238.569 561.393,237.057 571.906,235.641 582.662,233.991 593.666,232.351 604.919,230.66 616.426,228.891 628.188,227.069 
  640.21,225.174 652.493,223.236 665.041,221.222 677.856,219.136 
  "/>
<polyline clip-path="url(#clip872)" style="stroke:#000000; stroke-linecap:round; stroke-linejoin:round; stroke-width:4; stroke-opacity:1; fill:none" points="
  751.617,144.343 766.512,142.659 781.664,141.126 797.072,139.589 812.735,137.688 828.652,135.957 844.821,134.197 861.241,132.323 877.91,130.484 894.825,128.623 
  911.983,126.705 929.381,124.81 947.015,122.889 964.88,120.961 982.973,119.035 1001.29,117.134 1019.82,115.181 1038.56,113.266 1057.5,111.351 1076.64,109.467 
  1095.96,107.604 1115.46,105.77 1135.13,103.984 1154.95,102.208 1174.92,100.502 1195.02,98.8574 1215.23,97.2495 1235.55,95.7251 1255.96,94.3204 1276.43,92.9625 
  1296.96,91.7398 1317.52,90.5568 1338.09,89.5244 1358.64,88.6658 1379.17,87.831 1399.63,87.2278 1420.01,86.7024 1440.28,86.4125 1460.4,86.2086 1480.34,86.1857 
  1500.08,86.4812 1519.58,86.8436 1538.8,87.5331 1557.7,88.2741 1576.25,89.4839 1594.4,90.6896 1612.12,92.2809 1629.35,93.9903 1646.06,96.0417 1662.2,98.3637 
  1677.71,100.872 1692.57,103.607 1706.7,106.633 1720.08,109.991 1732.65,113.649 1744.36,117.524 1755.16,121.486 1765.02,125.733 1773.89,130.554 1781.72,135.137 
  1788.48,139.95 1794.14,145.376 1798.67,150.023 1802.03,155.054 1804.21,162.596 1805.19,166.952 1804.96,174.197 1803.52,179.532 1800.86,185.683 1797,191.824 
  1791.96,198.097 1785.75,204.328 1778.4,210.627 1769.95,216.882 1760.43,223.188 1749.9,229.375 1738.4,235.491 1725.99,241.556 1712.73,247.79 1698.68,253.802 
  1683.91,259.309 1668.47,265.257 1652.44,270.63 1635.88,276.14 1618.86,281.359 1601.45,286.577 1583.7,291.81 
  "/>
<polyline clip-path="url(#clip872)" style="stroke:#000000; stroke-linecap:round; stroke-linejoin:round; stroke-width:4; stroke-opacity:1; fill:none" points="
  1473.41,318.502 1454.86,322.756 1436.39,326.342 1418.01,329.926 1399.76,333.358 1381.68,336.759 1363.77,339.935 1346.07,343.037 1328.59,346.504 1311.35,348.95 
  1294.36,351.635 1277.63,354.227 1261.17,356.926 1244.98,359.236 1229.07,361.62 1213.44,363.766 1198.1,365.931 1183.04,367.837 1168.27,369.83 1153.77,371.655 
  1139.56,373.417 1125.62,375.061 1111.95,376.658 1098.55,378.178 1085.41,379.62 1072.53,381.002 1059.89,382.405 1047.5,383.57 1035.35,384.7 1023.43,385.871 
  1011.74,386.93 1000.27,388.005 989.007,388.953 977.953,389.888 967.098,390.828 956.437,391.698 945.963,392.247 935.671,393.092 925.553,393.79 915.604,394.378 
  905.819,394.902 896.191,395.619 886.714,396.154 877.384,396.791 868.194,397.058 859.14,397.622 850.217,397.926 841.419,398.539 832.741,398.678 824.18,399.083 
  815.73,399.101 807.387,399.704 799.146,399.752 791.004,400.044 782.957,400.388 775,400.761 767.129,400.7 759.342,400.629 751.633,400.626 744.001,400.67 
  736.441,400.676 728.951,400.528 721.527,400.689 714.165,399.832 706.864,399.791 699.621,400.302 692.432,400.396 685.295,399.957 678.207,399.709 671.166,399.757 
  664.171,399.253 657.217,398.992 650.304,398.427 643.429,397.202 636.59,397.861 629.786,397.656 623.014,397.117 616.274,396.645 609.563,395.583 602.88,395.229 
  596.223,395.534 589.593,394.114 582.986,393.387 576.404,392.045 569.843,390.943 563.305,391.363 556.788,390.225 550.291,389.928 543.816,388.416 537.36,387.742 
  530.925,387.385 524.511,385.381 518.118,384.103 511.746,383.089 505.396,381.843 499.069,380.847 492.767,379.188 486.49,377.525 480.241,376.469 474.021,374.487 
  467.831,372.895 461.675,371.778 455.555,369.514 449.473,367.688 443.434,365.824 437.439,363.303 431.493,361.795 425.6,359.283 419.763,357.453 413.988,354.455 
  408.279,352.462 402.641,349.061 397.078,347.348 391.598,343.453 386.205,341.894 380.905,338.64 375.704,335.656 370.609,332.749 365.626,330.491 360.762,325.187 
  356.023,322.153 351.415,318.807 346.946,316.242 342.621,311.685 338.448,308.239 334.433,305.767 330.583,299.565 326.902,296.394 323.398,291.965 320.075,287.737 
  316.94,285.035 313.997,281.227 311.25,277.444 308.705,271.339 306.365,266.65 304.233,262.446 302.314,261.179 300.609,255.736 299.122,252.982 297.854,248.765 
  296.807,246.924 295.983,238.368 295.382,237.376 295.005,226.262 294.854,232.007 294.927,225.913 295.227,222.558 295.751,220.057 296.5,217.17 297.473,216.013 
  298.671,211.632 300.092,209.077 301.736,206.566 303.601,202.937 305.688,201.889 307.996,199.758 310.524,196.961 313.271,195.499 316.236,194.507 319.42,192.505 
  322.821,190.933 326.44,189.781 330.275,188.229 334.327,187.428 338.595,185.914 343.08,184.737 347.781,183.335 352.698,183.046 357.832,182.306 363.183,181.067 
  368.751,180.659 374.538,179.601 380.542,178.903 386.766,178.412 393.21,177.645 399.874,177.056 406.759,176.3 413.868,175.538 421.199,174.989 428.756,174.788 
  436.538,173.95 444.547,173.505 452.785,172.927 461.252,171.842 469.95,171.319 478.881,170.33 488.046,170.201 497.445,169.185 507.082,168.335 516.956,167.299 
  527.071,166.873 537.426,165.752 548.024,164.805 558.867,163.682 569.954,163.468 581.289,161.558 592.872,160.684 604.704,159.574 616.787,158.327 629.122,157.177 
  641.71,156.249 654.552,154.57 667.649,153.338 681.002,151.996 694.611,150.555 708.476,149.131 722.599,147.521 736.98,145.959 751.617,144.343 
  "/>
<path clip-path="url(#clip870)" d="
M1920.66 248.629 L2352.76 248.629 L2352.76 93.1086 L1920.66 93.1086  Z
  " fill="#ffffff" fill-rule="evenodd" fill-opacity="0"/>
<polyline clip-path="url(#clip870)" style="stroke:#000000; stroke-linecap:round; stroke-linejoin:round; stroke-width:4; stroke-opacity:1; fill:none" points="
  1920.66,248.629 2352.76,248.629 2352.76,93.1086 1920.66,93.1086 1920.66,248.629 
  "/>
<polyline clip-path="url(#clip870)" style="stroke:#000000; stroke-linecap:round; stroke-linejoin:round; stroke-width:4; stroke-opacity:1; fill:none" stroke-dasharray="16, 10" points="
  1944.03,144.949 2084.25,144.949 
  "/>
<path clip-path="url(#clip870)" d="M2121.02 149.196 Q2115.86 149.196 2113.87 150.377 Q2111.88 151.557 2111.88 154.405 Q2111.88 156.673 2113.36 158.016 Q2114.86 159.335 2117.43 159.335 Q2120.97 159.335 2123.1 156.835 Q2125.25 154.312 2125.25 150.145 L2125.25 149.196 L2121.02 149.196 M2129.51 147.437 L2129.51 162.229 L2125.25 162.229 L2125.25 158.293 Q2123.8 160.655 2121.62 161.789 Q2119.44 162.9 2116.3 162.9 Q2112.32 162.9 2109.95 160.678 Q2107.62 158.432 2107.62 154.682 Q2107.62 150.307 2110.53 148.085 Q2113.47 145.863 2119.28 145.863 L2125.25 145.863 L2125.25 145.446 Q2125.25 142.507 2123.31 140.909 Q2121.39 139.289 2117.89 139.289 Q2115.67 139.289 2113.57 139.821 Q2111.46 140.354 2109.51 141.419 L2109.51 137.483 Q2111.85 136.581 2114.05 136.141 Q2116.25 135.678 2118.33 135.678 Q2123.96 135.678 2126.74 138.594 Q2129.51 141.511 2129.51 147.437 Z" fill="#000000" fill-rule="evenodd" fill-opacity="1" /><path clip-path="url(#clip870)" d="M2138.84 140.701 L2168.52 140.701 L2168.52 144.59 L2138.84 144.59 L2138.84 140.701 M2138.84 150.145 L2168.52 150.145 L2168.52 154.081 L2138.84 154.081 L2138.84 150.145 Z" fill="#000000" fill-rule="evenodd" fill-opacity="1" /><path clip-path="url(#clip870)" d="M2188.61 130.747 Q2185 130.747 2183.17 134.312 Q2181.37 137.854 2181.37 144.983 Q2181.37 152.09 2183.17 155.655 Q2185 159.196 2188.61 159.196 Q2192.25 159.196 2194.05 155.655 Q2195.88 152.09 2195.88 144.983 Q2195.88 137.854 2194.05 134.312 Q2192.25 130.747 2188.61 130.747 M2188.61 127.044 Q2194.42 127.044 2197.48 131.65 Q2200.56 136.233 2200.56 144.983 Q2200.56 153.71 2197.48 158.317 Q2194.42 162.9 2188.61 162.9 Q2182.8 162.9 2179.72 158.317 Q2176.67 153.71 2176.67 144.983 Q2176.67 136.233 2179.72 131.65 Q2182.8 127.044 2188.61 127.044 Z" fill="#000000" fill-rule="evenodd" fill-opacity="1" /><path clip-path="url(#clip870)" d="M2208.77 156.349 L2213.66 156.349 L2213.66 162.229 L2208.77 162.229 L2208.77 156.349 Z" fill="#000000" fill-rule="evenodd" fill-opacity="1" /><path clip-path="url(#clip870)" d="M2223.98 161.511 L2223.98 157.252 Q2225.74 158.085 2227.55 158.525 Q2229.35 158.965 2231.09 158.965 Q2235.72 158.965 2238.15 155.863 Q2240.6 152.738 2240.95 146.395 Q2239.61 148.386 2237.55 149.451 Q2235.49 150.516 2232.99 150.516 Q2227.8 150.516 2224.77 147.391 Q2221.76 144.243 2221.76 138.803 Q2221.76 133.479 2224.91 130.261 Q2228.06 127.044 2233.29 127.044 Q2239.28 127.044 2242.43 131.65 Q2245.6 136.233 2245.6 144.983 Q2245.6 153.155 2241.71 158.039 Q2237.85 162.9 2231.3 162.9 Q2229.54 162.9 2227.73 162.553 Q2225.93 162.205 2223.98 161.511 M2233.29 146.858 Q2236.43 146.858 2238.26 144.706 Q2240.12 142.553 2240.12 138.803 Q2240.12 135.076 2238.26 132.923 Q2236.43 130.747 2233.29 130.747 Q2230.14 130.747 2228.29 132.923 Q2226.46 135.076 2226.46 138.803 Q2226.46 142.553 2228.29 144.706 Q2230.14 146.858 2233.29 146.858 Z" fill="#000000" fill-rule="evenodd" fill-opacity="1" /><path clip-path="url(#clip870)" d="M2254.14 161.511 L2254.14 157.252 Q2255.9 158.085 2257.71 158.525 Q2259.51 158.965 2261.25 158.965 Q2265.88 158.965 2268.31 155.863 Q2270.76 152.738 2271.11 146.395 Q2269.77 148.386 2267.71 149.451 Q2265.65 150.516 2263.15 150.516 Q2257.96 150.516 2254.93 147.391 Q2251.92 144.243 2251.92 138.803 Q2251.92 133.479 2255.07 130.261 Q2258.22 127.044 2263.45 127.044 Q2269.44 127.044 2272.59 131.65 Q2275.76 136.233 2275.76 144.983 Q2275.76 153.155 2271.87 158.039 Q2268.01 162.9 2261.46 162.9 Q2259.7 162.9 2257.89 162.553 Q2256.09 162.205 2254.14 161.511 M2263.45 146.858 Q2266.6 146.858 2268.43 144.706 Q2270.28 142.553 2270.28 138.803 Q2270.28 135.076 2268.43 132.923 Q2266.6 130.747 2263.45 130.747 Q2260.3 130.747 2258.45 132.923 Q2256.62 135.076 2256.62 138.803 Q2256.62 142.553 2258.45 144.706 Q2260.3 146.858 2263.45 146.858 Z" fill="#000000" fill-rule="evenodd" fill-opacity="1" /><path clip-path="url(#clip870)" d="M2294.17 145.817 Q2290.83 145.817 2288.91 147.599 Q2287.01 149.381 2287.01 152.506 Q2287.01 155.631 2288.91 157.414 Q2290.83 159.196 2294.17 159.196 Q2297.5 159.196 2299.42 157.414 Q2301.34 155.608 2301.34 152.506 Q2301.34 149.381 2299.42 147.599 Q2297.52 145.817 2294.17 145.817 M2289.49 143.826 Q2286.48 143.085 2284.79 141.025 Q2283.12 138.965 2283.12 136.002 Q2283.12 131.858 2286.06 129.451 Q2289.03 127.044 2294.17 127.044 Q2299.33 127.044 2302.27 129.451 Q2305.21 131.858 2305.21 136.002 Q2305.21 138.965 2303.52 141.025 Q2301.85 143.085 2298.87 143.826 Q2302.24 144.613 2304.12 146.905 Q2306.02 149.196 2306.02 152.506 Q2306.02 157.53 2302.94 160.215 Q2299.88 162.9 2294.17 162.9 Q2288.45 162.9 2285.37 160.215 Q2282.31 157.53 2282.31 152.506 Q2282.31 149.196 2284.21 146.905 Q2286.11 144.613 2289.49 143.826 M2287.78 136.442 Q2287.78 139.127 2289.44 140.632 Q2291.13 142.136 2294.17 142.136 Q2297.18 142.136 2298.87 140.632 Q2300.58 139.127 2300.58 136.442 Q2300.58 133.757 2298.87 132.252 Q2297.18 130.747 2294.17 130.747 Q2291.13 130.747 2289.44 132.252 Q2287.78 133.757 2287.78 136.442 Z" fill="#000000" fill-rule="evenodd" fill-opacity="1" /><polyline clip-path="url(#clip870)" style="stroke:#000000; stroke-linecap:round; stroke-linejoin:round; stroke-width:4; stroke-opacity:1; fill:none" points="
  1944.03,196.789 2084.25,196.789 
  "/>
<path clip-path="url(#clip870)" d="M2121.02 201.036 Q2115.86 201.036 2113.87 202.217 Q2111.88 203.397 2111.88 206.245 Q2111.88 208.513 2113.36 209.856 Q2114.86 211.175 2117.43 211.175 Q2120.97 211.175 2123.1 208.675 Q2125.25 206.152 2125.25 201.985 L2125.25 201.036 L2121.02 201.036 M2129.51 199.277 L2129.51 214.069 L2125.25 214.069 L2125.25 210.133 Q2123.8 212.495 2121.62 213.629 Q2119.44 214.74 2116.3 214.74 Q2112.32 214.74 2109.95 212.518 Q2107.62 210.272 2107.62 206.522 Q2107.62 202.147 2110.53 199.925 Q2113.47 197.703 2119.28 197.703 L2125.25 197.703 L2125.25 197.286 Q2125.25 194.347 2123.31 192.749 Q2121.39 191.129 2117.89 191.129 Q2115.67 191.129 2113.57 191.661 Q2111.46 192.194 2109.51 193.259 L2109.51 189.323 Q2111.85 188.421 2114.05 187.981 Q2116.25 187.518 2118.33 187.518 Q2123.96 187.518 2126.74 190.434 Q2129.51 193.351 2129.51 199.277 Z" fill="#000000" fill-rule="evenodd" fill-opacity="1" /><path clip-path="url(#clip870)" d="M2138.84 192.541 L2168.52 192.541 L2168.52 196.43 L2138.84 196.43 L2138.84 192.541 M2138.84 201.985 L2168.52 201.985 L2168.52 205.921 L2138.84 205.921 L2138.84 201.985 Z" fill="#000000" fill-rule="evenodd" fill-opacity="1" /><path clip-path="url(#clip870)" d="M2188.61 182.587 Q2185 182.587 2183.17 186.152 Q2181.37 189.694 2181.37 196.823 Q2181.37 203.93 2183.17 207.495 Q2185 211.036 2188.61 211.036 Q2192.25 211.036 2194.05 207.495 Q2195.88 203.93 2195.88 196.823 Q2195.88 189.694 2194.05 186.152 Q2192.25 182.587 2188.61 182.587 M2188.61 178.884 Q2194.42 178.884 2197.48 183.49 Q2200.56 188.073 2200.56 196.823 Q2200.56 205.55 2197.48 210.157 Q2194.42 214.74 2188.61 214.74 Q2182.8 214.74 2179.72 210.157 Q2176.67 205.55 2176.67 196.823 Q2176.67 188.073 2179.72 183.49 Q2182.8 178.884 2188.61 178.884 Z" fill="#000000" fill-rule="evenodd" fill-opacity="1" /><path clip-path="url(#clip870)" d="M2208.77 208.189 L2213.66 208.189 L2213.66 214.069 L2208.77 214.069 L2208.77 208.189 Z" fill="#000000" fill-rule="evenodd" fill-opacity="1" /><path clip-path="url(#clip870)" d="M2234.42 194.925 Q2231.27 194.925 2229.42 197.078 Q2227.59 199.231 2227.59 202.981 Q2227.59 206.708 2229.42 208.883 Q2231.27 211.036 2234.42 211.036 Q2237.57 211.036 2239.4 208.883 Q2241.25 206.708 2241.25 202.981 Q2241.25 199.231 2239.4 197.078 Q2237.57 194.925 2234.42 194.925 M2243.7 180.273 L2243.7 184.532 Q2241.94 183.698 2240.14 183.259 Q2238.36 182.819 2236.6 182.819 Q2231.97 182.819 2229.51 185.944 Q2227.08 189.069 2226.74 195.388 Q2228.1 193.374 2230.16 192.309 Q2232.22 191.222 2234.7 191.222 Q2239.91 191.222 2242.92 194.393 Q2245.95 197.541 2245.95 202.981 Q2245.95 208.305 2242.8 211.522 Q2239.65 214.74 2234.42 214.74 Q2228.43 214.74 2225.25 210.157 Q2222.08 205.55 2222.08 196.823 Q2222.08 188.629 2225.97 183.768 Q2229.86 178.884 2236.41 178.884 Q2238.17 178.884 2239.95 179.231 Q2241.76 179.578 2243.7 180.273 Z" fill="#000000" fill-rule="evenodd" fill-opacity="1" /><path clip-path="url(#clip870)" d="M1448.2 736.077 L1475.98 736.077 L1475.98 738.566 L1460.3 779.277 L1454.19 779.277 L1468.95 740.996 L1448.2 740.996 L1448.2 736.077 Z" fill="#000000" fill-rule="evenodd" fill-opacity="1" /><path clip-path="url(#clip870)" d="M1487.44 736.077 L1510.38 736.077 L1510.38 740.996 L1492.79 740.996 L1492.79 751.587 Q1494.06 751.153 1495.34 750.95 Q1496.61 750.719 1497.88 750.719 Q1505.12 750.719 1509.34 754.683 Q1513.57 758.647 1513.57 765.418 Q1513.57 772.391 1509.22 776.268 Q1504.88 780.117 1496.99 780.117 Q1494.27 780.117 1491.43 779.654 Q1488.62 779.191 1485.61 778.265 L1485.61 772.391 Q1488.22 773.809 1491 774.503 Q1493.77 775.198 1496.87 775.198 Q1501.88 775.198 1504.8 772.565 Q1507.72 769.931 1507.72 765.418 Q1507.72 760.904 1504.8 758.271 Q1501.88 755.638 1496.87 755.638 Q1494.53 755.638 1492.18 756.158 Q1489.87 756.679 1487.44 757.779 L1487.44 736.077 Z" fill="#000000" fill-rule="evenodd" fill-opacity="1" /><path clip-path="url(#clip870)" d="M1533.56 739.029 Q1531.24 739.029 1529.65 740.649 Q1528.06 742.241 1528.06 744.555 Q1528.06 746.841 1529.65 748.433 Q1531.24 749.995 1533.56 749.995 Q1535.87 749.995 1537.47 748.433 Q1539.06 746.841 1539.06 744.555 Q1539.06 742.27 1537.44 740.649 Q1535.84 739.029 1533.56 739.029 M1533.56 735.296 Q1535.41 735.296 1537.12 736.02 Q1538.83 736.714 1540.07 738.045 Q1541.4 739.347 1542.07 740.996 Q1542.73 742.646 1542.73 744.555 Q1542.73 748.375 1540.04 751.037 Q1537.38 753.67 1533.5 753.67 Q1529.6 753.67 1526.99 751.066 Q1524.39 748.462 1524.39 744.555 Q1524.39 740.678 1527.05 737.987 Q1529.71 735.296 1533.56 735.296 Z" fill="#000000" fill-rule="evenodd" fill-opacity="1" /><path clip-path="url(#clip870)" d="M1612.19 953.212 Q1608.26 953.212 1605.94 955.903 Q1603.66 958.594 1603.66 963.281 Q1603.66 967.94 1605.94 970.66 Q1608.26 973.351 1612.19 973.351 Q1616.13 973.351 1618.42 970.66 Q1620.73 967.94 1620.73 963.281 Q1620.73 958.594 1618.42 955.903 Q1616.13 953.212 1612.19 953.212 M1623.8 934.896 L1623.8 940.22 Q1621.6 939.178 1619.34 938.629 Q1617.11 938.079 1614.91 938.079 Q1609.13 938.079 1606.06 941.985 Q1603.02 945.891 1602.59 953.791 Q1604.3 951.273 1606.87 949.942 Q1609.45 948.582 1612.54 948.582 Q1619.05 948.582 1622.81 952.546 Q1626.6 956.481 1626.6 963.281 Q1626.6 969.936 1622.67 973.958 Q1618.73 977.98 1612.19 977.98 Q1604.7 977.98 1600.74 972.251 Q1596.77 966.493 1596.77 955.584 Q1596.77 945.341 1601.63 939.265 Q1606.49 933.16 1614.68 933.16 Q1616.88 933.16 1619.11 933.594 Q1621.37 934.028 1623.8 934.896 Z" fill="#000000" fill-rule="evenodd" fill-opacity="1" /><path clip-path="url(#clip870)" d="M1649.17 937.789 Q1644.66 937.789 1642.37 942.245 Q1640.12 946.672 1640.12 955.584 Q1640.12 964.468 1642.37 968.924 Q1644.66 973.351 1649.17 973.351 Q1653.72 973.351 1655.97 968.924 Q1658.26 964.468 1658.26 955.584 Q1658.26 946.672 1655.97 942.245 Q1653.72 937.789 1649.17 937.789 M1649.17 933.16 Q1656.44 933.16 1660.26 938.918 Q1664.1 944.647 1664.1 955.584 Q1664.1 966.493 1660.26 972.251 Q1656.44 977.98 1649.17 977.98 Q1641.91 977.98 1638.06 972.251 Q1634.24 966.493 1634.24 955.584 Q1634.24 944.647 1638.06 938.918 Q1641.91 933.16 1649.17 933.16 Z" fill="#000000" fill-rule="evenodd" fill-opacity="1" /><path clip-path="url(#clip870)" d="M1682.85 936.892 Q1680.54 936.892 1678.95 938.513 Q1677.36 940.104 1677.36 942.419 Q1677.36 944.705 1678.95 946.296 Q1680.54 947.859 1682.85 947.859 Q1685.17 947.859 1686.76 946.296 Q1688.35 944.705 1688.35 942.419 Q1688.35 940.133 1686.73 938.513 Q1685.14 936.892 1682.85 936.892 M1682.85 933.16 Q1684.71 933.16 1686.41 933.883 Q1688.12 934.578 1689.36 935.909 Q1690.7 937.211 1691.36 938.86 Q1692.03 940.509 1692.03 942.419 Q1692.03 946.238 1689.34 948.9 Q1686.67 951.534 1682.8 951.534 Q1678.89 951.534 1676.29 948.929 Q1673.68 946.325 1673.68 942.419 Q1673.68 938.542 1676.34 935.851 Q1679.01 933.16 1682.85 933.16 Z" fill="#000000" fill-rule="evenodd" fill-opacity="1" /><path clip-path="url(#clip870)" d="M1446.21 1004.9 L1431.46 1027.97 L1446.21 1027.97 L1446.21 1004.9 M1444.68 999.812 L1452.03 999.812 L1452.03 1027.97 L1458.19 1027.97 L1458.19 1032.83 L1452.03 1032.83 L1452.03 1043.01 L1446.21 1043.01 L1446.21 1032.83 L1426.71 1032.83 L1426.71 1027.18 L1444.68 999.812 Z" fill="#000000" fill-rule="evenodd" fill-opacity="1" /><path clip-path="url(#clip870)" d="M1467.91 999.812 L1490.86 999.812 L1490.86 1004.73 L1473.27 1004.73 L1473.27 1015.32 Q1474.54 1014.89 1475.81 1014.69 Q1477.09 1014.45 1478.36 1014.45 Q1485.59 1014.45 1489.82 1018.42 Q1494.04 1022.38 1494.04 1029.15 Q1494.04 1036.13 1489.7 1040 Q1485.36 1043.85 1477.46 1043.85 Q1474.74 1043.85 1471.91 1043.39 Q1469.1 1042.93 1466.09 1042 L1466.09 1036.13 Q1468.7 1037.54 1471.47 1038.24 Q1474.25 1038.93 1477.35 1038.93 Q1482.35 1038.93 1485.28 1036.3 Q1488.2 1033.67 1488.2 1029.15 Q1488.2 1024.64 1485.28 1022.01 Q1482.35 1019.37 1477.35 1019.37 Q1475 1019.37 1472.66 1019.89 Q1470.34 1020.41 1467.91 1021.51 L1467.91 999.812 Z" fill="#000000" fill-rule="evenodd" fill-opacity="1" /><path clip-path="url(#clip870)" d="M1514.04 1002.76 Q1511.72 1002.76 1510.13 1004.38 Q1508.54 1005.98 1508.54 1008.29 Q1508.54 1010.58 1510.13 1012.17 Q1511.72 1013.73 1514.04 1013.73 Q1516.35 1013.73 1517.94 1012.17 Q1519.53 1010.58 1519.53 1008.29 Q1519.53 1006 1517.91 1004.38 Q1516.32 1002.76 1514.04 1002.76 M1514.04 999.031 Q1515.89 999.031 1517.6 999.755 Q1519.3 1000.45 1520.55 1001.78 Q1521.88 1003.08 1522.54 1004.73 Q1523.21 1006.38 1523.21 1008.29 Q1523.21 1012.11 1520.52 1014.77 Q1517.86 1017.4 1513.98 1017.4 Q1510.07 1017.4 1507.47 1014.8 Q1504.86 1012.2 1504.86 1008.29 Q1504.86 1004.41 1507.53 1001.72 Q1510.19 999.031 1514.04 999.031 Z" fill="#000000" fill-rule="evenodd" fill-opacity="1" /><path clip-path="url(#clip870)" d="M1746.23 645.413 L1774.01 645.413 L1774.01 647.902 L1758.33 688.613 L1752.22 688.613 L1766.98 650.332 L1746.23 650.332 L1746.23 645.413 Z" fill="#000000" fill-rule="evenodd" fill-opacity="1" /><path clip-path="url(#clip870)" d="M1785.47 645.413 L1808.42 645.413 L1808.42 650.332 L1790.82 650.332 L1790.82 660.923 Q1792.1 660.489 1793.37 660.286 Q1794.64 660.054 1795.92 660.054 Q1803.15 660.054 1807.37 664.019 Q1811.6 667.983 1811.6 674.753 Q1811.6 681.727 1807.26 685.604 Q1802.92 689.452 1795.02 689.452 Q1792.3 689.452 1789.46 688.99 Q1786.66 688.527 1783.65 687.601 L1783.65 681.727 Q1786.25 683.145 1789.03 683.839 Q1791.81 684.534 1794.9 684.534 Q1799.91 684.534 1802.83 681.9 Q1805.75 679.267 1805.75 674.753 Q1805.75 670.24 1802.83 667.607 Q1799.91 664.973 1794.9 664.973 Q1792.56 664.973 1790.22 665.494 Q1787.9 666.015 1785.47 667.115 L1785.47 645.413 Z" fill="#000000" fill-rule="evenodd" fill-opacity="1" /><path clip-path="url(#clip870)" d="M1831.59 648.365 Q1829.28 648.365 1827.69 649.985 Q1826.09 651.577 1826.09 653.891 Q1826.09 656.177 1827.69 657.769 Q1829.28 659.331 1831.59 659.331 Q1833.91 659.331 1835.5 657.769 Q1837.09 656.177 1837.09 653.891 Q1837.09 651.605 1835.47 649.985 Q1833.88 648.365 1831.59 648.365 M1831.59 644.632 Q1833.44 644.632 1835.15 645.355 Q1836.86 646.05 1838.1 647.381 Q1839.43 648.683 1840.1 650.332 Q1840.76 651.982 1840.76 653.891 Q1840.76 657.711 1838.07 660.373 Q1835.41 663.006 1831.53 663.006 Q1827.63 663.006 1825.02 660.402 Q1822.42 657.798 1822.42 653.891 Q1822.42 650.014 1825.08 647.323 Q1827.74 644.632 1831.59 644.632 Z" fill="#000000" fill-rule="evenodd" fill-opacity="1" /><path clip-path="url(#clip870)" d="M1653.92 450.403 Q1649.98 450.403 1647.67 453.094 Q1645.38 455.785 1645.38 460.472 Q1645.38 465.131 1647.67 467.851 Q1649.98 470.542 1653.92 470.542 Q1657.85 470.542 1660.14 467.851 Q1662.45 465.131 1662.45 460.472 Q1662.45 455.785 1660.14 453.094 Q1657.85 450.403 1653.92 450.403 M1665.52 432.087 L1665.52 437.411 Q1663.32 436.369 1661.07 435.82 Q1658.84 435.27 1656.64 435.27 Q1650.85 435.27 1647.78 439.176 Q1644.75 443.082 1644.31 450.982 Q1646.02 448.464 1648.59 447.133 Q1651.17 445.773 1654.27 445.773 Q1660.78 445.773 1664.54 449.737 Q1668.33 453.673 1668.33 460.472 Q1668.33 467.127 1664.39 471.149 Q1660.46 475.171 1653.92 475.171 Q1646.42 475.171 1642.46 469.442 Q1638.5 463.684 1638.5 452.776 Q1638.5 442.533 1643.36 436.456 Q1648.22 430.351 1656.41 430.351 Q1658.61 430.351 1660.83 430.785 Q1663.09 431.219 1665.52 432.087 Z" fill="#000000" fill-rule="evenodd" fill-opacity="1" /><path clip-path="url(#clip870)" d="M1690.9 434.981 Q1686.38 434.981 1684.1 439.437 Q1681.84 443.864 1681.84 452.776 Q1681.84 461.659 1684.1 466.115 Q1686.38 470.542 1690.9 470.542 Q1695.44 470.542 1697.7 466.115 Q1699.98 461.659 1699.98 452.776 Q1699.98 443.864 1697.7 439.437 Q1695.44 434.981 1690.9 434.981 M1690.9 430.351 Q1698.16 430.351 1701.98 436.109 Q1705.83 441.838 1705.83 452.776 Q1705.83 463.684 1701.98 469.442 Q1698.16 475.171 1690.9 475.171 Q1683.63 475.171 1679.79 469.442 Q1675.97 463.684 1675.97 452.776 Q1675.97 441.838 1679.79 436.109 Q1683.63 430.351 1690.9 430.351 Z" fill="#000000" fill-rule="evenodd" fill-opacity="1" /><path clip-path="url(#clip870)" d="M1724.58 434.084 Q1722.26 434.084 1720.67 435.704 Q1719.08 437.295 1719.08 439.61 Q1719.08 441.896 1720.67 443.487 Q1722.26 445.05 1724.58 445.05 Q1726.89 445.05 1728.48 443.487 Q1730.08 441.896 1730.08 439.61 Q1730.08 437.324 1728.46 435.704 Q1726.86 434.084 1724.58 434.084 M1724.58 430.351 Q1726.43 430.351 1728.14 431.074 Q1729.84 431.769 1731.09 433.1 Q1732.42 434.402 1733.08 436.051 Q1733.75 437.7 1733.75 439.61 Q1733.75 443.43 1731.06 446.092 Q1728.4 448.725 1724.52 448.725 Q1720.61 448.725 1718.01 446.121 Q1715.41 443.516 1715.41 439.61 Q1715.41 435.733 1718.07 433.042 Q1720.73 430.351 1724.58 430.351 Z" fill="#000000" fill-rule="evenodd" fill-opacity="1" /><path clip-path="url(#clip870)" d="M1500.3 289.301 L1485.54 312.362 L1500.3 312.362 L1500.3 289.301 M1498.76 284.208 L1506.11 284.208 L1506.11 312.362 L1512.28 312.362 L1512.28 317.223 L1506.11 317.223 L1506.11 327.408 L1500.3 327.408 L1500.3 317.223 L1480.79 317.223 L1480.79 311.581 L1498.76 284.208 Z" fill="#000000" fill-rule="evenodd" fill-opacity="1" /><path clip-path="url(#clip870)" d="M1522 284.208 L1544.94 284.208 L1544.94 289.127 L1527.35 289.127 L1527.35 299.718 Q1528.62 299.284 1529.9 299.081 Q1531.17 298.85 1532.44 298.85 Q1539.68 298.85 1543.9 302.814 Q1548.13 306.778 1548.13 313.549 Q1548.13 320.522 1543.79 324.399 Q1539.45 328.248 1531.55 328.248 Q1528.83 328.248 1525.99 327.785 Q1523.18 327.322 1520.17 326.396 L1520.17 320.522 Q1522.78 321.94 1525.56 322.634 Q1528.33 323.329 1531.43 323.329 Q1536.44 323.329 1539.36 320.696 Q1542.28 318.062 1542.28 313.549 Q1542.28 309.035 1539.36 306.402 Q1536.44 303.769 1531.43 303.769 Q1529.09 303.769 1526.74 304.289 Q1524.43 304.81 1522 305.91 L1522 284.208 Z" fill="#000000" fill-rule="evenodd" fill-opacity="1" /><path clip-path="url(#clip870)" d="M1568.12 287.16 Q1565.81 287.16 1564.21 288.78 Q1562.62 290.372 1562.62 292.686 Q1562.62 294.972 1564.21 296.564 Q1565.81 298.126 1568.12 298.126 Q1570.43 298.126 1572.03 296.564 Q1573.62 294.972 1573.62 292.686 Q1573.62 290.401 1572 288.78 Q1570.41 287.16 1568.12 287.16 M1568.12 283.427 Q1569.97 283.427 1571.68 284.151 Q1573.39 284.845 1574.63 286.176 Q1575.96 287.478 1576.63 289.127 Q1577.29 290.777 1577.29 292.686 Q1577.29 296.506 1574.6 299.168 Q1571.94 301.801 1568.06 301.801 Q1564.16 301.801 1561.55 299.197 Q1558.95 296.593 1558.95 292.686 Q1558.95 288.809 1561.61 286.118 Q1564.27 283.427 1568.12 283.427 Z" fill="#000000" fill-rule="evenodd" fill-opacity="1" /></svg>
