<?xml version="1.0" encoding="utf-8"?>
<svg xmlns="http://www.w3.org/2000/svg" xmlns:xlink="http://www.w3.org/1999/xlink" width="600" height="400" viewBox="0 0 2400 1600">
<defs>
  <clipPath id="clip290">
    <rect x="0" y="0" width="2400" height="1600"/>
  </clipPath>
</defs>
<path clip-path="url(#clip290)" d="
M0 1600 L2400 1600 L2400 0 L0 0  Z
  " fill="#ffffff" fill-rule="evenodd" fill-opacity="0"/>
<defs>
  <clipPath id="clip291">
    <rect x="480" y="0" width="1681" height="1600"/>
  </clipPath>
</defs>
<path clip-path="url(#clip290)" d="
M252.501 1423.18 L2352.76 1423.18 L2352.76 352.309 L252.501 352.309  Z
  " fill="#ffffff" fill-rule="evenodd" fill-opacity="0"/>
<defs>
  <clipPath id="clip292">
    <rect x="252" y="352" width="2101" height="1072"/>
  </clipPath>
</defs>
<polyline clip-path="url(#clip292)" style="stroke:#000000; stroke-linecap:round; stroke-linejoin:round; stroke-width:2; stroke-opacity:0.1; fill:none" points="
  311.942,1423.18 311.942,352.309 
  "/>
<polyline clip-path="url(#clip292)" style="stroke:#000000; stroke-linecap:round; stroke-linejoin:round; stroke-width:2; stroke-opacity:0.1; fill:none" points="
  807.285,1423.18 807.285,352.309 
  "/>
<polyline clip-path="url(#clip292)" style="stroke:#000000; stroke-linecap:round; stroke-linejoin:round; stroke-width:2; stroke-opacity:0.1; fill:none" points="
  1302.63,1423.18 1302.63,352.309 
  "/>
<polyline clip-path="url(#clip292)" style="stroke:#000000; stroke-linecap:round; stroke-linejoin:round; stroke-width:2; stroke-opacity:0.1; fill:none" points="
  1797.97,1423.18 1797.97,352.309 
  "/>
<polyline clip-path="url(#clip292)" style="stroke:#000000; stroke-linecap:round; stroke-linejoin:round; stroke-width:2; stroke-opacity:0.1; fill:none" points="
  2293.31,1423.18 2293.31,352.309 
  "/>
<polyline clip-path="url(#clip290)" style="stroke:#000000; stroke-linecap:round; stroke-linejoin:round; stroke-width:4; stroke-opacity:1; fill:none" points="
  252.501,1423.18 2352.76,1423.18 
  "/>
<polyline clip-path="url(#clip290)" style="stroke:#000000; stroke-linecap:round; stroke-linejoin:round; stroke-width:4; stroke-opacity:1; fill:none" points="
  311.942,1423.18 311.942,1408.47 
  "/>
<polyline clip-path="url(#clip290)" style="stroke:#000000; stroke-linecap:round; stroke-linejoin:round; stroke-width:4; stroke-opacity:1; fill:none" points="
  807.285,1423.18 807.285,1408.47 
  "/>
<polyline clip-path="url(#clip290)" style="stroke:#000000; stroke-linecap:round; stroke-linejoin:round; stroke-width:4; stroke-opacity:1; fill:none" points="
  1302.63,1423.18 1302.63,1408.47 
  "/>
<polyline clip-path="url(#clip290)" style="stroke:#000000; stroke-linecap:round; stroke-linejoin:round; stroke-width:4; stroke-opacity:1; fill:none" points="
  1797.97,1423.18 1797.97,1408.47 
  "/>
<polyline clip-path="url(#clip290)" style="stroke:#000000; stroke-linecap:round; stroke-linejoin:round; stroke-width:4; stroke-opacity:1; fill:none" points="
  2293.31,1423.18 2293.31,1408.47 
  "/>
<path clip-path="url(#clip290)" d="M286.629 1481.64 L294.268 1481.64 L294.268 1455.28 L285.958 1456.95 L285.958 1452.69 L294.222 1451.02 L298.898 1451.02 L298.898 1481.64 L306.537 1481.64 L306.537 1485.58 L286.629 1485.58 L286.629 1481.64 Z" fill="#000000" fill-rule="evenodd" fill-opacity="1" /><path clip-path="url(#clip290)" d="M325.981 1454.1 Q322.37 1454.1 320.541 1457.66 Q318.736 1461.2 318.736 1468.33 Q318.736 1475.44 320.541 1479.01 Q322.37 1482.55 325.981 1482.55 Q329.615 1482.55 331.421 1479.01 Q333.25 1475.44 333.25 1468.33 Q333.25 1461.2 331.421 1457.66 Q329.615 1454.1 325.981 1454.1 M325.981 1450.39 Q331.791 1450.39 334.847 1455 Q337.925 1459.58 337.925 1468.33 Q337.925 1477.06 334.847 1481.67 Q331.791 1486.25 325.981 1486.25 Q320.171 1486.25 317.092 1481.67 Q314.037 1477.06 314.037 1468.33 Q314.037 1459.58 317.092 1455 Q320.171 1450.39 325.981 1450.39 Z" fill="#000000" fill-rule="evenodd" fill-opacity="1" /><path clip-path="url(#clip290)" d="M786.058 1481.64 L802.378 1481.64 L802.378 1485.58 L780.433 1485.58 L780.433 1481.64 Q783.095 1478.89 787.679 1474.26 Q792.285 1469.61 793.466 1468.27 Q795.711 1465.74 796.591 1464.01 Q797.493 1462.25 797.493 1460.56 Q797.493 1457.8 795.549 1456.07 Q793.628 1454.33 790.526 1454.33 Q788.327 1454.33 785.873 1455.09 Q783.443 1455.86 780.665 1457.41 L780.665 1452.69 Q783.489 1451.55 785.943 1450.97 Q788.396 1450.39 790.433 1450.39 Q795.804 1450.39 798.998 1453.08 Q802.192 1455.77 802.192 1460.26 Q802.192 1462.39 801.382 1464.31 Q800.595 1466.2 798.489 1468.8 Q797.91 1469.47 794.808 1472.69 Q791.706 1475.88 786.058 1481.64 Z" fill="#000000" fill-rule="evenodd" fill-opacity="1" /><path clip-path="url(#clip290)" d="M822.192 1454.1 Q818.581 1454.1 816.753 1457.66 Q814.947 1461.2 814.947 1468.33 Q814.947 1475.44 816.753 1479.01 Q818.581 1482.55 822.192 1482.55 Q825.827 1482.55 827.632 1479.01 Q829.461 1475.44 829.461 1468.33 Q829.461 1461.2 827.632 1457.66 Q825.827 1454.1 822.192 1454.1 M822.192 1450.39 Q828.003 1450.39 831.058 1455 Q834.137 1459.58 834.137 1468.33 Q834.137 1477.06 831.058 1481.67 Q828.003 1486.25 822.192 1486.25 Q816.382 1486.25 813.304 1481.67 Q810.248 1477.06 810.248 1468.33 Q810.248 1459.58 813.304 1455 Q816.382 1450.39 822.192 1450.39 Z" fill="#000000" fill-rule="evenodd" fill-opacity="1" /><path clip-path="url(#clip290)" d="M1291.47 1466.95 Q1294.83 1467.66 1296.7 1469.93 Q1298.6 1472.2 1298.6 1475.53 Q1298.6 1480.65 1295.08 1483.45 Q1291.56 1486.25 1285.08 1486.25 Q1282.91 1486.25 1280.59 1485.81 Q1278.3 1485.39 1275.85 1484.54 L1275.85 1480.02 Q1277.79 1481.16 1280.11 1481.74 Q1282.42 1482.32 1284.94 1482.32 Q1289.34 1482.32 1291.63 1480.58 Q1293.95 1478.84 1293.95 1475.53 Q1293.95 1472.48 1291.79 1470.77 Q1289.67 1469.03 1285.85 1469.03 L1281.82 1469.03 L1281.82 1465.19 L1286.03 1465.19 Q1289.48 1465.19 1291.31 1463.82 Q1293.14 1462.43 1293.14 1459.84 Q1293.14 1457.18 1291.24 1455.77 Q1289.36 1454.33 1285.85 1454.33 Q1283.92 1454.33 1281.73 1454.75 Q1279.53 1455.16 1276.89 1456.04 L1276.89 1451.88 Q1279.55 1451.14 1281.86 1450.77 Q1284.2 1450.39 1286.26 1450.39 Q1291.59 1450.39 1294.69 1452.83 Q1297.79 1455.23 1297.79 1459.35 Q1297.79 1462.22 1296.15 1464.21 Q1294.5 1466.18 1291.47 1466.95 Z" fill="#000000" fill-rule="evenodd" fill-opacity="1" /><path clip-path="url(#clip290)" d="M1317.47 1454.1 Q1313.86 1454.1 1312.03 1457.66 Q1310.22 1461.2 1310.22 1468.33 Q1310.22 1475.44 1312.03 1479.01 Q1313.86 1482.55 1317.47 1482.55 Q1321.1 1482.55 1322.91 1479.01 Q1324.73 1475.44 1324.73 1468.33 Q1324.73 1461.2 1322.91 1457.66 Q1321.1 1454.1 1317.47 1454.1 M1317.47 1450.39 Q1323.28 1450.39 1326.33 1455 Q1329.41 1459.58 1329.41 1468.33 Q1329.41 1477.06 1326.33 1481.67 Q1323.28 1486.25 1317.47 1486.25 Q1311.66 1486.25 1308.58 1481.67 Q1305.52 1477.06 1305.52 1468.33 Q1305.52 1459.58 1308.58 1455 Q1311.66 1450.39 1317.47 1450.39 Z" fill="#000000" fill-rule="evenodd" fill-opacity="1" /><path clip-path="url(#clip290)" d="M1786.14 1455.09 L1774.34 1473.54 L1786.14 1473.54 L1786.14 1455.09 M1784.92 1451.02 L1790.8 1451.02 L1790.8 1473.54 L1795.73 1473.54 L1795.73 1477.43 L1790.8 1477.43 L1790.8 1485.58 L1786.14 1485.58 L1786.14 1477.43 L1770.54 1477.43 L1770.54 1472.92 L1784.92 1451.02 Z" fill="#000000" fill-rule="evenodd" fill-opacity="1" /><path clip-path="url(#clip290)" d="M1813.46 1454.1 Q1809.85 1454.1 1808.02 1457.66 Q1806.21 1461.2 1806.21 1468.33 Q1806.21 1475.44 1808.02 1479.01 Q1809.85 1482.55 1813.46 1482.55 Q1817.09 1482.55 1818.9 1479.01 Q1820.73 1475.44 1820.73 1468.33 Q1820.73 1461.2 1818.9 1457.66 Q1817.09 1454.1 1813.46 1454.1 M1813.46 1450.39 Q1819.27 1450.39 1822.32 1455 Q1825.4 1459.58 1825.4 1468.33 Q1825.4 1477.06 1822.32 1481.67 Q1819.27 1486.25 1813.46 1486.25 Q1807.65 1486.25 1804.57 1481.67 Q1801.51 1477.06 1801.51 1468.33 Q1801.51 1459.58 1804.57 1455 Q1807.65 1450.39 1813.46 1450.39 Z" fill="#000000" fill-rule="evenodd" fill-opacity="1" /><path clip-path="url(#clip290)" d="M2268.01 1451.02 L2286.37 1451.02 L2286.37 1454.96 L2272.3 1454.96 L2272.3 1463.43 Q2273.31 1463.08 2274.33 1462.92 Q2275.35 1462.73 2276.37 1462.73 Q2282.16 1462.73 2285.54 1465.9 Q2288.92 1469.08 2288.92 1474.49 Q2288.92 1480.07 2285.44 1483.17 Q2281.97 1486.25 2275.65 1486.25 Q2273.48 1486.25 2271.21 1485.88 Q2268.96 1485.51 2266.56 1484.77 L2266.56 1480.07 Q2268.64 1481.2 2270.86 1481.76 Q2273.08 1482.32 2275.56 1482.32 Q2279.56 1482.32 2281.9 1480.21 Q2284.24 1478.1 2284.24 1474.49 Q2284.24 1470.88 2281.9 1468.77 Q2279.56 1466.67 2275.56 1466.67 Q2273.69 1466.67 2271.81 1467.08 Q2269.96 1467.5 2268.01 1468.38 L2268.01 1451.02 Z" fill="#000000" fill-rule="evenodd" fill-opacity="1" /><path clip-path="url(#clip290)" d="M2308.13 1454.1 Q2304.52 1454.1 2302.69 1457.66 Q2300.88 1461.2 2300.88 1468.33 Q2300.88 1475.44 2302.69 1479.01 Q2304.52 1482.55 2308.13 1482.55 Q2311.76 1482.55 2313.57 1479.01 Q2315.4 1475.44 2315.4 1468.33 Q2315.4 1461.2 2313.57 1457.66 Q2311.76 1454.1 2308.13 1454.1 M2308.13 1450.39 Q2313.94 1450.39 2317 1455 Q2320.07 1459.58 2320.07 1468.33 Q2320.07 1477.06 2317 1481.67 Q2313.94 1486.25 2308.13 1486.25 Q2302.32 1486.25 2299.24 1481.67 Q2296.19 1477.06 2296.19 1468.33 Q2296.19 1459.58 2299.24 1455 Q2302.32 1450.39 2308.13 1450.39 Z" fill="#000000" fill-rule="evenodd" fill-opacity="1" /><path clip-path="url(#clip290)" d="M1217.95 1518.52 L1223.84 1518.52 L1223.84 1547.77 L1241.31 1532.4 L1248.79 1532.4 L1229.88 1549.07 L1249.59 1568.04 L1241.95 1568.04 L1223.84 1550.63 L1223.84 1568.04 L1217.95 1568.04 L1217.95 1518.52 Z" fill="#000000" fill-rule="evenodd" fill-opacity="1" /><path clip-path="url(#clip290)" d="M1285.55 1546.53 L1285.55 1568.04 L1279.7 1568.04 L1279.7 1546.72 Q1279.7 1541.66 1277.72 1539.14 Q1275.75 1536.63 1271.8 1536.63 Q1267.06 1536.63 1264.32 1539.65 Q1261.59 1542.68 1261.59 1547.9 L1261.59 1568.04 L1255.7 1568.04 L1255.7 1532.4 L1261.59 1532.4 L1261.59 1537.93 Q1263.69 1534.72 1266.52 1533.13 Q1269.38 1531.54 1273.11 1531.54 Q1279.25 1531.54 1282.4 1535.36 Q1285.55 1539.14 1285.55 1546.53 Z" fill="#000000" fill-rule="evenodd" fill-opacity="1" /><path clip-path="url(#clip290)" d="M1311.05 1536.5 Q1306.34 1536.5 1303.6 1540.19 Q1300.86 1543.85 1300.86 1550.25 Q1300.86 1556.65 1303.57 1560.34 Q1306.3 1564 1311.05 1564 Q1315.73 1564 1318.46 1560.31 Q1321.2 1556.62 1321.2 1550.25 Q1321.2 1543.92 1318.46 1540.23 Q1315.73 1536.5 1311.05 1536.5 M1311.05 1531.54 Q1318.69 1531.54 1323.05 1536.5 Q1327.41 1541.47 1327.41 1550.25 Q1327.41 1559 1323.05 1564 Q1318.69 1568.97 1311.05 1568.97 Q1303.38 1568.97 1299.02 1564 Q1294.69 1559 1294.69 1550.25 Q1294.69 1541.47 1299.02 1536.5 Q1303.38 1531.54 1311.05 1531.54 Z" fill="#000000" fill-rule="evenodd" fill-opacity="1" /><path clip-path="url(#clip290)" d="M1342.91 1522.27 L1342.91 1532.4 L1354.97 1532.4 L1354.97 1536.95 L1342.91 1536.95 L1342.91 1556.3 Q1342.91 1560.66 1344.08 1561.9 Q1345.29 1563.14 1348.95 1563.14 L1354.97 1563.14 L1354.97 1568.04 L1348.95 1568.04 Q1342.18 1568.04 1339.6 1565.53 Q1337.02 1562.98 1337.02 1556.3 L1337.02 1536.95 L1332.72 1536.95 L1332.72 1532.4 L1337.02 1532.4 L1337.02 1522.27 L1342.91 1522.27 Z" fill="#000000" fill-rule="evenodd" fill-opacity="1" /><path clip-path="url(#clip290)" d="M1385.4 1533.45 L1385.4 1538.98 Q1382.92 1537.71 1380.24 1537.07 Q1377.57 1536.44 1374.7 1536.44 Q1370.34 1536.44 1368.15 1537.77 Q1365.98 1539.11 1365.98 1541.79 Q1365.98 1543.82 1367.54 1545 Q1369.1 1546.15 1373.81 1547.2 L1375.82 1547.64 Q1382.06 1548.98 1384.67 1551.43 Q1387.31 1553.85 1387.31 1558.21 Q1387.31 1563.17 1383.36 1566.07 Q1379.45 1568.97 1372.57 1568.97 Q1369.71 1568.97 1366.59 1568.39 Q1363.5 1567.85 1360.06 1566.74 L1360.06 1560.69 Q1363.31 1562.38 1366.46 1563.24 Q1369.61 1564.07 1372.7 1564.07 Q1376.84 1564.07 1379.06 1562.66 Q1381.29 1561.23 1381.29 1558.65 Q1381.29 1556.27 1379.67 1554.99 Q1378.08 1553.72 1372.64 1552.54 L1370.6 1552.07 Q1365.16 1550.92 1362.74 1548.56 Q1360.32 1546.18 1360.32 1542.04 Q1360.32 1537.01 1363.88 1534.27 Q1367.45 1531.54 1374 1531.54 Q1377.25 1531.54 1380.11 1532.01 Q1382.98 1532.49 1385.4 1533.45 Z" fill="#000000" fill-rule="evenodd" fill-opacity="1" /><polyline clip-path="url(#clip292)" style="stroke:#000000; stroke-linecap:round; stroke-linejoin:round; stroke-width:2; stroke-opacity:0.1; fill:none" points="
  252.501,1106.56 2352.76,1106.56 
  "/>
<polyline clip-path="url(#clip292)" style="stroke:#000000; stroke-linecap:round; stroke-linejoin:round; stroke-width:2; stroke-opacity:0.1; fill:none" points="
  252.501,601.574 2352.76,601.574 
  "/>
<polyline clip-path="url(#clip292)" style="stroke:#000000; stroke-linecap:round; stroke-linejoin:round; stroke-width:2; stroke-opacity:0.05; fill:none" points="
  252.501,1224.21 2352.76,1224.21 
  "/>
<polyline clip-path="url(#clip292)" style="stroke:#000000; stroke-linecap:round; stroke-linejoin:round; stroke-width:2; stroke-opacity:0.05; fill:none" points="
  252.501,1194.57 2352.76,1194.57 
  "/>
<polyline clip-path="url(#clip292)" style="stroke:#000000; stroke-linecap:round; stroke-linejoin:round; stroke-width:2; stroke-opacity:0.05; fill:none" points="
  252.501,1173.54 2352.76,1173.54 
  "/>
<polyline clip-path="url(#clip292)" style="stroke:#000000; stroke-linecap:round; stroke-linejoin:round; stroke-width:2; stroke-opacity:0.05; fill:none" points="
  252.501,1157.23 2352.76,1157.23 
  "/>
<polyline clip-path="url(#clip292)" style="stroke:#000000; stroke-linecap:round; stroke-linejoin:round; stroke-width:2; stroke-opacity:0.05; fill:none" points="
  252.501,1143.9 2352.76,1143.9 
  "/>
<polyline clip-path="url(#clip292)" style="stroke:#000000; stroke-linecap:round; stroke-linejoin:round; stroke-width:2; stroke-opacity:0.05; fill:none" points="
  252.501,1132.63 2352.76,1132.63 
  "/>
<polyline clip-path="url(#clip292)" style="stroke:#000000; stroke-linecap:round; stroke-linejoin:round; stroke-width:2; stroke-opacity:0.05; fill:none" points="
  252.501,1122.87 2352.76,1122.87 
  "/>
<polyline clip-path="url(#clip292)" style="stroke:#000000; stroke-linecap:round; stroke-linejoin:round; stroke-width:2; stroke-opacity:0.05; fill:none" points="
  252.501,1114.26 2352.76,1114.26 
  "/>
<polyline clip-path="url(#clip292)" style="stroke:#000000; stroke-linecap:round; stroke-linejoin:round; stroke-width:2; stroke-opacity:0.05; fill:none" points="
  252.501,1106.56 2352.76,1106.56 
  "/>
<polyline clip-path="url(#clip292)" style="stroke:#000000; stroke-linecap:round; stroke-linejoin:round; stroke-width:2; stroke-opacity:0.05; fill:none" points="
  252.501,1106.56 2352.76,1106.56 
  "/>
<polyline clip-path="url(#clip292)" style="stroke:#000000; stroke-linecap:round; stroke-linejoin:round; stroke-width:2; stroke-opacity:0.05; fill:none" points="
  252.501,1055.88 2352.76,1055.88 
  "/>
<polyline clip-path="url(#clip292)" style="stroke:#000000; stroke-linecap:round; stroke-linejoin:round; stroke-width:2; stroke-opacity:0.05; fill:none" points="
  252.501,1026.24 2352.76,1026.24 
  "/>
<polyline clip-path="url(#clip292)" style="stroke:#000000; stroke-linecap:round; stroke-linejoin:round; stroke-width:2; stroke-opacity:0.05; fill:none" points="
  252.501,1005.21 2352.76,1005.21 
  "/>
<polyline clip-path="url(#clip292)" style="stroke:#000000; stroke-linecap:round; stroke-linejoin:round; stroke-width:2; stroke-opacity:0.05; fill:none" points="
  252.501,988.9 2352.76,988.9 
  "/>
<polyline clip-path="url(#clip292)" style="stroke:#000000; stroke-linecap:round; stroke-linejoin:round; stroke-width:2; stroke-opacity:0.05; fill:none" points="
  252.501,975.571 2352.76,975.571 
  "/>
<polyline clip-path="url(#clip292)" style="stroke:#000000; stroke-linecap:round; stroke-linejoin:round; stroke-width:2; stroke-opacity:0.05; fill:none" points="
  252.501,964.302 2352.76,964.302 
  "/>
<polyline clip-path="url(#clip292)" style="stroke:#000000; stroke-linecap:round; stroke-linejoin:round; stroke-width:2; stroke-opacity:0.05; fill:none" points="
  252.501,954.541 2352.76,954.541 
  "/>
<polyline clip-path="url(#clip292)" style="stroke:#000000; stroke-linecap:round; stroke-linejoin:round; stroke-width:2; stroke-opacity:0.05; fill:none" points="
  252.501,945.93 2352.76,945.93 
  "/>
<polyline clip-path="url(#clip292)" style="stroke:#000000; stroke-linecap:round; stroke-linejoin:round; stroke-width:2; stroke-opacity:0.05; fill:none" points="
  252.501,938.228 2352.76,938.228 
  "/>
<polyline clip-path="url(#clip292)" style="stroke:#000000; stroke-linecap:round; stroke-linejoin:round; stroke-width:2; stroke-opacity:0.05; fill:none" points="
  252.501,938.228 2352.76,938.228 
  "/>
<polyline clip-path="url(#clip292)" style="stroke:#000000; stroke-linecap:round; stroke-linejoin:round; stroke-width:2; stroke-opacity:0.05; fill:none" points="
  252.501,887.556 2352.76,887.556 
  "/>
<polyline clip-path="url(#clip292)" style="stroke:#000000; stroke-linecap:round; stroke-linejoin:round; stroke-width:2; stroke-opacity:0.05; fill:none" points="
  252.501,857.916 2352.76,857.916 
  "/>
<polyline clip-path="url(#clip292)" style="stroke:#000000; stroke-linecap:round; stroke-linejoin:round; stroke-width:2; stroke-opacity:0.05; fill:none" points="
  252.501,836.885 2352.76,836.885 
  "/>
<polyline clip-path="url(#clip292)" style="stroke:#000000; stroke-linecap:round; stroke-linejoin:round; stroke-width:2; stroke-opacity:0.05; fill:none" points="
  252.501,820.572 2352.76,820.572 
  "/>
<polyline clip-path="url(#clip292)" style="stroke:#000000; stroke-linecap:round; stroke-linejoin:round; stroke-width:2; stroke-opacity:0.05; fill:none" points="
  252.501,807.244 2352.76,807.244 
  "/>
<polyline clip-path="url(#clip292)" style="stroke:#000000; stroke-linecap:round; stroke-linejoin:round; stroke-width:2; stroke-opacity:0.05; fill:none" points="
  252.501,795.975 2352.76,795.975 
  "/>
<polyline clip-path="url(#clip292)" style="stroke:#000000; stroke-linecap:round; stroke-linejoin:round; stroke-width:2; stroke-opacity:0.05; fill:none" points="
  252.501,786.213 2352.76,786.213 
  "/>
<polyline clip-path="url(#clip292)" style="stroke:#000000; stroke-linecap:round; stroke-linejoin:round; stroke-width:2; stroke-opacity:0.05; fill:none" points="
  252.501,777.603 2352.76,777.603 
  "/>
<polyline clip-path="url(#clip292)" style="stroke:#000000; stroke-linecap:round; stroke-linejoin:round; stroke-width:2; stroke-opacity:0.05; fill:none" points="
  252.501,1055.88 2352.76,1055.88 
  "/>
<polyline clip-path="url(#clip292)" style="stroke:#000000; stroke-linecap:round; stroke-linejoin:round; stroke-width:2; stroke-opacity:0.05; fill:none" points="
  252.501,1026.24 2352.76,1026.24 
  "/>
<polyline clip-path="url(#clip292)" style="stroke:#000000; stroke-linecap:round; stroke-linejoin:round; stroke-width:2; stroke-opacity:0.05; fill:none" points="
  252.501,1005.21 2352.76,1005.21 
  "/>
<polyline clip-path="url(#clip292)" style="stroke:#000000; stroke-linecap:round; stroke-linejoin:round; stroke-width:2; stroke-opacity:0.05; fill:none" points="
  252.501,988.9 2352.76,988.9 
  "/>
<polyline clip-path="url(#clip292)" style="stroke:#000000; stroke-linecap:round; stroke-linejoin:round; stroke-width:2; stroke-opacity:0.05; fill:none" points="
  252.501,975.571 2352.76,975.571 
  "/>
<polyline clip-path="url(#clip292)" style="stroke:#000000; stroke-linecap:round; stroke-linejoin:round; stroke-width:2; stroke-opacity:0.05; fill:none" points="
  252.501,964.302 2352.76,964.302 
  "/>
<polyline clip-path="url(#clip292)" style="stroke:#000000; stroke-linecap:round; stroke-linejoin:round; stroke-width:2; stroke-opacity:0.05; fill:none" points="
  252.501,954.541 2352.76,954.541 
  "/>
<polyline clip-path="url(#clip292)" style="stroke:#000000; stroke-linecap:round; stroke-linejoin:round; stroke-width:2; stroke-opacity:0.05; fill:none" points="
  252.501,945.93 2352.76,945.93 
  "/>
<polyline clip-path="url(#clip292)" style="stroke:#000000; stroke-linecap:round; stroke-linejoin:round; stroke-width:2; stroke-opacity:0.05; fill:none" points="
  252.501,938.228 2352.76,938.228 
  "/>
<polyline clip-path="url(#clip292)" style="stroke:#000000; stroke-linecap:round; stroke-linejoin:round; stroke-width:2; stroke-opacity:0.05; fill:none" points="
  252.501,938.228 2352.76,938.228 
  "/>
<polyline clip-path="url(#clip292)" style="stroke:#000000; stroke-linecap:round; stroke-linejoin:round; stroke-width:2; stroke-opacity:0.05; fill:none" points="
  252.501,887.556 2352.76,887.556 
  "/>
<polyline clip-path="url(#clip292)" style="stroke:#000000; stroke-linecap:round; stroke-linejoin:round; stroke-width:2; stroke-opacity:0.05; fill:none" points="
  252.501,857.916 2352.76,857.916 
  "/>
<polyline clip-path="url(#clip292)" style="stroke:#000000; stroke-linecap:round; stroke-linejoin:round; stroke-width:2; stroke-opacity:0.05; fill:none" points="
  252.501,836.885 2352.76,836.885 
  "/>
<polyline clip-path="url(#clip292)" style="stroke:#000000; stroke-linecap:round; stroke-linejoin:round; stroke-width:2; stroke-opacity:0.05; fill:none" points="
  252.501,820.572 2352.76,820.572 
  "/>
<polyline clip-path="url(#clip292)" style="stroke:#000000; stroke-linecap:round; stroke-linejoin:round; stroke-width:2; stroke-opacity:0.05; fill:none" points="
  252.501,807.244 2352.76,807.244 
  "/>
<polyline clip-path="url(#clip292)" style="stroke:#000000; stroke-linecap:round; stroke-linejoin:round; stroke-width:2; stroke-opacity:0.05; fill:none" points="
  252.501,795.975 2352.76,795.975 
  "/>
<polyline clip-path="url(#clip292)" style="stroke:#000000; stroke-linecap:round; stroke-linejoin:round; stroke-width:2; stroke-opacity:0.05; fill:none" points="
  252.501,786.213 2352.76,786.213 
  "/>
<polyline clip-path="url(#clip292)" style="stroke:#000000; stroke-linecap:round; stroke-linejoin:round; stroke-width:2; stroke-opacity:0.05; fill:none" points="
  252.501,777.603 2352.76,777.603 
  "/>
<polyline clip-path="url(#clip292)" style="stroke:#000000; stroke-linecap:round; stroke-linejoin:round; stroke-width:2; stroke-opacity:0.05; fill:none" points="
  252.501,769.901 2352.76,769.901 
  "/>
<polyline clip-path="url(#clip292)" style="stroke:#000000; stroke-linecap:round; stroke-linejoin:round; stroke-width:2; stroke-opacity:0.05; fill:none" points="
  252.501,769.901 2352.76,769.901 
  "/>
<polyline clip-path="url(#clip292)" style="stroke:#000000; stroke-linecap:round; stroke-linejoin:round; stroke-width:2; stroke-opacity:0.05; fill:none" points="
  252.501,719.229 2352.76,719.229 
  "/>
<polyline clip-path="url(#clip292)" style="stroke:#000000; stroke-linecap:round; stroke-linejoin:round; stroke-width:2; stroke-opacity:0.05; fill:none" points="
  252.501,689.588 2352.76,689.588 
  "/>
<polyline clip-path="url(#clip292)" style="stroke:#000000; stroke-linecap:round; stroke-linejoin:round; stroke-width:2; stroke-opacity:0.05; fill:none" points="
  252.501,668.558 2352.76,668.558 
  "/>
<polyline clip-path="url(#clip292)" style="stroke:#000000; stroke-linecap:round; stroke-linejoin:round; stroke-width:2; stroke-opacity:0.05; fill:none" points="
  252.501,652.245 2352.76,652.245 
  "/>
<polyline clip-path="url(#clip292)" style="stroke:#000000; stroke-linecap:round; stroke-linejoin:round; stroke-width:2; stroke-opacity:0.05; fill:none" points="
  252.501,638.917 2352.76,638.917 
  "/>
<polyline clip-path="url(#clip292)" style="stroke:#000000; stroke-linecap:round; stroke-linejoin:round; stroke-width:2; stroke-opacity:0.05; fill:none" points="
  252.501,627.648 2352.76,627.648 
  "/>
<polyline clip-path="url(#clip292)" style="stroke:#000000; stroke-linecap:round; stroke-linejoin:round; stroke-width:2; stroke-opacity:0.05; fill:none" points="
  252.501,617.886 2352.76,617.886 
  "/>
<polyline clip-path="url(#clip292)" style="stroke:#000000; stroke-linecap:round; stroke-linejoin:round; stroke-width:2; stroke-opacity:0.05; fill:none" points="
  252.501,609.276 2352.76,609.276 
  "/>
<polyline clip-path="url(#clip292)" style="stroke:#000000; stroke-linecap:round; stroke-linejoin:round; stroke-width:2; stroke-opacity:0.05; fill:none" points="
  252.501,550.902 2352.76,550.902 
  "/>
<polyline clip-path="url(#clip292)" style="stroke:#000000; stroke-linecap:round; stroke-linejoin:round; stroke-width:2; stroke-opacity:0.05; fill:none" points="
  252.501,521.261 2352.76,521.261 
  "/>
<polyline clip-path="url(#clip292)" style="stroke:#000000; stroke-linecap:round; stroke-linejoin:round; stroke-width:2; stroke-opacity:0.05; fill:none" points="
  252.501,500.231 2352.76,500.231 
  "/>
<polyline clip-path="url(#clip292)" style="stroke:#000000; stroke-linecap:round; stroke-linejoin:round; stroke-width:2; stroke-opacity:0.05; fill:none" points="
  252.501,483.918 2352.76,483.918 
  "/>
<polyline clip-path="url(#clip292)" style="stroke:#000000; stroke-linecap:round; stroke-linejoin:round; stroke-width:2; stroke-opacity:0.05; fill:none" points="
  252.501,470.59 2352.76,470.59 
  "/>
<polyline clip-path="url(#clip292)" style="stroke:#000000; stroke-linecap:round; stroke-linejoin:round; stroke-width:2; stroke-opacity:0.05; fill:none" points="
  252.501,459.321 2352.76,459.321 
  "/>
<polyline clip-path="url(#clip292)" style="stroke:#000000; stroke-linecap:round; stroke-linejoin:round; stroke-width:2; stroke-opacity:0.05; fill:none" points="
  252.501,449.559 2352.76,449.559 
  "/>
<polyline clip-path="url(#clip292)" style="stroke:#000000; stroke-linecap:round; stroke-linejoin:round; stroke-width:2; stroke-opacity:0.05; fill:none" points="
  252.501,440.949 2352.76,440.949 
  "/>
<polyline clip-path="url(#clip292)" style="stroke:#000000; stroke-linecap:round; stroke-linejoin:round; stroke-width:2; stroke-opacity:0.05; fill:none" points="
  252.501,433.247 2352.76,433.247 
  "/>
<polyline clip-path="url(#clip292)" style="stroke:#000000; stroke-linecap:round; stroke-linejoin:round; stroke-width:2; stroke-opacity:0.05; fill:none" points="
  252.501,433.247 2352.76,433.247 
  "/>
<polyline clip-path="url(#clip292)" style="stroke:#000000; stroke-linecap:round; stroke-linejoin:round; stroke-width:2; stroke-opacity:0.05; fill:none" points="
  252.501,382.575 2352.76,382.575 
  "/>
<polyline clip-path="url(#clip292)" style="stroke:#000000; stroke-linecap:round; stroke-linejoin:round; stroke-width:2; stroke-opacity:0.05; fill:none" points="
  252.501,352.934 2352.76,352.934 
  "/>
<polyline clip-path="url(#clip290)" style="stroke:#000000; stroke-linecap:round; stroke-linejoin:round; stroke-width:4; stroke-opacity:1; fill:none" points="
  252.501,1423.18 252.501,352.309 
  "/>
<polyline clip-path="url(#clip290)" style="stroke:#000000; stroke-linecap:round; stroke-linejoin:round; stroke-width:4; stroke-opacity:1; fill:none" points="
  252.501,1106.56 271.398,1106.56 
  "/>
<polyline clip-path="url(#clip290)" style="stroke:#000000; stroke-linecap:round; stroke-linejoin:round; stroke-width:4; stroke-opacity:1; fill:none" points="
  252.501,601.574 271.398,601.574 
  "/>
<polyline clip-path="url(#clip290)" style="stroke:#000000; stroke-linecap:round; stroke-linejoin:round; stroke-width:4; stroke-opacity:1; fill:none" points="
  252.501,1224.21 261.949,1224.21 
  "/>
<polyline clip-path="url(#clip290)" style="stroke:#000000; stroke-linecap:round; stroke-linejoin:round; stroke-width:4; stroke-opacity:1; fill:none" points="
  252.501,1194.57 261.949,1194.57 
  "/>
<polyline clip-path="url(#clip290)" style="stroke:#000000; stroke-linecap:round; stroke-linejoin:round; stroke-width:4; stroke-opacity:1; fill:none" points="
  252.501,1173.54 261.949,1173.54 
  "/>
<polyline clip-path="url(#clip290)" style="stroke:#000000; stroke-linecap:round; stroke-linejoin:round; stroke-width:4; stroke-opacity:1; fill:none" points="
  252.501,1157.23 261.949,1157.23 
  "/>
<polyline clip-path="url(#clip290)" style="stroke:#000000; stroke-linecap:round; stroke-linejoin:round; stroke-width:4; stroke-opacity:1; fill:none" points="
  252.501,1143.9 261.949,1143.9 
  "/>
<polyline clip-path="url(#clip290)" style="stroke:#000000; stroke-linecap:round; stroke-linejoin:round; stroke-width:4; stroke-opacity:1; fill:none" points="
  252.501,1132.63 261.949,1132.63 
  "/>
<polyline clip-path="url(#clip290)" style="stroke:#000000; stroke-linecap:round; stroke-linejoin:round; stroke-width:4; stroke-opacity:1; fill:none" points="
  252.501,1122.87 261.949,1122.87 
  "/>
<polyline clip-path="url(#clip290)" style="stroke:#000000; stroke-linecap:round; stroke-linejoin:round; stroke-width:4; stroke-opacity:1; fill:none" points="
  252.501,1114.26 261.949,1114.26 
  "/>
<polyline clip-path="url(#clip290)" style="stroke:#000000; stroke-linecap:round; stroke-linejoin:round; stroke-width:4; stroke-opacity:1; fill:none" points="
  252.501,1106.56 261.949,1106.56 
  "/>
<polyline clip-path="url(#clip290)" style="stroke:#000000; stroke-linecap:round; stroke-linejoin:round; stroke-width:4; stroke-opacity:1; fill:none" points="
  252.501,1106.56 261.949,1106.56 
  "/>
<polyline clip-path="url(#clip290)" style="stroke:#000000; stroke-linecap:round; stroke-linejoin:round; stroke-width:4; stroke-opacity:1; fill:none" points="
  252.501,1055.88 261.949,1055.88 
  "/>
<polyline clip-path="url(#clip290)" style="stroke:#000000; stroke-linecap:round; stroke-linejoin:round; stroke-width:4; stroke-opacity:1; fill:none" points="
  252.501,1026.24 261.949,1026.24 
  "/>
<polyline clip-path="url(#clip290)" style="stroke:#000000; stroke-linecap:round; stroke-linejoin:round; stroke-width:4; stroke-opacity:1; fill:none" points="
  252.501,1005.21 261.949,1005.21 
  "/>
<polyline clip-path="url(#clip290)" style="stroke:#000000; stroke-linecap:round; stroke-linejoin:round; stroke-width:4; stroke-opacity:1; fill:none" points="
  252.501,988.9 261.949,988.9 
  "/>
<polyline clip-path="url(#clip290)" style="stroke:#000000; stroke-linecap:round; stroke-linejoin:round; stroke-width:4; stroke-opacity:1; fill:none" points="
  252.501,975.571 261.949,975.571 
  "/>
<polyline clip-path="url(#clip290)" style="stroke:#000000; stroke-linecap:round; stroke-linejoin:round; stroke-width:4; stroke-opacity:1; fill:none" points="
  252.501,964.302 261.949,964.302 
  "/>
<polyline clip-path="url(#clip290)" style="stroke:#000000; stroke-linecap:round; stroke-linejoin:round; stroke-width:4; stroke-opacity:1; fill:none" points="
  252.501,954.541 261.949,954.541 
  "/>
<polyline clip-path="url(#clip290)" style="stroke:#000000; stroke-linecap:round; stroke-linejoin:round; stroke-width:4; stroke-opacity:1; fill:none" points="
  252.501,945.93 261.949,945.93 
  "/>
<polyline clip-path="url(#clip290)" style="stroke:#000000; stroke-linecap:round; stroke-linejoin:round; stroke-width:4; stroke-opacity:1; fill:none" points="
  252.501,938.228 261.949,938.228 
  "/>
<polyline clip-path="url(#clip290)" style="stroke:#000000; stroke-linecap:round; stroke-linejoin:round; stroke-width:4; stroke-opacity:1; fill:none" points="
  252.501,938.228 261.949,938.228 
  "/>
<polyline clip-path="url(#clip290)" style="stroke:#000000; stroke-linecap:round; stroke-linejoin:round; stroke-width:4; stroke-opacity:1; fill:none" points="
  252.501,887.556 261.949,887.556 
  "/>
<polyline clip-path="url(#clip290)" style="stroke:#000000; stroke-linecap:round; stroke-linejoin:round; stroke-width:4; stroke-opacity:1; fill:none" points="
  252.501,857.916 261.949,857.916 
  "/>
<polyline clip-path="url(#clip290)" style="stroke:#000000; stroke-linecap:round; stroke-linejoin:round; stroke-width:4; stroke-opacity:1; fill:none" points="
  252.501,836.885 261.949,836.885 
  "/>
<polyline clip-path="url(#clip290)" style="stroke:#000000; stroke-linecap:round; stroke-linejoin:round; stroke-width:4; stroke-opacity:1; fill:none" points="
  252.501,820.572 261.949,820.572 
  "/>
<polyline clip-path="url(#clip290)" style="stroke:#000000; stroke-linecap:round; stroke-linejoin:round; stroke-width:4; stroke-opacity:1; fill:none" points="
  252.501,807.244 261.949,807.244 
  "/>
<polyline clip-path="url(#clip290)" style="stroke:#000000; stroke-linecap:round; stroke-linejoin:round; stroke-width:4; stroke-opacity:1; fill:none" points="
  252.501,795.975 261.949,795.975 
  "/>
<polyline clip-path="url(#clip290)" style="stroke:#000000; stroke-linecap:round; stroke-linejoin:round; stroke-width:4; stroke-opacity:1; fill:none" points="
  252.501,786.213 261.949,786.213 
  "/>
<polyline clip-path="url(#clip290)" style="stroke:#000000; stroke-linecap:round; stroke-linejoin:round; stroke-width:4; stroke-opacity:1; fill:none" points="
  252.501,777.603 261.949,777.603 
  "/>
<polyline clip-path="url(#clip290)" style="stroke:#000000; stroke-linecap:round; stroke-linejoin:round; stroke-width:4; stroke-opacity:1; fill:none" points="
  252.501,1055.88 261.949,1055.88 
  "/>
<polyline clip-path="url(#clip290)" style="stroke:#000000; stroke-linecap:round; stroke-linejoin:round; stroke-width:4; stroke-opacity:1; fill:none" points="
  252.501,1026.24 261.949,1026.24 
  "/>
<polyline clip-path="url(#clip290)" style="stroke:#000000; stroke-linecap:round; stroke-linejoin:round; stroke-width:4; stroke-opacity:1; fill:none" points="
  252.501,1005.21 261.949,1005.21 
  "/>
<polyline clip-path="url(#clip290)" style="stroke:#000000; stroke-linecap:round; stroke-linejoin:round; stroke-width:4; stroke-opacity:1; fill:none" points="
  252.501,988.9 261.949,988.9 
  "/>
<polyline clip-path="url(#clip290)" style="stroke:#000000; stroke-linecap:round; stroke-linejoin:round; stroke-width:4; stroke-opacity:1; fill:none" points="
  252.501,975.571 261.949,975.571 
  "/>
<polyline clip-path="url(#clip290)" style="stroke:#000000; stroke-linecap:round; stroke-linejoin:round; stroke-width:4; stroke-opacity:1; fill:none" points="
  252.501,964.302 261.949,964.302 
  "/>
<polyline clip-path="url(#clip290)" style="stroke:#000000; stroke-linecap:round; stroke-linejoin:round; stroke-width:4; stroke-opacity:1; fill:none" points="
  252.501,954.541 261.949,954.541 
  "/>
<polyline clip-path="url(#clip290)" style="stroke:#000000; stroke-linecap:round; stroke-linejoin:round; stroke-width:4; stroke-opacity:1; fill:none" points="
  252.501,945.93 261.949,945.93 
  "/>
<polyline clip-path="url(#clip290)" style="stroke:#000000; stroke-linecap:round; stroke-linejoin:round; stroke-width:4; stroke-opacity:1; fill:none" points="
  252.501,938.228 261.949,938.228 
  "/>
<polyline clip-path="url(#clip290)" style="stroke:#000000; stroke-linecap:round; stroke-linejoin:round; stroke-width:4; stroke-opacity:1; fill:none" points="
  252.501,938.228 261.949,938.228 
  "/>
<polyline clip-path="url(#clip290)" style="stroke:#000000; stroke-linecap:round; stroke-linejoin:round; stroke-width:4; stroke-opacity:1; fill:none" points="
  252.501,887.556 261.949,887.556 
  "/>
<polyline clip-path="url(#clip290)" style="stroke:#000000; stroke-linecap:round; stroke-linejoin:round; stroke-width:4; stroke-opacity:1; fill:none" points="
  252.501,857.916 261.949,857.916 
  "/>
<polyline clip-path="url(#clip290)" style="stroke:#000000; stroke-linecap:round; stroke-linejoin:round; stroke-width:4; stroke-opacity:1; fill:none" points="
  252.501,836.885 261.949,836.885 
  "/>
<polyline clip-path="url(#clip290)" style="stroke:#000000; stroke-linecap:round; stroke-linejoin:round; stroke-width:4; stroke-opacity:1; fill:none" points="
  252.501,820.572 261.949,820.572 
  "/>
<polyline clip-path="url(#clip290)" style="stroke:#000000; stroke-linecap:round; stroke-linejoin:round; stroke-width:4; stroke-opacity:1; fill:none" points="
  252.501,807.244 261.949,807.244 
  "/>
<polyline clip-path="url(#clip290)" style="stroke:#000000; stroke-linecap:round; stroke-linejoin:round; stroke-width:4; stroke-opacity:1; fill:none" points="
  252.501,795.975 261.949,795.975 
  "/>
<polyline clip-path="url(#clip290)" style="stroke:#000000; stroke-linecap:round; stroke-linejoin:round; stroke-width:4; stroke-opacity:1; fill:none" points="
  252.501,786.213 261.949,786.213 
  "/>
<polyline clip-path="url(#clip290)" style="stroke:#000000; stroke-linecap:round; stroke-linejoin:round; stroke-width:4; stroke-opacity:1; fill:none" points="
  252.501,777.603 261.949,777.603 
  "/>
<polyline clip-path="url(#clip290)" style="stroke:#000000; stroke-linecap:round; stroke-linejoin:round; stroke-width:4; stroke-opacity:1; fill:none" points="
  252.501,769.901 261.949,769.901 
  "/>
<polyline clip-path="url(#clip290)" style="stroke:#000000; stroke-linecap:round; stroke-linejoin:round; stroke-width:4; stroke-opacity:1; fill:none" points="
  252.501,769.901 261.949,769.901 
  "/>
<polyline clip-path="url(#clip290)" style="stroke:#000000; stroke-linecap:round; stroke-linejoin:round; stroke-width:4; stroke-opacity:1; fill:none" points="
  252.501,719.229 261.949,719.229 
  "/>
<polyline clip-path="url(#clip290)" style="stroke:#000000; stroke-linecap:round; stroke-linejoin:round; stroke-width:4; stroke-opacity:1; fill:none" points="
  252.501,689.588 261.949,689.588 
  "/>
<polyline clip-path="url(#clip290)" style="stroke:#000000; stroke-linecap:round; stroke-linejoin:round; stroke-width:4; stroke-opacity:1; fill:none" points="
  252.501,668.558 261.949,668.558 
  "/>
<polyline clip-path="url(#clip290)" style="stroke:#000000; stroke-linecap:round; stroke-linejoin:round; stroke-width:4; stroke-opacity:1; fill:none" points="
  252.501,652.245 261.949,652.245 
  "/>
<polyline clip-path="url(#clip290)" style="stroke:#000000; stroke-linecap:round; stroke-linejoin:round; stroke-width:4; stroke-opacity:1; fill:none" points="
  252.501,638.917 261.949,638.917 
  "/>
<polyline clip-path="url(#clip290)" style="stroke:#000000; stroke-linecap:round; stroke-linejoin:round; stroke-width:4; stroke-opacity:1; fill:none" points="
  252.501,627.648 261.949,627.648 
  "/>
<polyline clip-path="url(#clip290)" style="stroke:#000000; stroke-linecap:round; stroke-linejoin:round; stroke-width:4; stroke-opacity:1; fill:none" points="
  252.501,617.886 261.949,617.886 
  "/>
<polyline clip-path="url(#clip290)" style="stroke:#000000; stroke-linecap:round; stroke-linejoin:round; stroke-width:4; stroke-opacity:1; fill:none" points="
  252.501,609.276 261.949,609.276 
  "/>
<polyline clip-path="url(#clip290)" style="stroke:#000000; stroke-linecap:round; stroke-linejoin:round; stroke-width:4; stroke-opacity:1; fill:none" points="
  252.501,550.902 261.949,550.902 
  "/>
<polyline clip-path="url(#clip290)" style="stroke:#000000; stroke-linecap:round; stroke-linejoin:round; stroke-width:4; stroke-opacity:1; fill:none" points="
  252.501,521.261 261.949,521.261 
  "/>
<polyline clip-path="url(#clip290)" style="stroke:#000000; stroke-linecap:round; stroke-linejoin:round; stroke-width:4; stroke-opacity:1; fill:none" points="
  252.501,500.231 261.949,500.231 
  "/>
<polyline clip-path="url(#clip290)" style="stroke:#000000; stroke-linecap:round; stroke-linejoin:round; stroke-width:4; stroke-opacity:1; fill:none" points="
  252.501,483.918 261.949,483.918 
  "/>
<polyline clip-path="url(#clip290)" style="stroke:#000000; stroke-linecap:round; stroke-linejoin:round; stroke-width:4; stroke-opacity:1; fill:none" points="
  252.501,470.59 261.949,470.59 
  "/>
<polyline clip-path="url(#clip290)" style="stroke:#000000; stroke-linecap:round; stroke-linejoin:round; stroke-width:4; stroke-opacity:1; fill:none" points="
  252.501,459.321 261.949,459.321 
  "/>
<polyline clip-path="url(#clip290)" style="stroke:#000000; stroke-linecap:round; stroke-linejoin:round; stroke-width:4; stroke-opacity:1; fill:none" points="
  252.501,449.559 261.949,449.559 
  "/>
<polyline clip-path="url(#clip290)" style="stroke:#000000; stroke-linecap:round; stroke-linejoin:round; stroke-width:4; stroke-opacity:1; fill:none" points="
  252.501,440.949 261.949,440.949 
  "/>
<polyline clip-path="url(#clip290)" style="stroke:#000000; stroke-linecap:round; stroke-linejoin:round; stroke-width:4; stroke-opacity:1; fill:none" points="
  252.501,433.247 261.949,433.247 
  "/>
<polyline clip-path="url(#clip290)" style="stroke:#000000; stroke-linecap:round; stroke-linejoin:round; stroke-width:4; stroke-opacity:1; fill:none" points="
  252.501,433.247 261.949,433.247 
  "/>
<polyline clip-path="url(#clip290)" style="stroke:#000000; stroke-linecap:round; stroke-linejoin:round; stroke-width:4; stroke-opacity:1; fill:none" points="
  252.501,382.575 261.949,382.575 
  "/>
<polyline clip-path="url(#clip290)" style="stroke:#000000; stroke-linecap:round; stroke-linejoin:round; stroke-width:4; stroke-opacity:1; fill:none" points="
  252.501,352.934 261.949,352.934 
  "/>
<path clip-path="url(#clip290)" d="M114.931 1126.35 L122.57 1126.35 L122.57 1099.98 L114.26 1101.65 L114.26 1097.39 L122.524 1095.72 L127.2 1095.72 L127.2 1126.35 L134.839 1126.35 L134.839 1130.28 L114.931 1130.28 L114.931 1126.35 Z" fill="#000000" fill-rule="evenodd" fill-opacity="1" /><path clip-path="url(#clip290)" d="M154.283 1098.8 Q150.672 1098.8 148.843 1102.37 Q147.038 1105.91 147.038 1113.04 Q147.038 1120.14 148.843 1123.71 Q150.672 1127.25 154.283 1127.25 Q157.917 1127.25 159.723 1123.71 Q161.552 1120.14 161.552 1113.04 Q161.552 1105.91 159.723 1102.37 Q157.917 1098.8 154.283 1098.8 M154.283 1095.1 Q160.093 1095.1 163.149 1099.7 Q166.227 1104.29 166.227 1113.04 Q166.227 1121.76 163.149 1126.37 Q160.093 1130.95 154.283 1130.95 Q148.473 1130.95 145.394 1126.37 Q142.339 1121.76 142.339 1113.04 Q142.339 1104.29 145.394 1099.7 Q148.473 1095.1 154.283 1095.1 Z" fill="#000000" fill-rule="evenodd" fill-opacity="1" /><path clip-path="url(#clip290)" d="M166.227 1089.2 L190.339 1089.2 L190.339 1092.4 L166.227 1092.4 L166.227 1089.2 Z" fill="#000000" fill-rule="evenodd" fill-opacity="1" /><path clip-path="url(#clip290)" d="M207.134 1087.32 Q204.577 1087.32 203.072 1089.07 Q201.586 1090.82 201.586 1093.86 Q201.586 1096.89 203.072 1098.66 Q204.577 1100.41 207.134 1100.41 Q209.692 1100.41 211.178 1098.66 Q212.683 1096.89 212.683 1093.86 Q212.683 1090.82 211.178 1089.07 Q209.692 1087.32 207.134 1087.32 M214.676 1075.41 L214.676 1078.87 Q213.247 1078.2 211.78 1077.84 Q210.332 1077.48 208.902 1077.48 Q205.141 1077.48 203.147 1080.02 Q201.172 1082.56 200.89 1087.69 Q202 1086.06 203.674 1085.19 Q205.348 1084.31 207.36 1084.31 Q211.592 1084.31 214.037 1086.89 Q216.501 1089.44 216.501 1093.86 Q216.501 1098.19 213.943 1100.8 Q211.385 1103.42 207.134 1103.42 Q202.263 1103.42 199.686 1099.69 Q197.11 1095.95 197.11 1088.86 Q197.11 1082.2 200.27 1078.25 Q203.429 1074.28 208.752 1074.28 Q210.181 1074.28 211.629 1074.57 Q213.096 1074.85 214.676 1075.41 Z" fill="#000000" fill-rule="evenodd" fill-opacity="1" /><path clip-path="url(#clip290)" d="M115.59 621.366 L123.229 621.366 L123.229 595.001 L114.918 596.667 L114.918 592.408 L123.182 590.741 L127.858 590.741 L127.858 621.366 L135.497 621.366 L135.497 625.301 L115.59 625.301 L115.59 621.366 Z" fill="#000000" fill-rule="evenodd" fill-opacity="1" /><path clip-path="url(#clip290)" d="M154.941 593.82 Q151.33 593.82 149.502 597.385 Q147.696 600.926 147.696 608.056 Q147.696 615.162 149.502 618.727 Q151.33 622.269 154.941 622.269 Q158.576 622.269 160.381 618.727 Q162.21 615.162 162.21 608.056 Q162.21 600.926 160.381 597.385 Q158.576 593.82 154.941 593.82 M154.941 590.116 Q160.752 590.116 163.807 594.723 Q166.886 599.306 166.886 608.056 Q166.886 616.783 163.807 621.389 Q160.752 625.973 154.941 625.973 Q149.131 625.973 146.053 621.389 Q142.997 616.783 142.997 608.056 Q142.997 599.306 146.053 594.723 Q149.131 590.116 154.941 590.116 Z" fill="#000000" fill-rule="evenodd" fill-opacity="1" /><path clip-path="url(#clip290)" d="M166.886 584.218 L190.997 584.218 L190.997 587.415 L166.886 587.415 L166.886 584.218 Z" fill="#000000" fill-rule="evenodd" fill-opacity="1" /><path clip-path="url(#clip290)" d="M210.708 582.751 Q213.435 583.334 214.958 585.177 Q216.501 587.02 216.501 589.728 Q216.501 593.885 213.642 596.161 Q210.783 598.436 205.517 598.436 Q203.749 598.436 201.868 598.079 Q200.006 597.74 198.013 597.045 L198.013 593.377 Q199.592 594.299 201.473 594.769 Q203.354 595.239 205.404 595.239 Q208.978 595.239 210.84 593.828 Q212.72 592.418 212.72 589.728 Q212.72 587.246 210.971 585.854 Q209.241 584.443 206.138 584.443 L202.865 584.443 L202.865 581.321 L206.288 581.321 Q209.09 581.321 210.576 580.212 Q212.062 579.083 212.062 576.977 Q212.062 574.814 210.52 573.667 Q208.996 572.5 206.138 572.5 Q204.577 572.5 202.79 572.839 Q201.003 573.178 198.859 573.892 L198.859 570.507 Q201.022 569.905 202.903 569.604 Q204.802 569.303 206.476 569.303 Q210.802 569.303 213.322 571.278 Q215.842 573.234 215.842 576.582 Q215.842 578.914 214.507 580.531 Q213.172 582.13 210.708 582.751 Z" fill="#000000" fill-rule="evenodd" fill-opacity="1" /><path clip-path="url(#clip290)" d="M46.0847 1099.4 Q46.0847 1106.5 47.7079 1109.24 Q49.3312 1111.98 53.2461 1111.98 Q56.3653 1111.98 58.2114 1109.94 Q60.0256 1107.87 60.0256 1104.34 Q60.0256 1099.47 56.5881 1096.54 Q53.1188 1093.58 47.3897 1093.58 L46.0847 1093.58 L46.0847 1099.4 M43.6657 1087.72 L64.0042 1087.72 L64.0042 1093.58 L58.5933 1093.58 Q61.8398 1095.58 63.3994 1098.58 Q64.9272 1101.57 64.9272 1105.9 Q64.9272 1111.37 61.8716 1114.62 Q58.7843 1117.83 53.6281 1117.83 Q47.6125 1117.83 44.5569 1113.82 Q41.5014 1109.78 41.5014 1101.79 L41.5014 1093.58 L40.9285 1093.58 Q36.8862 1093.58 34.6901 1096.25 Q32.4621 1098.89 32.4621 1103.7 Q32.4621 1106.76 33.1941 1109.65 Q33.9262 1112.55 35.3903 1115.22 L29.9795 1115.22 Q28.7381 1112.01 28.1334 1108.98 Q27.4968 1105.96 27.4968 1103.1 Q27.4968 1095.36 31.5072 1091.54 Q35.5176 1087.72 43.6657 1087.72 Z" fill="#000000" fill-rule="evenodd" fill-opacity="1" /><path clip-path="url(#clip290)" d="M46.212 1050.07 Q39.7508 1050.07 36.0905 1052.74 Q32.3984 1055.39 32.3984 1060.03 Q32.3984 1064.68 36.0905 1067.35 Q39.7508 1069.99 46.212 1069.99 Q52.6732 1069.99 56.3653 1067.35 Q60.0256 1064.68 60.0256 1060.03 Q60.0256 1055.39 56.3653 1052.74 Q52.6732 1050.07 46.212 1050.07 M33.7671 1069.99 Q30.5842 1068.15 29.0564 1065.35 Q27.4968 1062.51 27.4968 1058.6 Q27.4968 1052.11 32.6531 1048.06 Q37.8093 1043.99 46.212 1043.99 Q54.6147 1043.99 59.771 1048.06 Q64.9272 1052.11 64.9272 1058.6 Q64.9272 1062.51 63.3994 1065.35 Q61.8398 1068.15 58.657 1069.99 L64.0042 1069.99 L64.0042 1075.88 L14.479 1075.88 L14.479 1069.99 L33.7671 1069.99 Z" fill="#000000" fill-rule="evenodd" fill-opacity="1" /><path clip-path="url(#clip290)" d="M29.4065 1011.56 L34.9447 1011.56 Q33.6716 1014.04 33.035 1016.71 Q32.3984 1019.39 32.3984 1022.25 Q32.3984 1026.61 33.7352 1028.81 Q35.072 1030.97 37.7456 1030.97 Q39.7826 1030.97 40.9603 1029.41 Q42.1061 1027.85 43.1565 1023.14 L43.6021 1021.14 Q44.9389 1014.9 47.3897 1012.29 Q49.8086 1009.65 54.1691 1009.65 Q59.1344 1009.65 62.0308 1013.59 Q64.9272 1017.51 64.9272 1024.38 Q64.9272 1027.25 64.3543 1030.37 Q63.8132 1033.46 62.6992 1036.89 L56.6518 1036.89 Q58.3387 1033.65 59.198 1030.5 Q60.0256 1027.34 60.0256 1024.26 Q60.0256 1020.12 58.6251 1017.89 Q57.1929 1015.66 54.6147 1015.66 Q52.2276 1015.66 50.9545 1017.29 Q49.6813 1018.88 48.5037 1024.32 L48.0262 1026.36 Q46.8804 1031.8 44.5251 1034.22 Q42.138 1036.64 38.0002 1036.64 Q32.9713 1036.64 30.2341 1033.07 Q27.4968 1029.51 27.4968 1022.95 Q27.4968 1019.71 27.9743 1016.84 Q28.4517 1013.98 29.4065 1011.56 Z" fill="#000000" fill-rule="evenodd" fill-opacity="1" /><path clip-path="url(#clip290)" d="M14.5426 986.254 Q21.8632 990.519 29.0246 992.587 Q36.186 994.656 43.5384 994.656 Q50.8908 994.656 58.1159 992.587 Q65.3091 990.487 72.5979 986.254 L72.5979 991.346 Q65.1182 996.12 57.8931 998.508 Q50.668 1000.86 43.5384 1000.86 Q36.4406 1000.86 29.2474 998.508 Q22.0542 996.152 14.5426 991.346 L14.5426 986.254 Z" fill="#000000" fill-rule="evenodd" fill-opacity="1" /><path clip-path="url(#clip290)" d="M33.8307 933.514 Q33.2578 934.5 33.0032 935.678 Q32.7167 936.824 32.7167 938.224 Q32.7167 943.19 35.9632 945.863 Q39.1779 948.505 45.2253 948.505 L64.0042 948.505 L64.0042 954.393 L28.3562 954.393 L28.3562 948.505 L33.8944 948.505 Q30.6479 946.659 29.0883 943.699 Q27.4968 940.739 27.4968 936.506 Q27.4968 935.901 27.5923 935.169 Q27.656 934.437 27.8151 933.545 L33.8307 933.514 Z" fill="#000000" fill-rule="evenodd" fill-opacity="1" /><path clip-path="url(#clip290)" d="M44.7161 898.311 L47.5806 898.311 L47.5806 925.238 Q53.6281 924.856 56.8109 921.61 Q59.9619 918.331 59.9619 912.507 Q59.9619 909.133 59.1344 905.982 Q58.3069 902.799 56.6518 899.68 L62.1899 899.68 Q63.5267 902.831 64.227 906.141 Q64.9272 909.451 64.9272 912.857 Q64.9272 921.387 59.9619 926.384 Q54.9967 931.349 46.5303 931.349 Q37.7774 931.349 32.6531 926.639 Q27.4968 921.896 27.4968 913.875 Q27.4968 906.682 32.1438 902.513 Q36.7589 898.311 44.7161 898.311 M42.9973 904.168 Q38.1912 904.231 35.3266 906.873 Q32.4621 909.483 32.4621 913.812 Q32.4621 918.713 35.2312 921.673 Q38.0002 924.602 43.0292 925.047 L42.9973 904.168 Z" fill="#000000" fill-rule="evenodd" fill-opacity="1" /><path clip-path="url(#clip290)" d="M14.479 888.699 L14.479 882.843 L64.0042 882.843 L64.0042 888.699 L14.479 888.699 Z" fill="#000000" fill-rule="evenodd" fill-opacity="1" /><path clip-path="url(#clip290)" d="M44.7161 819.377 L47.5806 819.377 L47.5806 846.303 Q53.6281 845.922 56.8109 842.675 Q59.9619 839.397 59.9619 833.572 Q59.9619 830.198 59.1344 827.047 Q58.3069 823.864 56.6518 820.745 L62.1899 820.745 Q63.5267 823.896 64.227 827.206 Q64.9272 830.517 64.9272 833.922 Q64.9272 842.452 59.9619 847.449 Q54.9967 852.415 46.5303 852.415 Q37.7774 852.415 32.6531 847.704 Q27.4968 842.961 27.4968 834.941 Q27.4968 827.747 32.1438 823.578 Q36.7589 819.377 44.7161 819.377 M42.9973 825.233 Q38.1912 825.297 35.3266 827.938 Q32.4621 830.548 32.4621 834.877 Q32.4621 839.779 35.2312 842.739 Q38.0002 845.667 43.0292 846.113 L42.9973 825.233 Z" fill="#000000" fill-rule="evenodd" fill-opacity="1" /><path clip-path="url(#clip290)" d="M33.8307 789.108 Q33.2578 790.094 33.0032 791.272 Q32.7167 792.418 32.7167 793.818 Q32.7167 798.783 35.9632 801.457 Q39.1779 804.099 45.2253 804.099 L64.0042 804.099 L64.0042 809.987 L28.3562 809.987 L28.3562 804.099 L33.8944 804.099 Q30.6479 802.253 29.0883 799.293 Q27.4968 796.333 27.4968 792.099 Q27.4968 791.495 27.5923 790.763 Q27.656 790.031 27.8151 789.139 L33.8307 789.108 Z" fill="#000000" fill-rule="evenodd" fill-opacity="1" /><path clip-path="url(#clip290)" d="M33.8307 763.454 Q33.2578 764.44 33.0032 765.618 Q32.7167 766.764 32.7167 768.164 Q32.7167 773.13 35.9632 775.803 Q39.1779 778.445 45.2253 778.445 L64.0042 778.445 L64.0042 784.333 L28.3562 784.333 L28.3562 778.445 L33.8944 778.445 Q30.6479 776.599 29.0883 773.639 Q27.4968 770.679 27.4968 766.446 Q27.4968 765.841 27.5923 765.109 Q27.656 764.377 27.8151 763.486 L33.8307 763.454 Z" fill="#000000" fill-rule="evenodd" fill-opacity="1" /><path clip-path="url(#clip290)" d="M32.4621 744.93 Q32.4621 749.64 36.1542 752.377 Q39.8145 755.115 46.212 755.115 Q52.6095 755.115 56.3017 752.409 Q59.9619 749.672 59.9619 744.93 Q59.9619 740.251 56.2698 737.514 Q52.5777 734.776 46.212 734.776 Q39.8781 734.776 36.186 737.514 Q32.4621 740.251 32.4621 744.93 M27.4968 744.93 Q27.4968 737.291 32.4621 732.93 Q37.4273 728.57 46.212 728.57 Q54.9649 728.57 59.9619 732.93 Q64.9272 737.291 64.9272 744.93 Q64.9272 752.6 59.9619 756.961 Q54.9649 761.289 46.212 761.289 Q37.4273 761.289 32.4621 756.961 Q27.4968 752.6 27.4968 744.93 Z" fill="#000000" fill-rule="evenodd" fill-opacity="1" /><path clip-path="url(#clip290)" d="M33.8307 698.205 Q33.2578 699.192 33.0032 700.37 Q32.7167 701.515 32.7167 702.916 Q32.7167 707.881 35.9632 710.555 Q39.1779 713.197 45.2253 713.197 L64.0042 713.197 L64.0042 719.085 L28.3562 719.085 L28.3562 713.197 L33.8944 713.197 Q30.6479 711.351 29.0883 708.39 Q27.4968 705.43 27.4968 701.197 Q27.4968 700.592 27.5923 699.86 Q27.656 699.128 27.8151 698.237 L33.8307 698.205 Z" fill="#000000" fill-rule="evenodd" fill-opacity="1" /><path clip-path="url(#clip290)" d="M14.5426 672.265 L14.5426 667.172 Q22.0542 662.398 29.2474 660.043 Q36.4406 657.656 43.5384 657.656 Q50.668 657.656 57.8931 660.043 Q65.1182 662.398 72.5979 667.172 L72.5979 672.265 Q65.3091 668.032 58.1159 665.963 Q50.8908 663.862 43.5384 663.862 Q36.186 663.862 29.0246 665.963 Q21.8632 668.032 14.5426 672.265 Z" fill="#000000" fill-rule="evenodd" fill-opacity="1" /><polyline clip-path="url(#clip292)" style="stroke:#000000; stroke-linecap:round; stroke-linejoin:round; stroke-width:4; stroke-opacity:1; fill:none" stroke-dasharray="16, 10" points="
  311.942,643.381 361.476,687.158 411.01,639.834 460.545,667.71 510.079,742.343 559.613,938.072 609.148,912.785 658.682,898.606 708.216,881.911 757.751,904.917 
  807.285,1107.99 856.819,907.082 906.354,905.097 955.888,954.186 1005.42,1089.02 1054.96,1241.27 1104.49,1065.13 1154.03,1075.64 1203.56,1248.41 1253.09,1167.34 
  1302.63,1129.58 1352.16,1067.19 1401.7,1086.18 1451.23,1191.86 1500.77,1234.12 1550.3,1187.83 1599.83,1137.14 1649.37,1174.61 1698.9,1315.02 1748.44,1260.63 
  1797.97,1211.3 1847.51,1182.58 1897.04,1252.37 1946.57,1257.93 1996.11,1284.5 2045.64,1261.68 2095.18,1250.65 2144.71,1392.87 2194.25,1243.21 2243.78,1298.74 
  2293.31,1332.6 
  "/>
<polyline clip-path="url(#clip292)" style="stroke:#000000; stroke-linecap:round; stroke-linejoin:round; stroke-width:4; stroke-opacity:1; fill:none" points="
  311.942,738.765 361.476,547.553 411.01,490.755 460.545,526.542 510.079,668.951 559.613,759.352 609.148,606.017 658.682,599.505 708.216,665.956 757.751,946.152 
  807.285,753.385 856.819,689.047 906.354,710.035 955.888,815.431 1005.42,1030.04 1054.96,781.722 1104.49,758.68 1154.03,802.86 1203.56,982.332 1253.09,917.252 
  1302.63,823.575 1352.16,826.253 1401.7,899.814 1451.23,1146.5 1500.77,908.607 1550.3,865.07 1599.83,891.079 1649.37,1018.46 1698.9,1068.67 1748.44,922.543 
  1797.97,909.34 1847.51,962.899 1897.04,1223.91 1946.57,1013.52 1996.11,945.823 2045.64,957.756 2095.18,1056.95 2144.71,1270.74 2194.25,1005.44 2243.78,976.192 
  2293.31,1015.44 
  "/>
<polyline clip-path="url(#clip292)" style="stroke:#a52a2a; stroke-linecap:round; stroke-linejoin:round; stroke-width:4; stroke-opacity:1; fill:none" stroke-dasharray="16, 10" points="
  311.942,667.083 361.476,660.605 411.01,519.879 460.545,483.956 510.079,582.989 559.613,857.195 609.148,660.605 658.682,551.338 708.216,552.721 757.751,667.083 
  807.285,1055.67 856.819,660.605 906.354,570.956 955.888,611.735 1005.42,752.422 1054.96,856.252 1104.49,660.605 1154.03,584.47 1203.56,667.083 1253.09,857.195 
  1302.63,798.501 1352.16,660.605 1401.7,625.739 1451.23,722.956 1500.77,1052.73 1550.3,768.194 1599.83,660.605 1649.37,667.083 1698.9,783.835 1748.44,1055.67 
  1797.97,749.134 1847.51,660.605 1897.04,708.717 1946.57,857.195 1996.11,914.172 2045.64,735.936 2095.18,667.083 2144.71,752.422 2194.25,963.135 2243.78,856.252 
  2293.31,726.219 
  "/>
<polyline clip-path="url(#clip292)" style="stroke:#a52a2a; stroke-linecap:round; stroke-linejoin:round; stroke-width:4; stroke-opacity:1; fill:none" points="
  311.942,704.671 361.476,481.578 411.01,382.616 460.545,402.429 510.079,536.644 559.613,703.763 609.148,481.578 658.682,406.626 708.216,491.786 757.751,704.671 
  807.285,606.552 856.819,481.578 906.354,469.757 955.888,584.441 1005.42,927.52 1054.96,570.153 1104.49,481.578 1154.03,536.644 1203.56,704.671 1253.09,703.763 
  1302.63,550.463 1352.16,509.529 1401.7,610.375 1451.23,1019.93 1500.77,640.258 1550.3,538.021 1599.83,564.798 1649.37,704.671 1698.9,801.072 1748.44,606.552 
  1797.97,536.644 1847.51,626.895 1897.04,874.616 1946.57,703.763 1996.11,585.124 2045.64,584.441 2095.18,704.671 2144.71,927.52 2194.25,656.46 2243.78,570.153 
  2293.31,638.406 
  "/>
<path clip-path="url(#clip290)" d="
M997.003 306.444 L1608.25 306.444 L1608.25 47.2441 L997.003 47.2441  Z
  " fill="#ffffff" fill-rule="evenodd" fill-opacity="0"/>
<polyline clip-path="url(#clip290)" style="stroke:#000000; stroke-linecap:round; stroke-linejoin:round; stroke-width:4; stroke-opacity:1; fill:none" points="
  997.003,306.444 1608.25,306.444 1608.25,47.2441 997.003,47.2441 997.003,306.444 
  "/>
<polyline clip-path="url(#clip290)" style="stroke:#000000; stroke-linecap:round; stroke-linejoin:round; stroke-width:4; stroke-opacity:1; fill:none" stroke-dasharray="16, 10" points="
  1020.34,99.0841 1160.36,99.0841 
  "/>
<path clip-path="url(#clip290)" d="M1202.6 103.1 Q1202.6 98.4707 1200.68 95.9244 Q1198.79 93.3781 1195.34 93.3781 Q1191.91 93.3781 1189.99 95.9244 Q1188.09 98.4707 1188.09 103.1 Q1188.09 107.707 1189.99 110.253 Q1191.91 112.799 1195.34 112.799 Q1198.79 112.799 1200.68 110.253 Q1202.6 107.707 1202.6 103.1 M1206.86 113.147 Q1206.86 119.767 1203.92 122.984 Q1200.98 126.225 1194.92 126.225 Q1192.67 126.225 1190.68 125.878 Q1188.69 125.554 1186.82 124.859 L1186.82 120.716 Q1188.69 121.734 1190.52 122.221 Q1192.35 122.707 1194.25 122.707 Q1198.44 122.707 1200.52 120.508 Q1202.6 118.332 1202.6 113.91 L1202.6 111.804 Q1201.29 114.096 1199.22 115.23 Q1197.16 116.364 1194.29 116.364 Q1189.53 116.364 1186.61 112.73 Q1183.69 109.096 1183.69 103.1 Q1183.69 97.0818 1186.61 93.4476 Q1189.53 89.8133 1194.29 89.8133 Q1197.16 89.8133 1199.22 90.9476 Q1201.29 92.0818 1202.6 94.3735 L1202.6 90.4383 L1206.86 90.4383 L1206.86 113.147 Z" fill="#000000" fill-rule="evenodd" fill-opacity="1" /><path clip-path="url(#clip290)" d="M1231.03 81.1791 L1233.62 94.605 L1246.56 90.1374 L1236.22 99.0957 L1246.56 108.054 L1233.62 103.586 L1231.03 117.035 L1228.44 103.586 L1215.5 108.054 L1225.85 99.0957 L1215.5 90.1374 L1228.44 94.605 L1231.03 81.1791 Z" fill="#000000" fill-rule="evenodd" fill-opacity="1" /><path clip-path="url(#clip290)" d="M1275.54 95.4151 Q1277.14 92.5448 1279.36 91.179 Q1281.59 89.8133 1284.59 89.8133 Q1288.65 89.8133 1290.84 92.6605 Q1293.04 95.4846 1293.04 100.716 L1293.04 116.364 L1288.76 116.364 L1288.76 100.855 Q1288.76 97.1281 1287.44 95.3225 Q1286.12 93.517 1283.41 93.517 Q1280.1 93.517 1278.18 95.7161 Q1276.26 97.9151 1276.26 101.711 L1276.26 116.364 L1271.98 116.364 L1271.98 100.855 Q1271.98 97.1049 1270.66 95.3225 Q1269.34 93.517 1266.59 93.517 Q1263.32 93.517 1261.4 95.7392 Q1259.48 97.9383 1259.48 101.711 L1259.48 116.364 L1255.2 116.364 L1255.2 90.4383 L1259.48 90.4383 L1259.48 94.4661 Q1260.94 92.0818 1262.97 90.9476 Q1265.01 89.8133 1267.81 89.8133 Q1270.64 89.8133 1272.6 91.2485 Q1274.59 92.6837 1275.54 95.4151 Z" fill="#000000" fill-rule="evenodd" fill-opacity="1" /><path clip-path="url(#clip290)" d="M1301.54 90.4383 L1305.8 90.4383 L1305.8 116.364 L1301.54 116.364 L1301.54 90.4383 M1301.54 80.3458 L1305.8 80.3458 L1305.8 85.7393 L1301.54 85.7393 L1301.54 80.3458 Z" fill="#000000" fill-rule="evenodd" fill-opacity="1" /><path clip-path="url(#clip290)" d="M1336.26 100.716 L1336.26 116.364 L1332 116.364 L1332 100.855 Q1332 97.1744 1330.57 95.3457 Q1329.13 93.517 1326.26 93.517 Q1322.81 93.517 1320.82 95.7161 Q1318.83 97.9151 1318.83 101.711 L1318.83 116.364 L1314.55 116.364 L1314.55 90.4383 L1318.83 90.4383 L1318.83 94.4661 Q1320.36 92.1281 1322.42 90.9707 Q1324.5 89.8133 1327.21 89.8133 Q1331.68 89.8133 1333.97 92.5911 Q1336.26 95.3457 1336.26 100.716 Z" fill="#000000" fill-rule="evenodd" fill-opacity="1" /><path clip-path="url(#clip290)" d="M1344.36 80.3458 L1354.18 80.3458 L1354.18 83.6559 L1348.62 83.6559 L1348.62 119.304 L1354.18 119.304 L1354.18 122.614 L1344.36 122.614 L1344.36 80.3458 Z" fill="#000000" fill-rule="evenodd" fill-opacity="1" /><path clip-path="url(#clip290)" d="M1363.25 90.4383 L1367.51 90.4383 L1367.51 116.364 L1363.25 116.364 L1363.25 90.4383 M1363.25 80.3458 L1367.51 80.3458 L1367.51 85.7393 L1363.25 85.7393 L1363.25 80.3458 Z" fill="#000000" fill-rule="evenodd" fill-opacity="1" /><path clip-path="url(#clip290)" d="M1397.97 100.716 L1397.97 116.364 L1393.71 116.364 L1393.71 100.855 Q1393.71 97.1744 1392.28 95.3457 Q1390.84 93.517 1387.97 93.517 Q1384.52 93.517 1382.53 95.7161 Q1380.54 97.9151 1380.54 101.711 L1380.54 116.364 L1376.26 116.364 L1376.26 90.4383 L1380.54 90.4383 L1380.54 94.4661 Q1382.07 92.1281 1384.13 90.9707 Q1386.21 89.8133 1388.92 89.8133 Q1393.39 89.8133 1395.68 92.5911 Q1397.97 95.3457 1397.97 100.716 Z" fill="#000000" fill-rule="evenodd" fill-opacity="1" /><path clip-path="url(#clip290)" d="M1410.68 83.0772 L1410.68 90.4383 L1419.46 90.4383 L1419.46 93.7485 L1410.68 93.7485 L1410.68 107.822 Q1410.68 110.994 1411.54 111.897 Q1412.42 112.799 1415.08 112.799 L1419.46 112.799 L1419.46 116.364 L1415.08 116.364 Q1410.15 116.364 1408.27 114.535 Q1406.4 112.684 1406.4 107.822 L1406.4 93.7485 L1403.27 93.7485 L1403.27 90.4383 L1406.4 90.4383 L1406.4 83.0772 L1410.68 83.0772 Z" fill="#000000" fill-rule="evenodd" fill-opacity="1" /><path clip-path="url(#clip290)" d="M1447.23 102.336 L1447.23 104.42 L1427.65 104.42 Q1427.93 108.818 1430.29 111.133 Q1432.67 113.424 1436.91 113.424 Q1439.36 113.424 1441.65 112.822 Q1443.97 112.221 1446.24 111.017 L1446.24 115.045 Q1443.95 116.017 1441.54 116.526 Q1439.13 117.035 1436.65 117.035 Q1430.45 117.035 1426.82 113.424 Q1423.21 109.813 1423.21 103.656 Q1423.21 97.2901 1426.63 93.5633 Q1430.08 89.8133 1435.91 89.8133 Q1441.14 89.8133 1444.18 93.1929 Q1447.23 96.5494 1447.23 102.336 M1442.97 101.086 Q1442.93 97.591 1441.01 95.5077 Q1439.11 93.4244 1435.96 93.4244 Q1432.39 93.4244 1430.24 95.4383 Q1428.11 97.4522 1427.79 101.11 L1442.97 101.086 Z" fill="#000000" fill-rule="evenodd" fill-opacity="1" /><path clip-path="url(#clip290)" d="M1469.25 94.4198 Q1468.53 94.0031 1467.67 93.8179 Q1466.84 93.6096 1465.82 93.6096 Q1462.21 93.6096 1460.27 95.9707 Q1458.34 98.3086 1458.34 102.707 L1458.34 116.364 L1454.06 116.364 L1454.06 90.4383 L1458.34 90.4383 L1458.34 94.4661 Q1459.69 92.105 1461.84 90.9707 Q1463.99 89.8133 1467.07 89.8133 Q1467.51 89.8133 1468.04 89.8828 Q1468.58 89.9291 1469.22 90.0448 L1469.25 94.4198 Z" fill="#000000" fill-rule="evenodd" fill-opacity="1" /><path clip-path="url(#clip290)" d="M1477.83 112.475 L1477.83 126.225 L1473.55 126.225 L1473.55 90.4383 L1477.83 90.4383 L1477.83 94.3735 Q1479.18 92.0587 1481.21 90.9476 Q1483.27 89.8133 1486.12 89.8133 Q1490.84 89.8133 1493.78 93.5633 Q1496.75 97.3133 1496.75 103.424 Q1496.75 109.535 1493.78 113.285 Q1490.84 117.035 1486.12 117.035 Q1483.27 117.035 1481.21 115.924 Q1479.18 114.79 1477.83 112.475 M1492.33 103.424 Q1492.33 98.7253 1490.38 96.0633 Q1488.46 93.3781 1485.08 93.3781 Q1481.7 93.3781 1479.76 96.0633 Q1477.83 98.7253 1477.83 103.424 Q1477.83 108.123 1479.76 110.809 Q1481.7 113.471 1485.08 113.471 Q1488.46 113.471 1490.38 110.809 Q1492.33 108.123 1492.33 103.424 Z" fill="#000000" fill-rule="evenodd" fill-opacity="1" /><path clip-path="url(#clip290)" d="M1513.76 80.3458 L1513.76 122.614 L1503.95 122.614 L1503.95 119.304 L1509.48 119.304 L1509.48 83.6559 L1503.95 83.6559 L1503.95 80.3458 L1513.76 80.3458 Z" fill="#000000" fill-rule="evenodd" fill-opacity="1" /><polyline clip-path="url(#clip290)" style="stroke:#000000; stroke-linecap:round; stroke-linejoin:round; stroke-width:4; stroke-opacity:1; fill:none" points="
  1020.34,150.924 1160.36,150.924 
  "/>
<path clip-path="url(#clip290)" d="M1202.6 154.94 Q1202.6 150.311 1200.68 147.764 Q1198.79 145.218 1195.34 145.218 Q1191.91 145.218 1189.99 147.764 Q1188.09 150.311 1188.09 154.94 Q1188.09 159.547 1189.99 162.093 Q1191.91 164.639 1195.34 164.639 Q1198.79 164.639 1200.68 162.093 Q1202.6 159.547 1202.6 154.94 M1206.86 164.987 Q1206.86 171.607 1203.92 174.824 Q1200.98 178.065 1194.92 178.065 Q1192.67 178.065 1190.68 177.718 Q1188.69 177.394 1186.82 176.699 L1186.82 172.556 Q1188.69 173.574 1190.52 174.061 Q1192.35 174.547 1194.25 174.547 Q1198.44 174.547 1200.52 172.348 Q1202.6 170.172 1202.6 165.75 L1202.6 163.644 Q1201.29 165.936 1199.22 167.07 Q1197.16 168.204 1194.29 168.204 Q1189.53 168.204 1186.61 164.57 Q1183.69 160.936 1183.69 154.94 Q1183.69 148.922 1186.61 145.288 Q1189.53 141.653 1194.29 141.653 Q1197.16 141.653 1199.22 142.788 Q1201.29 143.922 1202.6 146.213 L1202.6 142.278 L1206.86 142.278 L1206.86 164.987 Z" fill="#000000" fill-rule="evenodd" fill-opacity="1" /><path clip-path="url(#clip290)" d="M1231.03 133.019 L1233.62 146.445 L1246.56 141.977 L1236.22 150.936 L1246.56 159.894 L1233.62 155.426 L1231.03 168.875 L1228.44 155.426 L1215.5 159.894 L1225.85 150.936 L1215.5 141.977 L1228.44 146.445 L1231.03 133.019 Z" fill="#000000" fill-rule="evenodd" fill-opacity="1" /><path clip-path="url(#clip290)" d="M1275.54 147.255 Q1277.14 144.385 1279.36 143.019 Q1281.59 141.653 1284.59 141.653 Q1288.65 141.653 1290.84 144.501 Q1293.04 147.325 1293.04 152.556 L1293.04 168.204 L1288.76 168.204 L1288.76 152.695 Q1288.76 148.968 1287.44 147.163 Q1286.12 145.357 1283.41 145.357 Q1280.1 145.357 1278.18 147.556 Q1276.26 149.755 1276.26 153.551 L1276.26 168.204 L1271.98 168.204 L1271.98 152.695 Q1271.98 148.945 1270.66 147.163 Q1269.34 145.357 1266.59 145.357 Q1263.32 145.357 1261.4 147.579 Q1259.48 149.778 1259.48 153.551 L1259.48 168.204 L1255.2 168.204 L1255.2 142.278 L1259.48 142.278 L1259.48 146.306 Q1260.94 143.922 1262.97 142.788 Q1265.01 141.653 1267.81 141.653 Q1270.64 141.653 1272.6 143.088 Q1274.59 144.524 1275.54 147.255 Z" fill="#000000" fill-rule="evenodd" fill-opacity="1" /><path clip-path="url(#clip290)" d="M1313.32 155.172 Q1308.16 155.172 1306.17 156.352 Q1304.18 157.533 1304.18 160.38 Q1304.18 162.649 1305.66 163.991 Q1307.16 165.311 1309.73 165.311 Q1313.28 165.311 1315.4 162.811 Q1317.56 160.287 1317.56 156.121 L1317.56 155.172 L1313.32 155.172 M1321.82 153.413 L1321.82 168.204 L1317.56 168.204 L1317.56 164.269 Q1316.1 166.63 1313.92 167.764 Q1311.75 168.875 1308.6 168.875 Q1304.62 168.875 1302.26 166.653 Q1299.92 164.408 1299.92 160.658 Q1299.92 156.283 1302.84 154.061 Q1305.78 151.838 1311.59 151.838 L1317.56 151.838 L1317.56 151.422 Q1317.56 148.482 1315.61 146.885 Q1313.69 145.264 1310.2 145.264 Q1307.97 145.264 1305.87 145.797 Q1303.76 146.329 1301.82 147.394 L1301.82 143.459 Q1304.15 142.556 1306.35 142.116 Q1308.55 141.653 1310.64 141.653 Q1316.26 141.653 1319.04 144.57 Q1321.82 147.487 1321.82 153.413 Z" fill="#000000" fill-rule="evenodd" fill-opacity="1" /><path clip-path="url(#clip290)" d="M1352.14 142.278 L1342.77 154.894 L1352.63 168.204 L1347.6 168.204 L1340.06 158.019 L1332.51 168.204 L1327.49 168.204 L1337.56 154.639 L1328.34 142.278 L1333.37 142.278 L1340.24 151.514 L1347.12 142.278 L1352.14 142.278 Z" fill="#000000" fill-rule="evenodd" fill-opacity="1" /><path clip-path="url(#clip290)" d="M1358.25 132.186 L1368.07 132.186 L1368.07 135.496 L1362.51 135.496 L1362.51 171.144 L1368.07 171.144 L1368.07 174.454 L1358.25 174.454 L1358.25 132.186 Z" fill="#000000" fill-rule="evenodd" fill-opacity="1" /><path clip-path="url(#clip290)" d="M1377.14 142.278 L1381.4 142.278 L1381.4 168.204 L1377.14 168.204 L1377.14 142.278 M1377.14 132.186 L1381.4 132.186 L1381.4 137.579 L1377.14 137.579 L1377.14 132.186 Z" fill="#000000" fill-rule="evenodd" fill-opacity="1" /><path clip-path="url(#clip290)" d="M1411.86 152.556 L1411.86 168.204 L1407.6 168.204 L1407.6 152.695 Q1407.6 149.014 1406.17 147.186 Q1404.73 145.357 1401.86 145.357 Q1398.41 145.357 1396.42 147.556 Q1394.43 149.755 1394.43 153.551 L1394.43 168.204 L1390.15 168.204 L1390.15 142.278 L1394.43 142.278 L1394.43 146.306 Q1395.96 143.968 1398.02 142.811 Q1400.1 141.653 1402.81 141.653 Q1407.28 141.653 1409.57 144.431 Q1411.86 147.186 1411.86 152.556 Z" fill="#000000" fill-rule="evenodd" fill-opacity="1" /><path clip-path="url(#clip290)" d="M1424.57 134.917 L1424.57 142.278 L1433.34 142.278 L1433.34 145.588 L1424.57 145.588 L1424.57 159.662 Q1424.57 162.834 1425.43 163.737 Q1426.31 164.639 1428.97 164.639 L1433.34 164.639 L1433.34 168.204 L1428.97 168.204 Q1424.04 168.204 1422.16 166.375 Q1420.29 164.524 1420.29 159.662 L1420.29 145.588 L1417.16 145.588 L1417.16 142.278 L1420.29 142.278 L1420.29 134.917 L1424.57 134.917 Z" fill="#000000" fill-rule="evenodd" fill-opacity="1" /><path clip-path="url(#clip290)" d="M1461.12 154.176 L1461.12 156.26 L1441.54 156.26 Q1441.82 160.658 1444.18 162.973 Q1446.56 165.264 1450.8 165.264 Q1453.25 165.264 1455.54 164.662 Q1457.86 164.061 1460.13 162.857 L1460.13 166.885 Q1457.83 167.857 1455.43 168.366 Q1453.02 168.875 1450.54 168.875 Q1444.34 168.875 1440.71 165.264 Q1437.09 161.653 1437.09 155.496 Q1437.09 149.13 1440.52 145.403 Q1443.97 141.653 1449.8 141.653 Q1455.03 141.653 1458.07 145.033 Q1461.12 148.389 1461.12 154.176 M1456.86 152.926 Q1456.82 149.431 1454.89 147.348 Q1453 145.264 1449.85 145.264 Q1446.28 145.264 1444.13 147.278 Q1442 149.292 1441.68 152.95 L1456.86 152.926 Z" fill="#000000" fill-rule="evenodd" fill-opacity="1" /><path clip-path="url(#clip290)" d="M1483.14 146.26 Q1482.42 145.843 1481.56 145.658 Q1480.73 145.45 1479.71 145.45 Q1476.1 145.45 1474.15 147.811 Q1472.23 150.149 1472.23 154.547 L1472.23 168.204 L1467.95 168.204 L1467.95 142.278 L1472.23 142.278 L1472.23 146.306 Q1473.58 143.945 1475.73 142.811 Q1477.88 141.653 1480.96 141.653 Q1481.4 141.653 1481.93 141.723 Q1482.46 141.769 1483.11 141.885 L1483.14 146.26 Z" fill="#000000" fill-rule="evenodd" fill-opacity="1" /><path clip-path="url(#clip290)" d="M1491.72 164.315 L1491.72 178.065 L1487.44 178.065 L1487.44 142.278 L1491.72 142.278 L1491.72 146.213 Q1493.07 143.899 1495.1 142.788 Q1497.16 141.653 1500.01 141.653 Q1504.73 141.653 1507.67 145.403 Q1510.64 149.153 1510.64 155.264 Q1510.64 161.375 1507.67 165.125 Q1504.73 168.875 1500.01 168.875 Q1497.16 168.875 1495.1 167.764 Q1493.07 166.63 1491.72 164.315 M1506.21 155.264 Q1506.21 150.565 1504.27 147.903 Q1502.35 145.218 1498.97 145.218 Q1495.59 145.218 1493.64 147.903 Q1491.72 150.565 1491.72 155.264 Q1491.72 159.963 1493.64 162.649 Q1495.59 165.311 1498.97 165.311 Q1502.35 165.311 1504.27 162.649 Q1506.21 159.963 1506.21 155.264 Z" fill="#000000" fill-rule="evenodd" fill-opacity="1" /><path clip-path="url(#clip290)" d="M1527.65 132.186 L1527.65 174.454 L1517.83 174.454 L1517.83 171.144 L1523.37 171.144 L1523.37 135.496 L1517.83 135.496 L1517.83 132.186 L1527.65 132.186 Z" fill="#000000" fill-rule="evenodd" fill-opacity="1" /><polyline clip-path="url(#clip290)" style="stroke:#a52a2a; stroke-linecap:round; stroke-linejoin:round; stroke-width:4; stroke-opacity:1; fill:none" stroke-dasharray="16, 10" points="
  1020.34,202.764 1160.36,202.764 
  "/>
<path clip-path="url(#clip290)" d="M1202.6 206.78 Q1202.6 202.151 1200.68 199.604 Q1198.79 197.058 1195.34 197.058 Q1191.91 197.058 1189.99 199.604 Q1188.09 202.151 1188.09 206.78 Q1188.09 211.387 1189.99 213.933 Q1191.91 216.479 1195.34 216.479 Q1198.79 216.479 1200.68 213.933 Q1202.6 211.387 1202.6 206.78 M1206.86 216.827 Q1206.86 223.447 1203.92 226.664 Q1200.98 229.905 1194.92 229.905 Q1192.67 229.905 1190.68 229.558 Q1188.69 229.234 1186.82 228.539 L1186.82 224.396 Q1188.69 225.414 1190.52 225.901 Q1192.35 226.387 1194.25 226.387 Q1198.44 226.387 1200.52 224.188 Q1202.6 222.012 1202.6 217.59 L1202.6 215.484 Q1201.29 217.776 1199.22 218.91 Q1197.16 220.044 1194.29 220.044 Q1189.53 220.044 1186.61 216.41 Q1183.69 212.776 1183.69 206.78 Q1183.69 200.762 1186.61 197.128 Q1189.53 193.493 1194.29 193.493 Q1197.16 193.493 1199.22 194.628 Q1201.29 195.762 1202.6 198.053 L1202.6 194.118 L1206.86 194.118 L1206.86 216.827 Z" fill="#000000" fill-rule="evenodd" fill-opacity="1" /><path clip-path="url(#clip290)" d="M1231.03 184.859 L1233.62 198.285 L1246.56 193.817 L1236.22 202.776 L1246.56 211.734 L1233.62 207.266 L1231.03 220.715 L1228.44 207.266 L1215.5 211.734 L1225.85 202.776 L1215.5 193.817 L1228.44 198.285 L1231.03 184.859 Z" fill="#000000" fill-rule="evenodd" fill-opacity="1" /><path clip-path="url(#clip290)" d="M1275.54 199.095 Q1277.14 196.225 1279.36 194.859 Q1281.59 193.493 1284.59 193.493 Q1288.65 193.493 1290.84 196.341 Q1293.04 199.165 1293.04 204.396 L1293.04 220.044 L1288.76 220.044 L1288.76 204.535 Q1288.76 200.808 1287.44 199.003 Q1286.12 197.197 1283.41 197.197 Q1280.1 197.197 1278.18 199.396 Q1276.26 201.595 1276.26 205.391 L1276.26 220.044 L1271.98 220.044 L1271.98 204.535 Q1271.98 200.785 1270.66 199.003 Q1269.34 197.197 1266.59 197.197 Q1263.32 197.197 1261.4 199.419 Q1259.48 201.618 1259.48 205.391 L1259.48 220.044 L1255.2 220.044 L1255.2 194.118 L1259.48 194.118 L1259.48 198.146 Q1260.94 195.762 1262.97 194.628 Q1265.01 193.493 1267.81 193.493 Q1270.64 193.493 1272.6 194.928 Q1274.59 196.364 1275.54 199.095 Z" fill="#000000" fill-rule="evenodd" fill-opacity="1" /><path clip-path="url(#clip290)" d="M1301.54 194.118 L1305.8 194.118 L1305.8 220.044 L1301.54 220.044 L1301.54 194.118 M1301.54 184.026 L1305.8 184.026 L1305.8 189.419 L1301.54 189.419 L1301.54 184.026 Z" fill="#000000" fill-rule="evenodd" fill-opacity="1" /><path clip-path="url(#clip290)" d="M1336.26 204.396 L1336.26 220.044 L1332 220.044 L1332 204.535 Q1332 200.854 1330.57 199.026 Q1329.13 197.197 1326.26 197.197 Q1322.81 197.197 1320.82 199.396 Q1318.83 201.595 1318.83 205.391 L1318.83 220.044 L1314.55 220.044 L1314.55 194.118 L1318.83 194.118 L1318.83 198.146 Q1320.36 195.808 1322.42 194.651 Q1324.5 193.493 1327.21 193.493 Q1331.68 193.493 1333.97 196.271 Q1336.26 199.026 1336.26 204.396 Z" fill="#000000" fill-rule="evenodd" fill-opacity="1" /><path clip-path="url(#clip290)" d="M1344.36 184.026 L1354.18 184.026 L1354.18 187.336 L1348.62 187.336 L1348.62 222.984 L1354.18 222.984 L1354.18 226.294 L1344.36 226.294 L1344.36 184.026 Z" fill="#000000" fill-rule="evenodd" fill-opacity="1" /><path clip-path="url(#clip290)" d="M1385.43 206.016 L1385.43 208.1 L1365.84 208.1 Q1366.12 212.498 1368.48 214.813 Q1370.87 217.104 1375.1 217.104 Q1377.56 217.104 1379.85 216.502 Q1382.16 215.901 1384.43 214.697 L1384.43 218.725 Q1382.14 219.697 1379.73 220.206 Q1377.33 220.715 1374.85 220.715 Q1368.65 220.715 1365.01 217.104 Q1361.4 213.493 1361.4 207.336 Q1361.4 200.97 1364.83 197.243 Q1368.27 193.493 1374.11 193.493 Q1379.34 193.493 1382.37 196.873 Q1385.43 200.229 1385.43 206.016 M1381.17 204.766 Q1381.12 201.271 1379.2 199.188 Q1377.3 197.104 1374.15 197.104 Q1370.59 197.104 1368.44 199.118 Q1366.31 201.132 1365.98 204.79 L1381.17 204.766 Z" fill="#000000" fill-rule="evenodd" fill-opacity="1" /><path clip-path="url(#clip290)" d="M1413.14 194.118 L1403.76 206.734 L1413.62 220.044 L1408.6 220.044 L1401.05 209.859 L1393.51 220.044 L1388.48 220.044 L1398.55 206.479 L1389.34 194.118 L1394.36 194.118 L1401.24 203.354 L1408.11 194.118 L1413.14 194.118 Z" fill="#000000" fill-rule="evenodd" fill-opacity="1" /><path clip-path="url(#clip290)" d="M1423.85 186.757 L1423.85 194.118 L1432.63 194.118 L1432.63 197.428 L1423.85 197.428 L1423.85 211.502 Q1423.85 214.674 1424.71 215.577 Q1425.59 216.479 1428.25 216.479 L1432.63 216.479 L1432.63 220.044 L1428.25 220.044 Q1423.32 220.044 1421.45 218.215 Q1419.57 216.364 1419.57 211.502 L1419.57 197.428 L1416.45 197.428 L1416.45 194.118 L1419.57 194.118 L1419.57 186.757 L1423.85 186.757 Z" fill="#000000" fill-rule="evenodd" fill-opacity="1" /><path clip-path="url(#clip290)" d="M1453.25 198.1 Q1452.53 197.683 1451.68 197.498 Q1450.84 197.29 1449.83 197.29 Q1446.21 197.29 1444.27 199.651 Q1442.35 201.989 1442.35 206.387 L1442.35 220.044 L1438.07 220.044 L1438.07 194.118 L1442.35 194.118 L1442.35 198.146 Q1443.69 195.785 1445.84 194.651 Q1448 193.493 1451.08 193.493 Q1451.52 193.493 1452.05 193.563 Q1452.58 193.609 1453.23 193.725 L1453.25 198.1 Z" fill="#000000" fill-rule="evenodd" fill-opacity="1" /><path clip-path="url(#clip290)" d="M1478.85 206.016 L1478.85 208.1 L1459.27 208.1 Q1459.55 212.498 1461.91 214.813 Q1464.29 217.104 1468.53 217.104 Q1470.98 217.104 1473.27 216.502 Q1475.59 215.901 1477.86 214.697 L1477.86 218.725 Q1475.57 219.697 1473.16 220.206 Q1470.75 220.715 1468.27 220.715 Q1462.07 220.715 1458.44 217.104 Q1454.83 213.493 1454.83 207.336 Q1454.83 200.97 1458.25 197.243 Q1461.7 193.493 1467.53 193.493 Q1472.77 193.493 1475.8 196.873 Q1478.85 200.229 1478.85 206.016 M1474.59 204.766 Q1474.55 201.271 1472.63 199.188 Q1470.73 197.104 1467.58 197.104 Q1464.02 197.104 1461.86 199.118 Q1459.73 201.132 1459.41 204.79 L1474.59 204.766 Z" fill="#000000" fill-rule="evenodd" fill-opacity="1" /><path clip-path="url(#clip290)" d="M1506.03 199.095 Q1507.63 196.225 1509.85 194.859 Q1512.07 193.493 1515.08 193.493 Q1519.13 193.493 1521.33 196.341 Q1523.53 199.165 1523.53 204.396 L1523.53 220.044 L1519.25 220.044 L1519.25 204.535 Q1519.25 200.808 1517.93 199.003 Q1516.61 197.197 1513.9 197.197 Q1510.59 197.197 1508.67 199.396 Q1506.75 201.595 1506.75 205.391 L1506.75 220.044 L1502.46 220.044 L1502.46 204.535 Q1502.46 200.785 1501.14 199.003 Q1499.83 197.197 1497.07 197.197 Q1493.81 197.197 1491.89 199.419 Q1489.96 201.618 1489.96 205.391 L1489.96 220.044 L1485.68 220.044 L1485.68 194.118 L1489.96 194.118 L1489.96 198.146 Q1491.42 195.762 1493.46 194.628 Q1495.5 193.493 1498.3 193.493 Q1501.12 193.493 1503.09 194.928 Q1505.08 196.364 1506.03 199.095 Z" fill="#000000" fill-rule="evenodd" fill-opacity="1" /><path clip-path="url(#clip290)" d="M1543.81 207.012 Q1538.64 207.012 1536.65 208.192 Q1534.66 209.373 1534.66 212.22 Q1534.66 214.489 1536.14 215.831 Q1537.65 217.151 1540.22 217.151 Q1543.76 217.151 1545.89 214.651 Q1548.04 212.127 1548.04 207.961 L1548.04 207.012 L1543.81 207.012 M1552.3 205.253 L1552.3 220.044 L1548.04 220.044 L1548.04 216.109 Q1546.58 218.47 1544.41 219.604 Q1542.23 220.715 1539.08 220.715 Q1535.1 220.715 1532.74 218.493 Q1530.4 216.248 1530.4 212.498 Q1530.4 208.123 1533.32 205.901 Q1536.26 203.678 1542.07 203.678 L1548.04 203.678 L1548.04 203.262 Q1548.04 200.322 1546.1 198.725 Q1544.18 197.104 1540.68 197.104 Q1538.46 197.104 1536.35 197.637 Q1534.25 198.169 1532.3 199.234 L1532.3 195.299 Q1534.64 194.396 1536.84 193.956 Q1539.04 193.493 1541.12 193.493 Q1546.75 193.493 1549.52 196.41 Q1552.3 199.327 1552.3 205.253 Z" fill="#000000" fill-rule="evenodd" fill-opacity="1" /><path clip-path="url(#clip290)" d="M1571.03 184.026 L1571.03 226.294 L1561.21 226.294 L1561.21 222.984 L1566.75 222.984 L1566.75 187.336 L1561.21 187.336 L1561.21 184.026 L1571.03 184.026 Z" fill="#000000" fill-rule="evenodd" fill-opacity="1" /><polyline clip-path="url(#clip290)" style="stroke:#a52a2a; stroke-linecap:round; stroke-linejoin:round; stroke-width:4; stroke-opacity:1; fill:none" points="
  1020.34,254.604 1160.36,254.604 
  "/>
<path clip-path="url(#clip290)" d="M1202.6 258.62 Q1202.6 253.991 1200.68 251.444 Q1198.79 248.898 1195.34 248.898 Q1191.91 248.898 1189.99 251.444 Q1188.09 253.991 1188.09 258.62 Q1188.09 263.227 1189.99 265.773 Q1191.91 268.319 1195.34 268.319 Q1198.79 268.319 1200.68 265.773 Q1202.6 263.227 1202.6 258.62 M1206.86 268.667 Q1206.86 275.287 1203.92 278.504 Q1200.98 281.745 1194.92 281.745 Q1192.67 281.745 1190.68 281.398 Q1188.69 281.074 1186.82 280.379 L1186.82 276.236 Q1188.69 277.254 1190.52 277.741 Q1192.35 278.227 1194.25 278.227 Q1198.44 278.227 1200.52 276.028 Q1202.6 273.852 1202.6 269.43 L1202.6 267.324 Q1201.29 269.616 1199.22 270.75 Q1197.16 271.884 1194.29 271.884 Q1189.53 271.884 1186.61 268.25 Q1183.69 264.616 1183.69 258.62 Q1183.69 252.602 1186.61 248.968 Q1189.53 245.333 1194.29 245.333 Q1197.16 245.333 1199.22 246.468 Q1201.29 247.602 1202.6 249.893 L1202.6 245.958 L1206.86 245.958 L1206.86 268.667 Z" fill="#000000" fill-rule="evenodd" fill-opacity="1" /><path clip-path="url(#clip290)" d="M1231.03 236.699 L1233.62 250.125 L1246.56 245.657 L1236.22 254.616 L1246.56 263.574 L1233.62 259.106 L1231.03 272.555 L1228.44 259.106 L1215.5 263.574 L1225.85 254.616 L1215.5 245.657 L1228.44 250.125 L1231.03 236.699 Z" fill="#000000" fill-rule="evenodd" fill-opacity="1" /><path clip-path="url(#clip290)" d="M1275.54 250.935 Q1277.14 248.065 1279.36 246.699 Q1281.59 245.333 1284.59 245.333 Q1288.65 245.333 1290.84 248.181 Q1293.04 251.005 1293.04 256.236 L1293.04 271.884 L1288.76 271.884 L1288.76 256.375 Q1288.76 252.648 1287.44 250.843 Q1286.12 249.037 1283.41 249.037 Q1280.1 249.037 1278.18 251.236 Q1276.26 253.435 1276.26 257.231 L1276.26 271.884 L1271.98 271.884 L1271.98 256.375 Q1271.98 252.625 1270.66 250.843 Q1269.34 249.037 1266.59 249.037 Q1263.32 249.037 1261.4 251.259 Q1259.48 253.458 1259.48 257.231 L1259.48 271.884 L1255.2 271.884 L1255.2 245.958 L1259.48 245.958 L1259.48 249.986 Q1260.94 247.602 1262.97 246.468 Q1265.01 245.333 1267.81 245.333 Q1270.64 245.333 1272.6 246.768 Q1274.59 248.204 1275.54 250.935 Z" fill="#000000" fill-rule="evenodd" fill-opacity="1" /><path clip-path="url(#clip290)" d="M1313.32 258.852 Q1308.16 258.852 1306.17 260.032 Q1304.18 261.213 1304.18 264.06 Q1304.18 266.329 1305.66 267.671 Q1307.16 268.991 1309.73 268.991 Q1313.28 268.991 1315.4 266.491 Q1317.56 263.967 1317.56 259.801 L1317.56 258.852 L1313.32 258.852 M1321.82 257.093 L1321.82 271.884 L1317.56 271.884 L1317.56 267.949 Q1316.1 270.31 1313.92 271.444 Q1311.75 272.555 1308.6 272.555 Q1304.62 272.555 1302.26 270.333 Q1299.92 268.088 1299.92 264.338 Q1299.92 259.963 1302.84 257.741 Q1305.78 255.518 1311.59 255.518 L1317.56 255.518 L1317.56 255.102 Q1317.56 252.162 1315.61 250.565 Q1313.69 248.944 1310.2 248.944 Q1307.97 248.944 1305.87 249.477 Q1303.76 250.009 1301.82 251.074 L1301.82 247.139 Q1304.15 246.236 1306.35 245.796 Q1308.55 245.333 1310.64 245.333 Q1316.26 245.333 1319.04 248.25 Q1321.82 251.167 1321.82 257.093 Z" fill="#000000" fill-rule="evenodd" fill-opacity="1" /><path clip-path="url(#clip290)" d="M1352.14 245.958 L1342.77 258.574 L1352.63 271.884 L1347.6 271.884 L1340.06 261.699 L1332.51 271.884 L1327.49 271.884 L1337.56 258.319 L1328.34 245.958 L1333.37 245.958 L1340.24 255.194 L1347.12 245.958 L1352.14 245.958 Z" fill="#000000" fill-rule="evenodd" fill-opacity="1" /><path clip-path="url(#clip290)" d="M1358.25 235.866 L1368.07 235.866 L1368.07 239.176 L1362.51 239.176 L1362.51 274.824 L1368.07 274.824 L1368.07 278.134 L1358.25 278.134 L1358.25 235.866 Z" fill="#000000" fill-rule="evenodd" fill-opacity="1" /><path clip-path="url(#clip290)" d="M1399.32 257.856 L1399.32 259.94 L1379.73 259.94 Q1380.01 264.338 1382.37 266.653 Q1384.76 268.944 1388.99 268.944 Q1391.45 268.944 1393.74 268.342 Q1396.05 267.741 1398.32 266.537 L1398.32 270.565 Q1396.03 271.537 1393.62 272.046 Q1391.21 272.555 1388.74 272.555 Q1382.53 272.555 1378.9 268.944 Q1375.29 265.333 1375.29 259.176 Q1375.29 252.81 1378.71 249.083 Q1382.16 245.333 1388 245.333 Q1393.23 245.333 1396.26 248.713 Q1399.32 252.069 1399.32 257.856 M1395.06 256.606 Q1395.01 253.111 1393.09 251.028 Q1391.19 248.944 1388.04 248.944 Q1384.48 248.944 1382.33 250.958 Q1380.2 252.972 1379.87 256.63 L1395.06 256.606 Z" fill="#000000" fill-rule="evenodd" fill-opacity="1" /><path clip-path="url(#clip290)" d="M1427.02 245.958 L1417.65 258.574 L1427.51 271.884 L1422.49 271.884 L1414.94 261.699 L1407.4 271.884 L1402.37 271.884 L1412.44 258.319 L1403.23 245.958 L1408.25 245.958 L1415.13 255.194 L1422 245.958 L1427.02 245.958 Z" fill="#000000" fill-rule="evenodd" fill-opacity="1" /><path clip-path="url(#clip290)" d="M1437.74 238.597 L1437.74 245.958 L1446.52 245.958 L1446.52 249.268 L1437.74 249.268 L1437.74 263.342 Q1437.74 266.514 1438.6 267.417 Q1439.48 268.319 1442.14 268.319 L1446.52 268.319 L1446.52 271.884 L1442.14 271.884 Q1437.21 271.884 1435.33 270.055 Q1433.46 268.204 1433.46 263.342 L1433.46 249.268 L1430.33 249.268 L1430.33 245.958 L1433.46 245.958 L1433.46 238.597 L1437.74 238.597 Z" fill="#000000" fill-rule="evenodd" fill-opacity="1" /><path clip-path="url(#clip290)" d="M1467.14 249.94 Q1466.42 249.523 1465.57 249.338 Q1464.73 249.13 1463.71 249.13 Q1460.1 249.13 1458.16 251.491 Q1456.24 253.829 1456.24 258.227 L1456.24 271.884 L1451.95 271.884 L1451.95 245.958 L1456.24 245.958 L1456.24 249.986 Q1457.58 247.625 1459.73 246.491 Q1461.89 245.333 1464.96 245.333 Q1465.4 245.333 1465.94 245.403 Q1466.47 245.449 1467.12 245.565 L1467.14 249.94 Z" fill="#000000" fill-rule="evenodd" fill-opacity="1" /><path clip-path="url(#clip290)" d="M1492.74 257.856 L1492.74 259.94 L1473.16 259.94 Q1473.44 264.338 1475.8 266.653 Q1478.18 268.944 1482.42 268.944 Q1484.87 268.944 1487.16 268.342 Q1489.48 267.741 1491.75 266.537 L1491.75 270.565 Q1489.45 271.537 1487.05 272.046 Q1484.64 272.555 1482.16 272.555 Q1475.96 272.555 1472.33 268.944 Q1468.71 265.333 1468.71 259.176 Q1468.71 252.81 1472.14 249.083 Q1475.59 245.333 1481.42 245.333 Q1486.65 245.333 1489.69 248.713 Q1492.74 252.069 1492.74 257.856 M1488.48 256.606 Q1488.44 253.111 1486.51 251.028 Q1484.62 248.944 1481.47 248.944 Q1477.9 248.944 1475.75 250.958 Q1473.62 252.972 1473.3 256.63 L1488.48 256.606 Z" fill="#000000" fill-rule="evenodd" fill-opacity="1" /><path clip-path="url(#clip290)" d="M1519.92 250.935 Q1521.51 248.065 1523.74 246.699 Q1525.96 245.333 1528.97 245.333 Q1533.02 245.333 1535.22 248.181 Q1537.42 251.005 1537.42 256.236 L1537.42 271.884 L1533.14 271.884 L1533.14 256.375 Q1533.14 252.648 1531.82 250.843 Q1530.5 249.037 1527.79 249.037 Q1524.48 249.037 1522.56 251.236 Q1520.64 253.435 1520.64 257.231 L1520.64 271.884 L1516.35 271.884 L1516.35 256.375 Q1516.35 252.625 1515.03 250.843 Q1513.71 249.037 1510.96 249.037 Q1507.7 249.037 1505.77 251.259 Q1503.85 253.458 1503.85 257.231 L1503.85 271.884 L1499.57 271.884 L1499.57 245.958 L1503.85 245.958 L1503.85 249.986 Q1505.31 247.602 1507.35 246.468 Q1509.39 245.333 1512.19 245.333 Q1515.01 245.333 1516.98 246.768 Q1518.97 248.204 1519.92 250.935 Z" fill="#000000" fill-rule="evenodd" fill-opacity="1" /><path clip-path="url(#clip290)" d="M1557.7 258.852 Q1552.53 258.852 1550.54 260.032 Q1548.55 261.213 1548.55 264.06 Q1548.55 266.329 1550.03 267.671 Q1551.54 268.991 1554.11 268.991 Q1557.65 268.991 1559.78 266.491 Q1561.93 263.967 1561.93 259.801 L1561.93 258.852 L1557.7 258.852 M1566.19 257.093 L1566.19 271.884 L1561.93 271.884 L1561.93 267.949 Q1560.47 270.31 1558.3 271.444 Q1556.12 272.555 1552.97 272.555 Q1548.99 272.555 1546.63 270.333 Q1544.29 268.088 1544.29 264.338 Q1544.29 259.963 1547.21 257.741 Q1550.15 255.518 1555.96 255.518 L1561.93 255.518 L1561.93 255.102 Q1561.93 252.162 1559.99 250.565 Q1558.07 248.944 1554.57 248.944 Q1552.35 248.944 1550.24 249.477 Q1548.14 250.009 1546.19 251.074 L1546.19 247.139 Q1548.53 246.236 1550.73 245.796 Q1552.93 245.333 1555.01 245.333 Q1560.63 245.333 1563.41 248.25 Q1566.19 251.167 1566.19 257.093 Z" fill="#000000" fill-rule="evenodd" fill-opacity="1" /><path clip-path="url(#clip290)" d="M1584.92 235.866 L1584.92 278.134 L1575.1 278.134 L1575.1 274.824 L1580.63 274.824 L1580.63 239.176 L1575.1 239.176 L1575.1 235.866 L1584.92 235.866 Z" fill="#000000" fill-rule="evenodd" fill-opacity="1" /></svg>
