<?xml version="1.0" encoding="utf-8"?>
<svg xmlns="http://www.w3.org/2000/svg" xmlns:xlink="http://www.w3.org/1999/xlink" width="600" height="400" viewBox="0 0 2400 1600">
<defs>
  <clipPath id="clip470">
    <rect x="0" y="0" width="2400" height="1600"/>
  </clipPath>
</defs>
<path clip-path="url(#clip470)" d="
M0 1600 L2400 1600 L2400 0 L0 0  Z
  " fill="#ffffff" fill-rule="evenodd" fill-opacity="0"/>
<defs>
  <clipPath id="clip471">
    <rect x="480" y="0" width="1681" height="1600"/>
  </clipPath>
</defs>
<path clip-path="url(#clip470)" d="
M280.19 1423.18 L2352.76 1423.18 L2352.76 47.2441 L280.19 47.2441  Z
  " fill="#ffffff" fill-rule="evenodd" fill-opacity="0"/>
<defs>
  <clipPath id="clip472">
    <rect x="280" y="47" width="2074" height="1377"/>
  </clipPath>
</defs>
<polyline clip-path="url(#clip472)" style="stroke:#000000; stroke-linecap:round; stroke-linejoin:round; stroke-width:2; stroke-opacity:0.1; fill:none" points="
  338.848,1423.18 338.848,47.2441 
  "/>
<polyline clip-path="url(#clip472)" style="stroke:#000000; stroke-linecap:round; stroke-linejoin:round; stroke-width:2; stroke-opacity:0.1; fill:none" points="
  848.027,1423.18 848.027,47.2441 
  "/>
<polyline clip-path="url(#clip472)" style="stroke:#000000; stroke-linecap:round; stroke-linejoin:round; stroke-width:2; stroke-opacity:0.1; fill:none" points="
  1357.21,1423.18 1357.21,47.2441 
  "/>
<polyline clip-path="url(#clip472)" style="stroke:#000000; stroke-linecap:round; stroke-linejoin:round; stroke-width:2; stroke-opacity:0.1; fill:none" points="
  1866.39,1423.18 1866.39,47.2441 
  "/>
<polyline clip-path="url(#clip470)" style="stroke:#000000; stroke-linecap:round; stroke-linejoin:round; stroke-width:4; stroke-opacity:1; fill:none" points="
  280.19,1423.18 2352.76,1423.18 
  "/>
<polyline clip-path="url(#clip470)" style="stroke:#000000; stroke-linecap:round; stroke-linejoin:round; stroke-width:4; stroke-opacity:1; fill:none" points="
  338.848,1423.18 338.848,1404.28 
  "/>
<polyline clip-path="url(#clip470)" style="stroke:#000000; stroke-linecap:round; stroke-linejoin:round; stroke-width:4; stroke-opacity:1; fill:none" points="
  848.027,1423.18 848.027,1404.28 
  "/>
<polyline clip-path="url(#clip470)" style="stroke:#000000; stroke-linecap:round; stroke-linejoin:round; stroke-width:4; stroke-opacity:1; fill:none" points="
  1357.21,1423.18 1357.21,1404.28 
  "/>
<polyline clip-path="url(#clip470)" style="stroke:#000000; stroke-linecap:round; stroke-linejoin:round; stroke-width:4; stroke-opacity:1; fill:none" points="
  1866.39,1423.18 1866.39,1404.28 
  "/>
<path clip-path="url(#clip470)" d="M338.848 1454.1 Q335.236 1454.1 333.408 1457.66 Q331.602 1461.2 331.602 1468.33 Q331.602 1475.44 333.408 1479.01 Q335.236 1482.55 338.848 1482.55 Q342.482 1482.55 344.287 1479.01 Q346.116 1475.44 346.116 1468.33 Q346.116 1461.2 344.287 1457.66 Q342.482 1454.1 338.848 1454.1 M338.848 1450.39 Q344.658 1450.39 347.713 1455 Q350.792 1459.58 350.792 1468.33 Q350.792 1477.06 347.713 1481.67 Q344.658 1486.25 338.848 1486.25 Q333.037 1486.25 329.959 1481.67 Q326.903 1477.06 326.903 1468.33 Q326.903 1459.58 329.959 1455 Q333.037 1450.39 338.848 1450.39 Z" fill="#000000" fill-rule="evenodd" fill-opacity="1" /><path clip-path="url(#clip470)" d="M842.68 1481.64 L859 1481.64 L859 1485.58 L837.055 1485.58 L837.055 1481.64 Q839.717 1478.89 844.301 1474.26 Q848.907 1469.61 850.088 1468.27 Q852.333 1465.74 853.213 1464.01 Q854.115 1462.25 854.115 1460.56 Q854.115 1457.8 852.171 1456.07 Q850.25 1454.33 847.148 1454.33 Q844.949 1454.33 842.495 1455.09 Q840.065 1455.86 837.287 1457.41 L837.287 1452.69 Q840.111 1451.55 842.565 1450.97 Q845.018 1450.39 847.055 1450.39 Q852.426 1450.39 855.62 1453.08 Q858.814 1455.77 858.814 1460.26 Q858.814 1462.39 858.004 1464.31 Q857.217 1466.2 855.111 1468.8 Q854.532 1469.47 851.43 1472.69 Q848.328 1475.88 842.68 1481.64 Z" fill="#000000" fill-rule="evenodd" fill-opacity="1" /><path clip-path="url(#clip470)" d="M1360.22 1455.09 L1348.41 1473.54 L1360.22 1473.54 L1360.22 1455.09 M1358.99 1451.02 L1364.87 1451.02 L1364.87 1473.54 L1369.8 1473.54 L1369.8 1477.43 L1364.87 1477.43 L1364.87 1485.58 L1360.22 1485.58 L1360.22 1477.43 L1344.61 1477.43 L1344.61 1472.92 L1358.99 1451.02 Z" fill="#000000" fill-rule="evenodd" fill-opacity="1" /><path clip-path="url(#clip470)" d="M1866.79 1466.44 Q1863.64 1466.44 1861.79 1468.59 Q1859.96 1470.74 1859.96 1474.49 Q1859.96 1478.22 1861.79 1480.39 Q1863.64 1482.55 1866.79 1482.55 Q1869.94 1482.55 1871.77 1480.39 Q1873.62 1478.22 1873.62 1474.49 Q1873.62 1470.74 1871.77 1468.59 Q1869.94 1466.44 1866.79 1466.44 M1876.07 1451.78 L1876.07 1456.04 Q1874.32 1455.21 1872.51 1454.77 Q1870.73 1454.33 1868.97 1454.33 Q1864.34 1454.33 1861.88 1457.45 Q1859.45 1460.58 1859.11 1466.9 Q1860.47 1464.89 1862.53 1463.82 Q1864.59 1462.73 1867.07 1462.73 Q1872.28 1462.73 1875.29 1465.9 Q1878.32 1469.05 1878.32 1474.49 Q1878.32 1479.82 1875.17 1483.03 Q1872.02 1486.25 1866.79 1486.25 Q1860.8 1486.25 1857.63 1481.67 Q1854.45 1477.06 1854.45 1468.33 Q1854.45 1460.14 1858.34 1455.28 Q1862.23 1450.39 1868.78 1450.39 Q1870.54 1450.39 1872.32 1450.74 Q1874.13 1451.09 1876.07 1451.78 Z" fill="#000000" fill-rule="evenodd" fill-opacity="1" /><path clip-path="url(#clip470)" d="M1301.16 1520.52 L1331.21 1520.52 L1331.21 1525.93 L1307.59 1525.93 L1307.59 1540 L1330.22 1540 L1330.22 1545.41 L1307.59 1545.41 L1307.59 1562.63 L1331.78 1562.63 L1331.78 1568.04 L1301.16 1568.04 L1301.16 1520.52 Z" fill="#000000" fill-rule="evenodd" fill-opacity="1" /><polyline clip-path="url(#clip472)" style="stroke:#000000; stroke-linecap:round; stroke-linejoin:round; stroke-width:2; stroke-opacity:0.1; fill:none" points="
  280.19,1384.24 2352.76,1384.24 
  "/>
<polyline clip-path="url(#clip472)" style="stroke:#000000; stroke-linecap:round; stroke-linejoin:round; stroke-width:2; stroke-opacity:0.1; fill:none" points="
  280.19,1192.57 2352.76,1192.57 
  "/>
<polyline clip-path="url(#clip472)" style="stroke:#000000; stroke-linecap:round; stroke-linejoin:round; stroke-width:2; stroke-opacity:0.1; fill:none" points="
  280.19,1000.9 2352.76,1000.9 
  "/>
<polyline clip-path="url(#clip472)" style="stroke:#000000; stroke-linecap:round; stroke-linejoin:round; stroke-width:2; stroke-opacity:0.1; fill:none" points="
  280.19,809.226 2352.76,809.226 
  "/>
<polyline clip-path="url(#clip472)" style="stroke:#000000; stroke-linecap:round; stroke-linejoin:round; stroke-width:2; stroke-opacity:0.1; fill:none" points="
  280.19,617.555 2352.76,617.555 
  "/>
<polyline clip-path="url(#clip472)" style="stroke:#000000; stroke-linecap:round; stroke-linejoin:round; stroke-width:2; stroke-opacity:0.1; fill:none" points="
  280.19,425.884 2352.76,425.884 
  "/>
<polyline clip-path="url(#clip472)" style="stroke:#000000; stroke-linecap:round; stroke-linejoin:round; stroke-width:2; stroke-opacity:0.1; fill:none" points="
  280.19,234.213 2352.76,234.213 
  "/>
<polyline clip-path="url(#clip470)" style="stroke:#000000; stroke-linecap:round; stroke-linejoin:round; stroke-width:4; stroke-opacity:1; fill:none" points="
  280.19,1423.18 280.19,47.2441 
  "/>
<polyline clip-path="url(#clip470)" style="stroke:#000000; stroke-linecap:round; stroke-linejoin:round; stroke-width:4; stroke-opacity:1; fill:none" points="
  280.19,1384.24 299.088,1384.24 
  "/>
<polyline clip-path="url(#clip470)" style="stroke:#000000; stroke-linecap:round; stroke-linejoin:round; stroke-width:4; stroke-opacity:1; fill:none" points="
  280.19,1192.57 299.088,1192.57 
  "/>
<polyline clip-path="url(#clip470)" style="stroke:#000000; stroke-linecap:round; stroke-linejoin:round; stroke-width:4; stroke-opacity:1; fill:none" points="
  280.19,1000.9 299.088,1000.9 
  "/>
<polyline clip-path="url(#clip470)" style="stroke:#000000; stroke-linecap:round; stroke-linejoin:round; stroke-width:4; stroke-opacity:1; fill:none" points="
  280.19,809.226 299.088,809.226 
  "/>
<polyline clip-path="url(#clip470)" style="stroke:#000000; stroke-linecap:round; stroke-linejoin:round; stroke-width:4; stroke-opacity:1; fill:none" points="
  280.19,617.555 299.088,617.555 
  "/>
<polyline clip-path="url(#clip470)" style="stroke:#000000; stroke-linecap:round; stroke-linejoin:round; stroke-width:4; stroke-opacity:1; fill:none" points="
  280.19,425.884 299.088,425.884 
  "/>
<polyline clip-path="url(#clip470)" style="stroke:#000000; stroke-linecap:round; stroke-linejoin:round; stroke-width:4; stroke-opacity:1; fill:none" points="
  280.19,234.213 299.088,234.213 
  "/>
<path clip-path="url(#clip470)" d="M126.691 1370.04 Q123.08 1370.04 121.251 1373.6 Q119.445 1377.14 119.445 1384.27 Q119.445 1391.38 121.251 1394.94 Q123.08 1398.49 126.691 1398.49 Q130.325 1398.49 132.13 1394.94 Q133.959 1391.38 133.959 1384.27 Q133.959 1377.14 132.13 1373.6 Q130.325 1370.04 126.691 1370.04 M126.691 1366.33 Q132.501 1366.33 135.556 1370.94 Q138.635 1375.52 138.635 1384.27 Q138.635 1393 135.556 1397.61 Q132.501 1402.19 126.691 1402.19 Q120.88 1402.19 117.802 1397.61 Q114.746 1393 114.746 1384.27 Q114.746 1375.52 117.802 1370.94 Q120.88 1366.33 126.691 1366.33 Z" fill="#000000" fill-rule="evenodd" fill-opacity="1" /><path clip-path="url(#clip470)" d="M146.853 1395.64 L151.737 1395.64 L151.737 1401.52 L146.853 1401.52 L146.853 1395.64 Z" fill="#000000" fill-rule="evenodd" fill-opacity="1" /><path clip-path="url(#clip470)" d="M171.922 1370.04 Q168.311 1370.04 166.482 1373.6 Q164.677 1377.14 164.677 1384.27 Q164.677 1391.38 166.482 1394.94 Q168.311 1398.49 171.922 1398.49 Q175.556 1398.49 177.362 1394.94 Q179.19 1391.38 179.19 1384.27 Q179.19 1377.14 177.362 1373.6 Q175.556 1370.04 171.922 1370.04 M171.922 1366.33 Q177.732 1366.33 180.788 1370.94 Q183.866 1375.52 183.866 1384.27 Q183.866 1393 180.788 1397.61 Q177.732 1402.19 171.922 1402.19 Q166.112 1402.19 163.033 1397.61 Q159.978 1393 159.978 1384.27 Q159.978 1375.52 163.033 1370.94 Q166.112 1366.33 171.922 1366.33 Z" fill="#000000" fill-rule="evenodd" fill-opacity="1" /><path clip-path="url(#clip470)" d="M202.084 1370.04 Q198.473 1370.04 196.644 1373.6 Q194.838 1377.14 194.838 1384.27 Q194.838 1391.38 196.644 1394.94 Q198.473 1398.49 202.084 1398.49 Q205.718 1398.49 207.524 1394.94 Q209.352 1391.38 209.352 1384.27 Q209.352 1377.14 207.524 1373.6 Q205.718 1370.04 202.084 1370.04 M202.084 1366.33 Q207.894 1366.33 210.949 1370.94 Q214.028 1375.52 214.028 1384.27 Q214.028 1393 210.949 1397.61 Q207.894 1402.19 202.084 1402.19 Q196.274 1402.19 193.195 1397.61 Q190.139 1393 190.139 1384.27 Q190.139 1375.52 193.195 1370.94 Q196.274 1366.33 202.084 1366.33 Z" fill="#000000" fill-rule="evenodd" fill-opacity="1" /><path clip-path="url(#clip470)" d="M232.246 1370.04 Q228.635 1370.04 226.806 1373.6 Q225 1377.14 225 1384.27 Q225 1391.38 226.806 1394.94 Q228.635 1398.49 232.246 1398.49 Q235.88 1398.49 237.685 1394.94 Q239.514 1391.38 239.514 1384.27 Q239.514 1377.14 237.685 1373.6 Q235.88 1370.04 232.246 1370.04 M232.246 1366.33 Q238.056 1366.33 241.111 1370.94 Q244.19 1375.52 244.19 1384.27 Q244.19 1393 241.111 1397.61 Q238.056 1402.19 232.246 1402.19 Q226.435 1402.19 223.357 1397.61 Q220.301 1393 220.301 1384.27 Q220.301 1375.52 223.357 1370.94 Q226.435 1366.33 232.246 1366.33 Z" fill="#000000" fill-rule="evenodd" fill-opacity="1" /><path clip-path="url(#clip470)" d="M128.288 1178.37 Q124.677 1178.37 122.848 1181.93 Q121.043 1185.47 121.043 1192.6 Q121.043 1199.71 122.848 1203.27 Q124.677 1206.82 128.288 1206.82 Q131.922 1206.82 133.728 1203.27 Q135.556 1199.71 135.556 1192.6 Q135.556 1185.47 133.728 1181.93 Q131.922 1178.37 128.288 1178.37 M128.288 1174.66 Q134.098 1174.66 137.154 1179.27 Q140.232 1183.85 140.232 1192.6 Q140.232 1201.33 137.154 1205.94 Q134.098 1210.52 128.288 1210.52 Q122.478 1210.52 119.399 1205.94 Q116.343 1201.33 116.343 1192.6 Q116.343 1183.85 119.399 1179.27 Q122.478 1174.66 128.288 1174.66 Z" fill="#000000" fill-rule="evenodd" fill-opacity="1" /><path clip-path="url(#clip470)" d="M148.45 1203.97 L153.334 1203.97 L153.334 1209.85 L148.45 1209.85 L148.45 1203.97 Z" fill="#000000" fill-rule="evenodd" fill-opacity="1" /><path clip-path="url(#clip470)" d="M173.519 1178.37 Q169.908 1178.37 168.079 1181.93 Q166.274 1185.47 166.274 1192.6 Q166.274 1199.71 168.079 1203.27 Q169.908 1206.82 173.519 1206.82 Q177.153 1206.82 178.959 1203.27 Q180.788 1199.71 180.788 1192.6 Q180.788 1185.47 178.959 1181.93 Q177.153 1178.37 173.519 1178.37 M173.519 1174.66 Q179.329 1174.66 182.385 1179.27 Q185.463 1183.85 185.463 1192.6 Q185.463 1201.33 182.385 1205.94 Q179.329 1210.52 173.519 1210.52 Q167.709 1210.52 164.63 1205.94 Q161.575 1201.33 161.575 1192.6 Q161.575 1183.85 164.63 1179.27 Q167.709 1174.66 173.519 1174.66 Z" fill="#000000" fill-rule="evenodd" fill-opacity="1" /><path clip-path="url(#clip470)" d="M203.681 1178.37 Q200.07 1178.37 198.241 1181.93 Q196.436 1185.47 196.436 1192.6 Q196.436 1199.71 198.241 1203.27 Q200.07 1206.82 203.681 1206.82 Q207.315 1206.82 209.121 1203.27 Q210.949 1199.71 210.949 1192.6 Q210.949 1185.47 209.121 1181.93 Q207.315 1178.37 203.681 1178.37 M203.681 1174.66 Q209.491 1174.66 212.547 1179.27 Q215.625 1183.85 215.625 1192.6 Q215.625 1201.33 212.547 1205.94 Q209.491 1210.52 203.681 1210.52 Q197.871 1210.52 194.792 1205.94 Q191.737 1201.33 191.737 1192.6 Q191.737 1183.85 194.792 1179.27 Q197.871 1174.66 203.681 1174.66 Z" fill="#000000" fill-rule="evenodd" fill-opacity="1" /><path clip-path="url(#clip470)" d="M227.871 1205.91 L244.19 1205.91 L244.19 1209.85 L222.246 1209.85 L222.246 1205.91 Q224.908 1203.16 229.491 1198.53 Q234.097 1193.88 235.278 1192.53 Q237.523 1190.01 238.403 1188.27 Q239.306 1186.51 239.306 1184.82 Q239.306 1182.07 237.361 1180.33 Q235.44 1178.6 232.338 1178.6 Q230.139 1178.6 227.685 1179.36 Q225.255 1180.13 222.477 1181.68 L222.477 1176.95 Q225.301 1175.82 227.755 1175.24 Q230.209 1174.66 232.246 1174.66 Q237.616 1174.66 240.81 1177.35 Q244.005 1180.03 244.005 1184.52 Q244.005 1186.65 243.195 1188.57 Q242.408 1190.47 240.301 1193.07 Q239.722 1193.74 236.621 1196.95 Q233.519 1200.15 227.871 1205.91 Z" fill="#000000" fill-rule="evenodd" fill-opacity="1" /><path clip-path="url(#clip470)" d="M126.205 986.695 Q122.593 986.695 120.765 990.26 Q118.959 993.802 118.959 1000.93 Q118.959 1008.04 120.765 1011.6 Q122.593 1015.14 126.205 1015.14 Q129.839 1015.14 131.644 1011.6 Q133.473 1008.04 133.473 1000.93 Q133.473 993.802 131.644 990.26 Q129.839 986.695 126.205 986.695 M126.205 982.992 Q132.015 982.992 135.07 987.598 Q138.149 992.181 138.149 1000.93 Q138.149 1009.66 135.07 1014.26 Q132.015 1018.85 126.205 1018.85 Q120.394 1018.85 117.316 1014.26 Q114.26 1009.66 114.26 1000.93 Q114.26 992.181 117.316 987.598 Q120.394 982.992 126.205 982.992 Z" fill="#000000" fill-rule="evenodd" fill-opacity="1" /><path clip-path="url(#clip470)" d="M146.366 1012.3 L151.251 1012.3 L151.251 1018.18 L146.366 1018.18 L146.366 1012.3 Z" fill="#000000" fill-rule="evenodd" fill-opacity="1" /><path clip-path="url(#clip470)" d="M171.436 986.695 Q167.825 986.695 165.996 990.26 Q164.19 993.802 164.19 1000.93 Q164.19 1008.04 165.996 1011.6 Q167.825 1015.14 171.436 1015.14 Q175.07 1015.14 176.876 1011.6 Q178.704 1008.04 178.704 1000.93 Q178.704 993.802 176.876 990.26 Q175.07 986.695 171.436 986.695 M171.436 982.992 Q177.246 982.992 180.301 987.598 Q183.38 992.181 183.38 1000.93 Q183.38 1009.66 180.301 1014.26 Q177.246 1018.85 171.436 1018.85 Q165.626 1018.85 162.547 1014.26 Q159.491 1009.66 159.491 1000.93 Q159.491 992.181 162.547 987.598 Q165.626 982.992 171.436 982.992 Z" fill="#000000" fill-rule="evenodd" fill-opacity="1" /><path clip-path="url(#clip470)" d="M201.598 986.695 Q197.987 986.695 196.158 990.26 Q194.352 993.802 194.352 1000.93 Q194.352 1008.04 196.158 1011.6 Q197.987 1015.14 201.598 1015.14 Q205.232 1015.14 207.037 1011.6 Q208.866 1008.04 208.866 1000.93 Q208.866 993.802 207.037 990.26 Q205.232 986.695 201.598 986.695 M201.598 982.992 Q207.408 982.992 210.463 987.598 Q213.542 992.181 213.542 1000.93 Q213.542 1009.66 210.463 1014.26 Q207.408 1018.85 201.598 1018.85 Q195.787 1018.85 192.709 1014.26 Q189.653 1009.66 189.653 1000.93 Q189.653 992.181 192.709 987.598 Q195.787 982.992 201.598 982.992 Z" fill="#000000" fill-rule="evenodd" fill-opacity="1" /><path clip-path="url(#clip470)" d="M234.607 987.691 L222.801 1006.14 L234.607 1006.14 L234.607 987.691 M233.38 983.617 L239.259 983.617 L239.259 1006.14 L244.19 1006.14 L244.19 1010.03 L239.259 1010.03 L239.259 1018.18 L234.607 1018.18 L234.607 1010.03 L219.005 1010.03 L219.005 1005.51 L233.38 983.617 Z" fill="#000000" fill-rule="evenodd" fill-opacity="1" /><path clip-path="url(#clip470)" d="M126.529 795.024 Q122.918 795.024 121.089 798.589 Q119.283 802.131 119.283 809.261 Q119.283 816.367 121.089 819.932 Q122.918 823.473 126.529 823.473 Q130.163 823.473 131.968 819.932 Q133.797 816.367 133.797 809.261 Q133.797 802.131 131.968 798.589 Q130.163 795.024 126.529 795.024 M126.529 791.321 Q132.339 791.321 135.394 795.927 Q138.473 800.511 138.473 809.261 Q138.473 817.987 135.394 822.594 Q132.339 827.177 126.529 827.177 Q120.718 827.177 117.64 822.594 Q114.584 817.987 114.584 809.261 Q114.584 800.511 117.64 795.927 Q120.718 791.321 126.529 791.321 Z" fill="#000000" fill-rule="evenodd" fill-opacity="1" /><path clip-path="url(#clip470)" d="M146.691 820.626 L151.575 820.626 L151.575 826.506 L146.691 826.506 L146.691 820.626 Z" fill="#000000" fill-rule="evenodd" fill-opacity="1" /><path clip-path="url(#clip470)" d="M171.76 795.024 Q168.149 795.024 166.32 798.589 Q164.515 802.131 164.515 809.261 Q164.515 816.367 166.32 819.932 Q168.149 823.473 171.76 823.473 Q175.394 823.473 177.2 819.932 Q179.028 816.367 179.028 809.261 Q179.028 802.131 177.2 798.589 Q175.394 795.024 171.76 795.024 M171.76 791.321 Q177.57 791.321 180.626 795.927 Q183.704 800.511 183.704 809.261 Q183.704 817.987 180.626 822.594 Q177.57 827.177 171.76 827.177 Q165.95 827.177 162.871 822.594 Q159.815 817.987 159.815 809.261 Q159.815 800.511 162.871 795.927 Q165.95 791.321 171.76 791.321 Z" fill="#000000" fill-rule="evenodd" fill-opacity="1" /><path clip-path="url(#clip470)" d="M201.922 795.024 Q198.311 795.024 196.482 798.589 Q194.676 802.131 194.676 809.261 Q194.676 816.367 196.482 819.932 Q198.311 823.473 201.922 823.473 Q205.556 823.473 207.362 819.932 Q209.19 816.367 209.19 809.261 Q209.19 802.131 207.362 798.589 Q205.556 795.024 201.922 795.024 M201.922 791.321 Q207.732 791.321 210.787 795.927 Q213.866 800.511 213.866 809.261 Q213.866 817.987 210.787 822.594 Q207.732 827.177 201.922 827.177 Q196.112 827.177 193.033 822.594 Q189.977 817.987 189.977 809.261 Q189.977 800.511 193.033 795.927 Q196.112 791.321 201.922 791.321 Z" fill="#000000" fill-rule="evenodd" fill-opacity="1" /><path clip-path="url(#clip470)" d="M232.662 807.362 Q229.514 807.362 227.662 809.515 Q225.834 811.668 225.834 815.418 Q225.834 819.145 227.662 821.321 Q229.514 823.473 232.662 823.473 Q235.81 823.473 237.639 821.321 Q239.491 819.145 239.491 815.418 Q239.491 811.668 237.639 809.515 Q235.81 807.362 232.662 807.362 M241.945 792.71 L241.945 796.969 Q240.185 796.136 238.38 795.696 Q236.597 795.256 234.838 795.256 Q230.209 795.256 227.755 798.381 Q225.324 801.506 224.977 807.825 Q226.343 805.811 228.403 804.747 Q230.463 803.659 232.94 803.659 Q238.148 803.659 241.158 806.83 Q244.19 809.978 244.19 815.418 Q244.19 820.742 241.042 823.959 Q237.894 827.177 232.662 827.177 Q226.667 827.177 223.496 822.594 Q220.324 817.987 220.324 809.261 Q220.324 801.066 224.213 796.205 Q228.102 791.321 234.653 791.321 Q236.412 791.321 238.195 791.668 Q240 792.015 241.945 792.71 Z" fill="#000000" fill-rule="evenodd" fill-opacity="1" /><path clip-path="url(#clip470)" d="M126.783 603.354 Q123.172 603.354 121.343 606.918 Q119.538 610.46 119.538 617.59 Q119.538 624.696 121.343 628.261 Q123.172 631.803 126.783 631.803 Q130.417 631.803 132.223 628.261 Q134.052 624.696 134.052 617.59 Q134.052 610.46 132.223 606.918 Q130.417 603.354 126.783 603.354 M126.783 599.65 Q132.593 599.65 135.649 604.256 Q138.728 608.84 138.728 617.59 Q138.728 626.316 135.649 630.923 Q132.593 635.506 126.783 635.506 Q120.973 635.506 117.894 630.923 Q114.839 626.316 114.839 617.59 Q114.839 608.84 117.894 604.256 Q120.973 599.65 126.783 599.65 Z" fill="#000000" fill-rule="evenodd" fill-opacity="1" /><path clip-path="url(#clip470)" d="M146.945 628.955 L151.829 628.955 L151.829 634.835 L146.945 634.835 L146.945 628.955 Z" fill="#000000" fill-rule="evenodd" fill-opacity="1" /><path clip-path="url(#clip470)" d="M172.014 603.354 Q168.403 603.354 166.575 606.918 Q164.769 610.46 164.769 617.59 Q164.769 624.696 166.575 628.261 Q168.403 631.803 172.014 631.803 Q175.649 631.803 177.454 628.261 Q179.283 624.696 179.283 617.59 Q179.283 610.46 177.454 606.918 Q175.649 603.354 172.014 603.354 M172.014 599.65 Q177.825 599.65 180.88 604.256 Q183.959 608.84 183.959 617.59 Q183.959 626.316 180.88 630.923 Q177.825 635.506 172.014 635.506 Q166.204 635.506 163.126 630.923 Q160.07 626.316 160.07 617.59 Q160.07 608.84 163.126 604.256 Q166.204 599.65 172.014 599.65 Z" fill="#000000" fill-rule="evenodd" fill-opacity="1" /><path clip-path="url(#clip470)" d="M202.176 603.354 Q198.565 603.354 196.737 606.918 Q194.931 610.46 194.931 617.59 Q194.931 624.696 196.737 628.261 Q198.565 631.803 202.176 631.803 Q205.811 631.803 207.616 628.261 Q209.445 624.696 209.445 617.59 Q209.445 610.46 207.616 606.918 Q205.811 603.354 202.176 603.354 M202.176 599.65 Q207.987 599.65 211.042 604.256 Q214.121 608.84 214.121 617.59 Q214.121 626.316 211.042 630.923 Q207.987 635.506 202.176 635.506 Q196.366 635.506 193.288 630.923 Q190.232 626.316 190.232 617.59 Q190.232 608.84 193.288 604.256 Q196.366 599.65 202.176 599.65 Z" fill="#000000" fill-rule="evenodd" fill-opacity="1" /><path clip-path="url(#clip470)" d="M232.338 618.423 Q229.005 618.423 227.084 620.205 Q225.185 621.988 225.185 625.113 Q225.185 628.238 227.084 630.02 Q229.005 631.803 232.338 631.803 Q235.672 631.803 237.593 630.02 Q239.514 628.215 239.514 625.113 Q239.514 621.988 237.593 620.205 Q235.695 618.423 232.338 618.423 M227.662 616.432 Q224.653 615.692 222.963 613.631 Q221.297 611.571 221.297 608.608 Q221.297 604.465 224.236 602.057 Q227.199 599.65 232.338 599.65 Q237.5 599.65 240.44 602.057 Q243.38 604.465 243.38 608.608 Q243.38 611.571 241.69 613.631 Q240.023 615.692 237.037 616.432 Q240.417 617.219 242.292 619.511 Q244.19 621.803 244.19 625.113 Q244.19 630.136 241.111 632.821 Q238.056 635.506 232.338 635.506 Q226.621 635.506 223.542 632.821 Q220.486 630.136 220.486 625.113 Q220.486 621.803 222.385 619.511 Q224.283 617.219 227.662 616.432 M225.949 609.048 Q225.949 611.733 227.616 613.238 Q229.306 614.742 232.338 614.742 Q235.347 614.742 237.037 613.238 Q238.75 611.733 238.75 609.048 Q238.75 606.363 237.037 604.858 Q235.347 603.354 232.338 603.354 Q229.306 603.354 227.616 604.858 Q225.949 606.363 225.949 609.048 Z" fill="#000000" fill-rule="evenodd" fill-opacity="1" /><path clip-path="url(#clip470)" d="M126.691 411.683 Q123.08 411.683 121.251 415.248 Q119.445 418.789 119.445 425.919 Q119.445 433.025 121.251 436.59 Q123.08 440.132 126.691 440.132 Q130.325 440.132 132.13 436.59 Q133.959 433.025 133.959 425.919 Q133.959 418.789 132.13 415.248 Q130.325 411.683 126.691 411.683 M126.691 407.979 Q132.501 407.979 135.556 412.586 Q138.635 417.169 138.635 425.919 Q138.635 434.646 135.556 439.252 Q132.501 443.835 126.691 443.835 Q120.88 443.835 117.802 439.252 Q114.746 434.646 114.746 425.919 Q114.746 417.169 117.802 412.586 Q120.88 407.979 126.691 407.979 Z" fill="#000000" fill-rule="evenodd" fill-opacity="1" /><path clip-path="url(#clip470)" d="M146.853 437.285 L151.737 437.285 L151.737 443.164 L146.853 443.164 L146.853 437.285 Z" fill="#000000" fill-rule="evenodd" fill-opacity="1" /><path clip-path="url(#clip470)" d="M171.922 411.683 Q168.311 411.683 166.482 415.248 Q164.677 418.789 164.677 425.919 Q164.677 433.025 166.482 436.59 Q168.311 440.132 171.922 440.132 Q175.556 440.132 177.362 436.59 Q179.19 433.025 179.19 425.919 Q179.19 418.789 177.362 415.248 Q175.556 411.683 171.922 411.683 M171.922 407.979 Q177.732 407.979 180.788 412.586 Q183.866 417.169 183.866 425.919 Q183.866 434.646 180.788 439.252 Q177.732 443.835 171.922 443.835 Q166.112 443.835 163.033 439.252 Q159.978 434.646 159.978 425.919 Q159.978 417.169 163.033 412.586 Q166.112 407.979 171.922 407.979 Z" fill="#000000" fill-rule="evenodd" fill-opacity="1" /><path clip-path="url(#clip470)" d="M192.894 439.229 L200.533 439.229 L200.533 412.863 L192.223 414.53 L192.223 410.271 L200.487 408.604 L205.162 408.604 L205.162 439.229 L212.801 439.229 L212.801 443.164 L192.894 443.164 L192.894 439.229 Z" fill="#000000" fill-rule="evenodd" fill-opacity="1" /><path clip-path="url(#clip470)" d="M232.246 411.683 Q228.635 411.683 226.806 415.248 Q225 418.789 225 425.919 Q225 433.025 226.806 436.59 Q228.635 440.132 232.246 440.132 Q235.88 440.132 237.685 436.59 Q239.514 433.025 239.514 425.919 Q239.514 418.789 237.685 415.248 Q235.88 411.683 232.246 411.683 M232.246 407.979 Q238.056 407.979 241.111 412.586 Q244.19 417.169 244.19 425.919 Q244.19 434.646 241.111 439.252 Q238.056 443.835 232.246 443.835 Q226.435 443.835 223.357 439.252 Q220.301 434.646 220.301 425.919 Q220.301 417.169 223.357 412.586 Q226.435 407.979 232.246 407.979 Z" fill="#000000" fill-rule="evenodd" fill-opacity="1" /><path clip-path="url(#clip470)" d="M128.288 220.012 Q124.677 220.012 122.848 223.577 Q121.043 227.118 121.043 234.248 Q121.043 241.354 122.848 244.919 Q124.677 248.461 128.288 248.461 Q131.922 248.461 133.728 244.919 Q135.556 241.354 135.556 234.248 Q135.556 227.118 133.728 223.577 Q131.922 220.012 128.288 220.012 M128.288 216.308 Q134.098 216.308 137.154 220.915 Q140.232 225.498 140.232 234.248 Q140.232 242.975 137.154 247.581 Q134.098 252.165 128.288 252.165 Q122.478 252.165 119.399 247.581 Q116.343 242.975 116.343 234.248 Q116.343 225.498 119.399 220.915 Q122.478 216.308 128.288 216.308 Z" fill="#000000" fill-rule="evenodd" fill-opacity="1" /><path clip-path="url(#clip470)" d="M148.45 245.614 L153.334 245.614 L153.334 251.493 L148.45 251.493 L148.45 245.614 Z" fill="#000000" fill-rule="evenodd" fill-opacity="1" /><path clip-path="url(#clip470)" d="M173.519 220.012 Q169.908 220.012 168.079 223.577 Q166.274 227.118 166.274 234.248 Q166.274 241.354 168.079 244.919 Q169.908 248.461 173.519 248.461 Q177.153 248.461 178.959 244.919 Q180.788 241.354 180.788 234.248 Q180.788 227.118 178.959 223.577 Q177.153 220.012 173.519 220.012 M173.519 216.308 Q179.329 216.308 182.385 220.915 Q185.463 225.498 185.463 234.248 Q185.463 242.975 182.385 247.581 Q179.329 252.165 173.519 252.165 Q167.709 252.165 164.63 247.581 Q161.575 242.975 161.575 234.248 Q161.575 225.498 164.63 220.915 Q167.709 216.308 173.519 216.308 Z" fill="#000000" fill-rule="evenodd" fill-opacity="1" /><path clip-path="url(#clip470)" d="M194.491 247.558 L202.13 247.558 L202.13 221.193 L193.82 222.859 L193.82 218.6 L202.084 216.933 L206.76 216.933 L206.76 247.558 L214.399 247.558 L214.399 251.493 L194.491 251.493 L194.491 247.558 Z" fill="#000000" fill-rule="evenodd" fill-opacity="1" /><path clip-path="url(#clip470)" d="M227.871 247.558 L244.19 247.558 L244.19 251.493 L222.246 251.493 L222.246 247.558 Q224.908 244.804 229.491 240.174 Q234.097 235.521 235.278 234.179 Q237.523 231.655 238.403 229.919 Q239.306 228.16 239.306 226.47 Q239.306 223.716 237.361 221.98 Q235.44 220.243 232.338 220.243 Q230.139 220.243 227.685 221.007 Q225.255 221.771 222.477 223.322 L222.477 218.6 Q225.301 217.466 227.755 216.887 Q230.209 216.308 232.246 216.308 Q237.616 216.308 240.81 218.993 Q244.005 221.679 244.005 226.169 Q244.005 228.299 243.195 230.22 Q242.408 232.118 240.301 234.711 Q239.722 235.382 236.621 238.6 Q233.519 241.794 227.871 247.558 Z" fill="#000000" fill-rule="evenodd" fill-opacity="1" /><path clip-path="url(#clip470)" d="M16.4842 748.866 L16.4842 721.558 L21.895 721.558 L21.895 742.437 L35.8996 742.437 L35.8996 723.595 L41.3104 723.595 L41.3104 742.437 L64.0042 742.437 L64.0042 748.866 L16.4842 748.866 Z" fill="#000000" fill-rule="evenodd" fill-opacity="1" /><polyline clip-path="url(#clip472)" style="stroke:#000000; stroke-linecap:round; stroke-linejoin:round; stroke-width:4; stroke-opacity:1; fill:none" points="
  338.848,1384.24 342.766,1384.24 346.684,1384.24 350.603,1384.24 354.521,1384.24 358.439,1384.24 362.358,1384.24 366.276,1384.24 370.194,1384.24 374.113,1384.24 
  378.031,1384.24 381.949,1384.24 385.868,1384.24 389.786,1384.24 393.704,1384.24 397.623,1384.24 401.541,1384.24 405.459,1384.24 409.378,1384.24 413.296,1384.24 
  417.214,1384.24 421.133,1384.24 425.051,1384.24 428.969,1384.24 432.888,1384.24 436.806,1384.24 440.724,1384.24 444.643,1384.24 448.561,1384.24 452.479,1384.24 
  456.398,1384.24 460.316,1384.24 464.234,1384.24 468.153,1384.24 472.071,1384.24 475.989,1384.24 479.908,1384.24 483.826,1384.24 487.744,1384.24 491.663,1384.24 
  495.581,1384.24 499.499,1384.24 503.418,1384.24 507.336,1384.24 511.254,1384.24 515.173,1384.24 519.091,1384.24 523.009,1384.24 526.928,1384.24 530.846,1384.24 
  534.764,1384.24 538.683,1384.24 542.601,1384.24 546.519,1384.24 550.438,1384.24 554.356,1384.24 558.274,1384.24 562.193,1384.24 566.111,1384.24 570.03,1384.24 
  573.948,1384.24 577.866,1384.24 581.785,1384.24 585.703,1384.24 589.621,1384.24 593.54,1384.24 597.458,1384.24 601.376,1384.24 605.295,1384.24 609.213,1384.24 
  613.131,1384.24 617.05,1384.24 620.968,1384.24 624.886,1384.24 628.805,1384.24 632.723,1384.24 636.641,1384.24 640.56,1384.24 644.478,1384.24 648.396,1384.24 
  652.315,1384.24 656.233,1384.24 660.151,1384.24 664.07,1384.24 667.988,1384.24 671.906,1384.24 675.825,1384.24 679.743,1384.24 683.661,1384.24 687.58,1384.24 
  691.498,1384.24 695.416,1384.24 699.335,1384.24 703.253,1384.24 707.171,1384.24 711.09,1384.24 715.008,1384.24 718.926,1384.24 722.845,1384.24 726.763,1384.24 
  730.681,1384.24 734.6,1384.24 738.518,1384.24 742.436,1384.24 746.355,1384.24 750.273,1384.24 754.191,1384.24 758.11,1384.24 762.028,1384.24 765.946,1384.24 
  769.865,1384.24 773.783,1384.24 777.701,1384.24 781.62,1384.24 785.538,1384.24 789.456,1384.24 793.375,1384.24 797.293,1384.24 801.211,1384.24 805.13,1384.24 
  809.048,1384.24 812.966,1384.24 816.885,1384.24 820.803,1384.24 824.721,1384.24 828.64,1384.24 832.558,1384.24 836.477,1384.24 840.395,1384.24 844.313,1384.24 
  848.232,1384.24 852.15,1384.24 856.068,1384.24 859.987,1384.24 863.905,1384.24 867.823,1384.24 871.742,1384.24 875.66,1384.24 879.578,1384.24 883.497,1384.24 
  887.415,1384.24 891.333,1384.24 895.252,1384.24 899.17,1384.24 903.088,1384.24 907.007,1384.24 910.925,1384.24 914.843,1384.24 918.762,1384.24 922.68,1384.24 
  926.598,1384.24 930.517,1384.24 934.435,1384.24 938.353,1384.24 942.272,1384.24 946.19,1384.24 950.108,1384.24 954.027,1384.24 957.945,1384.24 961.863,1384.24 
  965.782,1384.24 969.7,1384.24 973.618,1384.24 977.537,1384.24 981.455,1384.24 985.373,1384.24 989.292,1384.24 993.21,1384.24 997.128,1384.17 1001.05,1380.61 
  1004.97,1377.63 1008.88,1375.48 1012.8,1373.74 1016.72,1372.23 1020.64,1370.79 1024.56,1369.35 1028.48,1368.09 1032.39,1366.87 1036.31,1365.69 1040.23,1364.46 
  1044.15,1363.14 1048.07,1362.07 1051.99,1360.93 1055.9,1359.82 1059.82,1358.68 1063.74,1357.42 1067.66,1356.37 1071.58,1355.25 1075.5,1354.15 1079.41,1353.01 
  1083.33,1351.87 1087.25,1350.75 1091.17,1349.62 1095.09,1348.42 1099.01,1347.28 1102.92,1346.13 1106.84,1345.01 1110.76,1343.83 1114.68,1342.68 1118.6,1341.5 
  1122.52,1340.3 1126.43,1339.12 1130.35,1337.89 1134.27,1336.7 1138.19,1335.48 1142.11,1334.25 1146.03,1333.04 1149.94,1331.77 1153.86,1330.46 1157.78,1328.93 
  1161.7,1327.48 1165.62,1326.35 1169.54,1325.3 1173.45,1324.14 1177.37,1322.87 1181.29,1321.66 1185.21,1320.25 1189.13,1318.81 1193.05,1317.49 1196.96,1316.13 
  1200.88,1314.92 1204.8,1313.35 1208.72,1311.91 1212.64,1310.54 1216.56,1309.31 1220.47,1307.63 1224.39,1306.16 1228.31,1304.84 1232.23,1303.36 1236.15,1301.72 
  1240.07,1300.35 1243.98,1298.84 1247.9,1297.17 1251.82,1295.94 1255.74,1294 1259.66,1292.55 1263.58,1291.13 1267.49,1289.3 1271.41,1287.99 1275.33,1286.01 
  1279.25,1284.75 1283.17,1282.69 1287.09,1281.42 1291,1279.35 1294.92,1278 1298.84,1275.96 1302.76,1274.51 1306.68,1272.56 1310.6,1270.94 1314.51,1269.28 
  1318.43,1267.16 1322.35,1265.72 1326.27,1263.61 1330.19,1261.89 1334.11,1260.2 1338.02,1258.01 1341.94,1256.3 1345.86,1254.51 1349.78,1252.65 1353.7,1250.21 
  1357.62,1248.67 1361.53,1246.72 1365.45,1244.83 1369.37,1242.26 1373.29,1240.66 1377.21,1238.6 1381.13,1236.65 1385.04,1234.53 1388.96,1232.27 1392.88,1230.06 
  1396.8,1228.12 1400.72,1225.92 1404.64,1223.85 1408.55,1221.58 1412.47,1219.46 1416.39,1217.14 1420.31,1214.97 1424.23,1212.61 1428.15,1210.4 1432.06,1207.99 
  1435.98,1205.74 1439.9,1203.27 1443.82,1200.99 1447.74,1198.44 1451.66,1196.1 1455.57,1193.58 1459.49,1191.67 1463.41,1188.74 1467.33,1186.37 1471.25,1183.79 
  1475.17,1181.43 1479.08,1178.89 1483,1176.41 1486.92,1173.42 1490.84,1170.88 1494.76,1168.51 1498.68,1165.63 1502.59,1162.76 1506.51,1160.2 1510.43,1157.61 
  1514.35,1154.31 1518.27,1152.4 1522.19,1148.47 1526.1,1146.1 1530.02,1143.3 1533.94,1140.02 1537.86,1137.63 1541.78,1133.91 1545.7,1131.71 1549.61,1127.78 
  1553.53,1125.57 1557.45,1121.64 1561.37,1119.18 1565.29,1115.67 1569.21,1112.41 1573.12,1109.64 1577.04,1105.71 1580.96,1102.8 1584.88,1099.57 1588.8,1096.23 
  1592.72,1092.07 1596.63,1089.35 1600.55,1086.05 1604.47,1082.25 1608.39,1078.33 1612.31,1074.81 1616.23,1071.56 1620.14,1067.77 1624.06,1064.02 1627.98,1060.47 
  1631.9,1056.36 1635.82,1052.68 1639.74,1048.69 1643.65,1044.59 1647.57,1040.84 1651.49,1036.42 1655.41,1032.51 1659.33,1028.32 1663.25,1023.94 1667.16,1020.16 
  1671.08,1015.39 1675,1012.16 1678.92,1006.63 1682.84,1001.81 1686.76,998.055 1690.67,993.861 1694.59,987.74 1698.51,983.926 1702.43,979.427 1706.35,973.26 
  1710.27,969.8 1714.18,963.472 1718.1,958.937 1722.02,953.885 1725.94,947.923 1729.86,942.912 1733.78,938.375 1737.69,930.556 1741.61,926.397 1745.53,921.17 
  1749.45,912.957 1753.37,908.246 1757.29,902.616 1761.2,895.467 1765.12,889.179 1769.04,883.176 1772.96,873.73 1776.88,867.992 1780.8,863.035 1784.71,869.134 
  1788.63,875.199 1792.55,875.843 1796.47,874.566 1800.39,871.98 1804.31,868.293 1808.22,863.535 1812.14,857.6 1816.06,850.178 1819.98,840.451 1823.9,824.341 
  1827.82,808.102 1831.73,806.878 1835.65,805.643 1839.57,804.086 1843.49,802.579 1847.41,800.78 1851.33,798.711 1855.24,796.958 1859.16,795.204 1863.08,792.798 
  1867,790.635 1870.92,788.434 1874.84,786.066 1878.75,783.527 1882.67,782.528 1886.59,780.155 1890.51,777.157 1894.43,773.925 1898.35,771.005 1902.26,768.127 
  1906.18,765.076 1910.1,762.04 1914.02,758.942 1917.94,755.285 1921.86,752.158 1925.77,749.016 1929.69,745.278 1933.61,741.423 1937.53,738.71 1941.45,734.57 
  1945.37,730.817 1949.28,726.911 1953.2,722.912 1957.12,718.539 1961.04,714.817 1964.96,710.7 1968.88,705.896 1972.79,701.169 1976.71,697.296 1980.63,692.193 
  1984.55,687.109 1988.47,682.098 1992.39,677.282 1996.3,671.067 2000.22,666.348 2004.14,660.282 2008.06,654.655 2011.98,648.903 2015.9,643.909 2019.81,634.256 
  2023.73,626.423 2027.65,618.856 2031.57,610.635 2035.49,600.998 2039.41,591.725 2043.32,581.541 2047.24,569.414 2051.16,557.166 2055.08,543.157 2059,526.172 
  2062.92,507.08 2066.83,483.424 2070.75,453.822 2074.67,409.113 2078.59,329.038 2082.51,306.205 2086.43,301.274 2090.34,291.339 2094.26,285.141 2098.18,276.824 
  2102.1,270.559 2106.02,262.568 2109.94,1374.72 2113.85,1384.24 2117.77,1384.24 2121.69,1384.24 2125.61,1384.24 2129.53,1384.24 2133.45,1384.24 2137.36,1384.24 
  2141.28,1384.24 2145.2,1384.24 2149.12,1384.24 2153.04,1384.24 2156.96,1384.24 2160.87,1384.24 2164.79,1384.24 2168.71,1384.24 2172.63,1384.24 2176.55,1384.24 
  2180.47,1384.24 2184.38,1384.24 2188.3,1384.24 2192.22,1384.24 2196.14,1384.24 2200.06,1384.24 2203.98,1384.24 2207.89,1384.24 2211.81,1384.24 2215.73,1384.24 
  2219.65,1384.24 2223.57,1384.24 2227.49,1384.24 2231.4,1384.24 2235.32,1384.24 2239.24,1384.24 2243.16,1384.24 2247.08,1384.24 2251,1384.24 2254.91,1384.24 
  2258.83,1384.24 2262.75,1384.24 2266.67,1384.24 2270.59,1384.24 2274.51,1384.24 2278.43,1384.24 2282.34,1384.24 2286.26,1384.24 2290.18,1384.24 2294.1,1384.24 
  
  "/>
<polyline clip-path="url(#clip472)" style="stroke:#a52a2a; stroke-linecap:round; stroke-linejoin:round; stroke-width:4; stroke-opacity:1; fill:none" points="
  338.848,1384.24 342.766,1384.24 346.684,1384.24 350.603,1384.24 354.521,1384.24 358.439,1384.24 362.358,1384.24 366.276,1384.24 370.194,1384.24 374.113,1384.24 
  378.031,1384.24 381.949,1384.24 385.868,1384.24 389.786,1384.24 393.704,1384.24 397.623,1384.24 401.541,1384.24 405.459,1384.24 409.378,1384.24 413.296,1384.24 
  417.214,1384.24 421.133,1384.24 425.051,1384.24 428.969,1384.24 432.888,1384.24 436.806,1384.24 440.724,1384.24 444.643,1384.24 448.561,1384.24 452.479,1384.24 
  456.398,1384.24 460.316,1384.24 464.234,1384.24 468.153,1384.24 472.071,1384.24 475.989,1384.24 479.908,1384.24 483.826,1384.24 487.744,1384.24 491.663,1384.24 
  495.581,1384.24 499.499,1384.24 503.418,1384.24 507.336,1384.24 511.254,1384.24 515.173,1384.24 519.091,1384.24 523.009,1384.24 526.928,1384.24 530.846,1384.24 
  534.764,1384.24 538.683,1384.24 542.601,1384.24 546.519,1384.24 550.438,1384.24 554.356,1384.24 558.274,1384.24 562.193,1384.24 566.111,1384.24 570.03,1384.24 
  573.948,1384.24 577.866,1384.24 581.785,1384.24 585.703,1384.24 589.621,1384.24 593.54,1384.24 597.458,1384.24 601.376,1384.24 605.295,1384.24 609.213,1384.24 
  613.131,1384.24 617.05,1384.24 620.968,1384.24 624.886,1384.24 628.805,1384.24 632.723,1384.24 636.641,1384.24 640.56,1384.24 644.478,1384.24 648.396,1384.24 
  652.315,1384.24 656.233,1384.24 660.151,1384.24 664.07,1384.24 667.988,1384.24 671.906,1384.24 675.825,1384.24 679.743,1384.24 683.661,1384.24 687.58,1384.24 
  691.498,1384.24 695.416,1384.24 699.335,1384.24 703.253,1384.24 707.171,1384.24 711.09,1384.24 715.008,1384.24 718.926,1384.24 722.845,1384.24 726.763,1384.24 
  730.681,1384.24 734.6,1384.24 738.518,1384.24 742.436,1384.24 746.355,1384.24 750.273,1384.24 754.191,1384.24 758.11,1384.24 762.028,1384.24 765.946,1384.24 
  769.865,1384.24 773.783,1384.24 777.701,1384.24 781.62,1384.24 785.538,1384.24 789.456,1384.24 793.375,1384.24 797.293,1384.24 801.211,1384.24 805.13,1384.24 
  809.048,1384.24 812.966,1384.24 816.885,1384.24 820.803,1384.24 824.721,1384.24 828.64,1384.24 832.558,1384.24 836.477,1384.24 840.395,1384.24 844.313,1384.24 
  848.232,1384.24 852.15,1384.24 856.068,1384.24 859.987,1384.19 863.905,1381.98 867.823,1380.05 871.742,1378.72 875.66,1377.62 879.578,1376.62 883.497,1375.71 
  887.415,1374.86 891.333,1373.91 895.252,1373.08 899.17,1372.26 903.088,1371.49 907.007,1370.71 910.925,1369.83 914.843,1369.06 918.762,1368.29 922.68,1367.57 
  926.598,1366.64 930.517,1365.87 934.435,1365.13 938.353,1364.38 942.272,1363.48 946.19,1362.69 950.108,1361.98 954.027,1361 957.945,1360.24 961.863,1359.54 
  965.782,1358.55 969.7,1357.76 973.618,1357.01 977.537,1356.04 981.455,1355.26 985.373,1354.4 989.292,1353.39 993.21,1352.55 997.128,1351.5 1001.05,1350.87 
  1004.97,1349.79 1008.88,1349.07 1012.8,1347.94 1016.72,1347.13 1020.64,1346.06 1024.56,1345.47 1028.48,1344.66 1032.39,1343.92 1036.31,1342.5 1040.23,1341.46 
  1044.15,1340.33 1048.07,1339.31 1051.99,1338.41 1055.9,1337.21 1059.82,1336.3 1063.74,1335.35 1067.66,1334.09 1071.58,1333.2 1075.5,1332.18 1079.41,1331.01 
  1083.33,1329.82 1087.25,1328.85 1091.17,1327.75 1095.09,1326.67 1099.01,1325.28 1102.92,1324.31 1106.84,1323.17 1110.76,1322.04 1114.68,1320.86 1118.6,1319.7 
  1122.52,1318.43 1126.43,1317.14 1130.35,1315.98 1134.27,1314.8 1138.19,1313.55 1142.11,1312.32 1146.03,1311.03 1149.94,1309.78 1153.86,1308.47 1157.78,1307.22 
  1161.7,1305.9 1165.62,1304.65 1169.54,1303.37 1173.45,1301.82 1177.37,1300.35 1181.29,1298.93 1185.21,1297.53 1189.13,1296.36 1193.05,1295.09 1196.96,1293.87 
  1200.88,1292.19 1204.8,1290.81 1208.72,1289.4 1212.64,1288.17 1216.56,1286.35 1220.47,1284.93 1224.39,1283.66 1228.31,1281.93 1232.23,1280.39 1236.15,1279.19 
  1240.07,1277.19 1243.98,1275.74 1247.9,1274.41 1251.82,1272.46 1255.74,1271.29 1259.66,1269.18 1263.58,1268.06 1267.49,1265.88 1271.41,1264.73 1275.33,1262.53 
  1279.25,1261.31 1283.17,1259.17 1287.09,1257.8 1291,1255.81 1294.92,1254.17 1298.84,1252.63 1302.76,1250.31 1306.68,1248.89 1310.6,1247.27 1314.51,1244.74 
  1318.43,1243.42 1322.35,1241.62 1326.27,1239.28 1330.19,1237.64 1334.11,1235.79 1338.02,1233.98 1341.94,1231.58 1345.86,1229.79 1349.78,1227.85 1353.7,1225.88 
  1357.62,1223.95 1361.53,1221.82 1365.45,1219.81 1369.37,1217.25 1373.29,1215.41 1377.21,1213.36 1381.13,1211.12 1385.04,1209.1 1388.96,1206.77 1392.88,1204.59 
  1396.8,1202.42 1400.72,1200.03 1404.64,1197.91 1408.55,1195.47 1412.47,1193.21 1416.39,1191.11 1420.31,1188.51 1424.23,1185.9 1428.15,1183.5 1432.06,1180.97 
  1435.98,1178.68 1439.9,1176.06 1443.82,1174.05 1447.74,1170.81 1451.66,1168.05 1455.57,1165.58 1459.49,1163.11 1463.41,1160.24 1467.33,1157.57 1471.25,1154.97 
  1475.17,1152.64 1479.08,1149.29 1483,1146.52 1486.92,1144.06 1490.84,1140.61 1494.76,1138.12 1498.68,1134.69 1502.59,1131.77 1506.51,1128.88 1510.43,1125.52 
  1514.35,1122.7 1518.27,1118.78 1522.19,1116.44 1526.1,1112.22 1530.02,1109.5 1533.94,1105.86 1537.86,1102.27 1541.78,1099.35 1545.7,1094.68 1549.61,1091.81 
  1553.53,1087.44 1557.45,1084.18 1561.37,1080.41 1565.29,1075.69 1569.21,1072.25 1573.12,1068.1 1577.04,1064.04 1580.96,1058.81 1584.88,1054.65 1588.8,1050.29 
  1592.72,1045.82 1596.63,1040.02 1600.55,1034.85 1604.47,1030.01 1608.39,1024.26 1612.31,1017.95 1616.23,1011.54 1620.14,1004.35 1624.06,995.047 1627.98,981.567 
  1631.9,974.546 1635.82,970.995 1639.74,967.474 1643.65,964.577 1647.57,961.279 1651.49,957.675 1655.41,954.653 1659.33,951.613 1663.25,947.792 1667.16,944.207 
  1671.08,941.936 1675,938.305 1678.92,934.541 1682.84,930.772 1686.76,927.862 1690.67,923.83 1694.59,921.631 1698.51,916.974 1702.43,913.685 1706.35,911.274 
  1710.27,905.964 1714.18,903.75 1718.1,900.554 1722.02,895.513 1725.94,894.963 1729.86,890.648 1733.78,888.865 1737.69,882.169 1741.61,880.358 1745.53,874.4 
  1749.45,872.066 1753.37,865.624 1757.29,862.547 1761.2,861.237 1765.12,856.552 1769.04,850.321 1772.96,848.432 1776.88,845.193 1780.8,842.037 1784.71,849.472 
  1788.63,857.406 1792.55,860.727 1796.47,862.897 1800.39,864.172 1804.31,865.101 1808.22,865.495 1812.14,865.773 1816.06,865.617 1819.98,865.466 1823.9,864.859 
  1827.82,864.344 1831.73,862.784 1835.65,863.092 1839.57,862.013 1843.49,860.719 1847.41,859.39 1851.33,858.751 1855.24,856.652 1859.16,856.325 1863.08,853.957 
  1867,853.489 1870.92,851.171 1874.84,850.083 1878.75,848.401 1882.67,846.455 1886.59,845.483 1890.51,845.188 1894.43,843.287 1898.35,840.83 1902.26,838.24 
  1906.18,836.219 1910.1,834.052 1914.02,831.828 1917.94,829.734 1921.86,826.954 1925.77,824.88 1929.69,823.098 1933.61,820.2 1937.53,817.674 1941.45,815.579 
  1945.37,812.442 1949.28,810.362 1953.2,807.478 1957.12,804.421 1961.04,801.669 1964.96,798.697 1968.88,795.774 1972.79,792.924 1976.71,789.885 1980.63,786.538 
  1984.55,783.018 1988.47,779.246 1992.39,776.058 1996.3,771.879 2000.22,767.771 2004.14,764.134 2008.06,759.267 2011.98,755.458 2015.9,751.118 2019.81,745.819 
  2023.73,740.094 2027.65,734.484 2031.57,728.929 2035.49,721.433 2039.41,715.362 2043.32,707.313 2047.24,698.654 2051.16,689.008 2055.08,677.347 2059,666.258 
  2062.92,650.584 2066.83,631.774 2070.75,608.059 2074.67,573.062 2078.59,506.446 2082.51,490.809 2086.43,485.136 2090.34,480.27 2094.26,474.64 2098.18,469.072 
  2102.1,465.656 2106.02,633.172 2109.94,1384.24 2113.85,1384.24 2117.77,1384.24 2121.69,1384.24 2125.61,1384.24 2129.53,1384.24 2133.45,1384.24 2137.36,1384.24 
  2141.28,1384.24 2145.2,1384.24 2149.12,1384.24 2153.04,1384.24 2156.96,1384.24 2160.87,1384.24 2164.79,1384.24 2168.71,1384.24 2172.63,1384.24 2176.55,1384.24 
  2180.47,1384.24 2184.38,1384.24 2188.3,1384.24 2192.22,1384.24 2196.14,1384.24 2200.06,1384.24 2203.98,1384.24 2207.89,1384.24 2211.81,1384.24 2215.73,1384.24 
  2219.65,1384.24 2223.57,1384.24 2227.49,1384.24 2231.4,1384.24 2235.32,1384.24 2239.24,1384.24 2243.16,1384.24 2247.08,1384.24 2251,1384.24 2254.91,1384.24 
  2258.83,1384.24 2262.75,1384.24 2266.67,1384.24 2270.59,1384.24 2274.51,1384.24 2278.43,1384.24 2282.34,1384.24 2286.26,1384.24 2290.18,1384.24 2294.1,1384.24 
  
  "/>
<polyline clip-path="url(#clip472)" style="stroke:#ffa500; stroke-linecap:round; stroke-linejoin:round; stroke-width:4; stroke-opacity:1; fill:none" points="
  338.848,1384.24 342.766,1384.24 346.684,1384.24 350.603,1384.24 354.521,1384.24 358.439,1384.24 362.358,1384.24 366.276,1384.24 370.194,1384.24 374.113,1384.24 
  378.031,1384.24 381.949,1384.24 385.868,1384.24 389.786,1384.24 393.704,1384.24 397.623,1384.24 401.541,1384.24 405.459,1384.24 409.378,1384.24 413.296,1384.24 
  417.214,1384.24 421.133,1384.24 425.051,1384.24 428.969,1384.24 432.888,1384.24 436.806,1384.24 440.724,1384.24 444.643,1384.24 448.561,1384.24 452.479,1384.24 
  456.398,1384.24 460.316,1384.24 464.234,1384.24 468.153,1384.24 472.071,1384.24 475.989,1384.24 479.908,1384.24 483.826,1384.24 487.744,1384.24 491.663,1384.24 
  495.581,1384.24 499.499,1384.24 503.418,1384.24 507.336,1384.24 511.254,1384.24 515.173,1384.24 519.091,1384.24 523.009,1384.24 526.928,1384.24 530.846,1384.24 
  534.764,1384.24 538.683,1384.24 542.601,1384.24 546.519,1384.24 550.438,1384.24 554.356,1384.24 558.274,1384.24 562.193,1384.24 566.111,1384.24 570.03,1384.24 
  573.948,1384.24 577.866,1384.24 581.785,1384.24 585.703,1384.24 589.621,1384.24 593.54,1384.24 597.458,1384.24 601.376,1384.24 605.295,1384.24 609.213,1384.24 
  613.131,1384.24 617.05,1384.24 620.968,1384.24 624.886,1384.24 628.805,1384.24 632.723,1384.24 636.641,1384.24 640.56,1384.24 644.478,1384.24 648.396,1384.24 
  652.315,1384.24 656.233,1384.24 660.151,1384.24 664.07,1384.24 667.988,1384.24 671.906,1384.24 675.825,1384.24 679.743,1384.24 683.661,1384.24 687.58,1384.24 
  691.498,1384.24 695.416,1384.24 699.335,1384.24 703.253,1384.24 707.171,1384.24 711.09,1384.24 715.008,1384.24 718.926,1384.24 722.845,1384.24 726.763,1384.24 
  730.681,1384.24 734.6,1384.24 738.518,1384.24 742.436,1384.24 746.355,1384.24 750.273,1384.24 754.191,1384.24 758.11,1384.24 762.028,1384.24 765.946,1384.24 
  769.865,1384.24 773.783,1384.24 777.701,1384.24 781.62,1384.24 785.538,1384.24 789.456,1384.24 793.375,1384.24 797.293,1384.24 801.211,1384.24 805.13,1384.24 
  809.048,1384.24 812.966,1384.24 816.885,1384.24 820.803,1384.24 824.721,1384.24 828.64,1384.24 832.558,1384.24 836.477,1384.24 840.395,1384.24 844.313,1384.24 
  848.232,1384.24 852.15,1384.24 856.068,1384.24 859.987,1384.24 863.905,1384.24 867.823,1384.24 871.742,1384.24 875.66,1384.24 879.578,1384.24 883.497,1384.24 
  887.415,1384.24 891.333,1384.24 895.252,1384.24 899.17,1384.24 903.088,1384.24 907.007,1384.24 910.925,1384.24 914.843,1384.24 918.762,1384.24 922.68,1384.24 
  926.598,1384.24 930.517,1384.24 934.435,1384.24 938.353,1384.24 942.272,1384.24 946.19,1384.24 950.108,1384.24 954.027,1384.24 957.945,1384.24 961.863,1384.24 
  965.782,1384.24 969.7,1384.24 973.618,1384.24 977.537,1384.24 981.455,1384.24 985.373,1384.24 989.292,1384.24 993.21,1384.24 997.128,1384.24 1001.05,1384.24 
  1004.97,1384.24 1008.88,1384.24 1012.8,1384.24 1016.72,1384.24 1020.64,1384.24 1024.56,1384.24 1028.48,1384.24 1032.39,1384.24 1036.31,1384.24 1040.23,1384.24 
  1044.15,1384.24 1048.07,1384.24 1051.99,1384.24 1055.9,1384.24 1059.82,1384.24 1063.74,1384.24 1067.66,1384.24 1071.58,1384.24 1075.5,1384.24 1079.41,1384.24 
  1083.33,1384.24 1087.25,1380.88 1091.17,1376.26 1095.09,1373.24 1099.01,1371.03 1102.92,1368.91 1106.84,1366.98 1110.76,1365.31 1114.68,1363.47 1118.6,1362.01 
  1122.52,1360.2 1126.43,1358.77 1130.35,1357.2 1134.27,1355.65 1138.19,1354.04 1142.11,1352.27 1146.03,1351.23 1149.94,1349.83 1153.86,1348.67 1157.78,1347.08 
  1161.7,1345.86 1165.62,1344.21 1169.54,1343.01 1173.45,1341.34 1177.37,1340.14 1181.29,1338.5 1185.21,1337.23 1189.13,1335.63 1193.05,1334.32 1196.96,1332.75 
  1200.88,1331.35 1204.8,1330 1208.72,1328.19 1212.64,1327 1216.56,1325.25 1220.47,1323.92 1224.39,1322.4 1228.31,1320.71 1232.23,1319.39 1236.15,1317.64 
  1240.07,1316.15 1243.98,1314.71 1247.9,1312.84 1251.82,1311.42 1255.74,1309.91 1259.66,1307.99 1263.58,1306.53 1267.49,1304.97 1271.41,1303.11 1275.33,1301.49 
  1279.25,1299.88 1283.17,1298.24 1287.09,1296.26 1291,1294.63 1294.92,1292.99 1298.84,1291.25 1302.76,1289.27 1306.68,1287.6 1310.6,1285.85 1314.51,1284.04 
  1318.43,1282.19 1322.35,1280.27 1326.27,1278.21 1330.19,1276.44 1334.11,1274.58 1338.02,1272.7 1341.94,1270.73 1345.86,1268.82 1349.78,1266.82 1353.7,1264.84 
  1357.62,1262.83 1361.53,1260.51 1365.45,1258.68 1369.37,1256.63 1373.29,1254.53 1377.21,1252.49 1381.13,1250.29 1385.04,1248.23 1388.96,1246.05 1392.88,1243.88 
  1396.8,1241.79 1400.72,1239.5 1404.64,1237.33 1408.55,1234.88 1412.47,1232.65 1416.39,1230.34 1420.31,1228.01 1424.23,1225.74 1428.15,1223.33 1432.06,1221.11 
  1435.98,1218.74 1439.9,1216.01 1443.82,1213.56 1447.74,1210.78 1451.66,1207.79 1455.57,1204.98 1459.49,1203.09 1463.41,1201.12 1467.33,1199.15 1471.25,1195.96 
  1475.17,1193.41 1479.08,1191.24 1483,1188.1 1486.92,1185.48 1490.84,1183.19 1494.76,1179.86 1498.68,1177.38 1502.59,1174.65 1506.51,1171.66 1510.43,1169.11 
  1514.35,1165.88 1518.27,1163.39 1522.19,1160.04 1526.1,1157.51 1530.02,1154.15 1533.94,1151.48 1537.86,1148.28 1541.78,1145.23 1545.7,1142.52 1549.61,1138.78 
  1553.53,1136 1557.45,1133.12 1561.37,1129.15 1565.29,1126.51 1569.21,1123.26 1573.12,1120.08 1577.04,1115.97 1580.96,1113.3 1584.88,1109.82 1588.8,1106.64 
  1592.72,1103.11 1596.63,1099.39 1600.55,1095.9 1604.47,1092.57 1608.39,1088.72 1612.31,1085.33 1616.23,1081.44 1620.14,1077.98 1624.06,1074 1627.98,1070.53 
  1631.9,1066.47 1635.82,1063.12 1639.74,1059.09 1643.65,1054.87 1647.57,1050.7 1651.49,1047.05 1655.41,1042.84 1659.33,1039.49 1663.25,1034.4 1667.16,1030.53 
  1671.08,1027.06 1675,1021.59 1678.92,1017.85 1682.84,1013.74 1686.76,1008.97 1690.67,1004.96 1694.59,1000.01 1698.51,995.789 1702.43,991.11 1706.35,986.197 
  1710.27,982.177 1714.18,976.486 1718.1,972.049 1722.02,967.908 1725.94,962.112 1729.86,957.329 1733.78,952.015 1737.69,947.114 1741.61,942.42 1745.53,936.488 
  1749.45,931.662 1753.37,925.967 1757.29,920.292 1761.2,915.463 1765.12,908.913 1769.04,904.933 1772.96,897.706 1776.88,891.183 1780.8,887.631 1784.71,898.888 
  1788.63,908.212 1792.55,912.082 1796.47,914.073 1800.39,914.944 1804.31,915.03 1808.22,914.514 1812.14,913.507 1816.06,912.079 1819.98,910.281 1823.9,908.146 
  1827.82,905.696 1831.73,902.95 1835.65,899.919 1839.57,896.609 1843.49,893.023 1847.41,889.16 1851.33,885.018 1855.24,880.59 1859.16,875.866 1863.08,870.835 
  1867,865.481 1870.92,859.782 1874.84,853.715 1878.75,847.249 1882.67,840.346 1886.59,832.958 1890.51,825.025 1894.43,816.466 1898.35,807.175 1902.26,796.996 
  1906.18,785.697 1910.1,772.905 1914.02,757.909 1917.94,738.839 1921.86,706.595 1925.77,690.985 1929.69,686.512 1933.61,681.771 1937.53,677.553 1941.45,672.494 
  1945.37,667.541 1949.28,662.872 1953.2,657.836 1957.12,652.375 1961.04,647.438 1964.96,641.811 1968.88,635.863 1972.79,629.953 1976.71,624.651 1980.63,618.119 
  1984.55,611.795 1988.47,605.619 1992.39,598.208 1996.3,591.735 2000.22,584.314 2004.14,576.548 2008.06,569.545 2011.98,561.007 2015.9,553.248 2019.81,544.799 
  2023.73,534.254 2027.65,523.972 2031.57,513.347 2035.49,501.928 2039.41,489.637 2043.32,476.954 2047.24,461.987 2051.16,446.734 2055.08,428.479 2059,409.042 
  2062.92,385.161 2066.83,357.036 2070.75,321.271 2074.67,269.401 2078.59,174.767 2082.51,147.95 2086.43,141.919 2090.34,128.328 2094.26,117.271 2098.18,107.293 
  2102.1,96.7366 2106.02,86.1857 2109.94,1115.83 2113.85,1384.24 2117.77,1384.24 2121.69,1384.24 2125.61,1384.24 2129.53,1384.24 2133.45,1384.24 2137.36,1384.24 
  2141.28,1384.24 2145.2,1384.24 2149.12,1384.24 2153.04,1384.24 2156.96,1384.24 2160.87,1384.24 2164.79,1384.24 2168.71,1384.24 2172.63,1384.24 2176.55,1384.24 
  2180.47,1384.24 2184.38,1384.24 2188.3,1384.24 2192.22,1384.24 2196.14,1384.24 2200.06,1384.24 2203.98,1384.24 2207.89,1384.24 2211.81,1384.24 2215.73,1384.24 
  2219.65,1384.24 2223.57,1384.24 2227.49,1384.24 2231.4,1384.24 2235.32,1384.24 2239.24,1384.24 2243.16,1384.24 2247.08,1384.24 2251,1384.24 2254.91,1384.24 
  2258.83,1384.24 2262.75,1384.24 2266.67,1384.24 2270.59,1384.24 2274.51,1384.24 2278.43,1384.24 2282.34,1384.24 2286.26,1384.24 2290.18,1384.24 2294.1,1384.24 
  
  "/>
<path clip-path="url(#clip470)" d="
M349.276 300.469 L742.318 300.469 L742.318 93.1086 L349.276 93.1086  Z
  " fill="#ffffff" fill-rule="evenodd" fill-opacity="0"/>
<polyline clip-path="url(#clip470)" style="stroke:#000000; stroke-linecap:round; stroke-linejoin:round; stroke-width:4; stroke-opacity:1; fill:none" points="
  349.276,300.469 742.318,300.469 742.318,93.1086 349.276,93.1086 349.276,300.469 
  "/>
<polyline clip-path="url(#clip470)" style="stroke:#000000; stroke-linecap:round; stroke-linejoin:round; stroke-width:4; stroke-opacity:1; fill:none" points="
  372.304,144.949 510.475,144.949 
  "/>
<path clip-path="url(#clip470)" d="M553.666 140.423 Q552.809 140.122 551.953 139.891 Q549.661 139.289 547.207 139.289 Q542.971 139.289 540.61 141.581 Q538.411 143.71 537.994 147.622 L553.666 147.622 L553.666 150.956 L537.994 150.956 Q538.411 154.868 540.61 156.997 Q542.971 159.289 547.207 159.289 Q550.17 159.289 551.953 158.687 L553.666 158.108 L553.666 161.974 L551.837 162.391 Q549.429 162.9 546.953 162.9 Q540.749 162.9 537.138 159.289 Q533.504 155.678 533.504 149.289 Q533.504 142.9 537.138 139.289 Q540.749 135.678 546.953 135.678 Q549.291 135.678 551.837 136.187 Q552.763 136.372 553.666 136.65 L553.666 140.423 Z" fill="#000000" fill-rule="evenodd" fill-opacity="1" /><path clip-path="url(#clip470)" d="M579.29 143.594 Q582.647 144.312 584.522 146.581 Q586.42 148.849 586.42 152.182 Q586.42 157.298 582.902 160.099 Q579.383 162.9 572.902 162.9 Q570.726 162.9 568.411 162.46 Q566.119 162.043 563.666 161.187 L563.666 156.673 Q565.61 157.807 567.925 158.386 Q570.24 158.965 572.763 158.965 Q577.161 158.965 579.452 157.229 Q581.767 155.493 581.767 152.182 Q581.767 149.127 579.614 147.414 Q577.485 145.678 573.665 145.678 L569.638 145.678 L569.638 141.835 L573.851 141.835 Q577.3 141.835 579.128 140.469 Q580.957 139.081 580.957 136.488 Q580.957 133.826 579.059 132.414 Q577.184 130.979 573.665 130.979 Q571.744 130.979 569.545 131.395 Q567.346 131.812 564.707 132.692 L564.707 128.525 Q567.369 127.784 569.684 127.414 Q572.022 127.044 574.082 127.044 Q579.406 127.044 582.508 129.474 Q585.61 131.882 585.61 136.002 Q585.61 138.872 583.966 140.863 Q582.323 142.831 579.29 143.594 Z" fill="#000000" fill-rule="evenodd" fill-opacity="1" /><path clip-path="url(#clip470)" d="M595.239 140.701 L624.915 140.701 L624.915 144.59 L595.239 144.59 L595.239 140.701 M595.239 150.145 L624.915 150.145 L624.915 154.081 L595.239 154.081 L595.239 150.145 Z" fill="#000000" fill-rule="evenodd" fill-opacity="1" /><path clip-path="url(#clip470)" d="M645.008 130.747 Q641.397 130.747 639.568 134.312 Q637.762 137.854 637.762 144.983 Q637.762 152.09 639.568 155.655 Q641.397 159.196 645.008 159.196 Q648.642 159.196 650.447 155.655 Q652.276 152.09 652.276 144.983 Q652.276 137.854 650.447 134.312 Q648.642 130.747 645.008 130.747 M645.008 127.044 Q650.818 127.044 653.873 131.65 Q656.952 136.233 656.952 144.983 Q656.952 153.71 653.873 158.317 Q650.818 162.9 645.008 162.9 Q639.198 162.9 636.119 158.317 Q633.063 153.71 633.063 144.983 Q633.063 136.233 636.119 131.65 Q639.198 127.044 645.008 127.044 Z" fill="#000000" fill-rule="evenodd" fill-opacity="1" /><path clip-path="url(#clip470)" d="M665.17 156.349 L670.054 156.349 L670.054 162.229 L665.17 162.229 L665.17 156.349 Z" fill="#000000" fill-rule="evenodd" fill-opacity="1" /><path clip-path="url(#clip470)" d="M690.239 130.747 Q686.628 130.747 684.799 134.312 Q682.994 137.854 682.994 144.983 Q682.994 152.09 684.799 155.655 Q686.628 159.196 690.239 159.196 Q693.873 159.196 695.679 155.655 Q697.507 152.09 697.507 144.983 Q697.507 137.854 695.679 134.312 Q693.873 130.747 690.239 130.747 M690.239 127.044 Q696.049 127.044 699.105 131.65 Q702.183 136.233 702.183 144.983 Q702.183 153.71 699.105 158.317 Q696.049 162.9 690.239 162.9 Q684.429 162.9 681.35 158.317 Q678.295 153.71 678.295 144.983 Q678.295 136.233 681.35 131.65 Q684.429 127.044 690.239 127.044 Z" fill="#000000" fill-rule="evenodd" fill-opacity="1" /><polyline clip-path="url(#clip470)" style="stroke:#a52a2a; stroke-linecap:round; stroke-linejoin:round; stroke-width:4; stroke-opacity:1; fill:none" points="
  372.304,196.789 510.475,196.789 
  "/>
<path clip-path="url(#clip470)" d="M553.666 192.263 Q552.809 191.962 551.953 191.731 Q549.661 191.129 547.207 191.129 Q542.971 191.129 540.61 193.421 Q538.411 195.55 537.994 199.462 L553.666 199.462 L553.666 202.796 L537.994 202.796 Q538.411 206.708 540.61 208.837 Q542.971 211.129 547.207 211.129 Q550.17 211.129 551.953 210.527 L553.666 209.948 L553.666 213.814 L551.837 214.231 Q549.429 214.74 546.953 214.74 Q540.749 214.74 537.138 211.129 Q533.504 207.518 533.504 201.129 Q533.504 194.74 537.138 191.129 Q540.749 187.518 546.953 187.518 Q549.291 187.518 551.837 188.027 Q552.763 188.212 553.666 188.49 L553.666 192.263 Z" fill="#000000" fill-rule="evenodd" fill-opacity="1" /><path clip-path="url(#clip470)" d="M579.29 195.434 Q582.647 196.152 584.522 198.421 Q586.42 200.689 586.42 204.022 Q586.42 209.138 582.902 211.939 Q579.383 214.74 572.902 214.74 Q570.726 214.74 568.411 214.3 Q566.119 213.883 563.666 213.027 L563.666 208.513 Q565.61 209.647 567.925 210.226 Q570.24 210.805 572.763 210.805 Q577.161 210.805 579.452 209.069 Q581.767 207.333 581.767 204.022 Q581.767 200.967 579.614 199.254 Q577.485 197.518 573.665 197.518 L569.638 197.518 L569.638 193.675 L573.851 193.675 Q577.3 193.675 579.128 192.309 Q580.957 190.921 580.957 188.328 Q580.957 185.666 579.059 184.254 Q577.184 182.819 573.665 182.819 Q571.744 182.819 569.545 183.235 Q567.346 183.652 564.707 184.532 L564.707 180.365 Q567.369 179.624 569.684 179.254 Q572.022 178.884 574.082 178.884 Q579.406 178.884 582.508 181.314 Q585.61 183.722 585.61 187.842 Q585.61 190.712 583.966 192.703 Q582.323 194.671 579.29 195.434 Z" fill="#000000" fill-rule="evenodd" fill-opacity="1" /><path clip-path="url(#clip470)" d="M595.239 192.541 L624.915 192.541 L624.915 196.43 L595.239 196.43 L595.239 192.541 M595.239 201.985 L624.915 201.985 L624.915 205.921 L595.239 205.921 L595.239 201.985 Z" fill="#000000" fill-rule="evenodd" fill-opacity="1" /><path clip-path="url(#clip470)" d="M639.035 210.133 L655.355 210.133 L655.355 214.069 L633.41 214.069 L633.41 210.133 Q636.073 207.379 640.656 202.749 Q645.262 198.096 646.443 196.754 Q648.688 194.231 649.568 192.495 Q650.471 190.735 650.471 189.046 Q650.471 186.291 648.526 184.555 Q646.605 182.819 643.503 182.819 Q641.304 182.819 638.85 183.583 Q636.42 184.347 633.642 185.897 L633.642 181.175 Q636.466 180.041 638.92 179.462 Q641.373 178.884 643.41 178.884 Q648.781 178.884 651.975 181.569 Q655.17 184.254 655.17 188.745 Q655.17 190.874 654.359 192.796 Q653.572 194.694 651.466 197.286 Q650.887 197.958 647.785 201.175 Q644.684 204.37 639.035 210.133 Z" fill="#000000" fill-rule="evenodd" fill-opacity="1" /><path clip-path="url(#clip470)" d="M665.17 208.189 L670.054 208.189 L670.054 214.069 L665.17 214.069 L665.17 208.189 Z" fill="#000000" fill-rule="evenodd" fill-opacity="1" /><path clip-path="url(#clip470)" d="M690.239 182.587 Q686.628 182.587 684.799 186.152 Q682.994 189.694 682.994 196.823 Q682.994 203.93 684.799 207.495 Q686.628 211.036 690.239 211.036 Q693.873 211.036 695.679 207.495 Q697.507 203.93 697.507 196.823 Q697.507 189.694 695.679 186.152 Q693.873 182.587 690.239 182.587 M690.239 178.884 Q696.049 178.884 699.105 183.49 Q702.183 188.073 702.183 196.823 Q702.183 205.55 699.105 210.157 Q696.049 214.74 690.239 214.74 Q684.429 214.74 681.35 210.157 Q678.295 205.55 678.295 196.823 Q678.295 188.073 681.35 183.49 Q684.429 178.884 690.239 178.884 Z" fill="#000000" fill-rule="evenodd" fill-opacity="1" /><polyline clip-path="url(#clip470)" style="stroke:#ffa500; stroke-linecap:round; stroke-linejoin:round; stroke-width:4; stroke-opacity:1; fill:none" points="
  372.304,248.629 510.475,248.629 
  "/>
<path clip-path="url(#clip470)" d="M553.666 244.103 Q552.809 243.802 551.953 243.571 Q549.661 242.969 547.207 242.969 Q542.971 242.969 540.61 245.261 Q538.411 247.39 537.994 251.302 L553.666 251.302 L553.666 254.636 L537.994 254.636 Q538.411 258.548 540.61 260.677 Q542.971 262.969 547.207 262.969 Q550.17 262.969 551.953 262.367 L553.666 261.788 L553.666 265.654 L551.837 266.071 Q549.429 266.58 546.953 266.58 Q540.749 266.58 537.138 262.969 Q533.504 259.358 533.504 252.969 Q533.504 246.58 537.138 242.969 Q540.749 239.358 546.953 239.358 Q549.291 239.358 551.837 239.867 Q552.763 240.052 553.666 240.33 L553.666 244.103 Z" fill="#000000" fill-rule="evenodd" fill-opacity="1" /><path clip-path="url(#clip470)" d="M579.29 247.274 Q582.647 247.992 584.522 250.261 Q586.42 252.529 586.42 255.862 Q586.42 260.978 582.902 263.779 Q579.383 266.58 572.902 266.58 Q570.726 266.58 568.411 266.14 Q566.119 265.723 563.666 264.867 L563.666 260.353 Q565.61 261.487 567.925 262.066 Q570.24 262.645 572.763 262.645 Q577.161 262.645 579.452 260.909 Q581.767 259.173 581.767 255.862 Q581.767 252.807 579.614 251.094 Q577.485 249.358 573.665 249.358 L569.638 249.358 L569.638 245.515 L573.851 245.515 Q577.3 245.515 579.128 244.149 Q580.957 242.761 580.957 240.168 Q580.957 237.506 579.059 236.094 Q577.184 234.659 573.665 234.659 Q571.744 234.659 569.545 235.075 Q567.346 235.492 564.707 236.372 L564.707 232.205 Q567.369 231.464 569.684 231.094 Q572.022 230.724 574.082 230.724 Q579.406 230.724 582.508 233.154 Q585.61 235.562 585.61 239.682 Q585.61 242.552 583.966 244.543 Q582.323 246.511 579.29 247.274 Z" fill="#000000" fill-rule="evenodd" fill-opacity="1" /><path clip-path="url(#clip470)" d="M595.239 244.381 L624.915 244.381 L624.915 248.27 L595.239 248.27 L595.239 244.381 M595.239 253.825 L624.915 253.825 L624.915 257.761 L595.239 257.761 L595.239 253.825 Z" fill="#000000" fill-rule="evenodd" fill-opacity="1" /><path clip-path="url(#clip470)" d="M632.253 251.024 L644.73 251.024 L644.73 254.821 L632.253 254.821 L632.253 251.024 Z" fill="#000000" fill-rule="evenodd" fill-opacity="1" /><path clip-path="url(#clip470)" d="M656.142 261.973 L672.461 261.973 L672.461 265.909 L650.517 265.909 L650.517 261.973 Q653.179 259.219 657.762 254.589 Q662.369 249.936 663.549 248.594 Q665.795 246.071 666.674 244.335 Q667.577 242.575 667.577 240.886 Q667.577 238.131 665.633 236.395 Q663.711 234.659 660.609 234.659 Q658.41 234.659 655.957 235.423 Q653.526 236.187 650.748 237.737 L650.748 233.015 Q653.572 231.881 656.026 231.302 Q658.48 230.724 660.517 230.724 Q665.887 230.724 669.082 233.409 Q672.276 236.094 672.276 240.585 Q672.276 242.714 671.466 244.636 Q670.679 246.534 668.572 249.126 Q667.994 249.798 664.892 253.015 Q661.79 256.21 656.142 261.973 Z" fill="#000000" fill-rule="evenodd" fill-opacity="1" /><path clip-path="url(#clip470)" d="M682.276 260.029 L687.16 260.029 L687.16 265.909 L682.276 265.909 L682.276 260.029 Z" fill="#000000" fill-rule="evenodd" fill-opacity="1" /><path clip-path="url(#clip470)" d="M707.345 234.427 Q703.734 234.427 701.906 237.992 Q700.1 241.534 700.1 248.663 Q700.1 255.77 701.906 259.335 Q703.734 262.876 707.345 262.876 Q710.98 262.876 712.785 259.335 Q714.614 255.77 714.614 248.663 Q714.614 241.534 712.785 237.992 Q710.98 234.427 707.345 234.427 M707.345 230.724 Q713.155 230.724 716.211 235.33 Q719.29 239.913 719.29 248.663 Q719.29 257.39 716.211 261.997 Q713.155 266.58 707.345 266.58 Q701.535 266.58 698.456 261.997 Q695.401 257.39 695.401 248.663 Q695.401 239.913 698.456 235.33 Q701.535 230.724 707.345 230.724 Z" fill="#000000" fill-rule="evenodd" fill-opacity="1" /></svg>
