<?xml version="1.0" encoding="utf-8"?>
<svg xmlns="http://www.w3.org/2000/svg" xmlns:xlink="http://www.w3.org/1999/xlink" width="600" height="400" viewBox="0 0 2400 1600">
<defs>
  <clipPath id="clip430">
    <rect x="0" y="0" width="2400" height="1600"/>
  </clipPath>
</defs>
<path clip-path="url(#clip430)" d="
M0 1600 L2400 1600 L2400 0 L0 0  Z
  " fill="#ffffff" fill-rule="evenodd" fill-opacity="0"/>
<defs>
  <clipPath id="clip431">
    <rect x="480" y="0" width="1681" height="1600"/>
  </clipPath>
</defs>
<path clip-path="url(#clip430)" d="
M212.459 1423.18 L2352.76 1423.18 L2352.76 123.472 L212.459 123.472  Z
  " fill="#ffffff" fill-rule="evenodd" fill-opacity="0"/>
<defs>
  <clipPath id="clip432">
    <rect x="212" y="123" width="2141" height="1301"/>
  </clipPath>
</defs>
<polyline clip-path="url(#clip432)" style="stroke:#000000; stroke-linecap:round; stroke-linejoin:round; stroke-width:2; stroke-opacity:0.1; fill:none" points="
  308.98,1423.18 308.98,123.472 
  "/>
<polyline clip-path="url(#clip432)" style="stroke:#000000; stroke-linecap:round; stroke-linejoin:round; stroke-width:2; stroke-opacity:0.1; fill:none" points="
  820.883,1423.18 820.883,123.472 
  "/>
<polyline clip-path="url(#clip432)" style="stroke:#000000; stroke-linecap:round; stroke-linejoin:round; stroke-width:2; stroke-opacity:0.1; fill:none" points="
  1332.79,1423.18 1332.79,123.472 
  "/>
<polyline clip-path="url(#clip432)" style="stroke:#000000; stroke-linecap:round; stroke-linejoin:round; stroke-width:2; stroke-opacity:0.1; fill:none" points="
  1844.69,1423.18 1844.69,123.472 
  "/>
<polyline clip-path="url(#clip430)" style="stroke:#000000; stroke-linecap:round; stroke-linejoin:round; stroke-width:4; stroke-opacity:1; fill:none" points="
  212.459,1423.18 2352.76,1423.18 
  "/>
<polyline clip-path="url(#clip430)" style="stroke:#000000; stroke-linecap:round; stroke-linejoin:round; stroke-width:4; stroke-opacity:1; fill:none" points="
  308.98,1423.18 308.98,1404.28 
  "/>
<polyline clip-path="url(#clip430)" style="stroke:#000000; stroke-linecap:round; stroke-linejoin:round; stroke-width:4; stroke-opacity:1; fill:none" points="
  820.883,1423.18 820.883,1404.28 
  "/>
<polyline clip-path="url(#clip430)" style="stroke:#000000; stroke-linecap:round; stroke-linejoin:round; stroke-width:4; stroke-opacity:1; fill:none" points="
  1332.79,1423.18 1332.79,1404.28 
  "/>
<polyline clip-path="url(#clip430)" style="stroke:#000000; stroke-linecap:round; stroke-linejoin:round; stroke-width:4; stroke-opacity:1; fill:none" points="
  1844.69,1423.18 1844.69,1404.28 
  "/>
<path clip-path="url(#clip430)" d="M263.042 1468.75 L292.718 1468.75 L292.718 1472.69 L263.042 1472.69 L263.042 1468.75 Z" fill="#000000" fill-rule="evenodd" fill-opacity="1" /><path clip-path="url(#clip430)" d="M303.621 1481.64 L311.26 1481.64 L311.26 1455.28 L302.95 1456.95 L302.95 1452.69 L311.214 1451.02 L315.889 1451.02 L315.889 1481.64 L323.528 1481.64 L323.528 1485.58 L303.621 1485.58 L303.621 1481.64 Z" fill="#000000" fill-rule="evenodd" fill-opacity="1" /><path clip-path="url(#clip430)" d="M342.973 1454.1 Q339.362 1454.1 337.533 1457.66 Q335.727 1461.2 335.727 1468.33 Q335.727 1475.44 337.533 1479.01 Q339.362 1482.55 342.973 1482.55 Q346.607 1482.55 348.412 1479.01 Q350.241 1475.44 350.241 1468.33 Q350.241 1461.2 348.412 1457.66 Q346.607 1454.1 342.973 1454.1 M342.973 1450.39 Q348.783 1450.39 351.838 1455 Q354.917 1459.58 354.917 1468.33 Q354.917 1477.06 351.838 1481.67 Q348.783 1486.25 342.973 1486.25 Q337.162 1486.25 334.084 1481.67 Q331.028 1477.06 331.028 1468.33 Q331.028 1459.58 334.084 1455 Q337.162 1450.39 342.973 1450.39 Z" fill="#000000" fill-rule="evenodd" fill-opacity="1" /><path clip-path="url(#clip430)" d="M790.524 1468.75 L820.2 1468.75 L820.2 1472.69 L790.524 1472.69 L790.524 1468.75 Z" fill="#000000" fill-rule="evenodd" fill-opacity="1" /><path clip-path="url(#clip430)" d="M830.339 1451.02 L848.695 1451.02 L848.695 1454.96 L834.621 1454.96 L834.621 1463.43 Q835.64 1463.08 836.658 1462.92 Q837.677 1462.73 838.695 1462.73 Q844.482 1462.73 847.862 1465.9 Q851.241 1469.08 851.241 1474.49 Q851.241 1480.07 847.769 1483.17 Q844.297 1486.25 837.978 1486.25 Q835.802 1486.25 833.533 1485.88 Q831.288 1485.51 828.881 1484.77 L828.881 1480.07 Q830.964 1481.2 833.186 1481.76 Q835.408 1482.32 837.885 1482.32 Q841.89 1482.32 844.228 1480.21 Q846.566 1478.1 846.566 1474.49 Q846.566 1470.88 844.228 1468.77 Q841.89 1466.67 837.885 1466.67 Q836.01 1466.67 834.135 1467.08 Q832.283 1467.5 830.339 1468.38 L830.339 1451.02 Z" fill="#000000" fill-rule="evenodd" fill-opacity="1" /><path clip-path="url(#clip430)" d="M1332.79 1454.1 Q1329.17 1454.1 1327.35 1457.66 Q1325.54 1461.2 1325.54 1468.33 Q1325.54 1475.44 1327.35 1479.01 Q1329.17 1482.55 1332.79 1482.55 Q1336.42 1482.55 1338.23 1479.01 Q1340.05 1475.44 1340.05 1468.33 Q1340.05 1461.2 1338.23 1457.66 Q1336.42 1454.1 1332.79 1454.1 M1332.79 1450.39 Q1338.6 1450.39 1341.65 1455 Q1344.73 1459.58 1344.73 1468.33 Q1344.73 1477.06 1341.65 1481.67 Q1338.6 1486.25 1332.79 1486.25 Q1326.98 1486.25 1323.9 1481.67 Q1320.84 1477.06 1320.84 1468.33 Q1320.84 1459.58 1323.9 1455 Q1326.98 1450.39 1332.79 1450.39 Z" fill="#000000" fill-rule="evenodd" fill-opacity="1" /><path clip-path="url(#clip430)" d="M1834.97 1451.02 L1853.32 1451.02 L1853.32 1454.96 L1839.25 1454.96 L1839.25 1463.43 Q1840.27 1463.08 1841.29 1462.92 Q1842.3 1462.73 1843.32 1462.73 Q1849.11 1462.73 1852.49 1465.9 Q1855.87 1469.08 1855.87 1474.49 Q1855.87 1480.07 1852.4 1483.17 Q1848.93 1486.25 1842.61 1486.25 Q1840.43 1486.25 1838.16 1485.88 Q1835.92 1485.51 1833.51 1484.77 L1833.51 1480.07 Q1835.59 1481.2 1837.81 1481.76 Q1840.04 1482.32 1842.51 1482.32 Q1846.52 1482.32 1848.86 1480.21 Q1851.19 1478.1 1851.19 1474.49 Q1851.19 1470.88 1848.86 1468.77 Q1846.52 1466.67 1842.51 1466.67 Q1840.64 1466.67 1838.76 1467.08 Q1836.91 1467.5 1834.97 1468.38 L1834.97 1451.02 Z" fill="#000000" fill-rule="evenodd" fill-opacity="1" /><path clip-path="url(#clip430)" d="M1287.81 1551.46 L1286.41 1544.11 Q1284.98 1536.57 1279.31 1536.57 Q1275.05 1536.57 1273.11 1540.07 Q1270.66 1544.46 1270.66 1550.25 Q1270.66 1557.25 1273.04 1560.6 Q1275.46 1564 1279.31 1564 Q1283.58 1564 1285.87 1557.22 L1287.81 1551.46 M1291.09 1541.72 L1294.24 1532.4 L1299.46 1532.4 L1292.94 1551.72 L1294.21 1558.69 Q1294.5 1560.25 1295.61 1561.55 Q1296.91 1563.08 1297.93 1563.08 L1300.73 1563.08 L1300.73 1568.04 L1297.23 1568.04 Q1294.24 1568.04 1291.57 1565.37 Q1290.26 1564.03 1289.72 1561.23 Q1288.26 1564.77 1285.27 1567.53 Q1283.86 1568.84 1279.31 1568.84 Q1271.83 1568.84 1268.2 1564 Q1264.48 1559 1264.48 1550.25 Q1264.48 1540.89 1268.52 1536.5 Q1273.01 1531.6 1279.31 1531.6 Q1289.21 1531.6 1291.09 1541.72 Z" fill="#000000" fill-rule="evenodd" fill-opacity="1" /><polyline clip-path="url(#clip432)" style="stroke:#000000; stroke-linecap:round; stroke-linejoin:round; stroke-width:2; stroke-opacity:0.1; fill:none" points="
  212.459,1301.83 2352.76,1301.83 
  "/>
<polyline clip-path="url(#clip432)" style="stroke:#000000; stroke-linecap:round; stroke-linejoin:round; stroke-width:2; stroke-opacity:0.1; fill:none" points="
  212.459,1131.76 2352.76,1131.76 
  "/>
<polyline clip-path="url(#clip432)" style="stroke:#000000; stroke-linecap:round; stroke-linejoin:round; stroke-width:2; stroke-opacity:0.1; fill:none" points="
  212.459,961.68 2352.76,961.68 
  "/>
<polyline clip-path="url(#clip432)" style="stroke:#000000; stroke-linecap:round; stroke-linejoin:round; stroke-width:2; stroke-opacity:0.1; fill:none" points="
  212.459,791.604 2352.76,791.604 
  "/>
<polyline clip-path="url(#clip432)" style="stroke:#000000; stroke-linecap:round; stroke-linejoin:round; stroke-width:2; stroke-opacity:0.1; fill:none" points="
  212.459,621.528 2352.76,621.528 
  "/>
<polyline clip-path="url(#clip432)" style="stroke:#000000; stroke-linecap:round; stroke-linejoin:round; stroke-width:2; stroke-opacity:0.1; fill:none" points="
  212.459,451.452 2352.76,451.452 
  "/>
<polyline clip-path="url(#clip432)" style="stroke:#000000; stroke-linecap:round; stroke-linejoin:round; stroke-width:2; stroke-opacity:0.1; fill:none" points="
  212.459,281.376 2352.76,281.376 
  "/>
<polyline clip-path="url(#clip430)" style="stroke:#000000; stroke-linecap:round; stroke-linejoin:round; stroke-width:4; stroke-opacity:1; fill:none" points="
  212.459,1423.18 212.459,123.472 
  "/>
<polyline clip-path="url(#clip430)" style="stroke:#000000; stroke-linecap:round; stroke-linejoin:round; stroke-width:4; stroke-opacity:1; fill:none" points="
  212.459,1301.83 231.357,1301.83 
  "/>
<polyline clip-path="url(#clip430)" style="stroke:#000000; stroke-linecap:round; stroke-linejoin:round; stroke-width:4; stroke-opacity:1; fill:none" points="
  212.459,1131.76 231.357,1131.76 
  "/>
<polyline clip-path="url(#clip430)" style="stroke:#000000; stroke-linecap:round; stroke-linejoin:round; stroke-width:4; stroke-opacity:1; fill:none" points="
  212.459,961.68 231.357,961.68 
  "/>
<polyline clip-path="url(#clip430)" style="stroke:#000000; stroke-linecap:round; stroke-linejoin:round; stroke-width:4; stroke-opacity:1; fill:none" points="
  212.459,791.604 231.357,791.604 
  "/>
<polyline clip-path="url(#clip430)" style="stroke:#000000; stroke-linecap:round; stroke-linejoin:round; stroke-width:4; stroke-opacity:1; fill:none" points="
  212.459,621.528 231.357,621.528 
  "/>
<polyline clip-path="url(#clip430)" style="stroke:#000000; stroke-linecap:round; stroke-linejoin:round; stroke-width:4; stroke-opacity:1; fill:none" points="
  212.459,451.452 231.357,451.452 
  "/>
<polyline clip-path="url(#clip430)" style="stroke:#000000; stroke-linecap:round; stroke-linejoin:round; stroke-width:4; stroke-opacity:1; fill:none" points="
  212.459,281.376 231.357,281.376 
  "/>
<path clip-path="url(#clip430)" d="M114.26 1302.28 L143.936 1302.28 L143.936 1306.22 L114.26 1306.22 L114.26 1302.28 Z" fill="#000000" fill-rule="evenodd" fill-opacity="1" /><path clip-path="url(#clip430)" d="M166.876 1288.63 L155.07 1307.07 L166.876 1307.07 L166.876 1288.63 M165.649 1284.55 L171.528 1284.55 L171.528 1307.07 L176.459 1307.07 L176.459 1310.96 L171.528 1310.96 L171.528 1319.11 L166.876 1319.11 L166.876 1310.96 L151.274 1310.96 L151.274 1306.45 L165.649 1284.55 Z" fill="#000000" fill-rule="evenodd" fill-opacity="1" /><path clip-path="url(#clip430)" d="M116.343 1132.21 L146.019 1132.21 L146.019 1136.14 L116.343 1136.14 L116.343 1132.21 Z" fill="#000000" fill-rule="evenodd" fill-opacity="1" /><path clip-path="url(#clip430)" d="M160.14 1145.1 L176.459 1145.1 L176.459 1149.04 L154.515 1149.04 L154.515 1145.1 Q157.177 1142.35 161.76 1137.72 Q166.366 1133.06 167.547 1131.72 Q169.792 1129.2 170.672 1127.46 Q171.575 1125.7 171.575 1124.01 Q171.575 1121.26 169.63 1119.52 Q167.709 1117.79 164.607 1117.79 Q162.408 1117.79 159.954 1118.55 Q157.524 1119.31 154.746 1120.86 L154.746 1116.14 Q157.57 1115.01 160.024 1114.43 Q162.477 1113.85 164.515 1113.85 Q169.885 1113.85 173.079 1116.54 Q176.274 1119.22 176.274 1123.71 Q176.274 1125.84 175.464 1127.76 Q174.677 1129.66 172.57 1132.25 Q171.991 1132.92 168.889 1136.14 Q165.788 1139.34 160.14 1145.1 Z" fill="#000000" fill-rule="evenodd" fill-opacity="1" /><path clip-path="url(#clip430)" d="M164.515 947.479 Q160.903 947.479 159.075 951.043 Q157.269 954.585 157.269 961.715 Q157.269 968.821 159.075 972.386 Q160.903 975.928 164.515 975.928 Q168.149 975.928 169.954 972.386 Q171.783 968.821 171.783 961.715 Q171.783 954.585 169.954 951.043 Q168.149 947.479 164.515 947.479 M164.515 943.775 Q170.325 943.775 173.38 948.381 Q176.459 952.965 176.459 961.715 Q176.459 970.442 173.38 975.048 Q170.325 979.631 164.515 979.631 Q158.704 979.631 155.626 975.048 Q152.57 970.442 152.57 961.715 Q152.57 952.965 155.626 948.381 Q158.704 943.775 164.515 943.775 Z" fill="#000000" fill-rule="evenodd" fill-opacity="1" /><path clip-path="url(#clip430)" d="M160.14 804.949 L176.459 804.949 L176.459 808.884 L154.515 808.884 L154.515 804.949 Q157.177 802.194 161.76 797.565 Q166.366 792.912 167.547 791.569 Q169.792 789.046 170.672 787.31 Q171.575 785.551 171.575 783.861 Q171.575 781.106 169.63 779.37 Q167.709 777.634 164.607 777.634 Q162.408 777.634 159.954 778.398 Q157.524 779.162 154.746 780.713 L154.746 775.991 Q157.57 774.856 160.024 774.278 Q162.477 773.699 164.515 773.699 Q169.885 773.699 173.079 776.384 Q176.274 779.069 176.274 783.56 Q176.274 785.69 175.464 787.611 Q174.677 789.509 172.57 792.102 Q171.991 792.773 168.889 795.991 Q165.788 799.185 160.14 804.949 Z" fill="#000000" fill-rule="evenodd" fill-opacity="1" /><path clip-path="url(#clip430)" d="M166.876 608.322 L155.07 626.771 L166.876 626.771 L166.876 608.322 M165.649 604.248 L171.528 604.248 L171.528 626.771 L176.459 626.771 L176.459 630.66 L171.528 630.66 L171.528 638.808 L166.876 638.808 L166.876 630.66 L151.274 630.66 L151.274 626.146 L165.649 604.248 Z" fill="#000000" fill-rule="evenodd" fill-opacity="1" /><path clip-path="url(#clip430)" d="M164.931 449.589 Q161.783 449.589 159.931 451.742 Q158.103 453.894 158.103 457.644 Q158.103 461.371 159.931 463.547 Q161.783 465.7 164.931 465.7 Q168.079 465.7 169.908 463.547 Q171.76 461.371 171.76 457.644 Q171.76 453.894 169.908 451.742 Q168.079 449.589 164.931 449.589 M174.214 434.936 L174.214 439.195 Q172.454 438.362 170.649 437.922 Q168.866 437.482 167.107 437.482 Q162.477 437.482 160.024 440.607 Q157.593 443.732 157.246 450.052 Q158.612 448.038 160.672 446.973 Q162.732 445.885 165.209 445.885 Q170.417 445.885 173.427 449.056 Q176.459 452.205 176.459 457.644 Q176.459 462.968 173.311 466.186 Q170.163 469.404 164.931 469.404 Q158.936 469.404 155.765 464.82 Q152.593 460.214 152.593 451.487 Q152.593 443.293 156.482 438.431 Q160.371 433.547 166.922 433.547 Q168.681 433.547 170.464 433.894 Q172.269 434.242 174.214 434.936 Z" fill="#000000" fill-rule="evenodd" fill-opacity="1" /><path clip-path="url(#clip430)" d="M164.607 282.244 Q161.274 282.244 159.353 284.027 Q157.454 285.809 157.454 288.934 Q157.454 292.059 159.353 293.842 Q161.274 295.624 164.607 295.624 Q167.94 295.624 169.862 293.842 Q171.783 292.036 171.783 288.934 Q171.783 285.809 169.862 284.027 Q167.964 282.244 164.607 282.244 M159.931 280.254 Q156.922 279.513 155.232 277.453 Q153.566 275.393 153.566 272.43 Q153.566 268.286 156.505 265.879 Q159.468 263.471 164.607 263.471 Q169.769 263.471 172.709 265.879 Q175.649 268.286 175.649 272.43 Q175.649 275.393 173.959 277.453 Q172.292 279.513 169.306 280.254 Q172.686 281.041 174.561 283.332 Q176.459 285.624 176.459 288.934 Q176.459 293.957 173.38 296.642 Q170.325 299.328 164.607 299.328 Q158.89 299.328 155.811 296.642 Q152.755 293.957 152.755 288.934 Q152.755 285.624 154.653 283.332 Q156.552 281.041 159.931 280.254 M158.218 272.869 Q158.218 275.555 159.885 277.059 Q161.575 278.564 164.607 278.564 Q167.616 278.564 169.306 277.059 Q171.019 275.555 171.019 272.869 Q171.019 270.184 169.306 268.68 Q167.616 267.175 164.607 267.175 Q161.575 267.175 159.885 268.68 Q158.218 270.184 158.218 272.869 Z" fill="#000000" fill-rule="evenodd" fill-opacity="1" /><path clip-path="url(#clip430)" d="M61.808 782.843 L77.5631 782.843 L77.5631 788.731 L28.579 788.731 Q14.0652 788.731 14.0652 775.172 Q14.0652 761.358 26.3192 761.358 Q35.0402 761.358 38.223 766.833 Q41.0876 757.921 49.5858 757.921 Q64.6726 757.921 64.6726 773.262 Q64.6726 780.01 61.808 782.843 M54.1691 782.843 Q59.6755 779.31 59.6755 773.04 Q59.6755 763.873 49.6813 763.873 Q40.7057 763.873 41.4059 778.641 L35.995 778.641 Q35.995 767.088 25.8099 767.088 Q18.8395 767.088 18.8395 774.535 Q18.8395 782.843 28.77 782.843 L54.1691 782.843 Z" fill="#000000" fill-rule="evenodd" fill-opacity="1" /><path clip-path="url(#clip430)" d="M1061.77 34.1734 Q1060.52 33.4443 1059.02 33.1202 Q1057.56 32.7556 1055.78 32.7556 Q1049.46 32.7556 1046.05 36.8875 Q1042.69 40.9789 1042.69 48.6757 L1042.69 72.576 L1035.2 72.576 L1035.2 27.2059 L1042.69 27.2059 L1042.69 34.2544 Q1045.04 30.1225 1048.81 28.1376 Q1052.58 26.1121 1057.96 26.1121 Q1058.73 26.1121 1059.67 26.2337 Q1060.6 26.3147 1061.73 26.5172 L1061.77 34.1734 Z" fill="#000000" fill-rule="evenodd" fill-opacity="1" /><path clip-path="url(#clip430)" d="M1091.14 58.8434 L1091.14 60.8689 L1069.55 60.8689 Q1069.87 65.1628 1072.47 67.4314 Q1075.1 69.6999 1079.76 69.6999 Q1082.47 69.6999 1085.02 69.0922 Q1087.54 68.5251 1090.05 67.3503 L1090.05 71.2797 Q1087.54 72.2519 1084.86 72.738 Q1082.23 73.2241 1079.47 73.2241 Q1072.63 73.2241 1068.66 69.6999 Q1064.65 66.1756 1064.65 60.1397 Q1064.65 53.9013 1068.46 50.215 Q1072.22 46.5692 1078.66 46.5692 Q1084.42 46.5692 1087.78 49.8504 Q1091.14 53.1722 1091.14 58.8434 M1086.44 57.5877 Q1086.4 54.1849 1084.3 52.1189 Q1082.19 50.0935 1078.71 50.0935 Q1074.78 50.0935 1072.43 52.0784 Q1070.08 54.0229 1069.71 57.5877 L1086.44 57.5877 Z" fill="#000000" fill-rule="evenodd" fill-opacity="1" /><path clip-path="url(#clip430)" d="M1137.77 65.7705 L1137.77 89.8329 L1130.27 89.8329 L1130.27 27.2059 L1137.77 27.2059 L1137.77 34.0924 Q1140.12 30.0415 1143.68 28.0971 Q1147.29 26.1121 1152.27 26.1121 Q1160.53 26.1121 1165.68 32.6746 Q1170.86 39.2371 1170.86 49.9314 Q1170.86 60.6258 1165.68 67.1883 Q1160.53 73.7508 1152.27 73.7508 Q1147.29 73.7508 1143.68 71.8063 Q1140.12 69.8214 1137.77 65.7705 M1163.13 49.9314 Q1163.13 41.7081 1159.72 37.0496 Q1156.36 32.3505 1150.45 32.3505 Q1144.53 32.3505 1141.13 37.0496 Q1137.77 41.7081 1137.77 49.9314 Q1137.77 58.1548 1141.13 62.8538 Q1144.53 67.5124 1150.45 67.5124 Q1156.36 67.5124 1159.72 62.8538 Q1163.13 58.1548 1163.13 49.9314 Z" fill="#000000" fill-rule="evenodd" fill-opacity="1" /><path clip-path="url(#clip430)" d="M1209.51 34.1734 Q1208.25 33.4443 1206.75 33.1202 Q1205.3 32.7556 1203.51 32.7556 Q1197.19 32.7556 1193.79 36.8875 Q1190.43 40.9789 1190.43 48.6757 L1190.43 72.576 L1182.93 72.576 L1182.93 27.2059 L1190.43 27.2059 L1190.43 34.2544 Q1192.78 30.1225 1196.55 28.1376 Q1200.31 26.1121 1205.7 26.1121 Q1206.47 26.1121 1207.4 26.2337 Q1208.33 26.3147 1209.47 26.5172 L1209.51 34.1734 Z" fill="#000000" fill-rule="evenodd" fill-opacity="1" /><path clip-path="url(#clip430)" d="M1233.09 32.4315 Q1227.09 32.4315 1223.61 37.1306 Q1220.12 41.7891 1220.12 49.9314 Q1220.12 58.0738 1223.57 62.7728 Q1227.05 67.4314 1233.09 67.4314 Q1239.04 67.4314 1242.52 62.7323 Q1246.01 58.0333 1246.01 49.9314 Q1246.01 41.8701 1242.52 37.1711 Q1239.04 32.4315 1233.09 32.4315 M1233.09 26.1121 Q1242.81 26.1121 1248.36 32.4315 Q1253.91 38.7509 1253.91 49.9314 Q1253.91 61.0714 1248.36 67.4314 Q1242.81 73.7508 1233.09 73.7508 Q1223.32 73.7508 1217.77 67.4314 Q1212.26 61.0714 1212.26 49.9314 Q1212.26 38.7509 1217.77 32.4315 Q1223.32 26.1121 1233.09 26.1121 Z" fill="#000000" fill-rule="evenodd" fill-opacity="1" /><path clip-path="url(#clip430)" d="M1266.26 27.2059 L1273.72 27.2059 L1273.72 73.3862 Q1273.72 82.0551 1270.39 85.944 Q1267.11 89.8329 1259.78 89.8329 L1256.94 89.8329 L1256.94 83.5134 L1258.93 83.5134 Q1263.18 83.5134 1264.72 81.5285 Q1266.26 79.5841 1266.26 73.3862 L1266.26 27.2059 M1266.26 9.54393 L1273.72 9.54393 L1273.72 18.9825 L1266.26 18.9825 L1266.26 9.54393 Z" fill="#000000" fill-rule="evenodd" fill-opacity="1" /><path clip-path="url(#clip430)" d="M1328.12 48.0275 L1328.12 51.6733 L1293.85 51.6733 Q1294.33 59.3701 1298.47 63.421 Q1302.64 67.4314 1310.05 67.4314 Q1314.35 67.4314 1318.36 66.3781 Q1322.41 65.3249 1326.38 63.2184 L1326.38 70.267 Q1322.37 71.9684 1318.15 72.8596 Q1313.94 73.7508 1309.61 73.7508 Q1298.75 73.7508 1292.39 67.4314 Q1286.07 61.1119 1286.07 50.3365 Q1286.07 39.1965 1292.07 32.6746 Q1298.1 26.1121 1308.31 26.1121 Q1317.47 26.1121 1322.77 32.0264 Q1328.12 37.9003 1328.12 48.0275 M1320.67 45.84 Q1320.58 39.7232 1317.22 36.0774 Q1313.9 32.4315 1308.39 32.4315 Q1302.15 32.4315 1298.39 35.9558 Q1294.66 39.4801 1294.09 45.8805 L1320.67 45.84 Z" fill="#000000" fill-rule="evenodd" fill-opacity="1" /><path clip-path="url(#clip430)" d="M1373 28.9478 L1373 35.9153 Q1369.84 34.1734 1366.64 33.3227 Q1363.48 32.4315 1360.24 32.4315 Q1352.99 32.4315 1348.98 37.0496 Q1344.97 41.6271 1344.97 49.9314 Q1344.97 58.2358 1348.98 62.8538 Q1352.99 67.4314 1360.24 67.4314 Q1363.48 67.4314 1366.64 66.5807 Q1369.84 65.6895 1373 63.9476 L1373 70.8341 Q1369.88 72.2924 1366.52 73.0216 Q1363.2 73.7508 1359.43 73.7508 Q1349.18 73.7508 1343.15 67.3098 Q1337.11 60.8689 1337.11 49.9314 Q1337.11 38.832 1343.19 32.472 Q1349.31 26.1121 1359.92 26.1121 Q1363.36 26.1121 1366.64 26.8413 Q1369.92 27.5299 1373 28.9478 Z" fill="#000000" fill-rule="evenodd" fill-opacity="1" /><path clip-path="url(#clip430)" d="M1393.34 14.324 L1393.34 27.2059 L1408.69 27.2059 L1408.69 32.9987 L1393.34 32.9987 L1393.34 57.6282 Q1393.34 63.1779 1394.84 64.7578 Q1396.38 66.3376 1401.04 66.3376 L1408.69 66.3376 L1408.69 72.576 L1401.04 72.576 Q1392.41 72.576 1389.13 69.3758 Q1385.84 66.1351 1385.84 57.6282 L1385.84 32.9987 L1380.38 32.9987 L1380.38 27.2059 L1385.84 27.2059 L1385.84 14.324 L1393.34 14.324 Z" fill="#000000" fill-rule="evenodd" fill-opacity="1" /><path clip-path="url(#clip430)" d="M1418.49 27.2059 L1425.95 27.2059 L1425.95 72.576 L1418.49 72.576 L1418.49 27.2059 M1418.49 9.54393 L1425.95 9.54393 L1425.95 18.9825 L1418.49 18.9825 L1418.49 9.54393 Z" fill="#000000" fill-rule="evenodd" fill-opacity="1" /><path clip-path="url(#clip430)" d="M1459.13 32.4315 Q1453.13 32.4315 1449.65 37.1306 Q1446.16 41.7891 1446.16 49.9314 Q1446.16 58.0738 1449.61 62.7728 Q1453.09 67.4314 1459.13 67.4314 Q1465.08 67.4314 1468.56 62.7323 Q1472.05 58.0333 1472.05 49.9314 Q1472.05 41.8701 1468.56 37.1711 Q1465.08 32.4315 1459.13 32.4315 M1459.13 26.1121 Q1468.85 26.1121 1474.4 32.4315 Q1479.95 38.7509 1479.95 49.9314 Q1479.95 61.0714 1474.4 67.4314 Q1468.85 73.7508 1459.13 73.7508 Q1449.36 73.7508 1443.81 67.4314 Q1438.3 61.0714 1438.3 49.9314 Q1438.3 38.7509 1443.81 32.4315 Q1449.36 26.1121 1459.13 26.1121 Z" fill="#000000" fill-rule="evenodd" fill-opacity="1" /><path clip-path="url(#clip430)" d="M1530.02 45.1919 L1530.02 72.576 L1522.56 72.576 L1522.56 45.4349 Q1522.56 38.994 1520.05 35.7938 Q1517.54 32.5936 1512.52 32.5936 Q1506.48 32.5936 1503 36.4419 Q1499.51 40.2903 1499.51 46.9338 L1499.51 72.576 L1492.02 72.576 L1492.02 27.2059 L1499.51 27.2059 L1499.51 34.2544 Q1502.19 30.163 1505.79 28.1376 Q1509.44 26.1121 1514.18 26.1121 Q1522 26.1121 1526.01 30.9732 Q1530.02 35.7938 1530.02 45.1919 Z" fill="#000000" fill-rule="evenodd" fill-opacity="1" /><polyline clip-path="url(#clip432)" style="stroke:#000000; stroke-linecap:round; stroke-linejoin:round; stroke-width:4; stroke-opacity:1; fill:none" points="
  1833.03,846.14 1833.52,825.503 1831.6,804.963 1827.4,784.669 1821.06,764.755 1812.72,745.336 1802.52,726.512 1790.61,708.37 1777.11,690.985 1762.18,674.421 
  1745.92,658.734 1728.48,643.971 1709.97,630.171 1690.49,617.366 1670.17,605.581 1649.12,594.837 1627.42,585.145 1605.19,576.515 1582.52,568.949 1559.5,562.446 
  1536.21,556.998 1512.75,552.595 1489.18,549.223 1465.6,546.864 1442.05,545.496 1418.63,545.095 1395.37,545.634 1372.35,547.084 1349.62,549.415 1327.22,552.594 
  1305.2,556.588 1283.6,561.363 1262.45,566.883 1241.79,573.114 1221.65,580.02 1202.04,587.568 1182.99,595.722 1164.52,604.45 1146.65,613.72 1129.37,623.5 
  1112.72,633.762 1096.68,644.476 1081.27,655.618 1066.5,667.162 1052.36,679.087 1038.87,691.372 1026.04,703.999 1013.87,716.952 1002.37,730.217 991.568,743.781 
  981.482,757.636 972.147,771.771 963.607,786.177 955.921,800.846 949.162,815.766 943.425,830.921 938.824,846.288 935.496,861.833 933.59,877.504 933.269,893.233 
  934.688,908.925 937.978,924.463 943.225,939.707 950.443,954.501 959.563,968.688 970.427,982.119 982.799,994.672 996.385,1006.26 1010.86,1016.83 1025.92,1026.39 
  1041.26,1034.95 1056.63,1042.57 1071.84,1049.31 1086.73,1055.27 1101.19,1060.52 1115.17,1065.13 1128.61,1069.19 1141.52,1072.77 1153.89,1075.92 1165.74,1078.7 
  1177.09,1081.16 1187.97,1083.33 1198.42,1085.25 1208.46,1086.96 1218.14,1088.48 1227.47,1089.84 1236.5,1091.04 1245.25,1092.11 1253.76,1093.06 1262.06,1093.9 
  1270.16,1094.65 1278.09,1095.3 1285.89,1095.88 1293.56,1096.38 1301.14,1096.81 1308.65,1097.17 1316.1,1097.47 1323.52,1097.71 1330.93,1097.89 1338.35,1098.01 
  1345.8,1098.07 1353.3,1098.07 1360.88,1098.02 1368.55,1097.89 1376.34,1097.71 1384.27,1097.45 1392.37,1097.12 1400.66,1096.7 1409.18,1096.2 1417.95,1095.6 
  1427,1094.9 1436.38,1094.07 1446.12,1093.11 1456.26,1092 1466.84,1090.72 1477.91,1089.23 1489.52,1087.52 1501.71,1085.55 1514.54,1083.27 1528.06,1080.65 
  1542.32,1077.61 1557.35,1074.11 1573.2,1070.05 1589.87,1065.36 1607.36,1059.94 1625.63,1053.68 1644.59,1046.48 1664.12,1038.21 1684.01,1028.76 1704.01,1018.05 
  1723.79,1005.99 1742.98,992.566 1761.16,977.775 1777.95,961.68 
  "/>
<polyline clip-path="url(#clip432)" style="stroke:#000000; stroke-linecap:round; stroke-linejoin:round; stroke-width:4; stroke-opacity:1; fill:none" points="
  1971.76,961.68 1986.91,937.104 
  "/>
<polyline clip-path="url(#clip432)" style="stroke:#000000; stroke-linecap:round; stroke-linejoin:round; stroke-width:4; stroke-opacity:1; fill:none" points="
  2013.27,831.714 2011.54,804.912 2006.85,778.364 1999.43,752.232 1989.52,726.651 1977.33,701.732 1963.05,677.569 1946.88,654.239 1928.97,631.81 1909.48,610.341 
  1888.54,589.883 1866.28,570.48 1842.82,552.17 1818.26,534.986 1792.73,518.957 1766.32,504.106 1739.13,490.451 1711.26,478.006 1682.8,466.781 1653.84,456.781 
  1624.48,448.006 1594.8,440.452 1564.87,434.114 1534.78,428.98 1504.6,425.035 1474.41,422.263 1444.27,420.642 1414.25,420.151 1384.41,420.762 1354.8,422.45 
  1325.49,425.185 1296.51,428.935 1267.91,433.67 1239.73,439.357 1212.02,445.962 1184.79,453.452 1158.08,461.793 1131.92,470.954 1106.33,480.9 1081.32,491.601 
  1056.91,503.027 1033.11,515.149 1009.93,527.939 987.385,541.373 965.471,555.428 944.197,570.085 923.569,585.327 903.594,601.139 884.282,617.512 865.649,634.44 
  847.718,651.92 830.521,669.955 814.109,688.549 798.551,707.711 783.942,727.451 770.41,747.776 758.124,768.692 747.298,790.19 738.194,812.247 731.118,834.81 
  726.409,857.792 724.414,881.06 725.456,904.43 729.782,927.668 737.524,950.503 748.66,972.648 762.999,993.819 780.191,1013.77 799.768,1032.31 821.193,1049.33 
  843.913,1064.77 867.413,1078.64 891.238,1091.01 915.017,1101.98 938.462,1111.66 961.366,1120.19 983.588,1127.68 1005.04,1134.27 1025.69,1140.05 1045.51,1145.13 
  1064.53,1149.6 1082.77,1153.53 1100.27,1157 1117.08,1160.06 1133.24,1162.77 1148.81,1165.15 1163.84,1167.26 1178.38,1169.13 1192.46,1170.77 1206.15,1172.22 
  1219.48,1173.48 1232.5,1174.59 1245.24,1175.55 1257.75,1176.38 1270.06,1177.08 1282.21,1177.66 1294.22,1178.13 1306.15,1178.5 1318,1178.76 1329.83,1178.92 
  1341.66,1178.98 1353.52,1178.95 1365.45,1178.81 1377.48,1178.56 1389.64,1178.22 1401.97,1177.75 1414.5,1177.17 1427.27,1176.46 1440.33,1175.62 1453.71,1174.62 
  1467.45,1173.46 1481.61,1172.11 1496.24,1170.57 1511.38,1168.79 1527.09,1166.76 1543.42,1164.43 1560.45,1161.78 1578.22,1158.74 1596.8,1155.27 1616.24,1151.31 
  1636.6,1146.77 1657.92,1141.57 1680.22,1135.62 1703.51,1128.79 1727.76,1120.97 1752.88,1112.02 1778.76,1101.8 1805.18,1090.15 1831.86,1076.95 1858.42,1062.07 
  1884.41,1045.44 1909.29,1027.02 1932.5,1006.84 1953.49,985 1971.76,961.68 
  "/>
<polyline clip-path="url(#clip432)" style="stroke:#000000; stroke-linecap:round; stroke-linejoin:round; stroke-width:4; stroke-opacity:1; fill:none" points="
  2270.88,961.68 2285.25,925.895 
  "/>
<polyline clip-path="url(#clip432)" style="stroke:#000000; stroke-linecap:round; stroke-linejoin:round; stroke-width:4; stroke-opacity:1; fill:none" points="
  2289.34,778.987 2278.76,743.192 2264.56,708.278 2247.21,674.384 2227.16,641.605 2204.77,610.002 2180.34,579.619 2154.12,550.484 2126.32,522.622 2097.08,496.053 
  2066.55,470.794 2034.86,446.864 2002.1,424.281 1968.36,403.061 1933.75,383.22 1898.33,364.772 1862.2,347.729 1825.43,332.101 1788.1,317.895 1750.29,305.115 
  1712.07,293.762 1673.52,283.835 1634.72,275.326 1595.73,268.23 1556.63,262.532 1517.48,258.22 1478.35,255.275 1439.29,253.677 1400.38,253.404 1361.66,254.431 
  1323.19,256.732 1285.02,260.279 1247.19,265.041 1209.74,270.989 1172.7,278.091 1136.12,286.315 1100.01,295.63 1064.41,306.005 1029.32,317.409 994.773,329.812 
  960.769,343.187 927.316,357.507 894.42,372.749 862.079,388.892 830.292,405.92 799.054,423.82 768.361,442.584 738.211,462.209 708.604,482.702 679.549,504.072 
  651.067,526.341 623.195,549.536 595.998,573.693 569.574,598.858 544.068,625.08 519.686,652.412 496.709,680.901 475.505,710.581 456.538,741.46 440.365,773.501 
  427.619,806.602 418.972,840.584 415.068,875.171 416.448,909.994 423.46,944.606 436.192,978.514 454.435,1011.22 477.695,1042.29 505.252,1071.34 536.244,1098.15 
  569.766,1122.57 604.948,1144.6 641.016,1164.3 677.327,1181.8 713.371,1197.28 748.773,1210.92 783.267,1222.91 816.686,1233.45 848.933,1242.71 879.97,1250.84 
  909.799,1257.99 938.451,1264.28 965.977,1269.82 992.439,1274.69 1017.91,1278.99 1042.46,1282.78 1066.16,1286.12 1089.1,1289.07 1111.34,1291.65 1132.95,1293.92 
  1154,1295.9 1174.55,1297.62 1194.68,1299.1 1214.42,1300.36 1233.85,1301.42 1253.02,1302.28 1271.98,1302.97 1290.79,1303.48 1309.49,1303.82 1328.13,1304 
  1346.76,1304.01 1365.44,1303.86 1384.21,1303.55 1403.13,1303.06 1422.24,1302.4 1441.6,1301.56 1461.27,1300.52 1481.3,1299.27 1501.74,1297.79 1522.67,1296.07 
  1544.15,1294.07 1566.24,1291.78 1589.03,1289.15 1612.57,1286.15 1636.96,1282.72 1662.27,1278.83 1688.58,1274.39 1715.97,1269.34 1744.52,1263.59 1774.29,1257.04 
  1805.33,1249.57 1837.69,1241.04 1871.36,1231.31 1906.29,1220.2 1942.38,1207.53 1979.45,1193.1 2017.19,1176.71 2055.22,1158.15 2092.99,1137.26 2129.81,1113.91 
  2164.91,1088.03 2197.41,1059.67 2226.42,1028.97 2251.13,996.183 2270.88,961.68 
  "/>
<polyline clip-path="url(#clip432)" style="stroke:#000000; stroke-linecap:round; stroke-linejoin:round; stroke-width:4; stroke-opacity:1; fill:none" stroke-dasharray="16, 10" points="
  1589.42,649.032 1610.45,641.049 1630.96,633.837 1650.83,627.028 1670.14,620.472 1689.02,614.374 1707.59,608.443 1725.94,602.89 1743.99,597.398 1761.78,592.178 
  1779.58,587.079 1797.28,582.367 1814.82,577.622 1832.28,573.033 1849.87,568.794 1867.33,564.486 1884.76,560.4 1902.13,556.388 1919.65,552.495 
  "/>
<polyline clip-path="url(#clip432)" style="stroke:#000000; stroke-linecap:round; stroke-linejoin:round; stroke-width:4; stroke-opacity:1; fill:none" stroke-dasharray="16, 10" points="
  2024.98,531.468 2042.65,528.139 2060.33,524.987 2078.01,521.866 2095.67,518.666 2113.3,515.39 2131.13,512.398 2149.06,509.551 2166.97,506.621 2184.85,503.6 
  2202.71,500.502 2220.61,497.63 2238.5,494.678 2256.38,491.653 2274.25,488.556 2292.12,485.394 
  "/>
<polyline clip-path="url(#clip432)" style="stroke:#000000; stroke-linecap:round; stroke-linejoin:round; stroke-width:4; stroke-opacity:1; fill:none" stroke-dasharray="16, 10" points="
  1589.42,1018.3 1610.48,1019.61 1630.97,1021.15 1650.82,1023.04 1670.16,1025.24 1688.99,1027.73 1707.6,1030.39 1725.94,1033.27 1744,1036.39 1761.77,1039.76 
  1779.6,1043.17 1797.28,1046.75 1814.82,1050.49 1832.28,1054.34 1849.85,1058.2 1867.34,1062.12 1884.77,1066.13 1902.14,1070.22 1919.68,1074.26 
  "/>
<polyline clip-path="url(#clip432)" style="stroke:#000000; stroke-linecap:round; stroke-linejoin:round; stroke-width:4; stroke-opacity:1; fill:none" stroke-dasharray="16, 10" points="
  2025.02,1099.28 2042.71,1103.48 2060.39,1107.72 2078.06,1111.99 2095.72,1116.29 2113.37,1120.62 2131.19,1124.86 2149.11,1129.07 2167.02,1133.29 2184.91,1137.54 
  2202.79,1141.82 2220.67,1146.12 2238.54,1150.43 2256.42,1154.76 2274.3,1159.11 2292.18,1163.46 
  "/>
<polyline clip-path="url(#clip432)" style="stroke:#000000; stroke-linecap:round; stroke-linejoin:round; stroke-width:4; stroke-opacity:1; fill:none" stroke-dasharray="16, 10" points="
  1481.09,619.978 1500.45,607.294 1519.39,595.56 1537.84,584.634 1555.81,574.295 1573.19,564.354 1590.36,555.028 1607.16,545.953 1623.72,537.295 1639.85,528.776 
  1656,520.687 1671.89,512.665 1687.73,505.051 1703.38,497.497 1719.04,490.187 1734.61,483.087 1750.04,476.016 1765.43,469.176 1780.95,462.559 
  "/>
<polyline clip-path="url(#clip432)" style="stroke:#000000; stroke-linecap:round; stroke-linejoin:round; stroke-width:4; stroke-opacity:1; fill:none" stroke-dasharray="16, 10" points="
  1873.5,425.061 1888.98,419.213 1904.42,413.363 1919.86,407.625 1935.31,402.038 1950.73,396.44 1966.27,390.918 1981.89,385.512 1997.54,380.274 2013.14,375.002 
  2028.69,369.695 2044.22,364.373 2059.79,359.221 2075.37,354.102 2090.92,348.962 2106.47,343.802 
  "/>
<polyline clip-path="url(#clip432)" style="stroke:#000000; stroke-linecap:round; stroke-linejoin:round; stroke-width:4; stroke-opacity:1; fill:none" stroke-dasharray="16, 10" points="
  1481.07,1049.06 1500.45,1053.34 1519.4,1057.65 1537.8,1062.06 1555.78,1066.55 1573.21,1071.2 1590.34,1075.92 1607.16,1080.76 1623.68,1085.74 1639.85,1090.81 
  1655.99,1095.92 1671.94,1101.13 1687.73,1106.42 1703.4,1111.79 1719.06,1117.18 1734.6,1122.64 1750.06,1128.15 1765.44,1133.72 1780.94,1139.26 
  "/>
<polyline clip-path="url(#clip432)" style="stroke:#000000; stroke-linecap:round; stroke-linejoin:round; stroke-width:4; stroke-opacity:1; fill:none" stroke-dasharray="16, 10" points="
  1873.51,1173.01 1888.99,1178.67 1904.46,1184.34 1919.91,1190.03 1935.34,1195.73 1950.76,1201.46 1966.33,1207.13 1981.96,1212.79 1997.59,1218.46 2013.19,1224.16 
  2028.76,1229.87 2044.32,1235.59 2059.88,1241.33 2075.44,1247.07 2091,1252.82 2106.56,1258.57 
  "/>
<polyline clip-path="url(#clip432)" style="stroke:#000000; stroke-linecap:round; stroke-linejoin:round; stroke-width:4; stroke-opacity:1; fill:none" stroke-dasharray="16, 10" points="
  1340.47,623.999 1352.85,606.1 1365.37,589.259 1377.76,573.321 1390.08,558.135 1402.26,543.705 1414.16,529.791 1426,516.422 1437.67,503.469 1449.05,490.931 
  1460.35,478.687 1471.63,466.843 1482.72,455.189 1493.8,443.862 1504.79,432.756 1515.62,421.788 1526.48,411.114 1537.26,400.599 1548.08,390.21 
  "/>
<polyline clip-path="url(#clip432)" style="stroke:#000000; stroke-linecap:round; stroke-linejoin:round; stroke-width:4; stroke-opacity:1; fill:none" stroke-dasharray="16, 10" points="
  1612.69,331.184 1623.46,321.767 1634.19,312.412 1644.96,303.218 1655.74,294.154 1666.49,285.139 1677.33,276.197 1688.2,267.314 1699.15,258.633 1710.04,249.994 
  1720.86,241.379 1731.67,232.8 1742.47,224.255 1753.31,215.851 1764.16,207.529 1775.01,199.234 
  "/>
<polyline clip-path="url(#clip432)" style="stroke:#000000; stroke-linecap:round; stroke-linejoin:round; stroke-width:4; stroke-opacity:1; fill:none" stroke-dasharray="16, 10" points="
  1340.44,1059.97 1352.79,1067.65 1365.3,1075.23 1377.71,1082.74 1390.08,1090.2 1402.19,1097.63 1414.13,1105.02 1425.96,1112.4 1437.64,1119.78 1449,1127.17 
  1460.35,1134.54 1471.59,1141.93 1482.72,1149.32 1493.79,1156.72 1504.76,1164.12 1515.64,1171.55 1526.47,1178.96 1537.24,1186.4 1548.09,1193.84 
  "/>
<polyline clip-path="url(#clip432)" style="stroke:#000000; stroke-linecap:round; stroke-linejoin:round; stroke-width:4; stroke-opacity:1; fill:none" stroke-dasharray="16, 10" points="
  1612.7,1238.5 1623.48,1245.95 1634.25,1253.42 1645,1260.89 1655.75,1268.36 1666.51,1275.82 1677.38,1283.26 1688.3,1290.71 1699.22,1298.15 1710.1,1305.61 
  1720.92,1313.09 1731.74,1320.57 1742.56,1328.06 1753.39,1335.53 1764.24,1343 1775.09,1350.47 
  "/>
<polyline clip-path="url(#clip432)" style="stroke:#000000; stroke-linecap:round; stroke-linejoin:round; stroke-width:4; stroke-opacity:1; fill:none" stroke-dasharray="16, 10" points="
  1193.71,678.762 1192.65,659.563 1192.15,641.073 1192.07,623.284 1192.38,606.052 1192.87,589.412 1193.42,573.27 1194.27,557.573 1195.17,542.232 1195.99,527.33 
  1196.95,512.754 1197.94,498.441 1198.95,484.368 1200.14,470.591 1201.21,457.053 1202.26,443.71 1203.33,430.538 1204.48,417.57 1205.74,404.761 
  "/>
<polyline clip-path="url(#clip432)" style="stroke:#000000; stroke-linecap:round; stroke-linejoin:round; stroke-width:4; stroke-opacity:1; fill:none" stroke-dasharray="16, 10" points="
  1213.45,330.738 1214.83,318.815 1216.23,306.98 1217.65,295.23 1219.08,283.561 1220.52,271.968 1222.11,260.5 1223.75,249.099 1225.4,237.765 1227.01,226.504 
  1228.55,215.316 1230.11,204.185 1231.68,193.11 1233.27,182.088 1234.87,171.119 1236.54,160.256 
  "/>
<polyline clip-path="url(#clip432)" style="stroke:#000000; stroke-linecap:round; stroke-linejoin:round; stroke-width:4; stroke-opacity:1; fill:none" stroke-dasharray="16, 10" points="
  1193.73,1039.46 1192.6,1048.62 1192.13,1057.83 1192.03,1067.02 1192.34,1076.22 1192.83,1085.36 1193.43,1094.46 1194.22,1103.54 1195.16,1112.59 1195.98,1121.58 
  1196.91,1130.55 1197.91,1139.49 1198.98,1148.43 1200.11,1157.34 1201.18,1166.22 1202.24,1175.09 1203.33,1183.96 1204.49,1192.8 1205.72,1201.65 
  "/>
<polyline clip-path="url(#clip432)" style="stroke:#000000; stroke-linecap:round; stroke-linejoin:round; stroke-width:4; stroke-opacity:1; fill:none" stroke-dasharray="16, 10" points="
  1213.44,1254.55 1214.83,1263.35 1216.24,1272.15 1217.66,1280.95 1219.13,1289.74 1220.61,1298.53 1222.16,1307.33 1223.8,1316.12 1225.45,1324.91 1227.04,1333.7 
  1228.59,1342.48 1230.17,1351.26 1231.76,1360.05 1233.36,1368.84 1235,1377.62 1236.66,1386.4 
  "/>
<polyline clip-path="url(#clip432)" style="stroke:#000000; stroke-linecap:round; stroke-linejoin:round; stroke-width:4; stroke-opacity:1; fill:none" stroke-dasharray="16, 10" points="
  1117.93,737.63 1107.3,721.653 1097.26,706.14 1087.59,691.114 1078.4,676.408 1069.5,662.141 1060.77,648.257 1052.3,634.627 1044.06,621.237 1035.77,608.231 
  1027.67,595.456 1019.73,582.876 1011.91,570.471 1004.22,558.226 996.451,546.239 988.735,534.418 981.105,522.724 973.554,511.151 966.108,499.671 
  "/>
<polyline clip-path="url(#clip432)" style="stroke:#000000; stroke-linecap:round; stroke-linejoin:round; stroke-width:4; stroke-opacity:1; fill:none" stroke-dasharray="16, 10" points="
  922.199,433.161 915.024,422.397 907.895,411.702 900.81,401.073 893.765,390.507 886.761,380 879.825,369.535 872.944,359.117 866.1,348.75 859.213,338.469 
  852.267,328.278 845.352,318.132 838.468,308.029 831.613,297.967 824.786,287.945 817.987,277.961 
  "/>
<polyline clip-path="url(#clip432)" style="stroke:#000000; stroke-linecap:round; stroke-linejoin:round; stroke-width:4; stroke-opacity:1; fill:none" stroke-dasharray="16, 10" points="
  1117.97,1008.92 1107.32,1016.84 1097.26,1024.96 1087.6,1033.16 1078.41,1041.49 1069.52,1049.8 1060.77,1058.14 1052.28,1066.51 1044.09,1074.9 1035.77,1083.25 
  1027.71,1091.57 1019.7,1099.95 1011.93,1108.29 1004.2,1116.68 996.449,1124.99 988.744,1133.31 981.074,1141.65 973.573,1149.96 966.138,1158.3 
  "/>
<polyline clip-path="url(#clip432)" style="stroke:#000000; stroke-linecap:round; stroke-linejoin:round; stroke-width:4; stroke-opacity:1; fill:none" stroke-dasharray="16, 10" points="
  922.256,1208.28 915.082,1216.61 907.933,1224.96 900.819,1233.31 893.804,1241.64 886.811,1249.98 879.873,1258.35 872.975,1266.73 866.113,1275.11 859.254,1283.46 
  852.324,1291.79 845.414,1300.14 838.526,1308.49 831.658,1316.86 824.819,1325.23 818.047,1333.58 
  "/>
<polyline clip-path="url(#clip432)" style="stroke:#000000; stroke-linecap:round; stroke-linejoin:round; stroke-width:4; stroke-opacity:1; fill:none" stroke-dasharray="16, 10" points="
  1071.65,796.211 1054.28,785.175 1037.31,774.515 1020.62,764.265 1004.3,754.183 988.162,744.443 972.157,735.012 956.394,725.712 940.842,716.534 925.254,707.73 
  909.786,699.066 894.458,690.49 879.257,681.996 864.174,673.577 849.006,665.431 833.887,657.395 818.852,649.416 803.896,641.489 789.026,633.6 
  "/>
<polyline clip-path="url(#clip432)" style="stroke:#000000; stroke-linecap:round; stroke-linejoin:round; stroke-width:4; stroke-opacity:1; fill:none" stroke-dasharray="16, 10" points="
  700.385,587.78 685.711,580.331 671.08,572.91 656.505,565.532 641.97,558.179 627.471,550.848 613.019,543.527 598.609,536.221 584.232,528.934 569.806,521.733 
  555.31,514.63 540.841,507.542 526.399,500.468 511.982,493.408 497.59,486.361 483.221,479.326 
  "/>
<polyline clip-path="url(#clip432)" style="stroke:#000000; stroke-linecap:round; stroke-linejoin:round; stroke-width:4; stroke-opacity:1; fill:none" stroke-dasharray="16, 10" points="
  1071.67,973.066 1054.29,978.437 1037.35,984.07 1020.62,989.891 1004.35,995.842 988.172,1001.93 972.213,1007.95 956.437,1014.14 940.871,1020.41 925.308,1026.55 
  909.806,1032.79 894.469,1039.06 879.299,1045.33 864.204,1051.7 848.99,1058.02 833.899,1064.26 818.89,1070.53 803.933,1076.86 789.038,1083.25 
  "/>
<polyline clip-path="url(#clip432)" style="stroke:#000000; stroke-linecap:round; stroke-linejoin:round; stroke-width:4; stroke-opacity:1; fill:none" stroke-dasharray="16, 10" points="
  700.425,1121.48 685.723,1127.92 671.137,1134.28 656.58,1140.66 642.052,1147.08 627.552,1153.52 613.091,1160 598.663,1166.5 584.261,1173.03 569.805,1179.55 
  555.328,1185.94 540.881,1192.34 526.455,1198.77 512.05,1205.21 497.663,1211.67 483.297,1218.15 
  "/>
<polyline clip-path="url(#clip432)" style="stroke:#000000; stroke-linecap:round; stroke-linejoin:round; stroke-width:4; stroke-opacity:1; fill:none" stroke-dasharray="16, 10" points="
  1047.26,850.143 1026.06,844.178 1005.1,838.578 984.305,833.575 963.764,828.483 943.311,823.667 922.92,819.095 902.705,814.617 882.644,810.129 862.507,806.061 
  842.438,802.009 822.47,797.883 802.595,793.698 782.815,789.597 762.926,785.918 743.059,782.26 723.254,778.539 703.505,774.764 683.811,770.938 
  "/>
<polyline clip-path="url(#clip432)" style="stroke:#000000; stroke-linecap:round; stroke-linejoin:round; stroke-width:4; stroke-opacity:1; fill:none" stroke-dasharray="16, 10" points="
  565.874,749.101 546.259,745.577 526.673,742.021 507.116,738.435 487.584,734.824 468.078,731.189 448.598,727.529 429.143,723.847 409.71,720.147 390.215,716.559 
  370.637,713.107 351.077,709.652 331.543,706.316 312.025,702.96 292.522,699.585 273.033,696.193 
  "/>
<polyline clip-path="url(#clip432)" style="stroke:#000000; stroke-linecap:round; stroke-linejoin:round; stroke-width:4; stroke-opacity:1; fill:none" stroke-dasharray="16, 10" points="
  1047.26,933.41 1026.06,935.46 1005.11,937.78 984.307,940.268 963.769,942.948 943.305,945.954 922.934,948.577 902.719,951.536 882.64,954.906 862.51,957.767 
  842.449,960.661 822.482,963.809 802.602,967.21 782.824,970.534 762.94,973.49 743.073,976.528 723.264,979.714 703.508,983.046 683.805,986.527 
  "/>
<polyline clip-path="url(#clip432)" style="stroke:#000000; stroke-linecap:round; stroke-linejoin:round; stroke-width:4; stroke-opacity:1; fill:none" stroke-dasharray="16, 10" points="
  565.889,1005.93 546.265,1009.31 526.67,1012.76 507.105,1016.23 487.585,1019.47 468.089,1022.76 448.618,1026.11 429.17,1029.51 409.742,1032.95 390.251,1036.33 
  370.678,1039.62 351.12,1042.95 331.579,1046.31 312.053,1049.72 292.542,1053.16 273.044,1056.63 
  "/>
<path clip-path="url(#clip430)" d="M1793.07 905.175 Q1797.26 906.072 1799.6 908.907 Q1801.98 911.743 1801.98 915.909 Q1801.98 922.304 1797.58 925.805 Q1793.18 929.306 1785.08 929.306 Q1782.36 929.306 1779.47 928.757 Q1776.6 928.236 1773.53 927.165 L1773.53 921.523 Q1775.96 922.941 1778.86 923.664 Q1781.75 924.387 1784.91 924.387 Q1790.4 924.387 1793.27 922.217 Q1796.16 920.047 1796.16 915.909 Q1796.16 912.09 1793.47 909.949 Q1790.81 907.779 1786.03 907.779 L1781 907.779 L1781 902.976 L1786.27 902.976 Q1790.58 902.976 1792.86 901.268 Q1795.15 899.532 1795.15 896.292 Q1795.15 892.964 1792.78 891.199 Q1790.43 889.405 1786.03 889.405 Q1783.63 889.405 1780.88 889.926 Q1778.13 890.447 1774.84 891.546 L1774.84 886.338 Q1778.16 885.412 1781.06 884.949 Q1783.98 884.486 1786.55 884.486 Q1793.21 884.486 1797.09 887.524 Q1800.96 890.533 1800.96 895.684 Q1800.96 899.272 1798.91 901.76 Q1796.86 904.22 1793.07 905.175 Z" fill="#000000" fill-rule="evenodd" fill-opacity="1" /><path clip-path="url(#clip430)" d="M1813.06 921.118 L1819.16 921.118 L1819.16 928.467 L1813.06 928.467 L1813.06 921.118 Z" fill="#000000" fill-rule="evenodd" fill-opacity="1" /><path clip-path="url(#clip430)" d="M1844.4 889.116 Q1839.88 889.116 1837.6 893.572 Q1835.34 897.999 1835.34 906.911 Q1835.34 915.794 1837.6 920.25 Q1839.88 924.677 1844.4 924.677 Q1848.94 924.677 1851.2 920.25 Q1853.48 915.794 1853.48 906.911 Q1853.48 897.999 1851.2 893.572 Q1848.94 889.116 1844.4 889.116 M1844.4 884.486 Q1851.66 884.486 1855.48 890.244 Q1859.33 895.973 1859.33 906.911 Q1859.33 917.819 1855.48 923.577 Q1851.66 929.306 1844.4 929.306 Q1837.13 929.306 1833.29 923.577 Q1829.47 917.819 1829.47 906.911 Q1829.47 895.973 1833.29 890.244 Q1837.13 884.486 1844.4 884.486 Z" fill="#000000" fill-rule="evenodd" fill-opacity="1" /><path clip-path="url(#clip430)" d="M1965.95 863.67 L1988.9 863.67 L1988.9 868.589 L1971.3 868.589 L1971.3 879.179 Q1972.58 878.745 1973.85 878.543 Q1975.12 878.311 1976.4 878.311 Q1983.63 878.311 1987.86 882.275 Q1992.08 886.239 1992.08 893.01 Q1992.08 899.983 1987.74 903.861 Q1983.4 907.709 1975.5 907.709 Q1972.78 907.709 1969.94 907.246 Q1967.14 906.783 1964.13 905.857 L1964.13 899.983 Q1966.73 901.401 1969.51 902.096 Q1972.29 902.79 1975.38 902.79 Q1980.39 902.79 1983.31 900.157 Q1986.23 897.524 1986.23 893.01 Q1986.23 888.496 1983.31 885.863 Q1980.39 883.23 1975.38 883.23 Q1973.04 883.23 1970.7 883.751 Q1968.38 884.272 1965.95 885.371 L1965.95 863.67 Z" fill="#000000" fill-rule="evenodd" fill-opacity="1" /><path clip-path="url(#clip430)" d="M2003.6 899.521 L2009.7 899.521 L2009.7 906.87 L2003.6 906.87 L2003.6 899.521 Z" fill="#000000" fill-rule="evenodd" fill-opacity="1" /><path clip-path="url(#clip430)" d="M2034.93 867.518 Q2030.42 867.518 2028.13 871.974 Q2025.88 876.401 2025.88 885.313 Q2025.88 894.196 2028.13 898.652 Q2030.42 903.08 2034.93 903.08 Q2039.48 903.08 2041.73 898.652 Q2044.02 894.196 2044.02 885.313 Q2044.02 876.401 2041.73 871.974 Q2039.48 867.518 2034.93 867.518 M2034.93 862.889 Q2042.2 862.889 2046.01 868.647 Q2049.86 874.376 2049.86 885.313 Q2049.86 896.222 2046.01 901.98 Q2042.2 907.709 2034.93 907.709 Q2027.67 907.709 2023.82 901.98 Q2020 896.222 2020 885.313 Q2020 874.376 2023.82 868.647 Q2027.67 862.889 2034.93 862.889 Z" fill="#000000" fill-rule="evenodd" fill-opacity="1" /><path clip-path="url(#clip430)" d="M2269.16 853.433 Q2264.99 853.433 2262.59 855.661 Q2260.22 857.889 2260.22 861.795 Q2260.22 865.701 2262.59 867.929 Q2264.99 870.157 2269.16 870.157 Q2273.33 870.157 2275.73 867.929 Q2278.13 865.673 2278.13 861.795 Q2278.13 857.889 2275.73 855.661 Q2273.35 853.433 2269.16 853.433 M2263.31 850.945 Q2259.55 850.019 2257.44 847.443 Q2255.36 844.868 2255.36 841.165 Q2255.36 835.985 2259.03 832.976 Q2262.74 829.967 2269.16 829.967 Q2275.61 829.967 2279.29 832.976 Q2282.96 835.985 2282.96 841.165 Q2282.96 844.868 2280.85 847.443 Q2278.77 850.019 2275.03 850.945 Q2279.26 851.928 2281.6 854.793 Q2283.97 857.658 2283.97 861.795 Q2283.97 868.074 2280.13 871.431 Q2276.31 874.787 2269.16 874.787 Q2262.01 874.787 2258.16 871.431 Q2254.34 868.074 2254.34 861.795 Q2254.34 857.658 2256.72 854.793 Q2259.09 851.928 2263.31 850.945 M2261.17 841.714 Q2261.17 845.071 2263.26 846.952 Q2265.37 848.832 2269.16 848.832 Q2272.92 848.832 2275.03 846.952 Q2277.17 845.071 2277.17 841.714 Q2277.17 838.358 2275.03 836.477 Q2272.92 834.596 2269.16 834.596 Q2265.37 834.596 2263.26 836.477 Q2261.17 838.358 2261.17 841.714 Z" fill="#000000" fill-rule="evenodd" fill-opacity="1" /><path clip-path="url(#clip430)" d="M2294.36 866.598 L2300.47 866.598 L2300.47 873.948 L2294.36 873.948 L2294.36 866.598 Z" fill="#000000" fill-rule="evenodd" fill-opacity="1" /><path clip-path="url(#clip430)" d="M2325.7 834.596 Q2321.18 834.596 2318.9 839.052 Q2316.64 843.479 2316.64 852.391 Q2316.64 861.274 2318.9 865.73 Q2321.18 870.157 2325.7 870.157 Q2330.24 870.157 2332.5 865.73 Q2334.78 861.274 2334.78 852.391 Q2334.78 843.479 2332.5 839.052 Q2330.24 834.596 2325.7 834.596 M2325.7 829.967 Q2332.96 829.967 2336.78 835.725 Q2340.63 841.454 2340.63 852.391 Q2340.63 863.3 2336.78 869.058 Q2332.96 874.787 2325.7 874.787 Q2318.44 874.787 2314.59 869.058 Q2310.77 863.3 2310.77 852.391 Q2310.77 841.454 2314.59 835.725 Q2318.44 829.967 2325.7 829.967 Z" fill="#000000" fill-rule="evenodd" fill-opacity="1" /><path clip-path="url(#clip430)" d="M1935.07 527.448 Q1931.45 527.448 1929.63 531.013 Q1927.82 534.555 1927.82 541.684 Q1927.82 548.791 1929.63 552.356 Q1931.45 555.897 1935.07 555.897 Q1938.7 555.897 1940.51 552.356 Q1942.33 548.791 1942.33 541.684 Q1942.33 534.555 1940.51 531.013 Q1938.7 527.448 1935.07 527.448 M1935.07 523.745 Q1940.88 523.745 1943.93 528.351 Q1947.01 532.934 1947.01 541.684 Q1947.01 550.411 1943.93 555.018 Q1940.88 559.601 1935.07 559.601 Q1929.26 559.601 1926.18 555.018 Q1923.12 550.411 1923.12 541.684 Q1923.12 532.934 1926.18 528.351 Q1929.26 523.745 1935.07 523.745 Z" fill="#000000" fill-rule="evenodd" fill-opacity="1" /><path clip-path="url(#clip430)" d="M1955.23 553.05 L1960.11 553.05 L1960.11 558.93 L1955.23 558.93 L1955.23 553.05 Z" fill="#000000" fill-rule="evenodd" fill-opacity="1" /><path clip-path="url(#clip430)" d="M1980.3 527.448 Q1976.69 527.448 1974.86 531.013 Q1973.05 534.555 1973.05 541.684 Q1973.05 548.791 1974.86 552.356 Q1976.69 555.897 1980.3 555.897 Q1983.93 555.897 1985.74 552.356 Q1987.57 548.791 1987.57 541.684 Q1987.57 534.555 1985.74 531.013 Q1983.93 527.448 1980.3 527.448 M1980.3 523.745 Q1986.11 523.745 1989.16 528.351 Q1992.24 532.934 1992.24 541.684 Q1992.24 550.411 1989.16 555.018 Q1986.11 559.601 1980.3 559.601 Q1974.49 559.601 1971.41 555.018 Q1968.35 550.411 1968.35 541.684 Q1968.35 532.934 1971.41 528.351 Q1974.49 523.745 1980.3 523.745 Z" fill="#000000" fill-rule="evenodd" fill-opacity="1" /><path clip-path="url(#clip430)" d="M2000.51 524.37 L2018.86 524.37 L2018.86 528.305 L2004.79 528.305 L2004.79 536.777 Q2005.81 536.43 2006.82 536.268 Q2007.84 536.083 2008.86 536.083 Q2014.65 536.083 2018.03 539.254 Q2021.41 542.425 2021.41 547.842 Q2021.41 553.42 2017.94 556.522 Q2014.46 559.601 2008.14 559.601 Q2005.97 559.601 2003.7 559.231 Q2001.45 558.86 1999.05 558.119 L1999.05 553.42 Q2001.13 554.555 2003.35 555.11 Q2005.57 555.666 2008.05 555.666 Q2012.06 555.666 2014.39 553.559 Q2016.73 551.453 2016.73 547.842 Q2016.73 544.231 2014.39 542.124 Q2012.06 540.018 2008.05 540.018 Q2006.18 540.018 2004.3 540.434 Q2002.45 540.851 2000.51 541.731 L2000.51 524.37 Z" fill="#000000" fill-rule="evenodd" fill-opacity="1" /><path clip-path="url(#clip430)" d="M1935.11 1072.43 Q1931.5 1072.43 1929.67 1076 Q1927.86 1079.54 1927.86 1086.67 Q1927.86 1093.77 1929.67 1097.34 Q1931.5 1100.88 1935.11 1100.88 Q1938.74 1100.88 1940.55 1097.34 Q1942.38 1093.77 1942.38 1086.67 Q1942.38 1079.54 1940.55 1076 Q1938.74 1072.43 1935.11 1072.43 M1935.11 1068.73 Q1940.92 1068.73 1943.97 1073.33 Q1947.05 1077.92 1947.05 1086.67 Q1947.05 1095.39 1943.97 1100 Q1940.92 1104.58 1935.11 1104.58 Q1929.3 1104.58 1926.22 1100 Q1923.16 1095.39 1923.16 1086.67 Q1923.16 1077.92 1926.22 1073.33 Q1929.3 1068.73 1935.11 1068.73 Z" fill="#000000" fill-rule="evenodd" fill-opacity="1" /><path clip-path="url(#clip430)" d="M1955.27 1098.03 L1960.15 1098.03 L1960.15 1103.91 L1955.27 1103.91 L1955.27 1098.03 Z" fill="#000000" fill-rule="evenodd" fill-opacity="1" /><path clip-path="url(#clip430)" d="M1980.34 1072.43 Q1976.73 1072.43 1974.9 1076 Q1973.09 1079.54 1973.09 1086.67 Q1973.09 1093.77 1974.9 1097.34 Q1976.73 1100.88 1980.34 1100.88 Q1983.97 1100.88 1985.78 1097.34 Q1987.61 1093.77 1987.61 1086.67 Q1987.61 1079.54 1985.78 1076 Q1983.97 1072.43 1980.34 1072.43 M1980.34 1068.73 Q1986.15 1068.73 1989.2 1073.33 Q1992.28 1077.92 1992.28 1086.67 Q1992.28 1095.39 1989.2 1100 Q1986.15 1104.58 1980.34 1104.58 Q1974.53 1104.58 1971.45 1100 Q1968.39 1095.39 1968.39 1086.67 Q1968.39 1077.92 1971.45 1073.33 Q1974.53 1068.73 1980.34 1068.73 Z" fill="#000000" fill-rule="evenodd" fill-opacity="1" /><path clip-path="url(#clip430)" d="M2000.55 1069.35 L2018.9 1069.35 L2018.9 1073.29 L2004.83 1073.29 L2004.83 1081.76 Q2005.85 1081.41 2006.87 1081.25 Q2007.88 1081.07 2008.9 1081.07 Q2014.69 1081.07 2018.07 1084.24 Q2021.45 1087.41 2021.45 1092.83 Q2021.45 1098.4 2017.98 1101.51 Q2014.51 1104.58 2008.19 1104.58 Q2006.01 1104.58 2003.74 1104.21 Q2001.5 1103.84 1999.09 1103.1 L1999.09 1098.4 Q2001.17 1099.54 2003.39 1100.09 Q2005.62 1100.65 2008.09 1100.65 Q2012.1 1100.65 2014.44 1098.54 Q2016.77 1096.44 2016.77 1092.83 Q2016.77 1089.21 2014.44 1087.11 Q2012.1 1085 2008.09 1085 Q2006.22 1085 2004.34 1085.42 Q2002.49 1085.83 2000.55 1086.71 L2000.55 1069.35 Z" fill="#000000" fill-rule="evenodd" fill-opacity="1" /><path clip-path="url(#clip430)" d="M1805.31 429.148 Q1801.7 429.148 1799.87 432.713 Q1798.06 436.255 1798.06 443.384 Q1798.06 450.491 1799.87 454.055 Q1801.7 457.597 1805.31 457.597 Q1808.94 457.597 1810.75 454.055 Q1812.58 450.491 1812.58 443.384 Q1812.58 436.255 1810.75 432.713 Q1808.94 429.148 1805.31 429.148 M1805.31 425.444 Q1811.12 425.444 1814.17 430.051 Q1817.25 434.634 1817.25 443.384 Q1817.25 452.111 1814.17 456.717 Q1811.12 461.301 1805.31 461.301 Q1799.5 461.301 1796.42 456.717 Q1793.36 452.111 1793.36 443.384 Q1793.36 434.634 1796.42 430.051 Q1799.5 425.444 1805.31 425.444 Z" fill="#000000" fill-rule="evenodd" fill-opacity="1" /><path clip-path="url(#clip430)" d="M1825.47 454.75 L1830.36 454.75 L1830.36 460.629 L1825.47 460.629 L1825.47 454.75 Z" fill="#000000" fill-rule="evenodd" fill-opacity="1" /><path clip-path="url(#clip430)" d="M1841.35 456.694 L1848.99 456.694 L1848.99 430.329 L1840.68 431.995 L1840.68 427.736 L1848.94 426.069 L1853.62 426.069 L1853.62 456.694 L1861.26 456.694 L1861.26 460.629 L1841.35 460.629 L1841.35 456.694 Z" fill="#000000" fill-rule="evenodd" fill-opacity="1" /><path clip-path="url(#clip430)" d="M1805.29 1141.86 Q1801.68 1141.86 1799.86 1145.42 Q1798.05 1148.97 1798.05 1156.09 Q1798.05 1163.2 1799.86 1166.77 Q1801.68 1170.31 1805.29 1170.31 Q1808.93 1170.31 1810.73 1166.77 Q1812.56 1163.2 1812.56 1156.09 Q1812.56 1148.97 1810.73 1145.42 Q1808.93 1141.86 1805.29 1141.86 M1805.29 1138.15 Q1811.11 1138.15 1814.16 1142.76 Q1817.24 1147.34 1817.24 1156.09 Q1817.24 1164.82 1814.16 1169.43 Q1811.11 1174.01 1805.29 1174.01 Q1799.48 1174.01 1796.41 1169.43 Q1793.35 1164.82 1793.35 1156.09 Q1793.35 1147.34 1796.41 1142.76 Q1799.48 1138.15 1805.29 1138.15 Z" fill="#000000" fill-rule="evenodd" fill-opacity="1" /><path clip-path="url(#clip430)" d="M1825.46 1167.46 L1830.34 1167.46 L1830.34 1173.34 L1825.46 1173.34 L1825.46 1167.46 Z" fill="#000000" fill-rule="evenodd" fill-opacity="1" /><path clip-path="url(#clip430)" d="M1841.34 1169.4 L1848.98 1169.4 L1848.98 1143.04 L1840.67 1144.71 L1840.67 1140.45 L1848.93 1138.78 L1853.6 1138.78 L1853.6 1169.4 L1861.24 1169.4 L1861.24 1173.34 L1841.34 1173.34 L1841.34 1169.4 Z" fill="#000000" fill-rule="evenodd" fill-opacity="1" /><path clip-path="url(#clip430)" d="M1558.72 345.925 Q1555.11 345.925 1553.28 349.49 Q1551.48 353.031 1551.48 360.161 Q1551.48 367.267 1553.28 370.832 Q1555.11 374.374 1558.72 374.374 Q1562.36 374.374 1564.16 370.832 Q1565.99 367.267 1565.99 360.161 Q1565.99 353.031 1564.16 349.49 Q1562.36 345.925 1558.72 345.925 M1558.72 342.221 Q1564.53 342.221 1567.59 346.828 Q1570.67 351.411 1570.67 360.161 Q1570.67 368.888 1567.59 373.494 Q1564.53 378.077 1558.72 378.077 Q1552.91 378.077 1549.84 373.494 Q1546.78 368.888 1546.78 360.161 Q1546.78 351.411 1549.84 346.828 Q1552.91 342.221 1558.72 342.221 Z" fill="#000000" fill-rule="evenodd" fill-opacity="1" /><path clip-path="url(#clip430)" d="M1578.89 371.526 L1583.77 371.526 L1583.77 377.406 L1578.89 377.406 L1578.89 371.526 Z" fill="#000000" fill-rule="evenodd" fill-opacity="1" /><path clip-path="url(#clip430)" d="M1597.98 373.471 L1614.3 373.471 L1614.3 377.406 L1592.36 377.406 L1592.36 373.471 Q1595.02 370.716 1599.6 366.087 Q1604.21 361.434 1605.39 360.091 Q1607.64 357.568 1608.52 355.832 Q1609.42 354.073 1609.42 352.383 Q1609.42 349.628 1607.47 347.892 Q1605.55 346.156 1602.45 346.156 Q1600.25 346.156 1597.8 346.92 Q1595.37 347.684 1592.59 349.235 L1592.59 344.513 Q1595.41 343.378 1597.87 342.8 Q1600.32 342.221 1602.36 342.221 Q1607.73 342.221 1610.92 344.906 Q1614.12 347.591 1614.12 352.082 Q1614.12 354.212 1613.31 356.133 Q1612.52 358.031 1610.41 360.624 Q1609.83 361.295 1606.73 364.513 Q1603.63 367.707 1597.98 373.471 Z" fill="#000000" fill-rule="evenodd" fill-opacity="1" /><path clip-path="url(#clip430)" d="M1558.73 1201.93 Q1555.11 1201.93 1553.29 1205.5 Q1551.48 1209.04 1551.48 1216.17 Q1551.48 1223.28 1553.29 1226.84 Q1555.11 1230.38 1558.73 1230.38 Q1562.36 1230.38 1564.16 1226.84 Q1565.99 1223.28 1565.99 1216.17 Q1565.99 1209.04 1564.16 1205.5 Q1562.36 1201.93 1558.73 1201.93 M1558.73 1198.23 Q1564.54 1198.23 1567.59 1202.84 Q1570.67 1207.42 1570.67 1216.17 Q1570.67 1224.9 1567.59 1229.5 Q1564.54 1234.09 1558.73 1234.09 Q1552.91 1234.09 1549.84 1229.5 Q1546.78 1224.9 1546.78 1216.17 Q1546.78 1207.42 1549.84 1202.84 Q1552.91 1198.23 1558.73 1198.23 Z" fill="#000000" fill-rule="evenodd" fill-opacity="1" /><path clip-path="url(#clip430)" d="M1578.89 1227.54 L1583.77 1227.54 L1583.77 1233.42 L1578.89 1233.42 L1578.89 1227.54 Z" fill="#000000" fill-rule="evenodd" fill-opacity="1" /><path clip-path="url(#clip430)" d="M1597.98 1229.48 L1614.3 1229.48 L1614.3 1233.42 L1592.36 1233.42 L1592.36 1229.48 Q1595.02 1226.73 1599.6 1222.1 Q1604.21 1217.44 1605.39 1216.1 Q1607.64 1213.58 1608.52 1211.84 Q1609.42 1210.08 1609.42 1208.39 Q1609.42 1205.64 1607.47 1203.9 Q1605.55 1202.17 1602.45 1202.17 Q1600.25 1202.17 1597.8 1202.93 Q1595.37 1203.69 1592.59 1205.24 L1592.59 1200.52 Q1595.41 1199.39 1597.87 1198.81 Q1600.32 1198.23 1602.36 1198.23 Q1607.73 1198.23 1610.92 1200.92 Q1614.12 1203.6 1614.12 1208.09 Q1614.12 1210.22 1613.31 1212.14 Q1612.52 1214.04 1610.41 1216.63 Q1609.84 1217.3 1606.73 1220.52 Q1603.63 1223.72 1597.98 1229.48 Z" fill="#000000" fill-rule="evenodd" fill-opacity="1" /><path clip-path="url(#clip430)" d="M1186.75 352.93 Q1183.14 352.93 1181.31 356.495 Q1179.51 360.036 1179.51 367.166 Q1179.51 374.272 1181.31 377.837 Q1183.14 381.379 1186.75 381.379 Q1190.39 381.379 1192.19 377.837 Q1194.02 374.272 1194.02 367.166 Q1194.02 360.036 1192.19 356.495 Q1190.39 352.93 1186.75 352.93 M1186.75 349.226 Q1192.56 349.226 1195.62 353.833 Q1198.7 358.416 1198.7 367.166 Q1198.7 375.893 1195.62 380.499 Q1192.56 385.083 1186.75 385.083 Q1180.94 385.083 1177.87 380.499 Q1174.81 375.893 1174.81 367.166 Q1174.81 358.416 1177.87 353.833 Q1180.94 349.226 1186.75 349.226 Z" fill="#000000" fill-rule="evenodd" fill-opacity="1" /><path clip-path="url(#clip430)" d="M1206.92 378.532 L1211.8 378.532 L1211.8 384.411 L1206.92 384.411 L1206.92 378.532 Z" fill="#000000" fill-rule="evenodd" fill-opacity="1" /><path clip-path="url(#clip430)" d="M1234.83 353.925 L1223.03 372.374 L1234.83 372.374 L1234.83 353.925 M1233.61 349.851 L1239.49 349.851 L1239.49 372.374 L1244.42 372.374 L1244.42 376.263 L1239.49 376.263 L1239.49 384.411 L1234.83 384.411 L1234.83 376.263 L1219.23 376.263 L1219.23 371.749 L1233.61 349.851 Z" fill="#000000" fill-rule="evenodd" fill-opacity="1" /><path clip-path="url(#clip430)" d="M1186.78 1213.93 Q1183.16 1213.93 1181.34 1217.5 Q1179.53 1221.04 1179.53 1228.17 Q1179.53 1235.27 1181.34 1238.84 Q1183.16 1242.38 1186.78 1242.38 Q1190.41 1242.38 1192.22 1238.84 Q1194.04 1235.27 1194.04 1228.17 Q1194.04 1221.04 1192.22 1217.5 Q1190.41 1213.93 1186.78 1213.93 M1186.78 1210.23 Q1192.59 1210.23 1195.64 1214.83 Q1198.72 1219.42 1198.72 1228.17 Q1198.72 1236.89 1195.64 1241.5 Q1192.59 1246.08 1186.78 1246.08 Q1180.97 1246.08 1177.89 1241.5 Q1174.83 1236.89 1174.83 1228.17 Q1174.83 1219.42 1177.89 1214.83 Q1180.97 1210.23 1186.78 1210.23 Z" fill="#000000" fill-rule="evenodd" fill-opacity="1" /><path clip-path="url(#clip430)" d="M1206.94 1239.53 L1211.82 1239.53 L1211.82 1245.41 L1206.94 1245.41 L1206.94 1239.53 Z" fill="#000000" fill-rule="evenodd" fill-opacity="1" /><path clip-path="url(#clip430)" d="M1234.85 1214.93 L1223.05 1233.38 L1234.85 1233.38 L1234.85 1214.93 M1233.63 1210.85 L1239.51 1210.85 L1239.51 1233.38 L1244.44 1233.38 L1244.44 1237.26 L1239.51 1237.26 L1239.51 1245.41 L1234.85 1245.41 L1234.85 1237.26 L1219.25 1237.26 L1219.25 1232.75 L1233.63 1210.85 Z" fill="#000000" fill-rule="evenodd" fill-opacity="1" /><path clip-path="url(#clip430)" d="M921.41 451.676 Q917.799 451.676 915.97 455.24 Q914.165 458.782 914.165 465.912 Q914.165 473.018 915.97 476.583 Q917.799 480.125 921.41 480.125 Q925.044 480.125 926.85 476.583 Q928.679 473.018 928.679 465.912 Q928.679 458.782 926.85 455.24 Q925.044 451.676 921.41 451.676 M921.41 447.972 Q927.22 447.972 930.276 452.578 Q933.355 457.162 933.355 465.912 Q933.355 474.638 930.276 479.245 Q927.22 483.828 921.41 483.828 Q915.6 483.828 912.521 479.245 Q909.466 474.638 909.466 465.912 Q909.466 457.162 912.521 452.578 Q915.6 447.972 921.41 447.972 Z" fill="#000000" fill-rule="evenodd" fill-opacity="1" /><path clip-path="url(#clip430)" d="M941.572 477.277 L946.456 477.277 L946.456 483.157 L941.572 483.157 L941.572 477.277 Z" fill="#000000" fill-rule="evenodd" fill-opacity="1" /><path clip-path="url(#clip430)" d="M967.22 464.014 Q964.072 464.014 962.22 466.166 Q960.391 468.319 960.391 472.069 Q960.391 475.796 962.22 477.972 Q964.072 480.125 967.22 480.125 Q970.368 480.125 972.197 477.972 Q974.049 475.796 974.049 472.069 Q974.049 468.319 972.197 466.166 Q970.368 464.014 967.22 464.014 M976.502 449.361 L976.502 453.62 Q974.743 452.787 972.938 452.347 Q971.155 451.907 969.396 451.907 Q964.766 451.907 962.313 455.032 Q959.882 458.157 959.535 464.477 Q960.901 462.463 962.961 461.398 Q965.021 460.31 967.498 460.31 Q972.706 460.31 975.715 463.481 Q978.748 466.629 978.748 472.069 Q978.748 477.393 975.6 480.611 Q972.452 483.828 967.22 483.828 Q961.225 483.828 958.053 479.245 Q954.882 474.638 954.882 465.912 Q954.882 457.717 958.771 452.856 Q962.66 447.972 969.211 447.972 Q970.97 447.972 972.752 448.319 Q974.558 448.666 976.502 449.361 Z" fill="#000000" fill-rule="evenodd" fill-opacity="1" /><path clip-path="url(#clip430)" d="M921.479 1169.13 Q917.868 1169.13 916.039 1172.7 Q914.234 1176.24 914.234 1183.37 Q914.234 1190.48 916.039 1194.04 Q917.868 1197.58 921.479 1197.58 Q925.113 1197.58 926.919 1194.04 Q928.748 1190.48 928.748 1183.37 Q928.748 1176.24 926.919 1172.7 Q925.113 1169.13 921.479 1169.13 M921.479 1165.43 Q927.289 1165.43 930.345 1170.04 Q933.424 1174.62 933.424 1183.37 Q933.424 1192.1 930.345 1196.7 Q927.289 1201.29 921.479 1201.29 Q915.669 1201.29 912.59 1196.7 Q909.535 1192.1 909.535 1183.37 Q909.535 1174.62 912.59 1170.04 Q915.669 1165.43 921.479 1165.43 Z" fill="#000000" fill-rule="evenodd" fill-opacity="1" /><path clip-path="url(#clip430)" d="M941.641 1194.73 L946.525 1194.73 L946.525 1200.61 L941.641 1200.61 L941.641 1194.73 Z" fill="#000000" fill-rule="evenodd" fill-opacity="1" /><path clip-path="url(#clip430)" d="M967.289 1181.47 Q964.141 1181.47 962.289 1183.62 Q960.461 1185.78 960.461 1189.53 Q960.461 1193.25 962.289 1195.43 Q964.141 1197.58 967.289 1197.58 Q970.437 1197.58 972.266 1195.43 Q974.118 1193.25 974.118 1189.53 Q974.118 1185.78 972.266 1183.62 Q970.437 1181.47 967.289 1181.47 M976.572 1166.82 L976.572 1171.08 Q974.812 1170.24 973.007 1169.8 Q971.224 1169.36 969.465 1169.36 Q964.835 1169.36 962.382 1172.49 Q959.951 1175.61 959.604 1181.93 Q960.97 1179.92 963.03 1178.85 Q965.09 1177.77 967.567 1177.77 Q972.775 1177.77 975.785 1180.94 Q978.817 1184.09 978.817 1189.53 Q978.817 1194.85 975.669 1198.07 Q972.521 1201.29 967.289 1201.29 Q961.294 1201.29 958.123 1196.7 Q954.951 1192.1 954.951 1183.37 Q954.951 1175.17 958.84 1170.31 Q962.729 1165.43 969.28 1165.43 Q971.039 1165.43 972.822 1165.78 Q974.627 1166.12 976.572 1166.82 Z" fill="#000000" fill-rule="evenodd" fill-opacity="1" /><path clip-path="url(#clip430)" d="M722.152 596.079 Q718.54 596.079 716.712 599.644 Q714.906 603.185 714.906 610.315 Q714.906 617.421 716.712 620.986 Q718.54 624.528 722.152 624.528 Q725.786 624.528 727.591 620.986 Q729.42 617.421 729.42 610.315 Q729.42 603.185 727.591 599.644 Q725.786 596.079 722.152 596.079 M722.152 592.375 Q727.962 592.375 731.017 596.982 Q734.096 601.565 734.096 610.315 Q734.096 619.042 731.017 623.648 Q727.962 628.231 722.152 628.231 Q716.341 628.231 713.263 623.648 Q710.207 619.042 710.207 610.315 Q710.207 601.565 713.263 596.982 Q716.341 592.375 722.152 592.375 Z" fill="#000000" fill-rule="evenodd" fill-opacity="1" /><path clip-path="url(#clip430)" d="M742.313 621.681 L747.198 621.681 L747.198 627.56 L742.313 627.56 L742.313 621.681 Z" fill="#000000" fill-rule="evenodd" fill-opacity="1" /><path clip-path="url(#clip430)" d="M767.383 611.148 Q764.049 611.148 762.128 612.931 Q760.23 614.713 760.23 617.838 Q760.23 620.963 762.128 622.745 Q764.049 624.528 767.383 624.528 Q770.716 624.528 772.637 622.745 Q774.559 620.94 774.559 617.838 Q774.559 614.713 772.637 612.931 Q770.739 611.148 767.383 611.148 M762.707 609.157 Q759.698 608.417 758.008 606.357 Q756.341 604.296 756.341 601.333 Q756.341 597.19 759.281 594.783 Q762.244 592.375 767.383 592.375 Q772.545 592.375 775.485 594.783 Q778.424 597.19 778.424 601.333 Q778.424 604.296 776.735 606.357 Q775.068 608.417 772.082 609.157 Q775.461 609.944 777.336 612.236 Q779.235 614.528 779.235 617.838 Q779.235 622.861 776.156 625.546 Q773.1 628.231 767.383 628.231 Q761.665 628.231 758.587 625.546 Q755.531 622.861 755.531 617.838 Q755.531 614.528 757.429 612.236 Q759.327 609.944 762.707 609.157 M760.994 601.773 Q760.994 604.458 762.661 605.963 Q764.35 607.468 767.383 607.468 Q770.392 607.468 772.082 605.963 Q773.795 604.458 773.795 601.773 Q773.795 599.088 772.082 597.583 Q770.392 596.079 767.383 596.079 Q764.35 596.079 762.661 597.583 Q760.994 599.088 760.994 601.773 Z" fill="#000000" fill-rule="evenodd" fill-opacity="1" /><path clip-path="url(#clip430)" d="M722.203 1088.19 Q718.592 1088.19 716.764 1091.76 Q714.958 1095.3 714.958 1102.43 Q714.958 1109.53 716.764 1113.1 Q718.592 1116.64 722.203 1116.64 Q725.838 1116.64 727.643 1113.1 Q729.472 1109.53 729.472 1102.43 Q729.472 1095.3 727.643 1091.76 Q725.838 1088.19 722.203 1088.19 M722.203 1084.49 Q728.014 1084.49 731.069 1089.09 Q734.148 1093.68 734.148 1102.43 Q734.148 1111.16 731.069 1115.76 Q728.014 1120.34 722.203 1120.34 Q716.393 1120.34 713.315 1115.76 Q710.259 1111.16 710.259 1102.43 Q710.259 1093.68 713.315 1089.09 Q716.393 1084.49 722.203 1084.49 Z" fill="#000000" fill-rule="evenodd" fill-opacity="1" /><path clip-path="url(#clip430)" d="M742.365 1113.79 L747.25 1113.79 L747.25 1119.67 L742.365 1119.67 L742.365 1113.79 Z" fill="#000000" fill-rule="evenodd" fill-opacity="1" /><path clip-path="url(#clip430)" d="M767.435 1103.26 Q764.101 1103.26 762.18 1105.04 Q760.282 1106.83 760.282 1109.95 Q760.282 1113.08 762.18 1114.86 Q764.101 1116.64 767.435 1116.64 Q770.768 1116.64 772.689 1114.86 Q774.611 1113.05 774.611 1109.95 Q774.611 1106.83 772.689 1105.04 Q770.791 1103.26 767.435 1103.26 M762.759 1101.27 Q759.75 1100.53 758.06 1098.47 Q756.393 1096.41 756.393 1093.45 Q756.393 1089.3 759.333 1086.9 Q762.296 1084.49 767.435 1084.49 Q772.597 1084.49 775.537 1086.9 Q778.476 1089.3 778.476 1093.45 Q778.476 1096.41 776.787 1098.47 Q775.12 1100.53 772.134 1101.27 Q775.513 1102.06 777.388 1104.35 Q779.286 1106.64 779.286 1109.95 Q779.286 1114.97 776.208 1117.66 Q773.152 1120.34 767.435 1120.34 Q761.717 1120.34 758.638 1117.66 Q755.583 1114.97 755.583 1109.95 Q755.583 1106.64 757.481 1104.35 Q759.379 1102.06 762.759 1101.27 M761.046 1093.89 Q761.046 1096.57 762.713 1098.08 Q764.402 1099.58 767.435 1099.58 Q770.444 1099.58 772.134 1098.08 Q773.847 1096.57 773.847 1093.89 Q773.847 1091.2 772.134 1089.7 Q770.444 1088.19 767.435 1088.19 Q764.402 1088.19 762.713 1089.7 Q761.046 1091.2 761.046 1093.89 Z" fill="#000000" fill-rule="evenodd" fill-opacity="1" /><path clip-path="url(#clip430)" d="M587.72 745.222 Q584.109 745.222 582.28 748.787 Q580.474 752.328 580.474 759.458 Q580.474 766.564 582.28 770.129 Q584.109 773.671 587.72 773.671 Q591.354 773.671 593.16 770.129 Q594.988 766.564 594.988 759.458 Q594.988 752.328 593.16 748.787 Q591.354 745.222 587.72 745.222 M587.72 741.518 Q593.53 741.518 596.585 746.125 Q599.664 750.708 599.664 759.458 Q599.664 768.185 596.585 772.791 Q593.53 777.374 587.72 777.374 Q581.91 777.374 578.831 772.791 Q575.775 768.185 575.775 759.458 Q575.775 750.708 578.831 746.125 Q581.91 741.518 587.72 741.518 Z" fill="#000000" fill-rule="evenodd" fill-opacity="1" /><path clip-path="url(#clip430)" d="M607.882 770.824 L612.766 770.824 L612.766 776.703 L607.882 776.703 L607.882 770.824 Z" fill="#000000" fill-rule="evenodd" fill-opacity="1" /><path clip-path="url(#clip430)" d="M623.09 775.986 L623.09 771.726 Q624.849 772.56 626.655 772.999 Q628.46 773.439 630.196 773.439 Q634.826 773.439 637.257 770.337 Q639.71 767.212 640.057 760.87 Q638.715 762.861 636.655 763.925 Q634.595 764.99 632.095 764.99 Q626.909 764.99 623.877 761.865 Q620.868 758.717 620.868 753.277 Q620.868 747.953 624.016 744.736 Q627.164 741.518 632.395 741.518 Q638.391 741.518 641.539 746.125 Q644.71 750.708 644.71 759.458 Q644.71 767.629 640.821 772.513 Q636.956 777.374 630.405 777.374 Q628.645 777.374 626.84 777.027 Q625.034 776.68 623.09 775.986 M632.395 761.333 Q635.544 761.333 637.372 759.18 Q639.224 757.027 639.224 753.277 Q639.224 749.551 637.372 747.398 Q635.544 745.222 632.395 745.222 Q629.247 745.222 627.395 747.398 Q625.567 749.551 625.567 753.277 Q625.567 757.027 627.395 759.18 Q629.247 761.333 632.395 761.333 Z" fill="#000000" fill-rule="evenodd" fill-opacity="1" /><path clip-path="url(#clip430)" d="M653.159 742.143 L671.516 742.143 L671.516 746.078 L657.442 746.078 L657.442 754.551 Q658.46 754.203 659.479 754.041 Q660.497 753.856 661.516 753.856 Q667.303 753.856 670.682 757.027 Q674.062 760.199 674.062 765.615 Q674.062 771.194 670.59 774.296 Q667.118 777.374 660.798 777.374 Q658.622 777.374 656.354 777.004 Q654.108 776.634 651.701 775.893 L651.701 771.194 Q653.784 772.328 656.006 772.884 Q658.229 773.439 660.706 773.439 Q664.71 773.439 667.048 771.333 Q669.386 769.226 669.386 765.615 Q669.386 762.004 667.048 759.898 Q664.71 757.791 660.706 757.791 Q658.831 757.791 656.956 758.208 Q655.104 758.625 653.159 759.504 L653.159 742.143 Z" fill="#000000" fill-rule="evenodd" fill-opacity="1" /><path clip-path="url(#clip430)" d="M587.752 982.085 Q584.141 982.085 582.313 985.65 Q580.507 989.192 580.507 996.321 Q580.507 1003.43 582.313 1006.99 Q584.141 1010.53 587.752 1010.53 Q591.387 1010.53 593.192 1006.99 Q595.021 1003.43 595.021 996.321 Q595.021 989.192 593.192 985.65 Q591.387 982.085 587.752 982.085 M587.752 978.382 Q593.563 978.382 596.618 982.988 Q599.697 987.571 599.697 996.321 Q599.697 1005.05 596.618 1009.65 Q593.563 1014.24 587.752 1014.24 Q581.942 1014.24 578.864 1009.65 Q575.808 1005.05 575.808 996.321 Q575.808 987.571 578.864 982.988 Q581.942 978.382 587.752 978.382 Z" fill="#000000" fill-rule="evenodd" fill-opacity="1" /><path clip-path="url(#clip430)" d="M607.914 1007.69 L612.799 1007.69 L612.799 1013.57 L607.914 1013.57 L607.914 1007.69 Z" fill="#000000" fill-rule="evenodd" fill-opacity="1" /><path clip-path="url(#clip430)" d="M623.123 1012.85 L623.123 1008.59 Q624.882 1009.42 626.687 1009.86 Q628.493 1010.3 630.229 1010.3 Q634.859 1010.3 637.289 1007.2 Q639.743 1004.08 640.09 997.733 Q638.748 999.724 636.687 1000.79 Q634.627 1001.85 632.127 1001.85 Q626.942 1001.85 623.91 998.729 Q620.9 995.581 620.9 990.141 Q620.9 984.817 624.049 981.599 Q627.197 978.382 632.428 978.382 Q638.423 978.382 641.572 982.988 Q644.743 987.571 644.743 996.321 Q644.743 1004.49 640.854 1009.38 Q636.988 1014.24 630.437 1014.24 Q628.678 1014.24 626.873 1013.89 Q625.067 1013.54 623.123 1012.85 M632.428 998.196 Q635.576 998.196 637.405 996.044 Q639.257 993.891 639.257 990.141 Q639.257 986.414 637.405 984.261 Q635.576 982.085 632.428 982.085 Q629.28 982.085 627.428 984.261 Q625.599 986.414 625.599 990.141 Q625.599 993.891 627.428 996.044 Q629.28 998.196 632.428 998.196 Z" fill="#000000" fill-rule="evenodd" fill-opacity="1" /><path clip-path="url(#clip430)" d="M653.192 979.007 L671.548 979.007 L671.548 982.942 L657.474 982.942 L657.474 991.414 Q658.493 991.067 659.511 990.905 Q660.53 990.72 661.548 990.72 Q667.335 990.72 670.715 993.891 Q674.095 997.062 674.095 1002.48 Q674.095 1008.06 670.622 1011.16 Q667.15 1014.24 660.831 1014.24 Q658.655 1014.24 656.386 1013.87 Q654.141 1013.5 651.734 1012.76 L651.734 1008.06 Q653.817 1009.19 656.039 1009.75 Q658.261 1010.3 660.738 1010.3 Q664.743 1010.3 667.081 1008.2 Q669.419 1006.09 669.419 1002.48 Q669.419 998.868 667.081 996.761 Q664.743 994.655 660.738 994.655 Q658.863 994.655 656.988 995.071 Q655.136 995.488 653.192 996.368 L653.192 979.007 Z" fill="#000000" fill-rule="evenodd" fill-opacity="1" /></svg>
