<?xml version="1.0" encoding="utf-8"?>
<svg xmlns="http://www.w3.org/2000/svg" xmlns:xlink="http://www.w3.org/1999/xlink" width="600" height="400" viewBox="0 0 2400 1600">
<defs>
  <clipPath id="clip170">
    <rect x="0" y="0" width="2400" height="1600"/>
  </clipPath>
</defs>
<path clip-path="url(#clip170)" d="
M0 1600 L2400 1600 L2400 0 L0 0  Z
  " fill="#ffffff" fill-rule="evenodd" fill-opacity="0"/>
<defs>
  <clipPath id="clip171">
    <rect x="480" y="0" width="1681" height="1600"/>
  </clipPath>
</defs>
<path clip-path="url(#clip170)" d="
M348.176 1019.36 L2352.76 1019.36 L2352.76 47.2441 L348.176 47.2441  Z
  " fill="#ffffff" fill-rule="evenodd" fill-opacity="0"/>
<defs>
  <clipPath id="clip172">
    <rect x="348" y="47" width="2006" height="973"/>
  </clipPath>
</defs>
<polyline clip-path="url(#clip172)" style="stroke:#000000; stroke-linecap:round; stroke-linejoin:round; stroke-width:2; stroke-opacity:0.1; fill:none" points="
  404.909,1019.36 404.909,47.2441 
  "/>
<polyline clip-path="url(#clip172)" style="stroke:#000000; stroke-linecap:round; stroke-linejoin:round; stroke-width:2; stroke-opacity:0.1; fill:none" points="
  897.387,1019.36 897.387,47.2441 
  "/>
<polyline clip-path="url(#clip172)" style="stroke:#000000; stroke-linecap:round; stroke-linejoin:round; stroke-width:2; stroke-opacity:0.1; fill:none" points="
  1389.86,1019.36 1389.86,47.2441 
  "/>
<polyline clip-path="url(#clip172)" style="stroke:#000000; stroke-linecap:round; stroke-linejoin:round; stroke-width:2; stroke-opacity:0.1; fill:none" points="
  1882.34,1019.36 1882.34,47.2441 
  "/>
<polyline clip-path="url(#clip170)" style="stroke:#000000; stroke-linecap:round; stroke-linejoin:round; stroke-width:4; stroke-opacity:1; fill:none" points="
  348.176,1019.36 2352.76,1019.36 
  "/>
<polyline clip-path="url(#clip170)" style="stroke:#000000; stroke-linecap:round; stroke-linejoin:round; stroke-width:4; stroke-opacity:1; fill:none" points="
  404.909,1019.36 404.909,1000.46 
  "/>
<polyline clip-path="url(#clip170)" style="stroke:#000000; stroke-linecap:round; stroke-linejoin:round; stroke-width:4; stroke-opacity:1; fill:none" points="
  897.387,1019.36 897.387,1000.46 
  "/>
<polyline clip-path="url(#clip170)" style="stroke:#000000; stroke-linecap:round; stroke-linejoin:round; stroke-width:4; stroke-opacity:1; fill:none" points="
  1389.86,1019.36 1389.86,1000.46 
  "/>
<polyline clip-path="url(#clip170)" style="stroke:#000000; stroke-linecap:round; stroke-linejoin:round; stroke-width:4; stroke-opacity:1; fill:none" points="
  1882.34,1019.36 1882.34,1000.46 
  "/>
<path clip-path="url(#clip170)" d="M404.909 1050.27 Q401.298 1050.27 399.469 1053.84 Q397.664 1057.38 397.664 1064.51 Q397.664 1071.62 399.469 1075.18 Q401.298 1078.72 404.909 1078.72 Q408.543 1078.72 410.349 1075.18 Q412.178 1071.62 412.178 1064.51 Q412.178 1057.38 410.349 1053.84 Q408.543 1050.27 404.909 1050.27 M404.909 1046.57 Q410.719 1046.57 413.775 1051.18 Q416.854 1055.76 416.854 1064.51 Q416.854 1073.24 413.775 1077.84 Q410.719 1082.43 404.909 1082.43 Q399.099 1082.43 396.02 1077.84 Q392.965 1073.24 392.965 1064.51 Q392.965 1055.76 396.02 1051.18 Q399.099 1046.57 404.909 1046.57 Z" fill="#000000" fill-rule="evenodd" fill-opacity="1" /><path clip-path="url(#clip170)" d="M892.039 1077.82 L908.359 1077.82 L908.359 1081.76 L886.414 1081.76 L886.414 1077.82 Q889.076 1075.07 893.66 1070.44 Q898.266 1065.78 899.447 1064.44 Q901.692 1061.92 902.572 1060.18 Q903.475 1058.42 903.475 1056.73 Q903.475 1053.98 901.53 1052.24 Q899.609 1050.51 896.507 1050.51 Q894.308 1050.51 891.854 1051.27 Q889.424 1052.03 886.646 1053.58 L886.646 1048.86 Q889.47 1047.73 891.924 1047.15 Q894.377 1046.57 896.414 1046.57 Q901.785 1046.57 904.979 1049.26 Q908.174 1051.94 908.174 1056.43 Q908.174 1058.56 907.363 1060.48 Q906.576 1062.38 904.47 1064.97 Q903.891 1065.64 900.789 1068.86 Q897.688 1072.06 892.039 1077.82 Z" fill="#000000" fill-rule="evenodd" fill-opacity="1" /><path clip-path="url(#clip170)" d="M1392.87 1051.27 L1381.07 1069.72 L1392.87 1069.72 L1392.87 1051.27 M1391.65 1047.2 L1397.53 1047.2 L1397.53 1069.72 L1402.46 1069.72 L1402.46 1073.61 L1397.53 1073.61 L1397.53 1081.76 L1392.87 1081.76 L1392.87 1073.61 L1377.27 1073.61 L1377.27 1069.09 L1391.65 1047.2 Z" fill="#000000" fill-rule="evenodd" fill-opacity="1" /><path clip-path="url(#clip170)" d="M1882.75 1062.61 Q1879.6 1062.61 1877.75 1064.77 Q1875.92 1066.92 1875.92 1070.67 Q1875.92 1074.39 1877.75 1076.57 Q1879.6 1078.72 1882.75 1078.72 Q1885.89 1078.72 1887.72 1076.57 Q1889.58 1074.39 1889.58 1070.67 Q1889.58 1066.92 1887.72 1064.77 Q1885.89 1062.61 1882.75 1062.61 M1892.03 1047.96 L1892.03 1052.22 Q1890.27 1051.39 1888.46 1050.95 Q1886.68 1050.51 1884.92 1050.51 Q1880.29 1050.51 1877.84 1053.63 Q1875.41 1056.76 1875.06 1063.08 Q1876.43 1061.06 1878.49 1060 Q1880.55 1058.91 1883.02 1058.91 Q1888.23 1058.91 1891.24 1062.08 Q1894.27 1065.23 1894.27 1070.67 Q1894.27 1075.99 1891.13 1079.21 Q1887.98 1082.43 1882.75 1082.43 Q1876.75 1082.43 1873.58 1077.84 Q1870.41 1073.24 1870.41 1064.51 Q1870.41 1056.32 1874.3 1051.45 Q1878.19 1046.57 1884.74 1046.57 Q1886.5 1046.57 1888.28 1046.92 Q1890.08 1047.27 1892.03 1047.96 Z" fill="#000000" fill-rule="evenodd" fill-opacity="1" /><polyline clip-path="url(#clip172)" style="stroke:#000000; stroke-linecap:round; stroke-linejoin:round; stroke-width:2; stroke-opacity:0.1; fill:none" points="
  348.176,991.843 2352.76,991.843 
  "/>
<polyline clip-path="url(#clip172)" style="stroke:#000000; stroke-linecap:round; stroke-linejoin:round; stroke-width:2; stroke-opacity:0.1; fill:none" points="
  348.176,758.261 2352.76,758.261 
  "/>
<polyline clip-path="url(#clip172)" style="stroke:#000000; stroke-linecap:round; stroke-linejoin:round; stroke-width:2; stroke-opacity:0.1; fill:none" points="
  348.176,524.68 2352.76,524.68 
  "/>
<polyline clip-path="url(#clip172)" style="stroke:#000000; stroke-linecap:round; stroke-linejoin:round; stroke-width:2; stroke-opacity:0.1; fill:none" points="
  348.176,291.098 2352.76,291.098 
  "/>
<polyline clip-path="url(#clip172)" style="stroke:#000000; stroke-linecap:round; stroke-linejoin:round; stroke-width:2; stroke-opacity:0.1; fill:none" points="
  348.176,57.5163 2352.76,57.5163 
  "/>
<polyline clip-path="url(#clip170)" style="stroke:#000000; stroke-linecap:round; stroke-linejoin:round; stroke-width:4; stroke-opacity:1; fill:none" points="
  348.176,1019.36 348.176,47.2441 
  "/>
<polyline clip-path="url(#clip170)" style="stroke:#000000; stroke-linecap:round; stroke-linejoin:round; stroke-width:4; stroke-opacity:1; fill:none" points="
  348.176,991.843 367.073,991.843 
  "/>
<polyline clip-path="url(#clip170)" style="stroke:#000000; stroke-linecap:round; stroke-linejoin:round; stroke-width:4; stroke-opacity:1; fill:none" points="
  348.176,758.261 367.073,758.261 
  "/>
<polyline clip-path="url(#clip170)" style="stroke:#000000; stroke-linecap:round; stroke-linejoin:round; stroke-width:4; stroke-opacity:1; fill:none" points="
  348.176,524.68 367.073,524.68 
  "/>
<polyline clip-path="url(#clip170)" style="stroke:#000000; stroke-linecap:round; stroke-linejoin:round; stroke-width:4; stroke-opacity:1; fill:none" points="
  348.176,291.098 367.073,291.098 
  "/>
<polyline clip-path="url(#clip170)" style="stroke:#000000; stroke-linecap:round; stroke-linejoin:round; stroke-width:4; stroke-opacity:1; fill:none" points="
  348.176,57.5163 367.073,57.5163 
  "/>
<path clip-path="url(#clip170)" d="M194.676 977.642 Q191.065 977.642 189.237 981.207 Q187.431 984.748 187.431 991.878 Q187.431 998.984 189.237 1002.55 Q191.065 1006.09 194.676 1006.09 Q198.311 1006.09 200.116 1002.55 Q201.945 998.984 201.945 991.878 Q201.945 984.748 200.116 981.207 Q198.311 977.642 194.676 977.642 M194.676 973.938 Q200.487 973.938 203.542 978.545 Q206.621 983.128 206.621 991.878 Q206.621 1000.6 203.542 1005.21 Q200.487 1009.79 194.676 1009.79 Q188.866 1009.79 185.788 1005.21 Q182.732 1000.6 182.732 991.878 Q182.732 983.128 185.788 978.545 Q188.866 973.938 194.676 973.938 Z" fill="#000000" fill-rule="evenodd" fill-opacity="1" /><path clip-path="url(#clip170)" d="M214.838 1003.24 L219.723 1003.24 L219.723 1009.12 L214.838 1009.12 L214.838 1003.24 Z" fill="#000000" fill-rule="evenodd" fill-opacity="1" /><path clip-path="url(#clip170)" d="M239.908 977.642 Q236.297 977.642 234.468 981.207 Q232.662 984.748 232.662 991.878 Q232.662 998.984 234.468 1002.55 Q236.297 1006.09 239.908 1006.09 Q243.542 1006.09 245.347 1002.55 Q247.176 998.984 247.176 991.878 Q247.176 984.748 245.347 981.207 Q243.542 977.642 239.908 977.642 M239.908 973.938 Q245.718 973.938 248.773 978.545 Q251.852 983.128 251.852 991.878 Q251.852 1000.6 248.773 1005.21 Q245.718 1009.79 239.908 1009.79 Q234.097 1009.79 231.019 1005.21 Q227.963 1000.6 227.963 991.878 Q227.963 983.128 231.019 978.545 Q234.097 973.938 239.908 973.938 Z" fill="#000000" fill-rule="evenodd" fill-opacity="1" /><path clip-path="url(#clip170)" d="M270.07 977.642 Q266.458 977.642 264.63 981.207 Q262.824 984.748 262.824 991.878 Q262.824 998.984 264.63 1002.55 Q266.458 1006.09 270.07 1006.09 Q273.704 1006.09 275.509 1002.55 Q277.338 998.984 277.338 991.878 Q277.338 984.748 275.509 981.207 Q273.704 977.642 270.07 977.642 M270.07 973.938 Q275.88 973.938 278.935 978.545 Q282.014 983.128 282.014 991.878 Q282.014 1000.6 278.935 1005.21 Q275.88 1009.79 270.07 1009.79 Q264.259 1009.79 261.181 1005.21 Q258.125 1000.6 258.125 991.878 Q258.125 983.128 261.181 978.545 Q264.259 973.938 270.07 973.938 Z" fill="#000000" fill-rule="evenodd" fill-opacity="1" /><path clip-path="url(#clip170)" d="M300.231 977.642 Q296.62 977.642 294.792 981.207 Q292.986 984.748 292.986 991.878 Q292.986 998.984 294.792 1002.55 Q296.62 1006.09 300.231 1006.09 Q303.866 1006.09 305.671 1002.55 Q307.5 998.984 307.5 991.878 Q307.5 984.748 305.671 981.207 Q303.866 977.642 300.231 977.642 M300.231 973.938 Q306.042 973.938 309.097 978.545 Q312.176 983.128 312.176 991.878 Q312.176 1000.6 309.097 1005.21 Q306.042 1009.79 300.231 1009.79 Q294.421 1009.79 291.343 1005.21 Q288.287 1000.6 288.287 991.878 Q288.287 983.128 291.343 978.545 Q294.421 973.938 300.231 973.938 Z" fill="#000000" fill-rule="evenodd" fill-opacity="1" /><path clip-path="url(#clip170)" d="M196.274 744.06 Q192.663 744.06 190.834 747.625 Q189.028 751.167 189.028 758.296 Q189.028 765.403 190.834 768.967 Q192.663 772.509 196.274 772.509 Q199.908 772.509 201.713 768.967 Q203.542 765.403 203.542 758.296 Q203.542 751.167 201.713 747.625 Q199.908 744.06 196.274 744.06 M196.274 740.356 Q202.084 740.356 205.139 744.963 Q208.218 749.546 208.218 758.296 Q208.218 767.023 205.139 771.629 Q202.084 776.213 196.274 776.213 Q190.463 776.213 187.385 771.629 Q184.329 767.023 184.329 758.296 Q184.329 749.546 187.385 744.963 Q190.463 740.356 196.274 740.356 Z" fill="#000000" fill-rule="evenodd" fill-opacity="1" /><path clip-path="url(#clip170)" d="M216.436 769.662 L221.32 769.662 L221.32 775.541 L216.436 775.541 L216.436 769.662 Z" fill="#000000" fill-rule="evenodd" fill-opacity="1" /><path clip-path="url(#clip170)" d="M241.505 744.06 Q237.894 744.06 236.065 747.625 Q234.26 751.167 234.26 758.296 Q234.26 765.403 236.065 768.967 Q237.894 772.509 241.505 772.509 Q245.139 772.509 246.945 768.967 Q248.773 765.403 248.773 758.296 Q248.773 751.167 246.945 747.625 Q245.139 744.06 241.505 744.06 M241.505 740.356 Q247.315 740.356 250.371 744.963 Q253.449 749.546 253.449 758.296 Q253.449 767.023 250.371 771.629 Q247.315 776.213 241.505 776.213 Q235.695 776.213 232.616 771.629 Q229.56 767.023 229.56 758.296 Q229.56 749.546 232.616 744.963 Q235.695 740.356 241.505 740.356 Z" fill="#000000" fill-rule="evenodd" fill-opacity="1" /><path clip-path="url(#clip170)" d="M271.667 744.06 Q268.056 744.06 266.227 747.625 Q264.421 751.167 264.421 758.296 Q264.421 765.403 266.227 768.967 Q268.056 772.509 271.667 772.509 Q275.301 772.509 277.107 768.967 Q278.935 765.403 278.935 758.296 Q278.935 751.167 277.107 747.625 Q275.301 744.06 271.667 744.06 M271.667 740.356 Q277.477 740.356 280.532 744.963 Q283.611 749.546 283.611 758.296 Q283.611 767.023 280.532 771.629 Q277.477 776.213 271.667 776.213 Q265.857 776.213 262.778 771.629 Q259.722 767.023 259.722 758.296 Q259.722 749.546 262.778 744.963 Q265.857 740.356 271.667 740.356 Z" fill="#000000" fill-rule="evenodd" fill-opacity="1" /><path clip-path="url(#clip170)" d="M295.856 771.606 L312.176 771.606 L312.176 775.541 L290.231 775.541 L290.231 771.606 Q292.893 768.852 297.477 764.222 Q302.083 759.569 303.264 758.227 Q305.509 755.704 306.389 753.967 Q307.292 752.208 307.292 750.518 Q307.292 747.764 305.347 746.028 Q303.426 744.292 300.324 744.292 Q298.125 744.292 295.671 745.055 Q293.241 745.819 290.463 747.37 L290.463 742.648 Q293.287 741.514 295.741 740.935 Q298.194 740.356 300.231 740.356 Q305.602 740.356 308.796 743.042 Q311.991 745.727 311.991 750.217 Q311.991 752.347 311.18 754.268 Q310.393 756.167 308.287 758.759 Q307.708 759.43 304.606 762.648 Q301.505 765.842 295.856 771.606 Z" fill="#000000" fill-rule="evenodd" fill-opacity="1" /><path clip-path="url(#clip170)" d="M194.19 510.478 Q190.579 510.478 188.75 514.043 Q186.945 517.585 186.945 524.714 Q186.945 531.821 188.75 535.386 Q190.579 538.927 194.19 538.927 Q197.825 538.927 199.63 535.386 Q201.459 531.821 201.459 524.714 Q201.459 517.585 199.63 514.043 Q197.825 510.478 194.19 510.478 M194.19 506.775 Q200 506.775 203.056 511.381 Q206.135 515.964 206.135 524.714 Q206.135 533.441 203.056 538.048 Q200 542.631 194.19 542.631 Q188.38 542.631 185.301 538.048 Q182.246 533.441 182.246 524.714 Q182.246 515.964 185.301 511.381 Q188.38 506.775 194.19 506.775 Z" fill="#000000" fill-rule="evenodd" fill-opacity="1" /><path clip-path="url(#clip170)" d="M214.352 536.08 L219.236 536.08 L219.236 541.96 L214.352 541.96 L214.352 536.08 Z" fill="#000000" fill-rule="evenodd" fill-opacity="1" /><path clip-path="url(#clip170)" d="M239.422 510.478 Q235.81 510.478 233.982 514.043 Q232.176 517.585 232.176 524.714 Q232.176 531.821 233.982 535.386 Q235.81 538.927 239.422 538.927 Q243.056 538.927 244.861 535.386 Q246.69 531.821 246.69 524.714 Q246.69 517.585 244.861 514.043 Q243.056 510.478 239.422 510.478 M239.422 506.775 Q245.232 506.775 248.287 511.381 Q251.366 515.964 251.366 524.714 Q251.366 533.441 248.287 538.048 Q245.232 542.631 239.422 542.631 Q233.611 542.631 230.533 538.048 Q227.477 533.441 227.477 524.714 Q227.477 515.964 230.533 511.381 Q233.611 506.775 239.422 506.775 Z" fill="#000000" fill-rule="evenodd" fill-opacity="1" /><path clip-path="url(#clip170)" d="M269.583 510.478 Q265.972 510.478 264.144 514.043 Q262.338 517.585 262.338 524.714 Q262.338 531.821 264.144 535.386 Q265.972 538.927 269.583 538.927 Q273.218 538.927 275.023 535.386 Q276.852 531.821 276.852 524.714 Q276.852 517.585 275.023 514.043 Q273.218 510.478 269.583 510.478 M269.583 506.775 Q275.394 506.775 278.449 511.381 Q281.528 515.964 281.528 524.714 Q281.528 533.441 278.449 538.048 Q275.394 542.631 269.583 542.631 Q263.773 542.631 260.695 538.048 Q257.639 533.441 257.639 524.714 Q257.639 515.964 260.695 511.381 Q263.773 506.775 269.583 506.775 Z" fill="#000000" fill-rule="evenodd" fill-opacity="1" /><path clip-path="url(#clip170)" d="M302.592 511.474 L290.787 529.923 L302.592 529.923 L302.592 511.474 M301.366 507.4 L307.245 507.4 L307.245 529.923 L312.176 529.923 L312.176 533.812 L307.245 533.812 L307.245 541.96 L302.592 541.96 L302.592 533.812 L286.991 533.812 L286.991 529.298 L301.366 507.4 Z" fill="#000000" fill-rule="evenodd" fill-opacity="1" /><path clip-path="url(#clip170)" d="M194.514 276.897 Q190.903 276.897 189.075 280.461 Q187.269 284.003 187.269 291.133 Q187.269 298.239 189.075 301.804 Q190.903 305.346 194.514 305.346 Q198.149 305.346 199.954 301.804 Q201.783 298.239 201.783 291.133 Q201.783 284.003 199.954 280.461 Q198.149 276.897 194.514 276.897 M194.514 273.193 Q200.325 273.193 203.38 277.799 Q206.459 282.383 206.459 291.133 Q206.459 299.86 203.38 304.466 Q200.325 309.049 194.514 309.049 Q188.704 309.049 185.626 304.466 Q182.57 299.86 182.57 291.133 Q182.57 282.383 185.626 277.799 Q188.704 273.193 194.514 273.193 Z" fill="#000000" fill-rule="evenodd" fill-opacity="1" /><path clip-path="url(#clip170)" d="M214.676 302.498 L219.561 302.498 L219.561 308.378 L214.676 308.378 L214.676 302.498 Z" fill="#000000" fill-rule="evenodd" fill-opacity="1" /><path clip-path="url(#clip170)" d="M239.746 276.897 Q236.135 276.897 234.306 280.461 Q232.5 284.003 232.5 291.133 Q232.5 298.239 234.306 301.804 Q236.135 305.346 239.746 305.346 Q243.38 305.346 245.185 301.804 Q247.014 298.239 247.014 291.133 Q247.014 284.003 245.185 280.461 Q243.38 276.897 239.746 276.897 M239.746 273.193 Q245.556 273.193 248.611 277.799 Q251.69 282.383 251.69 291.133 Q251.69 299.86 248.611 304.466 Q245.556 309.049 239.746 309.049 Q233.935 309.049 230.857 304.466 Q227.801 299.86 227.801 291.133 Q227.801 282.383 230.857 277.799 Q233.935 273.193 239.746 273.193 Z" fill="#000000" fill-rule="evenodd" fill-opacity="1" /><path clip-path="url(#clip170)" d="M269.907 276.897 Q266.296 276.897 264.468 280.461 Q262.662 284.003 262.662 291.133 Q262.662 298.239 264.468 301.804 Q266.296 305.346 269.907 305.346 Q273.542 305.346 275.347 301.804 Q277.176 298.239 277.176 291.133 Q277.176 284.003 275.347 280.461 Q273.542 276.897 269.907 276.897 M269.907 273.193 Q275.718 273.193 278.773 277.799 Q281.852 282.383 281.852 291.133 Q281.852 299.86 278.773 304.466 Q275.718 309.049 269.907 309.049 Q264.097 309.049 261.019 304.466 Q257.963 299.86 257.963 291.133 Q257.963 282.383 261.019 277.799 Q264.097 273.193 269.907 273.193 Z" fill="#000000" fill-rule="evenodd" fill-opacity="1" /><path clip-path="url(#clip170)" d="M300.648 289.235 Q297.5 289.235 295.648 291.387 Q293.819 293.54 293.819 297.29 Q293.819 301.017 295.648 303.193 Q297.5 305.346 300.648 305.346 Q303.796 305.346 305.625 303.193 Q307.477 301.017 307.477 297.29 Q307.477 293.54 305.625 291.387 Q303.796 289.235 300.648 289.235 M309.93 274.582 L309.93 278.841 Q308.171 278.008 306.366 277.568 Q304.583 277.128 302.824 277.128 Q298.194 277.128 295.741 280.253 Q293.31 283.378 292.963 289.698 Q294.329 287.684 296.389 286.619 Q298.449 285.531 300.926 285.531 Q306.134 285.531 309.143 288.702 Q312.176 291.85 312.176 297.29 Q312.176 302.614 309.028 305.832 Q305.88 309.049 300.648 309.049 Q294.653 309.049 291.481 304.466 Q288.31 299.86 288.31 291.133 Q288.31 282.938 292.199 278.077 Q296.088 273.193 302.639 273.193 Q304.398 273.193 306.18 273.54 Q307.986 273.887 309.93 274.582 Z" fill="#000000" fill-rule="evenodd" fill-opacity="1" /><path clip-path="url(#clip170)" d="M194.769 43.3149 Q191.158 43.3149 189.329 46.8797 Q187.524 50.4214 187.524 57.551 Q187.524 64.6574 189.329 68.2222 Q191.158 71.7639 194.769 71.7639 Q198.403 71.7639 200.209 68.2222 Q202.037 64.6574 202.037 57.551 Q202.037 50.4214 200.209 46.8797 Q198.403 43.3149 194.769 43.3149 M194.769 39.6113 Q200.579 39.6113 203.635 44.2177 Q206.713 48.801 206.713 57.551 Q206.713 66.2778 203.635 70.8842 Q200.579 75.4676 194.769 75.4676 Q188.959 75.4676 185.88 70.8842 Q182.825 66.2778 182.825 57.551 Q182.825 48.801 185.88 44.2177 Q188.959 39.6113 194.769 39.6113 Z" fill="#000000" fill-rule="evenodd" fill-opacity="1" /><path clip-path="url(#clip170)" d="M214.931 68.9167 L219.815 68.9167 L219.815 74.7963 L214.931 74.7963 L214.931 68.9167 Z" fill="#000000" fill-rule="evenodd" fill-opacity="1" /><path clip-path="url(#clip170)" d="M240 43.3149 Q236.389 43.3149 234.56 46.8797 Q232.755 50.4214 232.755 57.551 Q232.755 64.6574 234.56 68.2222 Q236.389 71.7639 240 71.7639 Q243.634 71.7639 245.44 68.2222 Q247.269 64.6574 247.269 57.551 Q247.269 50.4214 245.44 46.8797 Q243.634 43.3149 240 43.3149 M240 39.6113 Q245.81 39.6113 248.866 44.2177 Q251.945 48.801 251.945 57.551 Q251.945 66.2778 248.866 70.8842 Q245.81 75.4676 240 75.4676 Q234.19 75.4676 231.111 70.8842 Q228.056 66.2778 228.056 57.551 Q228.056 48.801 231.111 44.2177 Q234.19 39.6113 240 39.6113 Z" fill="#000000" fill-rule="evenodd" fill-opacity="1" /><path clip-path="url(#clip170)" d="M270.162 43.3149 Q266.551 43.3149 264.722 46.8797 Q262.917 50.4214 262.917 57.551 Q262.917 64.6574 264.722 68.2222 Q266.551 71.7639 270.162 71.7639 Q273.796 71.7639 275.602 68.2222 Q277.431 64.6574 277.431 57.551 Q277.431 50.4214 275.602 46.8797 Q273.796 43.3149 270.162 43.3149 M270.162 39.6113 Q275.972 39.6113 279.028 44.2177 Q282.106 48.801 282.106 57.551 Q282.106 66.2778 279.028 70.8842 Q275.972 75.4676 270.162 75.4676 Q264.352 75.4676 261.273 70.8842 Q258.218 66.2778 258.218 57.551 Q258.218 48.801 261.273 44.2177 Q264.352 39.6113 270.162 39.6113 Z" fill="#000000" fill-rule="evenodd" fill-opacity="1" /><path clip-path="url(#clip170)" d="M300.324 58.3843 Q296.991 58.3843 295.069 60.1667 Q293.171 61.9491 293.171 65.0741 Q293.171 68.1991 295.069 69.9815 Q296.991 71.7639 300.324 71.7639 Q303.657 71.7639 305.579 69.9815 Q307.5 68.1759 307.5 65.0741 Q307.5 61.9491 305.579 60.1667 Q303.68 58.3843 300.324 58.3843 M295.648 56.3936 Q292.639 55.6528 290.949 53.5927 Q289.282 51.5325 289.282 48.5695 Q289.282 44.4261 292.222 42.0187 Q295.185 39.6113 300.324 39.6113 Q305.486 39.6113 308.426 42.0187 Q311.366 44.4261 311.366 48.5695 Q311.366 51.5325 309.676 53.5927 Q308.009 55.6528 305.023 56.3936 Q308.403 57.1806 310.278 59.4723 Q312.176 61.7639 312.176 65.0741 Q312.176 70.0972 309.097 72.7824 Q306.042 75.4676 300.324 75.4676 Q294.606 75.4676 291.528 72.7824 Q288.472 70.0972 288.472 65.0741 Q288.472 61.7639 290.37 59.4723 Q292.268 57.1806 295.648 56.3936 M293.935 49.0094 Q293.935 51.6945 295.602 53.1992 Q297.292 54.7038 300.324 54.7038 Q303.333 54.7038 305.023 53.1992 Q306.736 51.6945 306.736 49.0094 Q306.736 46.3242 305.023 44.8196 Q303.333 43.3149 300.324 43.3149 Q297.292 43.3149 295.602 44.8196 Q293.935 46.3242 293.935 49.0094 Z" fill="#000000" fill-rule="evenodd" fill-opacity="1" /><path clip-path="url(#clip170)" d="M84.4699 546.954 L84.4699 519.645 L89.8808 519.645 L89.8808 540.525 L103.885 540.525 L103.885 521.682 L109.296 521.682 L109.296 540.525 L131.99 540.525 L131.99 546.954 L84.4699 546.954 Z" fill="#000000" fill-rule="evenodd" fill-opacity="1" /><polyline clip-path="url(#clip172)" style="stroke:#000000; stroke-linecap:round; stroke-linejoin:round; stroke-width:4; stroke-opacity:1; fill:none" points="
  404.909,991.843 408.699,991.843 412.489,991.843 416.279,991.843 420.068,991.843 423.858,991.843 427.648,991.843 431.438,991.843 435.228,991.843 439.017,991.843 
  442.807,991.843 446.597,991.843 450.387,991.843 454.177,991.843 457.966,991.843 461.756,991.843 465.546,991.843 469.336,991.843 473.126,991.843 476.915,991.843 
  480.705,991.843 484.495,991.843 488.285,991.834 492.075,991.706 495.865,991.604 499.654,991.513 503.444,991.423 507.234,991.33 511.024,991.233 514.814,991.135 
  518.603,991.021 522.393,990.915 526.183,990.787 529.973,990.667 533.763,990.536 537.552,990.39 541.342,990.244 545.132,990.092 548.922,989.933 552.712,989.766 
  556.501,989.583 560.291,989.399 564.081,989.22 567.871,989.002 571.661,988.808 575.45,988.581 579.24,988.369 583.03,988.13 586.82,987.884 590.61,987.641 
  594.399,987.383 598.189,987.116 601.979,986.839 605.769,986.553 609.559,986.262 613.349,985.974 617.138,985.634 620.928,985.315 624.718,985.011 628.508,984.63 
  632.298,984.317 636.087,983.914 639.877,983.578 643.667,983.164 647.457,982.786 651.247,982.393 655.036,981.979 658.826,981.527 662.616,981.092 666.406,980.652 
  670.196,980.188 673.985,979.719 677.775,979.232 681.565,978.765 685.355,978.199 689.145,977.672 692.934,977.131 696.724,976.602 700.514,976.018 704.304,975.397 
  708.094,974.86 711.883,974.136 715.673,973.547 719.463,972.831 723.253,972.195 727.043,971.345 730.833,970.645 734.622,969.74 738.412,968.669 742.202,967.673 
  745.992,967.016 749.782,966.254 753.571,965.687 757.361,965.02 761.151,964.26 764.941,963.697 768.731,962.987 772.52,962.229 776.31,961.504 780.1,960.85 
  783.89,960.086 787.68,959.274 791.469,958.643 795.259,957.901 799.049,957.113 802.839,956.248 806.629,955.541 810.418,954.741 814.208,953.939 817.998,953.131 
  821.788,952.32 825.578,951.554 829.367,950.526 833.157,949.905 836.947,948.964 840.737,948.029 844.527,947.218 848.317,946.379 852.106,945.467 855.896,944.471 
  859.686,943.553 863.476,942.824 867.266,941.688 871.055,940.84 874.845,940.176 878.635,939.021 882.425,938.209 886.215,937.197 890.004,936.226 893.794,935.229 
  897.584,934.309 901.374,933.262 905.164,932.269 908.953,931.399 912.743,930.094 916.533,929.155 920.323,928.031 924.113,927.178 927.902,926.107 931.692,925.03 
  935.482,923.842 939.272,922.76 943.062,921.814 946.851,920.691 950.641,919.509 954.431,918.234 958.221,917.35 962.011,916.203 965.8,915.091 969.59,914.029 
  973.38,912.411 977.17,911.474 980.96,910.335 984.75,909.202 988.539,908.02 992.329,906.761 996.119,905.329 999.909,904.367 1003.7,903.21 1007.49,902.039 
  1011.28,900.441 1015.07,899.134 1018.86,898.458 1022.65,896.689 1026.44,895.596 1030.23,894.429 1034.02,892.567 1037.81,891.634 1041.6,890.482 1045.39,888.953 
  1049.18,887.979 1052.97,886.157 1056.76,885.355 1060.55,883.323 1064.34,883.081 1068.13,881.543 1071.92,881.626 1075.7,880.133 1079.49,880.153 1083.28,878.253 
  1087.07,877.246 1090.86,874.704 1094.65,873.077 1098.44,870.728 1102.23,868.902 1106.02,867.478 1109.81,865.041 1113.6,864.334 1117.39,863.003 1121.18,860.496 
  1124.97,859.599 1128.76,858.024 1132.55,855.838 1136.34,854.642 1140.13,853.587 1143.92,851.175 1147.71,850.152 1151.5,848.794 1155.29,847.211 1159.08,844.517 
  1162.87,843.272 1166.66,842.394 1170.45,840.855 1174.24,838.458 1178.03,836.979 1181.82,835.585 1185.61,834.053 1189.4,832.313 1193.19,830.207 1196.98,828.318 
  1200.77,827.119 1204.56,825.575 1208.35,823.679 1212.14,821.951 1215.93,820.244 1219.72,818.518 1223.51,816.698 1227.3,814.785 1231.09,812.996 1234.88,811.225 
  1238.67,809.777 1242.46,807.889 1246.25,805.808 1250.04,804.039 1253.83,802.233 1257.62,800.305 1261.41,798.965 1265.2,796.837 1268.98,795.007 1272.77,793.247 
  1276.56,791.582 1280.35,789.701 1284.14,787.291 1287.93,785.67 1291.72,783.149 1295.51,781.694 1299.3,779.836 1303.09,777.762 1306.88,775.678 1310.67,773.727 
  1314.46,771.86 1318.25,770.058 1322.04,767.699 1325.83,766.504 1329.62,763.591 1333.41,761.568 1337.2,759.731 1340.99,757.97 1344.78,755.703 1348.57,754.098 
  1352.36,751.429 1356.15,748.294 1359.94,747.587 1363.73,745.607 1367.52,743.89 1371.31,740.918 1375.1,738.348 1378.89,736.687 1382.68,736.018 1386.47,731.916 
  1390.26,728.958 1394.05,727.796 1397.84,726.727 1401.63,724.108 1405.42,721.309 1409.21,719.003 1413,717.867 1416.79,713.303 1420.58,711.78 1424.37,712.052 
  1428.16,707.493 1431.95,705.272 1435.74,704.39 1439.53,700.281 1443.32,697.9 1447.11,697.042 1450.9,693.745 1454.69,691.674 1458.48,690.331 1462.27,685.633 
  1466.05,684.966 1469.84,682.188 1473.63,679.613 1477.42,677.96 1481.21,673.598 1485,672.809 1488.79,669.574 1492.58,667.273 1496.37,665.222 1500.16,661.06 
  1503.95,660.902 1507.74,655.896 1511.53,656.527 1515.32,650.538 1519.11,651.649 1522.9,645.569 1526.69,647.149 1530.48,640.519 1534.27,641.603 1538.06,634.878 
  1541.85,636.293 1545.64,629.587 1549.43,631.653 1553.22,625.612 1557.01,625.135 1560.8,619.418 1564.59,618.996 1568.38,615.11 1572.17,613.929 1575.96,613.358 
  1579.75,606.039 1583.54,605.386 1587.33,599.533 1591.12,600.43 1594.91,599.191 1598.7,592.019 1602.49,591.317 1606.28,589.737 1610.07,584.224 1613.86,584.007 
  1617.65,576.771 1621.44,576.315 1625.23,576.521 1629.02,573.636 1632.81,566.735 1636.6,565.15 1640.39,560.702 1644.18,558.922 1647.97,557.139 1651.76,554.464 
  1655.55,548.765 1659.34,549.173 1663.12,545.545 1666.91,541.288 1670.7,535.893 1674.49,534.98 1678.28,532.149 1682.07,531.102 1685.86,524.294 1689.65,522.542 
  1693.44,522.753 1697.23,518.055 1701.02,510.52 1704.81,506.813 1708.6,506.821 1712.39,503.16 1716.18,501.969 1719.97,499.586 1723.76,494.976 1727.55,495.356 
  1731.34,482.809 1735.13,480.019 1738.92,480.435 1742.71,476.61 1746.5,473.356 1750.29,471.952 1754.08,466.675 1757.87,467.943 1761.66,464.425 1765.45,456.271 
  1769.24,447.306 1773.03,443.953 1776.82,444.529 1780.61,439.553 1784.4,439.865 1788.19,440.272 1791.98,434.243 1795.77,430.507 1799.56,435.935 1803.35,442.435 
  1807.14,447.502 1810.93,450.057 1814.72,450.815 1818.51,451.084 1822.3,454.765 1826.09,451.798 1829.88,455.047 1833.67,452.313 1837.46,454.58 1841.25,452.412 
  1845.04,451.401 1848.83,452.776 1852.62,450.209 1856.4,451.437 1860.19,448.526 1863.98,447.307 1867.77,448.996 1871.56,446.371 1875.35,445.062 1879.14,446.398 
  1882.93,446.565 1886.72,443.143 1890.51,441.17 1894.3,441.122 1898.09,439.035 1901.88,435.258 1905.67,434.059 1909.46,432.314 1913.25,431.56 1917.04,429.129 
  1920.83,427.939 1924.62,425.783 1928.41,422.619 1932.2,421.447 1935.99,419.799 1939.78,416.861 1943.57,415.073 1947.36,413.586 1951.15,410.997 1954.94,408.067 
  1958.73,406.572 1962.52,404.348 1966.31,399.03 1970.1,398.948 1973.89,397.503 1977.68,393.391 1981.47,390.137 1985.26,387.608 1989.05,385.569 1992.84,381.402 
  1996.63,379.389 2000.42,375.833 2004.21,371.174 2008,370.652 2011.79,363.167 2015.58,359.844 2019.37,360.559 2023.16,351.355 2026.95,348.456 2030.74,344.053 
  2034.53,337.106 2038.32,336.396 2042.11,324.275 2045.9,322.941 2049.69,315.044 2053.47,307.607 2057.26,297.415 2061.05,290.343 2064.84,278.994 2068.63,263.914 
  2072.42,251.773 2076.21,231.363 2080,208.289 2083.79,157.412 2087.58,116.144 2091.37,109.506 2095.16,103.403 2098.95,103.125 2102.74,93.8367 2106.53,85.4953 
  2110.32,85.3822 2114.11,181.947 2117.9,991.843 2121.69,991.843 2125.48,991.843 2129.27,991.843 2133.06,991.843 2136.85,991.843 2140.64,991.843 2144.43,991.843 
  2148.22,991.843 2152.01,991.843 2155.8,991.843 2159.59,991.843 2163.38,991.843 2167.17,991.843 2170.96,991.843 2174.75,991.843 2178.54,991.843 2182.33,991.843 
  2186.12,991.843 2189.91,991.843 2193.7,991.843 2197.49,991.843 2201.28,991.843 2205.07,991.843 2208.86,991.843 2212.65,991.843 2216.44,991.843 2220.23,991.843 
  2224.02,991.843 2227.81,991.843 2231.6,991.843 2235.39,991.843 2239.18,991.843 2242.97,991.843 2246.76,991.843 2250.54,991.843 2254.33,991.843 2258.12,991.843 
  2261.91,991.843 2265.7,991.843 2269.49,991.843 2273.28,991.843 2277.07,991.843 2280.86,991.843 2284.65,991.843 2288.44,991.843 2292.23,991.843 2296.02,991.843 
  
  "/>
<polyline clip-path="url(#clip172)" style="stroke:#000000; stroke-linecap:round; stroke-linejoin:round; stroke-width:4; stroke-opacity:1; fill:none" stroke-dasharray="2, 4" points="
  404.909,991.843 408.699,991.843 412.489,991.843 416.279,991.843 420.068,991.843 423.858,991.843 427.648,991.843 431.438,991.843 435.228,991.843 439.017,991.843 
  442.807,991.843 446.597,991.843 450.387,991.843 454.177,991.843 457.966,991.843 461.756,991.843 465.546,991.843 469.336,991.843 473.126,991.843 476.915,991.843 
  480.705,991.843 484.495,991.812 488.285,991.697 492.075,991.612 495.865,991.532 499.654,991.45 503.444,991.365 507.234,991.271 511.024,991.175 514.814,991.078 
  518.603,990.964 522.393,990.855 526.183,990.73 529.973,990.603 533.763,990.471 537.552,990.329 541.342,990.18 545.132,990.024 548.922,989.86 552.712,989.692 
  556.501,989.514 560.291,989.32 564.081,989.14 567.871,988.918 571.661,988.723 575.45,988.492 579.24,988.268 583.03,988.038 586.82,987.792 590.61,987.538 
  594.399,987.276 598.189,987 601.979,986.718 605.769,986.431 609.559,986.131 613.349,985.843 617.138,985.495 620.928,985.174 624.718,984.849 628.508,984.485 
  632.298,984.141 636.087,983.766 639.877,983.374 643.667,983.006 647.457,982.604 651.247,982.164 655.036,981.749 658.826,981.318 662.616,980.863 666.406,980.404 
  670.196,979.935 673.985,979.447 677.775,978.948 681.565,978.432 685.355,977.873 689.145,977.333 692.934,976.779 696.724,976.188 700.514,975.56 704.304,974.994 
  708.094,974.243 711.883,973.636 715.673,972.801 719.463,972.081 723.253,971.01 727.043,970.138 730.833,969.648 734.622,968.943 738.412,968.352 742.202,967.695 
  745.992,967.126 749.782,966.439 753.571,965.707 757.361,965.107 761.151,964.444 764.941,963.746 768.731,962.976 772.52,962.407 776.31,961.709 780.1,960.93 
  783.89,960.163 787.68,959.506 791.469,958.725 795.259,957.969 799.049,957.133 802.839,956.58 806.629,955.616 810.418,954.831 814.208,954.105 817.998,953.297 
  821.788,952.447 825.578,951.734 829.367,950.597 833.157,950.162 836.947,949.081 840.737,948.426 844.527,947.189 848.317,946.62 852.106,945.551 855.896,944.878 
  859.686,943.876 863.476,942.82 867.266,942.158 871.055,941.017 874.845,940.174 878.635,939.225 882.425,938.408 886.215,937.254 890.004,936.354 893.794,935.383 
  897.584,934.265 901.374,933.545 905.164,932.557 908.953,931.267 912.743,930.299 916.533,929.155 920.323,928.283 924.113,927.322 927.902,926.296 931.692,925.217 
  935.482,923.996 939.272,922.785 943.062,921.904 946.851,920.823 950.641,919.749 954.431,918.7 958.221,917.415 962.011,916.378 965.8,915.09 969.59,913.946 
  973.38,912.802 977.17,911.69 980.96,910.709 984.75,909.313 988.539,908.029 992.329,906.827 996.119,905.744 999.909,904.627 1003.7,903.002 1007.49,902.177 
  1011.28,901.039 1015.07,899.347 1018.86,898.165 1022.65,897.19 1026.44,895.424 1030.23,894.53 1034.02,893.136 1037.81,891.841 1041.6,890.741 1045.39,888.911 
  1049.18,888.116 1052.97,886.099 1056.76,885.335 1060.55,883.582 1064.34,882.882 1068.13,880.725 1071.92,880.016 1075.7,877.86 1079.49,877.067 1083.28,875.149 
  1087.07,873.882 1090.86,873.138 1094.65,870.771 1098.44,870.037 1102.23,867.89 1106.02,866.921 1109.81,865.639 1113.6,863.447 1117.39,862.347 1121.18,860.934 
  1124.97,858.857 1128.76,857.917 1132.55,856.618 1136.34,854.555 1140.13,853.227 1143.92,851.856 1147.71,850.27 1151.5,847.86 1155.29,846.46 1159.08,845.481 
  1162.87,844.041 1166.66,842.553 1170.45,840.462 1174.24,838.787 1178.03,837.1 1181.82,835.537 1185.61,833.913 1189.4,832.175 1193.19,830.001 1196.98,829.107 
  1200.77,827.586 1204.56,825.553 1208.35,823.737 1212.14,821.986 1215.93,820.315 1219.72,818.645 1223.51,816.966 1227.3,815.264 1231.09,813.338 1234.88,811.8 
  1238.67,809.581 1242.46,807.62 1246.25,806.125 1250.04,804.835 1253.83,802.826 1257.62,800.998 1261.41,799.031 1265.2,796.946 1268.98,794.958 1272.77,792.966 
  1276.56,790.959 1280.35,789.473 1284.14,787.817 1287.93,785.983 1291.72,783.714 1295.51,781.71 1299.3,779.792 1303.09,778.031 1306.88,776.523 1310.67,774.834 
  1314.46,771.886 1318.25,769.199 1322.04,767.839 1325.83,765.907 1329.62,764.081 1333.41,762.68 1337.2,760.804 1340.99,758.069 1344.78,756.022 1348.57,753.541 
  1352.36,751.282 1356.15,749.778 1359.94,746.813 1363.73,745.454 1367.52,744.24 1371.31,742.698 1375.1,738.698 1378.89,736.499 1382.68,734.545 1386.47,733.869 
  1390.26,729.283 1394.05,727.614 1397.84,727.1 1401.63,724.141 1405.42,721.077 1409.21,719.287 1413,718.763 1416.79,714.242 1420.58,713.058 1424.37,711.616 
  1428.16,706.859 1431.95,704.378 1435.74,705.056 1439.53,700.355 1443.32,699.373 1447.11,697.925 1450.9,694.414 1454.69,693.231 1458.48,688.426 1462.27,685.741 
  1466.05,684.906 1469.84,681.646 1473.63,682.45 1477.42,677.008 1481.21,675.327 1485,673.34 1488.79,669.291 1492.58,669.12 1496.37,663.477 1500.16,664.173 
  1503.95,659.627 1507.74,659.701 1511.53,653.433 1515.32,654.246 1519.11,648.87 1522.9,649.534 1526.69,644.496 1530.48,644.504 1534.27,637.635 1538.06,639.029 
  1541.85,632.443 1545.64,632.922 1549.43,630.023 1553.22,628.254 1557.01,623.558 1560.8,622.332 1564.59,619.207 1568.38,614.862 1572.17,614.379 1575.96,610.004 
  1579.75,609.012 1583.54,604.687 1587.33,602.019 1591.12,601.419 1594.91,597.755 1598.7,594.673 1602.49,593.065 1606.28,585.019 1610.07,585.412 1613.86,585.797 
  1617.65,579.249 1621.44,578.157 1625.23,575.935 1629.02,568.271 1632.81,570.217 1636.6,567.651 1640.39,561.668 1644.18,557.416 1647.97,558.646 1651.76,556.316 
  1655.55,548.349 1659.34,548.65 1663.12,547.323 1666.91,544.27 1670.7,534.809 1674.49,534.276 1678.28,535.043 1682.07,531.745 1685.86,523.605 1689.65,523.755 
  1693.44,522.248 1697.23,519.343 1701.02,513.885 1704.81,512.6 1708.6,504.96 1712.39,503.104 1716.18,503.659 1719.97,499.063 1723.76,494.646 1727.55,494.055 
  1731.34,490.529 1735.13,485.644 1738.92,482.383 1742.71,475.476 1746.5,475.482 1750.29,473.462 1754.08,466.756 1757.87,467.322 1761.66,463.723 1765.45,458.516 
  1769.24,454.603 1773.03,449.266 1776.82,450.601 1780.61,446.353 1784.4,441.921 1788.19,439.762 1791.98,436.461 1795.77,434.637 1799.56,426.347 1803.35,433.697 
  1807.14,441.177 1810.93,447.761 1814.72,447.556 1818.51,451.838 1822.3,449.395 1826.09,451.246 1829.88,449.643 1833.67,452.255 1837.46,451.877 1841.25,450.87 
  1845.04,453.106 1848.83,449.63 1852.62,449.598 1856.4,447.149 1860.19,446.517 1863.98,449.605 1867.77,446.358 1871.56,446.142 1875.35,444.804 1879.14,440.187 
  1882.93,439.652 1886.72,441.863 1890.51,439.716 1894.3,437.645 1898.09,436.933 1901.88,434.431 1905.67,431.073 1909.46,430.581 1913.25,429.606 1917.04,428.052 
  1920.83,427.977 1924.62,424.478 1928.41,420.288 1932.2,419.868 1935.99,419.19 1939.78,417.683 1943.57,415.179 1947.36,410.703 1951.15,408.702 1954.94,407.66 
  1958.73,406.32 1962.52,404.521 1966.31,400.923 1970.1,394.642 1973.89,396.403 1977.68,394.361 1981.47,390.422 1985.26,385.37 1989.05,382.162 1992.84,379.203 
  1996.63,379.477 2000.42,376.571 2004.21,366.959 2008,368.046 2011.79,364.112 2015.58,362.314 2019.37,354.869 2023.16,349.769 2026.95,347.51 2030.74,346.332 
  2034.53,336.358 2038.32,331.137 2042.11,328.762 2045.9,322.547 2049.69,309.511 2053.47,309.186 2057.26,300.879 2061.05,286.05 2064.84,279.146 2068.63,269.664 
  2072.42,247.922 2076.21,236.032 2080,210.156 2083.79,174.08 2087.58,108.988 2091.37,101.126 2095.16,87.4371 2098.95,93.2151 2102.74,86.8388 2106.53,74.7567 
  2110.32,76.1655 2114.11,261.037 2117.9,991.843 2121.69,991.843 2125.48,991.843 2129.27,991.843 2133.06,991.843 2136.85,991.843 2140.64,991.843 2144.43,991.843 
  2148.22,991.843 2152.01,991.843 2155.8,991.843 2159.59,991.843 2163.38,991.843 2167.17,991.843 2170.96,991.843 2174.75,991.843 2178.54,991.843 2182.33,991.843 
  2186.12,991.843 2189.91,991.843 2193.7,991.843 2197.49,991.843 2201.28,991.843 2205.07,991.843 2208.86,991.843 2212.65,991.843 2216.44,991.843 2220.23,991.843 
  2224.02,991.843 2227.81,991.843 2231.6,991.843 2235.39,991.843 2239.18,991.843 2242.97,991.843 2246.76,991.843 2250.54,991.843 2254.33,991.843 2258.12,991.843 
  2261.91,991.843 2265.7,991.843 2269.49,991.843 2273.28,991.843 2277.07,991.843 2280.86,991.843 2284.65,991.843 2288.44,991.843 2292.23,991.843 
  "/>
<path clip-path="url(#clip170)" d="
M414.995 235.168 L754.966 235.168 L754.966 79.6478 L414.995 79.6478  Z
  " fill="#ffffff" fill-rule="evenodd" fill-opacity="0"/>
<polyline clip-path="url(#clip170)" style="stroke:#000000; stroke-linecap:round; stroke-linejoin:round; stroke-width:4; stroke-opacity:1; fill:none" points="
  414.995,235.168 754.966,235.168 754.966,79.6478 414.995,79.6478 414.995,235.168 
  "/>
<polyline clip-path="url(#clip170)" style="stroke:#000000; stroke-linecap:round; stroke-linejoin:round; stroke-width:4; stroke-opacity:1; fill:none" points="
  437.268,131.488 570.907,131.488 
  "/>
<path clip-path="url(#clip170)" d="M605.078 125.828 Q601.652 125.828 599.661 128.513 Q597.671 131.175 597.671 135.828 Q597.671 140.481 599.638 143.166 Q601.629 145.828 605.078 145.828 Q608.481 145.828 610.472 143.143 Q612.462 140.458 612.462 135.828 Q612.462 131.222 610.472 128.536 Q608.481 125.828 605.078 125.828 M605.078 122.217 Q610.634 122.217 613.805 125.828 Q616.976 129.439 616.976 135.828 Q616.976 142.194 613.805 145.828 Q610.634 149.439 605.078 149.439 Q599.499 149.439 596.328 145.828 Q593.18 142.194 593.18 135.828 Q593.18 129.439 596.328 125.828 Q599.499 122.217 605.078 122.217 Z" fill="#000000" fill-rule="evenodd" fill-opacity="1" /><path clip-path="url(#clip170)" d="M623.597 138.536 L623.597 122.842 L627.856 122.842 L627.856 138.374 Q627.856 142.055 629.291 143.907 Q630.726 145.735 633.596 145.735 Q637.046 145.735 639.036 143.536 Q641.05 141.337 641.05 137.541 L641.05 122.842 L645.309 122.842 L645.309 148.768 L641.05 148.768 L641.05 144.786 Q639.499 147.147 637.439 148.305 Q635.402 149.439 632.694 149.439 Q628.226 149.439 625.911 146.661 Q623.597 143.884 623.597 138.536 M634.314 122.217 L634.314 122.217 Z" fill="#000000" fill-rule="evenodd" fill-opacity="1" /><path clip-path="url(#clip170)" d="M669.106 126.823 Q668.388 126.407 667.531 126.222 Q666.698 126.013 665.68 126.013 Q662.069 126.013 660.124 128.374 Q658.203 130.712 658.203 135.11 L658.203 148.768 L653.92 148.768 L653.92 122.842 L658.203 122.842 L658.203 126.87 Q659.545 124.509 661.698 123.374 Q663.851 122.217 666.93 122.217 Q667.369 122.217 667.902 122.286 Q668.434 122.333 669.082 122.449 L669.106 126.823 Z" fill="#000000" fill-rule="evenodd" fill-opacity="1" /><path clip-path="url(#clip170)" d="M690.101 123.606 L690.101 127.634 Q688.295 126.708 686.351 126.245 Q684.406 125.782 682.323 125.782 Q679.152 125.782 677.555 126.754 Q675.98 127.726 675.98 129.671 Q675.98 131.152 677.115 132.009 Q678.249 132.842 681.675 133.606 L683.133 133.93 Q687.67 134.902 689.568 136.685 Q691.49 138.444 691.49 141.615 Q691.49 145.226 688.619 147.333 Q685.772 149.439 680.772 149.439 Q678.689 149.439 676.42 149.022 Q674.175 148.629 671.675 147.819 L671.675 143.421 Q674.036 144.647 676.328 145.272 Q678.619 145.874 680.865 145.874 Q683.874 145.874 685.494 144.856 Q687.115 143.814 687.115 141.939 Q687.115 140.203 685.934 139.277 Q684.777 138.351 680.818 137.495 L679.337 137.148 Q675.379 136.314 673.619 134.601 Q671.86 132.865 671.86 129.856 Q671.86 126.198 674.453 124.208 Q677.045 122.217 681.814 122.217 Q684.175 122.217 686.258 122.564 Q688.342 122.911 690.101 123.606 Z" fill="#000000" fill-rule="evenodd" fill-opacity="1" /><polyline clip-path="url(#clip170)" style="stroke:#000000; stroke-linecap:round; stroke-linejoin:round; stroke-width:4; stroke-opacity:1; fill:none" stroke-dasharray="2, 4" points="
  437.268,183.328 570.907,183.328 
  "/>
<path clip-path="url(#clip170)" d="M608.365 178.663 Q607.648 178.247 606.791 178.062 Q605.958 177.853 604.939 177.853 Q601.328 177.853 599.384 180.214 Q597.462 182.552 597.462 186.95 L597.462 200.608 L593.18 200.608 L593.18 174.682 L597.462 174.682 L597.462 178.71 Q598.805 176.349 600.958 175.214 Q603.111 174.057 606.189 174.057 Q606.629 174.057 607.161 174.126 Q607.694 174.173 608.342 174.289 L608.365 178.663 Z" fill="#000000" fill-rule="evenodd" fill-opacity="1" /><path clip-path="url(#clip170)" d="M633.967 186.58 L633.967 188.663 L614.384 188.663 Q614.661 193.062 617.022 195.376 Q619.407 197.668 623.643 197.668 Q626.096 197.668 628.388 197.066 Q630.703 196.464 632.971 195.261 L632.971 199.288 Q630.68 200.261 628.272 200.77 Q625.865 201.279 623.388 201.279 Q617.185 201.279 613.55 197.668 Q609.939 194.057 609.939 187.9 Q609.939 181.534 613.365 177.807 Q616.814 174.057 622.647 174.057 Q627.879 174.057 630.911 177.437 Q633.967 180.793 633.967 186.58 M629.708 185.33 Q629.661 181.835 627.74 179.751 Q625.842 177.668 622.694 177.668 Q619.129 177.668 616.976 179.682 Q614.847 181.696 614.522 185.353 L629.708 185.33 Z" fill="#000000" fill-rule="evenodd" fill-opacity="1" /><path clip-path="url(#clip170)" d="M640.958 164.589 L645.217 164.589 L645.217 200.608 L640.958 200.608 L640.958 164.589 Z" fill="#000000" fill-rule="evenodd" fill-opacity="1" /><path clip-path="url(#clip170)" d="M654.129 164.589 L658.388 164.589 L658.388 200.608 L654.129 200.608 L654.129 164.589 Z" fill="#000000" fill-rule="evenodd" fill-opacity="1" /><path clip-path="url(#clip170)" d="M667.3 174.682 L671.559 174.682 L671.559 200.608 L667.3 200.608 L667.3 174.682 M667.3 164.589 L671.559 164.589 L671.559 169.983 L667.3 169.983 L667.3 164.589 Z" fill="#000000" fill-rule="evenodd" fill-opacity="1" /><path clip-path="url(#clip170)" d="M702.022 184.96 L702.022 200.608 L697.763 200.608 L697.763 185.099 Q697.763 181.418 696.328 179.589 Q694.892 177.761 692.022 177.761 Q688.573 177.761 686.582 179.96 Q684.592 182.159 684.592 185.955 L684.592 200.608 L680.309 200.608 L680.309 174.682 L684.592 174.682 L684.592 178.71 Q686.119 176.372 688.179 175.214 Q690.263 174.057 692.971 174.057 Q697.439 174.057 699.73 176.835 Q702.022 179.589 702.022 184.96 Z" fill="#000000" fill-rule="evenodd" fill-opacity="1" /><path clip-path="url(#clip170)" d="M732.693 186.58 L732.693 188.663 L713.11 188.663 Q713.388 193.062 715.749 195.376 Q718.133 197.668 722.369 197.668 Q724.823 197.668 727.114 197.066 Q729.429 196.464 731.698 195.261 L731.698 199.288 Q729.406 200.261 726.999 200.77 Q724.591 201.279 722.114 201.279 Q715.911 201.279 712.277 197.668 Q708.665 194.057 708.665 187.9 Q708.665 181.534 712.091 177.807 Q715.54 174.057 721.374 174.057 Q726.605 174.057 729.638 177.437 Q732.693 180.793 732.693 186.58 M728.434 185.33 Q728.388 181.835 726.466 179.751 Q724.568 177.668 721.42 177.668 Q717.855 177.668 715.702 179.682 Q713.573 181.696 713.249 185.353 L728.434 185.33 Z" fill="#000000" fill-rule="evenodd" fill-opacity="1" /><path clip-path="url(#clip170)" d="
M348.176 1423.18 L2352.76 1423.18 L2352.76 1180.15 L348.176 1180.15  Z
  " fill="#ffffff" fill-rule="evenodd" fill-opacity="0"/>
<defs>
  <clipPath id="clip173">
    <rect x="348" y="1180" width="2006" height="244"/>
  </clipPath>
</defs>
<polyline clip-path="url(#clip173)" style="stroke:#000000; stroke-linecap:round; stroke-linejoin:round; stroke-width:2; stroke-opacity:0.1; fill:none" points="
  404.909,1423.18 404.909,1180.15 
  "/>
<polyline clip-path="url(#clip173)" style="stroke:#000000; stroke-linecap:round; stroke-linejoin:round; stroke-width:2; stroke-opacity:0.1; fill:none" points="
  898.376,1423.18 898.376,1180.15 
  "/>
<polyline clip-path="url(#clip173)" style="stroke:#000000; stroke-linecap:round; stroke-linejoin:round; stroke-width:2; stroke-opacity:0.1; fill:none" points="
  1391.84,1423.18 1391.84,1180.15 
  "/>
<polyline clip-path="url(#clip173)" style="stroke:#000000; stroke-linecap:round; stroke-linejoin:round; stroke-width:2; stroke-opacity:0.1; fill:none" points="
  1885.31,1423.18 1885.31,1180.15 
  "/>
<polyline clip-path="url(#clip170)" style="stroke:#000000; stroke-linecap:round; stroke-linejoin:round; stroke-width:4; stroke-opacity:1; fill:none" points="
  348.176,1423.18 2352.76,1423.18 
  "/>
<polyline clip-path="url(#clip170)" style="stroke:#000000; stroke-linecap:round; stroke-linejoin:round; stroke-width:4; stroke-opacity:1; fill:none" points="
  404.909,1423.18 404.909,1404.28 
  "/>
<polyline clip-path="url(#clip170)" style="stroke:#000000; stroke-linecap:round; stroke-linejoin:round; stroke-width:4; stroke-opacity:1; fill:none" points="
  898.376,1423.18 898.376,1404.28 
  "/>
<polyline clip-path="url(#clip170)" style="stroke:#000000; stroke-linecap:round; stroke-linejoin:round; stroke-width:4; stroke-opacity:1; fill:none" points="
  1391.84,1423.18 1391.84,1404.28 
  "/>
<polyline clip-path="url(#clip170)" style="stroke:#000000; stroke-linecap:round; stroke-linejoin:round; stroke-width:4; stroke-opacity:1; fill:none" points="
  1885.31,1423.18 1885.31,1404.28 
  "/>
<path clip-path="url(#clip170)" d="M404.909 1454.1 Q401.298 1454.1 399.469 1457.66 Q397.664 1461.2 397.664 1468.33 Q397.664 1475.44 399.469 1479.01 Q401.298 1482.55 404.909 1482.55 Q408.543 1482.55 410.349 1479.01 Q412.178 1475.44 412.178 1468.33 Q412.178 1461.2 410.349 1457.66 Q408.543 1454.1 404.909 1454.1 M404.909 1450.39 Q410.719 1450.39 413.775 1455 Q416.854 1459.58 416.854 1468.33 Q416.854 1477.06 413.775 1481.67 Q410.719 1486.25 404.909 1486.25 Q399.099 1486.25 396.02 1481.67 Q392.965 1477.06 392.965 1468.33 Q392.965 1459.58 396.02 1455 Q399.099 1450.39 404.909 1450.39 Z" fill="#000000" fill-rule="evenodd" fill-opacity="1" /><path clip-path="url(#clip170)" d="M893.028 1481.64 L909.348 1481.64 L909.348 1485.58 L887.403 1485.58 L887.403 1481.64 Q890.065 1478.89 894.649 1474.26 Q899.255 1469.61 900.436 1468.27 Q902.681 1465.74 903.561 1464.01 Q904.463 1462.25 904.463 1460.56 Q904.463 1457.8 902.519 1456.07 Q900.598 1454.33 897.496 1454.33 Q895.297 1454.33 892.843 1455.09 Q890.413 1455.86 887.635 1457.41 L887.635 1452.69 Q890.459 1451.55 892.913 1450.97 Q895.366 1450.39 897.403 1450.39 Q902.774 1450.39 905.968 1453.08 Q909.162 1455.77 909.162 1460.26 Q909.162 1462.39 908.352 1464.31 Q907.565 1466.2 905.459 1468.8 Q904.88 1469.47 901.778 1472.69 Q898.676 1475.88 893.028 1481.64 Z" fill="#000000" fill-rule="evenodd" fill-opacity="1" /><path clip-path="url(#clip170)" d="M1394.85 1455.09 L1383.05 1473.54 L1394.85 1473.54 L1394.85 1455.09 M1393.62 1451.02 L1399.5 1451.02 L1399.5 1473.54 L1404.43 1473.54 L1404.43 1477.43 L1399.5 1477.43 L1399.5 1485.58 L1394.85 1485.58 L1394.85 1477.43 L1379.25 1477.43 L1379.25 1472.92 L1393.62 1451.02 Z" fill="#000000" fill-rule="evenodd" fill-opacity="1" /><path clip-path="url(#clip170)" d="M1885.71 1466.44 Q1882.57 1466.44 1880.71 1468.59 Q1878.88 1470.74 1878.88 1474.49 Q1878.88 1478.22 1880.71 1480.39 Q1882.57 1482.55 1885.71 1482.55 Q1888.86 1482.55 1890.69 1480.39 Q1892.54 1478.22 1892.54 1474.49 Q1892.54 1470.74 1890.69 1468.59 Q1888.86 1466.44 1885.71 1466.44 M1895 1451.78 L1895 1456.04 Q1893.24 1455.21 1891.43 1454.77 Q1889.65 1454.33 1887.89 1454.33 Q1883.26 1454.33 1880.81 1457.45 Q1878.38 1460.58 1878.03 1466.9 Q1879.39 1464.89 1881.45 1463.82 Q1883.51 1462.73 1885.99 1462.73 Q1891.2 1462.73 1894.21 1465.9 Q1897.24 1469.05 1897.24 1474.49 Q1897.24 1479.82 1894.09 1483.03 Q1890.94 1486.25 1885.71 1486.25 Q1879.72 1486.25 1876.55 1481.67 Q1873.38 1477.06 1873.38 1468.33 Q1873.38 1460.14 1877.26 1455.28 Q1881.15 1450.39 1887.7 1450.39 Q1889.46 1450.39 1891.25 1450.74 Q1893.05 1451.09 1895 1451.78 Z" fill="#000000" fill-rule="evenodd" fill-opacity="1" /><path clip-path="url(#clip170)" d="M1335.16 1520.52 L1365.2 1520.52 L1365.2 1525.93 L1341.59 1525.93 L1341.59 1540 L1364.22 1540 L1364.22 1545.41 L1341.59 1545.41 L1341.59 1562.63 L1365.78 1562.63 L1365.78 1568.04 L1335.16 1568.04 L1335.16 1520.52 Z" fill="#000000" fill-rule="evenodd" fill-opacity="1" /><polyline clip-path="url(#clip173)" style="stroke:#000000; stroke-linecap:round; stroke-linejoin:round; stroke-width:2; stroke-opacity:0.1; fill:none" points="
  348.176,1394.56 2352.76,1394.56 
  "/>
<polyline clip-path="url(#clip173)" style="stroke:#000000; stroke-linecap:round; stroke-linejoin:round; stroke-width:2; stroke-opacity:0.1; fill:none" points="
  348.176,1338.22 2352.76,1338.22 
  "/>
<polyline clip-path="url(#clip173)" style="stroke:#000000; stroke-linecap:round; stroke-linejoin:round; stroke-width:2; stroke-opacity:0.1; fill:none" points="
  348.176,1281.88 2352.76,1281.88 
  "/>
<polyline clip-path="url(#clip173)" style="stroke:#000000; stroke-linecap:round; stroke-linejoin:round; stroke-width:2; stroke-opacity:0.1; fill:none" points="
  348.176,1225.54 2352.76,1225.54 
  "/>
<polyline clip-path="url(#clip170)" style="stroke:#000000; stroke-linecap:round; stroke-linejoin:round; stroke-width:4; stroke-opacity:1; fill:none" points="
  348.176,1423.18 348.176,1180.15 
  "/>
<polyline clip-path="url(#clip170)" style="stroke:#000000; stroke-linecap:round; stroke-linejoin:round; stroke-width:4; stroke-opacity:1; fill:none" points="
  348.176,1394.56 367.073,1394.56 
  "/>
<polyline clip-path="url(#clip170)" style="stroke:#000000; stroke-linecap:round; stroke-linejoin:round; stroke-width:4; stroke-opacity:1; fill:none" points="
  348.176,1338.22 367.073,1338.22 
  "/>
<polyline clip-path="url(#clip170)" style="stroke:#000000; stroke-linecap:round; stroke-linejoin:round; stroke-width:4; stroke-opacity:1; fill:none" points="
  348.176,1281.88 367.073,1281.88 
  "/>
<polyline clip-path="url(#clip170)" style="stroke:#000000; stroke-linecap:round; stroke-linejoin:round; stroke-width:4; stroke-opacity:1; fill:none" points="
  348.176,1225.54 367.073,1225.54 
  "/>
<path clip-path="url(#clip170)" d="M114.584 1395.01 L144.26 1395.01 L144.26 1398.94 L114.584 1398.94 L114.584 1395.01 Z" fill="#000000" fill-rule="evenodd" fill-opacity="1" /><path clip-path="url(#clip170)" d="M164.352 1380.36 Q160.741 1380.36 158.913 1383.92 Q157.107 1387.46 157.107 1394.59 Q157.107 1401.7 158.913 1405.26 Q160.741 1408.8 164.352 1408.8 Q167.987 1408.8 169.792 1405.26 Q171.621 1401.7 171.621 1394.59 Q171.621 1387.46 169.792 1383.92 Q167.987 1380.36 164.352 1380.36 M164.352 1376.65 Q170.163 1376.65 173.218 1381.26 Q176.297 1385.84 176.297 1394.59 Q176.297 1403.32 173.218 1407.92 Q170.163 1412.51 164.352 1412.51 Q158.542 1412.51 155.464 1407.92 Q152.408 1403.32 152.408 1394.59 Q152.408 1385.84 155.464 1381.26 Q158.542 1376.65 164.352 1376.65 Z" fill="#000000" fill-rule="evenodd" fill-opacity="1" /><path clip-path="url(#clip170)" d="M184.514 1405.96 L189.399 1405.96 L189.399 1411.84 L184.514 1411.84 L184.514 1405.96 Z" fill="#000000" fill-rule="evenodd" fill-opacity="1" /><path clip-path="url(#clip170)" d="M209.584 1380.36 Q205.973 1380.36 204.144 1383.92 Q202.338 1387.46 202.338 1394.59 Q202.338 1401.7 204.144 1405.26 Q205.973 1408.8 209.584 1408.8 Q213.218 1408.8 215.024 1405.26 Q216.852 1401.7 216.852 1394.59 Q216.852 1387.46 215.024 1383.92 Q213.218 1380.36 209.584 1380.36 M209.584 1376.65 Q215.394 1376.65 218.449 1381.26 Q221.528 1385.84 221.528 1394.59 Q221.528 1403.32 218.449 1407.92 Q215.394 1412.51 209.584 1412.51 Q203.774 1412.51 200.695 1407.92 Q197.639 1403.32 197.639 1394.59 Q197.639 1385.84 200.695 1381.26 Q203.774 1376.65 209.584 1376.65 Z" fill="#000000" fill-rule="evenodd" fill-opacity="1" /><path clip-path="url(#clip170)" d="M239.746 1380.36 Q236.135 1380.36 234.306 1383.92 Q232.5 1387.46 232.5 1394.59 Q232.5 1401.7 234.306 1405.26 Q236.135 1408.8 239.746 1408.8 Q243.38 1408.8 245.185 1405.26 Q247.014 1401.7 247.014 1394.59 Q247.014 1387.46 245.185 1383.92 Q243.38 1380.36 239.746 1380.36 M239.746 1376.65 Q245.556 1376.65 248.611 1381.26 Q251.69 1385.84 251.69 1394.59 Q251.69 1403.32 248.611 1407.92 Q245.556 1412.51 239.746 1412.51 Q233.935 1412.51 230.857 1407.92 Q227.801 1403.32 227.801 1394.59 Q227.801 1385.84 230.857 1381.26 Q233.935 1376.65 239.746 1376.65 Z" fill="#000000" fill-rule="evenodd" fill-opacity="1" /><path clip-path="url(#clip170)" d="M269.907 1380.36 Q266.296 1380.36 264.468 1383.92 Q262.662 1387.46 262.662 1394.59 Q262.662 1401.7 264.468 1405.26 Q266.296 1408.8 269.907 1408.8 Q273.542 1408.8 275.347 1405.26 Q277.176 1401.7 277.176 1394.59 Q277.176 1387.46 275.347 1383.92 Q273.542 1380.36 269.907 1380.36 M269.907 1376.65 Q275.718 1376.65 278.773 1381.26 Q281.852 1385.84 281.852 1394.59 Q281.852 1403.32 278.773 1407.92 Q275.718 1412.51 269.907 1412.51 Q264.097 1412.51 261.019 1407.92 Q257.963 1403.32 257.963 1394.59 Q257.963 1385.84 261.019 1381.26 Q264.097 1376.65 269.907 1376.65 Z" fill="#000000" fill-rule="evenodd" fill-opacity="1" /><path clip-path="url(#clip170)" d="M300.648 1392.69 Q297.5 1392.69 295.648 1394.85 Q293.819 1397 293.819 1400.75 Q293.819 1404.48 295.648 1406.65 Q297.5 1408.8 300.648 1408.8 Q303.796 1408.8 305.625 1406.65 Q307.477 1404.48 307.477 1400.75 Q307.477 1397 305.625 1394.85 Q303.796 1392.69 300.648 1392.69 M309.93 1378.04 L309.93 1382.3 Q308.171 1381.47 306.366 1381.03 Q304.583 1380.59 302.824 1380.59 Q298.194 1380.59 295.741 1383.71 Q293.31 1386.84 292.963 1393.16 Q294.329 1391.14 296.389 1390.08 Q298.449 1388.99 300.926 1388.99 Q306.134 1388.99 309.143 1392.16 Q312.176 1395.31 312.176 1400.75 Q312.176 1406.07 309.028 1409.29 Q305.88 1412.51 300.648 1412.51 Q294.653 1412.51 291.481 1407.92 Q288.31 1403.32 288.31 1394.59 Q288.31 1386.4 292.199 1381.54 Q296.088 1376.65 302.639 1376.65 Q304.398 1376.65 306.18 1377 Q307.986 1377.35 309.93 1378.04 Z" fill="#000000" fill-rule="evenodd" fill-opacity="1" /><path clip-path="url(#clip170)" d="M114.26 1338.67 L143.936 1338.67 L143.936 1342.6 L114.26 1342.6 L114.26 1338.67 Z" fill="#000000" fill-rule="evenodd" fill-opacity="1" /><path clip-path="url(#clip170)" d="M164.028 1324.02 Q160.417 1324.02 158.589 1327.58 Q156.783 1331.12 156.783 1338.25 Q156.783 1345.36 158.589 1348.92 Q160.417 1352.46 164.028 1352.46 Q167.663 1352.46 169.468 1348.92 Q171.297 1345.36 171.297 1338.25 Q171.297 1331.12 169.468 1327.58 Q167.663 1324.02 164.028 1324.02 M164.028 1320.31 Q169.839 1320.31 172.894 1324.92 Q175.973 1329.5 175.973 1338.25 Q175.973 1346.98 172.894 1351.59 Q169.839 1356.17 164.028 1356.17 Q158.218 1356.17 155.14 1351.59 Q152.084 1346.98 152.084 1338.25 Q152.084 1329.5 155.14 1324.92 Q158.218 1320.31 164.028 1320.31 Z" fill="#000000" fill-rule="evenodd" fill-opacity="1" /><path clip-path="url(#clip170)" d="M184.19 1349.62 L189.075 1349.62 L189.075 1355.5 L184.19 1355.5 L184.19 1349.62 Z" fill="#000000" fill-rule="evenodd" fill-opacity="1" /><path clip-path="url(#clip170)" d="M209.26 1324.02 Q205.649 1324.02 203.82 1327.58 Q202.014 1331.12 202.014 1338.25 Q202.014 1345.36 203.82 1348.92 Q205.649 1352.46 209.26 1352.46 Q212.894 1352.46 214.699 1348.92 Q216.528 1345.36 216.528 1338.25 Q216.528 1331.12 214.699 1327.58 Q212.894 1324.02 209.26 1324.02 M209.26 1320.31 Q215.07 1320.31 218.125 1324.92 Q221.204 1329.5 221.204 1338.25 Q221.204 1346.98 218.125 1351.59 Q215.07 1356.17 209.26 1356.17 Q203.449 1356.17 200.371 1351.59 Q197.315 1346.98 197.315 1338.25 Q197.315 1329.5 200.371 1324.92 Q203.449 1320.31 209.26 1320.31 Z" fill="#000000" fill-rule="evenodd" fill-opacity="1" /><path clip-path="url(#clip170)" d="M239.422 1324.02 Q235.81 1324.02 233.982 1327.58 Q232.176 1331.12 232.176 1338.25 Q232.176 1345.36 233.982 1348.92 Q235.81 1352.46 239.422 1352.46 Q243.056 1352.46 244.861 1348.92 Q246.69 1345.36 246.69 1338.25 Q246.69 1331.12 244.861 1327.58 Q243.056 1324.02 239.422 1324.02 M239.422 1320.31 Q245.232 1320.31 248.287 1324.92 Q251.366 1329.5 251.366 1338.25 Q251.366 1346.98 248.287 1351.59 Q245.232 1356.17 239.422 1356.17 Q233.611 1356.17 230.533 1351.59 Q227.477 1346.98 227.477 1338.25 Q227.477 1329.5 230.533 1324.92 Q233.611 1320.31 239.422 1320.31 Z" fill="#000000" fill-rule="evenodd" fill-opacity="1" /><path clip-path="url(#clip170)" d="M269.583 1324.02 Q265.972 1324.02 264.144 1327.58 Q262.338 1331.12 262.338 1338.25 Q262.338 1345.36 264.144 1348.92 Q265.972 1352.46 269.583 1352.46 Q273.218 1352.46 275.023 1348.92 Q276.852 1345.36 276.852 1338.25 Q276.852 1331.12 275.023 1327.58 Q273.218 1324.02 269.583 1324.02 M269.583 1320.31 Q275.394 1320.31 278.449 1324.92 Q281.528 1329.5 281.528 1338.25 Q281.528 1346.98 278.449 1351.59 Q275.394 1356.17 269.583 1356.17 Q263.773 1356.17 260.695 1351.59 Q257.639 1346.98 257.639 1338.25 Q257.639 1329.5 260.695 1324.92 Q263.773 1320.31 269.583 1320.31 Z" fill="#000000" fill-rule="evenodd" fill-opacity="1" /><path clip-path="url(#clip170)" d="M302.592 1325.01 L290.787 1343.46 L302.592 1343.46 L302.592 1325.01 M301.366 1320.94 L307.245 1320.94 L307.245 1343.46 L312.176 1343.46 L312.176 1347.35 L307.245 1347.35 L307.245 1355.5 L302.592 1355.5 L302.592 1347.35 L286.991 1347.35 L286.991 1342.84 L301.366 1320.94 Z" fill="#000000" fill-rule="evenodd" fill-opacity="1" /><path clip-path="url(#clip170)" d="M116.343 1282.33 L146.019 1282.33 L146.019 1286.26 L116.343 1286.26 L116.343 1282.33 Z" fill="#000000" fill-rule="evenodd" fill-opacity="1" /><path clip-path="url(#clip170)" d="M166.112 1267.68 Q162.501 1267.68 160.672 1271.24 Q158.866 1274.78 158.866 1281.91 Q158.866 1289.02 160.672 1292.58 Q162.501 1296.13 166.112 1296.13 Q169.746 1296.13 171.552 1292.58 Q173.38 1289.02 173.38 1281.91 Q173.38 1274.78 171.552 1271.24 Q169.746 1267.68 166.112 1267.68 M166.112 1263.97 Q171.922 1263.97 174.977 1268.58 Q178.056 1273.16 178.056 1281.91 Q178.056 1290.64 174.977 1295.25 Q171.922 1299.83 166.112 1299.83 Q160.302 1299.83 157.223 1295.25 Q154.167 1290.64 154.167 1281.91 Q154.167 1273.16 157.223 1268.58 Q160.302 1263.97 166.112 1263.97 Z" fill="#000000" fill-rule="evenodd" fill-opacity="1" /><path clip-path="url(#clip170)" d="M186.274 1293.28 L191.158 1293.28 L191.158 1299.16 L186.274 1299.16 L186.274 1293.28 Z" fill="#000000" fill-rule="evenodd" fill-opacity="1" /><path clip-path="url(#clip170)" d="M211.343 1267.68 Q207.732 1267.68 205.903 1271.24 Q204.098 1274.78 204.098 1281.91 Q204.098 1289.02 205.903 1292.58 Q207.732 1296.13 211.343 1296.13 Q214.977 1296.13 216.783 1292.58 Q218.611 1289.02 218.611 1281.91 Q218.611 1274.78 216.783 1271.24 Q214.977 1267.68 211.343 1267.68 M211.343 1263.97 Q217.153 1263.97 220.209 1268.58 Q223.287 1273.16 223.287 1281.91 Q223.287 1290.64 220.209 1295.25 Q217.153 1299.83 211.343 1299.83 Q205.533 1299.83 202.454 1295.25 Q199.399 1290.64 199.399 1281.91 Q199.399 1273.16 202.454 1268.58 Q205.533 1263.97 211.343 1263.97 Z" fill="#000000" fill-rule="evenodd" fill-opacity="1" /><path clip-path="url(#clip170)" d="M241.505 1267.68 Q237.894 1267.68 236.065 1271.24 Q234.26 1274.78 234.26 1281.91 Q234.26 1289.02 236.065 1292.58 Q237.894 1296.13 241.505 1296.13 Q245.139 1296.13 246.945 1292.58 Q248.773 1289.02 248.773 1281.91 Q248.773 1274.78 246.945 1271.24 Q245.139 1267.68 241.505 1267.68 M241.505 1263.97 Q247.315 1263.97 250.371 1268.58 Q253.449 1273.16 253.449 1281.91 Q253.449 1290.64 250.371 1295.25 Q247.315 1299.83 241.505 1299.83 Q235.695 1299.83 232.616 1295.25 Q229.56 1290.64 229.56 1281.91 Q229.56 1273.16 232.616 1268.58 Q235.695 1263.97 241.505 1263.97 Z" fill="#000000" fill-rule="evenodd" fill-opacity="1" /><path clip-path="url(#clip170)" d="M271.667 1267.68 Q268.056 1267.68 266.227 1271.24 Q264.421 1274.78 264.421 1281.91 Q264.421 1289.02 266.227 1292.58 Q268.056 1296.13 271.667 1296.13 Q275.301 1296.13 277.107 1292.58 Q278.935 1289.02 278.935 1281.91 Q278.935 1274.78 277.107 1271.24 Q275.301 1267.68 271.667 1267.68 M271.667 1263.97 Q277.477 1263.97 280.532 1268.58 Q283.611 1273.16 283.611 1281.91 Q283.611 1290.64 280.532 1295.25 Q277.477 1299.83 271.667 1299.83 Q265.857 1299.83 262.778 1295.25 Q259.722 1290.64 259.722 1281.91 Q259.722 1273.16 262.778 1268.58 Q265.857 1263.97 271.667 1263.97 Z" fill="#000000" fill-rule="evenodd" fill-opacity="1" /><path clip-path="url(#clip170)" d="M295.856 1295.22 L312.176 1295.22 L312.176 1299.16 L290.231 1299.16 L290.231 1295.22 Q292.893 1292.47 297.477 1287.84 Q302.083 1283.19 303.264 1281.84 Q305.509 1279.32 306.389 1277.58 Q307.292 1275.82 307.292 1274.14 Q307.292 1271.38 305.347 1269.64 Q303.426 1267.91 300.324 1267.91 Q298.125 1267.91 295.671 1268.67 Q293.241 1269.44 290.463 1270.99 L290.463 1266.26 Q293.287 1265.13 295.741 1264.55 Q298.194 1263.97 300.231 1263.97 Q305.602 1263.97 308.796 1266.66 Q311.991 1269.34 311.991 1273.83 Q311.991 1275.96 311.18 1277.89 Q310.393 1279.78 308.287 1282.38 Q307.708 1283.05 304.606 1286.26 Q301.505 1289.46 295.856 1295.22 Z" fill="#000000" fill-rule="evenodd" fill-opacity="1" /><path clip-path="url(#clip170)" d="M164.515 1211.34 Q160.903 1211.34 159.075 1214.9 Q157.269 1218.44 157.269 1225.57 Q157.269 1232.68 159.075 1236.24 Q160.903 1239.79 164.515 1239.79 Q168.149 1239.79 169.954 1236.24 Q171.783 1232.68 171.783 1225.57 Q171.783 1218.44 169.954 1214.9 Q168.149 1211.34 164.515 1211.34 M164.515 1207.63 Q170.325 1207.63 173.38 1212.24 Q176.459 1216.82 176.459 1225.57 Q176.459 1234.3 173.38 1238.91 Q170.325 1243.49 164.515 1243.49 Q158.704 1243.49 155.626 1238.91 Q152.57 1234.3 152.57 1225.57 Q152.57 1216.82 155.626 1212.24 Q158.704 1207.63 164.515 1207.63 Z" fill="#000000" fill-rule="evenodd" fill-opacity="1" /><path clip-path="url(#clip170)" d="M184.676 1236.94 L189.561 1236.94 L189.561 1242.82 L184.676 1242.82 L184.676 1236.94 Z" fill="#000000" fill-rule="evenodd" fill-opacity="1" /><path clip-path="url(#clip170)" d="M209.746 1211.34 Q206.135 1211.34 204.306 1214.9 Q202.5 1218.44 202.5 1225.57 Q202.5 1232.68 204.306 1236.24 Q206.135 1239.79 209.746 1239.79 Q213.38 1239.79 215.186 1236.24 Q217.014 1232.68 217.014 1225.57 Q217.014 1218.44 215.186 1214.9 Q213.38 1211.34 209.746 1211.34 M209.746 1207.63 Q215.556 1207.63 218.611 1212.24 Q221.69 1216.82 221.69 1225.57 Q221.69 1234.3 218.611 1238.91 Q215.556 1243.49 209.746 1243.49 Q203.936 1243.49 200.857 1238.91 Q197.801 1234.3 197.801 1225.57 Q197.801 1216.82 200.857 1212.24 Q203.936 1207.63 209.746 1207.63 Z" fill="#000000" fill-rule="evenodd" fill-opacity="1" /><path clip-path="url(#clip170)" d="M239.908 1211.34 Q236.297 1211.34 234.468 1214.9 Q232.662 1218.44 232.662 1225.57 Q232.662 1232.68 234.468 1236.24 Q236.297 1239.79 239.908 1239.79 Q243.542 1239.79 245.347 1236.24 Q247.176 1232.68 247.176 1225.57 Q247.176 1218.44 245.347 1214.9 Q243.542 1211.34 239.908 1211.34 M239.908 1207.63 Q245.718 1207.63 248.773 1212.24 Q251.852 1216.82 251.852 1225.57 Q251.852 1234.3 248.773 1238.91 Q245.718 1243.49 239.908 1243.49 Q234.097 1243.49 231.019 1238.91 Q227.963 1234.3 227.963 1225.57 Q227.963 1216.82 231.019 1212.24 Q234.097 1207.63 239.908 1207.63 Z" fill="#000000" fill-rule="evenodd" fill-opacity="1" /><path clip-path="url(#clip170)" d="M270.07 1211.34 Q266.458 1211.34 264.63 1214.9 Q262.824 1218.44 262.824 1225.57 Q262.824 1232.68 264.63 1236.24 Q266.458 1239.79 270.07 1239.79 Q273.704 1239.79 275.509 1236.24 Q277.338 1232.68 277.338 1225.57 Q277.338 1218.44 275.509 1214.9 Q273.704 1211.34 270.07 1211.34 M270.07 1207.63 Q275.88 1207.63 278.935 1212.24 Q282.014 1216.82 282.014 1225.57 Q282.014 1234.3 278.935 1238.91 Q275.88 1243.49 270.07 1243.49 Q264.259 1243.49 261.181 1238.91 Q258.125 1234.3 258.125 1225.57 Q258.125 1216.82 261.181 1212.24 Q264.259 1207.63 270.07 1207.63 Z" fill="#000000" fill-rule="evenodd" fill-opacity="1" /><path clip-path="url(#clip170)" d="M300.231 1211.34 Q296.62 1211.34 294.792 1214.9 Q292.986 1218.44 292.986 1225.57 Q292.986 1232.68 294.792 1236.24 Q296.62 1239.79 300.231 1239.79 Q303.866 1239.79 305.671 1236.24 Q307.5 1232.68 307.5 1225.57 Q307.5 1218.44 305.671 1214.9 Q303.866 1211.34 300.231 1211.34 M300.231 1207.63 Q306.042 1207.63 309.097 1212.24 Q312.176 1216.82 312.176 1225.57 Q312.176 1234.3 309.097 1238.91 Q306.042 1243.49 300.231 1243.49 Q294.421 1243.49 291.343 1238.91 Q288.287 1234.3 288.287 1225.57 Q288.287 1216.82 291.343 1212.24 Q294.421 1207.63 300.231 1207.63 Z" fill="#000000" fill-rule="evenodd" fill-opacity="1" /><path clip-path="url(#clip170)" d="M22.818 1318.79 L58.657 1331.84 L58.657 1305.71 L22.818 1318.79 M64.0042 1340.56 L16.4842 1322.42 L16.4842 1315.13 L64.0042 1297.02 L64.0042 1340.56 Z" fill="#000000" fill-rule="evenodd" fill-opacity="1" /><path clip-path="url(#clip170)" d="M16.4842 1290.08 L16.4842 1262.77 L21.895 1262.77 L21.895 1283.65 L35.8996 1283.65 L35.8996 1264.81 L41.3104 1264.81 L41.3104 1283.65 L64.0042 1283.65 L64.0042 1290.08 L16.4842 1290.08 Z" fill="#000000" fill-rule="evenodd" fill-opacity="1" /><polyline clip-path="url(#clip173)" style="stroke:#000000; stroke-linecap:round; stroke-linejoin:round; stroke-width:4; stroke-opacity:1; fill:none" points="
  404.909,1225.54 408.707,1225.54 412.504,1225.54 416.301,1225.54 420.099,1225.54 423.896,1225.54 427.694,1225.54 431.491,1225.54 435.288,1225.54 439.086,1225.54 
  442.883,1225.54 446.681,1225.54 450.478,1225.54 454.276,1225.54 458.073,1225.54 461.87,1225.54 465.668,1225.54 469.465,1225.54 473.263,1225.54 477.06,1225.54 
  480.857,1225.54 484.655,1225.46 488.452,1225.21 492.25,1225.31 496.047,1225.36 499.845,1225.39 503.642,1225.4 507.439,1225.4 511.237,1225.4 515.034,1225.4 
  518.832,1225.4 522.629,1225.4 526.426,1225.4 530.224,1225.39 534.021,1225.38 537.819,1225.39 541.616,1225.39 545.414,1225.37 549.211,1225.36 553.008,1225.36 
  556.806,1225.37 560.603,1225.35 564.401,1225.34 568.198,1225.34 571.995,1225.33 575.793,1225.33 579.59,1225.29 583.388,1225.32 587.185,1225.32 590.983,1225.29 
  594.78,1225.28 598.577,1225.26 602.375,1225.25 606.172,1225.24 609.97,1225.22 613.767,1225.22 617.564,1225.2 621.362,1225.2 625.159,1225.15 628.957,1225.19 
  632.754,1225.11 636.552,1225.18 640.349,1225.05 644.146,1225.16 647.944,1225.1 651.741,1224.99 655.539,1224.98 659.336,1225.04 663.133,1224.99 666.931,1224.94 
  670.728,1224.93 674.526,1224.88 678.323,1224.85 682.121,1224.74 685.918,1224.75 689.715,1224.72 693.513,1224.69 697.31,1224.54 701.108,1224.43 704.905,1224.57 
  708.702,1224.05 712.5,1224.33 716.297,1223.74 720.095,1223.73 723.892,1222.68 727.69,1222.63 731.487,1223.13 735.284,1223.62 739.082,1224.78 742.879,1225.59 
  746.677,1225.8 750.474,1225.98 754.271,1225.59 758.069,1225.75 761.866,1225.98 765.664,1225.66 769.461,1225.51 773.259,1225.97 777.056,1226.03 780.853,1225.73 
  784.651,1225.72 788.448,1226.1 792.246,1225.74 796.043,1225.7 799.84,1225.59 803.638,1226.34 807.435,1225.72 811.233,1225.76 815.03,1225.94 818.828,1225.94 
  822.625,1225.84 826.422,1225.97 830.22,1225.71 834.017,1226.16 837.815,1225.82 841.612,1226.5 845.409,1225.47 849.207,1226.12 853.004,1225.74 856.802,1226.52 
  860.599,1226.32 864.397,1225.53 868.194,1226.67 871.991,1225.96 875.789,1225.53 879.586,1226.03 883.384,1226.02 887.181,1225.68 890.978,1225.85 894.776,1225.91 
  898.573,1225.43 902.371,1226.22 906.168,1226.23 909.966,1225.22 913.763,1226.03 917.56,1225.54 921.358,1226.15 925.155,1225.89 928.953,1225.99 932.75,1225.99 
  936.547,1225.91 940.345,1225.6 944.142,1225.75 947.94,1225.86 951.737,1226.12 955.535,1226.66 959.332,1225.7 963.129,1225.96 966.927,1225.54 970.724,1225.34 
  974.522,1226.48 978.319,1226.06 982.116,1226.44 985.914,1225.81 989.711,1225.56 993.509,1225.7 997.306,1226.54 1001.1,1226.17 1004.9,1225.04 1008.7,1225.87 
  1012.5,1226.98 1016.29,1226.05 1020.09,1224.83 1023.89,1226.75 1027.69,1225.12 1031.48,1225.78 1035.28,1226.91 1039.08,1226.04 1042.88,1226.16 1046.67,1225.44 
  1050.47,1225.87 1054.27,1225.4 1058.06,1225.49 1061.86,1226.16 1065.66,1225.06 1069.46,1223.57 1073.25,1221.65 1077.05,1220.06 1080.85,1218.1 1084.65,1218.05 
  1088.44,1217.42 1092.24,1221.76 1096.04,1219.98 1099.84,1223.87 1103.63,1223.1 1107.43,1224.19 1111.23,1226.98 1115.03,1223.4 1118.82,1223.96 1122.62,1226.6 
  1126.42,1223.75 1130.22,1225.28 1134.01,1227.42 1137.81,1225.33 1141.61,1224.67 1145.41,1227.18 1149.2,1225.82 1153,1223.29 1156.8,1223.73 1160.6,1227.86 
  1164.39,1227.39 1168.19,1225.92 1171.99,1224.59 1175.78,1226.33 1179.58,1225.83 1183.38,1225.42 1187.18,1225.2 1190.97,1225.21 1194.77,1225.04 1198.57,1227.44 
  1202.37,1226.66 1206.16,1225.49 1209.96,1225.68 1213.76,1225.63 1217.56,1225.71 1221.35,1225.85 1225.15,1226.19 1228.95,1226.7 1232.75,1226.36 1236.54,1226.93 
  1240.34,1225.07 1244.14,1224.89 1247.94,1226.3 1251.73,1227.46 1255.53,1226.97 1259.33,1227.21 1263.13,1225.7 1266.92,1225.8 1270.72,1225.42 1274.52,1224.86 
  1278.31,1224.04 1282.11,1224.99 1285.91,1226.81 1289.71,1226.29 1293.5,1226.9 1297.3,1225.58 1301.1,1225.43 1304.9,1226.19 1308.69,1227.58 1312.49,1228.21 
  1316.29,1225.6 1320.09,1223.47 1323.88,1225.88 1327.68,1224.1 1331.48,1226.72 1335.28,1228.22 1339.07,1228.13 1342.87,1225.78 1346.67,1226.31 1350.47,1224.2 
  1354.26,1225.18 1358.06,1229.12 1361.86,1223.67 1365.66,1225.17 1369.45,1226.38 1373.25,1229.83 1377.05,1226.38 1380.85,1225.09 1384.64,1221.99 1388.44,1230.25 
  1392.24,1226.32 1396.03,1225.1 1399.83,1226.44 1403.63,1225.62 1407.43,1224.98 1411.22,1226.22 1415.02,1227.7 1418.82,1227.8 1422.62,1228.62 1426.41,1224.49 
  1430.21,1224.01 1434.01,1223.38 1437.81,1227.14 1441.6,1225.72 1445.4,1229.09 1449.2,1227.67 1453,1227.15 1456.79,1229.29 1460.59,1220.94 1464.39,1225.8 
  1468.19,1225.39 1471.98,1224.23 1475.78,1232.38 1479.58,1223.24 1483.38,1229.71 1487.17,1226.82 1490.97,1224.86 1494.77,1229.99 1498.57,1221.33 1502.36,1233.05 
  1506.16,1222.46 1509.96,1234.72 1513.75,1218.08 1517.55,1234.48 1521.35,1218.84 1525.15,1235.1 1528.94,1219.14 1532.74,1235.15 1536.54,1215.97 1540.34,1235.55 
  1544.13,1216.25 1547.93,1233.58 1551.73,1221.61 1555.53,1231.91 1559.32,1221.74 1563.12,1232.57 1566.92,1226.05 1570.72,1224.94 1574.51,1226.62 1578.31,1217.45 
  1582.11,1232.71 1585.91,1223.85 1589.7,1231.54 1593.5,1227.92 1597.3,1222.08 1601.1,1231.94 1604.89,1229.75 1608.69,1214.16 1612.49,1228.41 1616.28,1229.86 
  1620.08,1231.52 1623.88,1229.98 1627.68,1224.13 1631.47,1212.6 1635.27,1233.94 1639.07,1231.57 1642.87,1227.87 1646.66,1221.91 1650.46,1229.17 1654.26,1230.01 
  1658.06,1224.54 1661.85,1224.28 1665.65,1229.83 1669.45,1232.73 1673.25,1222.92 1677.04,1223.84 1680.84,1232.52 1684.64,1227.09 1688.44,1223.88 1692.23,1228.47 
  1696.03,1224.32 1699.83,1228.65 1703.63,1233.66 1707.42,1239.5 1711.22,1221.05 1715.02,1225.41 1718.82,1229.62 1722.61,1224.28 1726.41,1224.74 1730.21,1222.4 
  1734,1244.16 1737.8,1239.11 1741.6,1230.24 1745.4,1222.8 1749.19,1230.67 1752.99,1229.18 1756.79,1225.74 1760.59,1224.04 1764.38,1223.84 1768.18,1230.96 
  1771.98,1243.14 1775.78,1238.36 1779.57,1240.19 1783.37,1241.94 1787.17,1230.5 1790.97,1224.31 1794.76,1230.89 1798.56,1235.5 1802.36,1202.41 1806.16,1204.46 
  1809.95,1210.28 1813.75,1220 1817.55,1217.68 1821.35,1227.36 1825.14,1212.59 1828.94,1224.21 1832.74,1212.5 1836.54,1225.4 1840.33,1219.02 1844.13,1221.82 
  1847.93,1229.65 1851.72,1217.95 1855.52,1224.07 1859.32,1215.2 1863.12,1220.69 1866.91,1231.08 1870.71,1219.18 1874.51,1224.99 1878.31,1224.92 1882.1,1210.56 
  1885.9,1208.87 1889.7,1222.45 1893.5,1222.03 1897.29,1217.15 1901.09,1220.47 1904.89,1223.54 1908.69,1218.34 1912.48,1221.36 1916.28,1220.83 1920.08,1222.94 
  1923.88,1225.63 1927.67,1222.39 1931.47,1219.92 1935.27,1221.73 1939.07,1224.07 1942.86,1227.52 1946.66,1225.8 1950.46,1218.59 1954.26,1220 1958.05,1224.56 
  1961.85,1224.93 1965.65,1225.96 1969.44,1230.1 1973.24,1215.15 1977.04,1222.89 1980.84,1227.88 1984.63,1226.23 1988.43,1220.14 1992.23,1217.32 1996.03,1220.24 
  1999.82,1225.75 2003.62,1227.32 2007.42,1215.37 2011.22,1219.25 2015.01,1227.82 2018.81,1231.5 2022.61,1211.82 2026.41,1221.71 2030.2,1223.26 2034,1231.04 
  2037.8,1223.73 2041.6,1212.86 2045.39,1236.36 2049.19,1224.59 2052.99,1212.19 2056.79,1229.35 2060.58,1233.89 2064.38,1215.18 2068.18,1225.91 2071.97,1239.41 
  2075.77,1216.25 2079.57,1236.8 2083.37,1230.04 2087.16,1265.74 2090.96,1208.28 2094.76,1205.33 2098.56,1187.03 2102.35,1201.64 2106.15,1208.66 2109.95,1199.64 
  2113.75,1203.31 2117.54,1416.3 2121.34,1225.54 2125.14,1225.54 2128.94,1225.54 2132.73,1225.54 2136.53,1225.54 2140.33,1225.54 2144.13,1225.54 2147.92,1225.54 
  2151.72,1225.54 2155.52,1225.54 2159.32,1225.54 2163.11,1225.54 2166.91,1225.54 2170.71,1225.54 2174.51,1225.54 2178.3,1225.54 2182.1,1225.54 2185.9,1225.54 
  2189.69,1225.54 2193.49,1225.54 2197.29,1225.54 2201.09,1225.54 2204.88,1225.54 2208.68,1225.54 2212.48,1225.54 2216.28,1225.54 2220.07,1225.54 2223.87,1225.54 
  2227.67,1225.54 2231.47,1225.54 2235.26,1225.54 2239.06,1225.54 2242.86,1225.54 2246.66,1225.54 2250.45,1225.54 2254.25,1225.54 2258.05,1225.54 2261.85,1225.54 
  2265.64,1225.54 2269.44,1225.54 2273.24,1225.54 2277.04,1225.54 2280.83,1225.54 2284.63,1225.54 2288.43,1225.54 2292.23,1225.54 2296.02,1225.54 
  "/>
</svg>
