<?xml version="1.0" encoding="utf-8"?>
<svg xmlns="http://www.w3.org/2000/svg" xmlns:xlink="http://www.w3.org/1999/xlink" width="600" height="400" viewBox="0 0 2400 1600">
<defs>
  <clipPath id="clip480">
    <rect x="0" y="0" width="2400" height="1600"/>
  </clipPath>
</defs>
<path clip-path="url(#clip480)" d="
M0 1600 L2400 1600 L2400 0 L0 0  Z
  " fill="#ffffff" fill-rule="evenodd" fill-opacity="0"/>
<defs>
  <clipPath id="clip481">
    <rect x="480" y="0" width="1681" height="1600"/>
  </clipPath>
</defs>
<path clip-path="url(#clip480)" d="
M219.866 1423.18 L2352.76 1423.18 L2352.76 123.472 L219.866 123.472  Z
  " fill="#ffffff" fill-rule="evenodd" fill-opacity="0"/>
<defs>
  <clipPath id="clip482">
    <rect x="219" y="123" width="2134" height="1301"/>
  </clipPath>
</defs>
<polyline clip-path="url(#clip482)" style="stroke:#000000; stroke-linecap:round; stroke-linejoin:round; stroke-width:2; stroke-opacity:0.1; fill:none" points="
  280.231,1423.18 280.231,123.472 
  "/>
<polyline clip-path="url(#clip482)" style="stroke:#000000; stroke-linecap:round; stroke-linejoin:round; stroke-width:2; stroke-opacity:0.1; fill:none" points="
  783.271,1423.18 783.271,123.472 
  "/>
<polyline clip-path="url(#clip482)" style="stroke:#000000; stroke-linecap:round; stroke-linejoin:round; stroke-width:2; stroke-opacity:0.1; fill:none" points="
  1286.31,1423.18 1286.31,123.472 
  "/>
<polyline clip-path="url(#clip482)" style="stroke:#000000; stroke-linecap:round; stroke-linejoin:round; stroke-width:2; stroke-opacity:0.1; fill:none" points="
  1789.35,1423.18 1789.35,123.472 
  "/>
<polyline clip-path="url(#clip482)" style="stroke:#000000; stroke-linecap:round; stroke-linejoin:round; stroke-width:2; stroke-opacity:0.1; fill:none" points="
  2292.39,1423.18 2292.39,123.472 
  "/>
<polyline clip-path="url(#clip480)" style="stroke:#000000; stroke-linecap:round; stroke-linejoin:round; stroke-width:4; stroke-opacity:1; fill:none" points="
  219.866,1423.18 2352.76,1423.18 
  "/>
<polyline clip-path="url(#clip480)" style="stroke:#000000; stroke-linecap:round; stroke-linejoin:round; stroke-width:4; stroke-opacity:1; fill:none" points="
  280.231,1423.18 280.231,1404.28 
  "/>
<polyline clip-path="url(#clip480)" style="stroke:#000000; stroke-linecap:round; stroke-linejoin:round; stroke-width:4; stroke-opacity:1; fill:none" points="
  783.271,1423.18 783.271,1404.28 
  "/>
<polyline clip-path="url(#clip480)" style="stroke:#000000; stroke-linecap:round; stroke-linejoin:round; stroke-width:4; stroke-opacity:1; fill:none" points="
  1286.31,1423.18 1286.31,1404.28 
  "/>
<polyline clip-path="url(#clip480)" style="stroke:#000000; stroke-linecap:round; stroke-linejoin:round; stroke-width:4; stroke-opacity:1; fill:none" points="
  1789.35,1423.18 1789.35,1404.28 
  "/>
<polyline clip-path="url(#clip480)" style="stroke:#000000; stroke-linecap:round; stroke-linejoin:round; stroke-width:4; stroke-opacity:1; fill:none" points="
  2292.39,1423.18 2292.39,1404.28 
  "/>
<path clip-path="url(#clip480)" d="M246.122 1459.65 L270.96 1459.65 L270.96 1463.91 L267.696 1463.91 L267.696 1479.84 Q267.696 1481.51 268.252 1482.25 Q268.831 1482.96 270.104 1482.96 Q270.451 1482.96 270.96 1482.92 Q271.47 1482.85 271.632 1482.83 L271.632 1485.9 Q270.821 1486.2 269.965 1486.34 Q269.108 1486.48 268.252 1486.48 Q265.474 1486.48 264.409 1484.98 Q263.345 1483.45 263.345 1479.38 L263.345 1463.91 L253.784 1463.91 L253.784 1485.58 L249.433 1485.58 L249.433 1463.91 L246.122 1463.91 L246.122 1459.65 Z" fill="#000000" fill-rule="evenodd" fill-opacity="1" /><path clip-path="url(#clip480)" d="M284.988 1451.02 L288.923 1451.02 L276.886 1489.98 L272.951 1489.98 L284.988 1451.02 Z" fill="#000000" fill-rule="evenodd" fill-opacity="1" /><path clip-path="url(#clip480)" d="M298.02 1481.64 L314.34 1481.64 L314.34 1485.58 L292.395 1485.58 L292.395 1481.64 Q295.057 1478.89 299.641 1474.26 Q304.247 1469.61 305.428 1468.27 Q307.673 1465.74 308.553 1464.01 Q309.455 1462.25 309.455 1460.56 Q309.455 1457.8 307.511 1456.07 Q305.59 1454.33 302.488 1454.33 Q300.289 1454.33 297.835 1455.09 Q295.405 1455.86 292.627 1457.41 L292.627 1452.69 Q295.451 1451.55 297.905 1450.97 Q300.358 1450.39 302.395 1450.39 Q307.766 1450.39 310.96 1453.08 Q314.154 1455.77 314.154 1460.26 Q314.154 1462.39 313.344 1464.31 Q312.557 1466.2 310.451 1468.8 Q309.872 1469.47 306.77 1472.69 Q303.668 1475.88 298.02 1481.64 Z" fill="#000000" fill-rule="evenodd" fill-opacity="1" /><path clip-path="url(#clip480)" d="M770.517 1459.65 L795.354 1459.65 L795.354 1463.91 L792.09 1463.91 L792.09 1479.84 Q792.09 1481.51 792.646 1482.25 Q793.225 1482.96 794.498 1482.96 Q794.845 1482.96 795.354 1482.92 Q795.864 1482.85 796.026 1482.83 L796.026 1485.9 Q795.215 1486.2 794.359 1486.34 Q793.503 1486.48 792.646 1486.48 Q789.868 1486.48 788.803 1484.98 Q787.739 1483.45 787.739 1479.38 L787.739 1463.91 L778.179 1463.91 L778.179 1485.58 L773.827 1485.58 L773.827 1463.91 L770.517 1463.91 L770.517 1459.65 Z" fill="#000000" fill-rule="evenodd" fill-opacity="1" /><path clip-path="url(#clip480)" d="M1253.7 1466.95 Q1257.05 1467.66 1258.93 1469.93 Q1260.83 1472.2 1260.83 1475.53 Q1260.83 1480.65 1257.31 1483.45 Q1253.79 1486.25 1247.31 1486.25 Q1245.13 1486.25 1242.82 1485.81 Q1240.52 1485.39 1238.07 1484.54 L1238.07 1480.02 Q1240.02 1481.16 1242.33 1481.74 Q1244.64 1482.32 1247.17 1482.32 Q1251.57 1482.32 1253.86 1480.58 Q1256.17 1478.84 1256.17 1475.53 Q1256.17 1472.48 1254.02 1470.77 Q1251.89 1469.03 1248.07 1469.03 L1244.04 1469.03 L1244.04 1465.19 L1248.26 1465.19 Q1251.7 1465.19 1253.53 1463.82 Q1255.36 1462.43 1255.36 1459.84 Q1255.36 1457.18 1253.46 1455.77 Q1251.59 1454.33 1248.07 1454.33 Q1246.15 1454.33 1243.95 1454.75 Q1241.75 1455.16 1239.11 1456.04 L1239.11 1451.88 Q1241.77 1451.14 1244.09 1450.77 Q1246.43 1450.39 1248.49 1450.39 Q1253.81 1450.39 1256.91 1452.83 Q1260.01 1455.23 1260.01 1459.35 Q1260.01 1462.22 1258.37 1464.21 Q1256.73 1466.18 1253.7 1466.95 Z" fill="#000000" fill-rule="evenodd" fill-opacity="1" /><path clip-path="url(#clip480)" d="M1266.33 1459.65 L1291.17 1459.65 L1291.17 1463.91 L1287.91 1463.91 L1287.91 1479.84 Q1287.91 1481.51 1288.46 1482.25 Q1289.04 1482.96 1290.32 1482.96 Q1290.66 1482.96 1291.17 1482.92 Q1291.68 1482.85 1291.84 1482.83 L1291.84 1485.9 Q1291.03 1486.2 1290.18 1486.34 Q1289.32 1486.48 1288.46 1486.48 Q1285.69 1486.48 1284.62 1484.98 Q1283.56 1483.45 1283.56 1479.38 L1283.56 1463.91 L1274 1463.91 L1274 1485.58 L1269.64 1485.58 L1269.64 1463.91 L1266.33 1463.91 L1266.33 1459.65 Z" fill="#000000" fill-rule="evenodd" fill-opacity="1" /><path clip-path="url(#clip480)" d="M1305.2 1451.02 L1309.14 1451.02 L1297.1 1489.98 L1293.16 1489.98 L1305.2 1451.02 Z" fill="#000000" fill-rule="evenodd" fill-opacity="1" /><path clip-path="url(#clip480)" d="M1318.23 1481.64 L1334.55 1481.64 L1334.55 1485.58 L1312.61 1485.58 L1312.61 1481.64 Q1315.27 1478.89 1319.85 1474.26 Q1324.46 1469.61 1325.64 1468.27 Q1327.88 1465.74 1328.76 1464.01 Q1329.67 1462.25 1329.67 1460.56 Q1329.67 1457.8 1327.72 1456.07 Q1325.8 1454.33 1322.7 1454.33 Q1320.5 1454.33 1318.05 1455.09 Q1315.62 1455.86 1312.84 1457.41 L1312.84 1452.69 Q1315.66 1451.55 1318.12 1450.97 Q1320.57 1450.39 1322.61 1450.39 Q1327.98 1450.39 1331.17 1453.08 Q1334.37 1455.77 1334.37 1460.26 Q1334.37 1462.39 1333.56 1464.31 Q1332.77 1466.2 1330.66 1468.8 Q1330.08 1469.47 1326.98 1472.69 Q1323.88 1475.88 1318.23 1481.64 Z" fill="#000000" fill-rule="evenodd" fill-opacity="1" /><path clip-path="url(#clip480)" d="M1768.02 1481.64 L1784.34 1481.64 L1784.34 1485.58 L1762.4 1485.58 L1762.4 1481.64 Q1765.06 1478.89 1769.64 1474.26 Q1774.25 1469.61 1775.43 1468.27 Q1777.67 1465.74 1778.55 1464.01 Q1779.46 1462.25 1779.46 1460.56 Q1779.46 1457.8 1777.51 1456.07 Q1775.59 1454.33 1772.49 1454.33 Q1770.29 1454.33 1767.84 1455.09 Q1765.4 1455.86 1762.63 1457.41 L1762.63 1452.69 Q1765.45 1451.55 1767.9 1450.97 Q1770.36 1450.39 1772.4 1450.39 Q1777.77 1450.39 1780.96 1453.08 Q1784.15 1455.77 1784.15 1460.26 Q1784.15 1462.39 1783.34 1464.31 Q1782.56 1466.2 1780.45 1468.8 Q1779.87 1469.47 1776.77 1472.69 Q1773.67 1475.88 1768.02 1481.64 Z" fill="#000000" fill-rule="evenodd" fill-opacity="1" /><path clip-path="url(#clip480)" d="M1790.8 1459.65 L1815.64 1459.65 L1815.64 1463.91 L1812.37 1463.91 L1812.37 1479.84 Q1812.37 1481.51 1812.93 1482.25 Q1813.51 1482.96 1814.78 1482.96 Q1815.13 1482.96 1815.64 1482.92 Q1816.14 1482.85 1816.31 1482.83 L1816.31 1485.9 Q1815.5 1486.2 1814.64 1486.34 Q1813.78 1486.48 1812.93 1486.48 Q1810.15 1486.48 1809.08 1484.98 Q1808.02 1483.45 1808.02 1479.38 L1808.02 1463.91 L1798.46 1463.91 L1798.46 1485.58 L1794.11 1485.58 L1794.11 1463.91 L1790.8 1463.91 L1790.8 1459.65 Z" fill="#000000" fill-rule="evenodd" fill-opacity="1" /><path clip-path="url(#clip480)" d="M2245.63 1451.02 L2263.99 1451.02 L2263.99 1454.96 L2249.91 1454.96 L2249.91 1463.43 Q2250.93 1463.08 2251.95 1462.92 Q2252.97 1462.73 2253.99 1462.73 Q2259.78 1462.73 2263.16 1465.9 Q2266.53 1469.08 2266.53 1474.49 Q2266.53 1480.07 2263.06 1483.17 Q2259.59 1486.25 2253.27 1486.25 Q2251.1 1486.25 2248.83 1485.88 Q2246.58 1485.51 2244.17 1484.77 L2244.17 1480.07 Q2246.26 1481.2 2248.48 1481.76 Q2250.7 1482.32 2253.18 1482.32 Q2257.18 1482.32 2259.52 1480.21 Q2261.86 1478.1 2261.86 1474.49 Q2261.86 1470.88 2259.52 1468.77 Q2257.18 1466.67 2253.18 1466.67 Q2251.3 1466.67 2249.43 1467.08 Q2247.58 1467.5 2245.63 1468.38 L2245.63 1451.02 Z" fill="#000000" fill-rule="evenodd" fill-opacity="1" /><path clip-path="url(#clip480)" d="M2272.39 1459.65 L2297.23 1459.65 L2297.23 1463.91 L2293.97 1463.91 L2293.97 1479.84 Q2293.97 1481.51 2294.52 1482.25 Q2295.1 1482.96 2296.37 1482.96 Q2296.72 1482.96 2297.23 1482.92 Q2297.74 1482.85 2297.9 1482.83 L2297.9 1485.9 Q2297.09 1486.2 2296.23 1486.34 Q2295.38 1486.48 2294.52 1486.48 Q2291.74 1486.48 2290.68 1484.98 Q2289.61 1483.45 2289.61 1479.38 L2289.61 1463.91 L2280.05 1463.91 L2280.05 1485.58 L2275.7 1485.58 L2275.7 1463.91 L2272.39 1463.91 L2272.39 1459.65 Z" fill="#000000" fill-rule="evenodd" fill-opacity="1" /><path clip-path="url(#clip480)" d="M2311.26 1451.02 L2315.19 1451.02 L2303.15 1489.98 L2299.22 1489.98 L2311.26 1451.02 Z" fill="#000000" fill-rule="evenodd" fill-opacity="1" /><path clip-path="url(#clip480)" d="M2324.29 1481.64 L2340.61 1481.64 L2340.61 1485.58 L2318.66 1485.58 L2318.66 1481.64 Q2321.33 1478.89 2325.91 1474.26 Q2330.52 1469.61 2331.7 1468.27 Q2333.94 1465.74 2334.82 1464.01 Q2335.72 1462.25 2335.72 1460.56 Q2335.72 1457.8 2333.78 1456.07 Q2331.86 1454.33 2328.76 1454.33 Q2326.56 1454.33 2324.1 1455.09 Q2321.67 1455.86 2318.9 1457.41 L2318.9 1452.69 Q2321.72 1451.55 2324.17 1450.97 Q2326.63 1450.39 2328.66 1450.39 Q2334.03 1450.39 2337.23 1453.08 Q2340.42 1455.77 2340.42 1460.26 Q2340.42 1462.39 2339.61 1464.31 Q2338.83 1466.2 2336.72 1468.8 Q2336.14 1469.47 2333.04 1472.69 Q2329.94 1475.88 2324.29 1481.64 Z" fill="#000000" fill-rule="evenodd" fill-opacity="1" /><path clip-path="url(#clip480)" d="M1296.34 1540.03 Q1296.34 1532.2 1294.78 1528.19 Q1292.68 1522.78 1287.93 1522.78 Q1285.29 1522.78 1283.38 1524.98 Q1281.47 1527.14 1281.47 1530.01 Q1281.47 1535.42 1285.32 1538.28 Q1287.68 1540.03 1296.34 1540.03 M1296.43 1545.45 Q1286.63 1545.45 1282.46 1543.38 Q1275.74 1540.03 1275.74 1530.17 Q1275.74 1525.08 1279.05 1521.54 Q1282.36 1518.01 1287.93 1518.01 Q1294.87 1518.01 1298.76 1524.57 Q1302.67 1531.12 1302.67 1543.41 Q1302.67 1555.69 1298.15 1562.25 Q1293.63 1568.78 1286.02 1568.78 Q1278.45 1568.78 1274.18 1561.81 Q1269.95 1554.84 1269.95 1540 L1275.93 1540.03 L1275.93 1545.13 Q1275.93 1553.69 1278.74 1558.85 Q1281.54 1563.97 1286.34 1563.97 Q1291.18 1563.97 1293.79 1558.85 Q1296.43 1553.72 1296.43 1545.45 Z" fill="#000000" fill-rule="evenodd" fill-opacity="1" /><polyline clip-path="url(#clip482)" style="stroke:#000000; stroke-linecap:round; stroke-linejoin:round; stroke-width:2; stroke-opacity:0.1; fill:none" points="
  219.866,1278.98 2352.76,1278.98 
  "/>
<polyline clip-path="url(#clip482)" style="stroke:#000000; stroke-linecap:round; stroke-linejoin:round; stroke-width:2; stroke-opacity:0.1; fill:none" points="
  219.866,1040.49 2352.76,1040.49 
  "/>
<polyline clip-path="url(#clip482)" style="stroke:#000000; stroke-linecap:round; stroke-linejoin:round; stroke-width:2; stroke-opacity:0.1; fill:none" points="
  219.866,802.002 2352.76,802.002 
  "/>
<polyline clip-path="url(#clip482)" style="stroke:#000000; stroke-linecap:round; stroke-linejoin:round; stroke-width:2; stroke-opacity:0.1; fill:none" points="
  219.866,563.512 2352.76,563.512 
  "/>
<polyline clip-path="url(#clip482)" style="stroke:#000000; stroke-linecap:round; stroke-linejoin:round; stroke-width:2; stroke-opacity:0.1; fill:none" points="
  219.866,325.022 2352.76,325.022 
  "/>
<polyline clip-path="url(#clip480)" style="stroke:#000000; stroke-linecap:round; stroke-linejoin:round; stroke-width:4; stroke-opacity:1; fill:none" points="
  219.866,1423.18 219.866,123.472 
  "/>
<polyline clip-path="url(#clip480)" style="stroke:#000000; stroke-linecap:round; stroke-linejoin:round; stroke-width:4; stroke-opacity:1; fill:none" points="
  219.866,1278.98 238.764,1278.98 
  "/>
<polyline clip-path="url(#clip480)" style="stroke:#000000; stroke-linecap:round; stroke-linejoin:round; stroke-width:4; stroke-opacity:1; fill:none" points="
  219.866,1040.49 238.764,1040.49 
  "/>
<polyline clip-path="url(#clip480)" style="stroke:#000000; stroke-linecap:round; stroke-linejoin:round; stroke-width:4; stroke-opacity:1; fill:none" points="
  219.866,802.002 238.764,802.002 
  "/>
<polyline clip-path="url(#clip480)" style="stroke:#000000; stroke-linecap:round; stroke-linejoin:round; stroke-width:4; stroke-opacity:1; fill:none" points="
  219.866,563.512 238.764,563.512 
  "/>
<polyline clip-path="url(#clip480)" style="stroke:#000000; stroke-linecap:round; stroke-linejoin:round; stroke-width:4; stroke-opacity:1; fill:none" points="
  219.866,325.022 238.764,325.022 
  "/>
<path clip-path="url(#clip480)" d="M126.205 1264.78 Q122.593 1264.78 120.765 1268.35 Q118.959 1271.89 118.959 1279.02 Q118.959 1286.12 120.765 1289.69 Q122.593 1293.23 126.205 1293.23 Q129.839 1293.23 131.644 1289.69 Q133.473 1286.12 133.473 1279.02 Q133.473 1271.89 131.644 1268.35 Q129.839 1264.78 126.205 1264.78 M126.205 1261.08 Q132.015 1261.08 135.07 1265.68 Q138.149 1270.27 138.149 1279.02 Q138.149 1287.74 135.07 1292.35 Q132.015 1296.93 126.205 1296.93 Q120.394 1296.93 117.316 1292.35 Q114.26 1287.74 114.26 1279.02 Q114.26 1270.27 117.316 1265.68 Q120.394 1261.08 126.205 1261.08 Z" fill="#000000" fill-rule="evenodd" fill-opacity="1" /><path clip-path="url(#clip480)" d="M146.366 1290.38 L151.251 1290.38 L151.251 1296.26 L146.366 1296.26 L146.366 1290.38 Z" fill="#000000" fill-rule="evenodd" fill-opacity="1" /><path clip-path="url(#clip480)" d="M174.283 1265.78 L162.477 1284.22 L174.283 1284.22 L174.283 1265.78 M173.056 1261.7 L178.936 1261.7 L178.936 1284.22 L183.866 1284.22 L183.866 1288.11 L178.936 1288.11 L178.936 1296.26 L174.283 1296.26 L174.283 1288.11 L158.681 1288.11 L158.681 1283.6 L173.056 1261.7 Z" fill="#000000" fill-rule="evenodd" fill-opacity="1" /><path clip-path="url(#clip480)" d="M127.686 1026.29 Q124.075 1026.29 122.246 1029.86 Q120.441 1033.4 120.441 1040.53 Q120.441 1047.63 122.246 1051.2 Q124.075 1054.74 127.686 1054.74 Q131.32 1054.74 133.126 1051.2 Q134.954 1047.63 134.954 1040.53 Q134.954 1033.4 133.126 1029.86 Q131.32 1026.29 127.686 1026.29 M127.686 1022.59 Q133.496 1022.59 136.552 1027.19 Q139.63 1031.78 139.63 1040.53 Q139.63 1049.25 136.552 1053.86 Q133.496 1058.44 127.686 1058.44 Q121.876 1058.44 118.797 1053.86 Q115.742 1049.25 115.742 1040.53 Q115.742 1031.78 118.797 1027.19 Q121.876 1022.59 127.686 1022.59 Z" fill="#000000" fill-rule="evenodd" fill-opacity="1" /><path clip-path="url(#clip480)" d="M147.848 1051.89 L152.732 1051.89 L152.732 1057.77 L147.848 1057.77 L147.848 1051.89 Z" fill="#000000" fill-rule="evenodd" fill-opacity="1" /><path clip-path="url(#clip480)" d="M162.964 1023.21 L181.32 1023.21 L181.32 1027.15 L167.246 1027.15 L167.246 1035.62 Q168.264 1035.27 169.283 1035.11 Q170.302 1034.92 171.32 1034.92 Q177.107 1034.92 180.487 1038.1 Q183.866 1041.27 183.866 1046.68 Q183.866 1052.26 180.394 1055.36 Q176.922 1058.44 170.602 1058.44 Q168.427 1058.44 166.158 1058.07 Q163.913 1057.7 161.505 1056.96 L161.505 1052.26 Q163.589 1053.4 165.811 1053.95 Q168.033 1054.51 170.51 1054.51 Q174.514 1054.51 176.852 1052.4 Q179.19 1050.3 179.19 1046.68 Q179.19 1043.07 176.852 1040.97 Q174.514 1038.86 170.51 1038.86 Q168.635 1038.86 166.76 1039.28 Q164.908 1039.69 162.964 1040.57 L162.964 1023.21 Z" fill="#000000" fill-rule="evenodd" fill-opacity="1" /><path clip-path="url(#clip480)" d="M126.529 787.801 Q122.918 787.801 121.089 791.366 Q119.283 794.907 119.283 802.037 Q119.283 809.143 121.089 812.708 Q122.918 816.25 126.529 816.25 Q130.163 816.25 131.968 812.708 Q133.797 809.143 133.797 802.037 Q133.797 794.907 131.968 791.366 Q130.163 787.801 126.529 787.801 M126.529 784.097 Q132.339 784.097 135.394 788.704 Q138.473 793.287 138.473 802.037 Q138.473 810.764 135.394 815.37 Q132.339 819.953 126.529 819.953 Q120.718 819.953 117.64 815.37 Q114.584 810.764 114.584 802.037 Q114.584 793.287 117.64 788.704 Q120.718 784.097 126.529 784.097 Z" fill="#000000" fill-rule="evenodd" fill-opacity="1" /><path clip-path="url(#clip480)" d="M146.691 813.402 L151.575 813.402 L151.575 819.282 L146.691 819.282 L146.691 813.402 Z" fill="#000000" fill-rule="evenodd" fill-opacity="1" /><path clip-path="url(#clip480)" d="M172.339 800.139 Q169.19 800.139 167.339 802.291 Q165.51 804.444 165.51 808.194 Q165.51 811.921 167.339 814.097 Q169.19 816.25 172.339 816.25 Q175.487 816.25 177.315 814.097 Q179.167 811.921 179.167 808.194 Q179.167 804.444 177.315 802.291 Q175.487 800.139 172.339 800.139 M181.621 785.486 L181.621 789.745 Q179.862 788.912 178.056 788.472 Q176.274 788.032 174.514 788.032 Q169.885 788.032 167.431 791.157 Q165.001 794.282 164.653 800.602 Q166.019 798.588 168.079 797.523 Q170.139 796.435 172.616 796.435 Q177.825 796.435 180.834 799.606 Q183.866 802.754 183.866 808.194 Q183.866 813.518 180.718 816.736 Q177.57 819.953 172.339 819.953 Q166.343 819.953 163.172 815.37 Q160.001 810.764 160.001 802.037 Q160.001 793.842 163.89 788.981 Q167.778 784.097 174.329 784.097 Q176.089 784.097 177.871 784.444 Q179.676 784.792 181.621 785.486 Z" fill="#000000" fill-rule="evenodd" fill-opacity="1" /><path clip-path="url(#clip480)" d="M127.593 549.311 Q123.982 549.311 122.154 552.876 Q120.348 556.417 120.348 563.547 Q120.348 570.653 122.154 574.218 Q123.982 577.76 127.593 577.76 Q131.228 577.76 133.033 574.218 Q134.862 570.653 134.862 563.547 Q134.862 556.417 133.033 552.876 Q131.228 549.311 127.593 549.311 M127.593 545.607 Q133.404 545.607 136.459 550.214 Q139.538 554.797 139.538 563.547 Q139.538 572.274 136.459 576.88 Q133.404 581.463 127.593 581.463 Q121.783 581.463 118.705 576.88 Q115.649 572.274 115.649 563.547 Q115.649 554.797 118.705 550.214 Q121.783 545.607 127.593 545.607 Z" fill="#000000" fill-rule="evenodd" fill-opacity="1" /><path clip-path="url(#clip480)" d="M147.755 574.913 L152.64 574.913 L152.64 580.792 L147.755 580.792 L147.755 574.913 Z" fill="#000000" fill-rule="evenodd" fill-opacity="1" /><path clip-path="url(#clip480)" d="M161.644 546.232 L183.866 546.232 L183.866 548.223 L171.32 580.792 L166.436 580.792 L178.241 550.167 L161.644 550.167 L161.644 546.232 Z" fill="#000000" fill-rule="evenodd" fill-opacity="1" /><path clip-path="url(#clip480)" d="M126.783 310.821 Q123.172 310.821 121.343 314.386 Q119.538 317.927 119.538 325.057 Q119.538 332.163 121.343 335.728 Q123.172 339.27 126.783 339.27 Q130.417 339.27 132.223 335.728 Q134.052 332.163 134.052 325.057 Q134.052 317.927 132.223 314.386 Q130.417 310.821 126.783 310.821 M126.783 307.117 Q132.593 307.117 135.649 311.724 Q138.728 316.307 138.728 325.057 Q138.728 333.784 135.649 338.39 Q132.593 342.973 126.783 342.973 Q120.973 342.973 117.894 338.39 Q114.839 333.784 114.839 325.057 Q114.839 316.307 117.894 311.724 Q120.973 307.117 126.783 307.117 Z" fill="#000000" fill-rule="evenodd" fill-opacity="1" /><path clip-path="url(#clip480)" d="M146.945 336.423 L151.829 336.423 L151.829 342.302 L146.945 342.302 L146.945 336.423 Z" fill="#000000" fill-rule="evenodd" fill-opacity="1" /><path clip-path="url(#clip480)" d="M172.014 325.89 Q168.681 325.89 166.76 327.673 Q164.862 329.455 164.862 332.58 Q164.862 335.705 166.76 337.487 Q168.681 339.27 172.014 339.27 Q175.348 339.27 177.269 337.487 Q179.19 335.682 179.19 332.58 Q179.19 329.455 177.269 327.673 Q175.371 325.89 172.014 325.89 M167.339 323.899 Q164.329 323.159 162.64 321.099 Q160.973 319.038 160.973 316.075 Q160.973 311.932 163.913 309.525 Q166.876 307.117 172.014 307.117 Q177.176 307.117 180.116 309.525 Q183.056 311.932 183.056 316.075 Q183.056 319.038 181.366 321.099 Q179.7 323.159 176.714 323.899 Q180.093 324.687 181.968 326.978 Q183.866 329.27 183.866 332.58 Q183.866 337.603 180.788 340.288 Q177.732 342.973 172.014 342.973 Q166.297 342.973 163.218 340.288 Q160.163 337.603 160.163 332.58 Q160.163 329.27 162.061 326.978 Q163.959 324.687 167.339 323.899 M165.626 316.515 Q165.626 319.2 167.292 320.705 Q168.982 322.21 172.014 322.21 Q175.024 322.21 176.714 320.705 Q178.426 319.2 178.426 316.515 Q178.426 313.83 176.714 312.325 Q175.024 310.821 172.014 310.821 Q168.982 310.821 167.292 312.325 Q165.626 313.83 165.626 316.515 Z" fill="#000000" fill-rule="evenodd" fill-opacity="1" /><path clip-path="url(#clip480)" d="M45.7664 763.252 Q39.4007 763.252 35.8996 765.894 Q32.3984 768.504 32.3984 773.246 Q32.3984 777.957 35.8996 780.599 Q39.4007 783.209 45.7664 783.209 Q52.1003 783.209 55.6014 780.599 Q59.1026 777.957 59.1026 773.246 Q59.1026 768.504 55.6014 765.894 Q52.1003 763.252 45.7664 763.252 M59.58 757.396 Q68.683 757.396 73.1071 761.438 Q77.5631 765.48 77.5631 773.819 Q77.5631 776.907 77.0857 779.644 Q76.6401 782.381 75.6852 784.959 L69.9879 784.959 Q71.3884 782.381 72.0568 779.867 Q72.7252 777.352 72.7252 774.742 Q72.7252 768.981 69.7015 766.117 Q66.7096 763.252 60.6303 763.252 L57.7339 763.252 Q60.885 765.066 62.4446 767.899 Q64.0042 770.732 64.0042 774.679 Q64.0042 781.235 59.0071 785.246 Q54.01 789.256 45.7664 789.256 Q37.491 789.256 32.4939 785.246 Q27.4968 781.235 27.4968 774.679 Q27.4968 770.732 29.0564 767.899 Q30.616 765.066 33.7671 763.252 L28.3562 763.252 L28.3562 757.396 L59.58 757.396 Z" fill="#000000" fill-rule="evenodd" fill-opacity="1" /><path clip-path="url(#clip480)" d="M769.051 43.8146 L743.247 43.8146 Q743.855 55.9268 746.65 61.0714 Q750.133 67.3908 756.169 67.3908 Q762.246 67.3908 765.608 61.0309 Q768.565 55.4407 769.051 43.8146 M768.93 36.928 Q767.795 25.4235 765.608 21.3726 Q762.124 14.9721 756.169 14.9721 Q749.971 14.9721 746.69 21.2916 Q744.098 26.3957 743.328 36.928 L768.93 36.928 M756.169 8.89579 Q765.891 8.89579 771.441 17.4837 Q776.991 26.0311 776.991 41.1815 Q776.991 56.2914 771.441 64.8793 Q765.891 73.5077 756.169 73.5077 Q746.407 73.5077 740.897 64.8793 Q735.348 56.2914 735.348 41.1815 Q735.348 26.0311 740.897 17.4837 Q746.407 8.89579 756.169 8.89579 Z" fill="#000000" fill-rule="evenodd" fill-opacity="1" /><path clip-path="url(#clip480)" d="M797.529 50.0935 Q793.762 50.0935 791.534 52.7266 Q789.346 55.3191 789.346 59.8967 Q789.346 64.4742 791.534 67.1073 Q793.721 69.6999 797.529 69.6999 Q801.296 69.6999 803.484 67.0668 Q805.671 64.4337 805.671 59.8967 Q805.671 55.4002 803.484 52.7671 Q801.296 50.0935 797.529 50.0935 M797.529 46.5692 Q803.646 46.5692 807.13 50.0935 Q810.654 53.6178 810.654 59.8967 Q810.654 66.1351 807.13 69.6999 Q803.646 73.2241 797.529 73.2241 Q791.372 73.2241 787.888 69.6999 Q784.404 66.1351 784.404 59.8967 Q784.404 53.6178 787.888 50.0935 Q791.372 46.5692 797.529 46.5692 Z" fill="#000000" fill-rule="evenodd" fill-opacity="1" /><path clip-path="url(#clip480)" d="M851.001 34.9026 L902.934 34.9026 L902.934 41.7081 L851.001 41.7081 L851.001 34.9026 M851.001 51.4303 L902.934 51.4303 L902.934 58.3168 L851.001 58.3168 L851.001 51.4303 Z" fill="#000000" fill-rule="evenodd" fill-opacity="1" /><path clip-path="url(#clip480)" d="M969.449 19.2256 L948.79 51.5113 L969.449 51.5113 L969.449 19.2256 M967.302 12.096 L977.592 12.096 L977.592 51.5113 L986.22 51.5113 L986.22 58.3168 L977.592 58.3168 L977.592 72.576 L969.449 72.576 L969.449 58.3168 L942.146 58.3168 L942.146 50.4176 L967.302 12.096 Z" fill="#000000" fill-rule="evenodd" fill-opacity="1" /><path clip-path="url(#clip480)" d="M1017.25 17.4837 Q1010.93 17.4837 1007.73 23.7221 Q1004.57 29.92 1004.57 42.3968 Q1004.57 54.833 1007.73 61.0714 Q1010.93 67.2693 1017.25 67.2693 Q1023.61 67.2693 1026.77 61.0714 Q1029.97 54.833 1029.97 42.3968 Q1029.97 29.92 1026.77 23.7221 Q1023.61 17.4837 1017.25 17.4837 M1017.25 11.0023 Q1027.42 11.0023 1032.76 19.0636 Q1038.15 27.0843 1038.15 42.3968 Q1038.15 57.6687 1032.76 65.73 Q1027.42 73.7508 1017.25 73.7508 Q1007.08 73.7508 1001.69 65.73 Q996.347 57.6687 996.347 42.3968 Q996.347 27.0843 1001.69 19.0636 Q1007.08 11.0023 1017.25 11.0023 Z" fill="#000000" fill-rule="evenodd" fill-opacity="1" /><path clip-path="url(#clip480)" d="M1064.4 16.2279 Q1061.16 16.2279 1058.93 18.4964 Q1056.71 20.7244 1056.71 23.9651 Q1056.71 27.1654 1058.93 29.3934 Q1061.16 31.5808 1064.4 31.5808 Q1067.64 31.5808 1069.87 29.3934 Q1072.1 27.1654 1072.1 23.9651 Q1072.1 20.7649 1069.83 18.4964 Q1067.6 16.2279 1064.4 16.2279 M1064.4 11.0023 Q1067 11.0023 1069.39 12.015 Q1071.78 12.9872 1073.52 14.8506 Q1075.38 16.6735 1076.31 18.9825 Q1077.24 21.2916 1077.24 23.9651 Q1077.24 29.3123 1073.48 33.0392 Q1069.75 36.7255 1064.32 36.7255 Q1058.85 36.7255 1055.21 33.0797 Q1051.56 29.4339 1051.56 23.9651 Q1051.56 18.5369 1055.29 14.7696 Q1059.01 11.0023 1064.4 11.0023 Z" fill="#000000" fill-rule="evenodd" fill-opacity="1" /><path clip-path="url(#clip480)" d="M1094.87 62.2867 L1103.41 62.2867 L1103.41 69.2543 L1096.77 82.2172 L1091.54 82.2172 L1094.87 69.2543 L1094.87 62.2867 Z" fill="#000000" fill-rule="evenodd" fill-opacity="1" /><path clip-path="url(#clip480)" d="M1166.32 49.7694 Q1157.29 49.7694 1153.81 51.8354 Q1150.32 53.9013 1150.32 58.8839 Q1150.32 62.8538 1152.91 65.2034 Q1155.55 67.5124 1160.04 67.5124 Q1166.24 67.5124 1169.97 63.1374 Q1173.74 58.7219 1173.74 51.4303 L1173.74 49.7694 L1166.32 49.7694 M1181.19 46.6907 L1181.19 72.576 L1173.74 72.576 L1173.74 65.6895 Q1171.18 69.8214 1167.38 71.8063 Q1163.57 73.7508 1158.06 73.7508 Q1151.09 73.7508 1146.96 69.8619 Q1142.87 65.9325 1142.87 59.3701 Q1142.87 51.7138 1147.97 47.825 Q1153.12 43.9361 1163.29 43.9361 L1173.74 43.9361 L1173.74 43.2069 Q1173.74 38.0623 1170.33 35.2672 Q1166.97 32.4315 1160.85 32.4315 Q1156.97 32.4315 1153.28 33.3632 Q1149.59 34.295 1146.19 36.1584 L1146.19 29.2718 Q1150.28 27.692 1154.13 26.9223 Q1157.98 26.1121 1161.62 26.1121 Q1171.47 26.1121 1176.33 31.2163 Q1181.19 36.3204 1181.19 46.6907 Z" fill="#000000" fill-rule="evenodd" fill-opacity="1" /><path clip-path="url(#clip480)" d="M1197.52 34.9026 L1249.45 34.9026 L1249.45 41.7081 L1197.52 41.7081 L1197.52 34.9026 M1197.52 51.4303 L1249.45 51.4303 L1249.45 58.3168 L1197.52 58.3168 L1197.52 51.4303 Z" fill="#000000" fill-rule="evenodd" fill-opacity="1" /><path clip-path="url(#clip480)" d="M1284.61 17.4837 Q1278.29 17.4837 1275.09 23.7221 Q1271.93 29.92 1271.93 42.3968 Q1271.93 54.833 1275.09 61.0714 Q1278.29 67.2693 1284.61 67.2693 Q1290.97 67.2693 1294.13 61.0714 Q1297.33 54.833 1297.33 42.3968 Q1297.33 29.92 1294.13 23.7221 Q1290.97 17.4837 1284.61 17.4837 M1284.61 11.0023 Q1294.78 11.0023 1300.12 19.0636 Q1305.51 27.0843 1305.51 42.3968 Q1305.51 57.6687 1300.12 65.73 Q1294.78 73.7508 1284.61 73.7508 Q1274.44 73.7508 1269.05 65.73 Q1263.71 57.6687 1263.71 42.3968 Q1263.71 27.0843 1269.05 19.0636 Q1274.44 11.0023 1284.61 11.0023 Z" fill="#000000" fill-rule="evenodd" fill-opacity="1" /><path clip-path="url(#clip480)" d="M1319.89 62.2867 L1328.44 62.2867 L1328.44 72.576 L1319.89 72.576 L1319.89 62.2867 Z" fill="#000000" fill-rule="evenodd" fill-opacity="1" /><path clip-path="url(#clip480)" d="M1346.51 71.3202 L1346.51 63.8666 Q1349.59 65.3249 1352.75 66.0946 Q1355.91 66.8642 1358.94 66.8642 Q1367.05 66.8642 1371.3 61.436 Q1375.59 55.9673 1376.2 44.8678 Q1373.85 48.3516 1370.25 50.215 Q1366.64 52.0784 1362.27 52.0784 Q1353.19 52.0784 1347.88 46.6097 Q1342.62 41.1005 1342.62 31.5808 Q1342.62 22.2638 1348.13 16.633 Q1353.64 11.0023 1362.79 11.0023 Q1373.28 11.0023 1378.79 19.0636 Q1384.34 27.0843 1384.34 42.3968 Q1384.34 56.6965 1377.54 65.2439 Q1370.77 73.7508 1359.31 73.7508 Q1356.23 73.7508 1353.07 73.1431 Q1349.91 72.5355 1346.51 71.3202 M1362.79 45.678 Q1368.3 45.678 1371.5 41.9107 Q1374.74 38.1433 1374.74 31.5808 Q1374.74 25.0589 1371.5 21.2916 Q1368.3 17.4837 1362.79 17.4837 Q1357.28 17.4837 1354.04 21.2916 Q1350.84 25.0589 1350.84 31.5808 Q1350.84 38.1433 1354.04 41.9107 Q1357.28 45.678 1362.79 45.678 Z" fill="#000000" fill-rule="evenodd" fill-opacity="1" /><path clip-path="url(#clip480)" d="M1399.29 71.3202 L1399.29 63.8666 Q1402.37 65.3249 1405.53 66.0946 Q1408.69 66.8642 1411.73 66.8642 Q1419.83 66.8642 1424.08 61.436 Q1428.38 55.9673 1428.98 44.8678 Q1426.63 48.3516 1423.03 50.215 Q1419.42 52.0784 1415.05 52.0784 Q1405.97 52.0784 1400.67 46.6097 Q1395.4 41.1005 1395.4 31.5808 Q1395.4 22.2638 1400.91 16.633 Q1406.42 11.0023 1415.58 11.0023 Q1426.07 11.0023 1431.58 19.0636 Q1437.13 27.0843 1437.13 42.3968 Q1437.13 56.6965 1430.32 65.2439 Q1423.56 73.7508 1412.09 73.7508 Q1409.01 73.7508 1405.85 73.1431 Q1402.69 72.5355 1399.29 71.3202 M1415.58 45.678 Q1421.08 45.678 1424.28 41.9107 Q1427.53 38.1433 1427.53 31.5808 Q1427.53 25.0589 1424.28 21.2916 Q1421.08 17.4837 1415.58 17.4837 Q1410.07 17.4837 1406.83 21.2916 Q1403.63 25.0589 1403.63 31.5808 Q1403.63 38.1433 1406.83 41.9107 Q1410.07 45.678 1415.58 45.678 Z" fill="#000000" fill-rule="evenodd" fill-opacity="1" /><path clip-path="url(#clip480)" d="M1469.33 43.8551 Q1463.5 43.8551 1460.14 46.9743 Q1456.81 50.0935 1456.81 55.5622 Q1456.81 61.0309 1460.14 64.1501 Q1463.5 67.2693 1469.33 67.2693 Q1475.16 67.2693 1478.53 64.1501 Q1481.89 60.9904 1481.89 55.5622 Q1481.89 50.0935 1478.53 46.9743 Q1475.2 43.8551 1469.33 43.8551 M1461.15 40.3713 Q1455.88 39.075 1452.92 35.4697 Q1450.01 31.8644 1450.01 26.6793 Q1450.01 19.4281 1455.15 15.2152 Q1460.34 11.0023 1469.33 11.0023 Q1478.36 11.0023 1483.51 15.2152 Q1488.65 19.4281 1488.65 26.6793 Q1488.65 31.8644 1485.7 35.4697 Q1482.78 39.075 1477.55 40.3713 Q1483.47 41.7486 1486.75 45.759 Q1490.07 49.7694 1490.07 55.5622 Q1490.07 64.3527 1484.68 69.0517 Q1479.34 73.7508 1469.33 73.7508 Q1459.33 73.7508 1453.94 69.0517 Q1448.59 64.3527 1448.59 55.5622 Q1448.59 49.7694 1451.91 45.759 Q1455.23 41.7486 1461.15 40.3713 M1458.15 27.4489 Q1458.15 32.148 1461.07 34.7811 Q1464.02 37.4142 1469.33 37.4142 Q1474.6 37.4142 1477.55 34.7811 Q1480.55 32.148 1480.55 27.4489 Q1480.55 22.7499 1477.55 20.1168 Q1474.6 17.4837 1469.33 17.4837 Q1464.02 17.4837 1461.07 20.1168 Q1458.15 22.7499 1458.15 27.4489 Z" fill="#000000" fill-rule="evenodd" fill-opacity="1" /><path clip-path="url(#clip480)" d="M1505.47 62.2867 L1514.01 62.2867 L1514.01 69.2543 L1507.37 82.2172 L1502.14 82.2172 L1505.47 69.2543 L1505.47 62.2867 Z" fill="#000000" fill-rule="evenodd" fill-opacity="1" /><path clip-path="url(#clip480)" d="M1582.59 34.1734 Q1581.34 33.4443 1579.84 33.1202 Q1578.38 32.7556 1576.6 32.7556 Q1570.28 32.7556 1566.88 36.8875 Q1563.51 40.9789 1563.51 48.6757 L1563.51 72.576 L1556.02 72.576 L1556.02 27.2059 L1563.51 27.2059 L1563.51 34.2544 Q1565.86 30.1225 1569.63 28.1376 Q1573.4 26.1121 1578.79 26.1121 Q1579.56 26.1121 1580.49 26.2337 Q1581.42 26.3147 1582.55 26.5172 L1582.59 34.1734 Z" fill="#000000" fill-rule="evenodd" fill-opacity="1" /><path clip-path="url(#clip480)" d="M1611.96 58.8434 L1611.96 60.8689 L1590.37 60.8689 Q1590.7 65.1628 1593.29 67.4314 Q1595.92 69.6999 1600.58 69.6999 Q1603.29 69.6999 1605.85 69.0922 Q1608.36 68.5251 1610.87 67.3503 L1610.87 71.2797 Q1608.36 72.2519 1605.68 72.738 Q1603.05 73.2241 1600.3 73.2241 Q1593.45 73.2241 1589.48 69.6999 Q1585.47 66.1756 1585.47 60.1397 Q1585.47 53.9013 1589.28 50.215 Q1593.05 46.5692 1599.49 46.5692 Q1605.24 46.5692 1608.6 49.8504 Q1611.96 53.1722 1611.96 58.8434 M1607.26 57.5877 Q1607.22 54.1849 1605.12 52.1189 Q1603.01 50.0935 1599.53 50.0935 Q1595.6 50.0935 1593.25 52.0784 Q1590.9 54.0229 1590.53 57.5877 L1607.26 57.5877 Z" fill="#000000" fill-rule="evenodd" fill-opacity="1" /><path clip-path="url(#clip480)" d="M1645.14 58.2358 L1645.14 72.576 L1640.44 72.576 L1640.44 57.3851 Q1640.44 53.6988 1638.98 51.9569 Q1637.52 50.1745 1634.49 50.1745 Q1630.88 50.1745 1628.77 52.362 Q1626.67 54.509 1626.67 58.2358 L1626.67 72.576 L1621.93 72.576 L1621.93 47.1768 L1626.67 47.1768 L1626.67 51.1062 Q1628.25 48.7972 1630.48 47.7034 Q1632.74 46.5692 1635.86 46.5692 Q1638.94 46.5692 1641.13 47.987 Q1643.32 49.3643 1644.37 52.0379 Q1646.11 49.2428 1648.54 47.906 Q1651.01 46.5692 1654.34 46.5692 Q1658.83 46.5692 1661.22 49.3643 Q1663.65 52.1189 1663.65 57.2231 L1663.65 72.576 L1658.95 72.576 L1658.95 57.3851 Q1658.95 53.7393 1657.5 51.9569 Q1656.04 50.1745 1653.04 50.1745 Q1649.39 50.1745 1647.25 52.362 Q1645.14 54.509 1645.14 58.2358 Z" fill="#000000" fill-rule="evenodd" fill-opacity="1" /><path clip-path="url(#clip480)" d="M1704.04 34.9026 L1755.97 34.9026 L1755.97 41.7081 L1704.04 41.7081 L1704.04 34.9026 M1704.04 51.4303 L1755.97 51.4303 L1755.97 58.3168 L1704.04 58.3168 L1704.04 51.4303 Z" fill="#000000" fill-rule="evenodd" fill-opacity="1" /><path clip-path="url(#clip480)" d="M1824.8 39.9662 Q1830.67 41.222 1833.95 45.1919 Q1837.27 49.1618 1837.27 54.9951 Q1837.27 63.9476 1831.12 68.8492 Q1824.96 73.7508 1813.62 73.7508 Q1809.81 73.7508 1805.76 72.9811 Q1801.75 72.2519 1797.45 70.7531 L1797.45 62.8538 Q1800.86 64.8388 1804.91 65.8515 Q1808.96 66.8642 1813.37 66.8642 Q1821.07 66.8642 1825.08 63.826 Q1829.13 60.7879 1829.13 54.9951 Q1829.13 49.6479 1825.36 46.6502 Q1821.64 43.612 1814.95 43.612 L1807.91 43.612 L1807.91 36.8875 L1815.28 36.8875 Q1821.31 36.8875 1824.51 34.4975 Q1827.71 32.067 1827.71 27.5299 Q1827.71 22.8714 1824.39 20.4004 Q1821.11 17.8888 1814.95 17.8888 Q1811.59 17.8888 1807.74 18.618 Q1803.9 19.3471 1799.28 20.8865 L1799.28 13.5948 Q1803.94 12.2985 1807.99 11.6504 Q1812.08 11.0023 1815.68 11.0023 Q1825 11.0023 1830.43 15.2557 Q1835.86 19.4686 1835.86 26.6793 Q1835.86 31.7024 1832.98 35.1862 Q1830.1 38.6294 1824.8 39.9662 Z" fill="#000000" fill-rule="evenodd" fill-opacity="1" /><polyline clip-path="url(#clip482)" style="stroke:#000000; stroke-linecap:round; stroke-linejoin:round; stroke-width:4; stroke-opacity:1; fill:none" stroke-dasharray="16, 10" points="
  280.231,993.076 290.342,973.813 300.454,954.101 310.565,933.95 320.676,913.368 330.788,892.366 340.899,870.957 351.011,849.155 361.122,826.975 371.233,804.437 
  381.345,781.56 391.456,758.367 401.567,734.883 411.679,711.136 421.79,687.156 431.901,662.977 442.013,638.636 452.124,614.174 462.235,589.635 472.347,565.066 
  482.458,540.52 492.57,516.053 502.681,491.725 512.792,467.603 522.904,443.754 533.015,420.254 543.126,397.182 553.238,374.621 563.349,352.658 573.46,331.386 
  583.572,310.899 593.683,291.296 603.794,272.678 613.906,255.145 624.017,238.801 634.129,223.746 644.24,210.079 654.351,197.894 664.463,187.282 674.574,178.321 
  684.685,171.085 694.797,165.634 704.908,162.013 715.019,160.256 725.131,160.379 735.242,162.379 745.353,166.238 755.465,171.92 765.576,179.368 775.688,188.513 
  785.799,199.267 795.91,211.531 806.022,225.191 816.133,240.127 826.244,256.212 836.356,273.314 846.467,291.299 856.578,310.035 866.69,329.393 876.801,349.249 
  886.912,369.485 897.024,389.99 907.135,410.664 917.247,431.413 927.358,452.155 937.469,472.817 947.581,493.333 957.692,513.65 967.803,533.719 977.915,553.503 
  988.026,572.969 998.137,592.092 1008.25,610.854 1018.36,629.239 1028.47,647.239 1038.58,664.848 1048.69,682.064 1058.81,698.888 1068.92,715.323 1079.03,731.376 
  1089.14,747.053 1099.25,762.362 1109.36,777.314 1119.47,791.919 1129.59,806.188 1139.7,820.132 1149.81,833.763 1159.92,847.094 1170.03,860.136 1180.14,872.901 
  1190.25,885.401 1200.36,897.648 1210.48,909.653 1220.59,921.428 1230.7,932.983 1240.81,944.329 1250.92,955.476 1261.03,966.435 1271.14,977.214 1281.26,987.823 
  1291.37,998.271 1301.48,1008.57 1311.59,1018.72 1321.7,1028.73 1331.81,1038.61 1341.92,1048.37 1352.03,1058.01 1362.15,1067.54 1372.26,1076.97 1382.37,1086.3 
  1392.48,1095.53 1402.59,1104.67 1412.7,1113.73 1422.81,1122.7 1432.93,1131.6 1443.04,1140.42 1453.15,1149.16 1463.26,1157.83 1473.37,1166.43 1483.48,1174.95 
  1493.59,1183.41 1503.71,1191.79 1513.82,1200.1 1523.93,1208.34 1534.04,1216.49 1544.15,1224.57 1554.26,1232.56 1564.37,1240.46 1574.48,1248.27 1584.6,1255.97 
  1594.71,1263.57 1604.82,1271.05 1614.93,1278.4 1625.04,1285.62 1635.15,1292.69 1645.26,1299.6 1655.38,1306.34 1665.49,1312.9 1675.6,1319.27 1685.71,1325.42 
  1695.82,1331.36 1705.93,1337.05 1716.04,1342.5 1726.16,1347.67 1736.27,1352.57 1746.38,1357.17 1756.49,1361.47 1766.6,1365.44 1776.71,1369.08 1786.82,1372.37 
  1796.93,1375.31 1807.05,1377.87 1817.16,1380.06 1827.27,1381.86 1837.38,1383.27 1847.49,1384.27 1857.6,1384.87 1867.71,1385.06 1877.83,1384.83 1887.94,1384.18 
  1898.05,1383.1 1908.16,1381.6 1918.27,1379.67 1928.38,1377.3 1938.49,1374.51 1948.6,1371.28 1958.72,1367.62 1968.83,1363.52 1978.94,1358.99 1989.05,1354.01 
  1999.16,1348.6 2009.27,1342.74 2019.38,1336.45 2029.5,1329.71 2039.61,1322.52 2049.72,1314.89 2059.83,1306.81 2069.94,1298.29 2080.05,1289.3 2090.16,1279.87 
  2100.28,1269.98 2110.39,1259.63 2120.5,1248.82 2130.61,1237.54 2140.72,1225.8 2150.83,1213.6 2160.94,1200.92 2171.05,1187.78 2181.17,1174.16 2191.28,1160.07 
  2201.39,1145.5 2211.5,1130.46 2221.61,1114.94 2231.72,1098.94 2241.83,1082.47 2251.95,1065.53 2262.06,1048.12 2272.17,1030.23 2282.28,1011.88 2292.39,993.076 
  
  "/>
<circle clip-path="url(#clip482)" cx="280.231" cy="993.076" r="10.8" fill="#ffffff" fill-rule="evenodd" fill-opacity="1" stroke="#000000" stroke-opacity="1" stroke-width="3.2"/>
<circle clip-path="url(#clip482)" cx="503.804" cy="489.034" r="10.8" fill="#ffffff" fill-rule="evenodd" fill-opacity="1" stroke="#000000" stroke-opacity="1" stroke-width="3.2"/>
<circle clip-path="url(#clip482)" cx="727.378" cy="160.661" r="10.8" fill="#ffffff" fill-rule="evenodd" fill-opacity="1" stroke="#000000" stroke-opacity="1" stroke-width="3.2"/>
<circle clip-path="url(#clip482)" cx="950.951" cy="500.13" r="10.8" fill="#ffffff" fill-rule="evenodd" fill-opacity="1" stroke="#000000" stroke-opacity="1" stroke-width="3.2"/>
<circle clip-path="url(#clip482)" cx="1174.52" cy="865.842" r="10.8" fill="#ffffff" fill-rule="evenodd" fill-opacity="1" stroke="#000000" stroke-opacity="1" stroke-width="3.2"/>
<circle clip-path="url(#clip482)" cx="1398.1" cy="1100.62" r="10.8" fill="#ffffff" fill-rule="evenodd" fill-opacity="1" stroke="#000000" stroke-opacity="1" stroke-width="3.2"/>
<circle clip-path="url(#clip482)" cx="1621.67" cy="1283.23" r="10.8" fill="#ffffff" fill-rule="evenodd" fill-opacity="1" stroke="#000000" stroke-opacity="1" stroke-width="3.2"/>
<circle clip-path="url(#clip482)" cx="1845.24" cy="1384.08" r="10.8" fill="#ffffff" fill-rule="evenodd" fill-opacity="1" stroke="#000000" stroke-opacity="1" stroke-width="3.2"/>
<circle clip-path="url(#clip482)" cx="2068.82" cy="1299.26" r="10.8" fill="#ffffff" fill-rule="evenodd" fill-opacity="1" stroke="#000000" stroke-opacity="1" stroke-width="3.2"/>
<circle clip-path="url(#clip482)" cx="2292.39" cy="993.076" r="10.8" fill="#ffffff" fill-rule="evenodd" fill-opacity="1" stroke="#000000" stroke-opacity="1" stroke-width="3.2"/>
<polyline clip-path="url(#clip482)" style="stroke:#000000; stroke-linecap:round; stroke-linejoin:round; stroke-width:4; stroke-opacity:1; fill:none" points="
  280.231,993.076 290.342,970.279 300.454,947.481 310.565,924.682 320.676,901.881 330.788,879.08 340.899,856.278 351.011,833.475 361.122,810.673 371.233,787.871 
  381.345,765.069 391.456,742.268 401.567,719.468 411.679,696.668 421.79,673.871 431.901,651.074 442.013,628.28 452.124,605.487 462.235,582.697 472.347,559.91 
  482.458,537.125 492.57,514.343 502.681,491.564 512.792,468.801 522.904,446.126 533.015,423.638 543.126,401.434 553.238,379.609 563.349,358.261 573.46,337.486 
  583.572,317.382 593.683,298.044 603.794,279.571 613.906,262.058 624.017,245.602 634.129,230.301 644.24,216.251 654.351,203.549 664.463,192.291 674.574,182.574 
  684.685,174.496 694.797,168.153 704.908,163.641 715.019,161.058 725.131,160.5 735.242,162.048 745.353,165.65 755.465,171.193 765.576,178.562 775.688,187.644 
  785.799,198.323 795.91,210.486 806.022,224.018 816.133,238.805 826.244,254.734 836.356,271.689 846.467,289.557 856.578,308.223 866.69,327.573 876.801,347.493 
  886.912,367.869 897.024,388.587 907.135,409.531 917.247,430.589 927.358,451.645 937.469,472.586 947.581,493.297 957.692,513.671 967.803,533.665 977.915,553.285 
  988.026,572.533 998.137,591.413 1008.25,609.931 1018.36,628.089 1028.47,645.892 1038.58,663.343 1048.69,680.447 1058.81,697.207 1068.92,713.629 1079.03,729.714 
  1089.14,745.469 1099.25,760.895 1109.36,775.999 1119.47,790.783 1129.59,805.251 1139.7,819.408 1149.81,833.258 1159.92,846.804 1170.03,860.05 1180.14,873.001 
  1190.25,885.665 1200.36,898.052 1210.48,910.173 1220.59,922.04 1230.7,933.663 1240.81,945.054 1250.92,956.223 1261.03,967.182 1271.14,977.942 1281.26,988.513 
  1291.37,998.907 1301.48,1009.13 1311.59,1019.21 1321.7,1029.14 1331.81,1038.93 1341.92,1048.6 1352.03,1058.16 1362.15,1067.63 1372.26,1077 1382.37,1086.29 
  1392.48,1095.52 1402.59,1104.69 1412.7,1113.81 1422.81,1122.87 1432.93,1131.87 1443.04,1140.81 1453.15,1149.68 1463.26,1158.47 1473.37,1167.19 1483.48,1175.82 
  1493.59,1184.37 1503.71,1192.82 1513.82,1201.18 1523.93,1209.44 1534.04,1217.59 1544.15,1225.64 1554.26,1233.57 1564.37,1241.38 1574.48,1249.08 1584.6,1256.64 
  1594.71,1264.08 1604.82,1271.37 1614.93,1278.53 1625.04,1285.55 1635.15,1292.41 1645.26,1299.12 1655.38,1305.65 1665.49,1312 1675.6,1318.17 1685.71,1324.13 
  1695.82,1329.89 1705.93,1335.42 1716.04,1340.73 1726.16,1345.8 1736.27,1350.62 1746.38,1355.17 1756.49,1359.47 1766.6,1363.48 1776.71,1367.2 1786.82,1370.63 
  1796.93,1373.75 1807.05,1376.55 1817.16,1379.02 1827.27,1381.15 1837.38,1382.94 1847.49,1384.37 1857.6,1385.43 1867.71,1386.11 1877.83,1386.4 1887.94,1386.27 
  1898.05,1385.72 1908.16,1384.73 1918.27,1383.3 1928.38,1381.39 1938.49,1379.01 1948.6,1376.13 1958.72,1372.75 1968.83,1368.85 1978.94,1364.41 1989.05,1359.43 
  1999.16,1353.88 2009.27,1347.75 2019.38,1341.04 2029.5,1333.72 2039.61,1325.78 2049.72,1317.21 2059.83,1308 2069.94,1298.13 2080.05,1287.59 2090.16,1276.44 
  2100.28,1264.71 2110.39,1252.45 2120.5,1239.7 2130.61,1226.52 2140.72,1212.94 2150.83,1199.01 2160.94,1184.79 2171.05,1170.3 2181.17,1155.61 2191.28,1140.75 
  2201.39,1125.77 2211.5,1110.71 2221.61,1095.63 2231.72,1080.57 2241.83,1065.56 2251.95,1050.67 2262.06,1035.92 2272.17,1021.38 2282.28,1007.08 2292.39,993.076 
  
  "/>
<path clip-path="url(#clip480)" d="
M1911.18 374.156 L2281.66 374.156 L2281.66 166.796 L1911.18 166.796  Z
  " fill="#ffffff" fill-rule="evenodd" fill-opacity="0"/>
<polyline clip-path="url(#clip480)" style="stroke:#000000; stroke-linecap:round; stroke-linejoin:round; stroke-width:4; stroke-opacity:1; fill:none" points="
  1911.18,374.156 2281.66,374.156 2281.66,166.796 1911.18,166.796 1911.18,374.156 
  "/>
<polyline clip-path="url(#clip480)" style="stroke:#000000; stroke-linecap:round; stroke-linejoin:round; stroke-width:4; stroke-opacity:1; fill:none" stroke-dasharray="16, 10" points="
  1934.88,218.636 2077.07,218.636 
  "/>
<path clip-path="url(#clip480)" d="M2108.17 202.629 L2108.17 209.99 L2116.95 209.99 L2116.95 213.3 L2108.17 213.3 L2108.17 227.374 Q2108.17 230.545 2109.03 231.448 Q2109.91 232.351 2112.57 232.351 L2116.95 232.351 L2116.95 235.916 L2112.57 235.916 Q2107.64 235.916 2105.77 234.087 Q2103.89 232.235 2103.89 227.374 L2103.89 213.3 L2100.77 213.3 L2100.77 209.99 L2103.89 209.99 L2103.89 202.629 L2108.17 202.629 Z" fill="#000000" fill-rule="evenodd" fill-opacity="1" /><path clip-path="url(#clip480)" d="M2137.57 213.971 Q2136.86 213.555 2136 213.37 Q2135.17 213.161 2134.15 213.161 Q2130.54 213.161 2128.59 215.522 Q2126.67 217.86 2126.67 222.258 L2126.67 235.916 L2122.39 235.916 L2122.39 209.99 L2126.67 209.99 L2126.67 214.018 Q2128.01 211.657 2130.17 210.522 Q2132.32 209.365 2135.4 209.365 Q2135.84 209.365 2136.37 209.434 Q2136.9 209.481 2137.55 209.596 L2137.57 213.971 Z" fill="#000000" fill-rule="evenodd" fill-opacity="1" /><path clip-path="url(#clip480)" d="M2141.6 225.684 L2141.6 209.99 L2145.86 209.99 L2145.86 225.522 Q2145.86 229.203 2147.29 231.055 Q2148.73 232.883 2151.6 232.883 Q2155.05 232.883 2157.04 230.684 Q2159.05 228.485 2159.05 224.689 L2159.05 209.99 L2163.31 209.99 L2163.31 235.916 L2159.05 235.916 L2159.05 231.934 Q2157.5 234.295 2155.44 235.453 Q2153.41 236.587 2150.7 236.587 Q2146.23 236.587 2143.92 233.809 Q2141.6 231.031 2141.6 225.684 M2152.32 209.365 L2152.32 209.365 Z" fill="#000000" fill-rule="evenodd" fill-opacity="1" /><path clip-path="url(#clip480)" d="M2194.26 221.888 L2194.26 223.971 L2174.68 223.971 Q2174.96 228.369 2177.32 230.684 Q2179.7 232.976 2183.94 232.976 Q2186.39 232.976 2188.68 232.374 Q2191 231.772 2193.27 230.569 L2193.27 234.596 Q2190.98 235.568 2188.57 236.078 Q2186.16 236.587 2183.68 236.587 Q2177.48 236.587 2173.85 232.976 Q2170.23 229.365 2170.23 223.207 Q2170.23 216.842 2173.66 213.115 Q2177.11 209.365 2182.94 209.365 Q2188.17 209.365 2191.21 212.745 Q2194.26 216.101 2194.26 221.888 M2190 220.638 Q2189.96 217.143 2188.04 215.059 Q2186.14 212.976 2182.99 212.976 Q2179.42 212.976 2177.27 214.99 Q2175.14 217.004 2174.82 220.661 L2190 220.638 Z" fill="#000000" fill-rule="evenodd" fill-opacity="1" /><circle clip-path="url(#clip480)" cx="2005.97" cy="270.476" r="23.04" fill="#ffffff" fill-rule="evenodd" fill-opacity="1" stroke="#000000" stroke-opacity="1" stroke-width="6.82667"/>
<path clip-path="url(#clip480)" d="M2100.77 251.737 L2105.05 251.737 L2105.05 273.01 L2117.76 261.83 L2123.2 261.83 L2109.45 273.959 L2123.78 287.756 L2118.22 287.756 L2105.05 275.094 L2105.05 287.756 L2100.77 287.756 L2100.77 251.737 Z" fill="#000000" fill-rule="evenodd" fill-opacity="1" /><path clip-path="url(#clip480)" d="M2149.93 272.108 L2149.93 287.756 L2145.67 287.756 L2145.67 272.247 Q2145.67 268.566 2144.24 266.737 Q2142.8 264.909 2139.93 264.909 Q2136.48 264.909 2134.49 267.108 Q2132.5 269.307 2132.5 273.103 L2132.5 287.756 L2128.22 287.756 L2128.22 261.83 L2132.5 261.83 L2132.5 265.858 Q2134.03 263.52 2136.09 262.362 Q2138.17 261.205 2140.88 261.205 Q2145.35 261.205 2147.64 263.983 Q2149.93 266.737 2149.93 272.108 Z" fill="#000000" fill-rule="evenodd" fill-opacity="1" /><path clip-path="url(#clip480)" d="M2168.48 264.816 Q2165.05 264.816 2163.06 267.501 Q2161.07 270.163 2161.07 274.816 Q2161.07 279.469 2163.04 282.154 Q2165.03 284.816 2168.48 284.816 Q2171.88 284.816 2173.87 282.131 Q2175.86 279.446 2175.86 274.816 Q2175.86 270.21 2173.87 267.524 Q2171.88 264.816 2168.48 264.816 M2168.48 261.205 Q2174.03 261.205 2177.2 264.816 Q2180.37 268.427 2180.37 274.816 Q2180.37 281.182 2177.2 284.816 Q2174.03 288.427 2168.48 288.427 Q2162.9 288.427 2159.73 284.816 Q2156.58 281.182 2156.58 274.816 Q2156.58 268.427 2159.73 264.816 Q2162.9 261.205 2168.48 261.205 Z" fill="#000000" fill-rule="evenodd" fill-opacity="1" /><path clip-path="url(#clip480)" d="M2191.65 254.469 L2191.65 261.83 L2200.42 261.83 L2200.42 265.14 L2191.65 265.14 L2191.65 279.214 Q2191.65 282.385 2192.5 283.288 Q2193.38 284.191 2196.04 284.191 L2200.42 284.191 L2200.42 287.756 L2196.04 287.756 Q2191.11 287.756 2189.24 285.927 Q2187.36 284.075 2187.36 279.214 L2187.36 265.14 L2184.24 265.14 L2184.24 261.83 L2187.36 261.83 L2187.36 254.469 L2191.65 254.469 Z" fill="#000000" fill-rule="evenodd" fill-opacity="1" /><path clip-path="url(#clip480)" d="M2222.55 262.594 L2222.55 266.622 Q2220.74 265.696 2218.8 265.233 Q2216.85 264.77 2214.77 264.77 Q2211.6 264.77 2210 265.742 Q2208.43 266.714 2208.43 268.659 Q2208.43 270.14 2209.56 270.997 Q2210.7 271.83 2214.12 272.594 L2215.58 272.918 Q2220.12 273.89 2222.02 275.672 Q2223.94 277.432 2223.94 280.603 Q2223.94 284.214 2221.07 286.321 Q2218.22 288.427 2213.22 288.427 Q2211.14 288.427 2208.87 288.01 Q2206.62 287.617 2204.12 286.807 L2204.12 282.409 Q2206.48 283.635 2208.78 284.26 Q2211.07 284.862 2213.31 284.862 Q2216.32 284.862 2217.94 283.844 Q2219.56 282.802 2219.56 280.927 Q2219.56 279.191 2218.38 278.265 Q2217.23 277.339 2213.27 276.483 L2211.79 276.135 Q2207.83 275.302 2206.07 273.589 Q2204.31 271.853 2204.31 268.844 Q2204.31 265.186 2206.9 263.196 Q2209.49 261.205 2214.26 261.205 Q2216.62 261.205 2218.71 261.552 Q2220.79 261.899 2222.55 262.594 Z" fill="#000000" fill-rule="evenodd" fill-opacity="1" /><polyline clip-path="url(#clip480)" style="stroke:#000000; stroke-linecap:round; stroke-linejoin:round; stroke-width:4; stroke-opacity:1; fill:none" points="
  1934.88,322.316 2077.07,322.316 
  "/>
<path clip-path="url(#clip480)" d="M2100.77 313.67 L2105.03 313.67 L2105.03 339.596 L2100.77 339.596 L2100.77 313.67 M2100.77 303.577 L2105.03 303.577 L2105.03 308.971 L2100.77 308.971 L2100.77 303.577 Z" fill="#000000" fill-rule="evenodd" fill-opacity="1" /><path clip-path="url(#clip480)" d="M2135.49 323.948 L2135.49 339.596 L2131.23 339.596 L2131.23 324.087 Q2131.23 320.406 2129.8 318.577 Q2128.36 316.749 2125.49 316.749 Q2122.04 316.749 2120.05 318.948 Q2118.06 321.147 2118.06 324.943 L2118.06 339.596 L2113.78 339.596 L2113.78 313.67 L2118.06 313.67 L2118.06 317.698 Q2119.59 315.36 2121.65 314.202 Q2123.73 313.045 2126.44 313.045 Q2130.91 313.045 2133.2 315.823 Q2135.49 318.577 2135.49 323.948 Z" fill="#000000" fill-rule="evenodd" fill-opacity="1" /><path clip-path="url(#clip480)" d="M2148.2 306.309 L2148.2 313.67 L2156.97 313.67 L2156.97 316.98 L2148.2 316.98 L2148.2 331.054 Q2148.2 334.225 2149.05 335.128 Q2149.93 336.031 2152.6 336.031 L2156.97 336.031 L2156.97 339.596 L2152.6 339.596 Q2147.67 339.596 2145.79 337.767 Q2143.92 335.915 2143.92 331.054 L2143.92 316.98 L2140.79 316.98 L2140.79 313.67 L2143.92 313.67 L2143.92 306.309 L2148.2 306.309 Z" fill="#000000" fill-rule="evenodd" fill-opacity="1" /><path clip-path="url(#clip480)" d="M2184.75 325.568 L2184.75 327.651 L2165.17 327.651 Q2165.44 332.049 2167.8 334.364 Q2170.19 336.656 2174.42 336.656 Q2176.88 336.656 2179.17 336.054 Q2181.48 335.452 2183.75 334.249 L2183.75 338.276 Q2181.46 339.248 2179.05 339.758 Q2176.65 340.267 2174.17 340.267 Q2167.97 340.267 2164.33 336.656 Q2160.72 333.045 2160.72 326.887 Q2160.72 320.522 2164.15 316.795 Q2167.6 313.045 2173.43 313.045 Q2178.66 313.045 2181.69 316.425 Q2184.75 319.781 2184.75 325.568 M2180.49 324.318 Q2180.44 320.823 2178.52 318.739 Q2176.62 316.656 2173.48 316.656 Q2169.91 316.656 2167.76 318.67 Q2165.63 320.684 2165.3 324.341 L2180.49 324.318 Z" fill="#000000" fill-rule="evenodd" fill-opacity="1" /><path clip-path="url(#clip480)" d="M2206.76 317.651 Q2206.04 317.235 2205.19 317.05 Q2204.35 316.841 2203.34 316.841 Q2199.73 316.841 2197.78 319.202 Q2195.86 321.54 2195.86 325.938 L2195.86 339.596 L2191.58 339.596 L2191.58 313.67 L2195.86 313.67 L2195.86 317.698 Q2197.2 315.337 2199.35 314.202 Q2201.51 313.045 2204.59 313.045 Q2205.03 313.045 2205.56 313.114 Q2206.09 313.161 2206.74 313.276 L2206.76 317.651 Z" fill="#000000" fill-rule="evenodd" fill-opacity="1" /><path clip-path="url(#clip480)" d="M2215.35 335.707 L2215.35 349.457 L2211.07 349.457 L2211.07 313.67 L2215.35 313.67 L2215.35 317.605 Q2216.69 315.29 2218.73 314.179 Q2220.79 313.045 2223.64 313.045 Q2228.36 313.045 2231.3 316.795 Q2234.26 320.545 2234.26 326.656 Q2234.26 332.767 2231.3 336.517 Q2228.36 340.267 2223.64 340.267 Q2220.79 340.267 2218.73 339.156 Q2216.69 338.022 2215.35 335.707 M2229.84 326.656 Q2229.84 321.957 2227.9 319.295 Q2225.98 316.61 2222.6 316.61 Q2219.22 316.61 2217.27 319.295 Q2215.35 321.957 2215.35 326.656 Q2215.35 331.355 2217.27 334.04 Q2219.22 336.702 2222.6 336.702 Q2225.98 336.702 2227.9 334.04 Q2229.84 331.355 2229.84 326.656 Z" fill="#000000" fill-rule="evenodd" fill-opacity="1" /></svg>
