<?xml version="1.0" encoding="utf-8"?>
<svg xmlns="http://www.w3.org/2000/svg" xmlns:xlink="http://www.w3.org/1999/xlink" width="600" height="400" viewBox="0 0 2400 1600">
<defs>
  <clipPath id="clip710">
    <rect x="0" y="0" width="2400" height="1600"/>
  </clipPath>
</defs>
<path clip-path="url(#clip710)" d="M0 1600 L2400 1600 L2400 0 L0 0  Z" fill="#ffffff" fill-rule="evenodd" fill-opacity="0"/>
<defs>
  <clipPath id="clip711">
    <rect x="480" y="0" width="1681" height="1600"/>
  </clipPath>
</defs>
<path clip-path="url(#clip710)" d="M175.445 1423.18 L2352.76 1423.18 L2352.76 123.472 L175.445 123.472  Z" fill="#ffffff" fill-rule="evenodd" fill-opacity="0"/>
<defs>
  <clipPath id="clip712">
    <rect x="175" y="123" width="2178" height="1301"/>
  </clipPath>
</defs>
<polyline clip-path="url(#clip712)" style="stroke:#000000; stroke-linecap:round; stroke-linejoin:round; stroke-width:2; stroke-opacity:0.1; fill:none" points="237.055,1423.18 237.055,123.472 "/>
<polyline clip-path="url(#clip712)" style="stroke:#000000; stroke-linecap:round; stroke-linejoin:round; stroke-width:2; stroke-opacity:0.1; fill:none" points="750.58,1423.18 750.58,123.472 "/>
<polyline clip-path="url(#clip712)" style="stroke:#000000; stroke-linecap:round; stroke-linejoin:round; stroke-width:2; stroke-opacity:0.1; fill:none" points="1264.11,1423.18 1264.11,123.472 "/>
<polyline clip-path="url(#clip712)" style="stroke:#000000; stroke-linecap:round; stroke-linejoin:round; stroke-width:2; stroke-opacity:0.1; fill:none" points="1777.63,1423.18 1777.63,123.472 "/>
<polyline clip-path="url(#clip712)" style="stroke:#000000; stroke-linecap:round; stroke-linejoin:round; stroke-width:2; stroke-opacity:0.1; fill:none" points="2291.16,1423.18 2291.16,123.472 "/>
<polyline clip-path="url(#clip710)" style="stroke:#000000; stroke-linecap:round; stroke-linejoin:round; stroke-width:4; stroke-opacity:1; fill:none" points="175.445,1423.18 2352.76,1423.18 "/>
<polyline clip-path="url(#clip710)" style="stroke:#000000; stroke-linecap:round; stroke-linejoin:round; stroke-width:4; stroke-opacity:1; fill:none" points="237.055,1423.18 237.055,1404.28 "/>
<polyline clip-path="url(#clip710)" style="stroke:#000000; stroke-linecap:round; stroke-linejoin:round; stroke-width:4; stroke-opacity:1; fill:none" points="750.58,1423.18 750.58,1404.28 "/>
<polyline clip-path="url(#clip710)" style="stroke:#000000; stroke-linecap:round; stroke-linejoin:round; stroke-width:4; stroke-opacity:1; fill:none" points="1264.11,1423.18 1264.11,1404.28 "/>
<polyline clip-path="url(#clip710)" style="stroke:#000000; stroke-linecap:round; stroke-linejoin:round; stroke-width:4; stroke-opacity:1; fill:none" points="1777.63,1423.18 1777.63,1404.28 "/>
<polyline clip-path="url(#clip710)" style="stroke:#000000; stroke-linecap:round; stroke-linejoin:round; stroke-width:4; stroke-opacity:1; fill:none" points="2291.16,1423.18 2291.16,1404.28 "/>
<path clip-path="url(#clip710)" d="M183.583 1468.75 L213.258 1468.75 L213.258 1472.69 L183.583 1472.69 L183.583 1468.75 Z" fill="#000000" fill-rule="evenodd" fill-opacity="1" /><path clip-path="url(#clip710)" d="M224.161 1481.64 L231.8 1481.64 L231.8 1455.28 L223.49 1456.95 L223.49 1452.69 L231.754 1451.02 L236.43 1451.02 L236.43 1481.64 L244.068 1481.64 L244.068 1485.58 L224.161 1485.58 L224.161 1481.64 Z" fill="#000000" fill-rule="evenodd" fill-opacity="1" /><path clip-path="url(#clip710)" d="M253.513 1479.7 L258.397 1479.7 L258.397 1485.58 L253.513 1485.58 L253.513 1479.7 Z" fill="#000000" fill-rule="evenodd" fill-opacity="1" /><path clip-path="url(#clip710)" d="M278.582 1454.1 Q274.971 1454.1 273.142 1457.66 Q271.337 1461.2 271.337 1468.33 Q271.337 1475.44 273.142 1479.01 Q274.971 1482.55 278.582 1482.55 Q282.216 1482.55 284.022 1479.01 Q285.851 1475.44 285.851 1468.33 Q285.851 1461.2 284.022 1457.66 Q282.216 1454.1 278.582 1454.1 M278.582 1450.39 Q284.392 1450.39 287.448 1455 Q290.527 1459.58 290.527 1468.33 Q290.527 1477.06 287.448 1481.67 Q284.392 1486.25 278.582 1486.25 Q272.772 1486.25 269.693 1481.67 Q266.638 1477.06 266.638 1468.33 Q266.638 1459.58 269.693 1455 Q272.772 1450.39 278.582 1450.39 Z" fill="#000000" fill-rule="evenodd" fill-opacity="1" /><path clip-path="url(#clip710)" d="M697.606 1468.75 L727.281 1468.75 L727.281 1472.69 L697.606 1472.69 L697.606 1468.75 Z" fill="#000000" fill-rule="evenodd" fill-opacity="1" /><path clip-path="url(#clip710)" d="M747.374 1454.1 Q743.763 1454.1 741.934 1457.66 Q740.129 1461.2 740.129 1468.33 Q740.129 1475.44 741.934 1479.01 Q743.763 1482.55 747.374 1482.55 Q751.008 1482.55 752.814 1479.01 Q754.642 1475.44 754.642 1468.33 Q754.642 1461.2 752.814 1457.66 Q751.008 1454.1 747.374 1454.1 M747.374 1450.39 Q753.184 1450.39 756.24 1455 Q759.318 1459.58 759.318 1468.33 Q759.318 1477.06 756.24 1481.67 Q753.184 1486.25 747.374 1486.25 Q741.564 1486.25 738.485 1481.67 Q735.43 1477.06 735.43 1468.33 Q735.43 1459.58 738.485 1455 Q741.564 1450.39 747.374 1450.39 Z" fill="#000000" fill-rule="evenodd" fill-opacity="1" /><path clip-path="url(#clip710)" d="M767.536 1479.7 L772.42 1479.7 L772.42 1485.58 L767.536 1485.58 L767.536 1479.7 Z" fill="#000000" fill-rule="evenodd" fill-opacity="1" /><path clip-path="url(#clip710)" d="M782.651 1451.02 L801.008 1451.02 L801.008 1454.96 L786.934 1454.96 L786.934 1463.43 Q787.952 1463.08 788.971 1462.92 Q789.989 1462.73 791.008 1462.73 Q796.795 1462.73 800.175 1465.9 Q803.554 1469.08 803.554 1474.49 Q803.554 1480.07 800.082 1483.17 Q796.61 1486.25 790.29 1486.25 Q788.114 1486.25 785.846 1485.88 Q783.601 1485.51 781.193 1484.77 L781.193 1480.07 Q783.276 1481.2 785.499 1481.76 Q787.721 1482.32 790.198 1482.32 Q794.202 1482.32 796.54 1480.21 Q798.878 1478.1 798.878 1474.49 Q798.878 1470.88 796.54 1468.77 Q794.202 1466.67 790.198 1466.67 Q788.323 1466.67 786.448 1467.08 Q784.596 1467.5 782.651 1468.38 L782.651 1451.02 Z" fill="#000000" fill-rule="evenodd" fill-opacity="1" /><path clip-path="url(#clip710)" d="M1241.49 1454.1 Q1237.88 1454.1 1236.05 1457.66 Q1234.24 1461.2 1234.24 1468.33 Q1234.24 1475.44 1236.05 1479.01 Q1237.88 1482.55 1241.49 1482.55 Q1245.12 1482.55 1246.93 1479.01 Q1248.76 1475.44 1248.76 1468.33 Q1248.76 1461.2 1246.93 1457.66 Q1245.12 1454.1 1241.49 1454.1 M1241.49 1450.39 Q1247.3 1450.39 1250.36 1455 Q1253.43 1459.58 1253.43 1468.33 Q1253.43 1477.06 1250.36 1481.67 Q1247.3 1486.25 1241.49 1486.25 Q1235.68 1486.25 1232.6 1481.67 Q1229.55 1477.06 1229.55 1468.33 Q1229.55 1459.58 1232.6 1455 Q1235.68 1450.39 1241.49 1450.39 Z" fill="#000000" fill-rule="evenodd" fill-opacity="1" /><path clip-path="url(#clip710)" d="M1261.65 1479.7 L1266.54 1479.7 L1266.54 1485.58 L1261.65 1485.58 L1261.65 1479.7 Z" fill="#000000" fill-rule="evenodd" fill-opacity="1" /><path clip-path="url(#clip710)" d="M1286.72 1454.1 Q1283.11 1454.1 1281.28 1457.66 Q1279.48 1461.2 1279.48 1468.33 Q1279.48 1475.44 1281.28 1479.01 Q1283.11 1482.55 1286.72 1482.55 Q1290.36 1482.55 1292.16 1479.01 Q1293.99 1475.44 1293.99 1468.33 Q1293.99 1461.2 1292.16 1457.66 Q1290.36 1454.1 1286.72 1454.1 M1286.72 1450.39 Q1292.53 1450.39 1295.59 1455 Q1298.67 1459.58 1298.67 1468.33 Q1298.67 1477.06 1295.59 1481.67 Q1292.53 1486.25 1286.72 1486.25 Q1280.91 1486.25 1277.83 1481.67 Q1274.78 1477.06 1274.78 1468.33 Q1274.78 1459.58 1277.83 1455 Q1280.91 1450.39 1286.72 1450.39 Z" fill="#000000" fill-rule="evenodd" fill-opacity="1" /><path clip-path="url(#clip710)" d="M1755.51 1454.1 Q1751.9 1454.1 1750.07 1457.66 Q1748.27 1461.2 1748.27 1468.33 Q1748.27 1475.44 1750.07 1479.01 Q1751.9 1482.55 1755.51 1482.55 Q1759.15 1482.55 1760.95 1479.01 Q1762.78 1475.44 1762.78 1468.33 Q1762.78 1461.2 1760.95 1457.66 Q1759.15 1454.1 1755.51 1454.1 M1755.51 1450.39 Q1761.32 1450.39 1764.38 1455 Q1767.46 1459.58 1767.46 1468.33 Q1767.46 1477.06 1764.38 1481.67 Q1761.32 1486.25 1755.51 1486.25 Q1749.7 1486.25 1746.62 1481.67 Q1743.57 1477.06 1743.57 1468.33 Q1743.57 1459.58 1746.62 1455 Q1749.7 1450.39 1755.51 1450.39 Z" fill="#000000" fill-rule="evenodd" fill-opacity="1" /><path clip-path="url(#clip710)" d="M1775.67 1479.7 L1780.56 1479.7 L1780.56 1485.58 L1775.67 1485.58 L1775.67 1479.7 Z" fill="#000000" fill-rule="evenodd" fill-opacity="1" /><path clip-path="url(#clip710)" d="M1790.79 1451.02 L1809.15 1451.02 L1809.15 1454.96 L1795.07 1454.96 L1795.07 1463.43 Q1796.09 1463.08 1797.11 1462.92 Q1798.13 1462.73 1799.15 1462.73 Q1804.93 1462.73 1808.31 1465.9 Q1811.69 1469.08 1811.69 1474.49 Q1811.69 1480.07 1808.22 1483.17 Q1804.75 1486.25 1798.43 1486.25 Q1796.25 1486.25 1793.98 1485.88 Q1791.74 1485.51 1789.33 1484.77 L1789.33 1480.07 Q1791.42 1481.2 1793.64 1481.76 Q1795.86 1482.32 1798.34 1482.32 Q1802.34 1482.32 1804.68 1480.21 Q1807.02 1478.1 1807.02 1474.49 Q1807.02 1470.88 1804.68 1468.77 Q1802.34 1466.67 1798.34 1466.67 Q1796.46 1466.67 1794.59 1467.08 Q1792.73 1467.5 1790.79 1468.38 L1790.79 1451.02 Z" fill="#000000" fill-rule="evenodd" fill-opacity="1" /><path clip-path="url(#clip710)" d="M2258.31 1481.64 L2265.95 1481.64 L2265.95 1455.28 L2257.64 1456.95 L2257.64 1452.69 L2265.9 1451.02 L2270.58 1451.02 L2270.58 1481.64 L2278.22 1481.64 L2278.22 1485.58 L2258.31 1485.58 L2258.31 1481.64 Z" fill="#000000" fill-rule="evenodd" fill-opacity="1" /><path clip-path="url(#clip710)" d="M2287.66 1479.7 L2292.54 1479.7 L2292.54 1485.58 L2287.66 1485.58 L2287.66 1479.7 Z" fill="#000000" fill-rule="evenodd" fill-opacity="1" /><path clip-path="url(#clip710)" d="M2312.73 1454.1 Q2309.12 1454.1 2307.29 1457.66 Q2305.48 1461.2 2305.48 1468.33 Q2305.48 1475.44 2307.29 1479.01 Q2309.12 1482.55 2312.73 1482.55 Q2316.36 1482.55 2318.17 1479.01 Q2320 1475.44 2320 1468.33 Q2320 1461.2 2318.17 1457.66 Q2316.36 1454.1 2312.73 1454.1 M2312.73 1450.39 Q2318.54 1450.39 2321.6 1455 Q2324.67 1459.58 2324.67 1468.33 Q2324.67 1477.06 2321.6 1481.67 Q2318.54 1486.25 2312.73 1486.25 Q2306.92 1486.25 2303.84 1481.67 Q2300.79 1477.06 2300.79 1468.33 Q2300.79 1459.58 2303.84 1455 Q2306.92 1450.39 2312.73 1450.39 Z" fill="#000000" fill-rule="evenodd" fill-opacity="1" /><path clip-path="url(#clip710)" d="M1227.43 1550.25 Q1227.43 1556.71 1230.08 1560.4 Q1232.75 1564.07 1237.4 1564.07 Q1242.04 1564.07 1244.72 1560.4 Q1247.39 1556.71 1247.39 1550.25 Q1247.39 1543.79 1244.72 1540.13 Q1242.04 1536.44 1237.4 1536.44 Q1232.75 1536.44 1230.08 1540.13 Q1227.43 1543.79 1227.43 1550.25 M1247.39 1562.7 Q1245.54 1565.88 1242.71 1567.44 Q1239.91 1568.97 1235.96 1568.97 Q1229.5 1568.97 1225.43 1563.81 Q1221.39 1558.65 1221.39 1550.25 Q1221.39 1541.85 1225.43 1536.69 Q1229.5 1531.54 1235.96 1531.54 Q1239.91 1531.54 1242.71 1533.1 Q1245.54 1534.62 1247.39 1537.81 L1247.39 1532.4 L1253.25 1532.4 L1253.25 1581.6 L1247.39 1581.6 L1247.39 1562.7 Z" fill="#000000" fill-rule="evenodd" fill-opacity="1" /><path clip-path="url(#clip710)" d="M1284.85 1524.88 Q1277.85 1524.88 1273.71 1530.1 Q1269.61 1535.32 1269.61 1544.33 Q1269.61 1553.31 1273.71 1558.53 Q1277.85 1563.75 1284.85 1563.75 Q1291.86 1563.75 1295.93 1558.53 Q1300.03 1553.31 1300.03 1544.33 Q1300.03 1535.32 1295.93 1530.1 Q1291.86 1524.88 1284.85 1524.88 M1293.86 1567.18 L1302.33 1576.45 L1294.56 1576.45 L1287.53 1568.84 Q1286.48 1568.9 1285.9 1568.94 Q1285.36 1568.97 1284.85 1568.97 Q1274.83 1568.97 1268.81 1562.28 Q1262.83 1555.57 1262.83 1544.33 Q1262.83 1533.06 1268.81 1526.38 Q1274.83 1519.66 1284.85 1519.66 Q1294.85 1519.66 1300.83 1526.38 Q1306.81 1533.06 1306.81 1544.33 Q1306.81 1552.61 1303.47 1558.5 Q1300.16 1564.38 1293.86 1567.18 Z" fill="#000000" fill-rule="evenodd" fill-opacity="1" /><polyline clip-path="url(#clip712)" style="stroke:#000000; stroke-linecap:round; stroke-linejoin:round; stroke-width:2; stroke-opacity:0.1; fill:none" points="175.445,1423.18 2352.76,1423.18 "/>
<polyline clip-path="url(#clip712)" style="stroke:#000000; stroke-linecap:round; stroke-linejoin:round; stroke-width:2; stroke-opacity:0.1; fill:none" points="175.445,1237.51 2352.76,1237.51 "/>
<polyline clip-path="url(#clip712)" style="stroke:#000000; stroke-linecap:round; stroke-linejoin:round; stroke-width:2; stroke-opacity:0.1; fill:none" points="175.445,1051.83 2352.76,1051.83 "/>
<polyline clip-path="url(#clip712)" style="stroke:#000000; stroke-linecap:round; stroke-linejoin:round; stroke-width:2; stroke-opacity:0.1; fill:none" points="175.445,866.162 2352.76,866.162 "/>
<polyline clip-path="url(#clip712)" style="stroke:#000000; stroke-linecap:round; stroke-linejoin:round; stroke-width:2; stroke-opacity:0.1; fill:none" points="175.445,680.49 2352.76,680.49 "/>
<polyline clip-path="url(#clip712)" style="stroke:#000000; stroke-linecap:round; stroke-linejoin:round; stroke-width:2; stroke-opacity:0.1; fill:none" points="175.445,494.817 2352.76,494.817 "/>
<polyline clip-path="url(#clip712)" style="stroke:#000000; stroke-linecap:round; stroke-linejoin:round; stroke-width:2; stroke-opacity:0.1; fill:none" points="175.445,309.145 2352.76,309.145 "/>
<polyline clip-path="url(#clip712)" style="stroke:#000000; stroke-linecap:round; stroke-linejoin:round; stroke-width:2; stroke-opacity:0.1; fill:none" points="175.445,123.472 2352.76,123.472 "/>
<polyline clip-path="url(#clip710)" style="stroke:#000000; stroke-linecap:round; stroke-linejoin:round; stroke-width:4; stroke-opacity:1; fill:none" points="175.445,1423.18 175.445,123.472 "/>
<polyline clip-path="url(#clip710)" style="stroke:#000000; stroke-linecap:round; stroke-linejoin:round; stroke-width:4; stroke-opacity:1; fill:none" points="175.445,1423.18 194.343,1423.18 "/>
<polyline clip-path="url(#clip710)" style="stroke:#000000; stroke-linecap:round; stroke-linejoin:round; stroke-width:4; stroke-opacity:1; fill:none" points="175.445,1237.51 194.343,1237.51 "/>
<polyline clip-path="url(#clip710)" style="stroke:#000000; stroke-linecap:round; stroke-linejoin:round; stroke-width:4; stroke-opacity:1; fill:none" points="175.445,1051.83 194.343,1051.83 "/>
<polyline clip-path="url(#clip710)" style="stroke:#000000; stroke-linecap:round; stroke-linejoin:round; stroke-width:4; stroke-opacity:1; fill:none" points="175.445,866.162 194.343,866.162 "/>
<polyline clip-path="url(#clip710)" style="stroke:#000000; stroke-linecap:round; stroke-linejoin:round; stroke-width:4; stroke-opacity:1; fill:none" points="175.445,680.49 194.343,680.49 "/>
<polyline clip-path="url(#clip710)" style="stroke:#000000; stroke-linecap:round; stroke-linejoin:round; stroke-width:4; stroke-opacity:1; fill:none" points="175.445,494.817 194.343,494.817 "/>
<polyline clip-path="url(#clip710)" style="stroke:#000000; stroke-linecap:round; stroke-linejoin:round; stroke-width:4; stroke-opacity:1; fill:none" points="175.445,309.145 194.343,309.145 "/>
<polyline clip-path="url(#clip710)" style="stroke:#000000; stroke-linecap:round; stroke-linejoin:round; stroke-width:4; stroke-opacity:1; fill:none" points="175.445,123.472 194.343,123.472 "/>
<path clip-path="url(#clip710)" d="M119.538 1436.52 L127.177 1436.52 L127.177 1410.16 L118.867 1411.83 L118.867 1407.57 L127.13 1405.9 L131.806 1405.9 L131.806 1436.52 L139.445 1436.52 L139.445 1440.46 L119.538 1440.46 L119.538 1436.52 Z" fill="#000000" fill-rule="evenodd" fill-opacity="1" /><path clip-path="url(#clip710)" d="M123.126 1250.85 L139.445 1250.85 L139.445 1254.79 L117.501 1254.79 L117.501 1250.85 Q120.163 1248.1 124.746 1243.47 Q129.353 1238.82 130.533 1237.47 Q132.779 1234.95 133.658 1233.21 Q134.561 1231.45 134.561 1229.76 Q134.561 1227.01 132.617 1225.27 Q130.695 1223.54 127.593 1223.54 Q125.394 1223.54 122.941 1224.3 Q120.51 1225.07 117.732 1226.62 L117.732 1221.89 Q120.556 1220.76 123.01 1220.18 Q125.464 1219.6 127.501 1219.6 Q132.871 1219.6 136.066 1222.29 Q139.26 1224.97 139.26 1229.46 Q139.26 1231.59 138.45 1233.51 Q137.663 1235.41 135.556 1238 Q134.978 1238.68 131.876 1241.89 Q128.774 1245.09 123.126 1250.85 Z" fill="#000000" fill-rule="evenodd" fill-opacity="1" /><path clip-path="url(#clip710)" d="M132.316 1050.48 Q135.672 1051.2 137.547 1053.47 Q139.445 1055.74 139.445 1059.07 Q139.445 1064.18 135.927 1066.99 Q132.408 1069.79 125.927 1069.79 Q123.751 1069.79 121.436 1069.35 Q119.144 1068.93 116.691 1068.07 L116.691 1063.56 Q118.635 1064.69 120.95 1065.27 Q123.265 1065.85 125.788 1065.85 Q130.186 1065.85 132.478 1064.11 Q134.792 1062.38 134.792 1059.07 Q134.792 1056.01 132.64 1054.3 Q130.51 1052.56 126.691 1052.56 L122.663 1052.56 L122.663 1048.72 L126.876 1048.72 Q130.325 1048.72 132.154 1047.36 Q133.982 1045.97 133.982 1043.37 Q133.982 1040.71 132.084 1039.3 Q130.209 1037.86 126.691 1037.86 Q124.769 1037.86 122.57 1038.28 Q120.371 1038.7 117.732 1039.58 L117.732 1035.41 Q120.394 1034.67 122.709 1034.3 Q125.047 1033.93 127.107 1033.93 Q132.431 1033.93 135.533 1036.36 Q138.635 1038.77 138.635 1042.89 Q138.635 1045.76 136.992 1047.75 Q135.348 1049.72 132.316 1050.48 Z" fill="#000000" fill-rule="evenodd" fill-opacity="1" /><path clip-path="url(#clip710)" d="M129.862 852.956 L118.056 871.405 L129.862 871.405 L129.862 852.956 M128.635 848.882 L134.515 848.882 L134.515 871.405 L139.445 871.405 L139.445 875.294 L134.515 875.294 L134.515 883.442 L129.862 883.442 L129.862 875.294 L114.26 875.294 L114.26 870.78 L128.635 848.882 Z" fill="#000000" fill-rule="evenodd" fill-opacity="1" /><path clip-path="url(#clip710)" d="M118.543 663.21 L136.899 663.21 L136.899 667.145 L122.825 667.145 L122.825 675.617 Q123.843 675.27 124.862 675.108 Q125.88 674.923 126.899 674.923 Q132.686 674.923 136.066 678.094 Q139.445 681.265 139.445 686.682 Q139.445 692.26 135.973 695.362 Q132.501 698.441 126.181 698.441 Q124.005 698.441 121.737 698.071 Q119.492 697.7 117.084 696.96 L117.084 692.26 Q119.168 693.395 121.39 693.95 Q123.612 694.506 126.089 694.506 Q130.093 694.506 132.431 692.399 Q134.769 690.293 134.769 686.682 Q134.769 683.071 132.431 680.964 Q130.093 678.858 126.089 678.858 Q124.214 678.858 122.339 679.274 Q120.487 679.691 118.543 680.571 L118.543 663.21 Z" fill="#000000" fill-rule="evenodd" fill-opacity="1" /><path clip-path="url(#clip710)" d="M127.917 492.954 Q124.769 492.954 122.918 495.107 Q121.089 497.259 121.089 501.009 Q121.089 504.736 122.918 506.912 Q124.769 509.065 127.917 509.065 Q131.066 509.065 132.894 506.912 Q134.746 504.736 134.746 501.009 Q134.746 497.259 132.894 495.107 Q131.066 492.954 127.917 492.954 M137.2 478.301 L137.2 482.56 Q135.441 481.727 133.635 481.287 Q131.853 480.847 130.093 480.847 Q125.464 480.847 123.01 483.972 Q120.58 487.097 120.232 493.417 Q121.598 491.403 123.658 490.338 Q125.718 489.25 128.195 489.25 Q133.404 489.25 136.413 492.421 Q139.445 495.569 139.445 501.009 Q139.445 506.333 136.297 509.551 Q133.149 512.768 127.917 512.768 Q121.922 512.768 118.751 508.185 Q115.58 503.579 115.58 494.852 Q115.58 486.658 119.468 481.796 Q123.357 476.912 129.908 476.912 Q131.667 476.912 133.45 477.259 Q135.255 477.607 137.2 478.301 Z" fill="#000000" fill-rule="evenodd" fill-opacity="1" /><path clip-path="url(#clip710)" d="M117.223 291.865 L139.445 291.865 L139.445 293.855 L126.899 326.425 L122.015 326.425 L133.82 295.8 L117.223 295.8 L117.223 291.865 Z" fill="#000000" fill-rule="evenodd" fill-opacity="1" /><path clip-path="url(#clip710)" d="M127.593 124.34 Q124.26 124.34 122.339 126.123 Q120.441 127.905 120.441 131.03 Q120.441 134.155 122.339 135.937 Q124.26 137.72 127.593 137.72 Q130.927 137.72 132.848 135.937 Q134.769 134.132 134.769 131.03 Q134.769 127.905 132.848 126.123 Q130.95 124.34 127.593 124.34 M122.918 122.349 Q119.908 121.609 118.218 119.549 Q116.552 117.488 116.552 114.525 Q116.552 110.382 119.492 107.975 Q122.455 105.567 127.593 105.567 Q132.755 105.567 135.695 107.975 Q138.635 110.382 138.635 114.525 Q138.635 117.488 136.945 119.549 Q135.279 121.609 132.292 122.349 Q135.672 123.136 137.547 125.428 Q139.445 127.72 139.445 131.03 Q139.445 136.053 136.367 138.738 Q133.311 141.423 127.593 141.423 Q121.876 141.423 118.797 138.738 Q115.742 136.053 115.742 131.03 Q115.742 127.72 117.64 125.428 Q119.538 123.136 122.918 122.349 M121.205 114.965 Q121.205 117.65 122.871 119.155 Q124.561 120.66 127.593 120.66 Q130.603 120.66 132.292 119.155 Q134.005 117.65 134.005 114.965 Q134.005 112.28 132.292 110.775 Q130.603 109.271 127.593 109.271 Q124.561 109.271 122.871 110.775 Q121.205 112.28 121.205 114.965 Z" fill="#000000" fill-rule="evenodd" fill-opacity="1" /><path clip-path="url(#clip710)" d="M33.8307 835.36 Q33.2578 836.346 33.0032 837.524 Q32.7167 838.67 32.7167 840.07 Q32.7167 845.036 35.9632 847.709 Q39.1779 850.351 45.2253 850.351 L64.0042 850.351 L64.0042 856.239 L28.3562 856.239 L28.3562 850.351 L33.8944 850.351 Q30.6479 848.505 29.0883 845.545 Q27.4968 842.585 27.4968 838.352 Q27.4968 837.747 27.5923 837.015 Q27.656 836.283 27.8151 835.392 L33.8307 835.36 Z" fill="#000000" fill-rule="evenodd" fill-opacity="1" /><path clip-path="url(#clip710)" d="M28.3562 808.497 L28.3562 802.64 L64.0042 802.64 L64.0042 808.497 L28.3562 808.497 M14.479 808.497 L14.479 802.64 L21.895 802.64 L21.895 808.497 L14.479 808.497 Z" fill="#000000" fill-rule="evenodd" fill-opacity="1" /><path clip-path="url(#clip710)" d="M29.4065 767.661 L34.9447 767.661 Q33.6716 770.143 33.035 772.817 Q32.3984 775.49 32.3984 778.355 Q32.3984 782.715 33.7352 784.912 Q35.072 787.076 37.7456 787.076 Q39.7826 787.076 40.9603 785.516 Q42.1061 783.957 43.1565 779.246 L43.6021 777.241 Q44.9389 771.003 47.3897 768.393 Q49.8086 765.751 54.1691 765.751 Q59.1344 765.751 62.0308 769.698 Q64.9272 773.612 64.9272 780.487 Q64.9272 783.352 64.3543 786.471 Q63.8132 789.559 62.6992 792.996 L56.6518 792.996 Q58.3387 789.75 59.198 786.598 Q60.0256 783.447 60.0256 780.36 Q60.0256 776.222 58.6251 773.994 Q57.1929 771.766 54.6147 771.766 Q52.2276 771.766 50.9545 773.39 Q49.6813 774.981 48.5037 780.424 L48.0262 782.461 Q46.8804 787.903 44.5251 790.322 Q42.138 792.741 38.0002 792.741 Q32.9713 792.741 30.2341 789.177 Q27.4968 785.612 27.4968 779.055 Q27.4968 775.809 27.9743 772.944 Q28.4517 770.079 29.4065 767.661 Z" fill="#000000" fill-rule="evenodd" fill-opacity="1" /><path clip-path="url(#clip710)" d="M29.7248 730.771 L35.1993 730.771 Q33.8307 733.254 33.1623 735.768 Q32.4621 738.251 32.4621 740.797 Q32.4621 746.495 36.0905 749.646 Q39.6872 752.797 46.212 752.797 Q52.7369 752.797 56.3653 749.646 Q59.9619 746.495 59.9619 740.797 Q59.9619 738.251 59.2935 735.768 Q58.5933 733.254 57.2247 730.771 L62.6355 730.771 Q63.7814 733.222 64.3543 735.864 Q64.9272 738.474 64.9272 741.434 Q64.9272 749.486 59.8664 754.229 Q54.8057 758.971 46.212 758.971 Q37.491 758.971 32.4939 754.197 Q27.4968 749.391 27.4968 741.052 Q27.4968 738.346 28.0697 735.768 Q28.6108 733.19 29.7248 730.771 Z" fill="#000000" fill-rule="evenodd" fill-opacity="1" /><path clip-path="url(#clip710)" d="M32.4621 706.773 Q32.4621 711.483 36.1542 714.22 Q39.8145 716.958 46.212 716.958 Q52.6095 716.958 56.3017 714.252 Q59.9619 711.515 59.9619 706.773 Q59.9619 702.094 56.2698 699.356 Q52.5777 696.619 46.212 696.619 Q39.8781 696.619 36.186 699.356 Q32.4621 702.094 32.4621 706.773 M27.4968 706.773 Q27.4968 699.134 32.4621 694.773 Q37.4273 690.413 46.212 690.413 Q54.9649 690.413 59.9619 694.773 Q64.9272 699.134 64.9272 706.773 Q64.9272 714.443 59.9619 718.804 Q54.9649 723.132 46.212 723.132 Q37.4273 723.132 32.4621 718.804 Q27.4968 714.443 27.4968 706.773 Z" fill="#000000" fill-rule="evenodd" fill-opacity="1" /><path clip-path="url(#clip710)" d="M1137.63 17.6457 Q1128.72 17.6457 1123.45 24.2892 Q1118.23 30.9327 1118.23 42.3968 Q1118.23 53.8203 1123.45 60.4638 Q1128.72 67.1073 1137.63 67.1073 Q1146.54 67.1073 1151.73 60.4638 Q1156.95 53.8203 1156.95 42.3968 Q1156.95 30.9327 1151.73 24.2892 Q1146.54 17.6457 1137.63 17.6457 M1149.1 71.4823 L1159.87 83.2704 L1149.99 83.2704 L1141.03 73.5887 Q1139.7 73.6697 1138.97 73.7103 Q1138.28 73.7508 1137.63 73.7508 Q1124.87 73.7508 1117.21 65.2439 Q1109.6 56.6965 1109.6 42.3968 Q1109.6 28.0566 1117.21 19.5497 Q1124.87 11.0023 1137.63 11.0023 Q1150.35 11.0023 1157.97 19.5497 Q1165.58 28.0566 1165.58 42.3968 Q1165.58 52.9291 1161.33 60.4233 Q1157.12 67.9175 1149.1 71.4823 Z" fill="#000000" fill-rule="evenodd" fill-opacity="1" /><path clip-path="url(#clip710)" d="M1205.4 34.9026 L1257.34 34.9026 L1257.34 41.7081 L1205.4 41.7081 L1205.4 34.9026 M1205.4 51.4303 L1257.34 51.4303 L1257.34 58.3168 L1205.4 58.3168 L1205.4 51.4303 Z" fill="#000000" fill-rule="evenodd" fill-opacity="1" /><path clip-path="url(#clip710)" d="M1318.87 17.4837 Q1312.55 17.4837 1309.35 23.7221 Q1306.19 29.92 1306.19 42.3968 Q1306.19 54.833 1309.35 61.0714 Q1312.55 67.2693 1318.87 67.2693 Q1325.23 67.2693 1328.39 61.0714 Q1331.59 54.833 1331.59 42.3968 Q1331.59 29.92 1328.39 23.7221 Q1325.23 17.4837 1318.87 17.4837 M1318.87 11.0023 Q1329.04 11.0023 1334.38 19.0636 Q1339.77 27.0843 1339.77 42.3968 Q1339.77 57.6687 1334.38 65.73 Q1329.04 73.7508 1318.87 73.7508 Q1308.7 73.7508 1303.31 65.73 Q1297.97 57.6687 1297.97 42.3968 Q1297.97 27.0843 1303.31 19.0636 Q1308.7 11.0023 1318.87 11.0023 Z" fill="#000000" fill-rule="evenodd" fill-opacity="1" /><path clip-path="url(#clip710)" d="M1354.15 62.2867 L1362.7 62.2867 L1362.7 72.576 L1354.15 72.576 L1354.15 62.2867 Z" fill="#000000" fill-rule="evenodd" fill-opacity="1" /><path clip-path="url(#clip710)" d="M1380.77 71.3202 L1380.77 63.8666 Q1383.85 65.3249 1387 66.0946 Q1390.16 66.8642 1393.2 66.8642 Q1401.3 66.8642 1405.56 61.436 Q1409.85 55.9673 1410.46 44.8678 Q1408.11 48.3516 1404.5 50.215 Q1400.9 52.0784 1396.52 52.0784 Q1387.45 52.0784 1382.14 46.6097 Q1376.88 41.1005 1376.88 31.5808 Q1376.88 22.2638 1382.39 16.633 Q1387.9 11.0023 1397.05 11.0023 Q1407.54 11.0023 1413.05 19.0636 Q1418.6 27.0843 1418.6 42.3968 Q1418.6 56.6965 1411.8 65.2439 Q1405.03 73.7508 1393.57 73.7508 Q1390.49 73.7508 1387.33 73.1431 Q1384.17 72.5355 1380.77 71.3202 M1397.05 45.678 Q1402.56 45.678 1405.76 41.9107 Q1409 38.1433 1409 31.5808 Q1409 25.0589 1405.76 21.2916 Q1402.56 17.4837 1397.05 17.4837 Q1391.54 17.4837 1388.3 21.2916 Q1385.1 25.0589 1385.1 31.5808 Q1385.1 38.1433 1388.3 41.9107 Q1391.54 45.678 1397.05 45.678 Z" fill="#000000" fill-rule="evenodd" fill-opacity="1" /><polyline clip-path="url(#clip712)" style="stroke:#000000; stroke-linecap:round; stroke-linejoin:round; stroke-width:4.8; stroke-opacity:1; fill:none" stroke-dasharray="19, 12" points="237.067,663.265 237.071,663.265 237.075,663.265 237.081,663.266 237.088,663.267 237.097,663.268 237.109,663.269 237.123,663.27 237.142,663.272 237.166,663.275 237.197,663.278 237.236,663.282 237.286,663.287 237.35,663.294 237.43,663.303 237.533,663.313 237.665,663.327 237.832,663.345 238.045,663.367 238.317,663.395 238.663,663.432 239.104,663.478 239.665,663.537 240.38,663.612 241.291,663.707 242.45,663.828 243.925,663.983 245.802,664.18 248.189,664.43 251.222,664.748 255.075,665.151 259.963,665.664 266.159,666.314 274,667.136 283.904,668.176 296.385,669.486 312.067,671.134 331.698,673.199 356.156,675.774 386.454,678.967 423.715,682.899 469.136,687.701 523.913,693.5 589.12,700.414 665.556,708.528 753.55,717.869 852.77,728.381 962.063,739.898 1079.4,752.119 1201.93,764.604 1326.27,776.787 1448.81,787.995 1566.14,797.501 1675.43,804.564 1774.65,808.472 1862.65,808.568 1939.08,804.267 2004.29,795.043 2059.06,780.421 2104.49,759.948 2141.75,733.17 2172.04,699.6 2196.5,658.702 2216.13,609.858 2231.82,552.358 2244.3,485.372 2254.2,407.941 2262.04,318.952 2268.24,217.125 2273.13,100.991 2276.98,-31.1292 2280.01,-181.147 2282.4,-351.235 2284.28,-543.854 2285.75,-761.786 2286.91,-1008.17 2287.82,-1286.53 2288.54,-1600.84 2289.1,-1955.54 2289.54,-2355.6 2289.88,-2806.53 2290.16,-3314.44 2290.37,-3886.07 2290.54,-4528.77 2290.67,-5250.5 2290.77,-6059.73 2290.85,-6965.37 2290.92,-7976.51 2290.96,-9102.11 2291,-10350.5 2291.03,-11728.8 2291.06,-13242 2291.08,-14891.7 2291.09,-16675.3 "/>
<polyline clip-path="url(#clip712)" style="stroke:#000000; stroke-linecap:round; stroke-linejoin:round; stroke-width:4.8; stroke-opacity:1; fill:none" points="237.067,1029.13 237.071,1029.13 237.075,1029.13 237.081,1029.13 237.088,1029.13 237.097,1029.13 237.109,1029.13 237.123,1029.14 237.142,1029.14 237.166,1029.14 237.197,1029.14 237.236,1029.15 237.286,1029.15 237.35,1029.16 237.43,1029.17 237.533,1029.18 237.665,1029.2 237.832,1029.21 238.045,1029.24 238.317,1029.27 238.663,1029.3 239.104,1029.35 239.665,1029.41 240.38,1029.49 241.291,1029.59 242.45,1029.72 243.925,1029.88 245.802,1030.08 248.189,1030.34 251.222,1030.67 255.075,1031.09 259.963,1031.62 266.159,1032.3 274,1033.16 283.904,1034.24 296.385,1035.61 312.067,1037.33 331.698,1039.5 356.156,1042.21 386.454,1045.58 423.715,1049.75 469.136,1054.88 523.913,1061.12 589.12,1068.64 665.556,1077.58 753.55,1088.05 852.77,1100.08 962.063,1113.65 1079.4,1128.57 1201.93,1144.56 1326.27,1161.17 1448.81,1177.84 1566.14,1193.88 1675.43,1208.53 1774.65,1221.04 1862.65,1230.78 1939.08,1237.35 2004.29,1240.6 2059.06,1240.57 2104.49,1237.45 2141.75,1231.43 2172.04,1222.64 2196.5,1211.17 2216.13,1197.02 2231.82,1180.11 2244.3,1160.29 2254.2,1137.36 2262.04,1111.06 2268.24,1081.03 2273.13,1046.9 2276.98,1008.18 2280.01,964.356 2282.4,914.8 2284.28,858.815 2285.75,795.607 2286.91,724.277 2287.82,-184064 2288.54,-184064 2289.1,-184064 2289.54,-184064 2289.88,-184064 2290.16,-184064 2290.37,-184064 2290.54,-184064 2290.67,-184064 2290.77,-184064 2290.85,-184064 2290.92,-184064 2290.96,-184064 2291,-184064 2291.03,-184064 2291.06,-184064 2291.08,-184064 2291.09,-184064 2291.1,-184064 2291.11,-184064 2291.12,-184064 2291.13,-184064 2291.13,-184064 2291.13,-184064 "/>
<path clip-path="url(#clip710)" d="M248.022 322.316 L634.549 322.316 L634.549 166.796 L248.022 166.796  Z" fill="#ffffff" fill-rule="evenodd" fill-opacity="0"/>
<polyline clip-path="url(#clip710)" style="stroke:#000000; stroke-linecap:round; stroke-linejoin:round; stroke-width:4; stroke-opacity:1; fill:none" points="248.022,322.316 634.549,322.316 634.549,166.796 248.022,166.796 248.022,322.316 "/>
<polyline clip-path="url(#clip710)" style="stroke:#000000; stroke-linecap:round; stroke-linejoin:round; stroke-width:4.8; stroke-opacity:1; fill:none" stroke-dasharray="19, 12" points="272.215,218.636 417.369,218.636 "/>
<path clip-path="url(#clip710)" d="M454.964 222.883 Q449.802 222.883 447.811 224.064 Q445.82 225.244 445.82 228.092 Q445.82 230.36 447.302 231.703 Q448.806 233.022 451.376 233.022 Q454.917 233.022 457.047 230.522 Q459.2 227.999 459.2 223.832 L459.2 222.883 L454.964 222.883 M463.459 221.124 L463.459 235.916 L459.2 235.916 L459.2 231.981 Q457.741 234.342 455.566 235.476 Q453.39 236.587 450.241 236.587 Q446.26 236.587 443.899 234.365 Q441.561 232.119 441.561 228.369 Q441.561 223.994 444.478 221.772 Q447.417 219.55 453.228 219.55 L459.2 219.55 L459.2 219.133 Q459.2 216.194 457.255 214.596 Q455.334 212.976 451.839 212.976 Q449.616 212.976 447.51 213.508 Q445.404 214.041 443.459 215.106 L443.459 211.17 Q445.797 210.268 447.996 209.828 Q450.195 209.365 452.278 209.365 Q457.903 209.365 460.681 212.282 Q463.459 215.198 463.459 221.124 Z" fill="#000000" fill-rule="evenodd" fill-opacity="1" /><path clip-path="url(#clip710)" d="M487.857 214.388 L517.533 214.388 L517.533 218.277 L487.857 218.277 L487.857 214.388 M487.857 223.832 L517.533 223.832 L517.533 227.768 L487.857 227.768 L487.857 223.832 Z" fill="#000000" fill-rule="evenodd" fill-opacity="1" /><path clip-path="url(#clip710)" d="M552.695 204.434 Q549.084 204.434 547.255 207.999 Q545.449 211.541 545.449 218.67 Q545.449 225.777 547.255 229.342 Q549.084 232.883 552.695 232.883 Q556.329 232.883 558.134 229.342 Q559.963 225.777 559.963 218.67 Q559.963 211.541 558.134 207.999 Q556.329 204.434 552.695 204.434 M552.695 200.731 Q558.505 200.731 561.56 205.337 Q564.639 209.92 564.639 218.67 Q564.639 227.397 561.56 232.004 Q558.505 236.587 552.695 236.587 Q546.884 236.587 543.806 232.004 Q540.75 227.397 540.75 218.67 Q540.75 209.92 543.806 205.337 Q546.884 200.731 552.695 200.731 Z" fill="#000000" fill-rule="evenodd" fill-opacity="1" /><path clip-path="url(#clip710)" d="M572.857 230.036 L577.741 230.036 L577.741 235.916 L572.857 235.916 L572.857 230.036 Z" fill="#000000" fill-rule="evenodd" fill-opacity="1" /><path clip-path="url(#clip710)" d="M597.926 204.434 Q594.315 204.434 592.486 207.999 Q590.681 211.541 590.681 218.67 Q590.681 225.777 592.486 229.342 Q594.315 232.883 597.926 232.883 Q601.56 232.883 603.366 229.342 Q605.194 225.777 605.194 218.67 Q605.194 211.541 603.366 207.999 Q601.56 204.434 597.926 204.434 M597.926 200.731 Q603.736 200.731 606.792 205.337 Q609.87 209.92 609.87 218.67 Q609.87 227.397 606.792 232.004 Q603.736 236.587 597.926 236.587 Q592.116 236.587 589.037 232.004 Q585.981 227.397 585.981 218.67 Q585.981 209.92 589.037 205.337 Q592.116 200.731 597.926 200.731 Z" fill="#000000" fill-rule="evenodd" fill-opacity="1" /><polyline clip-path="url(#clip710)" style="stroke:#000000; stroke-linecap:round; stroke-linejoin:round; stroke-width:4.8; stroke-opacity:1; fill:none" points="272.215,270.476 417.369,270.476 "/>
<path clip-path="url(#clip710)" d="M454.964 274.723 Q449.802 274.723 447.811 275.904 Q445.82 277.084 445.82 279.932 Q445.82 282.2 447.302 283.543 Q448.806 284.862 451.376 284.862 Q454.917 284.862 457.047 282.362 Q459.2 279.839 459.2 275.672 L459.2 274.723 L454.964 274.723 M463.459 272.964 L463.459 287.756 L459.2 287.756 L459.2 283.821 Q457.741 286.182 455.566 287.316 Q453.39 288.427 450.241 288.427 Q446.26 288.427 443.899 286.205 Q441.561 283.959 441.561 280.209 Q441.561 275.834 444.478 273.612 Q447.417 271.39 453.228 271.39 L459.2 271.39 L459.2 270.973 Q459.2 268.034 457.255 266.436 Q455.334 264.816 451.839 264.816 Q449.616 264.816 447.51 265.348 Q445.404 265.881 443.459 266.946 L443.459 263.01 Q445.797 262.108 447.996 261.668 Q450.195 261.205 452.278 261.205 Q457.903 261.205 460.681 264.122 Q463.459 267.038 463.459 272.964 Z" fill="#000000" fill-rule="evenodd" fill-opacity="1" /><path clip-path="url(#clip710)" d="M487.857 266.228 L517.533 266.228 L517.533 270.117 L487.857 270.117 L487.857 266.228 M487.857 275.672 L517.533 275.672 L517.533 279.608 L487.857 279.608 L487.857 275.672 Z" fill="#000000" fill-rule="evenodd" fill-opacity="1" /><path clip-path="url(#clip710)" d="M552.695 256.274 Q549.084 256.274 547.255 259.839 Q545.449 263.381 545.449 270.51 Q545.449 277.617 547.255 281.182 Q549.084 284.723 552.695 284.723 Q556.329 284.723 558.134 281.182 Q559.963 277.617 559.963 270.51 Q559.963 263.381 558.134 259.839 Q556.329 256.274 552.695 256.274 M552.695 252.571 Q558.505 252.571 561.56 257.177 Q564.639 261.76 564.639 270.51 Q564.639 279.237 561.56 283.844 Q558.505 288.427 552.695 288.427 Q546.884 288.427 543.806 283.844 Q540.75 279.237 540.75 270.51 Q540.75 261.76 543.806 257.177 Q546.884 252.571 552.695 252.571 Z" fill="#000000" fill-rule="evenodd" fill-opacity="1" /><path clip-path="url(#clip710)" d="M572.857 281.876 L577.741 281.876 L577.741 287.756 L572.857 287.756 L572.857 281.876 Z" fill="#000000" fill-rule="evenodd" fill-opacity="1" /><path clip-path="url(#clip710)" d="M600.773 257.27 L588.968 275.719 L600.773 275.719 L600.773 257.27 M599.546 253.196 L605.426 253.196 L605.426 275.719 L610.356 275.719 L610.356 279.608 L605.426 279.608 L605.426 287.756 L600.773 287.756 L600.773 279.608 L585.171 279.608 L585.171 275.094 L599.546 253.196 Z" fill="#000000" fill-rule="evenodd" fill-opacity="1" /></svg>
