<?xml version="1.0" encoding="utf-8"?>
<svg xmlns="http://www.w3.org/2000/svg" xmlns:xlink="http://www.w3.org/1999/xlink" width="600" height="400" viewBox="0 0 2400 1600">
<defs>
  <clipPath id="clip690">
    <rect x="0" y="0" width="2400" height="1600"/>
  </clipPath>
</defs>
<path clip-path="url(#clip690)" d="M0 1600 L2400 1600 L2400 0 L0 0  Z" fill="#ffffff" fill-rule="evenodd" fill-opacity="0"/>
<defs>
  <clipPath id="clip691">
    <rect x="480" y="0" width="1681" height="1600"/>
  </clipPath>
</defs>
<path clip-path="url(#clip690)" d="M250.028 1423.18 L2352.76 1423.18 L2352.76 47.2441 L250.028 47.2441  Z" fill="#ffffff" fill-rule="evenodd" fill-opacity="0"/>
<defs>
  <clipPath id="clip692">
    <rect x="250" y="47" width="2104" height="1377"/>
  </clipPath>
</defs>
<polyline clip-path="url(#clip692)" style="stroke:#000000; stroke-linecap:round; stroke-linejoin:round; stroke-width:2; stroke-opacity:0.1; fill:none" points="557.502,1423.18 557.502,47.2441 "/>
<polyline clip-path="url(#clip692)" style="stroke:#000000; stroke-linecap:round; stroke-linejoin:round; stroke-width:2; stroke-opacity:0.1; fill:none" points="970.774,1423.18 970.774,47.2441 "/>
<polyline clip-path="url(#clip692)" style="stroke:#000000; stroke-linecap:round; stroke-linejoin:round; stroke-width:2; stroke-opacity:0.1; fill:none" points="1384.05,1423.18 1384.05,47.2441 "/>
<polyline clip-path="url(#clip692)" style="stroke:#000000; stroke-linecap:round; stroke-linejoin:round; stroke-width:2; stroke-opacity:0.1; fill:none" points="1797.32,1423.18 1797.32,47.2441 "/>
<polyline clip-path="url(#clip692)" style="stroke:#000000; stroke-linecap:round; stroke-linejoin:round; stroke-width:2; stroke-opacity:0.1; fill:none" points="2210.59,1423.18 2210.59,47.2441 "/>
<polyline clip-path="url(#clip690)" style="stroke:#000000; stroke-linecap:round; stroke-linejoin:round; stroke-width:4; stroke-opacity:1; fill:none" points="250.028,1423.18 2352.76,1423.18 "/>
<polyline clip-path="url(#clip690)" style="stroke:#000000; stroke-linecap:round; stroke-linejoin:round; stroke-width:4; stroke-opacity:1; fill:none" points="557.502,1423.18 557.502,1404.28 "/>
<polyline clip-path="url(#clip690)" style="stroke:#000000; stroke-linecap:round; stroke-linejoin:round; stroke-width:4; stroke-opacity:1; fill:none" points="970.774,1423.18 970.774,1404.28 "/>
<polyline clip-path="url(#clip690)" style="stroke:#000000; stroke-linecap:round; stroke-linejoin:round; stroke-width:4; stroke-opacity:1; fill:none" points="1384.05,1423.18 1384.05,1404.28 "/>
<polyline clip-path="url(#clip690)" style="stroke:#000000; stroke-linecap:round; stroke-linejoin:round; stroke-width:4; stroke-opacity:1; fill:none" points="1797.32,1423.18 1797.32,1404.28 "/>
<polyline clip-path="url(#clip690)" style="stroke:#000000; stroke-linecap:round; stroke-linejoin:round; stroke-width:4; stroke-opacity:1; fill:none" points="2210.59,1423.18 2210.59,1404.28 "/>
<path clip-path="url(#clip690)" d="M520.304 1454.1 Q516.693 1454.1 514.864 1457.66 Q513.058 1461.2 513.058 1468.33 Q513.058 1475.44 514.864 1479.01 Q516.693 1482.55 520.304 1482.55 Q523.938 1482.55 525.743 1479.01 Q527.572 1475.44 527.572 1468.33 Q527.572 1461.2 525.743 1457.66 Q523.938 1454.1 520.304 1454.1 M520.304 1450.39 Q526.114 1450.39 529.169 1455 Q532.248 1459.58 532.248 1468.33 Q532.248 1477.06 529.169 1481.67 Q526.114 1486.25 520.304 1486.25 Q514.493 1486.25 511.415 1481.67 Q508.359 1477.06 508.359 1468.33 Q508.359 1459.58 511.415 1455 Q514.493 1450.39 520.304 1450.39 Z" fill="#000000" fill-rule="evenodd" fill-opacity="1" /><path clip-path="url(#clip690)" d="M540.466 1479.7 L545.35 1479.7 L545.35 1485.58 L540.466 1485.58 L540.466 1479.7 Z" fill="#000000" fill-rule="evenodd" fill-opacity="1" /><path clip-path="url(#clip690)" d="M559.563 1481.64 L575.882 1481.64 L575.882 1485.58 L553.938 1485.58 L553.938 1481.64 Q556.6 1478.89 561.183 1474.26 Q565.789 1469.61 566.97 1468.27 Q569.215 1465.74 570.095 1464.01 Q570.998 1462.25 570.998 1460.56 Q570.998 1457.8 569.053 1456.07 Q567.132 1454.33 564.03 1454.33 Q561.831 1454.33 559.377 1455.09 Q556.947 1455.86 554.169 1457.41 L554.169 1452.69 Q556.993 1451.55 559.447 1450.97 Q561.901 1450.39 563.938 1450.39 Q569.308 1450.39 572.502 1453.08 Q575.697 1455.77 575.697 1460.26 Q575.697 1462.39 574.887 1464.31 Q574.1 1466.2 571.993 1468.8 Q571.414 1469.47 568.313 1472.69 Q565.211 1475.88 559.563 1481.64 Z" fill="#000000" fill-rule="evenodd" fill-opacity="1" /><path clip-path="url(#clip690)" d="M585.743 1451.02 L604.099 1451.02 L604.099 1454.96 L590.025 1454.96 L590.025 1463.43 Q591.044 1463.08 592.062 1462.92 Q593.081 1462.73 594.1 1462.73 Q599.887 1462.73 603.266 1465.9 Q606.646 1469.08 606.646 1474.49 Q606.646 1480.07 603.174 1483.17 Q599.701 1486.25 593.382 1486.25 Q591.206 1486.25 588.938 1485.88 Q586.692 1485.51 584.285 1484.77 L584.285 1480.07 Q586.368 1481.2 588.59 1481.76 Q590.812 1482.32 593.289 1482.32 Q597.294 1482.32 599.632 1480.21 Q601.97 1478.1 601.97 1474.49 Q601.97 1470.88 599.632 1468.77 Q597.294 1466.67 593.289 1466.67 Q591.414 1466.67 589.539 1467.08 Q587.688 1467.5 585.743 1468.38 L585.743 1451.02 Z" fill="#000000" fill-rule="evenodd" fill-opacity="1" /><path clip-path="url(#clip690)" d="M933.078 1454.1 Q929.467 1454.1 927.638 1457.66 Q925.833 1461.2 925.833 1468.33 Q925.833 1475.44 927.638 1479.01 Q929.467 1482.55 933.078 1482.55 Q936.712 1482.55 938.518 1479.01 Q940.346 1475.44 940.346 1468.33 Q940.346 1461.2 938.518 1457.66 Q936.712 1454.1 933.078 1454.1 M933.078 1450.39 Q938.888 1450.39 941.944 1455 Q945.022 1459.58 945.022 1468.33 Q945.022 1477.06 941.944 1481.67 Q938.888 1486.25 933.078 1486.25 Q927.268 1486.25 924.189 1481.67 Q921.134 1477.06 921.134 1468.33 Q921.134 1459.58 924.189 1455 Q927.268 1450.39 933.078 1450.39 Z" fill="#000000" fill-rule="evenodd" fill-opacity="1" /><path clip-path="url(#clip690)" d="M953.24 1479.7 L958.124 1479.7 L958.124 1485.58 L953.24 1485.58 L953.24 1479.7 Z" fill="#000000" fill-rule="evenodd" fill-opacity="1" /><path clip-path="url(#clip690)" d="M968.355 1451.02 L986.712 1451.02 L986.712 1454.96 L972.638 1454.96 L972.638 1463.43 Q973.656 1463.08 974.675 1462.92 Q975.693 1462.73 976.712 1462.73 Q982.499 1462.73 985.879 1465.9 Q989.258 1469.08 989.258 1474.49 Q989.258 1480.07 985.786 1483.17 Q982.314 1486.25 975.994 1486.25 Q973.818 1486.25 971.55 1485.88 Q969.305 1485.51 966.897 1484.77 L966.897 1480.07 Q968.98 1481.2 971.203 1481.76 Q973.425 1482.32 975.902 1482.32 Q979.906 1482.32 982.244 1480.21 Q984.582 1478.1 984.582 1474.49 Q984.582 1470.88 982.244 1468.77 Q979.906 1466.67 975.902 1466.67 Q974.027 1466.67 972.152 1467.08 Q970.3 1467.5 968.355 1468.38 L968.355 1451.02 Z" fill="#000000" fill-rule="evenodd" fill-opacity="1" /><path clip-path="url(#clip690)" d="M1008.47 1454.1 Q1004.86 1454.1 1003.03 1457.66 Q1001.23 1461.2 1001.23 1468.33 Q1001.23 1475.44 1003.03 1479.01 Q1004.86 1482.55 1008.47 1482.55 Q1012.11 1482.55 1013.91 1479.01 Q1015.74 1475.44 1015.74 1468.33 Q1015.74 1461.2 1013.91 1457.66 Q1012.11 1454.1 1008.47 1454.1 M1008.47 1450.39 Q1014.28 1450.39 1017.34 1455 Q1020.42 1459.58 1020.42 1468.33 Q1020.42 1477.06 1017.34 1481.67 Q1014.28 1486.25 1008.47 1486.25 Q1002.66 1486.25 999.582 1481.67 Q996.527 1477.06 996.527 1468.33 Q996.527 1459.58 999.582 1455 Q1002.66 1450.39 1008.47 1450.39 Z" fill="#000000" fill-rule="evenodd" fill-opacity="1" /><path clip-path="url(#clip690)" d="M1346.85 1454.1 Q1343.24 1454.1 1341.41 1457.66 Q1339.6 1461.2 1339.6 1468.33 Q1339.6 1475.44 1341.41 1479.01 Q1343.24 1482.55 1346.85 1482.55 Q1350.48 1482.55 1352.29 1479.01 Q1354.12 1475.44 1354.12 1468.33 Q1354.12 1461.2 1352.29 1457.66 Q1350.48 1454.1 1346.85 1454.1 M1346.85 1450.39 Q1352.66 1450.39 1355.71 1455 Q1358.79 1459.58 1358.79 1468.33 Q1358.79 1477.06 1355.71 1481.67 Q1352.66 1486.25 1346.85 1486.25 Q1341.04 1486.25 1337.96 1481.67 Q1334.9 1477.06 1334.9 1468.33 Q1334.9 1459.58 1337.96 1455 Q1341.04 1450.39 1346.85 1450.39 Z" fill="#000000" fill-rule="evenodd" fill-opacity="1" /><path clip-path="url(#clip690)" d="M1367.01 1479.7 L1371.89 1479.7 L1371.89 1485.58 L1367.01 1485.58 L1367.01 1479.7 Z" fill="#000000" fill-rule="evenodd" fill-opacity="1" /><path clip-path="url(#clip690)" d="M1380.9 1451.02 L1403.12 1451.02 L1403.12 1453.01 L1390.57 1485.58 L1385.69 1485.58 L1397.5 1454.96 L1380.9 1454.96 L1380.9 1451.02 Z" fill="#000000" fill-rule="evenodd" fill-opacity="1" /><path clip-path="url(#clip690)" d="M1412.29 1451.02 L1430.64 1451.02 L1430.64 1454.96 L1416.57 1454.96 L1416.57 1463.43 Q1417.59 1463.08 1418.61 1462.92 Q1419.62 1462.73 1420.64 1462.73 Q1426.43 1462.73 1429.81 1465.9 Q1433.19 1469.08 1433.19 1474.49 Q1433.19 1480.07 1429.72 1483.17 Q1426.25 1486.25 1419.93 1486.25 Q1417.75 1486.25 1415.48 1485.88 Q1413.24 1485.51 1410.83 1484.77 L1410.83 1480.07 Q1412.91 1481.2 1415.13 1481.76 Q1417.36 1482.32 1419.83 1482.32 Q1423.84 1482.32 1426.18 1480.21 Q1428.51 1478.1 1428.51 1474.49 Q1428.51 1470.88 1426.18 1468.77 Q1423.84 1466.67 1419.83 1466.67 Q1417.96 1466.67 1416.08 1467.08 Q1414.23 1467.5 1412.29 1468.38 L1412.29 1451.02 Z" fill="#000000" fill-rule="evenodd" fill-opacity="1" /><path clip-path="url(#clip690)" d="M1749.39 1481.64 L1757.03 1481.64 L1757.03 1455.28 L1748.72 1456.95 L1748.72 1452.69 L1756.98 1451.02 L1761.66 1451.02 L1761.66 1481.64 L1769.3 1481.64 L1769.3 1485.58 L1749.39 1485.58 L1749.39 1481.64 Z" fill="#000000" fill-rule="evenodd" fill-opacity="1" /><path clip-path="url(#clip690)" d="M1778.74 1479.7 L1783.63 1479.7 L1783.63 1485.58 L1778.74 1485.58 L1778.74 1479.7 Z" fill="#000000" fill-rule="evenodd" fill-opacity="1" /><path clip-path="url(#clip690)" d="M1803.81 1454.1 Q1800.2 1454.1 1798.37 1457.66 Q1796.57 1461.2 1796.57 1468.33 Q1796.57 1475.44 1798.37 1479.01 Q1800.2 1482.55 1803.81 1482.55 Q1807.45 1482.55 1809.25 1479.01 Q1811.08 1475.44 1811.08 1468.33 Q1811.08 1461.2 1809.25 1457.66 Q1807.45 1454.1 1803.81 1454.1 M1803.81 1450.39 Q1809.62 1450.39 1812.68 1455 Q1815.76 1459.58 1815.76 1468.33 Q1815.76 1477.06 1812.68 1481.67 Q1809.62 1486.25 1803.81 1486.25 Q1798 1486.25 1794.92 1481.67 Q1791.87 1477.06 1791.87 1468.33 Q1791.87 1459.58 1794.92 1455 Q1798 1450.39 1803.81 1450.39 Z" fill="#000000" fill-rule="evenodd" fill-opacity="1" /><path clip-path="url(#clip690)" d="M1833.97 1454.1 Q1830.36 1454.1 1828.53 1457.66 Q1826.73 1461.2 1826.73 1468.33 Q1826.73 1475.44 1828.53 1479.01 Q1830.36 1482.55 1833.97 1482.55 Q1837.61 1482.55 1839.41 1479.01 Q1841.24 1475.44 1841.24 1468.33 Q1841.24 1461.2 1839.41 1457.66 Q1837.61 1454.1 1833.97 1454.1 M1833.97 1450.39 Q1839.78 1450.39 1842.84 1455 Q1845.92 1459.58 1845.92 1468.33 Q1845.92 1477.06 1842.84 1481.67 Q1839.78 1486.25 1833.97 1486.25 Q1828.16 1486.25 1825.08 1481.67 Q1822.03 1477.06 1822.03 1468.33 Q1822.03 1459.58 1825.08 1455 Q1828.16 1450.39 1833.97 1450.39 Z" fill="#000000" fill-rule="evenodd" fill-opacity="1" /><path clip-path="url(#clip690)" d="M2163.16 1481.64 L2170.8 1481.64 L2170.8 1455.28 L2162.49 1456.95 L2162.49 1452.69 L2170.75 1451.02 L2175.43 1451.02 L2175.43 1481.64 L2183.07 1481.64 L2183.07 1485.58 L2163.16 1485.58 L2163.16 1481.64 Z" fill="#000000" fill-rule="evenodd" fill-opacity="1" /><path clip-path="url(#clip690)" d="M2192.51 1479.7 L2197.4 1479.7 L2197.4 1485.58 L2192.51 1485.58 L2192.51 1479.7 Z" fill="#000000" fill-rule="evenodd" fill-opacity="1" /><path clip-path="url(#clip690)" d="M2211.61 1481.64 L2227.93 1481.64 L2227.93 1485.58 L2205.98 1485.58 L2205.98 1481.64 Q2208.65 1478.89 2213.23 1474.26 Q2217.84 1469.61 2219.02 1468.27 Q2221.26 1465.74 2222.14 1464.01 Q2223.04 1462.25 2223.04 1460.56 Q2223.04 1457.8 2221.1 1456.07 Q2219.18 1454.33 2216.08 1454.33 Q2213.88 1454.33 2211.42 1455.09 Q2208.99 1455.86 2206.22 1457.41 L2206.22 1452.69 Q2209.04 1451.55 2211.49 1450.97 Q2213.95 1450.39 2215.98 1450.39 Q2221.35 1450.39 2224.55 1453.08 Q2227.74 1455.77 2227.74 1460.26 Q2227.74 1462.39 2226.93 1464.31 Q2226.15 1466.2 2224.04 1468.8 Q2223.46 1469.47 2220.36 1472.69 Q2217.26 1475.88 2211.61 1481.64 Z" fill="#000000" fill-rule="evenodd" fill-opacity="1" /><path clip-path="url(#clip690)" d="M2237.79 1451.02 L2256.15 1451.02 L2256.15 1454.96 L2242.07 1454.96 L2242.07 1463.43 Q2243.09 1463.08 2244.11 1462.92 Q2245.13 1462.73 2246.15 1462.73 Q2251.93 1462.73 2255.31 1465.9 Q2258.69 1469.08 2258.69 1474.49 Q2258.69 1480.07 2255.22 1483.17 Q2251.75 1486.25 2245.43 1486.25 Q2243.25 1486.25 2240.98 1485.88 Q2238.74 1485.51 2236.33 1484.77 L2236.33 1480.07 Q2238.41 1481.2 2240.64 1481.76 Q2242.86 1482.32 2245.34 1482.32 Q2249.34 1482.32 2251.68 1480.21 Q2254.02 1478.1 2254.02 1474.49 Q2254.02 1470.88 2251.68 1468.77 Q2249.34 1466.67 2245.34 1466.67 Q2243.46 1466.67 2241.59 1467.08 Q2239.73 1467.5 2237.79 1468.38 L2237.79 1451.02 Z" fill="#000000" fill-rule="evenodd" fill-opacity="1" /><path clip-path="url(#clip690)" d="M1311.47 1549.81 Q1311.47 1543.44 1308.82 1539.94 Q1306.21 1536.44 1301.47 1536.44 Q1296.76 1536.44 1294.12 1539.94 Q1291.51 1543.44 1291.51 1549.81 Q1291.51 1556.14 1294.12 1559.64 Q1296.76 1563.14 1301.47 1563.14 Q1306.21 1563.14 1308.82 1559.64 Q1311.47 1556.14 1311.47 1549.81 M1317.32 1563.62 Q1317.32 1572.72 1313.28 1577.15 Q1309.24 1581.6 1300.9 1581.6 Q1297.81 1581.6 1295.07 1581.13 Q1292.34 1580.68 1289.76 1579.72 L1289.76 1574.03 Q1292.34 1575.43 1294.85 1576.1 Q1297.37 1576.76 1299.98 1576.76 Q1305.74 1576.76 1308.6 1573.74 Q1311.47 1570.75 1311.47 1564.67 L1311.47 1561.77 Q1309.65 1564.92 1306.82 1566.48 Q1303.99 1568.04 1300.04 1568.04 Q1293.48 1568.04 1289.47 1563.05 Q1285.46 1558.05 1285.46 1549.81 Q1285.46 1541.53 1289.47 1536.53 Q1293.48 1531.54 1300.04 1531.54 Q1303.99 1531.54 1306.82 1533.1 Q1309.65 1534.66 1311.47 1537.81 L1311.47 1532.4 L1317.32 1532.4 L1317.32 1563.62 Z" fill="#000000" fill-rule="evenodd" fill-opacity="1" /><polyline clip-path="url(#clip692)" style="stroke:#000000; stroke-linecap:round; stroke-linejoin:round; stroke-width:2; stroke-opacity:0.1; fill:none" points="250.028,1384.24 2352.76,1384.24 "/>
<polyline clip-path="url(#clip692)" style="stroke:#000000; stroke-linecap:round; stroke-linejoin:round; stroke-width:2; stroke-opacity:0.1; fill:none" points="250.028,1057.84 2352.76,1057.84 "/>
<polyline clip-path="url(#clip692)" style="stroke:#000000; stroke-linecap:round; stroke-linejoin:round; stroke-width:2; stroke-opacity:0.1; fill:none" points="250.028,731.439 2352.76,731.439 "/>
<polyline clip-path="url(#clip692)" style="stroke:#000000; stroke-linecap:round; stroke-linejoin:round; stroke-width:2; stroke-opacity:0.1; fill:none" points="250.028,405.039 2352.76,405.039 "/>
<polyline clip-path="url(#clip692)" style="stroke:#000000; stroke-linecap:round; stroke-linejoin:round; stroke-width:2; stroke-opacity:0.1; fill:none" points="250.028,78.6388 2352.76,78.6388 "/>
<polyline clip-path="url(#clip690)" style="stroke:#000000; stroke-linecap:round; stroke-linejoin:round; stroke-width:4; stroke-opacity:1; fill:none" points="250.028,1423.18 250.028,47.2441 "/>
<polyline clip-path="url(#clip690)" style="stroke:#000000; stroke-linecap:round; stroke-linejoin:round; stroke-width:4; stroke-opacity:1; fill:none" points="250.028,1384.24 268.926,1384.24 "/>
<polyline clip-path="url(#clip690)" style="stroke:#000000; stroke-linecap:round; stroke-linejoin:round; stroke-width:4; stroke-opacity:1; fill:none" points="250.028,1057.84 268.926,1057.84 "/>
<polyline clip-path="url(#clip690)" style="stroke:#000000; stroke-linecap:round; stroke-linejoin:round; stroke-width:4; stroke-opacity:1; fill:none" points="250.028,731.439 268.926,731.439 "/>
<polyline clip-path="url(#clip690)" style="stroke:#000000; stroke-linecap:round; stroke-linejoin:round; stroke-width:4; stroke-opacity:1; fill:none" points="250.028,405.039 268.926,405.039 "/>
<polyline clip-path="url(#clip690)" style="stroke:#000000; stroke-linecap:round; stroke-linejoin:round; stroke-width:4; stroke-opacity:1; fill:none" points="250.028,78.6388 268.926,78.6388 "/>
<path clip-path="url(#clip690)" d="M126.691 1370.04 Q123.08 1370.04 121.251 1373.6 Q119.445 1377.14 119.445 1384.27 Q119.445 1391.38 121.251 1394.94 Q123.08 1398.49 126.691 1398.49 Q130.325 1398.49 132.13 1394.94 Q133.959 1391.38 133.959 1384.27 Q133.959 1377.14 132.13 1373.6 Q130.325 1370.04 126.691 1370.04 M126.691 1366.33 Q132.501 1366.33 135.556 1370.94 Q138.635 1375.52 138.635 1384.27 Q138.635 1393 135.556 1397.61 Q132.501 1402.19 126.691 1402.19 Q120.88 1402.19 117.802 1397.61 Q114.746 1393 114.746 1384.27 Q114.746 1375.52 117.802 1370.94 Q120.88 1366.33 126.691 1366.33 Z" fill="#000000" fill-rule="evenodd" fill-opacity="1" /><path clip-path="url(#clip690)" d="M146.853 1395.64 L151.737 1395.64 L151.737 1401.52 L146.853 1401.52 L146.853 1395.64 Z" fill="#000000" fill-rule="evenodd" fill-opacity="1" /><path clip-path="url(#clip690)" d="M171.922 1370.04 Q168.311 1370.04 166.482 1373.6 Q164.677 1377.14 164.677 1384.27 Q164.677 1391.38 166.482 1394.94 Q168.311 1398.49 171.922 1398.49 Q175.556 1398.49 177.362 1394.94 Q179.19 1391.38 179.19 1384.27 Q179.19 1377.14 177.362 1373.6 Q175.556 1370.04 171.922 1370.04 M171.922 1366.33 Q177.732 1366.33 180.788 1370.94 Q183.866 1375.52 183.866 1384.27 Q183.866 1393 180.788 1397.61 Q177.732 1402.19 171.922 1402.19 Q166.112 1402.19 163.033 1397.61 Q159.978 1393 159.978 1384.27 Q159.978 1375.52 163.033 1370.94 Q166.112 1366.33 171.922 1366.33 Z" fill="#000000" fill-rule="evenodd" fill-opacity="1" /><path clip-path="url(#clip690)" d="M202.084 1370.04 Q198.473 1370.04 196.644 1373.6 Q194.838 1377.14 194.838 1384.27 Q194.838 1391.38 196.644 1394.94 Q198.473 1398.49 202.084 1398.49 Q205.718 1398.49 207.524 1394.94 Q209.352 1391.38 209.352 1384.27 Q209.352 1377.14 207.524 1373.6 Q205.718 1370.04 202.084 1370.04 M202.084 1366.33 Q207.894 1366.33 210.949 1370.94 Q214.028 1375.52 214.028 1384.27 Q214.028 1393 210.949 1397.61 Q207.894 1402.19 202.084 1402.19 Q196.274 1402.19 193.195 1397.61 Q190.139 1393 190.139 1384.27 Q190.139 1375.52 193.195 1370.94 Q196.274 1366.33 202.084 1366.33 Z" fill="#000000" fill-rule="evenodd" fill-opacity="1" /><path clip-path="url(#clip690)" d="M127.917 1043.64 Q124.306 1043.64 122.478 1047.2 Q120.672 1050.74 120.672 1057.87 Q120.672 1064.98 122.478 1068.54 Q124.306 1072.09 127.917 1072.09 Q131.552 1072.09 133.357 1068.54 Q135.186 1064.98 135.186 1057.87 Q135.186 1050.74 133.357 1047.2 Q131.552 1043.64 127.917 1043.64 M127.917 1039.93 Q133.728 1039.93 136.783 1044.54 Q139.862 1049.12 139.862 1057.87 Q139.862 1066.6 136.783 1071.21 Q133.728 1075.79 127.917 1075.79 Q122.107 1075.79 119.029 1071.21 Q115.973 1066.6 115.973 1057.87 Q115.973 1049.12 119.029 1044.54 Q122.107 1039.93 127.917 1039.93 Z" fill="#000000" fill-rule="evenodd" fill-opacity="1" /><path clip-path="url(#clip690)" d="M148.079 1069.24 L152.964 1069.24 L152.964 1075.12 L148.079 1075.12 L148.079 1069.24 Z" fill="#000000" fill-rule="evenodd" fill-opacity="1" /><path clip-path="url(#clip690)" d="M173.149 1043.64 Q169.538 1043.64 167.709 1047.2 Q165.903 1050.74 165.903 1057.87 Q165.903 1064.98 167.709 1068.54 Q169.538 1072.09 173.149 1072.09 Q176.783 1072.09 178.589 1068.54 Q180.417 1064.98 180.417 1057.87 Q180.417 1050.74 178.589 1047.2 Q176.783 1043.64 173.149 1043.64 M173.149 1039.93 Q178.959 1039.93 182.014 1044.54 Q185.093 1049.12 185.093 1057.87 Q185.093 1066.6 182.014 1071.21 Q178.959 1075.79 173.149 1075.79 Q167.339 1075.79 164.26 1071.21 Q161.204 1066.6 161.204 1057.87 Q161.204 1049.12 164.26 1044.54 Q167.339 1039.93 173.149 1039.93 Z" fill="#000000" fill-rule="evenodd" fill-opacity="1" /><path clip-path="url(#clip690)" d="M194.121 1071.18 L201.76 1071.18 L201.76 1044.82 L193.45 1046.48 L193.45 1042.23 L201.713 1040.56 L206.389 1040.56 L206.389 1071.18 L214.028 1071.18 L214.028 1075.12 L194.121 1075.12 L194.121 1071.18 Z" fill="#000000" fill-rule="evenodd" fill-opacity="1" /><path clip-path="url(#clip690)" d="M128.288 717.237 Q124.677 717.237 122.848 720.802 Q121.043 724.344 121.043 731.473 Q121.043 738.58 122.848 742.144 Q124.677 745.686 128.288 745.686 Q131.922 745.686 133.728 742.144 Q135.556 738.58 135.556 731.473 Q135.556 724.344 133.728 720.802 Q131.922 717.237 128.288 717.237 M128.288 713.534 Q134.098 713.534 137.154 718.14 Q140.232 722.723 140.232 731.473 Q140.232 740.2 137.154 744.806 Q134.098 749.39 128.288 749.39 Q122.478 749.39 119.399 744.806 Q116.343 740.2 116.343 731.473 Q116.343 722.723 119.399 718.14 Q122.478 713.534 128.288 713.534 Z" fill="#000000" fill-rule="evenodd" fill-opacity="1" /><path clip-path="url(#clip690)" d="M148.45 742.839 L153.334 742.839 L153.334 748.719 L148.45 748.719 L148.45 742.839 Z" fill="#000000" fill-rule="evenodd" fill-opacity="1" /><path clip-path="url(#clip690)" d="M173.519 717.237 Q169.908 717.237 168.079 720.802 Q166.274 724.344 166.274 731.473 Q166.274 738.58 168.079 742.144 Q169.908 745.686 173.519 745.686 Q177.153 745.686 178.959 742.144 Q180.788 738.58 180.788 731.473 Q180.788 724.344 178.959 720.802 Q177.153 717.237 173.519 717.237 M173.519 713.534 Q179.329 713.534 182.385 718.14 Q185.463 722.723 185.463 731.473 Q185.463 740.2 182.385 744.806 Q179.329 749.39 173.519 749.39 Q167.709 749.39 164.63 744.806 Q161.575 740.2 161.575 731.473 Q161.575 722.723 164.63 718.14 Q167.709 713.534 173.519 713.534 Z" fill="#000000" fill-rule="evenodd" fill-opacity="1" /><path clip-path="url(#clip690)" d="M197.709 744.783 L214.028 744.783 L214.028 748.719 L192.084 748.719 L192.084 744.783 Q194.746 742.029 199.329 737.399 Q203.936 732.746 205.116 731.404 Q207.362 728.881 208.241 727.145 Q209.144 725.385 209.144 723.696 Q209.144 720.941 207.199 719.205 Q205.278 717.469 202.176 717.469 Q199.977 717.469 197.524 718.233 Q195.093 718.996 192.315 720.547 L192.315 715.825 Q195.139 714.691 197.593 714.112 Q200.047 713.534 202.084 713.534 Q207.454 713.534 210.649 716.219 Q213.843 718.904 213.843 723.395 Q213.843 725.524 213.033 727.445 Q212.246 729.344 210.139 731.936 Q209.561 732.607 206.459 735.825 Q203.357 739.019 197.709 744.783 Z" fill="#000000" fill-rule="evenodd" fill-opacity="1" /><path clip-path="url(#clip690)" d="M127.339 390.837 Q123.728 390.837 121.899 394.402 Q120.093 397.944 120.093 405.073 Q120.093 412.18 121.899 415.745 Q123.728 419.286 127.339 419.286 Q130.973 419.286 132.779 415.745 Q134.607 412.18 134.607 405.073 Q134.607 397.944 132.779 394.402 Q130.973 390.837 127.339 390.837 M127.339 387.134 Q133.149 387.134 136.204 391.74 Q139.283 396.323 139.283 405.073 Q139.283 413.8 136.204 418.407 Q133.149 422.99 127.339 422.99 Q121.529 422.99 118.45 418.407 Q115.394 413.8 115.394 405.073 Q115.394 396.323 118.45 391.74 Q121.529 387.134 127.339 387.134 Z" fill="#000000" fill-rule="evenodd" fill-opacity="1" /><path clip-path="url(#clip690)" d="M147.501 416.439 L152.385 416.439 L152.385 422.319 L147.501 422.319 L147.501 416.439 Z" fill="#000000" fill-rule="evenodd" fill-opacity="1" /><path clip-path="url(#clip690)" d="M172.57 390.837 Q168.959 390.837 167.13 394.402 Q165.325 397.944 165.325 405.073 Q165.325 412.18 167.13 415.745 Q168.959 419.286 172.57 419.286 Q176.204 419.286 178.01 415.745 Q179.839 412.18 179.839 405.073 Q179.839 397.944 178.01 394.402 Q176.204 390.837 172.57 390.837 M172.57 387.134 Q178.38 387.134 181.436 391.74 Q184.514 396.323 184.514 405.073 Q184.514 413.8 181.436 418.407 Q178.38 422.99 172.57 422.99 Q166.76 422.99 163.681 418.407 Q160.626 413.8 160.626 405.073 Q160.626 396.323 163.681 391.74 Q166.76 387.134 172.57 387.134 Z" fill="#000000" fill-rule="evenodd" fill-opacity="1" /><path clip-path="url(#clip690)" d="M206.899 403.684 Q210.255 404.402 212.13 406.671 Q214.028 408.939 214.028 412.272 Q214.028 417.388 210.51 420.189 Q206.991 422.99 200.51 422.99 Q198.334 422.99 196.019 422.55 Q193.727 422.133 191.274 421.277 L191.274 416.763 Q193.218 417.897 195.533 418.476 Q197.848 419.055 200.371 419.055 Q204.769 419.055 207.061 417.319 Q209.375 415.583 209.375 412.272 Q209.375 409.217 207.223 407.504 Q205.093 405.768 201.274 405.768 L197.246 405.768 L197.246 401.925 L201.459 401.925 Q204.908 401.925 206.737 400.559 Q208.565 399.171 208.565 396.578 Q208.565 393.916 206.667 392.504 Q204.792 391.069 201.274 391.069 Q199.352 391.069 197.153 391.485 Q194.954 391.902 192.315 392.782 L192.315 388.615 Q194.977 387.874 197.292 387.504 Q199.63 387.134 201.69 387.134 Q207.014 387.134 210.116 389.564 Q213.218 391.972 213.218 396.092 Q213.218 398.962 211.574 400.953 Q209.931 402.921 206.899 403.684 Z" fill="#000000" fill-rule="evenodd" fill-opacity="1" /><path clip-path="url(#clip690)" d="M126.205 64.4375 Q122.593 64.4375 120.765 68.0022 Q118.959 71.5439 118.959 78.6735 Q118.959 85.7799 120.765 89.3447 Q122.593 92.8864 126.205 92.8864 Q129.839 92.8864 131.644 89.3447 Q133.473 85.7799 133.473 78.6735 Q133.473 71.5439 131.644 68.0022 Q129.839 64.4375 126.205 64.4375 M126.205 60.7338 Q132.015 60.7338 135.07 65.3402 Q138.149 69.9235 138.149 78.6735 Q138.149 87.4003 135.07 92.0068 Q132.015 96.5901 126.205 96.5901 Q120.394 96.5901 117.316 92.0068 Q114.26 87.4003 114.26 78.6735 Q114.26 69.9235 117.316 65.3402 Q120.394 60.7338 126.205 60.7338 Z" fill="#000000" fill-rule="evenodd" fill-opacity="1" /><path clip-path="url(#clip690)" d="M146.366 90.0392 L151.251 90.0392 L151.251 95.9188 L146.366 95.9188 L146.366 90.0392 Z" fill="#000000" fill-rule="evenodd" fill-opacity="1" /><path clip-path="url(#clip690)" d="M171.436 64.4375 Q167.825 64.4375 165.996 68.0022 Q164.19 71.5439 164.19 78.6735 Q164.19 85.7799 165.996 89.3447 Q167.825 92.8864 171.436 92.8864 Q175.07 92.8864 176.876 89.3447 Q178.704 85.7799 178.704 78.6735 Q178.704 71.5439 176.876 68.0022 Q175.07 64.4375 171.436 64.4375 M171.436 60.7338 Q177.246 60.7338 180.301 65.3402 Q183.38 69.9235 183.38 78.6735 Q183.38 87.4003 180.301 92.0068 Q177.246 96.5901 171.436 96.5901 Q165.626 96.5901 162.547 92.0068 Q159.491 87.4003 159.491 78.6735 Q159.491 69.9235 162.547 65.3402 Q165.626 60.7338 171.436 60.7338 Z" fill="#000000" fill-rule="evenodd" fill-opacity="1" /><path clip-path="url(#clip690)" d="M204.445 65.4328 L192.639 83.8818 L204.445 83.8818 L204.445 65.4328 M203.218 61.3588 L209.098 61.3588 L209.098 83.8818 L214.028 83.8818 L214.028 87.7707 L209.098 87.7707 L209.098 95.9188 L204.445 95.9188 L204.445 87.7707 L188.843 87.7707 L188.843 83.2568 L203.218 61.3588 Z" fill="#000000" fill-rule="evenodd" fill-opacity="1" /><path clip-path="url(#clip690)" d="M14.479 785.883 L19.3487 785.883 L19.3487 791.485 Q19.3487 794.636 20.6219 795.877 Q21.895 797.087 25.2052 797.087 L28.3562 797.087 L28.3562 787.443 L32.9077 787.443 L32.9077 797.087 L64.0042 797.087 L64.0042 802.975 L32.9077 802.975 L32.9077 808.577 L28.3562 808.577 L28.3562 802.975 L25.8736 802.975 Q19.9216 802.975 17.2162 800.206 Q14.479 797.437 14.479 791.421 L14.479 785.883 Z" fill="#000000" fill-rule="evenodd" fill-opacity="1" /><path clip-path="url(#clip690)" d="M46.0847 744.06 Q46.0847 751.158 47.7079 753.895 Q49.3312 756.633 53.2461 756.633 Q56.3653 756.633 58.2114 754.596 Q60.0256 752.527 60.0256 748.994 Q60.0256 744.124 56.5881 741.196 Q53.1188 738.236 47.3897 738.236 L46.0847 738.236 L46.0847 744.06 M43.6657 732.379 L64.0042 732.379 L64.0042 738.236 L58.5933 738.236 Q61.8398 740.241 63.3994 743.233 Q64.9272 746.225 64.9272 750.553 Q64.9272 756.028 61.8716 759.274 Q58.7843 762.489 53.6281 762.489 Q47.6125 762.489 44.5569 758.479 Q41.5014 754.436 41.5014 746.447 L41.5014 738.236 L40.9285 738.236 Q36.8862 738.236 34.6901 740.909 Q32.4621 743.551 32.4621 748.357 Q32.4621 751.413 33.1941 754.309 Q33.9262 757.205 35.3903 759.879 L29.9795 759.879 Q28.7381 756.664 28.1334 753.641 Q27.4968 750.617 27.4968 747.752 Q27.4968 740.018 31.5072 736.199 Q35.5176 732.379 43.6657 732.379 Z" fill="#000000" fill-rule="evenodd" fill-opacity="1" /><path clip-path="url(#clip690)" d="M33.8307 699.659 Q33.2578 700.646 33.0032 701.824 Q32.7167 702.97 32.7167 704.37 Q32.7167 709.335 35.9632 712.009 Q39.1779 714.651 45.2253 714.651 L64.0042 714.651 L64.0042 720.539 L28.3562 720.539 L28.3562 714.651 L33.8944 714.651 Q30.6479 712.805 29.0883 709.845 Q27.4968 706.885 27.4968 702.651 Q27.4968 702.047 27.5923 701.315 Q27.656 700.583 27.8151 699.691 L33.8307 699.659 Z" fill="#000000" fill-rule="evenodd" fill-opacity="1" /><path clip-path="url(#clip690)" d="M46.212 667.926 Q39.7508 667.926 36.0905 670.6 Q32.3984 673.242 32.3984 677.889 Q32.3984 682.536 36.0905 685.209 Q39.7508 687.851 46.212 687.851 Q52.6732 687.851 56.3653 685.209 Q60.0256 682.536 60.0256 677.889 Q60.0256 673.242 56.3653 670.6 Q52.6732 667.926 46.212 667.926 M33.7671 687.851 Q30.5842 686.005 29.0564 683.204 Q27.4968 680.371 27.4968 676.456 Q27.4968 669.963 32.6531 665.921 Q37.8093 661.847 46.212 661.847 Q54.6147 661.847 59.771 665.921 Q64.9272 669.963 64.9272 676.456 Q64.9272 680.371 63.3994 683.204 Q61.8398 686.005 58.657 687.851 L64.0042 687.851 L64.0042 693.739 L14.479 693.739 L14.479 687.851 L33.7671 687.851 Z" fill="#000000" fill-rule="evenodd" fill-opacity="1" /><polyline clip-path="url(#clip692)" style="stroke:#000000; stroke-linecap:round; stroke-linejoin:round; stroke-width:4; stroke-opacity:1; fill:none" points="309.539,1384.24 319.508,1384.24 329.476,1384.24 339.444,1384.24 349.413,1384.24 359.381,1384.24 369.35,1384.24 379.318,1384.24 389.286,1384.24 399.255,1384.24 409.223,1384.24 419.191,1384.24 429.16,1384.24 439.128,1384.24 449.096,1384.24 459.065,1384.24 469.033,1384.24 479.002,1384.24 488.97,1384.24 498.938,1384.24 508.907,1384.24 518.875,1384.24 528.843,1384.24 538.812,1384.24 548.78,1384.24 558.749,1384.24 568.717,1384.24 578.685,1384.24 588.654,1384.24 598.622,1384.24 608.59,1384.24 618.559,1384.24 628.527,1384.24 638.495,1384.24 648.464,1384.24 658.432,1384.24 668.401,1384.24 678.369,1384.24 688.337,1384.24 698.306,1384.24 708.274,1384.24 718.242,1384.24 728.211,1384.24 738.179,1384.24 748.148,1384.24 758.116,1384.24 768.084,1384.24 778.053,1384.24 788.021,1384.24 797.989,1384.24 807.958,1384.24 817.926,1384.24 827.894,1384.24 837.863,1384.24 847.831,1384.24 857.8,1384.24 867.768,1384.24 877.736,1384.24 887.705,1384.24 897.673,1384.24 907.641,1384.24 917.61,1384.24 927.578,1384.24 937.547,1384.24 947.515,1384.24 957.483,1384.24 967.452,1384.24 977.42,1384.24 987.388,1384.24 997.357,1384.24 1007.33,1384.24 1017.29,1384.24 1027.26,1384.24 1037.23,1384.24 1047.2,1384.24 1057.17,1384.24 1067.14,1384.24 1077.1,1384.24 1087.07,1384.24 1097.04,1384.24 1107.01,1384.24 1116.98,1384.24 1126.95,1384.24 1136.91,1384.24 1146.88,1379.32 1156.85,1356.58 1166.82,1341.97 1176.79,1329.96 1186.76,1319.09 1196.72,1309.18 1206.69,1299.58 1216.66,1290.04 1226.63,1280.46 1236.6,1270.71 1246.57,1261.04 1256.53,1251.13 1266.5,1240.96 1276.47,1230.61 1286.44,1220.17 1296.41,1209.3 1306.38,1197.6 1316.34,1186.17 1326.31,1174.92 1336.28,1162.99 1346.25,1149.93 1356.22,1137.46 1366.19,1123.44 1376.15,1109.97 1386.12,1095.52 1396.09,1080.49 1406.06,1064.82 1416.03,1048.49 1426,1031.53 1435.97,1013.55 1445.93,994.577 1455.9,974.356 1465.87,951.319 1475.84,930.422 1485.81,907.33 1495.78,881.664 1505.74,852.917 1515.71,819.912 1525.68,779.816 1535.65,717.623 1545.62,683.427 1555.59,665.646 1565.55,647.431 1575.52,628.918 1585.49,609.683 1595.46,590.807 1605.43,570.594 1615.4,550.913 1625.36,530.681 1635.33,510.034 1645.3,489.266 1655.27,467.8 1665.24,461.329 1675.21,518.812 1685.17,544.402 1695.14,559.375 1705.11,574.37 1715.08,583.74 1725.05,592.928 1735.02,601.479 1744.98,610.021 1754.95,619.698 1764.92,630.361 1774.89,643.431 1784.86,660.239 1794.83,683.172 1804.79,718.299 1814.76,786.602 1824.73,1162.07 1834.7,1384.24 1844.67,1384.24 1854.64,1384.24 1864.6,1384.24 1874.57,1384.24 1884.54,1384.24 1894.51,1384.24 1904.48,1384.24 1914.45,1384.24 1924.42,1384.24 1934.38,1384.24 1944.35,1384.24 1954.32,1384.24 1964.29,1384.24 1974.26,1384.24 1984.23,1384.24 1994.19,1384.24 2004.16,1384.24 2014.13,1384.24 2024.1,1384.24 2034.07,1384.24 2044.04,1384.24 2054,1384.24 2063.97,1384.24 2073.94,1384.24 2083.91,1384.24 2093.88,1384.24 2103.85,1384.24 2113.81,1384.24 2123.78,1384.24 2133.75,1384.24 2143.72,1384.24 2153.69,1384.24 2163.66,1384.24 2173.62,1384.24 2183.59,1384.24 2193.56,1384.24 2203.53,1384.24 2213.5,1384.24 2223.47,1384.24 2233.43,1384.24 2243.4,1384.24 2253.37,1384.24 2263.34,1384.24 2273.31,1384.24 2283.28,1384.24 2293.24,1384.24 "/>
<polyline clip-path="url(#clip692)" style="stroke:#000000; stroke-linecap:round; stroke-linejoin:round; stroke-width:4; stroke-opacity:1; fill:none" stroke-dasharray="16, 10" points="309.539,1384.24 319.508,1384.24 329.476,1384.24 339.444,1384.24 349.413,1384.24 359.381,1384.24 369.35,1384.24 379.318,1384.24 389.286,1384.24 399.255,1384.24 409.223,1384.24 419.191,1384.24 429.16,1384.24 439.128,1384.24 449.096,1384.24 459.065,1384.24 469.033,1384.24 479.002,1384.24 488.97,1384.24 498.938,1384.24 508.907,1384.24 518.875,1384.24 528.843,1384.24 538.812,1384.24 548.78,1384.24 558.749,1384.24 568.717,1384.24 578.685,1384.24 588.654,1384.24 598.622,1384.24 608.59,1384.24 618.559,1384.24 628.527,1384.24 638.495,1384.24 648.464,1384.24 658.432,1384.24 668.401,1384.24 678.369,1384.24 688.337,1384.24 698.306,1384.24 708.274,1384.24 718.242,1384.24 728.211,1384.24 738.179,1384.24 748.148,1384.24 758.116,1384.24 768.084,1384.24 778.053,1384.24 788.021,1384.24 797.989,1384.24 807.958,1384.24 817.926,1384.24 827.894,1384.24 837.863,1384.24 847.831,1384.24 857.8,1384.24 867.768,1384.24 877.736,1384.24 887.705,1384.24 897.673,1384.24 907.641,1384.24 917.61,1384.24 927.578,1384.24 937.547,1384.24 947.515,1384.24 957.483,1384.24 967.452,1384.24 977.42,1384.24 987.388,1384.24 997.357,1384.24 1007.33,1384.24 1017.29,1384.24 1027.26,1384.24 1037.23,1378.64 1047.2,1366.74 1057.17,1359.33 1067.14,1353.18 1077.1,1347.51 1087.07,1341.97 1097.04,1336.92 1107.01,1332.09 1116.98,1327.29 1126.95,1322.44 1136.91,1317.43 1146.88,1312.53 1156.85,1307.56 1166.82,1302.48 1176.79,1297.29 1186.76,1292.14 1196.72,1286.87 1206.69,1281.5 1216.66,1276.03 1226.63,1270.45 1236.6,1264.75 1246.57,1258.38 1256.53,1249.06 1266.5,1247.19 1276.47,1241.34 1286.44,1234.9 1296.41,1228.54 1306.38,1221.99 1316.34,1215.26 1326.31,1208.74 1336.28,1202.01 1346.25,1195.09 1356.22,1187.79 1366.19,1180.52 1376.15,1173.13 1386.12,1165.53 1396.09,1157.54 1406.06,1149.72 1416.03,1141.68 1426,1133.17 1435.97,1124.77 1445.93,1116.08 1455.9,1107.26 1465.87,1098.1 1475.84,1088.77 1485.81,1079.52 1495.78,1069.38 1505.74,1059.69 1515.71,1049.38 1525.68,1039.18 1535.65,1028.09 1545.62,1017.27 1555.59,1006.11 1565.55,994.457 1575.52,982.655 1585.49,970.35 1595.46,957.537 1605.43,954.5 1615.4,976.663 1625.36,983.683 1635.33,985.557 1645.3,984.784 1655.27,982.165 1665.24,978.136 1675.21,972.888 1685.17,966.587 1695.14,959.63 1705.11,951.795 1715.08,942.83 1725.05,932.303 1735.02,920.091 1744.98,906.295 1754.95,890.681 1764.92,872.923 1774.89,852.599 1784.86,829.062 1794.83,801.305 1804.79,767.575 1814.76,724.097 1824.73,653.948 1834.7,582.841 1844.67,559.812 1854.64,533.168 1864.6,502.364 1874.57,465.354 1884.54,417.261 1894.51,347.944 1904.48,203.084 1914.45,114.132 1924.42,86.1857 1934.38,468.139 1944.35,1384.24 1954.32,1384.24 1964.29,1384.24 1974.26,1384.24 1984.23,1384.24 1994.19,1384.24 2004.16,1384.24 2014.13,1384.24 2024.1,1384.24 2034.07,1384.24 2044.04,1384.24 2054,1384.24 2063.97,1384.24 2073.94,1384.24 2083.91,1384.24 2093.88,1384.24 2103.85,1384.24 2113.81,1384.24 2123.78,1384.24 2133.75,1384.24 2143.72,1384.24 2153.69,1384.24 2163.66,1384.24 2173.62,1384.24 2183.59,1384.24 2193.56,1384.24 2203.53,1384.24 2213.5,1384.24 2223.47,1384.24 2233.43,1384.24 2243.4,1384.24 2253.37,1384.24 2263.34,1384.24 2273.31,1384.24 2283.28,1384.24 2293.24,1384.24 "/>
<polyline clip-path="url(#clip692)" style="stroke:#000000; stroke-linecap:round; stroke-linejoin:round; stroke-width:8; stroke-opacity:1; fill:none" points="309.539,1384.24 319.508,1384.24 329.476,1384.24 339.444,1384.24 349.413,1384.24 359.381,1384.24 369.35,1384.24 379.318,1384.24 389.286,1384.24 399.255,1384.24 409.223,1384.24 419.191,1384.24 429.16,1384.24 439.128,1384.24 449.096,1384.24 459.065,1384.24 469.033,1384.24 479.002,1384.24 488.97,1384.24 498.938,1384.24 508.907,1384.24 518.875,1384.24 528.843,1384.24 538.812,1384.24 548.78,1384.24 558.749,1384.24 568.717,1384.24 578.685,1384.24 588.654,1384.24 598.622,1384.24 608.59,1384.24 618.559,1384.24 628.527,1384.24 638.495,1384.24 648.464,1384.24 658.432,1384.24 668.401,1384.24 678.369,1384.24 688.337,1384.24 698.306,1384.24 708.274,1384.24 718.242,1384.24 728.211,1384.24 738.179,1384.24 748.148,1384.24 758.116,1384.24 768.084,1384.24 778.053,1384.24 788.021,1384.24 797.989,1384.24 807.958,1384.24 817.926,1384.24 827.894,1384.24 837.863,1384.24 847.831,1384.24 857.8,1384.24 867.768,1384.24 877.736,1384.24 887.705,1384.24 897.673,1384.24 907.641,1384.24 917.61,1384.24 927.578,1384.24 937.547,1384.24 947.515,1384.24 957.483,1384.24 967.452,1384.24 977.42,1382.18 987.388,1372.81 997.357,1366.88 1007.33,1362.08 1017.29,1357.8 1027.26,1353.75 1037.23,1349.81 1047.2,1346.15 1057.17,1342.72 1067.14,1339.34 1077.1,1335.6 1087.07,1332.19 1097.04,1328.86 1107.01,1325.26 1116.98,1321.63 1126.95,1317.96 1136.91,1314.26 1146.88,1310.52 1156.85,1306.82 1166.82,1302.85 1176.79,1299.03 1186.76,1295 1196.72,1291.02 1206.69,1286.88 1216.66,1282.5 1226.63,1277.54 1236.6,1274.55 1246.57,1270.45 1256.53,1266.11 1266.5,1261.69 1276.47,1257.2 1286.44,1252.41 1296.41,1247.77 1306.38,1242.99 1316.34,1238.26 1326.31,1233.38 1336.28,1228.55 1346.25,1223.58 1356.22,1218.56 1366.19,1213.34 1376.15,1208.11 1386.12,1202.66 1396.09,1197.32 1406.06,1191.96 1416.03,1186.37 1426,1180.66 1435.97,1175.09 1445.93,1168.95 1455.9,1163.24 1465.87,1157.15 1475.84,1151.16 1485.81,1144.86 1495.78,1138.62 1505.74,1132.18 1515.71,1125.8 1525.68,1119.15 1535.65,1112.47 1545.62,1105.63 1555.59,1098.93 1565.55,1091.87 1575.52,1099.46 1585.49,1112.44 1595.46,1117.24 1605.43,1119.69 1615.4,1120.82 1625.36,1121.04 1635.33,1120.56 1645.3,1119.5 1655.27,1117.95 1665.24,1115.93 1675.21,1113.49 1685.17,1110.63 1695.14,1107.38 1705.11,1103.72 1715.08,1099.68 1725.05,1095.23 1735.02,1090.37 1744.98,1085.08 1754.95,1079.36 1764.92,1073.21 1774.89,1066.59 1784.86,1059.38 1794.83,1051.57 1804.79,1043.14 1814.76,1034.1 1824.73,1024.41 1834.7,1014.19 1844.67,1003.35 1854.64,991.987 1864.6,979.708 1874.57,966.303 1884.54,951.484 1894.51,934.994 1904.48,916.22 1914.45,894.764 1924.42,869.758 1934.38,839.586 1944.35,800.334 1954.32,732.298 1964.29,682.143 1974.26,667.771 1984.23,653.456 1994.19,638.218 2004.16,622.409 2014.13,605.395 2024.1,587.102 2034.07,565.386 2044.04,541.338 2054,509.774 2063.97,462.197 2073.94,340.449 2083.91,239.706 2093.88,1384.24 2103.85,1384.24 2113.81,1384.24 2123.78,1384.24 2133.75,1384.24 2143.72,1384.24 2153.69,1384.24 2163.66,1384.24 2173.62,1384.24 2183.59,1384.24 2193.56,1384.24 2203.53,1384.24 2213.5,1384.24 2223.47,1384.24 2233.43,1384.24 2243.4,1384.24 2253.37,1384.24 2263.34,1384.24 2273.31,1384.24 2283.28,1384.24 2293.24,1384.24 "/>
<path clip-path="url(#clip690)" d="M320.119 300.469 L676.016 300.469 L676.016 93.1086 L320.119 93.1086  Z" fill="#ffffff" fill-rule="evenodd" fill-opacity="0"/>
<polyline clip-path="url(#clip690)" style="stroke:#000000; stroke-linecap:round; stroke-linejoin:round; stroke-width:4; stroke-opacity:1; fill:none" points="320.119,300.469 676.016,300.469 676.016,93.1086 320.119,93.1086 320.119,300.469 "/>
<polyline clip-path="url(#clip690)" style="stroke:#000000; stroke-linecap:round; stroke-linejoin:round; stroke-width:4; stroke-opacity:1; fill:none" points="343.483,144.949 483.665,144.949 "/>
<path clip-path="url(#clip690)" d="M526.287 145.794 L511.542 145.794 Q511.889 152.715 513.487 155.655 Q515.477 159.266 518.926 159.266 Q522.398 159.266 524.32 155.631 Q526.01 152.437 526.287 145.794 M526.218 141.858 Q525.57 135.284 524.32 132.97 Q522.329 129.312 518.926 129.312 Q515.385 129.312 513.51 132.923 Q512.028 135.84 511.588 141.858 L526.218 141.858 M518.926 125.84 Q524.482 125.84 527.653 130.747 Q530.824 135.632 530.824 144.289 Q530.824 152.923 527.653 157.83 Q524.482 162.761 518.926 162.761 Q513.348 162.761 510.199 157.83 Q507.028 152.923 507.028 144.289 Q507.028 135.632 510.199 130.747 Q513.348 125.84 518.926 125.84 Z" fill="#000000" fill-rule="evenodd" fill-opacity="1" /><path clip-path="url(#clip690)" d="M538.44 140.701 L568.116 140.701 L568.116 144.59 L538.44 144.59 L538.44 140.701 M538.44 150.145 L568.116 150.145 L568.116 154.081 L538.44 154.081 L538.44 150.145 Z" fill="#000000" fill-rule="evenodd" fill-opacity="1" /><path clip-path="url(#clip690)" d="M582.236 158.293 L598.555 158.293 L598.555 162.229 L576.611 162.229 L576.611 158.293 Q579.273 155.539 583.856 150.909 Q588.463 146.256 589.643 144.914 Q591.889 142.391 592.768 140.655 Q593.671 138.895 593.671 137.206 Q593.671 134.451 591.727 132.715 Q589.806 130.979 586.704 130.979 Q584.505 130.979 582.051 131.743 Q579.62 132.507 576.843 134.057 L576.843 129.335 Q579.667 128.201 582.12 127.622 Q584.574 127.044 586.611 127.044 Q591.981 127.044 595.176 129.729 Q598.37 132.414 598.37 136.905 Q598.37 139.034 597.56 140.956 Q596.773 142.854 594.667 145.446 Q594.088 146.118 590.986 149.335 Q587.884 152.53 582.236 158.293 Z" fill="#000000" fill-rule="evenodd" fill-opacity="1" /><path clip-path="url(#clip690)" d="M618.37 130.747 Q614.759 130.747 612.93 134.312 Q611.125 137.854 611.125 144.983 Q611.125 152.09 612.93 155.655 Q614.759 159.196 618.37 159.196 Q622.004 159.196 623.81 155.655 Q625.639 152.09 625.639 144.983 Q625.639 137.854 623.81 134.312 Q622.004 130.747 618.37 130.747 M618.37 127.044 Q624.18 127.044 627.236 131.65 Q630.315 136.233 630.315 144.983 Q630.315 153.71 627.236 158.317 Q624.18 162.9 618.37 162.9 Q612.56 162.9 609.481 158.317 Q606.426 153.71 606.426 144.983 Q606.426 136.233 609.481 131.65 Q612.56 127.044 618.37 127.044 Z" fill="#000000" fill-rule="evenodd" fill-opacity="1" /><path clip-path="url(#clip690)" d="M645.314 130.03 Q643.463 130.03 642.19 131.326 Q640.916 132.599 640.916 134.451 Q640.916 136.28 642.19 137.553 Q643.463 138.803 645.314 138.803 Q647.166 138.803 648.439 137.553 Q649.713 136.28 649.713 134.451 Q649.713 132.622 648.416 131.326 Q647.143 130.03 645.314 130.03 M645.314 127.044 Q646.796 127.044 648.162 127.622 Q649.527 128.178 650.523 129.243 Q651.588 130.284 652.12 131.604 Q652.652 132.923 652.652 134.451 Q652.652 137.507 650.5 139.636 Q648.37 141.743 645.268 141.743 Q642.143 141.743 640.06 139.659 Q637.977 137.576 637.977 134.451 Q637.977 131.349 640.106 129.196 Q642.236 127.044 645.314 127.044 Z" fill="#000000" fill-rule="evenodd" fill-opacity="1" /><polyline clip-path="url(#clip690)" style="stroke:#000000; stroke-linecap:round; stroke-linejoin:round; stroke-width:4; stroke-opacity:1; fill:none" stroke-dasharray="16, 10" points="343.483,196.789 483.665,196.789 "/>
<path clip-path="url(#clip690)" d="M526.287 197.634 L511.542 197.634 Q511.889 204.555 513.487 207.495 Q515.477 211.106 518.926 211.106 Q522.398 211.106 524.32 207.471 Q526.01 204.277 526.287 197.634 M526.218 193.698 Q525.57 187.124 524.32 184.81 Q522.329 181.152 518.926 181.152 Q515.385 181.152 513.51 184.763 Q512.028 187.68 511.588 193.698 L526.218 193.698 M518.926 177.68 Q524.482 177.68 527.653 182.587 Q530.824 187.472 530.824 196.129 Q530.824 204.763 527.653 209.67 Q524.482 214.601 518.926 214.601 Q513.348 214.601 510.199 209.67 Q507.028 204.763 507.028 196.129 Q507.028 187.472 510.199 182.587 Q513.348 177.68 518.926 177.68 Z" fill="#000000" fill-rule="evenodd" fill-opacity="1" /><path clip-path="url(#clip690)" d="M538.44 192.541 L568.116 192.541 L568.116 196.43 L538.44 196.43 L538.44 192.541 M538.44 201.985 L568.116 201.985 L568.116 205.921 L538.44 205.921 L538.44 201.985 Z" fill="#000000" fill-rule="evenodd" fill-opacity="1" /><path clip-path="url(#clip690)" d="M591.056 183.583 L579.25 202.032 L591.056 202.032 L591.056 183.583 M589.829 179.509 L595.708 179.509 L595.708 202.032 L600.639 202.032 L600.639 205.921 L595.708 205.921 L595.708 214.069 L591.056 214.069 L591.056 205.921 L575.454 205.921 L575.454 201.407 L589.829 179.509 Z" fill="#000000" fill-rule="evenodd" fill-opacity="1" /><path clip-path="url(#clip690)" d="M618.37 182.587 Q614.759 182.587 612.93 186.152 Q611.125 189.694 611.125 196.823 Q611.125 203.93 612.93 207.495 Q614.759 211.036 618.37 211.036 Q622.004 211.036 623.81 207.495 Q625.639 203.93 625.639 196.823 Q625.639 189.694 623.81 186.152 Q622.004 182.587 618.37 182.587 M618.37 178.884 Q624.18 178.884 627.236 183.49 Q630.315 188.073 630.315 196.823 Q630.315 205.55 627.236 210.157 Q624.18 214.74 618.37 214.74 Q612.56 214.74 609.481 210.157 Q606.426 205.55 606.426 196.823 Q606.426 188.073 609.481 183.49 Q612.56 178.884 618.37 178.884 Z" fill="#000000" fill-rule="evenodd" fill-opacity="1" /><path clip-path="url(#clip690)" d="M645.314 181.87 Q643.463 181.87 642.19 183.166 Q640.916 184.439 640.916 186.291 Q640.916 188.12 642.19 189.393 Q643.463 190.643 645.314 190.643 Q647.166 190.643 648.439 189.393 Q649.713 188.12 649.713 186.291 Q649.713 184.462 648.416 183.166 Q647.143 181.87 645.314 181.87 M645.314 178.884 Q646.796 178.884 648.162 179.462 Q649.527 180.018 650.523 181.083 Q651.588 182.124 652.12 183.444 Q652.652 184.763 652.652 186.291 Q652.652 189.347 650.5 191.476 Q648.37 193.583 645.268 193.583 Q642.143 193.583 640.06 191.499 Q637.977 189.416 637.977 186.291 Q637.977 183.189 640.106 181.036 Q642.236 178.884 645.314 178.884 Z" fill="#000000" fill-rule="evenodd" fill-opacity="1" /><polyline clip-path="url(#clip690)" style="stroke:#000000; stroke-linecap:round; stroke-linejoin:round; stroke-width:8; stroke-opacity:1; fill:none" points="343.483,248.629 483.665,248.629 "/>
<path clip-path="url(#clip690)" d="M526.287 249.474 L511.542 249.474 Q511.889 256.395 513.487 259.335 Q515.477 262.946 518.926 262.946 Q522.398 262.946 524.32 259.311 Q526.01 256.117 526.287 249.474 M526.218 245.538 Q525.57 238.964 524.32 236.65 Q522.329 232.992 518.926 232.992 Q515.385 232.992 513.51 236.603 Q512.028 239.52 511.588 245.538 L526.218 245.538 M518.926 229.52 Q524.482 229.52 527.653 234.427 Q530.824 239.312 530.824 247.969 Q530.824 256.603 527.653 261.51 Q524.482 266.441 518.926 266.441 Q513.348 266.441 510.199 261.51 Q507.028 256.603 507.028 247.969 Q507.028 239.312 510.199 234.427 Q513.348 229.52 518.926 229.52 Z" fill="#000000" fill-rule="evenodd" fill-opacity="1" /><path clip-path="url(#clip690)" d="M538.44 244.381 L568.116 244.381 L568.116 248.27 L538.44 248.27 L538.44 244.381 M538.44 253.825 L568.116 253.825 L568.116 257.761 L538.44 257.761 L538.44 253.825 Z" fill="#000000" fill-rule="evenodd" fill-opacity="1" /><path clip-path="url(#clip690)" d="M578.255 231.349 L596.611 231.349 L596.611 235.284 L582.537 235.284 L582.537 243.756 Q583.556 243.409 584.574 243.247 Q585.593 243.062 586.611 243.062 Q592.398 243.062 595.778 246.233 Q599.157 249.404 599.157 254.821 Q599.157 260.399 595.685 263.501 Q592.213 266.58 585.894 266.58 Q583.718 266.58 581.449 266.21 Q579.204 265.839 576.796 265.098 L576.796 260.399 Q578.88 261.534 581.102 262.089 Q583.324 262.645 585.801 262.645 Q589.806 262.645 592.143 260.538 Q594.481 258.432 594.481 254.821 Q594.481 251.21 592.143 249.103 Q589.806 246.997 585.801 246.997 Q583.926 246.997 582.051 247.413 Q580.199 247.83 578.255 248.71 L578.255 231.349 Z" fill="#000000" fill-rule="evenodd" fill-opacity="1" /><path clip-path="url(#clip690)" d="M608.417 231.349 L626.773 231.349 L626.773 235.284 L612.699 235.284 L612.699 243.756 Q613.717 243.409 614.736 243.247 Q615.754 243.062 616.773 243.062 Q622.56 243.062 625.94 246.233 Q629.319 249.404 629.319 254.821 Q629.319 260.399 625.847 263.501 Q622.375 266.58 616.055 266.58 Q613.879 266.58 611.611 266.21 Q609.366 265.839 606.958 265.098 L606.958 260.399 Q609.042 261.534 611.264 262.089 Q613.486 262.645 615.963 262.645 Q619.967 262.645 622.305 260.538 Q624.643 258.432 624.643 254.821 Q624.643 251.21 622.305 249.103 Q619.967 246.997 615.963 246.997 Q614.088 246.997 612.213 247.413 Q610.361 247.83 608.417 248.71 L608.417 231.349 Z" fill="#000000" fill-rule="evenodd" fill-opacity="1" /><path clip-path="url(#clip690)" d="M645.314 233.71 Q643.463 233.71 642.19 235.006 Q640.916 236.279 640.916 238.131 Q640.916 239.96 642.19 241.233 Q643.463 242.483 645.314 242.483 Q647.166 242.483 648.439 241.233 Q649.713 239.96 649.713 238.131 Q649.713 236.302 648.416 235.006 Q647.143 233.71 645.314 233.71 M645.314 230.724 Q646.796 230.724 648.162 231.302 Q649.527 231.858 650.523 232.923 Q651.588 233.964 652.12 235.284 Q652.652 236.603 652.652 238.131 Q652.652 241.187 650.5 243.316 Q648.37 245.423 645.268 245.423 Q642.143 245.423 640.06 243.339 Q637.977 241.256 637.977 238.131 Q637.977 235.029 640.106 232.876 Q642.236 230.724 645.314 230.724 Z" fill="#000000" fill-rule="evenodd" fill-opacity="1" /></svg>
