<?xml version="1.0" encoding="utf-8"?>
<svg xmlns="http://www.w3.org/2000/svg" xmlns:xlink="http://www.w3.org/1999/xlink" width="600" height="400" viewBox="0 0 2400 1600">
<defs>
  <clipPath id="clip830">
    <rect x="0" y="0" width="2400" height="1600"/>
  </clipPath>
</defs>
<path clip-path="url(#clip830)" d="M0 1600 L2400 1600 L2400 0 L0 0  Z" fill="#ffffff" fill-rule="evenodd" fill-opacity="0"/>
<defs>
  <clipPath id="clip831">
    <rect x="480" y="0" width="1681" height="1600"/>
  </clipPath>
</defs>
<path clip-path="url(#clip830)" d="M281.038 1391.68 L2321.26 1391.68 L2321.26 78.7402 L281.038 78.7402  Z" fill="#ffffff" fill-rule="evenodd" fill-opacity="0"/>
<defs>
  <clipPath id="clip832">
    <rect x="281" y="78" width="2041" height="1314"/>
  </clipPath>
</defs>
<polyline clip-path="url(#clip832)" style="stroke:#000000; stroke-linecap:round; stroke-linejoin:round; stroke-width:2; stroke-opacity:0.1; fill:none" points="281.038,1391.68 281.038,78.7402 "/>
<polyline clip-path="url(#clip832)" style="stroke:#000000; stroke-linecap:round; stroke-linejoin:round; stroke-width:2; stroke-opacity:0.1; fill:none" points="1301.15,1391.68 1301.15,78.7402 "/>
<polyline clip-path="url(#clip832)" style="stroke:#000000; stroke-linecap:round; stroke-linejoin:round; stroke-width:2; stroke-opacity:0.1; fill:none" points="2321.26,1391.68 2321.26,78.7402 "/>
<polyline clip-path="url(#clip832)" style="stroke:#000000; stroke-linecap:round; stroke-linejoin:round; stroke-width:2; stroke-opacity:0.05; fill:none" points="588.122,1391.68 588.122,78.7402 "/>
<polyline clip-path="url(#clip832)" style="stroke:#000000; stroke-linecap:round; stroke-linejoin:round; stroke-width:2; stroke-opacity:0.05; fill:none" points="767.755,1391.68 767.755,78.7402 "/>
<polyline clip-path="url(#clip832)" style="stroke:#000000; stroke-linecap:round; stroke-linejoin:round; stroke-width:2; stroke-opacity:0.05; fill:none" points="895.206,1391.68 895.206,78.7402 "/>
<polyline clip-path="url(#clip832)" style="stroke:#000000; stroke-linecap:round; stroke-linejoin:round; stroke-width:2; stroke-opacity:0.05; fill:none" points="994.065,1391.68 994.065,78.7402 "/>
<polyline clip-path="url(#clip832)" style="stroke:#000000; stroke-linecap:round; stroke-linejoin:round; stroke-width:2; stroke-opacity:0.05; fill:none" points="1074.84,1391.68 1074.84,78.7402 "/>
<polyline clip-path="url(#clip832)" style="stroke:#000000; stroke-linecap:round; stroke-linejoin:round; stroke-width:2; stroke-opacity:0.05; fill:none" points="1143.13,1391.68 1143.13,78.7402 "/>
<polyline clip-path="url(#clip832)" style="stroke:#000000; stroke-linecap:round; stroke-linejoin:round; stroke-width:2; stroke-opacity:0.05; fill:none" points="1202.29,1391.68 1202.29,78.7402 "/>
<polyline clip-path="url(#clip832)" style="stroke:#000000; stroke-linecap:round; stroke-linejoin:round; stroke-width:2; stroke-opacity:0.05; fill:none" points="1254.47,1391.68 1254.47,78.7402 "/>
<polyline clip-path="url(#clip832)" style="stroke:#000000; stroke-linecap:round; stroke-linejoin:round; stroke-width:2; stroke-opacity:0.05; fill:none" points="1608.23,1391.68 1608.23,78.7402 "/>
<polyline clip-path="url(#clip832)" style="stroke:#000000; stroke-linecap:round; stroke-linejoin:round; stroke-width:2; stroke-opacity:0.05; fill:none" points="1787.87,1391.68 1787.87,78.7402 "/>
<polyline clip-path="url(#clip832)" style="stroke:#000000; stroke-linecap:round; stroke-linejoin:round; stroke-width:2; stroke-opacity:0.05; fill:none" points="1915.32,1391.68 1915.32,78.7402 "/>
<polyline clip-path="url(#clip832)" style="stroke:#000000; stroke-linecap:round; stroke-linejoin:round; stroke-width:2; stroke-opacity:0.05; fill:none" points="2014.18,1391.68 2014.18,78.7402 "/>
<polyline clip-path="url(#clip832)" style="stroke:#000000; stroke-linecap:round; stroke-linejoin:round; stroke-width:2; stroke-opacity:0.05; fill:none" points="2094.95,1391.68 2094.95,78.7402 "/>
<polyline clip-path="url(#clip832)" style="stroke:#000000; stroke-linecap:round; stroke-linejoin:round; stroke-width:2; stroke-opacity:0.05; fill:none" points="2163.24,1391.68 2163.24,78.7402 "/>
<polyline clip-path="url(#clip832)" style="stroke:#000000; stroke-linecap:round; stroke-linejoin:round; stroke-width:2; stroke-opacity:0.05; fill:none" points="2222.4,1391.68 2222.4,78.7402 "/>
<polyline clip-path="url(#clip832)" style="stroke:#000000; stroke-linecap:round; stroke-linejoin:round; stroke-width:2; stroke-opacity:0.05; fill:none" points="2274.58,1391.68 2274.58,78.7402 "/>
<polyline clip-path="url(#clip830)" style="stroke:#000000; stroke-linecap:round; stroke-linejoin:round; stroke-width:4; stroke-opacity:1; fill:none" points="281.038,1391.68 2321.26,1391.68 "/>
<polyline clip-path="url(#clip830)" style="stroke:#000000; stroke-linecap:round; stroke-linejoin:round; stroke-width:4; stroke-opacity:1; fill:none" points="281.038,1391.68 281.038,1372.79 "/>
<polyline clip-path="url(#clip830)" style="stroke:#000000; stroke-linecap:round; stroke-linejoin:round; stroke-width:4; stroke-opacity:1; fill:none" points="1301.15,1391.68 1301.15,1372.79 "/>
<polyline clip-path="url(#clip830)" style="stroke:#000000; stroke-linecap:round; stroke-linejoin:round; stroke-width:4; stroke-opacity:1; fill:none" points="2321.26,1391.68 2321.26,1372.79 "/>
<polyline clip-path="url(#clip830)" style="stroke:#000000; stroke-linecap:round; stroke-linejoin:round; stroke-width:4; stroke-opacity:1; fill:none" points="588.122,1391.68 588.122,1382.23 "/>
<polyline clip-path="url(#clip830)" style="stroke:#000000; stroke-linecap:round; stroke-linejoin:round; stroke-width:4; stroke-opacity:1; fill:none" points="767.755,1391.68 767.755,1382.23 "/>
<polyline clip-path="url(#clip830)" style="stroke:#000000; stroke-linecap:round; stroke-linejoin:round; stroke-width:4; stroke-opacity:1; fill:none" points="895.206,1391.68 895.206,1382.23 "/>
<polyline clip-path="url(#clip830)" style="stroke:#000000; stroke-linecap:round; stroke-linejoin:round; stroke-width:4; stroke-opacity:1; fill:none" points="994.065,1391.68 994.065,1382.23 "/>
<polyline clip-path="url(#clip830)" style="stroke:#000000; stroke-linecap:round; stroke-linejoin:round; stroke-width:4; stroke-opacity:1; fill:none" points="1074.84,1391.68 1074.84,1382.23 "/>
<polyline clip-path="url(#clip830)" style="stroke:#000000; stroke-linecap:round; stroke-linejoin:round; stroke-width:4; stroke-opacity:1; fill:none" points="1143.13,1391.68 1143.13,1382.23 "/>
<polyline clip-path="url(#clip830)" style="stroke:#000000; stroke-linecap:round; stroke-linejoin:round; stroke-width:4; stroke-opacity:1; fill:none" points="1202.29,1391.68 1202.29,1382.23 "/>
<polyline clip-path="url(#clip830)" style="stroke:#000000; stroke-linecap:round; stroke-linejoin:round; stroke-width:4; stroke-opacity:1; fill:none" points="1254.47,1391.68 1254.47,1382.23 "/>
<polyline clip-path="url(#clip830)" style="stroke:#000000; stroke-linecap:round; stroke-linejoin:round; stroke-width:4; stroke-opacity:1; fill:none" points="1608.23,1391.68 1608.23,1382.23 "/>
<polyline clip-path="url(#clip830)" style="stroke:#000000; stroke-linecap:round; stroke-linejoin:round; stroke-width:4; stroke-opacity:1; fill:none" points="1787.87,1391.68 1787.87,1382.23 "/>
<polyline clip-path="url(#clip830)" style="stroke:#000000; stroke-linecap:round; stroke-linejoin:round; stroke-width:4; stroke-opacity:1; fill:none" points="1915.32,1391.68 1915.32,1382.23 "/>
<polyline clip-path="url(#clip830)" style="stroke:#000000; stroke-linecap:round; stroke-linejoin:round; stroke-width:4; stroke-opacity:1; fill:none" points="2014.18,1391.68 2014.18,1382.23 "/>
<polyline clip-path="url(#clip830)" style="stroke:#000000; stroke-linecap:round; stroke-linejoin:round; stroke-width:4; stroke-opacity:1; fill:none" points="2094.95,1391.68 2094.95,1382.23 "/>
<polyline clip-path="url(#clip830)" style="stroke:#000000; stroke-linecap:round; stroke-linejoin:round; stroke-width:4; stroke-opacity:1; fill:none" points="2163.24,1391.68 2163.24,1382.23 "/>
<polyline clip-path="url(#clip830)" style="stroke:#000000; stroke-linecap:round; stroke-linejoin:round; stroke-width:4; stroke-opacity:1; fill:none" points="2222.4,1391.68 2222.4,1382.23 "/>
<polyline clip-path="url(#clip830)" style="stroke:#000000; stroke-linecap:round; stroke-linejoin:round; stroke-width:4; stroke-opacity:1; fill:none" points="2274.58,1391.68 2274.58,1382.23 "/>
<path clip-path="url(#clip830)" d="M271.42 1450.15 L279.059 1450.15 L279.059 1423.78 L270.749 1425.45 L270.749 1421.19 L279.013 1419.52 L283.689 1419.52 L283.689 1450.15 L291.327 1450.15 L291.327 1454.08 L271.42 1454.08 L271.42 1450.15 Z" fill="#000000" fill-rule="evenodd" fill-opacity="1" /><path clip-path="url(#clip830)" d="M1275.84 1450.15 L1283.48 1450.15 L1283.48 1423.78 L1275.17 1425.45 L1275.17 1421.19 L1283.43 1419.52 L1288.11 1419.52 L1288.11 1450.15 L1295.74 1450.15 L1295.74 1454.08 L1275.84 1454.08 L1275.84 1450.15 Z" fill="#000000" fill-rule="evenodd" fill-opacity="1" /><path clip-path="url(#clip830)" d="M1315.19 1422.6 Q1311.58 1422.6 1309.75 1426.17 Q1307.94 1429.71 1307.94 1436.84 Q1307.94 1443.94 1309.75 1447.51 Q1311.58 1451.05 1315.19 1451.05 Q1318.82 1451.05 1320.63 1447.51 Q1322.46 1443.94 1322.46 1436.84 Q1322.46 1429.71 1320.63 1426.17 Q1318.82 1422.6 1315.19 1422.6 M1315.19 1418.9 Q1321 1418.9 1324.05 1423.51 Q1327.13 1428.09 1327.13 1436.84 Q1327.13 1445.57 1324.05 1450.17 Q1321 1454.76 1315.19 1454.76 Q1309.38 1454.76 1306.3 1450.17 Q1303.24 1445.57 1303.24 1436.84 Q1303.24 1428.09 1306.3 1423.51 Q1309.38 1418.9 1315.19 1418.9 Z" fill="#000000" fill-rule="evenodd" fill-opacity="1" /><path clip-path="url(#clip830)" d="M2280.87 1450.15 L2288.51 1450.15 L2288.51 1423.78 L2280.2 1425.45 L2280.2 1421.19 L2288.46 1419.52 L2293.13 1419.52 L2293.13 1450.15 L2300.77 1450.15 L2300.77 1454.08 L2280.87 1454.08 L2280.87 1450.15 Z" fill="#000000" fill-rule="evenodd" fill-opacity="1" /><path clip-path="url(#clip830)" d="M2320.22 1422.6 Q2316.61 1422.6 2314.78 1426.17 Q2312.97 1429.71 2312.97 1436.84 Q2312.97 1443.94 2314.78 1447.51 Q2316.61 1451.05 2320.22 1451.05 Q2323.85 1451.05 2325.66 1447.51 Q2327.49 1443.94 2327.49 1436.84 Q2327.49 1429.71 2325.66 1426.17 Q2323.85 1422.6 2320.22 1422.6 M2320.22 1418.9 Q2326.03 1418.9 2329.08 1423.51 Q2332.16 1428.09 2332.16 1436.84 Q2332.16 1445.57 2329.08 1450.17 Q2326.03 1454.76 2320.22 1454.76 Q2314.41 1454.76 2311.33 1450.17 Q2308.27 1445.57 2308.27 1436.84 Q2308.27 1428.09 2311.33 1423.51 Q2314.41 1418.9 2320.22 1418.9 Z" fill="#000000" fill-rule="evenodd" fill-opacity="1" /><path clip-path="url(#clip830)" d="M2350.38 1422.6 Q2346.77 1422.6 2344.94 1426.17 Q2343.13 1429.71 2343.13 1436.84 Q2343.13 1443.94 2344.94 1447.51 Q2346.77 1451.05 2350.38 1451.05 Q2354.01 1451.05 2355.82 1447.51 Q2357.65 1443.94 2357.65 1436.84 Q2357.65 1429.71 2355.82 1426.17 Q2354.01 1422.6 2350.38 1422.6 M2350.38 1418.9 Q2356.19 1418.9 2359.25 1423.51 Q2362.32 1428.09 2362.32 1436.84 Q2362.32 1445.57 2359.25 1450.17 Q2356.19 1454.76 2350.38 1454.76 Q2344.57 1454.76 2341.49 1450.17 Q2338.44 1445.57 2338.44 1436.84 Q2338.44 1428.09 2341.49 1423.51 Q2344.57 1418.9 2350.38 1418.9 Z" fill="#000000" fill-rule="evenodd" fill-opacity="1" /><path clip-path="url(#clip830)" d="M1311.59 1506.37 Q1310.6 1505.8 1309.42 1505.55 Q1308.28 1505.26 1306.88 1505.26 Q1301.91 1505.26 1299.24 1508.51 Q1296.6 1511.72 1296.6 1517.77 L1296.6 1536.55 L1290.71 1536.55 L1290.71 1500.9 L1296.6 1500.9 L1296.6 1506.44 Q1298.44 1503.19 1301.4 1501.63 Q1304.36 1500.04 1308.6 1500.04 Q1309.2 1500.04 1309.93 1500.14 Q1310.67 1500.2 1311.56 1500.36 L1311.59 1506.37 Z" fill="#000000" fill-rule="evenodd" fill-opacity="1" /><polyline clip-path="url(#clip832)" style="stroke:#000000; stroke-linecap:round; stroke-linejoin:round; stroke-width:2; stroke-opacity:0.1; fill:none" points="281.038,1391.68 2321.26,1391.68 "/>
<polyline clip-path="url(#clip832)" style="stroke:#000000; stroke-linecap:round; stroke-linejoin:round; stroke-width:2; stroke-opacity:0.1; fill:none" points="281.038,1063.45 2321.26,1063.45 "/>
<polyline clip-path="url(#clip832)" style="stroke:#000000; stroke-linecap:round; stroke-linejoin:round; stroke-width:2; stroke-opacity:0.1; fill:none" points="281.038,735.212 2321.26,735.212 "/>
<polyline clip-path="url(#clip832)" style="stroke:#000000; stroke-linecap:round; stroke-linejoin:round; stroke-width:2; stroke-opacity:0.1; fill:none" points="281.038,406.976 2321.26,406.976 "/>
<polyline clip-path="url(#clip832)" style="stroke:#000000; stroke-linecap:round; stroke-linejoin:round; stroke-width:2; stroke-opacity:0.1; fill:none" points="281.038,78.7402 2321.26,78.7402 "/>
<polyline clip-path="url(#clip832)" style="stroke:#000000; stroke-linecap:round; stroke-linejoin:round; stroke-width:2; stroke-opacity:0.05; fill:none" points="281.038,1326.04 2321.26,1326.04 "/>
<polyline clip-path="url(#clip832)" style="stroke:#000000; stroke-linecap:round; stroke-linejoin:round; stroke-width:2; stroke-opacity:0.05; fill:none" points="281.038,1260.39 2321.26,1260.39 "/>
<polyline clip-path="url(#clip832)" style="stroke:#000000; stroke-linecap:round; stroke-linejoin:round; stroke-width:2; stroke-opacity:0.05; fill:none" points="281.038,1194.74 2321.26,1194.74 "/>
<polyline clip-path="url(#clip832)" style="stroke:#000000; stroke-linecap:round; stroke-linejoin:round; stroke-width:2; stroke-opacity:0.05; fill:none" points="281.038,1129.1 2321.26,1129.1 "/>
<polyline clip-path="url(#clip832)" style="stroke:#000000; stroke-linecap:round; stroke-linejoin:round; stroke-width:2; stroke-opacity:0.05; fill:none" points="281.038,997.801 2321.26,997.801 "/>
<polyline clip-path="url(#clip832)" style="stroke:#000000; stroke-linecap:round; stroke-linejoin:round; stroke-width:2; stroke-opacity:0.05; fill:none" points="281.038,932.154 2321.26,932.154 "/>
<polyline clip-path="url(#clip832)" style="stroke:#000000; stroke-linecap:round; stroke-linejoin:round; stroke-width:2; stroke-opacity:0.05; fill:none" points="281.038,866.506 2321.26,866.506 "/>
<polyline clip-path="url(#clip832)" style="stroke:#000000; stroke-linecap:round; stroke-linejoin:round; stroke-width:2; stroke-opacity:0.05; fill:none" points="281.038,800.859 2321.26,800.859 "/>
<polyline clip-path="url(#clip832)" style="stroke:#000000; stroke-linecap:round; stroke-linejoin:round; stroke-width:2; stroke-opacity:0.05; fill:none" points="281.038,669.565 2321.26,669.565 "/>
<polyline clip-path="url(#clip832)" style="stroke:#000000; stroke-linecap:round; stroke-linejoin:round; stroke-width:2; stroke-opacity:0.05; fill:none" points="281.038,603.918 2321.26,603.918 "/>
<polyline clip-path="url(#clip832)" style="stroke:#000000; stroke-linecap:round; stroke-linejoin:round; stroke-width:2; stroke-opacity:0.05; fill:none" points="281.038,538.27 2321.26,538.27 "/>
<polyline clip-path="url(#clip832)" style="stroke:#000000; stroke-linecap:round; stroke-linejoin:round; stroke-width:2; stroke-opacity:0.05; fill:none" points="281.038,472.623 2321.26,472.623 "/>
<polyline clip-path="url(#clip832)" style="stroke:#000000; stroke-linecap:round; stroke-linejoin:round; stroke-width:2; stroke-opacity:0.05; fill:none" points="281.038,341.329 2321.26,341.329 "/>
<polyline clip-path="url(#clip832)" style="stroke:#000000; stroke-linecap:round; stroke-linejoin:round; stroke-width:2; stroke-opacity:0.05; fill:none" points="281.038,275.682 2321.26,275.682 "/>
<polyline clip-path="url(#clip832)" style="stroke:#000000; stroke-linecap:round; stroke-linejoin:round; stroke-width:2; stroke-opacity:0.05; fill:none" points="281.038,210.035 2321.26,210.035 "/>
<polyline clip-path="url(#clip832)" style="stroke:#000000; stroke-linecap:round; stroke-linejoin:round; stroke-width:2; stroke-opacity:0.05; fill:none" points="281.038,144.387 2321.26,144.387 "/>
<polyline clip-path="url(#clip830)" style="stroke:#000000; stroke-linecap:round; stroke-linejoin:round; stroke-width:4; stroke-opacity:1; fill:none" points="281.038,1391.68 281.038,78.7402 "/>
<polyline clip-path="url(#clip830)" style="stroke:#000000; stroke-linecap:round; stroke-linejoin:round; stroke-width:4; stroke-opacity:1; fill:none" points="281.038,1391.68 299.936,1391.68 "/>
<polyline clip-path="url(#clip830)" style="stroke:#000000; stroke-linecap:round; stroke-linejoin:round; stroke-width:4; stroke-opacity:1; fill:none" points="281.038,1063.45 299.936,1063.45 "/>
<polyline clip-path="url(#clip830)" style="stroke:#000000; stroke-linecap:round; stroke-linejoin:round; stroke-width:4; stroke-opacity:1; fill:none" points="281.038,735.212 299.936,735.212 "/>
<polyline clip-path="url(#clip830)" style="stroke:#000000; stroke-linecap:round; stroke-linejoin:round; stroke-width:4; stroke-opacity:1; fill:none" points="281.038,406.976 299.936,406.976 "/>
<polyline clip-path="url(#clip830)" style="stroke:#000000; stroke-linecap:round; stroke-linejoin:round; stroke-width:4; stroke-opacity:1; fill:none" points="281.038,78.7402 299.936,78.7402 "/>
<polyline clip-path="url(#clip830)" style="stroke:#000000; stroke-linecap:round; stroke-linejoin:round; stroke-width:4; stroke-opacity:1; fill:none" points="281.038,1326.04 290.487,1326.04 "/>
<polyline clip-path="url(#clip830)" style="stroke:#000000; stroke-linecap:round; stroke-linejoin:round; stroke-width:4; stroke-opacity:1; fill:none" points="281.038,1260.39 290.487,1260.39 "/>
<polyline clip-path="url(#clip830)" style="stroke:#000000; stroke-linecap:round; stroke-linejoin:round; stroke-width:4; stroke-opacity:1; fill:none" points="281.038,1194.74 290.487,1194.74 "/>
<polyline clip-path="url(#clip830)" style="stroke:#000000; stroke-linecap:round; stroke-linejoin:round; stroke-width:4; stroke-opacity:1; fill:none" points="281.038,1129.1 290.487,1129.1 "/>
<polyline clip-path="url(#clip830)" style="stroke:#000000; stroke-linecap:round; stroke-linejoin:round; stroke-width:4; stroke-opacity:1; fill:none" points="281.038,997.801 290.487,997.801 "/>
<polyline clip-path="url(#clip830)" style="stroke:#000000; stroke-linecap:round; stroke-linejoin:round; stroke-width:4; stroke-opacity:1; fill:none" points="281.038,932.154 290.487,932.154 "/>
<polyline clip-path="url(#clip830)" style="stroke:#000000; stroke-linecap:round; stroke-linejoin:round; stroke-width:4; stroke-opacity:1; fill:none" points="281.038,866.506 290.487,866.506 "/>
<polyline clip-path="url(#clip830)" style="stroke:#000000; stroke-linecap:round; stroke-linejoin:round; stroke-width:4; stroke-opacity:1; fill:none" points="281.038,800.859 290.487,800.859 "/>
<polyline clip-path="url(#clip830)" style="stroke:#000000; stroke-linecap:round; stroke-linejoin:round; stroke-width:4; stroke-opacity:1; fill:none" points="281.038,669.565 290.487,669.565 "/>
<polyline clip-path="url(#clip830)" style="stroke:#000000; stroke-linecap:round; stroke-linejoin:round; stroke-width:4; stroke-opacity:1; fill:none" points="281.038,603.918 290.487,603.918 "/>
<polyline clip-path="url(#clip830)" style="stroke:#000000; stroke-linecap:round; stroke-linejoin:round; stroke-width:4; stroke-opacity:1; fill:none" points="281.038,538.27 290.487,538.27 "/>
<polyline clip-path="url(#clip830)" style="stroke:#000000; stroke-linecap:round; stroke-linejoin:round; stroke-width:4; stroke-opacity:1; fill:none" points="281.038,472.623 290.487,472.623 "/>
<polyline clip-path="url(#clip830)" style="stroke:#000000; stroke-linecap:round; stroke-linejoin:round; stroke-width:4; stroke-opacity:1; fill:none" points="281.038,341.329 290.487,341.329 "/>
<polyline clip-path="url(#clip830)" style="stroke:#000000; stroke-linecap:round; stroke-linejoin:round; stroke-width:4; stroke-opacity:1; fill:none" points="281.038,275.682 290.487,275.682 "/>
<polyline clip-path="url(#clip830)" style="stroke:#000000; stroke-linecap:round; stroke-linejoin:round; stroke-width:4; stroke-opacity:1; fill:none" points="281.038,210.035 290.487,210.035 "/>
<polyline clip-path="url(#clip830)" style="stroke:#000000; stroke-linecap:round; stroke-linejoin:round; stroke-width:4; stroke-opacity:1; fill:none" points="281.038,144.387 290.487,144.387 "/>
<path clip-path="url(#clip830)" d="M157.701 1377.48 Q154.09 1377.48 152.261 1381.05 Q150.455 1384.59 150.455 1391.72 Q150.455 1398.82 152.261 1402.39 Q154.09 1405.93 157.701 1405.93 Q161.335 1405.93 163.14 1402.39 Q164.969 1398.82 164.969 1391.72 Q164.969 1384.59 163.14 1381.05 Q161.335 1377.48 157.701 1377.48 M157.701 1373.78 Q163.511 1373.78 166.566 1378.39 Q169.645 1382.97 169.645 1391.72 Q169.645 1400.45 166.566 1405.05 Q163.511 1409.64 157.701 1409.64 Q151.89 1409.64 148.812 1405.05 Q145.756 1400.45 145.756 1391.72 Q145.756 1382.97 148.812 1378.39 Q151.89 1373.78 157.701 1373.78 Z" fill="#000000" fill-rule="evenodd" fill-opacity="1" /><path clip-path="url(#clip830)" d="M177.863 1403.08 L182.747 1403.08 L182.747 1408.96 L177.863 1408.96 L177.863 1403.08 Z" fill="#000000" fill-rule="evenodd" fill-opacity="1" /><path clip-path="url(#clip830)" d="M192.978 1374.4 L211.335 1374.4 L211.335 1378.34 L197.261 1378.34 L197.261 1386.81 Q198.279 1386.46 199.298 1386.3 Q200.316 1386.12 201.335 1386.12 Q207.122 1386.12 210.501 1389.29 Q213.881 1392.46 213.881 1397.88 Q213.881 1403.45 210.409 1406.56 Q206.936 1409.64 200.617 1409.64 Q198.441 1409.64 196.173 1409.26 Q193.927 1408.89 191.52 1408.15 L191.52 1403.45 Q193.603 1404.59 195.825 1405.14 Q198.048 1405.7 200.524 1405.7 Q204.529 1405.7 206.867 1403.59 Q209.205 1401.49 209.205 1397.88 Q209.205 1394.26 206.867 1392.16 Q204.529 1390.05 200.524 1390.05 Q198.649 1390.05 196.774 1390.47 Q194.923 1390.89 192.978 1391.76 L192.978 1374.4 Z" fill="#000000" fill-rule="evenodd" fill-opacity="1" /><path clip-path="url(#clip830)" d="M233.094 1377.48 Q229.483 1377.48 227.654 1381.05 Q225.848 1384.59 225.848 1391.72 Q225.848 1398.82 227.654 1402.39 Q229.483 1405.93 233.094 1405.93 Q236.728 1405.93 238.534 1402.39 Q240.362 1398.82 240.362 1391.72 Q240.362 1384.59 238.534 1381.05 Q236.728 1377.48 233.094 1377.48 M233.094 1373.78 Q238.904 1373.78 241.959 1378.39 Q245.038 1382.97 245.038 1391.72 Q245.038 1400.45 241.959 1405.05 Q238.904 1409.64 233.094 1409.64 Q227.284 1409.64 224.205 1405.05 Q221.149 1400.45 221.149 1391.72 Q221.149 1382.97 224.205 1378.39 Q227.284 1373.78 233.094 1373.78 Z" fill="#000000" fill-rule="evenodd" fill-opacity="1" /><path clip-path="url(#clip830)" d="M158.696 1049.25 Q155.085 1049.25 153.256 1052.81 Q151.451 1056.35 151.451 1063.48 Q151.451 1070.59 153.256 1074.15 Q155.085 1077.7 158.696 1077.7 Q162.33 1077.7 164.136 1074.15 Q165.964 1070.59 165.964 1063.48 Q165.964 1056.35 164.136 1052.81 Q162.33 1049.25 158.696 1049.25 M158.696 1045.54 Q164.506 1045.54 167.562 1050.15 Q170.64 1054.73 170.64 1063.48 Q170.64 1072.21 167.562 1076.82 Q164.506 1081.4 158.696 1081.4 Q152.886 1081.4 149.807 1076.82 Q146.752 1072.21 146.752 1063.48 Q146.752 1054.73 149.807 1050.15 Q152.886 1045.54 158.696 1045.54 Z" fill="#000000" fill-rule="evenodd" fill-opacity="1" /><path clip-path="url(#clip830)" d="M178.858 1074.85 L183.742 1074.85 L183.742 1080.73 L178.858 1080.73 L178.858 1074.85 Z" fill="#000000" fill-rule="evenodd" fill-opacity="1" /><path clip-path="url(#clip830)" d="M192.747 1046.17 L214.969 1046.17 L214.969 1048.16 L202.423 1080.73 L197.538 1080.73 L209.344 1050.1 L192.747 1050.1 L192.747 1046.17 Z" fill="#000000" fill-rule="evenodd" fill-opacity="1" /><path clip-path="url(#clip830)" d="M224.135 1046.17 L242.492 1046.17 L242.492 1050.1 L228.418 1050.1 L228.418 1058.58 Q229.436 1058.23 230.455 1058.07 Q231.473 1057.88 232.492 1057.88 Q238.279 1057.88 241.658 1061.05 Q245.038 1064.22 245.038 1069.64 Q245.038 1075.22 241.566 1078.32 Q238.094 1081.4 231.774 1081.4 Q229.598 1081.4 227.33 1081.03 Q225.084 1080.66 222.677 1079.92 L222.677 1075.22 Q224.76 1076.35 226.983 1076.91 Q229.205 1077.46 231.682 1077.46 Q235.686 1077.46 238.024 1075.36 Q240.362 1073.25 240.362 1069.64 Q240.362 1066.03 238.024 1063.92 Q235.686 1061.82 231.682 1061.82 Q229.807 1061.82 227.932 1062.23 Q226.08 1062.65 224.135 1063.53 L224.135 1046.17 Z" fill="#000000" fill-rule="evenodd" fill-opacity="1" /><path clip-path="url(#clip830)" d="M148.511 748.557 L156.15 748.557 L156.15 722.191 L147.84 723.858 L147.84 719.599 L156.103 717.932 L160.779 717.932 L160.779 748.557 L168.418 748.557 L168.418 752.492 L148.511 752.492 L148.511 748.557 Z" fill="#000000" fill-rule="evenodd" fill-opacity="1" /><path clip-path="url(#clip830)" d="M177.863 746.612 L182.747 746.612 L182.747 752.492 L177.863 752.492 L177.863 746.612 Z" fill="#000000" fill-rule="evenodd" fill-opacity="1" /><path clip-path="url(#clip830)" d="M202.932 721.011 Q199.321 721.011 197.492 724.575 Q195.687 728.117 195.687 735.247 Q195.687 742.353 197.492 745.918 Q199.321 749.46 202.932 749.46 Q206.566 749.46 208.372 745.918 Q210.2 742.353 210.2 735.247 Q210.2 728.117 208.372 724.575 Q206.566 721.011 202.932 721.011 M202.932 717.307 Q208.742 717.307 211.798 721.913 Q214.876 726.497 214.876 735.247 Q214.876 743.973 211.798 748.58 Q208.742 753.163 202.932 753.163 Q197.122 753.163 194.043 748.58 Q190.987 743.973 190.987 735.247 Q190.987 726.497 194.043 721.913 Q197.122 717.307 202.932 717.307 Z" fill="#000000" fill-rule="evenodd" fill-opacity="1" /><path clip-path="url(#clip830)" d="M233.094 721.011 Q229.483 721.011 227.654 724.575 Q225.848 728.117 225.848 735.247 Q225.848 742.353 227.654 745.918 Q229.483 749.46 233.094 749.46 Q236.728 749.46 238.534 745.918 Q240.362 742.353 240.362 735.247 Q240.362 728.117 238.534 724.575 Q236.728 721.011 233.094 721.011 M233.094 717.307 Q238.904 717.307 241.959 721.913 Q245.038 726.497 245.038 735.247 Q245.038 743.973 241.959 748.58 Q238.904 753.163 233.094 753.163 Q227.284 753.163 224.205 748.58 Q221.149 743.973 221.149 735.247 Q221.149 726.497 224.205 721.913 Q227.284 717.307 233.094 717.307 Z" fill="#000000" fill-rule="evenodd" fill-opacity="1" /><path clip-path="url(#clip830)" d="M149.506 420.321 L157.145 420.321 L157.145 393.955 L148.835 395.622 L148.835 391.363 L157.099 389.696 L161.775 389.696 L161.775 420.321 L169.414 420.321 L169.414 424.256 L149.506 424.256 L149.506 420.321 Z" fill="#000000" fill-rule="evenodd" fill-opacity="1" /><path clip-path="url(#clip830)" d="M178.858 418.376 L183.742 418.376 L183.742 424.256 L178.858 424.256 L178.858 418.376 Z" fill="#000000" fill-rule="evenodd" fill-opacity="1" /><path clip-path="url(#clip830)" d="M197.955 420.321 L214.274 420.321 L214.274 424.256 L192.33 424.256 L192.33 420.321 Q194.992 417.566 199.575 412.937 Q204.182 408.284 205.362 406.941 Q207.608 404.418 208.487 402.682 Q209.39 400.923 209.39 399.233 Q209.39 396.478 207.446 394.742 Q205.524 393.006 202.423 393.006 Q200.224 393.006 197.77 393.77 Q195.339 394.534 192.562 396.085 L192.562 391.363 Q195.386 390.228 197.839 389.65 Q200.293 389.071 202.33 389.071 Q207.7 389.071 210.895 391.756 Q214.089 394.441 214.089 398.932 Q214.089 401.062 213.279 402.983 Q212.492 404.881 210.386 407.474 Q209.807 408.145 206.705 411.363 Q203.603 414.557 197.955 420.321 Z" fill="#000000" fill-rule="evenodd" fill-opacity="1" /><path clip-path="url(#clip830)" d="M224.135 389.696 L242.492 389.696 L242.492 393.631 L228.418 393.631 L228.418 402.103 Q229.436 401.756 230.455 401.594 Q231.473 401.409 232.492 401.409 Q238.279 401.409 241.658 404.58 Q245.038 407.752 245.038 413.168 Q245.038 418.747 241.566 421.849 Q238.094 424.927 231.774 424.927 Q229.598 424.927 227.33 424.557 Q225.084 424.187 222.677 423.446 L222.677 418.747 Q224.76 419.881 226.983 420.437 Q229.205 420.992 231.682 420.992 Q235.686 420.992 238.024 418.886 Q240.362 416.779 240.362 413.168 Q240.362 409.557 238.024 407.451 Q235.686 405.344 231.682 405.344 Q229.807 405.344 227.932 405.761 Q226.08 406.177 224.135 407.057 L224.135 389.696 Z" fill="#000000" fill-rule="evenodd" fill-opacity="1" /><path clip-path="url(#clip830)" d="M148.511 92.085 L156.15 92.085 L156.15 65.7194 L147.84 67.3861 L147.84 63.1268 L156.103 61.4602 L160.779 61.4602 L160.779 92.085 L168.418 92.085 L168.418 96.0202 L148.511 96.0202 L148.511 92.085 Z" fill="#000000" fill-rule="evenodd" fill-opacity="1" /><path clip-path="url(#clip830)" d="M177.863 90.1406 L182.747 90.1406 L182.747 96.0202 L177.863 96.0202 L177.863 90.1406 Z" fill="#000000" fill-rule="evenodd" fill-opacity="1" /><path clip-path="url(#clip830)" d="M192.978 61.4602 L211.335 61.4602 L211.335 65.3953 L197.261 65.3953 L197.261 73.8675 Q198.279 73.5203 199.298 73.3582 Q200.316 73.1731 201.335 73.1731 Q207.122 73.1731 210.501 76.3443 Q213.881 79.5156 213.881 84.9323 Q213.881 90.5109 210.409 93.6128 Q206.936 96.6915 200.617 96.6915 Q198.441 96.6915 196.173 96.3211 Q193.927 95.9507 191.52 95.21 L191.52 90.5109 Q193.603 91.6452 195.825 92.2007 Q198.048 92.7563 200.524 92.7563 Q204.529 92.7563 206.867 90.6498 Q209.205 88.5433 209.205 84.9323 Q209.205 81.3212 206.867 79.2147 Q204.529 77.1082 200.524 77.1082 Q198.649 77.1082 196.774 77.5249 Q194.923 77.9416 192.978 78.8212 L192.978 61.4602 Z" fill="#000000" fill-rule="evenodd" fill-opacity="1" /><path clip-path="url(#clip830)" d="M233.094 64.5388 Q229.483 64.5388 227.654 68.1036 Q225.848 71.6453 225.848 78.7749 Q225.848 85.8813 227.654 89.4461 Q229.483 92.9878 233.094 92.9878 Q236.728 92.9878 238.534 89.4461 Q240.362 85.8813 240.362 78.7749 Q240.362 71.6453 238.534 68.1036 Q236.728 64.5388 233.094 64.5388 M233.094 60.8352 Q238.904 60.8352 241.959 65.4416 Q245.038 70.0249 245.038 78.7749 Q245.038 87.5017 241.959 92.1081 Q238.904 96.6915 233.094 96.6915 Q227.284 96.6915 224.205 92.1081 Q221.149 87.5017 221.149 78.7749 Q221.149 70.0249 224.205 65.4416 Q227.284 60.8352 233.094 60.8352 Z" fill="#000000" fill-rule="evenodd" fill-opacity="1" /><path clip-path="url(#clip830)" d="M47.9802 750.521 L47.9802 720.475 L53.3911 720.475 L53.3911 744.092 L67.4593 744.092 L67.4593 721.462 L72.8701 721.462 L72.8701 744.092 L90.0894 744.092 L90.0894 719.902 L95.5002 719.902 L95.5002 750.521 L47.9802 750.521 Z" fill="#000000" fill-rule="evenodd" fill-opacity="1" /><polyline clip-path="url(#clip832)" style="stroke:#000000; stroke-linecap:round; stroke-linejoin:round; stroke-width:8; stroke-opacity:1; fill:none" points="441.319,2704.63 441.319,-1234.2 "/>
<polyline clip-path="url(#clip832)" style="stroke:#ffa500; stroke-linecap:round; stroke-linejoin:round; stroke-width:8; stroke-opacity:1; fill:none" points="351.807,2704.63 351.807,-1234.2 "/>
<polyline clip-path="url(#clip832)" style="stroke:#000000; stroke-linecap:round; stroke-linejoin:round; stroke-width:6; stroke-opacity:1; fill:none" stroke-dasharray="24, 15" points="352.516,3495.97 354.243,3483.96 355.977,3471.93 357.718,3459.86 359.465,3447.75 361.219,3435.61 362.981,3423.43 364.749,3411.21 366.525,3398.95 368.307,3386.65 370.097,3374.31 371.894,3361.91 373.699,3349.47 375.511,3336.98 377.33,3324.44 379.157,3311.85 380.991,3299.2 382.833,3286.49 384.683,3273.72 386.54,3260.89 388.405,3248 390.279,3235.04 392.16,3222.02 394.049,3208.92 395.946,3195.76 397.851,3182.51 399.765,3169.19 401.687,3155.79 403.617,3142.31 405.556,3128.74 407.503,3115.09 409.459,3101.34 411.423,3087.5 413.396,3073.56 415.378,3059.52 417.369,3045.37 419.369,3031.12 421.378,3016.76 423.396,3002.28 425.424,2987.68 427.461,2972.96 429.507,2958.12 431.562,2943.14 433.628,2928.02 435.702,2912.77 437.787,2897.37 439.882,2881.82 441.986,2873.61 444.101,2881.65 446.225,2889.87 448.36,2898.26 450.505,2906.83 452.661,2915.59 454.827,2924.54 457.004,2933.7 459.191,2943.06 461.39,2952.65 463.599,2962.46 465.82,2972.52 468.051,2982.82 470.294,2993.37 472.549,3004.2 474.815,3015.3 477.092,3026.7 479.382,3038.4 481.683,3050.43 483.996,3062.78 486.321,3075.49 488.659,3088.56 491.009,3102.02 493.372,3115.88 495.747,3130.17 498.135,3144.9 500.536,3160.09 502.95,3175.79 505.377,3192 507.818,3208.76 510.272,3226.1 512.74,3244.06 515.222,3262.67 517.717,3281.96 520.227,3302 522.751,3322.81 525.29,3344.45 527.843,3366.98 530.411,3390.45 532.994,3414.94 535.592,3440.52 538.205,3467.26 540.834,3495.26 543.479,3524.62 546.139,3555.45 548.816,3587.87 551.509,3622.02 554.218,3658.05 556.944,3696.14 559.687,3736.49 562.447,3779.32 565.224,3824.88 568.019,3873.48 570.832,3925.46 573.662,3981.2 576.511,4041.17 579.378,4105.9 582.264,4176.05 585.169,4252.37 588.092,4335.78 591.036,4427.39 593.999,4528.58 596.982,4641.04 599.985,4766.9 603.009,4908.87 606.053,5070.5 609.119,5256.42 612.205,5472.91 615.314,5728.65 618.445,6036.01 621.597,6413.25 624.773,6888.51 627.971,7507.57 631.193,8350.36 634.438,9570.14 637.707,11503 641,15056.9 644.318,23833.1 647.661,82833.5 651.03,-40875.9 654.424,-15214.1 657.845,-8899.98 661.292,-6041.65 664.766,-4411.2 668.268,-3357.29 671.797,-2620.19 675.355,-2075.9 678.942,-1657.7 682.558,-1326.5 686.204,-1057.91 689.88,-835.848 693.587,-649.349 697.325,-490.638 701.094,-354.058 704.897,-235.397 708.732,-131.449 712.6,-39.735 716.503,41.6976 720.44,114.404 724.413,179.639 728.422,238.429 732.467,291.617 736.549,339.906 740.67,383.887 744.829,424.057 749.027,460.839 753.266,494.597 757.546,525.644 761.867,554.25 766.231,580.65 770.639,605.052 775.09,627.635 779.587,648.561 784.13,667.97 788.72,685.989 793.358,702.729 798.045,718.29 802.783,732.764 807.571,746.231 812.412,758.763 817.306,770.428 822.255,781.286 827.26,791.391 832.322,800.793 837.443,809.537 842.623,817.665 847.865,825.216 853.17,832.224 858.538,838.721 863.973,844.738 869.475,850.302 875.046,855.437 880.689,860.169 886.404,864.519 892.194,868.506 898.06,872.15 904.005,875.469 910.031,878.478 916.14,881.194 922.335,883.63 928.617,885.8 934.99,887.716 941.456,889.39 948.017,890.834 954.678,892.057 961.439,893.07 968.306,893.881 975.281,894.5 982.367,894.934 989.569,895.191 996.889,895.279 1004.33,895.204 1011.9,894.973 1019.61,894.592 1027.44,894.067 1035.42,893.404 1043.55,892.607 1051.83,891.683 1060.26,890.634 1068.86,889.467 1077.63,888.186 1086.58,886.794 1095.71,885.295 1105.03,883.694 1114.56,881.993 1124.29,880.197 1134.24,878.307 1144.42,876.329 1154.84,874.264 1165.51,872.115 1176.45,869.885 1187.66,867.576 1199.16,865.192 1210.97,862.734 1223.1,860.205 1235.57,857.607 1248.41,854.942 1261.63,852.212 1275.25,849.418 1289.31,846.564 1303.82,843.65 1318.83,840.679 1334.37,837.652 1350.47,834.57 1367.18,831.435 1384.54,828.249 1402.61,825.013 1421.45,821.728 1441.12,818.397 1461.71,815.019 1483.31,811.596 1506.01,808.129 1529.94,804.62 1555.23,801.07 1582.05,797.48 1610.61,793.85 1641.13,790.182 1673.92,786.476 1709.32,782.735 1747.8,778.957 1789.94,775.145 1836.52,771.3 1888.58,767.421 1947.58,763.51 2015.66,759.568 2096.14,755.595 2194.55,751.593 2321.26,747.56 "/>
<polyline clip-path="url(#clip832)" style="stroke:#000000; stroke-linecap:round; stroke-linejoin:round; stroke-width:7.2; stroke-opacity:1; fill:none" points="281.038,1072.12 282.507,1074.98 283.982,1077.81 285.461,1080.63 286.945,1083.43 288.434,1086.21 289.928,1088.96 291.427,1091.7 292.931,1094.42 294.441,1097.12 295.955,1099.79 297.475,1102.45 299,1105.09 300.53,1107.7 302.066,1110.3 303.607,1112.87 305.153,1115.43 306.704,1117.96 308.262,1120.47 309.824,1122.95 311.392,1125.42 312.966,1127.86 314.545,1130.28 316.13,1132.68 317.721,1135.06 319.317,1137.41 320.919,1139.74 322.527,1142.05 324.141,1144.33 325.761,1146.59 327.387,1148.82 329.018,1151.03 330.656,1153.21 332.3,1155.37 333.95,1157.51 335.606,1159.62 337.268,1161.7 338.937,1163.76 340.611,1165.79 342.293,1167.79 343.98,1169.77 345.674,1171.72 347.375,1173.65 349.082,1175.54 350.796,1177.41 352.516,1179.25 354.243,1181.06 355.977,1182.84 357.718,1184.59 359.465,1186.31 361.219,1188.01 362.981,1189.67 364.749,1191.3 366.525,1192.9 368.307,1194.46 370.097,1196 371.894,1197.5 373.699,1198.97 375.511,1200.41 377.33,1201.81 379.157,1203.18 380.991,1204.51 382.833,1205.81 384.683,1207.07 386.54,1208.29 388.405,1209.48 390.279,1210.63 392.16,1211.74 394.049,1212.82 395.946,1213.85 397.851,1214.85 399.765,1215.8 401.687,1216.72 403.617,1217.59 405.556,1218.42 407.503,1219.21 409.459,1219.95 411.423,1220.65 413.396,1221.3 415.378,1221.91 417.369,1222.47 419.369,1222.98 421.378,1223.44 423.396,1223.85 425.424,1224.22 427.461,1224.53 429.507,1224.79 431.562,1224.99 433.628,1225.15 435.702,1225.24 437.787,1225.28 439.882,1225.26 441.986,1227.72 444.101,1235.69 446.225,1243.71 448.36,1251.8 450.505,1259.95 452.661,1268.17 454.827,1276.45 457.004,1284.8 459.191,1293.22 461.39,1301.72 463.599,1310.29 465.82,1318.93 468.051,1327.65 470.294,1336.45 472.549,1345.33 474.815,1354.3 477.092,1363.35 479.382,1372.49 481.683,1381.71 483.996,1391.04 486.321,1400.45 488.659,1409.96 491.009,1419.58 493.372,1429.3 495.747,1439.12 498.135,1449.06 500.536,1459.11 502.95,1469.27 505.377,1479.56 507.818,1489.97 510.272,1500.52 512.74,1511.19 515.222,1522 517.717,1532.96 520.227,1544.07 522.751,1555.33 525.29,1566.75 527.843,1578.33 530.411,1590.09 532.994,1602.03 535.592,1614.15 538.205,1626.47 540.834,1639 543.479,1651.74 546.139,1664.7 548.816,1677.89 551.509,1691.32 554.218,1705.02 556.944,1718.98 559.687,1733.23 562.447,1747.77 565.224,1762.63 568.019,1777.83 570.832,1793.37 573.662,1809.3 576.511,1825.62 579.378,1842.36 582.264,1859.56 585.169,1877.24 588.092,1895.44 591.036,1914.19 "/>
<polyline clip-path="url(#clip832)" style="stroke:#000000; stroke-linecap:round; stroke-linejoin:round; stroke-width:7.2; stroke-opacity:1; fill:none" points="596.982,1953.56 599.985,1974.28 "/>
<polyline clip-path="url(#clip832)" style="stroke:#000000; stroke-linecap:round; stroke-linejoin:round; stroke-width:7.2; stroke-opacity:1; fill:none" points="609.119,2041.36 612.205,2065.63 615.314,2091.04 "/>
<polyline clip-path="url(#clip832)" style="stroke:#000000; stroke-linecap:round; stroke-linejoin:round; stroke-width:7.2; stroke-opacity:1; fill:none" points="621.597,140.566 624.773,325.271 627.971,405.449 631.193,457.183 634.438,494.882 637.707,524.157 641,547.812 644.318,567.459 647.661,584.109 651.03,598.44 654.424,610.928 657.845,621.92 661.292,631.676 664.766,640.396 668.268,648.236 671.797,655.323 675.355,661.757 678.942,667.621 682.558,672.986 686.204,677.908 689.88,682.438 693.587,686.615 697.325,690.478 701.094,694.056 704.897,697.376 708.732,700.463 712.6,703.337 716.503,706.016 720.44,708.517 724.413,710.854 728.422,713.039 732.467,715.086 736.549,717.003 740.67,718.801 744.829,720.488 749.027,722.072 753.266,723.56 757.546,724.957 761.867,726.271 766.231,727.507 770.639,728.669 775.09,729.762 779.587,730.79 784.13,731.757 788.72,732.666 793.358,733.522 798.045,734.327 802.783,735.083 807.571,735.794 812.412,736.462 817.306,737.089 822.255,737.678 827.26,738.23 832.322,738.747 837.443,739.232 842.623,739.685 847.865,740.108 853.17,740.503 858.538,740.871 863.973,741.214 869.475,741.532 875.046,741.827 880.689,742.099 886.404,742.351 892.194,742.582 898.06,742.794 904.005,742.987 910.031,743.163 916.14,743.322 922.335,743.465 928.617,743.593 934.99,743.706 941.456,743.805 948.017,743.89 954.678,743.962 961.439,744.022 968.306,744.07 975.281,744.107 982.367,744.132 989.569,744.148 996.889,744.153 1004.33,744.148 1011.9,744.135 1019.61,744.112 1027.44,744.081 1035.42,744.042 1043.55,743.995 1051.83,743.94 1060.26,743.878 1068.86,743.809 1077.63,743.734 1086.58,743.651 1095.71,743.563 1105.03,743.469 1114.56,743.369 1124.29,743.264 1134.24,743.153 1144.42,743.038 1154.84,742.917 1165.51,742.792 1176.45,742.662 1187.66,742.528 1199.16,742.39 1210.97,742.247 1223.1,742.101 1235.57,741.951 1248.41,741.798 1261.63,741.641 1275.25,741.481 1289.31,741.318 1303.82,741.152 1318.83,740.982 1334.37,740.81 1350.47,740.636 1367.18,740.458 1384.54,740.279 1402.61,740.097 1421.45,739.912 1441.12,739.726 1461.71,739.537 1483.31,739.346 1506.01,739.153 1529.94,738.959 1555.23,738.763 1582.05,738.565 1610.61,738.365 1641.13,738.164 1673.92,737.961 1709.32,737.757 1747.8,737.551 1789.94,737.344 1836.52,737.136 1888.58,736.927 1947.58,736.717 2015.66,736.505 2096.14,736.293 2194.55,736.079 2321.26,735.865 "/>
<polyline clip-path="url(#clip832)" style="stroke:#000000; stroke-linecap:round; stroke-linejoin:round; stroke-width:4; stroke-opacity:1; fill:none" points="281.038,2452.83 282.507,2449.72 283.982,2446.6 285.461,2443.47 286.945,2440.32 288.434,2437.16 289.928,2433.98 291.427,2430.79 292.931,2427.59 294.441,2424.36 295.955,2421.13 297.475,2417.87 299,2414.6 300.53,2411.31 302.066,2408.01 303.607,2404.68 305.153,2401.34 306.704,2397.97 308.262,2394.59 309.824,2391.19 311.392,2387.77 312.966,2384.32 314.545,2380.85 316.13,2377.37 317.721,2373.86 319.317,2370.32 320.919,2366.76 322.527,2363.18 324.141,2359.58 325.761,2355.95 327.387,2352.29 329.018,2348.61 330.656,2344.9 332.3,2341.16 333.95,2337.4 335.606,2333.6 337.268,2329.78 338.937,2325.93 340.611,2322.05 342.293,2318.14 343.98,2314.2 345.674,2310.23 347.375,2306.22 349.082,2302.19 350.796,2298.11 352.516,2294.01 354.243,2289.87 355.977,2285.69 357.718,2281.48 359.465,2277.23 361.219,2272.94 362.981,2268.62 364.749,2264.25 366.525,2259.85 368.307,2255.41 370.097,2250.92 371.894,2246.39 373.699,2241.82 375.511,2237.21 377.33,2232.55 379.157,2227.84 380.991,2223.09 382.833,2218.29 384.683,2213.44 386.54,2208.54 388.405,2203.6 390.279,2198.59 392.16,2193.54 394.049,2188.43 395.946,2183.27 397.851,2178.05 399.765,2172.78 401.687,2167.44 403.617,2162.05 405.556,2156.59 407.503,2151.07 409.459,2145.49 411.423,2139.84 413.396,2134.12 415.378,2128.33 417.369,2122.47 419.369,2116.54 421.378,2110.54 423.396,2104.46 425.424,2098.3 427.461,2092.06 429.507,2085.74 431.562,2079.34 433.628,2072.85 435.702,2066.27 437.787,2059.6 439.882,2052.83 441.986,2050.34 444.101,2057.3 446.225,2064.36 448.36,2071.52 450.505,2078.8 452.661,2086.18 454.827,2093.68 457.004,2101.3 459.191,2109.04 461.39,2116.9 463.599,2124.9 465.82,2133.03 468.051,2141.29 470.294,2149.7 472.549,2158.26 474.815,2166.97 477.092,2175.84 479.382,2184.87 481.683,2194.08 483.996,2203.46 486.321,2213.02 488.659,2222.78 491.009,2232.73 493.372,2242.89 495.747,2253.26 498.135,2263.86 500.536,2274.69 502.95,2285.77 505.377,2297.1 507.818,2308.7 510.272,2320.57 512.74,2332.74 515.222,2345.21 517.717,2358.01 520.227,2371.15 522.751,2384.64 525.29,2398.5 527.843,2412.77 530.411,2427.45 532.994,2442.58 535.592,2458.18 538.205,2474.28 540.834,2490.9 543.479,2508.1 546.139,2525.9 548.816,2544.34 551.509,2563.48 554.218,2583.37 556.944,2604.05 559.687,2625.6 562.447,2648.09 565.224,2671.59 568.019,2696.21 570.832,2722.03 573.662,2749.18 576.511,2777.8 579.378,2808.03 582.264,2840.06 585.169,2874.09 588.092,2910.38 591.036,2949.2 593.999,2990.92 596.982,3035.95 599.985,3084.8 603.009,3138.12 606.053,3196.69 609.119,3261.53 612.205,3333.97 615.314,3415.75 618.445,3509.26 621.597,3617.85 624.773,3746.39 627.971,3902.35 631.193,4097.84 634.438,4354.19 637.707,4713.59 641,5275.8 644.318,6367.28 647.661,10666.8 651.03,-4331.86 654.424,-2013.96 657.845,-1200.42 661.292,-756.422 664.766,-468.942 668.268,-264.669 671.797,-110.73 675.355,10.0797 678.942,107.748 682.558,188.517 686.204,256.511 689.88,314.581 693.587,364.764 697.325,408.563 701.094,447.109 704.897,481.275 708.732,511.747 712.6,539.07 716.503,563.683 720.44,585.946 724.413,606.158 728.422,624.565 732.467,641.377 736.549,656.77 740.67,670.895 744.829,683.882 749.027,695.844 753.266,706.879 757.546,717.071 761.867,726.496 766.231,735.22 770.639,743.301 775.09,750.793 779.587,757.741 784.13,764.188 788.72,770.17 793.358,775.722 798.045,780.875 802.783,785.655 807.571,790.088 812.412,794.197 817.306,798.003 822.255,801.526 827.26,804.781 832.322,807.787 837.443,810.557 842.623,813.105 847.865,815.444 853.17,817.585 858.538,819.54 863.973,821.318 869.475,822.929 875.046,824.381 880.689,825.683 886.404,826.842 892.194,827.865 898.06,828.759 904.005,829.529 910.031,830.182 916.14,830.724 922.335,831.158 928.617,831.491 934.99,831.726 941.456,831.867 948.017,831.92 954.678,831.887 961.439,831.773 968.306,831.579 975.281,831.311 982.367,830.97 989.569,830.56 996.889,830.084 1004.33,829.543 1011.9,828.941 1019.61,828.279 1027.44,827.561 1035.42,826.787 1043.55,825.961 1051.83,825.083 1060.26,824.156 1068.86,823.182 1077.63,822.162 1086.58,821.098 1095.71,819.991 1105.03,818.842 1114.56,817.654 1124.29,816.428 1134.24,815.164 1144.42,813.863 1154.84,812.528 1165.51,811.16 1176.45,809.758 1187.66,808.325 1199.16,806.861 1210.97,805.367 1223.1,803.844 1235.57,802.293 1248.41,800.715 1261.63,799.111 1275.25,797.481 1289.31,795.826 1303.82,794.147 1318.83,792.445 1334.37,790.72 1350.47,788.973 1367.18,787.204 1384.54,785.414 1402.61,783.604 1421.45,781.774 1441.12,779.925 1461.71,778.057 1483.31,776.171 1506.01,774.267 1529.94,772.346 1555.23,770.408 1582.05,768.453 1610.61,766.483 1641.13,764.497 1673.92,762.496 1709.32,760.48 1747.8,758.449 1789.94,756.405 1836.52,754.346 1888.58,752.275 1947.58,750.19 2015.66,748.092 2096.14,745.982 2194.55,743.86 2321.26,741.726 "/>
<polyline clip-path="url(#clip832)" style="stroke:#ffa500; stroke-linecap:round; stroke-linejoin:round; stroke-width:6; stroke-opacity:1; fill:none" stroke-dasharray="24, 15" points="311.392,3639.98 312.966,3645.09 314.545,3645.31 316.13,3643.33 317.721,3640.04 319.317,3635.9 320.919,3631.13 322.527,3625.9 324.141,3620.29 325.761,3614.39 327.387,3608.23 329.018,3601.87 330.656,3595.32 332.3,3588.61 333.95,3581.76 335.606,3574.78 337.268,3567.68 338.937,3560.48 340.611,3553.18 342.293,3545.79 343.98,3538.31 345.674,3530.75 347.375,3523.11 349.082,3515.39 350.796,3507.61 352.516,2607.73 354.243,2607.83 355.977,2607.99 357.718,2608.21 359.465,2608.5 361.219,2608.84 362.981,2609.25 364.749,2609.72 366.525,2610.24 368.307,2610.83 370.097,2611.47 371.894,2612.17 373.699,2612.93 375.511,2613.74 377.33,2614.61 379.157,2615.54 380.991,2616.53 382.833,2617.57 384.683,2618.67 386.54,2619.83 388.405,2621.05 390.279,2622.33 392.16,2623.67 394.049,2625.06 395.946,2626.52 397.851,2628.04 399.765,2629.62 401.687,2631.26 403.617,2632.96 405.556,2634.73 407.503,2636.56 409.459,2638.46 411.423,2640.43 413.396,2642.46 415.378,2644.56 417.369,2646.72 419.369,2648.96 421.378,2651.27 423.396,2653.65 425.424,2656.11 427.461,2658.64 429.507,2661.24 431.562,2663.93 433.628,2666.69 435.702,2669.53 437.787,2672.45 439.882,2675.46 441.986,2678.55 444.101,2681.73 446.225,-8353.42 448.36,-6735.32 450.505,-5566.52 452.661,-4682.61 454.827,-3990.68 457.004,-3434.3 459.191,-2977.19 461.39,-2594.95 463.599,-2270.6 465.82,-1991.93 468.051,-1749.95 470.294,-1537.87 472.549,-1350.51 474.815,-1183.8 477.092,-1034.53 479.382,-900.129 481.683,-778.498 483.996,-667.924 486.321,-566.988 488.659,-474.504 491.009,-389.475 493.372,-311.055 495.747,-238.522 498.135,-171.257 500.536,-108.725 502.95,-50.4615 505.377,3.9382 507.818,54.8289 510.272,102.523 512.74,147.296 515.222,189.393 517.717,229.032 520.227,266.406 522.751,301.691 525.29,335.042 527.843,366.602 530.411,396.496 532.994,424.842 535.592,451.743 538.205,477.294 540.834,501.584 543.479,524.692 546.139,546.69 548.816,567.645 551.509,587.62 554.218,606.67 556.944,624.848 559.687,642.202 562.447,658.777 565.224,674.614 568.019,689.752 570.832,704.227 573.662,718.072 576.511,731.318 579.378,743.994 582.264,756.127 585.169,767.743 588.092,778.865 591.036,789.516 593.999,799.716 596.982,809.485 599.985,818.842 603.009,827.803 606.053,836.386 609.119,844.606 612.205,852.478 615.314,860.014 618.445,867.229 621.597,874.135 624.773,880.743 627.971,887.065 631.193,893.11 634.438,898.89 637.707,904.413 641,909.689 644.318,914.725 647.661,919.531 651.03,924.115 654.424,928.482 657.845,932.642 661.292,936.6 664.766,940.362 668.268,943.936 671.797,947.326 675.355,950.539 678.942,953.58 682.558,956.454 686.204,959.167 689.88,961.721 693.587,964.124 697.325,966.378 701.094,968.488 704.897,970.458 708.732,972.292 712.6,973.993 716.503,975.566 720.44,977.013 724.413,978.338 728.422,979.543 732.467,980.633 736.549,981.611 740.67,982.478 744.829,983.237 749.027,983.892 753.266,984.445 757.546,984.898 761.867,985.254 766.231,985.515 770.639,985.683 775.09,985.761 779.587,985.75 784.13,985.652 788.72,985.47 793.358,985.205 798.045,984.86 802.783,984.435 807.571,983.933 812.412,983.354 817.306,982.702 822.255,981.977 827.26,981.181 832.322,980.316 837.443,979.382 842.623,978.381 847.865,977.315 853.17,976.184 858.538,974.99 863.973,973.735 869.475,972.419 875.046,971.044 880.689,969.61 886.404,968.119 892.194,966.572 898.06,964.969 904.005,963.313 910.031,961.603 916.14,959.841 922.335,958.028 928.617,956.164 934.99,954.25 941.456,952.288 948.017,950.278 954.678,948.221 961.439,946.117 968.306,943.968 975.281,941.775 982.367,939.537 989.569,937.255 996.889,934.931 1004.33,932.565 1011.9,930.157 1019.61,927.709 1027.44,925.22 1035.42,922.692 1043.55,920.125 1051.83,917.52 1060.26,914.877 1068.86,912.196 1077.63,909.479 1086.58,906.726 1095.71,903.937 1105.03,901.112 1114.56,898.253 1124.29,895.36 1134.24,892.432 1144.42,889.472 1154.84,886.478 1165.51,883.452 1176.45,880.394 1187.66,877.304 1199.16,874.182 1210.97,871.03 1223.1,867.848 1235.57,864.635 1248.41,861.392 1261.63,858.12 1275.25,854.818 1289.31,851.488 1303.82,848.129 1318.83,844.742 1334.37,841.327 1350.47,837.885 1367.18,834.415 1384.54,830.918 1402.61,827.394 1421.45,823.844 1441.12,820.267 1461.71,816.665 1483.31,813.036 1506.01,809.382 1529.94,805.702 1555.23,801.998 1582.05,798.268 1610.61,794.514 1641.13,790.734 1673.92,786.931 1709.32,783.103 1747.8,779.251 1789.94,775.374 1836.52,771.474 1888.58,767.55 1947.58,763.602 2015.66,759.63 2096.14,755.634 2194.55,751.615 2321.26,747.571 "/>
<polyline clip-path="url(#clip832)" style="stroke:#ffa500; stroke-linecap:round; stroke-linejoin:round; stroke-width:4; stroke-opacity:1; fill:none" points="281.038,2164.28 282.507,2152.12 283.982,2140.01 285.461,2127.92 286.945,2115.86 288.434,2103.84 289.928,2091.84 291.427,2079.87 292.931,2067.93 294.441,2056.01 295.955,2044.11 297.475,2032.22 299,2020.34 300.53,2008.47 302.066,1996.61 303.607,1984.75 305.153,1972.88 306.704,1961 308.262,1949.1 309.824,1937.18 311.392,1925.24 312.966,1913.26 314.545,1901.24 316.13,1889.18 317.721,1877.06 319.317,1864.89 320.919,1852.64 322.527,1840.32 324.141,1827.92 325.761,1815.42 327.387,1802.82 329.018,1790.11 330.656,1777.28 332.3,1764.32 333.95,1751.22 335.606,1737.96 337.268,1724.54 338.937,1710.95 340.611,1697.16 342.293,1683.18 343.98,1668.97 345.674,1654.53 347.375,1639.83 349.082,1624.87 350.796,1609.63 352.516,2502.24 354.243,2518.12 355.977,2534.36 357.718,2550.97 359.465,2567.98 361.219,2585.43 362.981,2603.35 364.749,2621.76 366.525,2640.71 368.307,2660.23 370.097,2680.38 371.894,2701.2 373.699,2722.75 375.511,2745.08 377.33,2768.27 379.157,2792.39 380.991,2817.52 382.833,2843.76 384.683,2871.21 386.54,2900.01 388.405,2930.27 390.279,2962.18 392.16,2995.9 394.049,3031.66 395.946,3069.71 397.851,3110.34 399.765,3153.9 401.687,3200.83 403.617,3251.63 405.556,3306.95 407.503,3367.57 409.459,3434.5 411.423,3509.03 413.396,3592.85 415.378,3688.26 417.369,3798.4 419.369,3927.81 421.378,4083.26 423.396,4275.42 425.424,4522.36 427.461,4857.82 429.507,5354.53 431.562,6212.02 433.628,8345.15 435.702,-10900.7 437.787,-3227.31 439.882,-1882.05 441.986,-1240.89 444.101,-849.686 446.225,-580.556 448.36,-381.634 450.505,-227.395 452.661,-103.632 454.827,-1.73483 457.004,83.8601 459.191,156.924 461.39,220.117 463.599,275.375 465.82,324.142 468.051,367.523 470.294,406.38 472.549,441.392 474.815,473.106 477.092,501.967 479.382,528.341 481.683,552.532 483.996,574.794 486.321,595.344 488.659,614.365 491.009,632.014 493.372,648.428 495.747,663.724 498.135,678.005 500.536,691.363 502.95,703.875 505.377,715.614 507.818,726.641 510.272,737.013 512.74,746.779 515.222,755.984 517.717,764.668 520.227,772.868 522.751,780.618 525.29,787.946 527.843,794.881 530.411,801.446 532.994,807.666 535.592,813.561 538.205,819.15 540.834,824.451 543.479,829.48 546.139,834.252 548.816,838.78 551.509,843.079 554.218,847.16 556.944,851.033 559.687,854.71 562.447,858.199 565.224,861.51 568.019,864.652 570.832,867.632 573.662,870.457 576.511,873.134 579.378,875.67 582.264,878.072 585.169,880.343 588.092,882.491 591.036,884.52 593.999,886.435 596.982,888.241 599.985,889.941 603.009,891.539 606.053,893.041 609.119,894.448 612.205,895.765 615.314,896.995 618.445,898.141 621.597,899.206 624.773,900.193 627.971,901.104 631.193,901.943 634.438,902.71 637.707,903.409 641,904.042 644.318,904.611 647.661,905.118 651.03,905.565 654.424,905.954 657.845,906.286 661.292,906.563 664.766,906.787 668.268,906.959 671.797,907.081 675.355,907.155 678.942,907.18 682.558,907.16 686.204,907.095 689.88,906.986 693.587,906.834 697.325,906.641 701.094,906.408 704.897,906.135 708.732,905.824 712.6,905.476 716.503,905.091 720.44,904.67 724.413,904.215 728.422,903.726 732.467,903.204 736.549,902.649 740.67,902.063 744.829,901.446 749.027,900.798 753.266,900.121 757.546,899.416 761.867,898.682 766.231,897.92 770.639,897.131 775.09,896.316 779.587,895.475 784.13,894.608 788.72,893.717 793.358,892.801 798.045,891.861 802.783,890.897 807.571,889.911 812.412,888.902 817.306,887.871 822.255,886.818 827.26,885.744 832.322,884.649 837.443,883.533 842.623,882.397 847.865,881.241 853.17,880.066 858.538,878.871 863.973,877.658 869.475,876.426 875.046,875.176 880.689,873.909 886.404,872.623 892.194,871.32 898.06,870 904.005,868.664 910.031,867.311 916.14,865.941 922.335,864.556 928.617,863.155 934.99,861.738 941.456,860.306 948.017,858.859 954.678,857.397 961.439,855.92 968.306,854.429 975.281,852.924 982.367,851.404 989.569,849.871 996.889,848.324 1004.33,846.764 1011.9,845.19 1019.61,843.603 1027.44,842.003 1035.42,840.391 1043.55,838.765 1051.83,837.128 1060.26,835.477 1068.86,833.815 1077.63,832.141 1086.58,830.454 1095.71,828.756 1105.03,827.046 1114.56,825.325 1124.29,823.592 1134.24,821.848 1144.42,820.093 1154.84,818.327 1165.51,816.55 1176.45,814.762 1187.66,812.964 1199.16,811.154 1210.97,809.335 1223.1,807.504 1235.57,805.664 1248.41,803.813 1261.63,801.953 1275.25,800.082 1289.31,798.201 1303.82,796.31 1318.83,794.41 1334.37,792.499 1350.47,790.58 1367.18,788.65 1384.54,786.711 1402.61,784.763 1421.45,782.805 1441.12,780.838 1461.71,778.861 1483.31,776.875 1506.01,774.88 1529.94,772.876 1555.23,770.863 1582.05,768.841 1610.61,766.809 1641.13,764.769 1673.92,762.72 1709.32,760.661 1747.8,758.594 1789.94,756.518 1836.52,754.432 1888.58,752.338 1947.58,750.235 2015.66,748.123 2096.14,746.002 2194.55,743.871 2321.26,741.732 "/>
<polyline clip-path="url(#clip832)" style="stroke:#ffa500; stroke-linecap:round; stroke-linejoin:round; stroke-width:7.2; stroke-opacity:1; fill:none" points="281.038,513.732 282.507,515.792 283.982,517.889 285.461,520.015 286.945,522.166 288.434,524.337 289.928,526.523 291.427,528.72 292.931,530.924 294.441,533.13 295.955,535.337 297.475,537.54 299,539.736 300.53,541.922 302.066,544.096 303.607,546.254 305.153,548.395 306.704,550.516 308.262,552.615 309.824,554.689 311.392,556.737 312.966,558.755 314.545,560.743 316.13,562.698 317.721,564.618 319.317,566.502 320.919,568.347 322.527,570.151 324.141,571.913 325.761,573.632 327.387,575.304 329.018,576.929 330.656,578.504 332.3,580.029 333.95,581.499 335.606,582.915 337.268,584.274 338.937,585.574 340.611,586.814 342.293,587.991 343.98,589.103 345.674,590.148 347.375,591.124 349.082,592.029 350.796,592.861 352.516,1491.52 354.243,1498.67 355.977,1505.89 357.718,1513.21 359.465,1520.6 361.219,1528.09 362.981,1535.66 364.749,1543.34 366.525,1551.1 368.307,1558.97 370.097,1566.95 371.894,1575.03 373.699,675.946 375.511,1591.53 377.33,1599.96 379.157,1608.52 380.991,1617.2 "/>
<polyline clip-path="url(#clip832)" style="stroke:#ffa500; stroke-linecap:round; stroke-linejoin:round; stroke-width:7.2; stroke-opacity:1; fill:none" points="384.683,1634.97 386.54,1644.07 388.405,1653.32 390.279,1662.73 "/>
<polyline clip-path="url(#clip832)" style="stroke:#ffa500; stroke-linecap:round; stroke-linejoin:round; stroke-width:7.2; stroke-opacity:1; fill:none" points="399.765,383.846 401.687,457.615 403.617,502.463 405.556,534.708 407.503,559.696 409.459,579.927 411.423,596.789 413.396,611.14 415.378,623.547 417.369,634.406 419.369,644.005 421.378,652.561 423.396,660.239 425.424,667.171 427.461,673.459 429.507,679.19 431.562,684.432 433.628,689.245 435.702,693.676 437.787,697.767 439.882,701.554 441.986,705.067 444.101,708.332 446.225,711.372 448.36,714.208 450.505,716.857 452.661,719.336 454.827,721.657 457.004,723.834 459.191,725.878 461.39,727.798 463.599,729.605 465.82,731.305 468.051,732.907 470.294,734.417 472.549,735.842 474.815,737.187 477.092,738.456 479.382,739.656 481.683,740.79 483.996,741.862 486.321,742.876 488.659,743.835 491.009,744.743 493.372,745.601 495.747,746.414 498.135,747.184 500.536,747.913 502.95,748.602 505.377,749.255 507.818,749.872 510.272,750.457 512.74,751.01 515.222,751.533 517.717,752.027 520.227,752.495 522.751,752.936 525.29,753.353 527.843,753.746 530.411,754.117 532.994,754.467 535.592,754.796 538.205,755.105 540.834,755.396 543.479,755.669 546.139,755.925 548.816,756.165 551.509,756.389 554.218,756.598 556.944,756.792 559.687,756.973 562.447,757.141 565.224,757.295 568.019,757.438 570.832,757.569 573.662,757.688 576.511,757.797 579.378,757.895 582.264,757.983 585.169,758.062 588.092,758.131 591.036,758.192 593.999,758.243 596.982,758.287 599.985,758.322 603.009,758.35 606.053,758.371 609.119,758.384 612.205,758.39 615.314,758.39 618.445,758.383 621.597,758.37 624.773,758.351 627.971,758.326 631.193,758.296 634.438,758.26 637.707,758.219 641,758.173 644.318,758.122 647.661,758.067 651.03,758.006 654.424,757.942 657.845,757.873 661.292,757.8 664.766,757.723 668.268,757.642 671.797,757.557 675.355,757.469 678.942,757.377 682.558,757.282 686.204,757.183 689.88,757.082 693.587,756.977 697.325,756.869 701.094,756.758 704.897,756.645 708.732,756.528 712.6,756.409 716.503,756.288 720.44,756.164 724.413,756.037 728.422,755.908 732.467,755.777 736.549,755.644 740.67,755.508 744.829,755.371 749.027,755.231 753.266,755.09 757.546,754.946 761.867,754.801 766.231,754.653 770.639,754.504 775.09,754.354 779.587,754.201 784.13,754.047 788.72,753.892 793.358,753.735 798.045,753.576 802.783,753.416 807.571,753.255 812.412,753.092 817.306,752.928 822.255,752.762 827.26,752.595 832.322,752.428 837.443,752.258 842.623,752.088 847.865,751.917 853.17,751.744 858.538,751.571 863.973,751.396 869.475,751.22 875.046,751.044 880.689,750.866 886.404,750.687 892.194,750.508 898.06,750.327 904.005,750.146 910.031,749.964 916.14,749.781 922.335,749.597 928.617,749.413 934.99,749.228 941.456,749.041 948.017,748.855 954.678,748.667 961.439,748.479 968.306,748.29 975.281,748.1 982.367,747.91 989.569,747.719 996.889,747.528 1004.33,747.336 1011.9,747.143 1019.61,746.95 1027.44,746.756 1035.42,746.561 1043.55,746.366 1051.83,746.171 1060.26,745.975 1068.86,745.778 1077.63,745.581 1086.58,745.384 1095.71,745.186 1105.03,744.987 1114.56,744.788 1124.29,744.589 1134.24,744.389 1144.42,744.189 1154.84,743.988 1165.51,743.787 1176.45,743.585 1187.66,743.383 1199.16,743.181 1210.97,742.978 1223.1,742.775 1235.57,742.571 1248.41,742.367 1261.63,742.163 1275.25,741.958 1289.31,741.753 1303.82,741.548 1318.83,741.342 1334.37,741.136 1350.47,740.929 1367.18,740.722 1384.54,740.515 1402.61,740.308 1421.45,740.1 1441.12,739.891 1461.71,739.683 1483.31,739.474 1506.01,739.264 1529.94,739.055 1555.23,738.845 1582.05,738.634 1610.61,738.424 1641.13,738.213 1673.92,738.001 1709.32,737.789 1747.8,737.577 1789.94,737.365 1836.52,737.152 1888.58,736.938 1947.58,736.725 2015.66,736.511 2096.14,736.296 2194.55,736.081 2321.26,735.866 "/>
<circle clip-path="url(#clip832)" cx="281.038" cy="1072.12" r="7.2" fill="#000000" fill-rule="evenodd" fill-opacity="1" stroke="none"/>
<circle clip-path="url(#clip832)" cx="281.038" cy="513.732" r="7.2" fill="#ffa500" fill-rule="evenodd" fill-opacity="1" stroke="#000000" stroke-opacity="1" stroke-width="0"/>
<path clip-path="url(#clip830)" d="M1862.54 433.545 L2253.25 433.545 L2253.25 122.505 L1862.54 122.505  Z" fill="#ffffff" fill-rule="evenodd" fill-opacity="0"/>
<polyline clip-path="url(#clip830)" style="stroke:#000000; stroke-linecap:round; stroke-linejoin:round; stroke-width:4; stroke-opacity:1; fill:none" points="1862.54,433.545 2253.25,433.545 2253.25,122.505 1862.54,122.505 1862.54,433.545 "/>
<polyline clip-path="url(#clip830)" style="stroke:#000000; stroke-linecap:round; stroke-linejoin:round; stroke-width:6; stroke-opacity:1; fill:none" stroke-dasharray="24, 15" points="1885.21,174.345 2021.23,174.345 "/>
<path clip-path="url(#clip830)" d="M2048.29 178.685 Q2048.29 183.384 2050.21 186.069 Q2052.16 188.731 2055.54 188.731 Q2058.92 188.731 2060.86 186.069 Q2062.81 183.384 2062.81 178.685 Q2062.81 173.986 2060.86 171.324 Q2058.92 168.639 2055.54 168.639 Q2052.16 168.639 2050.21 171.324 Q2048.29 173.986 2048.29 178.685 M2062.81 187.736 Q2061.46 190.051 2059.4 191.185 Q2057.37 192.296 2054.5 192.296 Q2049.8 192.296 2046.83 188.546 Q2043.89 184.796 2043.89 178.685 Q2043.89 172.574 2046.83 168.824 Q2049.8 165.074 2054.5 165.074 Q2057.37 165.074 2059.4 166.208 Q2061.46 167.32 2062.81 169.634 L2062.81 165.699 L2067.07 165.699 L2067.07 201.486 L2062.81 201.486 L2062.81 187.736 Z" fill="#000000" fill-rule="evenodd" fill-opacity="1" /><path clip-path="url(#clip830)" d="M2091.46 170.097 L2121.14 170.097 L2121.14 173.986 L2091.46 173.986 L2091.46 170.097 M2091.46 179.542 L2121.14 179.542 L2121.14 183.477 L2091.46 183.477 L2091.46 179.542 Z" fill="#000000" fill-rule="evenodd" fill-opacity="1" /><path clip-path="url(#clip830)" d="M2143.55 176.741 L2156.02 176.741 L2156.02 180.537 L2143.55 180.537 L2143.55 176.741 Z" fill="#000000" fill-rule="evenodd" fill-opacity="1" /><path clip-path="url(#clip830)" d="M2164.22 187.69 L2171.86 187.69 L2171.86 161.324 L2163.55 162.991 L2163.55 158.732 L2171.81 157.065 L2176.49 157.065 L2176.49 187.69 L2184.13 187.69 L2184.13 191.625 L2164.22 191.625 L2164.22 187.69 Z" fill="#000000" fill-rule="evenodd" fill-opacity="1" /><path clip-path="url(#clip830)" d="M2193.57 185.745 L2198.45 185.745 L2198.45 191.625 L2193.57 191.625 L2193.57 185.745 Z" fill="#000000" fill-rule="evenodd" fill-opacity="1" /><path clip-path="url(#clip830)" d="M2218.64 160.144 Q2215.03 160.144 2213.2 163.708 Q2211.39 167.25 2211.39 174.38 Q2211.39 181.486 2213.2 185.051 Q2215.03 188.593 2218.64 188.593 Q2222.27 188.593 2224.08 185.051 Q2225.91 181.486 2225.91 174.38 Q2225.91 167.25 2224.08 163.708 Q2222.27 160.144 2218.64 160.144 M2218.64 156.44 Q2224.45 156.44 2227.5 161.046 Q2230.58 165.63 2230.58 174.38 Q2230.58 183.106 2227.5 187.713 Q2224.45 192.296 2218.64 192.296 Q2212.83 192.296 2209.75 187.713 Q2206.69 183.106 2206.69 174.38 Q2206.69 165.63 2209.75 161.046 Q2212.83 156.44 2218.64 156.44 Z" fill="#000000" fill-rule="evenodd" fill-opacity="1" /><polyline clip-path="url(#clip830)" style="stroke:#000000; stroke-linecap:round; stroke-linejoin:round; stroke-width:7.2; stroke-opacity:1; fill:none" points="1885.21,226.185 2021.23,226.185 "/>
<path clip-path="url(#clip830)" d="M2048.29 230.525 Q2048.29 235.224 2050.21 237.909 Q2052.16 240.571 2055.54 240.571 Q2058.92 240.571 2060.86 237.909 Q2062.81 235.224 2062.81 230.525 Q2062.81 225.826 2060.86 223.164 Q2058.92 220.479 2055.54 220.479 Q2052.16 220.479 2050.21 223.164 Q2048.29 225.826 2048.29 230.525 M2062.81 239.576 Q2061.46 241.891 2059.4 243.025 Q2057.37 244.136 2054.5 244.136 Q2049.8 244.136 2046.83 240.386 Q2043.89 236.636 2043.89 230.525 Q2043.89 224.414 2046.83 220.664 Q2049.8 216.914 2054.5 216.914 Q2057.37 216.914 2059.4 218.048 Q2061.46 219.16 2062.81 221.474 L2062.81 217.539 L2067.07 217.539 L2067.07 253.326 L2062.81 253.326 L2062.81 239.576 Z" fill="#000000" fill-rule="evenodd" fill-opacity="1" /><path clip-path="url(#clip830)" d="M2091.46 221.937 L2121.14 221.937 L2121.14 225.826 L2091.46 225.826 L2091.46 221.937 M2091.46 231.382 L2121.14 231.382 L2121.14 235.317 L2091.46 235.317 L2091.46 231.382 Z" fill="#000000" fill-rule="evenodd" fill-opacity="1" /><path clip-path="url(#clip830)" d="M2147.11 239.53 L2154.75 239.53 L2154.75 213.164 L2146.44 214.831 L2146.44 210.572 L2154.7 208.905 L2159.38 208.905 L2159.38 239.53 L2167.02 239.53 L2167.02 243.465 L2147.11 243.465 L2147.11 239.53 Z" fill="#000000" fill-rule="evenodd" fill-opacity="1" /><path clip-path="url(#clip830)" d="M2176.46 237.585 L2181.35 237.585 L2181.35 243.465 L2176.46 243.465 L2176.46 237.585 Z" fill="#000000" fill-rule="evenodd" fill-opacity="1" /><path clip-path="url(#clip830)" d="M2201.53 211.984 Q2197.92 211.984 2196.09 215.548 Q2194.29 219.09 2194.29 226.22 Q2194.29 233.326 2196.09 236.891 Q2197.92 240.433 2201.53 240.433 Q2205.17 240.433 2206.97 236.891 Q2208.8 233.326 2208.8 226.22 Q2208.8 219.09 2206.97 215.548 Q2205.17 211.984 2201.53 211.984 M2201.53 208.28 Q2207.34 208.28 2210.4 212.886 Q2213.48 217.47 2213.48 226.22 Q2213.48 234.946 2210.4 239.553 Q2207.34 244.136 2201.53 244.136 Q2195.72 244.136 2192.64 239.553 Q2189.59 234.946 2189.59 226.22 Q2189.59 217.47 2192.64 212.886 Q2195.72 208.28 2201.53 208.28 Z" fill="#000000" fill-rule="evenodd" fill-opacity="1" /><polyline clip-path="url(#clip830)" style="stroke:#000000; stroke-linecap:round; stroke-linejoin:round; stroke-width:4; stroke-opacity:1; fill:none" points="1885.21,278.025 2021.23,278.025 "/>
<path clip-path="url(#clip830)" d="M2048.29 282.365 Q2048.29 287.064 2050.21 289.749 Q2052.16 292.411 2055.54 292.411 Q2058.92 292.411 2060.86 289.749 Q2062.81 287.064 2062.81 282.365 Q2062.81 277.666 2060.86 275.004 Q2058.92 272.319 2055.54 272.319 Q2052.16 272.319 2050.21 275.004 Q2048.29 277.666 2048.29 282.365 M2062.81 291.416 Q2061.46 293.731 2059.4 294.865 Q2057.37 295.976 2054.5 295.976 Q2049.8 295.976 2046.83 292.226 Q2043.89 288.476 2043.89 282.365 Q2043.89 276.254 2046.83 272.504 Q2049.8 268.754 2054.5 268.754 Q2057.37 268.754 2059.4 269.888 Q2061.46 271 2062.81 273.314 L2062.81 269.379 L2067.07 269.379 L2067.07 305.166 L2062.81 305.166 L2062.81 291.416 Z" fill="#000000" fill-rule="evenodd" fill-opacity="1" /><path clip-path="url(#clip830)" d="M2091.46 273.777 L2121.14 273.777 L2121.14 277.666 L2091.46 277.666 L2091.46 273.777 M2091.46 283.222 L2121.14 283.222 L2121.14 287.157 L2091.46 287.157 L2091.46 283.222 Z" fill="#000000" fill-rule="evenodd" fill-opacity="1" /><path clip-path="url(#clip830)" d="M2156.3 263.824 Q2152.69 263.824 2150.86 267.388 Q2149.06 270.93 2149.06 278.06 Q2149.06 285.166 2150.86 288.731 Q2152.69 292.273 2156.3 292.273 Q2159.94 292.273 2161.74 288.731 Q2163.57 285.166 2163.57 278.06 Q2163.57 270.93 2161.74 267.388 Q2159.94 263.824 2156.3 263.824 M2156.3 260.12 Q2162.11 260.12 2165.17 264.726 Q2168.25 269.31 2168.25 278.06 Q2168.25 286.786 2165.17 291.393 Q2162.11 295.976 2156.3 295.976 Q2150.49 295.976 2147.41 291.393 Q2144.36 286.786 2144.36 278.06 Q2144.36 269.31 2147.41 264.726 Q2150.49 260.12 2156.3 260.12 Z" fill="#000000" fill-rule="evenodd" fill-opacity="1" /><path clip-path="url(#clip830)" d="M2176.46 289.425 L2181.35 289.425 L2181.35 295.305 L2176.46 295.305 L2176.46 289.425 Z" fill="#000000" fill-rule="evenodd" fill-opacity="1" /><path clip-path="url(#clip830)" d="M2201.53 263.824 Q2197.92 263.824 2196.09 267.388 Q2194.29 270.93 2194.29 278.06 Q2194.29 285.166 2196.09 288.731 Q2197.92 292.273 2201.53 292.273 Q2205.17 292.273 2206.97 288.731 Q2208.8 285.166 2208.8 278.06 Q2208.8 270.93 2206.97 267.388 Q2205.17 263.824 2201.53 263.824 M2201.53 260.12 Q2207.34 260.12 2210.4 264.726 Q2213.48 269.31 2213.48 278.06 Q2213.48 286.786 2210.4 291.393 Q2207.34 295.976 2201.53 295.976 Q2195.72 295.976 2192.64 291.393 Q2189.59 286.786 2189.59 278.06 Q2189.59 269.31 2192.64 264.726 Q2195.72 260.12 2201.53 260.12 Z" fill="#000000" fill-rule="evenodd" fill-opacity="1" /><circle clip-path="url(#clip830)" cx="1953.22" cy="329.865" r="23.04" fill="#000000" fill-rule="evenodd" fill-opacity="1" stroke="none"/>
<path clip-path="url(#clip830)" d="M2057.3 334.113 Q2052.14 334.113 2050.14 335.293 Q2048.15 336.474 2048.15 339.321 Q2048.15 341.589 2049.64 342.932 Q2051.14 344.251 2053.71 344.251 Q2057.25 344.251 2059.38 341.751 Q2061.53 339.228 2061.53 335.062 L2061.53 334.113 L2057.3 334.113 M2065.79 332.353 L2065.79 347.145 L2061.53 347.145 L2061.53 343.21 Q2060.07 345.571 2057.9 346.705 Q2055.72 347.816 2052.58 347.816 Q2048.59 347.816 2046.23 345.594 Q2043.89 343.349 2043.89 339.599 Q2043.89 335.224 2046.81 333.002 Q2049.75 330.779 2055.56 330.779 L2061.53 330.779 L2061.53 330.363 Q2061.53 327.423 2059.59 325.826 Q2057.67 324.205 2054.17 324.205 Q2051.95 324.205 2049.84 324.738 Q2047.74 325.27 2045.79 326.335 L2045.79 322.4 Q2048.13 321.497 2050.33 321.057 Q2052.53 320.594 2054.61 320.594 Q2060.24 320.594 2063.01 323.511 Q2065.79 326.427 2065.79 332.353 Z" fill="#000000" fill-rule="evenodd" fill-opacity="1" /><path clip-path="url(#clip830)" d="M2090.19 325.617 L2119.87 325.617 L2119.87 329.506 L2090.19 329.506 L2090.19 325.617 M2090.19 335.062 L2119.87 335.062 L2119.87 338.997 L2090.19 338.997 L2090.19 335.062 Z" fill="#000000" fill-rule="evenodd" fill-opacity="1" /><path clip-path="url(#clip830)" d="M2155.03 315.664 Q2151.42 315.664 2149.59 319.228 Q2147.78 322.77 2147.78 329.9 Q2147.78 337.006 2149.59 340.571 Q2151.42 344.113 2155.03 344.113 Q2158.66 344.113 2160.47 340.571 Q2162.3 337.006 2162.3 329.9 Q2162.3 322.77 2160.47 319.228 Q2158.66 315.664 2155.03 315.664 M2155.03 311.96 Q2160.84 311.96 2163.89 316.566 Q2166.97 321.15 2166.97 329.9 Q2166.97 338.626 2163.89 343.233 Q2160.84 347.816 2155.03 347.816 Q2149.22 347.816 2146.14 343.233 Q2143.08 338.626 2143.08 329.9 Q2143.08 321.15 2146.14 316.566 Q2149.22 311.96 2155.03 311.96 Z" fill="#000000" fill-rule="evenodd" fill-opacity="1" /><path clip-path="url(#clip830)" d="M2175.19 341.265 L2180.07 341.265 L2180.07 347.145 L2175.19 347.145 L2175.19 341.265 Z" fill="#000000" fill-rule="evenodd" fill-opacity="1" /><path clip-path="url(#clip830)" d="M2200.26 315.664 Q2196.65 315.664 2194.82 319.228 Q2193.01 322.77 2193.01 329.9 Q2193.01 337.006 2194.82 340.571 Q2196.65 344.113 2200.26 344.113 Q2203.89 344.113 2205.7 340.571 Q2207.53 337.006 2207.53 329.9 Q2207.53 322.77 2205.7 319.228 Q2203.89 315.664 2200.26 315.664 M2200.26 311.96 Q2206.07 311.96 2209.13 316.566 Q2212.2 321.15 2212.2 329.9 Q2212.2 338.626 2209.13 343.233 Q2206.07 347.816 2200.26 347.816 Q2194.45 347.816 2191.37 343.233 Q2188.32 338.626 2188.32 329.9 Q2188.32 321.15 2191.37 316.566 Q2194.45 311.96 2200.26 311.96 Z" fill="#000000" fill-rule="evenodd" fill-opacity="1" /><circle clip-path="url(#clip830)" cx="1953.22" cy="381.705" r="23.04" fill="#ffa500" fill-rule="evenodd" fill-opacity="1" stroke="#000000" stroke-opacity="1" stroke-width="0"/>
<path clip-path="url(#clip830)" d="M2057.3 385.953 Q2052.14 385.953 2050.14 387.133 Q2048.15 388.314 2048.15 391.161 Q2048.15 393.429 2049.64 394.772 Q2051.14 396.091 2053.71 396.091 Q2057.25 396.091 2059.38 393.591 Q2061.53 391.068 2061.53 386.902 L2061.53 385.953 L2057.3 385.953 M2065.79 384.193 L2065.79 398.985 L2061.53 398.985 L2061.53 395.05 Q2060.07 397.411 2057.9 398.545 Q2055.72 399.656 2052.58 399.656 Q2048.59 399.656 2046.23 397.434 Q2043.89 395.189 2043.89 391.439 Q2043.89 387.064 2046.81 384.842 Q2049.75 382.619 2055.56 382.619 L2061.53 382.619 L2061.53 382.203 Q2061.53 379.263 2059.59 377.666 Q2057.67 376.045 2054.17 376.045 Q2051.95 376.045 2049.84 376.578 Q2047.74 377.11 2045.79 378.175 L2045.79 374.24 Q2048.13 373.337 2050.33 372.897 Q2052.53 372.434 2054.61 372.434 Q2060.24 372.434 2063.01 375.351 Q2065.79 378.267 2065.79 384.193 Z" fill="#000000" fill-rule="evenodd" fill-opacity="1" /><path clip-path="url(#clip830)" d="M2090.19 377.457 L2119.87 377.457 L2119.87 381.346 L2090.19 381.346 L2090.19 377.457 M2090.19 386.902 L2119.87 386.902 L2119.87 390.837 L2090.19 390.837 L2090.19 386.902 Z" fill="#000000" fill-rule="evenodd" fill-opacity="1" /><path clip-path="url(#clip830)" d="M2155.03 367.504 Q2151.42 367.504 2149.59 371.068 Q2147.78 374.61 2147.78 381.74 Q2147.78 388.846 2149.59 392.411 Q2151.42 395.953 2155.03 395.953 Q2158.66 395.953 2160.47 392.411 Q2162.3 388.846 2162.3 381.74 Q2162.3 374.61 2160.47 371.068 Q2158.66 367.504 2155.03 367.504 M2155.03 363.8 Q2160.84 363.8 2163.89 368.406 Q2166.97 372.99 2166.97 381.74 Q2166.97 390.466 2163.89 395.073 Q2160.84 399.656 2155.03 399.656 Q2149.22 399.656 2146.14 395.073 Q2143.08 390.466 2143.08 381.74 Q2143.08 372.99 2146.14 368.406 Q2149.22 363.8 2155.03 363.8 Z" fill="#000000" fill-rule="evenodd" fill-opacity="1" /><path clip-path="url(#clip830)" d="M2175.19 393.105 L2180.07 393.105 L2180.07 398.985 L2175.19 398.985 L2175.19 393.105 Z" fill="#000000" fill-rule="evenodd" fill-opacity="1" /><path clip-path="url(#clip830)" d="M2203.11 368.499 L2191.3 386.948 L2203.11 386.948 L2203.11 368.499 M2201.88 364.425 L2207.76 364.425 L2207.76 386.948 L2212.69 386.948 L2212.69 390.837 L2207.76 390.837 L2207.76 398.985 L2203.11 398.985 L2203.11 390.837 L2187.5 390.837 L2187.5 386.323 L2201.88 364.425 Z" fill="#000000" fill-rule="evenodd" fill-opacity="1" /><path clip-path="url(#clip830)" d="M370.297 1425.24 Q369.4 1424.72 368.329 1424.49 Q367.288 1424.23 366.015 1424.23 Q361.501 1424.23 359.07 1427.18 Q356.669 1430.1 356.669 1435.6 L356.669 1452.67 L351.316 1452.67 L351.316 1420.26 L356.669 1420.26 L356.669 1425.3 Q358.347 1422.35 361.038 1420.93 Q363.729 1419.48 367.577 1419.48 Q368.127 1419.48 368.792 1419.57 Q369.458 1419.63 370.268 1419.77 L370.297 1425.24 Z" fill="#ffa500" fill-rule="evenodd" fill-opacity="1" /><path clip-path="url(#clip830)" d="M388.179 1434.59 L388.179 1437.39 Q386.761 1436.76 385.228 1436.44 Q383.723 1436.12 382.074 1436.12 Q379.556 1436.12 378.312 1436.79 Q377.068 1437.48 377.068 1438.84 Q377.068 1439.88 377.965 1440.46 Q378.862 1441.07 381.553 1441.59 L382.71 1441.82 Q386.327 1442.52 387.774 1443.73 Q389.278 1444.98 389.278 1447.2 Q389.278 1449.72 387.022 1451.2 Q384.794 1452.67 380.858 1452.67 Q379.209 1452.67 377.415 1452.38 Q375.65 1452.09 373.682 1451.54 L373.682 1448.45 Q375.534 1449.32 377.357 1449.75 Q379.151 1450.18 380.916 1450.18 Q383.289 1450.18 384.562 1449.46 Q385.835 1448.74 385.835 1447.43 Q385.835 1446.22 384.909 1445.55 Q384.099 1444.98 380.887 1444.31 L379.73 1444.08 Q376.605 1443.47 375.216 1442.28 Q373.827 1441.07 373.827 1438.96 Q373.827 1436.41 375.882 1435.02 Q377.907 1433.6 381.669 1433.6 Q383.52 1433.6 385.17 1433.86 Q386.819 1434.1 388.179 1434.59 Z" fill="#ffa500" fill-rule="evenodd" fill-opacity="1" /><path clip-path="url(#clip830)" d="M456.484 1425.24 Q455.587 1424.72 454.516 1424.49 Q453.474 1424.23 452.201 1424.23 Q447.687 1424.23 445.257 1427.18 Q442.855 1430.1 442.855 1435.6 L442.855 1452.67 L437.502 1452.67 L437.502 1420.26 L442.855 1420.26 L442.855 1425.3 Q444.533 1422.35 447.224 1420.93 Q449.915 1419.48 453.764 1419.48 Q454.313 1419.48 454.979 1419.57 Q455.644 1419.63 456.455 1419.77 L456.484 1425.24 Z" fill="#000000" fill-rule="evenodd" fill-opacity="1" /><path clip-path="url(#clip830)" d="M474.365 1434.59 L474.365 1437.39 Q472.948 1436.76 471.414 1436.44 Q469.909 1436.12 468.26 1436.12 Q465.743 1436.12 464.499 1436.79 Q463.254 1437.48 463.254 1438.84 Q463.254 1439.88 464.151 1440.46 Q465.048 1441.07 467.739 1441.59 L468.897 1441.82 Q472.514 1442.52 473.96 1443.73 Q475.465 1444.98 475.465 1447.2 Q475.465 1449.72 473.208 1451.2 Q470.98 1452.67 467.045 1452.67 Q465.396 1452.67 463.602 1452.38 Q461.837 1452.09 459.869 1451.54 L459.869 1448.45 Q461.721 1449.32 463.544 1449.75 Q465.338 1450.18 467.103 1450.18 Q469.475 1450.18 470.748 1449.46 Q472.022 1448.74 472.022 1447.43 Q472.022 1446.22 471.096 1445.55 Q470.286 1444.98 467.074 1444.31 L465.916 1444.08 Q462.791 1443.47 461.402 1442.28 Q460.014 1441.07 460.014 1438.96 Q460.014 1436.41 462.068 1435.02 Q464.093 1433.6 467.855 1433.6 Q469.707 1433.6 471.356 1433.86 Q473.005 1434.1 474.365 1434.59 Z" fill="#000000" fill-rule="evenodd" fill-opacity="1" /></svg>
