<?xml version="1.0" encoding="utf-8"?>
<svg xmlns="http://www.w3.org/2000/svg" xmlns:xlink="http://www.w3.org/1999/xlink" width="600" height="400" viewBox="0 0 2400 1600">
<defs>
  <clipPath id="clip850">
    <rect x="0" y="0" width="2400" height="1600"/>
  </clipPath>
</defs>
<path clip-path="url(#clip850)" d="M0 1600 L2400 1600 L2400 0 L0 0  Z" fill="#ffffff" fill-rule="evenodd" fill-opacity="0"/>
<defs>
  <clipPath id="clip851">
    <rect x="480" y="0" width="1681" height="1600"/>
  </clipPath>
</defs>
<path clip-path="url(#clip850)" d="M250.028 1423.18 L2352.76 1423.18 L2352.76 123.472 L250.028 123.472  Z" fill="#ffffff" fill-rule="evenodd" fill-opacity="0"/>
<defs>
  <clipPath id="clip852">
    <rect x="250" y="123" width="2104" height="1301"/>
  </clipPath>
</defs>
<polyline clip-path="url(#clip852)" style="stroke:#000000; stroke-linecap:round; stroke-linejoin:round; stroke-width:2; stroke-opacity:0.1; fill:none" points="557.502,1423.18 557.502,123.472 "/>
<polyline clip-path="url(#clip852)" style="stroke:#000000; stroke-linecap:round; stroke-linejoin:round; stroke-width:2; stroke-opacity:0.1; fill:none" points="970.774,1423.18 970.774,123.472 "/>
<polyline clip-path="url(#clip852)" style="stroke:#000000; stroke-linecap:round; stroke-linejoin:round; stroke-width:2; stroke-opacity:0.1; fill:none" points="1384.05,1423.18 1384.05,123.472 "/>
<polyline clip-path="url(#clip852)" style="stroke:#000000; stroke-linecap:round; stroke-linejoin:round; stroke-width:2; stroke-opacity:0.1; fill:none" points="1797.32,1423.18 1797.32,123.472 "/>
<polyline clip-path="url(#clip852)" style="stroke:#000000; stroke-linecap:round; stroke-linejoin:round; stroke-width:2; stroke-opacity:0.1; fill:none" points="2210.59,1423.18 2210.59,123.472 "/>
<polyline clip-path="url(#clip850)" style="stroke:#000000; stroke-linecap:round; stroke-linejoin:round; stroke-width:4; stroke-opacity:1; fill:none" points="250.028,1423.18 2352.76,1423.18 "/>
<polyline clip-path="url(#clip850)" style="stroke:#000000; stroke-linecap:round; stroke-linejoin:round; stroke-width:4; stroke-opacity:1; fill:none" points="557.502,1423.18 557.502,1404.28 "/>
<polyline clip-path="url(#clip850)" style="stroke:#000000; stroke-linecap:round; stroke-linejoin:round; stroke-width:4; stroke-opacity:1; fill:none" points="970.774,1423.18 970.774,1404.28 "/>
<polyline clip-path="url(#clip850)" style="stroke:#000000; stroke-linecap:round; stroke-linejoin:round; stroke-width:4; stroke-opacity:1; fill:none" points="1384.05,1423.18 1384.05,1404.28 "/>
<polyline clip-path="url(#clip850)" style="stroke:#000000; stroke-linecap:round; stroke-linejoin:round; stroke-width:4; stroke-opacity:1; fill:none" points="1797.32,1423.18 1797.32,1404.28 "/>
<polyline clip-path="url(#clip850)" style="stroke:#000000; stroke-linecap:round; stroke-linejoin:round; stroke-width:4; stroke-opacity:1; fill:none" points="2210.59,1423.18 2210.59,1404.28 "/>
<path clip-path="url(#clip850)" d="M520.304 1454.1 Q516.693 1454.1 514.864 1457.66 Q513.058 1461.2 513.058 1468.33 Q513.058 1475.44 514.864 1479.01 Q516.693 1482.55 520.304 1482.55 Q523.938 1482.55 525.743 1479.01 Q527.572 1475.44 527.572 1468.33 Q527.572 1461.2 525.743 1457.66 Q523.938 1454.1 520.304 1454.1 M520.304 1450.39 Q526.114 1450.39 529.169 1455 Q532.248 1459.58 532.248 1468.33 Q532.248 1477.06 529.169 1481.67 Q526.114 1486.25 520.304 1486.25 Q514.493 1486.25 511.415 1481.67 Q508.359 1477.06 508.359 1468.33 Q508.359 1459.58 511.415 1455 Q514.493 1450.39 520.304 1450.39 Z" fill="#000000" fill-rule="evenodd" fill-opacity="1" /><path clip-path="url(#clip850)" d="M540.466 1479.7 L545.35 1479.7 L545.35 1485.58 L540.466 1485.58 L540.466 1479.7 Z" fill="#000000" fill-rule="evenodd" fill-opacity="1" /><path clip-path="url(#clip850)" d="M559.563 1481.64 L575.882 1481.64 L575.882 1485.58 L553.938 1485.58 L553.938 1481.64 Q556.6 1478.89 561.183 1474.26 Q565.789 1469.61 566.97 1468.27 Q569.215 1465.74 570.095 1464.01 Q570.998 1462.25 570.998 1460.56 Q570.998 1457.8 569.053 1456.07 Q567.132 1454.33 564.03 1454.33 Q561.831 1454.33 559.377 1455.09 Q556.947 1455.86 554.169 1457.41 L554.169 1452.69 Q556.993 1451.55 559.447 1450.97 Q561.901 1450.39 563.938 1450.39 Q569.308 1450.39 572.502 1453.08 Q575.697 1455.77 575.697 1460.26 Q575.697 1462.39 574.887 1464.31 Q574.1 1466.2 571.993 1468.8 Q571.414 1469.47 568.313 1472.69 Q565.211 1475.88 559.563 1481.64 Z" fill="#000000" fill-rule="evenodd" fill-opacity="1" /><path clip-path="url(#clip850)" d="M585.743 1451.02 L604.099 1451.02 L604.099 1454.96 L590.025 1454.96 L590.025 1463.43 Q591.044 1463.08 592.062 1462.92 Q593.081 1462.73 594.1 1462.73 Q599.887 1462.73 603.266 1465.9 Q606.646 1469.08 606.646 1474.49 Q606.646 1480.07 603.174 1483.17 Q599.701 1486.25 593.382 1486.25 Q591.206 1486.25 588.938 1485.88 Q586.692 1485.51 584.285 1484.77 L584.285 1480.07 Q586.368 1481.2 588.59 1481.76 Q590.812 1482.32 593.289 1482.32 Q597.294 1482.32 599.632 1480.21 Q601.97 1478.1 601.97 1474.49 Q601.97 1470.88 599.632 1468.77 Q597.294 1466.67 593.289 1466.67 Q591.414 1466.67 589.539 1467.08 Q587.688 1467.5 585.743 1468.38 L585.743 1451.02 Z" fill="#000000" fill-rule="evenodd" fill-opacity="1" /><path clip-path="url(#clip850)" d="M933.078 1454.1 Q929.467 1454.1 927.638 1457.66 Q925.833 1461.2 925.833 1468.33 Q925.833 1475.44 927.638 1479.01 Q929.467 1482.55 933.078 1482.55 Q936.712 1482.55 938.518 1479.01 Q940.346 1475.44 940.346 1468.33 Q940.346 1461.2 938.518 1457.66 Q936.712 1454.1 933.078 1454.1 M933.078 1450.39 Q938.888 1450.39 941.944 1455 Q945.022 1459.58 945.022 1468.33 Q945.022 1477.06 941.944 1481.67 Q938.888 1486.25 933.078 1486.25 Q927.268 1486.25 924.189 1481.67 Q921.134 1477.06 921.134 1468.33 Q921.134 1459.58 924.189 1455 Q927.268 1450.39 933.078 1450.39 Z" fill="#000000" fill-rule="evenodd" fill-opacity="1" /><path clip-path="url(#clip850)" d="M953.24 1479.7 L958.124 1479.7 L958.124 1485.58 L953.24 1485.58 L953.24 1479.7 Z" fill="#000000" fill-rule="evenodd" fill-opacity="1" /><path clip-path="url(#clip850)" d="M968.355 1451.02 L986.712 1451.02 L986.712 1454.96 L972.638 1454.96 L972.638 1463.43 Q973.656 1463.08 974.675 1462.92 Q975.693 1462.73 976.712 1462.73 Q982.499 1462.73 985.879 1465.9 Q989.258 1469.08 989.258 1474.49 Q989.258 1480.07 985.786 1483.17 Q982.314 1486.25 975.994 1486.25 Q973.818 1486.25 971.55 1485.88 Q969.305 1485.51 966.897 1484.77 L966.897 1480.07 Q968.98 1481.2 971.203 1481.76 Q973.425 1482.32 975.902 1482.32 Q979.906 1482.32 982.244 1480.21 Q984.582 1478.1 984.582 1474.49 Q984.582 1470.88 982.244 1468.77 Q979.906 1466.67 975.902 1466.67 Q974.027 1466.67 972.152 1467.08 Q970.3 1467.5 968.355 1468.38 L968.355 1451.02 Z" fill="#000000" fill-rule="evenodd" fill-opacity="1" /><path clip-path="url(#clip850)" d="M1008.47 1454.1 Q1004.86 1454.1 1003.03 1457.66 Q1001.23 1461.2 1001.23 1468.33 Q1001.23 1475.44 1003.03 1479.01 Q1004.86 1482.55 1008.47 1482.55 Q1012.11 1482.55 1013.91 1479.01 Q1015.74 1475.44 1015.74 1468.33 Q1015.74 1461.2 1013.91 1457.66 Q1012.11 1454.1 1008.47 1454.1 M1008.47 1450.39 Q1014.28 1450.39 1017.34 1455 Q1020.42 1459.58 1020.42 1468.33 Q1020.42 1477.06 1017.34 1481.67 Q1014.28 1486.25 1008.47 1486.25 Q1002.66 1486.25 999.582 1481.67 Q996.527 1477.06 996.527 1468.33 Q996.527 1459.58 999.582 1455 Q1002.66 1450.39 1008.47 1450.39 Z" fill="#000000" fill-rule="evenodd" fill-opacity="1" /><path clip-path="url(#clip850)" d="M1346.85 1454.1 Q1343.24 1454.1 1341.41 1457.66 Q1339.6 1461.2 1339.6 1468.33 Q1339.6 1475.44 1341.41 1479.01 Q1343.24 1482.55 1346.85 1482.55 Q1350.48 1482.55 1352.29 1479.01 Q1354.12 1475.44 1354.12 1468.33 Q1354.12 1461.2 1352.29 1457.66 Q1350.48 1454.1 1346.85 1454.1 M1346.85 1450.39 Q1352.66 1450.39 1355.71 1455 Q1358.79 1459.58 1358.79 1468.33 Q1358.79 1477.06 1355.71 1481.67 Q1352.66 1486.25 1346.85 1486.25 Q1341.04 1486.25 1337.96 1481.67 Q1334.9 1477.06 1334.9 1468.33 Q1334.9 1459.58 1337.96 1455 Q1341.04 1450.39 1346.85 1450.39 Z" fill="#000000" fill-rule="evenodd" fill-opacity="1" /><path clip-path="url(#clip850)" d="M1367.01 1479.7 L1371.89 1479.7 L1371.89 1485.58 L1367.01 1485.58 L1367.01 1479.7 Z" fill="#000000" fill-rule="evenodd" fill-opacity="1" /><path clip-path="url(#clip850)" d="M1380.9 1451.02 L1403.12 1451.02 L1403.12 1453.01 L1390.57 1485.58 L1385.69 1485.58 L1397.5 1454.96 L1380.9 1454.96 L1380.9 1451.02 Z" fill="#000000" fill-rule="evenodd" fill-opacity="1" /><path clip-path="url(#clip850)" d="M1412.29 1451.02 L1430.64 1451.02 L1430.64 1454.96 L1416.57 1454.96 L1416.57 1463.43 Q1417.59 1463.08 1418.61 1462.92 Q1419.62 1462.73 1420.64 1462.73 Q1426.43 1462.73 1429.81 1465.9 Q1433.19 1469.08 1433.19 1474.49 Q1433.19 1480.07 1429.72 1483.17 Q1426.25 1486.25 1419.93 1486.25 Q1417.75 1486.25 1415.48 1485.88 Q1413.24 1485.51 1410.83 1484.77 L1410.83 1480.07 Q1412.91 1481.2 1415.13 1481.76 Q1417.36 1482.32 1419.83 1482.32 Q1423.84 1482.32 1426.18 1480.21 Q1428.51 1478.1 1428.51 1474.49 Q1428.51 1470.88 1426.18 1468.77 Q1423.84 1466.67 1419.83 1466.67 Q1417.96 1466.67 1416.08 1467.08 Q1414.23 1467.5 1412.29 1468.38 L1412.29 1451.02 Z" fill="#000000" fill-rule="evenodd" fill-opacity="1" /><path clip-path="url(#clip850)" d="M1749.39 1481.64 L1757.03 1481.64 L1757.03 1455.28 L1748.72 1456.95 L1748.72 1452.69 L1756.98 1451.02 L1761.66 1451.02 L1761.66 1481.64 L1769.3 1481.64 L1769.3 1485.58 L1749.39 1485.58 L1749.39 1481.64 Z" fill="#000000" fill-rule="evenodd" fill-opacity="1" /><path clip-path="url(#clip850)" d="M1778.74 1479.7 L1783.63 1479.7 L1783.63 1485.58 L1778.74 1485.58 L1778.74 1479.7 Z" fill="#000000" fill-rule="evenodd" fill-opacity="1" /><path clip-path="url(#clip850)" d="M1803.81 1454.1 Q1800.2 1454.1 1798.37 1457.66 Q1796.57 1461.2 1796.57 1468.33 Q1796.57 1475.44 1798.37 1479.01 Q1800.2 1482.55 1803.81 1482.55 Q1807.45 1482.55 1809.25 1479.01 Q1811.08 1475.44 1811.08 1468.33 Q1811.08 1461.2 1809.25 1457.66 Q1807.45 1454.1 1803.81 1454.1 M1803.81 1450.39 Q1809.62 1450.39 1812.68 1455 Q1815.76 1459.58 1815.76 1468.33 Q1815.76 1477.06 1812.68 1481.67 Q1809.62 1486.25 1803.81 1486.25 Q1798 1486.25 1794.92 1481.67 Q1791.87 1477.06 1791.87 1468.33 Q1791.87 1459.58 1794.92 1455 Q1798 1450.39 1803.81 1450.39 Z" fill="#000000" fill-rule="evenodd" fill-opacity="1" /><path clip-path="url(#clip850)" d="M1833.97 1454.1 Q1830.36 1454.1 1828.53 1457.66 Q1826.73 1461.2 1826.73 1468.33 Q1826.73 1475.44 1828.53 1479.01 Q1830.36 1482.55 1833.97 1482.55 Q1837.61 1482.55 1839.41 1479.01 Q1841.24 1475.44 1841.24 1468.33 Q1841.24 1461.2 1839.41 1457.66 Q1837.61 1454.1 1833.97 1454.1 M1833.97 1450.39 Q1839.78 1450.39 1842.84 1455 Q1845.92 1459.58 1845.92 1468.33 Q1845.92 1477.06 1842.84 1481.67 Q1839.78 1486.25 1833.97 1486.25 Q1828.16 1486.25 1825.08 1481.67 Q1822.03 1477.06 1822.03 1468.33 Q1822.03 1459.58 1825.08 1455 Q1828.16 1450.39 1833.97 1450.39 Z" fill="#000000" fill-rule="evenodd" fill-opacity="1" /><path clip-path="url(#clip850)" d="M2163.16 1481.64 L2170.8 1481.64 L2170.8 1455.28 L2162.49 1456.95 L2162.49 1452.69 L2170.75 1451.02 L2175.43 1451.02 L2175.43 1481.64 L2183.07 1481.64 L2183.07 1485.58 L2163.16 1485.58 L2163.16 1481.64 Z" fill="#000000" fill-rule="evenodd" fill-opacity="1" /><path clip-path="url(#clip850)" d="M2192.51 1479.7 L2197.4 1479.7 L2197.4 1485.58 L2192.51 1485.58 L2192.51 1479.7 Z" fill="#000000" fill-rule="evenodd" fill-opacity="1" /><path clip-path="url(#clip850)" d="M2211.61 1481.64 L2227.93 1481.64 L2227.93 1485.58 L2205.98 1485.58 L2205.98 1481.64 Q2208.65 1478.89 2213.23 1474.26 Q2217.84 1469.61 2219.02 1468.27 Q2221.26 1465.74 2222.14 1464.01 Q2223.04 1462.25 2223.04 1460.56 Q2223.04 1457.8 2221.1 1456.07 Q2219.18 1454.33 2216.08 1454.33 Q2213.88 1454.33 2211.42 1455.09 Q2208.99 1455.86 2206.22 1457.41 L2206.22 1452.69 Q2209.04 1451.55 2211.49 1450.97 Q2213.95 1450.39 2215.98 1450.39 Q2221.35 1450.39 2224.55 1453.08 Q2227.74 1455.77 2227.74 1460.26 Q2227.74 1462.39 2226.93 1464.31 Q2226.15 1466.2 2224.04 1468.8 Q2223.46 1469.47 2220.36 1472.69 Q2217.26 1475.88 2211.61 1481.64 Z" fill="#000000" fill-rule="evenodd" fill-opacity="1" /><path clip-path="url(#clip850)" d="M2237.79 1451.02 L2256.15 1451.02 L2256.15 1454.96 L2242.07 1454.96 L2242.07 1463.43 Q2243.09 1463.08 2244.11 1462.92 Q2245.13 1462.73 2246.15 1462.73 Q2251.93 1462.73 2255.31 1465.9 Q2258.69 1469.08 2258.69 1474.49 Q2258.69 1480.07 2255.22 1483.17 Q2251.75 1486.25 2245.43 1486.25 Q2243.25 1486.25 2240.98 1485.88 Q2238.74 1485.51 2236.33 1484.77 L2236.33 1480.07 Q2238.41 1481.2 2240.64 1481.76 Q2242.86 1482.32 2245.34 1482.32 Q2249.34 1482.32 2251.68 1480.21 Q2254.02 1478.1 2254.02 1474.49 Q2254.02 1470.88 2251.68 1468.77 Q2249.34 1466.67 2245.34 1466.67 Q2243.46 1466.67 2241.59 1467.08 Q2239.73 1467.5 2237.79 1468.38 L2237.79 1451.02 Z" fill="#000000" fill-rule="evenodd" fill-opacity="1" /><path clip-path="url(#clip850)" d="M1311.47 1549.81 Q1311.47 1543.44 1308.82 1539.94 Q1306.21 1536.44 1301.47 1536.44 Q1296.76 1536.44 1294.12 1539.94 Q1291.51 1543.44 1291.51 1549.81 Q1291.51 1556.14 1294.12 1559.64 Q1296.76 1563.14 1301.47 1563.14 Q1306.21 1563.14 1308.82 1559.64 Q1311.47 1556.14 1311.47 1549.81 M1317.32 1563.62 Q1317.32 1572.72 1313.28 1577.15 Q1309.24 1581.6 1300.9 1581.6 Q1297.81 1581.6 1295.07 1581.13 Q1292.34 1580.68 1289.76 1579.72 L1289.76 1574.03 Q1292.34 1575.43 1294.85 1576.1 Q1297.37 1576.76 1299.98 1576.76 Q1305.74 1576.76 1308.6 1573.74 Q1311.47 1570.75 1311.47 1564.67 L1311.47 1561.77 Q1309.65 1564.92 1306.82 1566.48 Q1303.99 1568.04 1300.04 1568.04 Q1293.48 1568.04 1289.47 1563.05 Q1285.46 1558.05 1285.46 1549.81 Q1285.46 1541.53 1289.47 1536.53 Q1293.48 1531.54 1300.04 1531.54 Q1303.99 1531.54 1306.82 1533.1 Q1309.65 1534.66 1311.47 1537.81 L1311.47 1532.4 L1317.32 1532.4 L1317.32 1563.62 Z" fill="#000000" fill-rule="evenodd" fill-opacity="1" /><polyline clip-path="url(#clip852)" style="stroke:#000000; stroke-linecap:round; stroke-linejoin:round; stroke-width:2; stroke-opacity:0.1; fill:none" points="250.028,1386.4 2352.76,1386.4 "/>
<polyline clip-path="url(#clip852)" style="stroke:#000000; stroke-linecap:round; stroke-linejoin:round; stroke-width:2; stroke-opacity:0.1; fill:none" points="250.028,1082.19 2352.76,1082.19 "/>
<polyline clip-path="url(#clip852)" style="stroke:#000000; stroke-linecap:round; stroke-linejoin:round; stroke-width:2; stroke-opacity:0.1; fill:none" points="250.028,777.992 2352.76,777.992 "/>
<polyline clip-path="url(#clip852)" style="stroke:#000000; stroke-linecap:round; stroke-linejoin:round; stroke-width:2; stroke-opacity:0.1; fill:none" points="250.028,473.79 2352.76,473.79 "/>
<polyline clip-path="url(#clip852)" style="stroke:#000000; stroke-linecap:round; stroke-linejoin:round; stroke-width:2; stroke-opacity:0.1; fill:none" points="250.028,169.588 2352.76,169.588 "/>
<polyline clip-path="url(#clip850)" style="stroke:#000000; stroke-linecap:round; stroke-linejoin:round; stroke-width:4; stroke-opacity:1; fill:none" points="250.028,1423.18 250.028,123.472 "/>
<polyline clip-path="url(#clip850)" style="stroke:#000000; stroke-linecap:round; stroke-linejoin:round; stroke-width:4; stroke-opacity:1; fill:none" points="250.028,1386.4 268.926,1386.4 "/>
<polyline clip-path="url(#clip850)" style="stroke:#000000; stroke-linecap:round; stroke-linejoin:round; stroke-width:4; stroke-opacity:1; fill:none" points="250.028,1082.19 268.926,1082.19 "/>
<polyline clip-path="url(#clip850)" style="stroke:#000000; stroke-linecap:round; stroke-linejoin:round; stroke-width:4; stroke-opacity:1; fill:none" points="250.028,777.992 268.926,777.992 "/>
<polyline clip-path="url(#clip850)" style="stroke:#000000; stroke-linecap:round; stroke-linejoin:round; stroke-width:4; stroke-opacity:1; fill:none" points="250.028,473.79 268.926,473.79 "/>
<polyline clip-path="url(#clip850)" style="stroke:#000000; stroke-linecap:round; stroke-linejoin:round; stroke-width:4; stroke-opacity:1; fill:none" points="250.028,169.588 268.926,169.588 "/>
<path clip-path="url(#clip850)" d="M126.691 1372.19 Q123.08 1372.19 121.251 1375.76 Q119.445 1379.3 119.445 1386.43 Q119.445 1393.54 121.251 1397.1 Q123.08 1400.64 126.691 1400.64 Q130.325 1400.64 132.13 1397.1 Q133.959 1393.54 133.959 1386.43 Q133.959 1379.3 132.13 1375.76 Q130.325 1372.19 126.691 1372.19 M126.691 1368.49 Q132.501 1368.49 135.556 1373.1 Q138.635 1377.68 138.635 1386.43 Q138.635 1395.16 135.556 1399.76 Q132.501 1404.35 126.691 1404.35 Q120.88 1404.35 117.802 1399.76 Q114.746 1395.16 114.746 1386.43 Q114.746 1377.68 117.802 1373.1 Q120.88 1368.49 126.691 1368.49 Z" fill="#000000" fill-rule="evenodd" fill-opacity="1" /><path clip-path="url(#clip850)" d="M146.853 1397.8 L151.737 1397.8 L151.737 1403.68 L146.853 1403.68 L146.853 1397.8 Z" fill="#000000" fill-rule="evenodd" fill-opacity="1" /><path clip-path="url(#clip850)" d="M171.922 1372.19 Q168.311 1372.19 166.482 1375.76 Q164.677 1379.3 164.677 1386.43 Q164.677 1393.54 166.482 1397.1 Q168.311 1400.64 171.922 1400.64 Q175.556 1400.64 177.362 1397.1 Q179.19 1393.54 179.19 1386.43 Q179.19 1379.3 177.362 1375.76 Q175.556 1372.19 171.922 1372.19 M171.922 1368.49 Q177.732 1368.49 180.788 1373.1 Q183.866 1377.68 183.866 1386.43 Q183.866 1395.16 180.788 1399.76 Q177.732 1404.35 171.922 1404.35 Q166.112 1404.35 163.033 1399.76 Q159.978 1395.16 159.978 1386.43 Q159.978 1377.68 163.033 1373.1 Q166.112 1368.49 171.922 1368.49 Z" fill="#000000" fill-rule="evenodd" fill-opacity="1" /><path clip-path="url(#clip850)" d="M202.084 1372.19 Q198.473 1372.19 196.644 1375.76 Q194.838 1379.3 194.838 1386.43 Q194.838 1393.54 196.644 1397.1 Q198.473 1400.64 202.084 1400.64 Q205.718 1400.64 207.524 1397.1 Q209.352 1393.54 209.352 1386.43 Q209.352 1379.3 207.524 1375.76 Q205.718 1372.19 202.084 1372.19 M202.084 1368.49 Q207.894 1368.49 210.949 1373.1 Q214.028 1377.68 214.028 1386.43 Q214.028 1395.16 210.949 1399.76 Q207.894 1404.35 202.084 1404.35 Q196.274 1404.35 193.195 1399.76 Q190.139 1395.16 190.139 1386.43 Q190.139 1377.68 193.195 1373.1 Q196.274 1368.49 202.084 1368.49 Z" fill="#000000" fill-rule="evenodd" fill-opacity="1" /><path clip-path="url(#clip850)" d="M127.917 1067.99 Q124.306 1067.99 122.478 1071.56 Q120.672 1075.1 120.672 1082.23 Q120.672 1089.33 122.478 1092.9 Q124.306 1096.44 127.917 1096.44 Q131.552 1096.44 133.357 1092.9 Q135.186 1089.33 135.186 1082.23 Q135.186 1075.1 133.357 1071.56 Q131.552 1067.99 127.917 1067.99 M127.917 1064.29 Q133.728 1064.29 136.783 1068.9 Q139.862 1073.48 139.862 1082.23 Q139.862 1090.96 136.783 1095.56 Q133.728 1100.15 127.917 1100.15 Q122.107 1100.15 119.029 1095.56 Q115.973 1090.96 115.973 1082.23 Q115.973 1073.48 119.029 1068.9 Q122.107 1064.29 127.917 1064.29 Z" fill="#000000" fill-rule="evenodd" fill-opacity="1" /><path clip-path="url(#clip850)" d="M148.079 1093.59 L152.964 1093.59 L152.964 1099.47 L148.079 1099.47 L148.079 1093.59 Z" fill="#000000" fill-rule="evenodd" fill-opacity="1" /><path clip-path="url(#clip850)" d="M173.149 1067.99 Q169.538 1067.99 167.709 1071.56 Q165.903 1075.1 165.903 1082.23 Q165.903 1089.33 167.709 1092.9 Q169.538 1096.44 173.149 1096.44 Q176.783 1096.44 178.589 1092.9 Q180.417 1089.33 180.417 1082.23 Q180.417 1075.1 178.589 1071.56 Q176.783 1067.99 173.149 1067.99 M173.149 1064.29 Q178.959 1064.29 182.014 1068.9 Q185.093 1073.48 185.093 1082.23 Q185.093 1090.96 182.014 1095.56 Q178.959 1100.15 173.149 1100.15 Q167.339 1100.15 164.26 1095.56 Q161.204 1090.96 161.204 1082.23 Q161.204 1073.48 164.26 1068.9 Q167.339 1064.29 173.149 1064.29 Z" fill="#000000" fill-rule="evenodd" fill-opacity="1" /><path clip-path="url(#clip850)" d="M194.121 1095.54 L201.76 1095.54 L201.76 1069.17 L193.45 1070.84 L193.45 1066.58 L201.713 1064.91 L206.389 1064.91 L206.389 1095.54 L214.028 1095.54 L214.028 1099.47 L194.121 1099.47 L194.121 1095.54 Z" fill="#000000" fill-rule="evenodd" fill-opacity="1" /><path clip-path="url(#clip850)" d="M128.288 763.791 Q124.677 763.791 122.848 767.355 Q121.043 770.897 121.043 778.027 Q121.043 785.133 122.848 788.698 Q124.677 792.239 128.288 792.239 Q131.922 792.239 133.728 788.698 Q135.556 785.133 135.556 778.027 Q135.556 770.897 133.728 767.355 Q131.922 763.791 128.288 763.791 M128.288 760.087 Q134.098 760.087 137.154 764.693 Q140.232 769.277 140.232 778.027 Q140.232 786.753 137.154 791.36 Q134.098 795.943 128.288 795.943 Q122.478 795.943 119.399 791.36 Q116.343 786.753 116.343 778.027 Q116.343 769.277 119.399 764.693 Q122.478 760.087 128.288 760.087 Z" fill="#000000" fill-rule="evenodd" fill-opacity="1" /><path clip-path="url(#clip850)" d="M148.45 789.392 L153.334 789.392 L153.334 795.272 L148.45 795.272 L148.45 789.392 Z" fill="#000000" fill-rule="evenodd" fill-opacity="1" /><path clip-path="url(#clip850)" d="M173.519 763.791 Q169.908 763.791 168.079 767.355 Q166.274 770.897 166.274 778.027 Q166.274 785.133 168.079 788.698 Q169.908 792.239 173.519 792.239 Q177.153 792.239 178.959 788.698 Q180.788 785.133 180.788 778.027 Q180.788 770.897 178.959 767.355 Q177.153 763.791 173.519 763.791 M173.519 760.087 Q179.329 760.087 182.385 764.693 Q185.463 769.277 185.463 778.027 Q185.463 786.753 182.385 791.36 Q179.329 795.943 173.519 795.943 Q167.709 795.943 164.63 791.36 Q161.575 786.753 161.575 778.027 Q161.575 769.277 164.63 764.693 Q167.709 760.087 173.519 760.087 Z" fill="#000000" fill-rule="evenodd" fill-opacity="1" /><path clip-path="url(#clip850)" d="M197.709 791.337 L214.028 791.337 L214.028 795.272 L192.084 795.272 L192.084 791.337 Q194.746 788.582 199.329 783.952 Q203.936 779.3 205.116 777.957 Q207.362 775.434 208.241 773.698 Q209.144 771.939 209.144 770.249 Q209.144 767.494 207.199 765.758 Q205.278 764.022 202.176 764.022 Q199.977 764.022 197.524 764.786 Q195.093 765.55 192.315 767.101 L192.315 762.378 Q195.139 761.244 197.593 760.666 Q200.047 760.087 202.084 760.087 Q207.454 760.087 210.649 762.772 Q213.843 765.457 213.843 769.948 Q213.843 772.078 213.033 773.999 Q212.246 775.897 210.139 778.49 Q209.561 779.161 206.459 782.378 Q203.357 785.573 197.709 791.337 Z" fill="#000000" fill-rule="evenodd" fill-opacity="1" /><path clip-path="url(#clip850)" d="M127.339 459.589 Q123.728 459.589 121.899 463.153 Q120.093 466.695 120.093 473.825 Q120.093 480.931 121.899 484.496 Q123.728 488.038 127.339 488.038 Q130.973 488.038 132.779 484.496 Q134.607 480.931 134.607 473.825 Q134.607 466.695 132.779 463.153 Q130.973 459.589 127.339 459.589 M127.339 455.885 Q133.149 455.885 136.204 460.491 Q139.283 465.075 139.283 473.825 Q139.283 482.551 136.204 487.158 Q133.149 491.741 127.339 491.741 Q121.529 491.741 118.45 487.158 Q115.394 482.551 115.394 473.825 Q115.394 465.075 118.45 460.491 Q121.529 455.885 127.339 455.885 Z" fill="#000000" fill-rule="evenodd" fill-opacity="1" /><path clip-path="url(#clip850)" d="M147.501 485.19 L152.385 485.19 L152.385 491.07 L147.501 491.07 L147.501 485.19 Z" fill="#000000" fill-rule="evenodd" fill-opacity="1" /><path clip-path="url(#clip850)" d="M172.57 459.589 Q168.959 459.589 167.13 463.153 Q165.325 466.695 165.325 473.825 Q165.325 480.931 167.13 484.496 Q168.959 488.038 172.57 488.038 Q176.204 488.038 178.01 484.496 Q179.839 480.931 179.839 473.825 Q179.839 466.695 178.01 463.153 Q176.204 459.589 172.57 459.589 M172.57 455.885 Q178.38 455.885 181.436 460.491 Q184.514 465.075 184.514 473.825 Q184.514 482.551 181.436 487.158 Q178.38 491.741 172.57 491.741 Q166.76 491.741 163.681 487.158 Q160.626 482.551 160.626 473.825 Q160.626 465.075 163.681 460.491 Q166.76 455.885 172.57 455.885 Z" fill="#000000" fill-rule="evenodd" fill-opacity="1" /><path clip-path="url(#clip850)" d="M206.899 472.436 Q210.255 473.153 212.13 475.422 Q214.028 477.69 214.028 481.024 Q214.028 486.139 210.51 488.94 Q206.991 491.741 200.51 491.741 Q198.334 491.741 196.019 491.301 Q193.727 490.885 191.274 490.028 L191.274 485.514 Q193.218 486.649 195.533 487.227 Q197.848 487.806 200.371 487.806 Q204.769 487.806 207.061 486.07 Q209.375 484.334 209.375 481.024 Q209.375 477.968 207.223 476.255 Q205.093 474.519 201.274 474.519 L197.246 474.519 L197.246 470.677 L201.459 470.677 Q204.908 470.677 206.737 469.311 Q208.565 467.922 208.565 465.329 Q208.565 462.667 206.667 461.255 Q204.792 459.82 201.274 459.82 Q199.352 459.82 197.153 460.237 Q194.954 460.653 192.315 461.533 L192.315 457.366 Q194.977 456.626 197.292 456.255 Q199.63 455.885 201.69 455.885 Q207.014 455.885 210.116 458.315 Q213.218 460.723 213.218 464.843 Q213.218 467.714 211.574 469.704 Q209.931 471.672 206.899 472.436 Z" fill="#000000" fill-rule="evenodd" fill-opacity="1" /><path clip-path="url(#clip850)" d="M126.205 155.387 Q122.593 155.387 120.765 158.951 Q118.959 162.493 118.959 169.623 Q118.959 176.729 120.765 180.294 Q122.593 183.836 126.205 183.836 Q129.839 183.836 131.644 180.294 Q133.473 176.729 133.473 169.623 Q133.473 162.493 131.644 158.951 Q129.839 155.387 126.205 155.387 M126.205 151.683 Q132.015 151.683 135.07 156.289 Q138.149 160.873 138.149 169.623 Q138.149 178.35 135.07 182.956 Q132.015 187.539 126.205 187.539 Q120.394 187.539 117.316 182.956 Q114.26 178.35 114.26 169.623 Q114.26 160.873 117.316 156.289 Q120.394 151.683 126.205 151.683 Z" fill="#000000" fill-rule="evenodd" fill-opacity="1" /><path clip-path="url(#clip850)" d="M146.366 180.988 L151.251 180.988 L151.251 186.868 L146.366 186.868 L146.366 180.988 Z" fill="#000000" fill-rule="evenodd" fill-opacity="1" /><path clip-path="url(#clip850)" d="M171.436 155.387 Q167.825 155.387 165.996 158.951 Q164.19 162.493 164.19 169.623 Q164.19 176.729 165.996 180.294 Q167.825 183.836 171.436 183.836 Q175.07 183.836 176.876 180.294 Q178.704 176.729 178.704 169.623 Q178.704 162.493 176.876 158.951 Q175.07 155.387 171.436 155.387 M171.436 151.683 Q177.246 151.683 180.301 156.289 Q183.38 160.873 183.38 169.623 Q183.38 178.35 180.301 182.956 Q177.246 187.539 171.436 187.539 Q165.626 187.539 162.547 182.956 Q159.491 178.35 159.491 169.623 Q159.491 160.873 162.547 156.289 Q165.626 151.683 171.436 151.683 Z" fill="#000000" fill-rule="evenodd" fill-opacity="1" /><path clip-path="url(#clip850)" d="M204.445 156.382 L192.639 174.831 L204.445 174.831 L204.445 156.382 M203.218 152.308 L209.098 152.308 L209.098 174.831 L214.028 174.831 L214.028 178.72 L209.098 178.72 L209.098 186.868 L204.445 186.868 L204.445 178.72 L188.843 178.72 L188.843 174.206 L203.218 152.308 Z" fill="#000000" fill-rule="evenodd" fill-opacity="1" /><path clip-path="url(#clip850)" d="M14.479 823.997 L19.3487 823.997 L19.3487 829.599 Q19.3487 832.75 20.6219 833.991 Q21.895 835.201 25.2052 835.201 L28.3562 835.201 L28.3562 825.557 L32.9077 825.557 L32.9077 835.201 L64.0042 835.201 L64.0042 841.089 L32.9077 841.089 L32.9077 846.691 L28.3562 846.691 L28.3562 841.089 L25.8736 841.089 Q19.9216 841.089 17.2162 838.32 Q14.479 835.551 14.479 829.535 L14.479 823.997 Z" fill="#000000" fill-rule="evenodd" fill-opacity="1" /><path clip-path="url(#clip850)" d="M46.0847 782.174 Q46.0847 789.272 47.7079 792.009 Q49.3312 794.747 53.2461 794.747 Q56.3653 794.747 58.2114 792.71 Q60.0256 790.641 60.0256 787.108 Q60.0256 782.238 56.5881 779.31 Q53.1188 776.35 47.3897 776.35 L46.0847 776.35 L46.0847 782.174 M43.6657 770.493 L64.0042 770.493 L64.0042 776.35 L58.5933 776.35 Q61.8398 778.355 63.3994 781.347 Q64.9272 784.339 64.9272 788.667 Q64.9272 794.142 61.8716 797.388 Q58.7843 800.603 53.6281 800.603 Q47.6125 800.603 44.5569 796.593 Q41.5014 792.55 41.5014 784.561 L41.5014 776.35 L40.9285 776.35 Q36.8862 776.35 34.6901 779.023 Q32.4621 781.665 32.4621 786.471 Q32.4621 789.527 33.1941 792.423 Q33.9262 795.32 35.3903 797.993 L29.9795 797.993 Q28.7381 794.778 28.1334 791.755 Q27.4968 788.731 27.4968 785.866 Q27.4968 778.132 31.5072 774.313 Q35.5176 770.493 43.6657 770.493 Z" fill="#000000" fill-rule="evenodd" fill-opacity="1" /><path clip-path="url(#clip850)" d="M33.8307 737.774 Q33.2578 738.76 33.0032 739.938 Q32.7167 741.084 32.7167 742.484 Q32.7167 747.449 35.9632 750.123 Q39.1779 752.765 45.2253 752.765 L64.0042 752.765 L64.0042 758.653 L28.3562 758.653 L28.3562 752.765 L33.8944 752.765 Q30.6479 750.919 29.0883 747.959 Q27.4968 744.999 27.4968 740.765 Q27.4968 740.161 27.5923 739.429 Q27.656 738.697 27.8151 737.805 L33.8307 737.774 Z" fill="#000000" fill-rule="evenodd" fill-opacity="1" /><path clip-path="url(#clip850)" d="M46.212 706.04 Q39.7508 706.04 36.0905 708.714 Q32.3984 711.356 32.3984 716.003 Q32.3984 720.65 36.0905 723.323 Q39.7508 725.965 46.212 725.965 Q52.6732 725.965 56.3653 723.323 Q60.0256 720.65 60.0256 716.003 Q60.0256 711.356 56.3653 708.714 Q52.6732 706.04 46.212 706.04 M33.7671 725.965 Q30.5842 724.119 29.0564 721.318 Q27.4968 718.485 27.4968 714.571 Q27.4968 708.077 32.6531 704.035 Q37.8093 699.961 46.212 699.961 Q54.6147 699.961 59.771 704.035 Q64.9272 708.077 64.9272 714.571 Q64.9272 718.485 63.3994 721.318 Q61.8398 724.119 58.657 725.965 L64.0042 725.965 L64.0042 731.853 L14.479 731.853 L14.479 725.965 L33.7671 725.965 Z" fill="#000000" fill-rule="evenodd" fill-opacity="1" /><path clip-path="url(#clip850)" d="M1174.92 17.6457 Q1166.01 17.6457 1160.74 24.2892 Q1155.52 30.9327 1155.52 42.3968 Q1155.52 53.8203 1160.74 60.4638 Q1166.01 67.1073 1174.92 67.1073 Q1183.83 67.1073 1189.02 60.4638 Q1194.25 53.8203 1194.25 42.3968 Q1194.25 30.9327 1189.02 24.2892 Q1183.83 17.6457 1174.92 17.6457 M1186.39 71.4823 L1197.16 83.2704 L1187.28 83.2704 L1178.33 73.5887 Q1176.99 73.6697 1176.26 73.7103 Q1175.57 73.7508 1174.92 73.7508 Q1162.16 73.7508 1154.51 65.2439 Q1146.89 56.6965 1146.89 42.3968 Q1146.89 28.0566 1154.51 19.5497 Q1162.16 11.0023 1174.92 11.0023 Q1187.64 11.0023 1195.26 19.5497 Q1202.87 28.0566 1202.87 42.3968 Q1202.87 52.9291 1198.62 60.4233 Q1194.41 67.9175 1186.39 71.4823 Z" fill="#000000" fill-rule="evenodd" fill-opacity="1" /><path clip-path="url(#clip850)" d="M1242.69 34.9026 L1294.63 34.9026 L1294.63 41.7081 L1242.69 41.7081 L1242.69 34.9026 M1242.69 51.4303 L1294.63 51.4303 L1294.63 58.3168 L1242.69 58.3168 L1242.69 51.4303 Z" fill="#000000" fill-rule="evenodd" fill-opacity="1" /><path clip-path="url(#clip850)" d="M1356.16 17.4837 Q1349.84 17.4837 1346.64 23.7221 Q1343.48 29.92 1343.48 42.3968 Q1343.48 54.833 1346.64 61.0714 Q1349.84 67.2693 1356.16 67.2693 Q1362.52 67.2693 1365.68 61.0714 Q1368.88 54.833 1368.88 42.3968 Q1368.88 29.92 1365.68 23.7221 Q1362.52 17.4837 1356.16 17.4837 M1356.16 11.0023 Q1366.33 11.0023 1371.68 19.0636 Q1377.06 27.0843 1377.06 42.3968 Q1377.06 57.6687 1371.68 65.73 Q1366.33 73.7508 1356.16 73.7508 Q1345.99 73.7508 1340.6 65.73 Q1335.26 57.6687 1335.26 42.3968 Q1335.26 27.0843 1340.6 19.0636 Q1345.99 11.0023 1356.16 11.0023 Z" fill="#000000" fill-rule="evenodd" fill-opacity="1" /><path clip-path="url(#clip850)" d="M1391.44 62.2867 L1399.99 62.2867 L1399.99 72.576 L1391.44 72.576 L1391.44 62.2867 Z" fill="#000000" fill-rule="evenodd" fill-opacity="1" /><path clip-path="url(#clip850)" d="M1418.06 71.3202 L1418.06 63.8666 Q1421.14 65.3249 1424.3 66.0946 Q1427.46 66.8642 1430.49 66.8642 Q1438.6 66.8642 1442.85 61.436 Q1447.14 55.9673 1447.75 44.8678 Q1445.4 48.3516 1441.8 50.215 Q1438.19 52.0784 1433.82 52.0784 Q1424.74 52.0784 1419.44 46.6097 Q1414.17 41.1005 1414.17 31.5808 Q1414.17 22.2638 1419.68 16.633 Q1425.19 11.0023 1434.34 11.0023 Q1444.83 11.0023 1450.34 19.0636 Q1455.89 27.0843 1455.89 42.3968 Q1455.89 56.6965 1449.09 65.2439 Q1442.32 73.7508 1430.86 73.7508 Q1427.78 73.7508 1424.62 73.1431 Q1421.46 72.5355 1418.06 71.3202 M1434.34 45.678 Q1439.85 45.678 1443.05 41.9107 Q1446.29 38.1433 1446.29 31.5808 Q1446.29 25.0589 1443.05 21.2916 Q1439.85 17.4837 1434.34 17.4837 Q1428.83 17.4837 1425.59 21.2916 Q1422.39 25.0589 1422.39 31.5808 Q1422.39 38.1433 1425.59 41.9107 Q1428.83 45.678 1434.34 45.678 Z" fill="#000000" fill-rule="evenodd" fill-opacity="1" /><polyline clip-path="url(#clip852)" style="stroke:#000000; stroke-linecap:round; stroke-linejoin:round; stroke-width:8; stroke-opacity:1; fill:none" points="309.539,1386.4 319.508,1386.4 329.476,1386.4 339.444,1386.4 349.413,1386.4 359.381,1386.4 369.35,1386.4 379.318,1386.4 389.286,1386.4 399.255,1386.4 409.223,1386.4 419.191,1386.4 429.16,1386.4 439.128,1386.4 449.096,1386.4 459.065,1386.4 469.033,1386.4 479.002,1386.4 488.97,1386.4 498.938,1386.4 508.907,1386.4 518.875,1386.4 528.843,1386.4 538.812,1386.4 548.78,1386.4 558.749,1386.4 568.717,1386.4 578.685,1386.4 588.654,1386.4 598.622,1386.4 608.59,1386.4 618.559,1386.4 628.527,1386.4 638.495,1386.4 648.464,1386.4 658.432,1386.4 668.401,1386.4 678.369,1386.4 688.337,1386.4 698.306,1386.4 708.274,1386.4 718.242,1386.4 728.211,1386.4 738.179,1386.4 748.148,1386.4 758.116,1386.4 768.084,1386.4 778.053,1386.4 788.021,1386.4 797.989,1386.4 807.958,1386.4 817.926,1386.4 827.894,1386.4 837.863,1386.4 847.831,1384.6 857.8,1377.97 867.768,1374.14 877.736,1370.67 887.705,1367.71 897.673,1364.87 907.641,1362.19 917.61,1359.51 927.578,1356.86 937.547,1354.23 947.515,1351.75 957.483,1348.87 967.452,1346.21 977.42,1343.59 987.388,1341.35 997.357,1338.13 1007.33,1335.66 1017.29,1333.12 1027.26,1329.19 1037.23,1327.27 1047.2,1324.19 1057.17,1320.33 1067.14,1318.51 1077.1,1314.76 1087.07,1312.06 1097.04,1308.4 1107.01,1304.96 1116.98,1302.56 1126.95,1299.13 1136.91,1295.31 1146.88,1291.75 1156.85,1287.27 1166.82,1285.68 1176.79,1280.8 1186.76,1276.62 1196.72,1273.89 1206.69,1269.34 1216.66,1266.52 1226.63,1261.87 1236.6,1257.96 1246.57,1253.1 1256.53,1249.13 1266.5,1245.77 1276.47,1240.49 1286.44,1235.86 1296.41,1232.05 1306.38,1227.15 1316.34,1222.39 1326.31,1218.81 1336.28,1211.85 1346.25,1207.95 1356.22,1206.05 1366.19,1196.61 1376.15,1192.92 1386.12,1187.21 1396.09,1183.23 1406.06,1176.51 1416.03,1171.91 1426,1165.04 1435.97,1160.95 1445.93,1154.6 1455.9,1146.15 1465.87,1143.69 1475.84,1135.33 1485.81,1128.55 1495.78,1123.34 1505.74,1114.69 1515.71,1110.18 1525.68,1102.48 1535.65,1093.49 1545.62,1098.11 1555.59,1113.4 1565.55,1118.58 1575.52,1120.19 1585.49,1123.37 1595.46,1119.92 1605.43,1119.03 1615.4,1115.21 1625.36,1115.51 1635.33,1111.29 1645.3,1104.5 1655.27,1103.7 1665.24,1099.1 1675.21,1090.6 1685.17,1086.37 1695.14,1077.53 1705.11,1071.05 1715.08,1063.44 1725.05,1052.97 1735.02,1042.95 1744.98,1032.55 1754.95,1019.81 1764.92,1006.6 1774.89,987.529 1784.86,964.857 1794.83,931.698 1804.79,909.134 1814.76,904.141 1824.73,893.936 1834.7,885.26 1844.67,876.909 1854.64,864.561 1864.6,850.493 1874.57,844.999 1884.54,827.323 1894.51,813.711 1904.48,797.363 1914.45,778.252 1924.42,754.026 1934.38,725.985 1944.35,688.293 1954.32,614.562 1964.29,565.587 1974.26,550.413 1984.23,535.128 1994.19,523.849 2004.16,506.99 2014.13,1216.45 2024.1,1386.4 2034.07,1386.4 2044.04,1386.4 2054,1386.4 2063.97,1386.4 2073.94,1386.4 2083.91,1386.4 2093.88,1386.4 2103.85,1386.4 2113.81,1386.4 2123.78,1386.4 2133.75,1386.4 2143.72,1386.4 2153.69,1386.4 2163.66,1386.4 2173.62,1386.4 2183.59,1386.4 2193.56,1386.4 2203.53,1386.4 2213.5,1386.4 2223.47,1386.4 2233.43,1386.4 2243.4,1386.4 2253.37,1386.4 2263.34,1386.4 2273.31,1386.4 2283.28,1386.4 2293.24,1386.4 "/>
<polyline clip-path="url(#clip852)" style="stroke:#000000; stroke-linecap:round; stroke-linejoin:round; stroke-width:4; stroke-opacity:1; fill:none" stroke-dasharray="16, 10" points="309.539,1386.4 319.508,1386.4 329.476,1386.4 339.444,1386.4 349.413,1386.4 359.381,1386.4 369.35,1386.4 379.318,1386.4 389.286,1386.4 399.255,1386.4 409.223,1386.4 419.191,1386.4 429.16,1386.4 439.128,1386.4 449.096,1386.4 459.065,1386.4 469.033,1386.4 479.002,1386.4 488.97,1386.4 498.938,1386.4 508.907,1386.4 518.875,1386.4 528.843,1386.4 538.812,1386.4 548.78,1386.4 558.749,1386.4 568.717,1386.4 578.685,1386.4 588.654,1386.4 598.622,1386.4 608.59,1386.4 618.559,1386.4 628.527,1386.4 638.495,1386.4 648.464,1386.4 658.432,1386.4 668.401,1386.4 678.369,1386.4 688.337,1386.4 698.306,1386.4 708.274,1386.4 718.242,1386.4 728.211,1386.4 738.179,1386.4 748.148,1386.4 758.116,1386.4 768.084,1386.4 778.053,1386.4 788.021,1386.4 797.989,1386.4 807.958,1386.4 817.926,1386.4 827.894,1386.4 837.863,1386.4 847.831,1386.4 857.8,1386.4 867.768,1386.4 877.736,1386.4 887.705,1386.4 897.673,1386.4 907.641,1386.4 917.61,1386.4 927.578,1386.4 937.547,1384.47 947.515,1375.21 957.483,1369.51 967.452,1364.84 977.42,1360.55 987.388,1356.63 997.357,1353.05 1007.33,1349 1017.29,1345.61 1027.26,1341.99 1037.23,1338.36 1047.2,1334.62 1057.17,1331.01 1067.14,1327.23 1077.1,1323.68 1087.07,1319.87 1097.04,1316.24 1107.01,1311.65 1116.98,1307.77 1126.95,1304.86 1136.91,1300.05 1146.88,1295.24 1156.85,1292.47 1166.82,1287.07 1176.79,1282.77 1186.76,1279.25 1196.72,1273.22 1206.69,1269.33 1216.66,1264.11 1226.63,1260.32 1236.6,1255.24 1246.57,1249.25 1256.53,1245.74 1266.5,1239.93 1276.47,1234.76 1286.44,1227.84 1296.41,1224.27 1306.38,1218.25 1316.34,1212.99 1326.31,1207.01 1336.28,1199.88 1346.25,1194.58 1356.22,1188.4 1366.19,1182.89 1376.15,1174.94 1386.12,1169.73 1396.09,1161.47 1406.06,1154.32 1416.03,1152.4 1426,1139.29 1435.97,1133.05 1445.93,1127.65 1455.9,1115.81 1465.87,1110.19 1475.84,1103.1 1485.81,1094.64 1495.78,1086.61 1505.74,1075.65 1515.71,1069.12 1525.68,1056.57 1535.65,1050.02 1545.62,1038.72 1555.59,1027.88 1565.55,1016.85 1575.52,1007.46 1585.49,993.618 1595.46,985.089 1605.43,990.902 1615.4,1008.24 1625.36,1012.59 1635.33,1011.03 1645.3,1007.89 1655.27,1001.59 1665.24,994.261 1675.21,989.534 1685.17,976.602 1695.14,959.681 1705.11,949.685 1715.08,926.946 1725.05,900.195 1735.02,854.211 1744.98,840.793 1754.95,834.54 1764.92,823.836 1774.89,818.845 1784.86,807.811 1794.83,798.905 1804.79,787.45 1814.76,773.882 1824.73,763.606 1834.7,749.517 1844.67,731.817 1854.64,715.913 1864.6,692.394 1874.57,666.943 1884.54,631.509 1894.51,575.278 1904.48,463.562 1914.45,415.413 1924.42,395.139 1934.38,990.117 1944.35,1386.4 1954.32,1386.4 1964.29,1386.4 1974.26,1386.4 1984.23,1386.4 1994.19,1386.4 2004.16,1386.4 2014.13,1386.4 2024.1,1386.4 2034.07,1386.4 2044.04,1386.4 2054,1386.4 2063.97,1386.4 2073.94,1386.4 2083.91,1386.4 2093.88,1386.4 2103.85,1386.4 2113.81,1386.4 2123.78,1386.4 2133.75,1386.4 2143.72,1386.4 2153.69,1386.4 2163.66,1386.4 2173.62,1386.4 2183.59,1386.4 2193.56,1386.4 2203.53,1386.4 2213.5,1386.4 2223.47,1386.4 2233.43,1386.4 2243.4,1386.4 2253.37,1386.4 2263.34,1386.4 2273.31,1386.4 2283.28,1386.4 2293.24,1386.4 "/>
<polyline clip-path="url(#clip852)" style="stroke:#000000; stroke-linecap:round; stroke-linejoin:round; stroke-width:4; stroke-opacity:1; fill:none" points="309.539,1386.4 319.508,1386.4 329.476,1386.4 339.444,1386.4 349.413,1386.4 359.381,1386.4 369.35,1386.4 379.318,1386.4 389.286,1386.4 399.255,1386.4 409.223,1386.4 419.191,1386.4 429.16,1386.4 439.128,1386.4 449.096,1386.4 459.065,1386.4 469.033,1386.4 479.002,1386.4 488.97,1386.4 498.938,1386.4 508.907,1386.4 518.875,1386.4 528.843,1386.4 538.812,1386.4 548.78,1386.4 558.749,1386.4 568.717,1386.4 578.685,1386.4 588.654,1386.4 598.622,1386.4 608.59,1386.4 618.559,1386.4 628.527,1386.4 638.495,1386.4 648.464,1386.4 658.432,1386.4 668.401,1386.4 678.369,1386.4 688.337,1386.4 698.306,1386.4 708.274,1386.4 718.242,1386.4 728.211,1386.4 738.179,1386.4 748.148,1386.4 758.116,1386.4 768.084,1386.4 778.053,1386.4 788.021,1386.4 797.989,1386.4 807.958,1386.4 817.926,1386.4 827.894,1386.4 837.863,1386.4 847.831,1386.4 857.8,1386.4 867.768,1386.4 877.736,1386.4 887.705,1386.4 897.673,1386.4 907.641,1386.4 917.61,1386.4 927.578,1386.4 937.547,1386.4 947.515,1386.4 957.483,1386.4 967.452,1386.4 977.42,1386.4 987.388,1386.4 997.357,1386.4 1007.33,1386.4 1017.29,1386.4 1027.26,1386.4 1037.23,1386.4 1047.2,1386.4 1057.17,1386.4 1067.14,1386.4 1077.1,1386.4 1087.07,1386.4 1097.04,1386.4 1107.01,1386.4 1116.98,1386.4 1126.95,1386.4 1136.91,1386.4 1146.88,1386.4 1156.85,1386.4 1166.82,1386.4 1176.79,1386.4 1186.76,1386.4 1196.72,1386.4 1206.69,1386.4 1216.66,1386.4 1226.63,1386.4 1236.6,1386.4 1246.57,1386.4 1256.53,1386.4 1266.5,1386.4 1276.47,1386.4 1286.44,1358.89 1296.41,1325.83 1306.38,1303.22 1316.34,1284.11 1326.31,1267.41 1336.28,1251.19 1346.25,1234.45 1356.22,1218.17 1366.19,1202.03 1376.15,1187.28 1386.12,1171.65 1396.09,1153.28 1406.06,1137.26 1416.03,1122.11 1426,1103.36 1435.97,1083.77 1445.93,1065.73 1455.9,1046.22 1465.87,1027.29 1475.84,1004.47 1485.81,982.865 1495.78,961.885 1505.74,933.242 1515.71,909.327 1525.68,881.967 1535.65,853.204 1545.62,823.391 1555.59,786.323 1565.55,751.907 1575.52,707.228 1585.49,661.848 1595.46,603.824 1605.43,527.822 1615.4,402.451 1625.36,363.121 1635.33,342.176 1645.3,323.976 1655.27,307.63 1665.24,286.569 1675.21,268.895 1685.17,247.102 1695.14,231.003 1705.11,227.789 1715.08,360.423 1725.05,423.633 1735.02,469.719 1744.98,506.58 1754.95,543.91 1764.92,581.767 1774.89,626.184 1784.86,682.169 1794.83,767.73 1804.79,1163.39 1814.76,1386.4 1824.73,1386.4 1834.7,1386.4 1844.67,1386.4 1854.64,1386.4 1864.6,1386.4 1874.57,1386.4 1884.54,1386.4 1894.51,1386.4 1904.48,1386.4 1914.45,1386.4 1924.42,1386.4 1934.38,1386.4 1944.35,1386.4 1954.32,1386.4 1964.29,1386.4 1974.26,1386.4 1984.23,1386.4 1994.19,1386.4 2004.16,1386.4 2014.13,1386.4 2024.1,1386.4 2034.07,1386.4 2044.04,1386.4 2054,1386.4 2063.97,1386.4 2073.94,1386.4 2083.91,1386.4 2093.88,1386.4 2103.85,1386.4 2113.81,1386.4 2123.78,1386.4 2133.75,1386.4 2143.72,1386.4 2153.69,1386.4 2163.66,1386.4 2173.62,1386.4 2183.59,1386.4 2193.56,1386.4 2203.53,1386.4 2213.5,1386.4 2223.47,1386.4 2233.43,1386.4 2243.4,1386.4 2253.37,1386.4 2263.34,1386.4 2273.31,1386.4 2283.28,1386.4 2293.24,1386.4 "/>
<polyline clip-path="url(#clip852)" style="stroke:#ffa500; stroke-linecap:round; stroke-linejoin:round; stroke-width:4; stroke-opacity:1; fill:none" points="309.539,1386.4 319.508,1386.4 329.476,1386.4 339.444,1386.4 349.413,1386.4 359.381,1386.4 369.35,1386.4 379.318,1386.4 389.286,1386.4 399.255,1386.4 409.223,1386.4 419.191,1386.4 429.16,1386.4 439.128,1386.4 449.096,1386.4 459.065,1386.4 469.033,1386.4 479.002,1386.4 488.97,1386.4 498.938,1386.4 508.907,1386.4 518.875,1386.4 528.843,1386.4 538.812,1386.4 548.78,1386.4 558.749,1386.4 568.717,1386.4 578.685,1386.4 588.654,1386.4 598.622,1386.4 608.59,1386.4 618.559,1386.4 628.527,1386.4 638.495,1386.4 648.464,1386.4 658.432,1386.4 668.401,1386.4 678.369,1386.4 688.337,1386.4 698.306,1386.4 708.274,1386.4 718.242,1386.4 728.211,1386.4 738.179,1386.4 748.148,1386.4 758.116,1386.4 768.084,1386.4 778.053,1386.4 788.021,1386.4 797.989,1386.4 807.958,1386.4 817.926,1386.4 827.894,1386.4 837.863,1386.4 847.831,1386.4 857.8,1386.4 867.768,1386.4 877.736,1386.4 887.705,1386.4 897.673,1386.4 907.641,1386.4 917.61,1386.4 927.578,1386.4 937.547,1386.4 947.515,1386.4 957.483,1386.4 967.452,1386.4 977.42,1386.4 987.388,1386.4 997.357,1386.4 1007.33,1386.4 1017.29,1386.4 1027.26,1386.4 1037.23,1377.57 1047.2,1367.94 1057.17,1360.94 1067.14,1355.83 1077.1,1350.6 1087.07,1345.74 1097.04,1340.78 1107.01,1336.1 1116.98,1331.83 1126.95,1326.77 1136.91,1322.02 1146.88,1317.37 1156.85,1313.22 1166.82,1308.04 1176.79,1303.29 1186.76,1297.1 1196.72,1294.22 1206.69,1287.15 1216.66,1284.04 1226.63,1276.81 1236.6,1272.13 1246.57,1266.87 1256.53,1260.81 1266.5,1255.66 1276.47,1250.16 1286.44,1244.38 1296.41,1236.58 1306.38,1232.61 1316.34,1224.34 1326.31,1218.95 1336.28,1214 1346.25,1204.26 1356.22,1198.34 1366.19,1191.37 1376.15,1185.13 1386.12,1177.38 1396.09,1170.92 1406.06,1161.88 1416.03,1154.81 1426,1146.65 1435.97,1138.54 1445.93,1130.94 1455.9,1121.42 1465.87,1111.56 1475.84,1106.12 1485.81,1094.51 1495.78,1086.43 1505.74,1076.38 1515.71,1065.82 1525.68,1057.08 1535.65,1043.5 1545.62,1037.68 1555.59,1024.42 1565.55,1014.86 1575.52,1000.74 1585.49,990.216 1595.46,976.448 1605.43,998.625 1615.4,1021.18 1625.36,1026.08 1635.33,1028.74 1645.3,1030.71 1655.27,1027.31 1665.24,1025.5 1675.21,1020.4 1685.17,1016.59 1695.14,1007.62 1705.11,999.977 1715.08,992.287 1725.05,981.766 1735.02,967.735 1744.98,957.785 1754.95,939.115 1764.92,922.616 1774.89,905.145 1784.86,881.759 1794.83,853.675 1804.79,821.25 1814.76,778.923 1824.73,705.779 1834.7,645.202 1844.67,624.507 1854.64,599.823 1864.6,565.204 1874.57,531.085 1884.54,484.569 1894.51,409.923 1904.48,264.707 1914.45,192.393 1924.42,160.256 1934.38,512.345 1944.35,1386.4 1954.32,1386.4 1964.29,1386.4 1974.26,1386.4 1984.23,1386.4 1994.19,1386.4 2004.16,1386.4 2014.13,1386.4 2024.1,1386.4 2034.07,1386.4 2044.04,1386.4 2054,1386.4 2063.97,1386.4 2073.94,1386.4 2083.91,1386.4 2093.88,1386.4 2103.85,1386.4 2113.81,1386.4 2123.78,1386.4 2133.75,1386.4 2143.72,1386.4 2153.69,1386.4 2163.66,1386.4 2173.62,1386.4 2183.59,1386.4 2193.56,1386.4 2203.53,1386.4 2213.5,1386.4 2223.47,1386.4 2233.43,1386.4 2243.4,1386.4 2253.37,1386.4 2263.34,1386.4 2273.31,1386.4 2283.28,1386.4 2293.24,1386.4 "/>
<path clip-path="url(#clip850)" d="M320.119 425.996 L858.608 425.996 L858.608 166.796 L320.119 166.796  Z" fill="#ffffff" fill-rule="evenodd" fill-opacity="0"/>
<polyline clip-path="url(#clip850)" style="stroke:#000000; stroke-linecap:round; stroke-linejoin:round; stroke-width:4; stroke-opacity:1; fill:none" points="320.119,425.996 858.608,425.996 858.608,166.796 320.119,166.796 320.119,425.996 "/>
<polyline clip-path="url(#clip850)" style="stroke:#000000; stroke-linecap:round; stroke-linejoin:round; stroke-width:8; stroke-opacity:1; fill:none" points="343.483,218.636 483.665,218.636 "/>
<path clip-path="url(#clip850)" d="M511.426 222.976 Q511.426 227.675 513.348 230.36 Q515.292 233.022 518.672 233.022 Q522.051 233.022 523.996 230.36 Q525.94 227.675 525.94 222.976 Q525.94 218.277 523.996 215.615 Q522.051 212.93 518.672 212.93 Q515.292 212.93 513.348 215.615 Q511.426 218.277 511.426 222.976 M525.94 232.027 Q524.598 234.342 522.537 235.476 Q520.5 236.587 517.63 236.587 Q512.931 236.587 509.968 232.837 Q507.028 229.087 507.028 222.976 Q507.028 216.865 509.968 213.115 Q512.931 209.365 517.63 209.365 Q520.5 209.365 522.537 210.499 Q524.598 211.61 525.94 213.925 L525.94 209.99 L530.199 209.99 L530.199 245.777 L525.94 245.777 L525.94 232.027 Z" fill="#000000" fill-rule="evenodd" fill-opacity="1" /><path clip-path="url(#clip850)" d="M539.528 214.388 L569.204 214.388 L569.204 218.277 L539.528 218.277 L539.528 214.388 M539.528 223.832 L569.204 223.832 L569.204 227.768 L539.528 227.768 L539.528 223.832 Z" fill="#000000" fill-rule="evenodd" fill-opacity="1" /><path clip-path="url(#clip850)" d="M576.542 221.032 L589.019 221.032 L589.019 224.828 L576.542 224.828 L576.542 221.032 Z" fill="#000000" fill-rule="evenodd" fill-opacity="1" /><path clip-path="url(#clip850)" d="M597.213 231.981 L604.852 231.981 L604.852 205.615 L596.542 207.282 L596.542 203.022 L604.805 201.356 L609.481 201.356 L609.481 231.981 L617.12 231.981 L617.12 235.916 L597.213 235.916 L597.213 231.981 Z" fill="#000000" fill-rule="evenodd" fill-opacity="1" /><polyline clip-path="url(#clip850)" style="stroke:#000000; stroke-linecap:round; stroke-linejoin:round; stroke-width:4; stroke-opacity:1; fill:none" stroke-dasharray="16, 10" points="343.483,270.476 483.665,270.476 "/>
<path clip-path="url(#clip850)" d="M511.426 274.816 Q511.426 279.515 513.348 282.2 Q515.292 284.862 518.672 284.862 Q522.051 284.862 523.996 282.2 Q525.94 279.515 525.94 274.816 Q525.94 270.117 523.996 267.455 Q522.051 264.77 518.672 264.77 Q515.292 264.77 513.348 267.455 Q511.426 270.117 511.426 274.816 M525.94 283.867 Q524.598 286.182 522.537 287.316 Q520.5 288.427 517.63 288.427 Q512.931 288.427 509.968 284.677 Q507.028 280.927 507.028 274.816 Q507.028 268.705 509.968 264.955 Q512.931 261.205 517.63 261.205 Q520.5 261.205 522.537 262.339 Q524.598 263.45 525.94 265.765 L525.94 261.83 L530.199 261.83 L530.199 297.617 L525.94 297.617 L525.94 283.867 Z" fill="#000000" fill-rule="evenodd" fill-opacity="1" /><path clip-path="url(#clip850)" d="M539.528 266.228 L569.204 266.228 L569.204 270.117 L539.528 270.117 L539.528 266.228 M539.528 275.672 L569.204 275.672 L569.204 279.608 L539.528 279.608 L539.528 275.672 Z" fill="#000000" fill-rule="evenodd" fill-opacity="1" /><path clip-path="url(#clip850)" d="M589.296 256.274 Q585.685 256.274 583.856 259.839 Q582.051 263.381 582.051 270.51 Q582.051 277.617 583.856 281.182 Q585.685 284.723 589.296 284.723 Q592.931 284.723 594.736 281.182 Q596.565 277.617 596.565 270.51 Q596.565 263.381 594.736 259.839 Q592.931 256.274 589.296 256.274 M589.296 252.571 Q595.106 252.571 598.162 257.177 Q601.241 261.76 601.241 270.51 Q601.241 279.237 598.162 283.844 Q595.106 288.427 589.296 288.427 Q583.486 288.427 580.407 283.844 Q577.352 279.237 577.352 270.51 Q577.352 261.76 580.407 257.177 Q583.486 252.571 589.296 252.571 Z" fill="#000000" fill-rule="evenodd" fill-opacity="1" /><polyline clip-path="url(#clip850)" style="stroke:#000000; stroke-linecap:round; stroke-linejoin:round; stroke-width:4; stroke-opacity:1; fill:none" points="343.483,322.316 483.665,322.316 "/>
<path clip-path="url(#clip850)" d="M511.426 326.656 Q511.426 331.355 513.348 334.04 Q515.292 336.702 518.672 336.702 Q522.051 336.702 523.996 334.04 Q525.94 331.355 525.94 326.656 Q525.94 321.957 523.996 319.295 Q522.051 316.61 518.672 316.61 Q515.292 316.61 513.348 319.295 Q511.426 321.957 511.426 326.656 M525.94 335.707 Q524.598 338.022 522.537 339.156 Q520.5 340.267 517.63 340.267 Q512.931 340.267 509.968 336.517 Q507.028 332.767 507.028 326.656 Q507.028 320.545 509.968 316.795 Q512.931 313.045 517.63 313.045 Q520.5 313.045 522.537 314.179 Q524.598 315.29 525.94 317.605 L525.94 313.67 L530.199 313.67 L530.199 349.457 L525.94 349.457 L525.94 335.707 Z" fill="#000000" fill-rule="evenodd" fill-opacity="1" /><path clip-path="url(#clip850)" d="M539.528 318.068 L569.204 318.068 L569.204 321.957 L539.528 321.957 L539.528 318.068 M539.528 327.512 L569.204 327.512 L569.204 331.448 L539.528 331.448 L539.528 327.512 Z" fill="#000000" fill-rule="evenodd" fill-opacity="1" /><path clip-path="url(#clip850)" d="M580.107 335.661 L587.745 335.661 L587.745 309.295 L579.435 310.962 L579.435 306.702 L587.699 305.036 L592.375 305.036 L592.375 335.661 L600.014 335.661 L600.014 339.596 L580.107 339.596 L580.107 335.661 Z" fill="#000000" fill-rule="evenodd" fill-opacity="1" /><polyline clip-path="url(#clip850)" style="stroke:#ffa500; stroke-linecap:round; stroke-linejoin:round; stroke-width:4; stroke-opacity:1; fill:none" points="343.483,374.156 483.665,374.156 "/>
<path clip-path="url(#clip850)" d="M529.273 358.01 L529.273 362.57 Q526.611 361.297 524.25 360.672 Q521.889 360.047 519.69 360.047 Q515.871 360.047 513.787 361.528 Q511.727 363.01 511.727 365.741 Q511.727 368.033 513.093 369.214 Q514.482 370.371 518.324 371.089 L521.148 371.667 Q526.38 372.663 528.857 375.186 Q531.357 377.686 531.357 381.899 Q531.357 386.922 527.977 389.514 Q524.621 392.107 518.116 392.107 Q515.662 392.107 512.885 391.551 Q510.13 390.996 507.167 389.908 L507.167 385.093 Q510.014 386.69 512.746 387.501 Q515.477 388.311 518.116 388.311 Q522.121 388.311 524.297 386.737 Q526.473 385.163 526.473 382.246 Q526.473 379.7 524.898 378.264 Q523.348 376.829 519.783 376.112 L516.936 375.556 Q511.704 374.515 509.366 372.292 Q507.028 370.07 507.028 366.112 Q507.028 361.528 510.246 358.89 Q513.487 356.251 519.158 356.251 Q521.588 356.251 524.111 356.691 Q526.635 357.13 529.273 358.01 Z" fill="#000000" fill-rule="evenodd" fill-opacity="1" /><path clip-path="url(#clip850)" d="M557.121 366.505 L557.121 370.487 Q555.315 369.491 553.486 369.005 Q551.681 368.496 549.829 368.496 Q545.685 368.496 543.394 371.135 Q541.102 373.751 541.102 378.496 Q541.102 383.241 543.394 385.88 Q545.685 388.496 549.829 388.496 Q551.681 388.496 553.486 388.01 Q555.315 387.501 557.121 386.505 L557.121 390.44 Q555.338 391.274 553.417 391.69 Q551.519 392.107 549.366 392.107 Q543.509 392.107 540.06 388.426 Q536.611 384.746 536.611 378.496 Q536.611 372.153 540.084 368.519 Q543.579 364.885 549.644 364.885 Q551.611 364.885 553.486 365.302 Q555.361 365.695 557.121 366.505 Z" fill="#000000" fill-rule="evenodd" fill-opacity="1" /><path clip-path="url(#clip850)" d="M586.079 375.788 L586.079 391.436 L581.819 391.436 L581.819 375.927 Q581.819 372.246 580.384 370.417 Q578.949 368.589 576.079 368.589 Q572.63 368.589 570.639 370.788 Q568.648 372.987 568.648 376.783 L568.648 391.436 L564.366 391.436 L564.366 355.417 L568.648 355.417 L568.648 369.538 Q570.176 367.2 572.236 366.042 Q574.32 364.885 577.028 364.885 Q581.495 364.885 583.787 367.663 Q586.079 370.417 586.079 375.788 Z" fill="#000000" fill-rule="evenodd" fill-opacity="1" /><path clip-path="url(#clip850)" d="M592.097 365.51 L596.356 365.51 L601.68 385.741 L606.981 365.51 L612.004 365.51 L617.329 385.741 L622.629 365.51 L626.889 365.51 L620.106 391.436 L615.083 391.436 L609.505 370.186 L603.903 391.436 L598.88 391.436 L592.097 365.51 Z" fill="#000000" fill-rule="evenodd" fill-opacity="1" /><path clip-path="url(#clip850)" d="M645.129 378.403 Q639.967 378.403 637.977 379.584 Q635.986 380.764 635.986 383.612 Q635.986 385.88 637.467 387.223 Q638.972 388.542 641.541 388.542 Q645.083 388.542 647.213 386.042 Q649.365 383.519 649.365 379.352 L649.365 378.403 L645.129 378.403 M653.625 376.644 L653.625 391.436 L649.365 391.436 L649.365 387.501 Q647.907 389.862 645.731 390.996 Q643.555 392.107 640.407 392.107 Q636.426 392.107 634.065 389.885 Q631.727 387.639 631.727 383.889 Q631.727 379.514 634.643 377.292 Q637.583 375.07 643.393 375.07 L649.365 375.07 L649.365 374.653 Q649.365 371.714 647.421 370.116 Q645.5 368.496 642.004 368.496 Q639.782 368.496 637.676 369.028 Q635.569 369.561 633.625 370.626 L633.625 366.69 Q635.963 365.788 638.162 365.348 Q640.361 364.885 642.444 364.885 Q648.069 364.885 650.847 367.802 Q653.625 370.718 653.625 376.644 Z" fill="#000000" fill-rule="evenodd" fill-opacity="1" /><path clip-path="url(#clip850)" d="M677.421 369.491 Q676.703 369.075 675.847 368.89 Q675.013 368.681 673.995 368.681 Q670.384 368.681 668.439 371.042 Q666.518 373.38 666.518 377.778 L666.518 391.436 L662.236 391.436 L662.236 365.51 L666.518 365.51 L666.518 369.538 Q667.861 367.177 670.013 366.042 Q672.166 364.885 675.245 364.885 Q675.685 364.885 676.217 364.954 Q676.75 365.001 677.398 365.116 L677.421 369.491 Z" fill="#000000" fill-rule="evenodd" fill-opacity="1" /><path clip-path="url(#clip850)" d="M680.037 365.51 L700.268 365.51 L700.268 369.399 L684.249 388.033 L700.268 388.033 L700.268 391.436 L679.458 391.436 L679.458 387.547 L695.476 368.913 L680.037 368.913 L680.037 365.51 Z" fill="#000000" fill-rule="evenodd" fill-opacity="1" /><path clip-path="url(#clip850)" d="M723.3 366.274 L723.3 370.302 Q721.495 369.376 719.55 368.913 Q717.606 368.45 715.522 368.45 Q712.351 368.45 710.754 369.422 Q709.18 370.394 709.18 372.339 Q709.18 373.82 710.314 374.677 Q711.448 375.51 714.874 376.274 L716.333 376.598 Q720.87 377.57 722.768 379.352 Q724.689 381.112 724.689 384.283 Q724.689 387.894 721.819 390.001 Q718.972 392.107 713.972 392.107 Q711.888 392.107 709.62 391.69 Q707.374 391.297 704.874 390.487 L704.874 386.089 Q707.235 387.315 709.527 387.94 Q711.819 388.542 714.064 388.542 Q717.073 388.542 718.694 387.524 Q720.314 386.482 720.314 384.607 Q720.314 382.871 719.134 381.945 Q717.976 381.019 714.018 380.163 L712.536 379.815 Q708.578 378.982 706.819 377.269 Q705.06 375.533 705.06 372.524 Q705.06 368.866 707.652 366.876 Q710.245 364.885 715.013 364.885 Q717.374 364.885 719.458 365.232 Q721.541 365.579 723.3 366.274 Z" fill="#000000" fill-rule="evenodd" fill-opacity="1" /><path clip-path="url(#clip850)" d="M750.129 366.505 L750.129 370.487 Q748.323 369.491 746.495 369.005 Q744.689 368.496 742.837 368.496 Q738.694 368.496 736.402 371.135 Q734.11 373.751 734.11 378.496 Q734.11 383.241 736.402 385.88 Q738.694 388.496 742.837 388.496 Q744.689 388.496 746.495 388.01 Q748.323 387.501 750.129 386.505 L750.129 390.44 Q748.346 391.274 746.425 391.69 Q744.527 392.107 742.374 392.107 Q736.518 392.107 733.069 388.426 Q729.62 384.746 729.62 378.496 Q729.62 372.153 733.092 368.519 Q736.587 364.885 742.652 364.885 Q744.62 364.885 746.495 365.302 Q748.37 365.695 750.129 366.505 Z" fill="#000000" fill-rule="evenodd" fill-opacity="1" /><path clip-path="url(#clip850)" d="M779.087 375.788 L779.087 391.436 L774.828 391.436 L774.828 375.927 Q774.828 372.246 773.393 370.417 Q771.957 368.589 769.087 368.589 Q765.638 368.589 763.647 370.788 Q761.656 372.987 761.656 376.783 L761.656 391.436 L757.374 391.436 L757.374 355.417 L761.656 355.417 L761.656 369.538 Q763.184 367.2 765.244 366.042 Q767.328 364.885 770.036 364.885 Q774.504 364.885 776.795 367.663 Q779.087 370.417 779.087 375.788 Z" fill="#000000" fill-rule="evenodd" fill-opacity="1" /><path clip-path="url(#clip850)" d="M787.582 365.51 L791.841 365.51 L791.841 391.436 L787.582 391.436 L787.582 365.51 M787.582 355.417 L791.841 355.417 L791.841 360.811 L787.582 360.811 L787.582 355.417 Z" fill="#000000" fill-rule="evenodd" fill-opacity="1" /><path clip-path="url(#clip850)" d="M800.753 355.417 L805.013 355.417 L805.013 391.436 L800.753 391.436 L800.753 355.417 Z" fill="#000000" fill-rule="evenodd" fill-opacity="1" /><path clip-path="url(#clip850)" d="M830.985 369.445 L830.985 355.417 L835.244 355.417 L835.244 391.436 L830.985 391.436 L830.985 387.547 Q829.642 389.862 827.582 390.996 Q825.545 392.107 822.675 392.107 Q817.976 392.107 815.013 388.357 Q812.073 384.607 812.073 378.496 Q812.073 372.385 815.013 368.635 Q817.976 364.885 822.675 364.885 Q825.545 364.885 827.582 366.019 Q829.642 367.13 830.985 369.445 M816.471 378.496 Q816.471 383.195 818.392 385.88 Q820.337 388.542 823.716 388.542 Q827.096 388.542 829.04 385.88 Q830.985 383.195 830.985 378.496 Q830.985 373.797 829.04 371.135 Q827.096 368.45 823.716 368.45 Q820.337 368.45 818.392 371.135 Q816.471 373.797 816.471 378.496 Z" fill="#000000" fill-rule="evenodd" fill-opacity="1" /></svg>
