<?xml version="1.0" encoding="utf-8"?>
<svg xmlns="http://www.w3.org/2000/svg" xmlns:xlink="http://www.w3.org/1999/xlink" width="600" height="400" viewBox="0 0 2400 1600">
<defs>
  <clipPath id="clip170">
    <rect x="0" y="0" width="2400" height="1600"/>
  </clipPath>
</defs>
<path clip-path="url(#clip170)" d="M0 1600 L2400 1600 L2400 0 L0 0  Z" fill="#ffffff" fill-rule="evenodd" fill-opacity="0"/>
<defs>
  <clipPath id="clip171">
    <rect x="480" y="0" width="1681" height="1600"/>
  </clipPath>
</defs>
<path clip-path="url(#clip170)" d="M250.028 1423.18 L2352.76 1423.18 L2352.76 123.472 L250.028 123.472  Z" fill="#ffffff" fill-rule="evenodd" fill-opacity="0"/>
<defs>
  <clipPath id="clip172">
    <rect x="250" y="123" width="2104" height="1301"/>
  </clipPath>
</defs>
<polyline clip-path="url(#clip172)" style="stroke:#000000; stroke-linecap:round; stroke-linejoin:round; stroke-width:2; stroke-opacity:0.1; fill:none" points="557.502,1423.18 557.502,123.472 "/>
<polyline clip-path="url(#clip172)" style="stroke:#000000; stroke-linecap:round; stroke-linejoin:round; stroke-width:2; stroke-opacity:0.1; fill:none" points="970.774,1423.18 970.774,123.472 "/>
<polyline clip-path="url(#clip172)" style="stroke:#000000; stroke-linecap:round; stroke-linejoin:round; stroke-width:2; stroke-opacity:0.1; fill:none" points="1384.05,1423.18 1384.05,123.472 "/>
<polyline clip-path="url(#clip172)" style="stroke:#000000; stroke-linecap:round; stroke-linejoin:round; stroke-width:2; stroke-opacity:0.1; fill:none" points="1797.32,1423.18 1797.32,123.472 "/>
<polyline clip-path="url(#clip172)" style="stroke:#000000; stroke-linecap:round; stroke-linejoin:round; stroke-width:2; stroke-opacity:0.1; fill:none" points="2210.59,1423.18 2210.59,123.472 "/>
<polyline clip-path="url(#clip170)" style="stroke:#000000; stroke-linecap:round; stroke-linejoin:round; stroke-width:4; stroke-opacity:1; fill:none" points="250.028,1423.18 2352.76,1423.18 "/>
<polyline clip-path="url(#clip170)" style="stroke:#000000; stroke-linecap:round; stroke-linejoin:round; stroke-width:4; stroke-opacity:1; fill:none" points="557.502,1423.18 557.502,1404.28 "/>
<polyline clip-path="url(#clip170)" style="stroke:#000000; stroke-linecap:round; stroke-linejoin:round; stroke-width:4; stroke-opacity:1; fill:none" points="970.774,1423.18 970.774,1404.28 "/>
<polyline clip-path="url(#clip170)" style="stroke:#000000; stroke-linecap:round; stroke-linejoin:round; stroke-width:4; stroke-opacity:1; fill:none" points="1384.05,1423.18 1384.05,1404.28 "/>
<polyline clip-path="url(#clip170)" style="stroke:#000000; stroke-linecap:round; stroke-linejoin:round; stroke-width:4; stroke-opacity:1; fill:none" points="1797.32,1423.18 1797.32,1404.28 "/>
<polyline clip-path="url(#clip170)" style="stroke:#000000; stroke-linecap:round; stroke-linejoin:round; stroke-width:4; stroke-opacity:1; fill:none" points="2210.59,1423.18 2210.59,1404.28 "/>
<path clip-path="url(#clip170)" d="M520.304 1454.1 Q516.693 1454.1 514.864 1457.66 Q513.058 1461.2 513.058 1468.33 Q513.058 1475.44 514.864 1479.01 Q516.693 1482.55 520.304 1482.55 Q523.938 1482.55 525.743 1479.01 Q527.572 1475.44 527.572 1468.33 Q527.572 1461.2 525.743 1457.66 Q523.938 1454.1 520.304 1454.1 M520.304 1450.39 Q526.114 1450.39 529.169 1455 Q532.248 1459.58 532.248 1468.33 Q532.248 1477.06 529.169 1481.67 Q526.114 1486.25 520.304 1486.25 Q514.493 1486.25 511.415 1481.67 Q508.359 1477.06 508.359 1468.33 Q508.359 1459.58 511.415 1455 Q514.493 1450.39 520.304 1450.39 Z" fill="#000000" fill-rule="evenodd" fill-opacity="1" /><path clip-path="url(#clip170)" d="M540.466 1479.7 L545.35 1479.7 L545.35 1485.58 L540.466 1485.58 L540.466 1479.7 Z" fill="#000000" fill-rule="evenodd" fill-opacity="1" /><path clip-path="url(#clip170)" d="M559.563 1481.64 L575.882 1481.64 L575.882 1485.58 L553.938 1485.58 L553.938 1481.64 Q556.6 1478.89 561.183 1474.26 Q565.789 1469.61 566.97 1468.27 Q569.215 1465.74 570.095 1464.01 Q570.998 1462.25 570.998 1460.56 Q570.998 1457.8 569.053 1456.07 Q567.132 1454.33 564.03 1454.33 Q561.831 1454.33 559.377 1455.09 Q556.947 1455.86 554.169 1457.41 L554.169 1452.69 Q556.993 1451.55 559.447 1450.97 Q561.901 1450.39 563.938 1450.39 Q569.308 1450.39 572.502 1453.08 Q575.697 1455.77 575.697 1460.26 Q575.697 1462.39 574.887 1464.31 Q574.1 1466.2 571.993 1468.8 Q571.414 1469.47 568.313 1472.69 Q565.211 1475.88 559.563 1481.64 Z" fill="#000000" fill-rule="evenodd" fill-opacity="1" /><path clip-path="url(#clip170)" d="M585.743 1451.02 L604.099 1451.02 L604.099 1454.96 L590.025 1454.96 L590.025 1463.43 Q591.044 1463.08 592.062 1462.92 Q593.081 1462.73 594.1 1462.73 Q599.887 1462.73 603.266 1465.9 Q606.646 1469.08 606.646 1474.49 Q606.646 1480.07 603.174 1483.17 Q599.701 1486.25 593.382 1486.25 Q591.206 1486.25 588.938 1485.88 Q586.692 1485.51 584.285 1484.77 L584.285 1480.07 Q586.368 1481.2 588.59 1481.76 Q590.812 1482.32 593.289 1482.32 Q597.294 1482.32 599.632 1480.21 Q601.97 1478.1 601.97 1474.49 Q601.97 1470.88 599.632 1468.77 Q597.294 1466.67 593.289 1466.67 Q591.414 1466.67 589.539 1467.08 Q587.688 1467.5 585.743 1468.38 L585.743 1451.02 Z" fill="#000000" fill-rule="evenodd" fill-opacity="1" /><path clip-path="url(#clip170)" d="M933.078 1454.1 Q929.467 1454.1 927.638 1457.66 Q925.833 1461.2 925.833 1468.33 Q925.833 1475.44 927.638 1479.01 Q929.467 1482.55 933.078 1482.55 Q936.712 1482.55 938.518 1479.01 Q940.346 1475.44 940.346 1468.33 Q940.346 1461.2 938.518 1457.66 Q936.712 1454.1 933.078 1454.1 M933.078 1450.39 Q938.888 1450.39 941.944 1455 Q945.022 1459.58 945.022 1468.33 Q945.022 1477.06 941.944 1481.67 Q938.888 1486.25 933.078 1486.25 Q927.268 1486.25 924.189 1481.67 Q921.134 1477.06 921.134 1468.33 Q921.134 1459.58 924.189 1455 Q927.268 1450.39 933.078 1450.39 Z" fill="#000000" fill-rule="evenodd" fill-opacity="1" /><path clip-path="url(#clip170)" d="M953.24 1479.7 L958.124 1479.7 L958.124 1485.58 L953.24 1485.58 L953.24 1479.7 Z" fill="#000000" fill-rule="evenodd" fill-opacity="1" /><path clip-path="url(#clip170)" d="M968.355 1451.02 L986.712 1451.02 L986.712 1454.96 L972.638 1454.96 L972.638 1463.43 Q973.656 1463.08 974.675 1462.92 Q975.693 1462.73 976.712 1462.73 Q982.499 1462.73 985.879 1465.9 Q989.258 1469.08 989.258 1474.49 Q989.258 1480.07 985.786 1483.17 Q982.314 1486.25 975.994 1486.25 Q973.818 1486.25 971.55 1485.88 Q969.305 1485.51 966.897 1484.77 L966.897 1480.07 Q968.98 1481.2 971.203 1481.76 Q973.425 1482.32 975.902 1482.32 Q979.906 1482.32 982.244 1480.21 Q984.582 1478.1 984.582 1474.49 Q984.582 1470.88 982.244 1468.77 Q979.906 1466.67 975.902 1466.67 Q974.027 1466.67 972.152 1467.08 Q970.3 1467.5 968.355 1468.38 L968.355 1451.02 Z" fill="#000000" fill-rule="evenodd" fill-opacity="1" /><path clip-path="url(#clip170)" d="M1008.47 1454.1 Q1004.86 1454.1 1003.03 1457.66 Q1001.23 1461.2 1001.23 1468.33 Q1001.23 1475.44 1003.03 1479.01 Q1004.86 1482.55 1008.47 1482.55 Q1012.11 1482.55 1013.91 1479.01 Q1015.74 1475.44 1015.74 1468.33 Q1015.74 1461.2 1013.91 1457.66 Q1012.11 1454.1 1008.47 1454.1 M1008.47 1450.39 Q1014.28 1450.39 1017.34 1455 Q1020.42 1459.58 1020.42 1468.33 Q1020.42 1477.06 1017.34 1481.67 Q1014.28 1486.25 1008.47 1486.25 Q1002.66 1486.25 999.582 1481.67 Q996.527 1477.06 996.527 1468.33 Q996.527 1459.58 999.582 1455 Q1002.66 1450.39 1008.47 1450.39 Z" fill="#000000" fill-rule="evenodd" fill-opacity="1" /><path clip-path="url(#clip170)" d="M1346.85 1454.1 Q1343.24 1454.1 1341.41 1457.66 Q1339.6 1461.2 1339.6 1468.33 Q1339.6 1475.44 1341.41 1479.01 Q1343.24 1482.55 1346.85 1482.55 Q1350.48 1482.55 1352.29 1479.01 Q1354.12 1475.44 1354.12 1468.33 Q1354.12 1461.2 1352.29 1457.66 Q1350.48 1454.1 1346.85 1454.1 M1346.85 1450.39 Q1352.66 1450.39 1355.71 1455 Q1358.79 1459.58 1358.79 1468.33 Q1358.79 1477.06 1355.71 1481.67 Q1352.66 1486.25 1346.85 1486.25 Q1341.04 1486.25 1337.96 1481.67 Q1334.9 1477.06 1334.9 1468.33 Q1334.9 1459.58 1337.96 1455 Q1341.04 1450.39 1346.85 1450.39 Z" fill="#000000" fill-rule="evenodd" fill-opacity="1" /><path clip-path="url(#clip170)" d="M1367.01 1479.7 L1371.89 1479.7 L1371.89 1485.58 L1367.01 1485.58 L1367.01 1479.7 Z" fill="#000000" fill-rule="evenodd" fill-opacity="1" /><path clip-path="url(#clip170)" d="M1380.9 1451.02 L1403.12 1451.02 L1403.12 1453.01 L1390.57 1485.58 L1385.69 1485.58 L1397.5 1454.96 L1380.9 1454.96 L1380.9 1451.02 Z" fill="#000000" fill-rule="evenodd" fill-opacity="1" /><path clip-path="url(#clip170)" d="M1412.29 1451.02 L1430.64 1451.02 L1430.64 1454.96 L1416.57 1454.96 L1416.57 1463.43 Q1417.59 1463.08 1418.61 1462.92 Q1419.62 1462.73 1420.64 1462.73 Q1426.43 1462.73 1429.81 1465.9 Q1433.19 1469.08 1433.19 1474.49 Q1433.19 1480.07 1429.72 1483.17 Q1426.25 1486.25 1419.93 1486.25 Q1417.75 1486.25 1415.48 1485.88 Q1413.24 1485.51 1410.83 1484.77 L1410.83 1480.07 Q1412.91 1481.2 1415.13 1481.76 Q1417.36 1482.32 1419.83 1482.32 Q1423.84 1482.32 1426.18 1480.21 Q1428.51 1478.1 1428.51 1474.49 Q1428.51 1470.88 1426.18 1468.77 Q1423.84 1466.67 1419.83 1466.67 Q1417.96 1466.67 1416.08 1467.08 Q1414.23 1467.5 1412.29 1468.38 L1412.29 1451.02 Z" fill="#000000" fill-rule="evenodd" fill-opacity="1" /><path clip-path="url(#clip170)" d="M1749.39 1481.64 L1757.03 1481.64 L1757.03 1455.28 L1748.72 1456.95 L1748.72 1452.69 L1756.98 1451.02 L1761.66 1451.02 L1761.66 1481.64 L1769.3 1481.64 L1769.3 1485.58 L1749.39 1485.58 L1749.39 1481.64 Z" fill="#000000" fill-rule="evenodd" fill-opacity="1" /><path clip-path="url(#clip170)" d="M1778.74 1479.7 L1783.63 1479.7 L1783.63 1485.58 L1778.74 1485.58 L1778.74 1479.7 Z" fill="#000000" fill-rule="evenodd" fill-opacity="1" /><path clip-path="url(#clip170)" d="M1803.81 1454.1 Q1800.2 1454.1 1798.37 1457.66 Q1796.57 1461.2 1796.57 1468.33 Q1796.57 1475.44 1798.37 1479.01 Q1800.2 1482.55 1803.81 1482.55 Q1807.45 1482.55 1809.25 1479.01 Q1811.08 1475.44 1811.08 1468.33 Q1811.08 1461.2 1809.25 1457.66 Q1807.45 1454.1 1803.81 1454.1 M1803.81 1450.39 Q1809.62 1450.39 1812.68 1455 Q1815.76 1459.58 1815.76 1468.33 Q1815.76 1477.06 1812.68 1481.67 Q1809.62 1486.25 1803.81 1486.25 Q1798 1486.25 1794.92 1481.67 Q1791.87 1477.06 1791.87 1468.33 Q1791.87 1459.58 1794.92 1455 Q1798 1450.39 1803.81 1450.39 Z" fill="#000000" fill-rule="evenodd" fill-opacity="1" /><path clip-path="url(#clip170)" d="M1833.97 1454.1 Q1830.36 1454.1 1828.53 1457.66 Q1826.73 1461.2 1826.73 1468.33 Q1826.73 1475.44 1828.53 1479.01 Q1830.36 1482.55 1833.97 1482.55 Q1837.61 1482.55 1839.41 1479.01 Q1841.24 1475.44 1841.24 1468.33 Q1841.24 1461.2 1839.41 1457.66 Q1837.61 1454.1 1833.97 1454.1 M1833.97 1450.39 Q1839.78 1450.39 1842.84 1455 Q1845.92 1459.58 1845.92 1468.33 Q1845.92 1477.06 1842.84 1481.67 Q1839.78 1486.25 1833.97 1486.25 Q1828.16 1486.25 1825.08 1481.67 Q1822.03 1477.06 1822.03 1468.33 Q1822.03 1459.58 1825.08 1455 Q1828.16 1450.39 1833.97 1450.39 Z" fill="#000000" fill-rule="evenodd" fill-opacity="1" /><path clip-path="url(#clip170)" d="M2163.16 1481.64 L2170.8 1481.64 L2170.8 1455.28 L2162.49 1456.95 L2162.49 1452.69 L2170.75 1451.02 L2175.43 1451.02 L2175.43 1481.64 L2183.07 1481.64 L2183.07 1485.58 L2163.16 1485.58 L2163.16 1481.64 Z" fill="#000000" fill-rule="evenodd" fill-opacity="1" /><path clip-path="url(#clip170)" d="M2192.51 1479.7 L2197.4 1479.7 L2197.4 1485.58 L2192.51 1485.58 L2192.51 1479.7 Z" fill="#000000" fill-rule="evenodd" fill-opacity="1" /><path clip-path="url(#clip170)" d="M2211.61 1481.64 L2227.93 1481.64 L2227.93 1485.58 L2205.98 1485.58 L2205.98 1481.64 Q2208.65 1478.89 2213.23 1474.26 Q2217.84 1469.61 2219.02 1468.27 Q2221.26 1465.74 2222.14 1464.01 Q2223.04 1462.25 2223.04 1460.56 Q2223.04 1457.8 2221.1 1456.07 Q2219.18 1454.33 2216.08 1454.33 Q2213.88 1454.33 2211.42 1455.09 Q2208.99 1455.86 2206.22 1457.41 L2206.22 1452.69 Q2209.04 1451.55 2211.49 1450.97 Q2213.95 1450.39 2215.98 1450.39 Q2221.35 1450.39 2224.55 1453.08 Q2227.74 1455.77 2227.74 1460.26 Q2227.74 1462.39 2226.93 1464.31 Q2226.15 1466.2 2224.04 1468.8 Q2223.46 1469.47 2220.36 1472.69 Q2217.26 1475.88 2211.61 1481.64 Z" fill="#000000" fill-rule="evenodd" fill-opacity="1" /><path clip-path="url(#clip170)" d="M2237.79 1451.02 L2256.15 1451.02 L2256.15 1454.96 L2242.07 1454.96 L2242.07 1463.43 Q2243.09 1463.08 2244.11 1462.92 Q2245.13 1462.73 2246.15 1462.73 Q2251.93 1462.73 2255.31 1465.9 Q2258.69 1469.08 2258.69 1474.49 Q2258.69 1480.07 2255.22 1483.17 Q2251.75 1486.25 2245.43 1486.25 Q2243.25 1486.25 2240.98 1485.88 Q2238.74 1485.51 2236.33 1484.77 L2236.33 1480.07 Q2238.41 1481.2 2240.64 1481.76 Q2242.86 1482.32 2245.34 1482.32 Q2249.34 1482.32 2251.68 1480.21 Q2254.02 1478.1 2254.02 1474.49 Q2254.02 1470.88 2251.68 1468.77 Q2249.34 1466.67 2245.34 1466.67 Q2243.46 1466.67 2241.59 1467.08 Q2239.73 1467.5 2237.79 1468.38 L2237.79 1451.02 Z" fill="#000000" fill-rule="evenodd" fill-opacity="1" /><path clip-path="url(#clip170)" d="M1311.47 1549.81 Q1311.47 1543.44 1308.82 1539.94 Q1306.21 1536.44 1301.47 1536.44 Q1296.76 1536.44 1294.12 1539.94 Q1291.51 1543.44 1291.51 1549.81 Q1291.51 1556.14 1294.12 1559.64 Q1296.76 1563.14 1301.47 1563.14 Q1306.21 1563.14 1308.82 1559.64 Q1311.47 1556.14 1311.47 1549.81 M1317.32 1563.62 Q1317.32 1572.72 1313.28 1577.15 Q1309.24 1581.6 1300.9 1581.6 Q1297.81 1581.6 1295.07 1581.13 Q1292.34 1580.68 1289.76 1579.72 L1289.76 1574.03 Q1292.34 1575.43 1294.85 1576.1 Q1297.37 1576.76 1299.98 1576.76 Q1305.74 1576.76 1308.6 1573.74 Q1311.47 1570.75 1311.47 1564.67 L1311.47 1561.77 Q1309.65 1564.92 1306.82 1566.48 Q1303.99 1568.04 1300.04 1568.04 Q1293.48 1568.04 1289.47 1563.05 Q1285.46 1558.05 1285.46 1549.81 Q1285.46 1541.53 1289.47 1536.53 Q1293.48 1531.54 1300.04 1531.54 Q1303.99 1531.54 1306.82 1533.1 Q1309.65 1534.66 1311.47 1537.81 L1311.47 1532.4 L1317.32 1532.4 L1317.32 1563.62 Z" fill="#000000" fill-rule="evenodd" fill-opacity="1" /><polyline clip-path="url(#clip172)" style="stroke:#000000; stroke-linecap:round; stroke-linejoin:round; stroke-width:2; stroke-opacity:0.1; fill:none" points="250.028,1386.4 2352.76,1386.4 "/>
<polyline clip-path="url(#clip172)" style="stroke:#000000; stroke-linecap:round; stroke-linejoin:round; stroke-width:2; stroke-opacity:0.1; fill:none" points="250.028,1166.23 2352.76,1166.23 "/>
<polyline clip-path="url(#clip172)" style="stroke:#000000; stroke-linecap:round; stroke-linejoin:round; stroke-width:2; stroke-opacity:0.1; fill:none" points="250.028,946.065 2352.76,946.065 "/>
<polyline clip-path="url(#clip172)" style="stroke:#000000; stroke-linecap:round; stroke-linejoin:round; stroke-width:2; stroke-opacity:0.1; fill:none" points="250.028,725.9 2352.76,725.9 "/>
<polyline clip-path="url(#clip172)" style="stroke:#000000; stroke-linecap:round; stroke-linejoin:round; stroke-width:2; stroke-opacity:0.1; fill:none" points="250.028,505.734 2352.76,505.734 "/>
<polyline clip-path="url(#clip172)" style="stroke:#000000; stroke-linecap:round; stroke-linejoin:round; stroke-width:2; stroke-opacity:0.1; fill:none" points="250.028,285.569 2352.76,285.569 "/>
<polyline clip-path="url(#clip170)" style="stroke:#000000; stroke-linecap:round; stroke-linejoin:round; stroke-width:4; stroke-opacity:1; fill:none" points="250.028,1423.18 250.028,123.472 "/>
<polyline clip-path="url(#clip170)" style="stroke:#000000; stroke-linecap:round; stroke-linejoin:round; stroke-width:4; stroke-opacity:1; fill:none" points="250.028,1386.4 268.926,1386.4 "/>
<polyline clip-path="url(#clip170)" style="stroke:#000000; stroke-linecap:round; stroke-linejoin:round; stroke-width:4; stroke-opacity:1; fill:none" points="250.028,1166.23 268.926,1166.23 "/>
<polyline clip-path="url(#clip170)" style="stroke:#000000; stroke-linecap:round; stroke-linejoin:round; stroke-width:4; stroke-opacity:1; fill:none" points="250.028,946.065 268.926,946.065 "/>
<polyline clip-path="url(#clip170)" style="stroke:#000000; stroke-linecap:round; stroke-linejoin:round; stroke-width:4; stroke-opacity:1; fill:none" points="250.028,725.9 268.926,725.9 "/>
<polyline clip-path="url(#clip170)" style="stroke:#000000; stroke-linecap:round; stroke-linejoin:round; stroke-width:4; stroke-opacity:1; fill:none" points="250.028,505.734 268.926,505.734 "/>
<polyline clip-path="url(#clip170)" style="stroke:#000000; stroke-linecap:round; stroke-linejoin:round; stroke-width:4; stroke-opacity:1; fill:none" points="250.028,285.569 268.926,285.569 "/>
<path clip-path="url(#clip170)" d="M126.691 1372.19 Q123.08 1372.19 121.251 1375.76 Q119.445 1379.3 119.445 1386.43 Q119.445 1393.54 121.251 1397.1 Q123.08 1400.64 126.691 1400.64 Q130.325 1400.64 132.13 1397.1 Q133.959 1393.54 133.959 1386.43 Q133.959 1379.3 132.13 1375.76 Q130.325 1372.19 126.691 1372.19 M126.691 1368.49 Q132.501 1368.49 135.556 1373.1 Q138.635 1377.68 138.635 1386.43 Q138.635 1395.16 135.556 1399.76 Q132.501 1404.35 126.691 1404.35 Q120.88 1404.35 117.802 1399.76 Q114.746 1395.16 114.746 1386.43 Q114.746 1377.68 117.802 1373.1 Q120.88 1368.49 126.691 1368.49 Z" fill="#000000" fill-rule="evenodd" fill-opacity="1" /><path clip-path="url(#clip170)" d="M146.853 1397.8 L151.737 1397.8 L151.737 1403.68 L146.853 1403.68 L146.853 1397.8 Z" fill="#000000" fill-rule="evenodd" fill-opacity="1" /><path clip-path="url(#clip170)" d="M171.922 1372.19 Q168.311 1372.19 166.482 1375.76 Q164.677 1379.3 164.677 1386.43 Q164.677 1393.54 166.482 1397.1 Q168.311 1400.64 171.922 1400.64 Q175.556 1400.64 177.362 1397.1 Q179.19 1393.54 179.19 1386.43 Q179.19 1379.3 177.362 1375.76 Q175.556 1372.19 171.922 1372.19 M171.922 1368.49 Q177.732 1368.49 180.788 1373.1 Q183.866 1377.68 183.866 1386.43 Q183.866 1395.16 180.788 1399.76 Q177.732 1404.35 171.922 1404.35 Q166.112 1404.35 163.033 1399.76 Q159.978 1395.16 159.978 1386.43 Q159.978 1377.68 163.033 1373.1 Q166.112 1368.49 171.922 1368.49 Z" fill="#000000" fill-rule="evenodd" fill-opacity="1" /><path clip-path="url(#clip170)" d="M202.084 1372.19 Q198.473 1372.19 196.644 1375.76 Q194.838 1379.3 194.838 1386.43 Q194.838 1393.54 196.644 1397.1 Q198.473 1400.64 202.084 1400.64 Q205.718 1400.64 207.524 1397.1 Q209.352 1393.54 209.352 1386.43 Q209.352 1379.3 207.524 1375.76 Q205.718 1372.19 202.084 1372.19 M202.084 1368.49 Q207.894 1368.49 210.949 1373.1 Q214.028 1377.68 214.028 1386.43 Q214.028 1395.16 210.949 1399.76 Q207.894 1404.35 202.084 1404.35 Q196.274 1404.35 193.195 1399.76 Q190.139 1395.16 190.139 1386.43 Q190.139 1377.68 193.195 1373.1 Q196.274 1368.49 202.084 1368.49 Z" fill="#000000" fill-rule="evenodd" fill-opacity="1" /><path clip-path="url(#clip170)" d="M127.917 1152.03 Q124.306 1152.03 122.478 1155.59 Q120.672 1159.14 120.672 1166.27 Q120.672 1173.37 122.478 1176.94 Q124.306 1180.48 127.917 1180.48 Q131.552 1180.48 133.357 1176.94 Q135.186 1173.37 135.186 1166.27 Q135.186 1159.14 133.357 1155.59 Q131.552 1152.03 127.917 1152.03 M127.917 1148.33 Q133.728 1148.33 136.783 1152.93 Q139.862 1157.52 139.862 1166.27 Q139.862 1174.99 136.783 1179.6 Q133.728 1184.18 127.917 1184.18 Q122.107 1184.18 119.029 1179.6 Q115.973 1174.99 115.973 1166.27 Q115.973 1157.52 119.029 1152.93 Q122.107 1148.33 127.917 1148.33 Z" fill="#000000" fill-rule="evenodd" fill-opacity="1" /><path clip-path="url(#clip170)" d="M148.079 1177.63 L152.964 1177.63 L152.964 1183.51 L148.079 1183.51 L148.079 1177.63 Z" fill="#000000" fill-rule="evenodd" fill-opacity="1" /><path clip-path="url(#clip170)" d="M173.149 1152.03 Q169.538 1152.03 167.709 1155.59 Q165.903 1159.14 165.903 1166.27 Q165.903 1173.37 167.709 1176.94 Q169.538 1180.48 173.149 1180.48 Q176.783 1180.48 178.589 1176.94 Q180.417 1173.37 180.417 1166.27 Q180.417 1159.14 178.589 1155.59 Q176.783 1152.03 173.149 1152.03 M173.149 1148.33 Q178.959 1148.33 182.014 1152.93 Q185.093 1157.52 185.093 1166.27 Q185.093 1174.99 182.014 1179.6 Q178.959 1184.18 173.149 1184.18 Q167.339 1184.18 164.26 1179.6 Q161.204 1174.99 161.204 1166.27 Q161.204 1157.52 164.26 1152.93 Q167.339 1148.33 173.149 1148.33 Z" fill="#000000" fill-rule="evenodd" fill-opacity="1" /><path clip-path="url(#clip170)" d="M194.121 1179.58 L201.76 1179.58 L201.76 1153.21 L193.45 1154.88 L193.45 1150.62 L201.713 1148.95 L206.389 1148.95 L206.389 1179.58 L214.028 1179.58 L214.028 1183.51 L194.121 1183.51 L194.121 1179.58 Z" fill="#000000" fill-rule="evenodd" fill-opacity="1" /><path clip-path="url(#clip170)" d="M128.288 931.864 Q124.677 931.864 122.848 935.428 Q121.043 938.97 121.043 946.1 Q121.043 953.206 122.848 956.771 Q124.677 960.313 128.288 960.313 Q131.922 960.313 133.728 956.771 Q135.556 953.206 135.556 946.1 Q135.556 938.97 133.728 935.428 Q131.922 931.864 128.288 931.864 M128.288 928.16 Q134.098 928.16 137.154 932.766 Q140.232 937.35 140.232 946.1 Q140.232 954.826 137.154 959.433 Q134.098 964.016 128.288 964.016 Q122.478 964.016 119.399 959.433 Q116.343 954.826 116.343 946.1 Q116.343 937.35 119.399 932.766 Q122.478 928.16 128.288 928.16 Z" fill="#000000" fill-rule="evenodd" fill-opacity="1" /><path clip-path="url(#clip170)" d="M148.45 957.465 L153.334 957.465 L153.334 963.345 L148.45 963.345 L148.45 957.465 Z" fill="#000000" fill-rule="evenodd" fill-opacity="1" /><path clip-path="url(#clip170)" d="M173.519 931.864 Q169.908 931.864 168.079 935.428 Q166.274 938.97 166.274 946.1 Q166.274 953.206 168.079 956.771 Q169.908 960.313 173.519 960.313 Q177.153 960.313 178.959 956.771 Q180.788 953.206 180.788 946.1 Q180.788 938.97 178.959 935.428 Q177.153 931.864 173.519 931.864 M173.519 928.16 Q179.329 928.16 182.385 932.766 Q185.463 937.35 185.463 946.1 Q185.463 954.826 182.385 959.433 Q179.329 964.016 173.519 964.016 Q167.709 964.016 164.63 959.433 Q161.575 954.826 161.575 946.1 Q161.575 937.35 164.63 932.766 Q167.709 928.16 173.519 928.16 Z" fill="#000000" fill-rule="evenodd" fill-opacity="1" /><path clip-path="url(#clip170)" d="M197.709 959.41 L214.028 959.41 L214.028 963.345 L192.084 963.345 L192.084 959.41 Q194.746 956.655 199.329 952.026 Q203.936 947.373 205.116 946.03 Q207.362 943.507 208.241 941.771 Q209.144 940.012 209.144 938.322 Q209.144 935.567 207.199 933.831 Q205.278 932.095 202.176 932.095 Q199.977 932.095 197.524 932.859 Q195.093 933.623 192.315 935.174 L192.315 930.452 Q195.139 929.317 197.593 928.739 Q200.047 928.16 202.084 928.16 Q207.454 928.16 210.649 930.845 Q213.843 933.53 213.843 938.021 Q213.843 940.151 213.033 942.072 Q212.246 943.97 210.139 946.563 Q209.561 947.234 206.459 950.451 Q203.357 953.646 197.709 959.41 Z" fill="#000000" fill-rule="evenodd" fill-opacity="1" /><path clip-path="url(#clip170)" d="M127.339 711.698 Q123.728 711.698 121.899 715.263 Q120.093 718.805 120.093 725.934 Q120.093 733.041 121.899 736.606 Q123.728 740.147 127.339 740.147 Q130.973 740.147 132.779 736.606 Q134.607 733.041 134.607 725.934 Q134.607 718.805 132.779 715.263 Q130.973 711.698 127.339 711.698 M127.339 707.995 Q133.149 707.995 136.204 712.601 Q139.283 717.184 139.283 725.934 Q139.283 734.661 136.204 739.268 Q133.149 743.851 127.339 743.851 Q121.529 743.851 118.45 739.268 Q115.394 734.661 115.394 725.934 Q115.394 717.184 118.45 712.601 Q121.529 707.995 127.339 707.995 Z" fill="#000000" fill-rule="evenodd" fill-opacity="1" /><path clip-path="url(#clip170)" d="M147.501 737.3 L152.385 737.3 L152.385 743.18 L147.501 743.18 L147.501 737.3 Z" fill="#000000" fill-rule="evenodd" fill-opacity="1" /><path clip-path="url(#clip170)" d="M172.57 711.698 Q168.959 711.698 167.13 715.263 Q165.325 718.805 165.325 725.934 Q165.325 733.041 167.13 736.606 Q168.959 740.147 172.57 740.147 Q176.204 740.147 178.01 736.606 Q179.839 733.041 179.839 725.934 Q179.839 718.805 178.01 715.263 Q176.204 711.698 172.57 711.698 M172.57 707.995 Q178.38 707.995 181.436 712.601 Q184.514 717.184 184.514 725.934 Q184.514 734.661 181.436 739.268 Q178.38 743.851 172.57 743.851 Q166.76 743.851 163.681 739.268 Q160.626 734.661 160.626 725.934 Q160.626 717.184 163.681 712.601 Q166.76 707.995 172.57 707.995 Z" fill="#000000" fill-rule="evenodd" fill-opacity="1" /><path clip-path="url(#clip170)" d="M206.899 724.545 Q210.255 725.263 212.13 727.531 Q214.028 729.8 214.028 733.133 Q214.028 738.249 210.51 741.05 Q206.991 743.851 200.51 743.851 Q198.334 743.851 196.019 743.411 Q193.727 742.994 191.274 742.138 L191.274 737.624 Q193.218 738.758 195.533 739.337 Q197.848 739.916 200.371 739.916 Q204.769 739.916 207.061 738.18 Q209.375 736.443 209.375 733.133 Q209.375 730.078 207.223 728.365 Q205.093 726.629 201.274 726.629 L197.246 726.629 L197.246 722.786 L201.459 722.786 Q204.908 722.786 206.737 721.42 Q208.565 720.032 208.565 717.439 Q208.565 714.777 206.667 713.365 Q204.792 711.93 201.274 711.93 Q199.352 711.93 197.153 712.346 Q194.954 712.763 192.315 713.643 L192.315 709.476 Q194.977 708.735 197.292 708.365 Q199.63 707.995 201.69 707.995 Q207.014 707.995 210.116 710.425 Q213.218 712.833 213.218 716.953 Q213.218 719.823 211.574 721.814 Q209.931 723.782 206.899 724.545 Z" fill="#000000" fill-rule="evenodd" fill-opacity="1" /><path clip-path="url(#clip170)" d="M126.205 491.533 Q122.593 491.533 120.765 495.098 Q118.959 498.639 118.959 505.769 Q118.959 512.875 120.765 516.44 Q122.593 519.982 126.205 519.982 Q129.839 519.982 131.644 516.44 Q133.473 512.875 133.473 505.769 Q133.473 498.639 131.644 495.098 Q129.839 491.533 126.205 491.533 M126.205 487.829 Q132.015 487.829 135.07 492.436 Q138.149 497.019 138.149 505.769 Q138.149 514.496 135.07 519.102 Q132.015 523.685 126.205 523.685 Q120.394 523.685 117.316 519.102 Q114.26 514.496 114.26 505.769 Q114.26 497.019 117.316 492.436 Q120.394 487.829 126.205 487.829 Z" fill="#000000" fill-rule="evenodd" fill-opacity="1" /><path clip-path="url(#clip170)" d="M146.366 517.135 L151.251 517.135 L151.251 523.014 L146.366 523.014 L146.366 517.135 Z" fill="#000000" fill-rule="evenodd" fill-opacity="1" /><path clip-path="url(#clip170)" d="M171.436 491.533 Q167.825 491.533 165.996 495.098 Q164.19 498.639 164.19 505.769 Q164.19 512.875 165.996 516.44 Q167.825 519.982 171.436 519.982 Q175.07 519.982 176.876 516.44 Q178.704 512.875 178.704 505.769 Q178.704 498.639 176.876 495.098 Q175.07 491.533 171.436 491.533 M171.436 487.829 Q177.246 487.829 180.301 492.436 Q183.38 497.019 183.38 505.769 Q183.38 514.496 180.301 519.102 Q177.246 523.685 171.436 523.685 Q165.626 523.685 162.547 519.102 Q159.491 514.496 159.491 505.769 Q159.491 497.019 162.547 492.436 Q165.626 487.829 171.436 487.829 Z" fill="#000000" fill-rule="evenodd" fill-opacity="1" /><path clip-path="url(#clip170)" d="M204.445 492.528 L192.639 510.977 L204.445 510.977 L204.445 492.528 M203.218 488.454 L209.098 488.454 L209.098 510.977 L214.028 510.977 L214.028 514.866 L209.098 514.866 L209.098 523.014 L204.445 523.014 L204.445 514.866 L188.843 514.866 L188.843 510.352 L203.218 488.454 Z" fill="#000000" fill-rule="evenodd" fill-opacity="1" /><path clip-path="url(#clip170)" d="M127.686 271.368 Q124.075 271.368 122.246 274.932 Q120.441 278.474 120.441 285.604 Q120.441 292.71 122.246 296.275 Q124.075 299.816 127.686 299.816 Q131.32 299.816 133.126 296.275 Q134.954 292.71 134.954 285.604 Q134.954 278.474 133.126 274.932 Q131.32 271.368 127.686 271.368 M127.686 267.664 Q133.496 267.664 136.552 272.27 Q139.63 276.854 139.63 285.604 Q139.63 294.33 136.552 298.937 Q133.496 303.52 127.686 303.52 Q121.876 303.52 118.797 298.937 Q115.742 294.33 115.742 285.604 Q115.742 276.854 118.797 272.27 Q121.876 267.664 127.686 267.664 Z" fill="#000000" fill-rule="evenodd" fill-opacity="1" /><path clip-path="url(#clip170)" d="M147.848 296.969 L152.732 296.969 L152.732 302.849 L147.848 302.849 L147.848 296.969 Z" fill="#000000" fill-rule="evenodd" fill-opacity="1" /><path clip-path="url(#clip170)" d="M172.917 271.368 Q169.306 271.368 167.477 274.932 Q165.672 278.474 165.672 285.604 Q165.672 292.71 167.477 296.275 Q169.306 299.816 172.917 299.816 Q176.551 299.816 178.357 296.275 Q180.186 292.71 180.186 285.604 Q180.186 278.474 178.357 274.932 Q176.551 271.368 172.917 271.368 M172.917 267.664 Q178.727 267.664 181.783 272.27 Q184.862 276.854 184.862 285.604 Q184.862 294.33 181.783 298.937 Q178.727 303.52 172.917 303.52 Q167.107 303.52 164.028 298.937 Q160.973 294.33 160.973 285.604 Q160.973 276.854 164.028 272.27 Q167.107 267.664 172.917 267.664 Z" fill="#000000" fill-rule="evenodd" fill-opacity="1" /><path clip-path="url(#clip170)" d="M193.125 268.289 L211.482 268.289 L211.482 272.224 L197.408 272.224 L197.408 280.696 Q198.426 280.349 199.445 280.187 Q200.463 280.002 201.482 280.002 Q207.269 280.002 210.649 283.173 Q214.028 286.344 214.028 291.761 Q214.028 297.34 210.556 300.441 Q207.084 303.52 200.764 303.52 Q198.588 303.52 196.32 303.15 Q194.075 302.779 191.667 302.039 L191.667 297.34 Q193.75 298.474 195.973 299.029 Q198.195 299.585 200.672 299.585 Q204.676 299.585 207.014 297.478 Q209.352 295.372 209.352 291.761 Q209.352 288.15 207.014 286.043 Q204.676 283.937 200.672 283.937 Q198.797 283.937 196.922 284.354 Q195.07 284.77 193.125 285.65 L193.125 268.289 Z" fill="#000000" fill-rule="evenodd" fill-opacity="1" /><path clip-path="url(#clip170)" d="M14.479 823.997 L19.3487 823.997 L19.3487 829.599 Q19.3487 832.75 20.6219 833.991 Q21.895 835.201 25.2052 835.201 L28.3562 835.201 L28.3562 825.557 L32.9077 825.557 L32.9077 835.201 L64.0042 835.201 L64.0042 841.089 L32.9077 841.089 L32.9077 846.691 L28.3562 846.691 L28.3562 841.089 L25.8736 841.089 Q19.9216 841.089 17.2162 838.32 Q14.479 835.551 14.479 829.535 L14.479 823.997 Z" fill="#000000" fill-rule="evenodd" fill-opacity="1" /><path clip-path="url(#clip170)" d="M46.0847 782.174 Q46.0847 789.272 47.7079 792.009 Q49.3312 794.747 53.2461 794.747 Q56.3653 794.747 58.2114 792.71 Q60.0256 790.641 60.0256 787.108 Q60.0256 782.238 56.5881 779.31 Q53.1188 776.35 47.3897 776.35 L46.0847 776.35 L46.0847 782.174 M43.6657 770.493 L64.0042 770.493 L64.0042 776.35 L58.5933 776.35 Q61.8398 778.355 63.3994 781.347 Q64.9272 784.339 64.9272 788.667 Q64.9272 794.142 61.8716 797.388 Q58.7843 800.603 53.6281 800.603 Q47.6125 800.603 44.5569 796.593 Q41.5014 792.55 41.5014 784.561 L41.5014 776.35 L40.9285 776.35 Q36.8862 776.35 34.6901 779.023 Q32.4621 781.665 32.4621 786.471 Q32.4621 789.527 33.1941 792.423 Q33.9262 795.32 35.3903 797.993 L29.9795 797.993 Q28.7381 794.778 28.1334 791.755 Q27.4968 788.731 27.4968 785.866 Q27.4968 778.132 31.5072 774.313 Q35.5176 770.493 43.6657 770.493 Z" fill="#000000" fill-rule="evenodd" fill-opacity="1" /><path clip-path="url(#clip170)" d="M33.8307 737.774 Q33.2578 738.76 33.0032 739.938 Q32.7167 741.084 32.7167 742.484 Q32.7167 747.449 35.9632 750.123 Q39.1779 752.765 45.2253 752.765 L64.0042 752.765 L64.0042 758.653 L28.3562 758.653 L28.3562 752.765 L33.8944 752.765 Q30.6479 750.919 29.0883 747.959 Q27.4968 744.999 27.4968 740.765 Q27.4968 740.161 27.5923 739.429 Q27.656 738.697 27.8151 737.805 L33.8307 737.774 Z" fill="#000000" fill-rule="evenodd" fill-opacity="1" /><path clip-path="url(#clip170)" d="M46.212 706.04 Q39.7508 706.04 36.0905 708.714 Q32.3984 711.356 32.3984 716.003 Q32.3984 720.65 36.0905 723.323 Q39.7508 725.965 46.212 725.965 Q52.6732 725.965 56.3653 723.323 Q60.0256 720.65 60.0256 716.003 Q60.0256 711.356 56.3653 708.714 Q52.6732 706.04 46.212 706.04 M33.7671 725.965 Q30.5842 724.119 29.0564 721.318 Q27.4968 718.485 27.4968 714.571 Q27.4968 708.077 32.6531 704.035 Q37.8093 699.961 46.212 699.961 Q54.6147 699.961 59.771 704.035 Q64.9272 708.077 64.9272 714.571 Q64.9272 718.485 63.3994 721.318 Q61.8398 724.119 58.657 725.965 L64.0042 725.965 L64.0042 731.853 L14.479 731.853 L14.479 725.965 L33.7671 725.965 Z" fill="#000000" fill-rule="evenodd" fill-opacity="1" /><path clip-path="url(#clip170)" d="M1214.34 17.6457 Q1205.43 17.6457 1200.16 24.2892 Q1194.93 30.9327 1194.93 42.3968 Q1194.93 53.8203 1200.16 60.4638 Q1205.43 67.1073 1214.34 67.1073 Q1223.25 67.1073 1228.44 60.4638 Q1233.66 53.8203 1233.66 42.3968 Q1233.66 30.9327 1228.44 24.2892 Q1223.25 17.6457 1214.34 17.6457 M1225.8 71.4823 L1236.58 83.2704 L1226.69 83.2704 L1217.74 73.5887 Q1216.4 73.6697 1215.67 73.7103 Q1214.99 73.7508 1214.34 73.7508 Q1201.58 73.7508 1193.92 65.2439 Q1186.31 56.6965 1186.31 42.3968 Q1186.31 28.0566 1193.92 19.5497 Q1201.58 11.0023 1214.34 11.0023 Q1227.06 11.0023 1234.67 19.5497 Q1242.29 28.0566 1242.29 42.3968 Q1242.29 52.9291 1238.04 60.4233 Q1233.82 67.9175 1225.8 71.4823 Z" fill="#000000" fill-rule="evenodd" fill-opacity="1" /><path clip-path="url(#clip170)" d="M1282.11 34.9026 L1334.04 34.9026 L1334.04 41.7081 L1282.11 41.7081 L1282.11 34.9026 M1282.11 51.4303 L1334.04 51.4303 L1334.04 58.3168 L1282.11 58.3168 L1282.11 51.4303 Z" fill="#000000" fill-rule="evenodd" fill-opacity="1" /><path clip-path="url(#clip170)" d="M1395.58 17.4837 Q1389.26 17.4837 1386.06 23.7221 Q1382.9 29.92 1382.9 42.3968 Q1382.9 54.833 1386.06 61.0714 Q1389.26 67.2693 1395.58 67.2693 Q1401.94 67.2693 1405.1 61.0714 Q1408.3 54.833 1408.3 42.3968 Q1408.3 29.92 1405.1 23.7221 Q1401.94 17.4837 1395.58 17.4837 M1395.58 11.0023 Q1405.74 11.0023 1411.09 19.0636 Q1416.48 27.0843 1416.48 42.3968 Q1416.48 57.6687 1411.09 65.73 Q1405.74 73.7508 1395.58 73.7508 Q1385.41 73.7508 1380.02 65.73 Q1374.67 57.6687 1374.67 42.3968 Q1374.67 27.0843 1380.02 19.0636 Q1385.41 11.0023 1395.58 11.0023 Z" fill="#000000" fill-rule="evenodd" fill-opacity="1" /><polyline clip-path="url(#clip172)" style="stroke:#000000; stroke-linecap:round; stroke-linejoin:round; stroke-width:8; stroke-opacity:1; fill:none" points="309.539,1386.4 319.508,1386.4 329.476,1386.4 339.444,1386.4 349.413,1386.4 359.381,1386.4 369.35,1386.4 379.318,1386.4 389.286,1386.4 399.255,1386.4 409.223,1386.4 419.191,1386.4 429.16,1386.4 439.128,1386.4 449.096,1386.4 459.065,1386.4 469.033,1386.4 479.002,1386.4 488.97,1386.4 498.938,1386.4 508.907,1386.4 518.875,1386.4 528.843,1386.4 538.812,1386.4 548.78,1386.4 558.749,1386.4 568.717,1386.4 578.685,1386.4 588.654,1386.4 598.622,1386.4 608.59,1386.4 618.559,1386.4 628.527,1386.4 638.495,1386.4 648.464,1386.4 658.432,1386.4 668.401,1386.4 678.369,1386.4 688.337,1386.4 698.306,1386.4 708.274,1386.4 718.242,1386.4 728.211,1386.4 738.179,1386.4 748.148,1386.4 758.116,1386.4 768.084,1386.4 778.053,1386.4 788.021,1386.4 797.989,1386.4 807.958,1386.4 817.926,1386.4 827.894,1386.4 837.863,1386.4 847.831,1386.4 857.8,1386.4 867.768,1386.4 877.736,1386.4 887.705,1386.4 897.673,1386.4 907.641,1386.4 917.61,1385.51 927.578,1379.74 937.547,1375.75 947.515,1373.02 957.483,1370.36 967.452,1367.94 977.42,1365.66 987.388,1363.24 997.357,1360.97 1007.33,1358.71 1017.29,1356.32 1027.26,1354.17 1037.23,1351.81 1047.2,1349.44 1057.17,1347.02 1067.14,1345.12 1077.1,1341.62 1087.07,1339.76 1097.04,1337.57 1107.01,1334.65 1116.98,1331.98 1126.95,1329.42 1136.91,1327.63 1146.88,1323.52 1156.85,1321.6 1166.82,1318.33 1176.79,1315.74 1186.76,1313.25 1196.72,1309.82 1206.69,1307.59 1216.66,1302.75 1226.63,1301.76 1236.6,1296.87 1246.57,1294.29 1256.53,1291.17 1266.5,1287.15 1276.47,1284.89 1286.44,1280.12 1296.41,1277.19 1306.38,1273.79 1316.34,1269.89 1326.31,1265.77 1336.28,1262.47 1346.25,1258.22 1356.22,1255.11 1366.19,1250.95 1376.15,1246.67 1386.12,1243.93 1396.09,1235.29 1406.06,1234.23 1416.03,1230.18 1426,1225.17 1435.97,1221.44 1445.93,1215.46 1455.9,1209.91 1465.87,1207.58 1475.84,1201.97 1485.81,1195.99 1495.78,1191.31 1505.74,1186.45 1515.71,1181.56 1525.68,1174.8 1535.65,1169.85 1545.62,1175.6 1555.59,1189.97 1565.55,1194.51 1575.52,1195.98 1585.49,1198.59 1595.46,1197.68 1605.43,1197.95 1615.4,1195.56 1625.36,1195.67 1635.33,1193.86 1645.3,1192.28 1655.27,1187.96 1665.24,1185.57 1675.21,1183.73 1685.17,1179.87 1695.14,1174.48 1705.11,1172.23 1715.08,1166.94 1725.05,1161.26 1735.02,1154.06 1744.98,1153.35 1754.95,1143.12 1764.92,1137.28 1774.89,1130.76 1784.86,1119.85 1794.83,1111.98 1804.79,1102.77 1814.76,1091.6 1824.73,1077.42 1834.7,1062.09 1844.67,1048.97 1854.64,1024.29 1864.6,994.664 1874.57,954.283 1884.54,945.101 1894.51,930.447 1904.48,915.798 1914.45,899.82 1924.42,877.252 1934.38,855.894 1944.35,820.665 1954.32,759.843 1964.29,710.373 1974.26,698.357 1984.23,686.073 1994.19,674.72 2004.16,661.049 2014.13,1210.35 2024.1,1386.4 2034.07,1386.4 2044.04,1386.4 2054,1386.4 2063.97,1386.4 2073.94,1386.4 2083.91,1386.4 2093.88,1386.4 2103.85,1386.4 2113.81,1386.4 2123.78,1386.4 2133.75,1386.4 2143.72,1386.4 2153.69,1386.4 2163.66,1386.4 2173.62,1386.4 2183.59,1386.4 2193.56,1386.4 2203.53,1386.4 2213.5,1386.4 2223.47,1386.4 2233.43,1386.4 2243.4,1386.4 2253.37,1386.4 2263.34,1386.4 2273.31,1386.4 2283.28,1386.4 2293.24,1386.4 "/>
<polyline clip-path="url(#clip172)" style="stroke:#000000; stroke-linecap:round; stroke-linejoin:round; stroke-width:4; stroke-opacity:1; fill:none" stroke-dasharray="16, 10" points="309.539,1386.4 319.508,1386.4 329.476,1386.4 339.444,1386.4 349.413,1386.4 359.381,1386.4 369.35,1386.4 379.318,1386.4 389.286,1386.4 399.255,1386.4 409.223,1386.4 419.191,1386.4 429.16,1386.4 439.128,1386.4 449.096,1386.4 459.065,1386.4 469.033,1386.4 479.002,1386.4 488.97,1386.4 498.938,1386.4 508.907,1386.4 518.875,1386.4 528.843,1386.4 538.812,1386.4 548.78,1386.4 558.749,1386.4 568.717,1386.4 578.685,1386.4 588.654,1386.4 598.622,1386.4 608.59,1386.4 618.559,1386.4 628.527,1386.4 638.495,1386.4 648.464,1386.4 658.432,1386.4 668.401,1386.4 678.369,1386.4 688.337,1386.4 698.306,1386.4 708.274,1386.4 718.242,1386.4 728.211,1386.4 738.179,1386.4 748.148,1386.4 758.116,1386.4 768.084,1386.4 778.053,1386.4 788.021,1386.4 797.989,1386.4 807.958,1386.4 817.926,1386.4 827.894,1386.4 837.863,1386.4 847.831,1386.4 857.8,1386.4 867.768,1386.4 877.736,1386.4 887.705,1386.4 897.673,1386.4 907.641,1386.4 917.61,1386.4 927.578,1386.4 937.547,1386.4 947.515,1386.4 957.483,1386.4 967.452,1386.4 977.42,1386.4 987.388,1386.4 997.357,1386.4 1007.33,1386.4 1017.29,1386.4 1027.26,1386.4 1037.23,1380.01 1047.2,1373.04 1057.17,1367.97 1067.14,1364.28 1077.1,1360.49 1087.07,1356.97 1097.04,1353.38 1107.01,1349.99 1116.98,1346.9 1126.95,1343.24 1136.91,1339.8 1146.88,1336.44 1156.85,1333.43 1166.82,1329.69 1176.79,1326.24 1186.76,1321.76 1196.72,1319.68 1206.69,1314.57 1216.66,1312.31 1226.63,1307.08 1236.6,1303.69 1246.57,1299.89 1256.53,1295.5 1266.5,1291.78 1276.47,1287.8 1286.44,1283.61 1296.41,1277.97 1306.38,1275.09 1316.34,1269.11 1326.31,1265.21 1336.28,1261.62 1346.25,1254.57 1356.22,1250.29 1366.19,1245.25 1376.15,1240.73 1386.12,1235.12 1396.09,1230.44 1406.06,1223.91 1416.03,1218.79 1426,1212.88 1435.97,1207.01 1445.93,1201.51 1455.9,1194.62 1465.87,1187.48 1475.84,1183.55 1485.81,1175.14 1495.78,1169.29 1505.74,1162.03 1515.71,1154.38 1525.68,1148.06 1535.65,1138.23 1545.62,1134.02 1555.59,1124.42 1565.55,1117.5 1575.52,1107.28 1585.49,1099.66 1595.46,1089.7 1605.43,1105.75 1615.4,1122.07 1625.36,1125.62 1635.33,1127.54 1645.3,1128.97 1655.27,1126.51 1665.24,1125.2 1675.21,1121.51 1685.17,1118.75 1695.14,1112.26 1705.11,1106.73 1715.08,1101.16 1725.05,1093.55 1735.02,1083.39 1744.98,1076.19 1754.95,1062.68 1764.92,1050.74 1774.89,1038.09 1784.86,1021.17 1794.83,1000.84 1804.79,977.373 1814.76,946.739 1824.73,893.801 1834.7,849.958 1844.67,834.98 1854.64,817.116 1864.6,792.06 1874.57,767.367 1884.54,733.701 1894.51,679.676 1904.48,574.576 1914.45,522.239 1924.42,498.98 1934.38,753.804 1944.35,1386.4 1954.32,1386.4 1964.29,1386.4 1974.26,1386.4 1984.23,1386.4 1994.19,1386.4 2004.16,1386.4 2014.13,1386.4 2024.1,1386.4 2034.07,1386.4 2044.04,1386.4 2054,1386.4 2063.97,1386.4 2073.94,1386.4 2083.91,1386.4 2093.88,1386.4 2103.85,1386.4 2113.81,1386.4 2123.78,1386.4 2133.75,1386.4 2143.72,1386.4 2153.69,1386.4 2163.66,1386.4 2173.62,1386.4 2183.59,1386.4 2193.56,1386.4 2203.53,1386.4 2213.5,1386.4 2223.47,1386.4 2233.43,1386.4 2243.4,1386.4 2253.37,1386.4 2263.34,1386.4 2273.31,1386.4 2283.28,1386.4 2293.24,1386.4 "/>
<polyline clip-path="url(#clip172)" style="stroke:#000000; stroke-linecap:round; stroke-linejoin:round; stroke-width:4; stroke-opacity:1; fill:none" points="309.539,1386.4 319.508,1386.4 329.476,1386.4 339.444,1386.4 349.413,1386.4 359.381,1386.4 369.35,1386.4 379.318,1386.4 389.286,1386.4 399.255,1386.4 409.223,1386.4 419.191,1386.4 429.16,1386.4 439.128,1386.4 449.096,1386.4 459.065,1386.4 469.033,1386.4 479.002,1386.4 488.97,1386.4 498.938,1386.4 508.907,1386.4 518.875,1386.4 528.843,1386.4 538.812,1386.4 548.78,1386.4 558.749,1386.4 568.717,1386.4 578.685,1386.4 588.654,1386.4 598.622,1386.4 608.59,1386.4 618.559,1386.4 628.527,1386.4 638.495,1386.4 648.464,1386.4 658.432,1386.4 668.401,1386.4 678.369,1386.4 688.337,1386.4 698.306,1386.4 708.274,1386.4 718.242,1386.4 728.211,1386.4 738.179,1386.4 748.148,1386.4 758.116,1386.4 768.084,1386.4 778.053,1386.4 788.021,1386.4 797.989,1386.4 807.958,1386.4 817.926,1386.4 827.894,1386.4 837.863,1386.4 847.831,1386.4 857.8,1386.4 867.768,1386.4 877.736,1386.4 887.705,1386.4 897.673,1386.4 907.641,1386.4 917.61,1386.4 927.578,1386.4 937.547,1386.4 947.515,1386.4 957.483,1386.4 967.452,1386.4 977.42,1386.4 987.388,1386.4 997.357,1386.4 1007.33,1386.4 1017.29,1386.4 1027.26,1386.4 1037.23,1386.4 1047.2,1386.4 1057.17,1386.4 1067.14,1386.4 1077.1,1386.4 1087.07,1386.4 1097.04,1386.4 1107.01,1386.4 1116.98,1386.4 1126.95,1386.4 1136.91,1386.4 1146.88,1386.4 1156.85,1386.4 1166.82,1386.4 1176.79,1386.4 1186.76,1386.4 1196.72,1386.4 1206.69,1386.4 1216.66,1386.4 1226.63,1386.4 1236.6,1386.4 1246.57,1386.4 1256.53,1386.4 1266.5,1386.4 1276.47,1386.4 1286.44,1386.4 1296.41,1386.4 1306.38,1386.4 1316.34,1386.4 1326.31,1386.4 1336.28,1386.4 1346.25,1386.4 1356.22,1386.4 1366.19,1386.4 1376.15,1386.4 1386.12,1386.4 1396.09,1386.4 1406.06,1386.4 1416.03,1379.89 1426,1332.54 1435.97,1301.22 1445.93,1277.07 1455.9,1255.64 1465.87,1234.91 1475.84,1214.5 1485.81,1195.66 1495.78,1173.74 1505.74,1155.43 1515.71,1134.22 1525.68,1114.59 1535.65,1091.67 1545.62,1069.2 1555.59,1047.4 1565.55,1022.98 1575.52,998.885 1585.49,970.864 1595.46,944.181 1605.43,913.629 1615.4,881.439 1625.36,848.865 1635.33,813.048 1645.3,774.288 1655.27,731.825 1665.24,687.19 1675.21,635.454 1685.17,578.976 1695.14,512.996 1705.11,528.817 1715.08,592.617 1725.05,575.63 1735.02,513.944 1744.98,387.719 1754.95,160.256 1764.92,164.455 1774.89,184.247 1784.86,218.07 1794.83,276.266 1804.79,544.959 1814.76,1386.4 1824.73,1386.4 1834.7,1386.4 1844.67,1386.4 1854.64,1386.4 1864.6,1386.4 1874.57,1386.4 1884.54,1386.4 1894.51,1386.4 1904.48,1386.4 1914.45,1386.4 1924.42,1386.4 1934.38,1386.4 1944.35,1386.4 1954.32,1386.4 1964.29,1386.4 1974.26,1386.4 1984.23,1386.4 1994.19,1386.4 2004.16,1386.4 2014.13,1386.4 2024.1,1386.4 2034.07,1386.4 2044.04,1386.4 2054,1386.4 2063.97,1386.4 2073.94,1386.4 2083.91,1386.4 2093.88,1386.4 2103.85,1386.4 2113.81,1386.4 2123.78,1386.4 2133.75,1386.4 2143.72,1386.4 2153.69,1386.4 2163.66,1386.4 2173.62,1386.4 2183.59,1386.4 2193.56,1386.4 2203.53,1386.4 2213.5,1386.4 2223.47,1386.4 2233.43,1386.4 2243.4,1386.4 2253.37,1386.4 2263.34,1386.4 2273.31,1386.4 2283.28,1386.4 2293.24,1386.4 "/>
<polyline clip-path="url(#clip172)" style="stroke:#ffa500; stroke-linecap:round; stroke-linejoin:round; stroke-width:4; stroke-opacity:1; fill:none" points="309.539,1386.4 319.508,1386.4 329.476,1386.4 339.444,1386.4 349.413,1386.4 359.381,1386.4 369.35,1386.4 379.318,1386.4 389.286,1386.4 399.255,1386.4 409.223,1386.4 419.191,1386.4 429.16,1386.4 439.128,1386.4 449.096,1386.4 459.065,1386.4 469.033,1386.4 479.002,1386.4 488.97,1386.4 498.938,1386.4 508.907,1386.4 518.875,1386.4 528.843,1386.4 538.812,1386.4 548.78,1386.4 558.749,1386.4 568.717,1386.4 578.685,1386.4 588.654,1386.4 598.622,1386.4 608.59,1386.4 618.559,1386.4 628.527,1386.4 638.495,1386.4 648.464,1386.4 658.432,1386.4 668.401,1386.4 678.369,1386.4 688.337,1386.4 698.306,1386.4 708.274,1386.4 718.242,1386.4 728.211,1386.4 738.179,1386.4 748.148,1386.4 758.116,1386.4 768.084,1386.4 778.053,1386.4 788.021,1386.4 797.989,1386.4 807.958,1386.4 817.926,1386.4 827.894,1386.4 837.863,1386.4 847.831,1386.4 857.8,1386.4 867.768,1386.4 877.736,1386.4 887.705,1386.4 897.673,1386.4 907.641,1386.4 917.61,1386.4 927.578,1386.4 937.547,1386.4 947.515,1386.4 957.483,1386.4 967.452,1386.4 977.42,1386.4 987.388,1386.4 997.357,1386.4 1007.33,1386.4 1017.29,1386.4 1027.26,1386.4 1037.23,1380.01 1047.2,1373.04 1057.17,1367.97 1067.14,1364.28 1077.1,1360.49 1087.07,1356.97 1097.04,1353.38 1107.01,1349.99 1116.98,1346.9 1126.95,1343.24 1136.91,1339.8 1146.88,1336.44 1156.85,1333.43 1166.82,1329.69 1176.79,1326.24 1186.76,1321.76 1196.72,1319.68 1206.69,1314.57 1216.66,1312.31 1226.63,1307.08 1236.6,1303.69 1246.57,1299.89 1256.53,1295.5 1266.5,1291.78 1276.47,1287.8 1286.44,1283.61 1296.41,1277.97 1306.38,1275.09 1316.34,1269.11 1326.31,1265.21 1336.28,1261.62 1346.25,1254.57 1356.22,1250.29 1366.19,1245.25 1376.15,1240.73 1386.12,1235.12 1396.09,1230.44 1406.06,1223.91 1416.03,1218.79 1426,1212.88 1435.97,1207.01 1445.93,1201.51 1455.9,1194.62 1465.87,1187.48 1475.84,1183.55 1485.81,1175.14 1495.78,1169.29 1505.74,1162.03 1515.71,1154.38 1525.68,1148.06 1535.65,1138.23 1545.62,1134.02 1555.59,1124.42 1565.55,1117.5 1575.52,1107.28 1585.49,1099.66 1595.46,1089.7 1605.43,1105.75 1615.4,1122.07 1625.36,1125.62 1635.33,1127.54 1645.3,1128.97 1655.27,1126.51 1665.24,1125.2 1675.21,1121.51 1685.17,1118.75 1695.14,1112.26 1705.11,1106.73 1715.08,1101.16 1725.05,1093.55 1735.02,1083.39 1744.98,1076.19 1754.95,1062.68 1764.92,1050.74 1774.89,1038.09 1784.86,1021.17 1794.83,1000.84 1804.79,977.373 1814.76,946.739 1824.73,893.801 1834.7,849.958 1844.67,834.98 1854.64,817.116 1864.6,792.06 1874.57,767.367 1884.54,733.701 1894.51,679.676 1904.48,574.576 1914.45,522.239 1924.42,498.98 1934.38,753.804 1944.35,1386.4 1954.32,1386.4 1964.29,1386.4 1974.26,1386.4 1984.23,1386.4 1994.19,1386.4 2004.16,1386.4 2014.13,1386.4 2024.1,1386.4 2034.07,1386.4 2044.04,1386.4 2054,1386.4 2063.97,1386.4 2073.94,1386.4 2083.91,1386.4 2093.88,1386.4 2103.85,1386.4 2113.81,1386.4 2123.78,1386.4 2133.75,1386.4 2143.72,1386.4 2153.69,1386.4 2163.66,1386.4 2173.62,1386.4 2183.59,1386.4 2193.56,1386.4 2203.53,1386.4 2213.5,1386.4 2223.47,1386.4 2233.43,1386.4 2243.4,1386.4 2253.37,1386.4 2263.34,1386.4 2273.31,1386.4 2283.28,1386.4 2293.24,1386.4 "/>
<path clip-path="url(#clip170)" d="M320.119 425.996 L858.608 425.996 L858.608 166.796 L320.119 166.796  Z" fill="#ffffff" fill-rule="evenodd" fill-opacity="0"/>
<polyline clip-path="url(#clip170)" style="stroke:#000000; stroke-linecap:round; stroke-linejoin:round; stroke-width:4; stroke-opacity:1; fill:none" points="320.119,425.996 858.608,425.996 858.608,166.796 320.119,166.796 320.119,425.996 "/>
<polyline clip-path="url(#clip170)" style="stroke:#000000; stroke-linecap:round; stroke-linejoin:round; stroke-width:8; stroke-opacity:1; fill:none" points="343.483,218.636 483.665,218.636 "/>
<path clip-path="url(#clip170)" d="M511.426 222.976 Q511.426 227.675 513.348 230.36 Q515.292 233.022 518.672 233.022 Q522.051 233.022 523.996 230.36 Q525.94 227.675 525.94 222.976 Q525.94 218.277 523.996 215.615 Q522.051 212.93 518.672 212.93 Q515.292 212.93 513.348 215.615 Q511.426 218.277 511.426 222.976 M525.94 232.027 Q524.598 234.342 522.537 235.476 Q520.5 236.587 517.63 236.587 Q512.931 236.587 509.968 232.837 Q507.028 229.087 507.028 222.976 Q507.028 216.865 509.968 213.115 Q512.931 209.365 517.63 209.365 Q520.5 209.365 522.537 210.499 Q524.598 211.61 525.94 213.925 L525.94 209.99 L530.199 209.99 L530.199 245.777 L525.94 245.777 L525.94 232.027 Z" fill="#000000" fill-rule="evenodd" fill-opacity="1" /><path clip-path="url(#clip170)" d="M553.185 204.527 Q548.093 204.527 545.084 208.323 Q542.097 212.12 542.097 218.67 Q542.097 225.198 545.084 228.994 Q548.093 232.791 553.185 232.791 Q558.278 232.791 561.241 228.994 Q564.227 225.198 564.227 218.67 Q564.227 212.12 561.241 208.323 Q558.278 204.527 553.185 204.527 M559.736 235.291 L565.894 242.027 L560.246 242.027 L555.13 236.494 Q554.366 236.541 553.949 236.564 Q553.556 236.587 553.185 236.587 Q545.894 236.587 541.519 231.726 Q537.167 226.842 537.167 218.67 Q537.167 210.476 541.519 205.615 Q545.894 200.731 553.185 200.731 Q560.454 200.731 564.806 205.615 Q569.157 210.476 569.157 218.67 Q569.157 224.689 566.727 228.971 Q564.32 233.254 559.736 235.291 Z" fill="#000000" fill-rule="evenodd" fill-opacity="1" /><path clip-path="url(#clip170)" d="M576.843 214.388 L606.518 214.388 L606.518 218.277 L576.843 218.277 L576.843 214.388 M576.843 223.832 L606.518 223.832 L606.518 227.768 L576.843 227.768 L576.843 223.832 Z" fill="#000000" fill-rule="evenodd" fill-opacity="1" /><path clip-path="url(#clip170)" d="M613.856 221.032 L626.333 221.032 L626.333 224.828 L613.856 224.828 L613.856 221.032 Z" fill="#000000" fill-rule="evenodd" fill-opacity="1" /><path clip-path="url(#clip170)" d="M643.717 204.434 Q640.106 204.434 638.277 207.999 Q636.472 211.541 636.472 218.67 Q636.472 225.777 638.277 229.342 Q640.106 232.883 643.717 232.883 Q647.352 232.883 649.157 229.342 Q650.986 225.777 650.986 218.67 Q650.986 211.541 649.157 207.999 Q647.352 204.434 643.717 204.434 M643.717 200.731 Q649.527 200.731 652.583 205.337 Q655.662 209.92 655.662 218.67 Q655.662 227.397 652.583 232.004 Q649.527 236.587 643.717 236.587 Q637.907 236.587 634.828 232.004 Q631.773 227.397 631.773 218.67 Q631.773 209.92 634.828 205.337 Q637.907 200.731 643.717 200.731 Z" fill="#000000" fill-rule="evenodd" fill-opacity="1" /><path clip-path="url(#clip170)" d="M663.879 230.036 L668.763 230.036 L668.763 235.916 L663.879 235.916 L663.879 230.036 Z" fill="#000000" fill-rule="evenodd" fill-opacity="1" /><path clip-path="url(#clip170)" d="M679.087 235.198 L679.087 230.939 Q680.847 231.772 682.652 232.212 Q684.458 232.652 686.194 232.652 Q690.824 232.652 693.254 229.55 Q695.708 226.425 696.055 220.082 Q694.712 222.073 692.652 223.138 Q690.592 224.203 688.092 224.203 Q682.907 224.203 679.874 221.078 Q676.865 217.93 676.865 212.49 Q676.865 207.166 680.013 203.948 Q683.162 200.731 688.393 200.731 Q694.388 200.731 697.536 205.337 Q700.708 209.92 700.708 218.67 Q700.708 226.842 696.819 231.726 Q692.953 236.587 686.402 236.587 Q684.643 236.587 682.837 236.24 Q681.032 235.893 679.087 235.198 M688.393 220.545 Q691.541 220.545 693.37 218.393 Q695.222 216.24 695.222 212.49 Q695.222 208.763 693.37 206.61 Q691.541 204.434 688.393 204.434 Q685.245 204.434 683.393 206.61 Q681.564 208.763 681.564 212.49 Q681.564 216.24 683.393 218.393 Q685.245 220.545 688.393 220.545 Z" fill="#000000" fill-rule="evenodd" fill-opacity="1" /><polyline clip-path="url(#clip170)" style="stroke:#000000; stroke-linecap:round; stroke-linejoin:round; stroke-width:4; stroke-opacity:1; fill:none" stroke-dasharray="16, 10" points="343.483,270.476 483.665,270.476 "/>
<path clip-path="url(#clip170)" d="M511.426 274.816 Q511.426 279.515 513.348 282.2 Q515.292 284.862 518.672 284.862 Q522.051 284.862 523.996 282.2 Q525.94 279.515 525.94 274.816 Q525.94 270.117 523.996 267.455 Q522.051 264.77 518.672 264.77 Q515.292 264.77 513.348 267.455 Q511.426 270.117 511.426 274.816 M525.94 283.867 Q524.598 286.182 522.537 287.316 Q520.5 288.427 517.63 288.427 Q512.931 288.427 509.968 284.677 Q507.028 280.927 507.028 274.816 Q507.028 268.705 509.968 264.955 Q512.931 261.205 517.63 261.205 Q520.5 261.205 522.537 262.339 Q524.598 263.45 525.94 265.765 L525.94 261.83 L530.199 261.83 L530.199 297.617 L525.94 297.617 L525.94 283.867 Z" fill="#000000" fill-rule="evenodd" fill-opacity="1" /><path clip-path="url(#clip170)" d="M553.185 256.367 Q548.093 256.367 545.084 260.163 Q542.097 263.96 542.097 270.51 Q542.097 277.038 545.084 280.834 Q548.093 284.631 553.185 284.631 Q558.278 284.631 561.241 280.834 Q564.227 277.038 564.227 270.51 Q564.227 263.96 561.241 260.163 Q558.278 256.367 553.185 256.367 M559.736 287.131 L565.894 293.867 L560.246 293.867 L555.13 288.334 Q554.366 288.381 553.949 288.404 Q553.556 288.427 553.185 288.427 Q545.894 288.427 541.519 283.566 Q537.167 278.682 537.167 270.51 Q537.167 262.316 541.519 257.455 Q545.894 252.571 553.185 252.571 Q560.454 252.571 564.806 257.455 Q569.157 262.316 569.157 270.51 Q569.157 276.529 566.727 280.811 Q564.32 285.094 559.736 287.131 Z" fill="#000000" fill-rule="evenodd" fill-opacity="1" /><path clip-path="url(#clip170)" d="M576.843 266.228 L606.518 266.228 L606.518 270.117 L576.843 270.117 L576.843 266.228 M576.843 275.672 L606.518 275.672 L606.518 279.608 L576.843 279.608 L576.843 275.672 Z" fill="#000000" fill-rule="evenodd" fill-opacity="1" /><path clip-path="url(#clip170)" d="M626.611 256.274 Q623 256.274 621.171 259.839 Q619.366 263.381 619.366 270.51 Q619.366 277.617 621.171 281.182 Q623 284.723 626.611 284.723 Q630.245 284.723 632.051 281.182 Q633.879 277.617 633.879 270.51 Q633.879 263.381 632.051 259.839 Q630.245 256.274 626.611 256.274 M626.611 252.571 Q632.421 252.571 635.477 257.177 Q638.555 261.76 638.555 270.51 Q638.555 279.237 635.477 283.844 Q632.421 288.427 626.611 288.427 Q620.801 288.427 617.722 283.844 Q614.667 279.237 614.667 270.51 Q614.667 261.76 617.722 257.177 Q620.801 252.571 626.611 252.571 Z" fill="#000000" fill-rule="evenodd" fill-opacity="1" /><polyline clip-path="url(#clip170)" style="stroke:#000000; stroke-linecap:round; stroke-linejoin:round; stroke-width:4; stroke-opacity:1; fill:none" points="343.483,322.316 483.665,322.316 "/>
<path clip-path="url(#clip170)" d="M511.426 326.656 Q511.426 331.355 513.348 334.04 Q515.292 336.702 518.672 336.702 Q522.051 336.702 523.996 334.04 Q525.94 331.355 525.94 326.656 Q525.94 321.957 523.996 319.295 Q522.051 316.61 518.672 316.61 Q515.292 316.61 513.348 319.295 Q511.426 321.957 511.426 326.656 M525.94 335.707 Q524.598 338.022 522.537 339.156 Q520.5 340.267 517.63 340.267 Q512.931 340.267 509.968 336.517 Q507.028 332.767 507.028 326.656 Q507.028 320.545 509.968 316.795 Q512.931 313.045 517.63 313.045 Q520.5 313.045 522.537 314.179 Q524.598 315.29 525.94 317.605 L525.94 313.67 L530.199 313.67 L530.199 349.457 L525.94 349.457 L525.94 335.707 Z" fill="#000000" fill-rule="evenodd" fill-opacity="1" /><path clip-path="url(#clip170)" d="M553.185 308.207 Q548.093 308.207 545.084 312.003 Q542.097 315.8 542.097 322.35 Q542.097 328.878 545.084 332.674 Q548.093 336.471 553.185 336.471 Q558.278 336.471 561.241 332.674 Q564.227 328.878 564.227 322.35 Q564.227 315.8 561.241 312.003 Q558.278 308.207 553.185 308.207 M559.736 338.971 L565.894 345.707 L560.246 345.707 L555.13 340.174 Q554.366 340.221 553.949 340.244 Q553.556 340.267 553.185 340.267 Q545.894 340.267 541.519 335.406 Q537.167 330.522 537.167 322.35 Q537.167 314.156 541.519 309.295 Q545.894 304.411 553.185 304.411 Q560.454 304.411 564.806 309.295 Q569.157 314.156 569.157 322.35 Q569.157 328.369 566.727 332.651 Q564.32 336.934 559.736 338.971 Z" fill="#000000" fill-rule="evenodd" fill-opacity="1" /><path clip-path="url(#clip170)" d="M576.843 318.068 L606.518 318.068 L606.518 321.957 L576.843 321.957 L576.843 318.068 M576.843 327.512 L606.518 327.512 L606.518 331.448 L576.843 331.448 L576.843 327.512 Z" fill="#000000" fill-rule="evenodd" fill-opacity="1" /><path clip-path="url(#clip170)" d="M626.611 308.114 Q623 308.114 621.171 311.679 Q619.366 315.221 619.366 322.35 Q619.366 329.457 621.171 333.022 Q623 336.563 626.611 336.563 Q630.245 336.563 632.051 333.022 Q633.879 329.457 633.879 322.35 Q633.879 315.221 632.051 311.679 Q630.245 308.114 626.611 308.114 M626.611 304.411 Q632.421 304.411 635.477 309.017 Q638.555 313.6 638.555 322.35 Q638.555 331.077 635.477 335.684 Q632.421 340.267 626.611 340.267 Q620.801 340.267 617.722 335.684 Q614.667 331.077 614.667 322.35 Q614.667 313.6 617.722 309.017 Q620.801 304.411 626.611 304.411 Z" fill="#000000" fill-rule="evenodd" fill-opacity="1" /><path clip-path="url(#clip170)" d="M646.773 333.716 L651.657 333.716 L651.657 339.596 L646.773 339.596 L646.773 333.716 Z" fill="#000000" fill-rule="evenodd" fill-opacity="1" /><path clip-path="url(#clip170)" d="M661.981 338.878 L661.981 334.619 Q663.74 335.452 665.546 335.892 Q667.351 336.332 669.088 336.332 Q673.717 336.332 676.148 333.23 Q678.601 330.105 678.949 323.762 Q677.606 325.753 675.546 326.818 Q673.486 327.883 670.986 327.883 Q665.8 327.883 662.768 324.758 Q659.759 321.61 659.759 316.17 Q659.759 310.846 662.907 307.628 Q666.055 304.411 671.287 304.411 Q677.282 304.411 680.43 309.017 Q683.601 313.6 683.601 322.35 Q683.601 330.522 679.712 335.406 Q675.847 340.267 669.296 340.267 Q667.537 340.267 665.731 339.92 Q663.926 339.573 661.981 338.878 M671.287 324.225 Q674.435 324.225 676.263 322.073 Q678.115 319.92 678.115 316.17 Q678.115 312.443 676.263 310.29 Q674.435 308.114 671.287 308.114 Q668.138 308.114 666.287 310.29 Q664.458 312.443 664.458 316.17 Q664.458 319.92 666.287 322.073 Q668.138 324.225 671.287 324.225 Z" fill="#000000" fill-rule="evenodd" fill-opacity="1" /><polyline clip-path="url(#clip170)" style="stroke:#ffa500; stroke-linecap:round; stroke-linejoin:round; stroke-width:4; stroke-opacity:1; fill:none" points="343.483,374.156 483.665,374.156 "/>
<path clip-path="url(#clip170)" d="M529.273 358.01 L529.273 362.57 Q526.611 361.297 524.25 360.672 Q521.889 360.047 519.69 360.047 Q515.871 360.047 513.787 361.528 Q511.727 363.01 511.727 365.741 Q511.727 368.033 513.093 369.214 Q514.482 370.371 518.324 371.089 L521.148 371.667 Q526.38 372.663 528.857 375.186 Q531.357 377.686 531.357 381.899 Q531.357 386.922 527.977 389.514 Q524.621 392.107 518.116 392.107 Q515.662 392.107 512.885 391.551 Q510.13 390.996 507.167 389.908 L507.167 385.093 Q510.014 386.69 512.746 387.501 Q515.477 388.311 518.116 388.311 Q522.121 388.311 524.297 386.737 Q526.473 385.163 526.473 382.246 Q526.473 379.7 524.898 378.264 Q523.348 376.829 519.783 376.112 L516.936 375.556 Q511.704 374.515 509.366 372.292 Q507.028 370.07 507.028 366.112 Q507.028 361.528 510.246 358.89 Q513.487 356.251 519.158 356.251 Q521.588 356.251 524.111 356.691 Q526.635 357.13 529.273 358.01 Z" fill="#000000" fill-rule="evenodd" fill-opacity="1" /><path clip-path="url(#clip170)" d="M557.121 366.505 L557.121 370.487 Q555.315 369.491 553.486 369.005 Q551.681 368.496 549.829 368.496 Q545.685 368.496 543.394 371.135 Q541.102 373.751 541.102 378.496 Q541.102 383.241 543.394 385.88 Q545.685 388.496 549.829 388.496 Q551.681 388.496 553.486 388.01 Q555.315 387.501 557.121 386.505 L557.121 390.44 Q555.338 391.274 553.417 391.69 Q551.519 392.107 549.366 392.107 Q543.509 392.107 540.06 388.426 Q536.611 384.746 536.611 378.496 Q536.611 372.153 540.084 368.519 Q543.579 364.885 549.644 364.885 Q551.611 364.885 553.486 365.302 Q555.361 365.695 557.121 366.505 Z" fill="#000000" fill-rule="evenodd" fill-opacity="1" /><path clip-path="url(#clip170)" d="M586.079 375.788 L586.079 391.436 L581.819 391.436 L581.819 375.927 Q581.819 372.246 580.384 370.417 Q578.949 368.589 576.079 368.589 Q572.63 368.589 570.639 370.788 Q568.648 372.987 568.648 376.783 L568.648 391.436 L564.366 391.436 L564.366 355.417 L568.648 355.417 L568.648 369.538 Q570.176 367.2 572.236 366.042 Q574.32 364.885 577.028 364.885 Q581.495 364.885 583.787 367.663 Q586.079 370.417 586.079 375.788 Z" fill="#000000" fill-rule="evenodd" fill-opacity="1" /><path clip-path="url(#clip170)" d="M592.097 365.51 L596.356 365.51 L601.68 385.741 L606.981 365.51 L612.004 365.51 L617.329 385.741 L622.629 365.51 L626.889 365.51 L620.106 391.436 L615.083 391.436 L609.505 370.186 L603.903 391.436 L598.88 391.436 L592.097 365.51 Z" fill="#000000" fill-rule="evenodd" fill-opacity="1" /><path clip-path="url(#clip170)" d="M645.129 378.403 Q639.967 378.403 637.977 379.584 Q635.986 380.764 635.986 383.612 Q635.986 385.88 637.467 387.223 Q638.972 388.542 641.541 388.542 Q645.083 388.542 647.213 386.042 Q649.365 383.519 649.365 379.352 L649.365 378.403 L645.129 378.403 M653.625 376.644 L653.625 391.436 L649.365 391.436 L649.365 387.501 Q647.907 389.862 645.731 390.996 Q643.555 392.107 640.407 392.107 Q636.426 392.107 634.065 389.885 Q631.727 387.639 631.727 383.889 Q631.727 379.514 634.643 377.292 Q637.583 375.07 643.393 375.07 L649.365 375.07 L649.365 374.653 Q649.365 371.714 647.421 370.116 Q645.5 368.496 642.004 368.496 Q639.782 368.496 637.676 369.028 Q635.569 369.561 633.625 370.626 L633.625 366.69 Q635.963 365.788 638.162 365.348 Q640.361 364.885 642.444 364.885 Q648.069 364.885 650.847 367.802 Q653.625 370.718 653.625 376.644 Z" fill="#000000" fill-rule="evenodd" fill-opacity="1" /><path clip-path="url(#clip170)" d="M677.421 369.491 Q676.703 369.075 675.847 368.89 Q675.013 368.681 673.995 368.681 Q670.384 368.681 668.439 371.042 Q666.518 373.38 666.518 377.778 L666.518 391.436 L662.236 391.436 L662.236 365.51 L666.518 365.51 L666.518 369.538 Q667.861 367.177 670.013 366.042 Q672.166 364.885 675.245 364.885 Q675.685 364.885 676.217 364.954 Q676.75 365.001 677.398 365.116 L677.421 369.491 Z" fill="#000000" fill-rule="evenodd" fill-opacity="1" /><path clip-path="url(#clip170)" d="M680.037 365.51 L700.268 365.51 L700.268 369.399 L684.249 388.033 L700.268 388.033 L700.268 391.436 L679.458 391.436 L679.458 387.547 L695.476 368.913 L680.037 368.913 L680.037 365.51 Z" fill="#000000" fill-rule="evenodd" fill-opacity="1" /><path clip-path="url(#clip170)" d="M723.3 366.274 L723.3 370.302 Q721.495 369.376 719.55 368.913 Q717.606 368.45 715.522 368.45 Q712.351 368.45 710.754 369.422 Q709.18 370.394 709.18 372.339 Q709.18 373.82 710.314 374.677 Q711.448 375.51 714.874 376.274 L716.333 376.598 Q720.87 377.57 722.768 379.352 Q724.689 381.112 724.689 384.283 Q724.689 387.894 721.819 390.001 Q718.972 392.107 713.972 392.107 Q711.888 392.107 709.62 391.69 Q707.374 391.297 704.874 390.487 L704.874 386.089 Q707.235 387.315 709.527 387.94 Q711.819 388.542 714.064 388.542 Q717.073 388.542 718.694 387.524 Q720.314 386.482 720.314 384.607 Q720.314 382.871 719.134 381.945 Q717.976 381.019 714.018 380.163 L712.536 379.815 Q708.578 378.982 706.819 377.269 Q705.06 375.533 705.06 372.524 Q705.06 368.866 707.652 366.876 Q710.245 364.885 715.013 364.885 Q717.374 364.885 719.458 365.232 Q721.541 365.579 723.3 366.274 Z" fill="#000000" fill-rule="evenodd" fill-opacity="1" /><path clip-path="url(#clip170)" d="M750.129 366.505 L750.129 370.487 Q748.323 369.491 746.495 369.005 Q744.689 368.496 742.837 368.496 Q738.694 368.496 736.402 371.135 Q734.11 373.751 734.11 378.496 Q734.11 383.241 736.402 385.88 Q738.694 388.496 742.837 388.496 Q744.689 388.496 746.495 388.01 Q748.323 387.501 750.129 386.505 L750.129 390.44 Q748.346 391.274 746.425 391.69 Q744.527 392.107 742.374 392.107 Q736.518 392.107 733.069 388.426 Q729.62 384.746 729.62 378.496 Q729.62 372.153 733.092 368.519 Q736.587 364.885 742.652 364.885 Q744.62 364.885 746.495 365.302 Q748.37 365.695 750.129 366.505 Z" fill="#000000" fill-rule="evenodd" fill-opacity="1" /><path clip-path="url(#clip170)" d="M779.087 375.788 L779.087 391.436 L774.828 391.436 L774.828 375.927 Q774.828 372.246 773.393 370.417 Q771.957 368.589 769.087 368.589 Q765.638 368.589 763.647 370.788 Q761.656 372.987 761.656 376.783 L761.656 391.436 L757.374 391.436 L757.374 355.417 L761.656 355.417 L761.656 369.538 Q763.184 367.2 765.244 366.042 Q767.328 364.885 770.036 364.885 Q774.504 364.885 776.795 367.663 Q779.087 370.417 779.087 375.788 Z" fill="#000000" fill-rule="evenodd" fill-opacity="1" /><path clip-path="url(#clip170)" d="M787.582 365.51 L791.841 365.51 L791.841 391.436 L787.582 391.436 L787.582 365.51 M787.582 355.417 L791.841 355.417 L791.841 360.811 L787.582 360.811 L787.582 355.417 Z" fill="#000000" fill-rule="evenodd" fill-opacity="1" /><path clip-path="url(#clip170)" d="M800.753 355.417 L805.013 355.417 L805.013 391.436 L800.753 391.436 L800.753 355.417 Z" fill="#000000" fill-rule="evenodd" fill-opacity="1" /><path clip-path="url(#clip170)" d="M830.985 369.445 L830.985 355.417 L835.244 355.417 L835.244 391.436 L830.985 391.436 L830.985 387.547 Q829.642 389.862 827.582 390.996 Q825.545 392.107 822.675 392.107 Q817.976 392.107 815.013 388.357 Q812.073 384.607 812.073 378.496 Q812.073 372.385 815.013 368.635 Q817.976 364.885 822.675 364.885 Q825.545 364.885 827.582 366.019 Q829.642 367.13 830.985 369.445 M816.471 378.496 Q816.471 383.195 818.392 385.88 Q820.337 388.542 823.716 388.542 Q827.096 388.542 829.04 385.88 Q830.985 383.195 830.985 378.496 Q830.985 373.797 829.04 371.135 Q827.096 368.45 823.716 368.45 Q820.337 368.45 818.392 371.135 Q816.471 373.797 816.471 378.496 Z" fill="#000000" fill-rule="evenodd" fill-opacity="1" /></svg>
