<?xml version="1.0" encoding="utf-8"?>
<svg xmlns="http://www.w3.org/2000/svg" xmlns:xlink="http://www.w3.org/1999/xlink" width="600" height="400" viewBox="0 0 2400 1600">
<defs>
  <clipPath id="clip690">
    <rect x="0" y="0" width="2400" height="1600"/>
  </clipPath>
</defs>
<path clip-path="url(#clip690)" d="M0 1600 L2400 1600 L2400 0 L0 0  Z" fill="#ffffff" fill-rule="evenodd" fill-opacity="0"/>
<defs>
  <clipPath id="clip691">
    <rect x="480" y="0" width="1681" height="1600"/>
  </clipPath>
</defs>
<path clip-path="url(#clip690)" d="M255.977 1423.18 L2352.76 1423.18 L2352.76 123.472 L255.977 123.472  Z" fill="#ffffff" fill-rule="evenodd" fill-opacity="0"/>
<defs>
  <clipPath id="clip692">
    <rect x="255" y="123" width="2098" height="1301"/>
  </clipPath>
</defs>
<polyline clip-path="url(#clip692)" style="stroke:#000000; stroke-linecap:round; stroke-linejoin:round; stroke-width:2; stroke-opacity:0.1; fill:none" points="315.32,1423.18 315.32,123.472 "/>
<polyline clip-path="url(#clip692)" style="stroke:#000000; stroke-linecap:round; stroke-linejoin:round; stroke-width:2; stroke-opacity:0.1; fill:none" points="645.002,1423.18 645.002,123.472 "/>
<polyline clip-path="url(#clip692)" style="stroke:#000000; stroke-linecap:round; stroke-linejoin:round; stroke-width:2; stroke-opacity:0.1; fill:none" points="974.684,1423.18 974.684,123.472 "/>
<polyline clip-path="url(#clip692)" style="stroke:#000000; stroke-linecap:round; stroke-linejoin:round; stroke-width:2; stroke-opacity:0.1; fill:none" points="1304.37,1423.18 1304.37,123.472 "/>
<polyline clip-path="url(#clip692)" style="stroke:#000000; stroke-linecap:round; stroke-linejoin:round; stroke-width:2; stroke-opacity:0.1; fill:none" points="1634.05,1423.18 1634.05,123.472 "/>
<polyline clip-path="url(#clip692)" style="stroke:#000000; stroke-linecap:round; stroke-linejoin:round; stroke-width:2; stroke-opacity:0.1; fill:none" points="1963.73,1423.18 1963.73,123.472 "/>
<polyline clip-path="url(#clip692)" style="stroke:#000000; stroke-linecap:round; stroke-linejoin:round; stroke-width:2; stroke-opacity:0.1; fill:none" points="2293.41,1423.18 2293.41,123.472 "/>
<polyline clip-path="url(#clip690)" style="stroke:#000000; stroke-linecap:round; stroke-linejoin:round; stroke-width:4; stroke-opacity:1; fill:none" points="255.977,1423.18 2352.76,1423.18 "/>
<polyline clip-path="url(#clip690)" style="stroke:#000000; stroke-linecap:round; stroke-linejoin:round; stroke-width:4; stroke-opacity:1; fill:none" points="315.32,1423.18 315.32,1404.28 "/>
<polyline clip-path="url(#clip690)" style="stroke:#000000; stroke-linecap:round; stroke-linejoin:round; stroke-width:4; stroke-opacity:1; fill:none" points="645.002,1423.18 645.002,1404.28 "/>
<polyline clip-path="url(#clip690)" style="stroke:#000000; stroke-linecap:round; stroke-linejoin:round; stroke-width:4; stroke-opacity:1; fill:none" points="974.684,1423.18 974.684,1404.28 "/>
<polyline clip-path="url(#clip690)" style="stroke:#000000; stroke-linecap:round; stroke-linejoin:round; stroke-width:4; stroke-opacity:1; fill:none" points="1304.37,1423.18 1304.37,1404.28 "/>
<polyline clip-path="url(#clip690)" style="stroke:#000000; stroke-linecap:round; stroke-linejoin:round; stroke-width:4; stroke-opacity:1; fill:none" points="1634.05,1423.18 1634.05,1404.28 "/>
<polyline clip-path="url(#clip690)" style="stroke:#000000; stroke-linecap:round; stroke-linejoin:round; stroke-width:4; stroke-opacity:1; fill:none" points="1963.73,1423.18 1963.73,1404.28 "/>
<polyline clip-path="url(#clip690)" style="stroke:#000000; stroke-linecap:round; stroke-linejoin:round; stroke-width:4; stroke-opacity:1; fill:none" points="2293.41,1423.18 2293.41,1404.28 "/>
<path clip-path="url(#clip690)" d="M262.172 1468.75 L291.848 1468.75 L291.848 1472.69 L262.172 1472.69 L262.172 1468.75 Z" fill="#000000" fill-rule="evenodd" fill-opacity="1" /><path clip-path="url(#clip690)" d="M311.94 1454.1 Q308.329 1454.1 306.501 1457.66 Q304.695 1461.2 304.695 1468.33 Q304.695 1475.44 306.501 1479.01 Q308.329 1482.55 311.94 1482.55 Q315.575 1482.55 317.38 1479.01 Q319.209 1475.44 319.209 1468.33 Q319.209 1461.2 317.38 1457.66 Q315.575 1454.1 311.94 1454.1 M311.94 1450.39 Q317.751 1450.39 320.806 1455 Q323.885 1459.58 323.885 1468.33 Q323.885 1477.06 320.806 1481.67 Q317.751 1486.25 311.94 1486.25 Q306.13 1486.25 303.052 1481.67 Q299.996 1477.06 299.996 1468.33 Q299.996 1459.58 303.052 1455 Q306.13 1450.39 311.94 1450.39 Z" fill="#000000" fill-rule="evenodd" fill-opacity="1" /><path clip-path="url(#clip690)" d="M332.102 1479.7 L336.987 1479.7 L336.987 1485.58 L332.102 1485.58 L332.102 1479.7 Z" fill="#000000" fill-rule="evenodd" fill-opacity="1" /><path clip-path="url(#clip690)" d="M361.338 1466.95 Q364.695 1467.66 366.57 1469.93 Q368.468 1472.2 368.468 1475.53 Q368.468 1480.65 364.949 1483.45 Q361.431 1486.25 354.949 1486.25 Q352.773 1486.25 350.459 1485.81 Q348.167 1485.39 345.713 1484.54 L345.713 1480.02 Q347.658 1481.16 349.973 1481.74 Q352.287 1482.32 354.811 1482.32 Q359.209 1482.32 361.5 1480.58 Q363.815 1478.84 363.815 1475.53 Q363.815 1472.48 361.662 1470.77 Q359.533 1469.03 355.713 1469.03 L351.686 1469.03 L351.686 1465.19 L355.898 1465.19 Q359.348 1465.19 361.176 1463.82 Q363.005 1462.43 363.005 1459.84 Q363.005 1457.18 361.107 1455.77 Q359.232 1454.33 355.713 1454.33 Q353.792 1454.33 351.593 1454.75 Q349.394 1455.16 346.755 1456.04 L346.755 1451.88 Q349.417 1451.14 351.732 1450.77 Q354.07 1450.39 356.13 1450.39 Q361.454 1450.39 364.556 1452.83 Q367.658 1455.23 367.658 1459.35 Q367.658 1462.22 366.014 1464.21 Q364.371 1466.18 361.338 1466.95 Z" fill="#000000" fill-rule="evenodd" fill-opacity="1" /><path clip-path="url(#clip690)" d="M592.329 1468.75 L622.005 1468.75 L622.005 1472.69 L592.329 1472.69 L592.329 1468.75 Z" fill="#000000" fill-rule="evenodd" fill-opacity="1" /><path clip-path="url(#clip690)" d="M642.097 1454.1 Q638.486 1454.1 636.657 1457.66 Q634.852 1461.2 634.852 1468.33 Q634.852 1475.44 636.657 1479.01 Q638.486 1482.55 642.097 1482.55 Q645.731 1482.55 647.537 1479.01 Q649.366 1475.44 649.366 1468.33 Q649.366 1461.2 647.537 1457.66 Q645.731 1454.1 642.097 1454.1 M642.097 1450.39 Q647.907 1450.39 650.963 1455 Q654.041 1459.58 654.041 1468.33 Q654.041 1477.06 650.963 1481.67 Q647.907 1486.25 642.097 1486.25 Q636.287 1486.25 633.208 1481.67 Q630.153 1477.06 630.153 1468.33 Q630.153 1459.58 633.208 1455 Q636.287 1450.39 642.097 1450.39 Z" fill="#000000" fill-rule="evenodd" fill-opacity="1" /><path clip-path="url(#clip690)" d="M662.259 1479.7 L667.143 1479.7 L667.143 1485.58 L662.259 1485.58 L662.259 1479.7 Z" fill="#000000" fill-rule="evenodd" fill-opacity="1" /><path clip-path="url(#clip690)" d="M681.356 1481.64 L697.675 1481.64 L697.675 1485.58 L675.731 1485.58 L675.731 1481.64 Q678.393 1478.89 682.977 1474.26 Q687.583 1469.61 688.764 1468.27 Q691.009 1465.74 691.888 1464.01 Q692.791 1462.25 692.791 1460.56 Q692.791 1457.8 690.847 1456.07 Q688.926 1454.33 685.824 1454.33 Q683.625 1454.33 681.171 1455.09 Q678.74 1455.86 675.963 1457.41 L675.963 1452.69 Q678.787 1451.55 681.24 1450.97 Q683.694 1450.39 685.731 1450.39 Q691.101 1450.39 694.296 1453.08 Q697.49 1455.77 697.49 1460.26 Q697.49 1462.39 696.68 1464.31 Q695.893 1466.2 693.787 1468.8 Q693.208 1469.47 690.106 1472.69 Q687.004 1475.88 681.356 1481.64 Z" fill="#000000" fill-rule="evenodd" fill-opacity="1" /><path clip-path="url(#clip690)" d="M921.826 1468.75 L951.502 1468.75 L951.502 1472.69 L921.826 1472.69 L921.826 1468.75 Z" fill="#000000" fill-rule="evenodd" fill-opacity="1" /><path clip-path="url(#clip690)" d="M971.594 1454.1 Q967.983 1454.1 966.154 1457.66 Q964.349 1461.2 964.349 1468.33 Q964.349 1475.44 966.154 1479.01 Q967.983 1482.55 971.594 1482.55 Q975.228 1482.55 977.034 1479.01 Q978.863 1475.44 978.863 1468.33 Q978.863 1461.2 977.034 1457.66 Q975.228 1454.1 971.594 1454.1 M971.594 1450.39 Q977.404 1450.39 980.46 1455 Q983.538 1459.58 983.538 1468.33 Q983.538 1477.06 980.46 1481.67 Q977.404 1486.25 971.594 1486.25 Q965.784 1486.25 962.705 1481.67 Q959.65 1477.06 959.65 1468.33 Q959.65 1459.58 962.705 1455 Q965.784 1450.39 971.594 1450.39 Z" fill="#000000" fill-rule="evenodd" fill-opacity="1" /><path clip-path="url(#clip690)" d="M991.756 1479.7 L996.64 1479.7 L996.64 1485.58 L991.756 1485.58 L991.756 1479.7 Z" fill="#000000" fill-rule="evenodd" fill-opacity="1" /><path clip-path="url(#clip690)" d="M1007.64 1481.64 L1015.27 1481.64 L1015.27 1455.28 L1006.96 1456.95 L1006.96 1452.69 L1015.23 1451.02 L1019.9 1451.02 L1019.9 1481.64 L1027.54 1481.64 L1027.54 1485.58 L1007.64 1485.58 L1007.64 1481.64 Z" fill="#000000" fill-rule="evenodd" fill-opacity="1" /><path clip-path="url(#clip690)" d="M1281.75 1454.1 Q1278.14 1454.1 1276.31 1457.66 Q1274.51 1461.2 1274.51 1468.33 Q1274.51 1475.44 1276.31 1479.01 Q1278.14 1482.55 1281.75 1482.55 Q1285.39 1482.55 1287.19 1479.01 Q1289.02 1475.44 1289.02 1468.33 Q1289.02 1461.2 1287.19 1457.66 Q1285.39 1454.1 1281.75 1454.1 M1281.75 1450.39 Q1287.56 1450.39 1290.62 1455 Q1293.7 1459.58 1293.7 1468.33 Q1293.7 1477.06 1290.62 1481.67 Q1287.56 1486.25 1281.75 1486.25 Q1275.94 1486.25 1272.86 1481.67 Q1269.81 1477.06 1269.81 1468.33 Q1269.81 1459.58 1272.86 1455 Q1275.94 1450.39 1281.75 1450.39 Z" fill="#000000" fill-rule="evenodd" fill-opacity="1" /><path clip-path="url(#clip690)" d="M1301.91 1479.7 L1306.8 1479.7 L1306.8 1485.58 L1301.91 1485.58 L1301.91 1479.7 Z" fill="#000000" fill-rule="evenodd" fill-opacity="1" /><path clip-path="url(#clip690)" d="M1326.98 1454.1 Q1323.37 1454.1 1321.54 1457.66 Q1319.74 1461.2 1319.74 1468.33 Q1319.74 1475.44 1321.54 1479.01 Q1323.37 1482.55 1326.98 1482.55 Q1330.62 1482.55 1332.42 1479.01 Q1334.25 1475.44 1334.25 1468.33 Q1334.25 1461.2 1332.42 1457.66 Q1330.62 1454.1 1326.98 1454.1 M1326.98 1450.39 Q1332.79 1450.39 1335.85 1455 Q1338.93 1459.58 1338.93 1468.33 Q1338.93 1477.06 1335.85 1481.67 Q1332.79 1486.25 1326.98 1486.25 Q1321.17 1486.25 1318.09 1481.67 Q1315.04 1477.06 1315.04 1468.33 Q1315.04 1459.58 1318.09 1455 Q1321.17 1450.39 1326.98 1450.39 Z" fill="#000000" fill-rule="evenodd" fill-opacity="1" /><path clip-path="url(#clip690)" d="M1612.05 1454.1 Q1608.44 1454.1 1606.61 1457.66 Q1604.8 1461.2 1604.8 1468.33 Q1604.8 1475.44 1606.61 1479.01 Q1608.44 1482.55 1612.05 1482.55 Q1615.68 1482.55 1617.49 1479.01 Q1619.32 1475.44 1619.32 1468.33 Q1619.32 1461.2 1617.49 1457.66 Q1615.68 1454.1 1612.05 1454.1 M1612.05 1450.39 Q1617.86 1450.39 1620.91 1455 Q1623.99 1459.58 1623.99 1468.33 Q1623.99 1477.06 1620.91 1481.67 Q1617.86 1486.25 1612.05 1486.25 Q1606.24 1486.25 1603.16 1481.67 Q1600.1 1477.06 1600.1 1468.33 Q1600.1 1459.58 1603.16 1455 Q1606.24 1450.39 1612.05 1450.39 Z" fill="#000000" fill-rule="evenodd" fill-opacity="1" /><path clip-path="url(#clip690)" d="M1632.21 1479.7 L1637.09 1479.7 L1637.09 1485.58 L1632.21 1485.58 L1632.21 1479.7 Z" fill="#000000" fill-rule="evenodd" fill-opacity="1" /><path clip-path="url(#clip690)" d="M1648.09 1481.64 L1655.73 1481.64 L1655.73 1455.28 L1647.42 1456.95 L1647.42 1452.69 L1655.68 1451.02 L1660.36 1451.02 L1660.36 1481.64 L1668 1481.64 L1668 1485.58 L1648.09 1485.58 L1648.09 1481.64 Z" fill="#000000" fill-rule="evenodd" fill-opacity="1" /><path clip-path="url(#clip690)" d="M1941.91 1454.1 Q1938.3 1454.1 1936.47 1457.66 Q1934.67 1461.2 1934.67 1468.33 Q1934.67 1475.44 1936.47 1479.01 Q1938.3 1482.55 1941.91 1482.55 Q1945.55 1482.55 1947.35 1479.01 Q1949.18 1475.44 1949.18 1468.33 Q1949.18 1461.2 1947.35 1457.66 Q1945.55 1454.1 1941.91 1454.1 M1941.91 1450.39 Q1947.72 1450.39 1950.78 1455 Q1953.86 1459.58 1953.86 1468.33 Q1953.86 1477.06 1950.78 1481.67 Q1947.72 1486.25 1941.91 1486.25 Q1936.1 1486.25 1933.03 1481.67 Q1929.97 1477.06 1929.97 1468.33 Q1929.97 1459.58 1933.03 1455 Q1936.1 1450.39 1941.91 1450.39 Z" fill="#000000" fill-rule="evenodd" fill-opacity="1" /><path clip-path="url(#clip690)" d="M1962.08 1479.7 L1966.96 1479.7 L1966.96 1485.58 L1962.08 1485.58 L1962.08 1479.7 Z" fill="#000000" fill-rule="evenodd" fill-opacity="1" /><path clip-path="url(#clip690)" d="M1981.17 1481.64 L1997.49 1481.64 L1997.49 1485.58 L1975.55 1485.58 L1975.55 1481.64 Q1978.21 1478.89 1982.79 1474.26 Q1987.4 1469.61 1988.58 1468.27 Q1990.83 1465.74 1991.71 1464.01 Q1992.61 1462.25 1992.61 1460.56 Q1992.61 1457.8 1990.66 1456.07 Q1988.74 1454.33 1985.64 1454.33 Q1983.44 1454.33 1980.99 1455.09 Q1978.56 1455.86 1975.78 1457.41 L1975.78 1452.69 Q1978.6 1451.55 1981.06 1450.97 Q1983.51 1450.39 1985.55 1450.39 Q1990.92 1450.39 1994.11 1453.08 Q1997.31 1455.77 1997.31 1460.26 Q1997.31 1462.39 1996.5 1464.31 Q1995.71 1466.2 1993.6 1468.8 Q1993.02 1469.47 1989.92 1472.69 Q1986.82 1475.88 1981.17 1481.64 Z" fill="#000000" fill-rule="evenodd" fill-opacity="1" /><path clip-path="url(#clip690)" d="M2271.12 1454.1 Q2267.51 1454.1 2265.68 1457.66 Q2263.88 1461.2 2263.88 1468.33 Q2263.88 1475.44 2265.68 1479.01 Q2267.51 1482.55 2271.12 1482.55 Q2274.76 1482.55 2276.56 1479.01 Q2278.39 1475.44 2278.39 1468.33 Q2278.39 1461.2 2276.56 1457.66 Q2274.76 1454.1 2271.12 1454.1 M2271.12 1450.39 Q2276.93 1450.39 2279.99 1455 Q2283.07 1459.58 2283.07 1468.33 Q2283.07 1477.06 2279.99 1481.67 Q2276.93 1486.25 2271.12 1486.25 Q2265.31 1486.25 2262.23 1481.67 Q2259.18 1477.06 2259.18 1468.33 Q2259.18 1459.58 2262.23 1455 Q2265.31 1450.39 2271.12 1450.39 Z" fill="#000000" fill-rule="evenodd" fill-opacity="1" /><path clip-path="url(#clip690)" d="M2291.28 1479.7 L2296.17 1479.7 L2296.17 1485.58 L2291.28 1485.58 L2291.28 1479.7 Z" fill="#000000" fill-rule="evenodd" fill-opacity="1" /><path clip-path="url(#clip690)" d="M2320.52 1466.95 Q2323.88 1467.66 2325.75 1469.93 Q2327.65 1472.2 2327.65 1475.53 Q2327.65 1480.65 2324.13 1483.45 Q2320.61 1486.25 2314.13 1486.25 Q2311.95 1486.25 2309.64 1485.81 Q2307.35 1485.39 2304.89 1484.54 L2304.89 1480.02 Q2306.84 1481.16 2309.15 1481.74 Q2311.47 1482.32 2313.99 1482.32 Q2318.39 1482.32 2320.68 1480.58 Q2323 1478.84 2323 1475.53 Q2323 1472.48 2320.84 1470.77 Q2318.71 1469.03 2314.89 1469.03 L2310.87 1469.03 L2310.87 1465.19 L2315.08 1465.19 Q2318.53 1465.19 2320.36 1463.82 Q2322.19 1462.43 2322.19 1459.84 Q2322.19 1457.18 2320.29 1455.77 Q2318.41 1454.33 2314.89 1454.33 Q2312.97 1454.33 2310.77 1454.75 Q2308.58 1455.16 2305.94 1456.04 L2305.94 1451.88 Q2308.6 1451.14 2310.91 1450.77 Q2313.25 1450.39 2315.31 1450.39 Q2320.64 1450.39 2323.74 1452.83 Q2326.84 1455.23 2326.84 1459.35 Q2326.84 1462.22 2325.2 1464.21 Q2323.55 1466.18 2320.52 1466.95 Z" fill="#000000" fill-rule="evenodd" fill-opacity="1" /><path clip-path="url(#clip690)" d="M1326.79 1562.38 L1326.79 1568.04 L1307.69 1568.04 L1307.69 1562.38 Q1313.33 1559.29 1316.48 1554.01 Q1319.63 1548.72 1319.63 1542.29 Q1319.63 1534.66 1315.43 1530.04 Q1311.23 1525.43 1304.35 1525.43 Q1297.48 1525.43 1293.24 1530.07 Q1289.04 1534.69 1289.04 1542.29 Q1289.04 1548.72 1292.19 1554.01 Q1295.37 1559.29 1301.04 1562.38 L1301.04 1568.04 L1281.94 1568.04 L1281.94 1562.38 L1292.1 1562.38 Q1287.07 1557.95 1284.74 1553.21 Q1282.45 1548.47 1282.45 1542.61 Q1282.45 1532.49 1288.56 1526.22 Q1294.64 1519.95 1304.35 1519.95 Q1313.99 1519.95 1320.14 1526.22 Q1326.25 1532.46 1326.25 1542.29 Q1326.25 1548.47 1323.99 1553.18 Q1321.73 1557.89 1316.6 1562.38 L1326.79 1562.38 Z" fill="#000000" fill-rule="evenodd" fill-opacity="1" /><polyline clip-path="url(#clip692)" style="stroke:#000000; stroke-linecap:round; stroke-linejoin:round; stroke-width:2; stroke-opacity:0.1; fill:none" points="255.977,1225.55 2352.76,1225.55 "/>
<polyline clip-path="url(#clip692)" style="stroke:#000000; stroke-linecap:round; stroke-linejoin:round; stroke-width:2; stroke-opacity:0.1; fill:none" points="255.977,878.762 2352.76,878.762 "/>
<polyline clip-path="url(#clip692)" style="stroke:#000000; stroke-linecap:round; stroke-linejoin:round; stroke-width:2; stroke-opacity:0.1; fill:none" points="255.977,531.972 2352.76,531.972 "/>
<polyline clip-path="url(#clip692)" style="stroke:#000000; stroke-linecap:round; stroke-linejoin:round; stroke-width:2; stroke-opacity:0.1; fill:none" points="255.977,185.182 2352.76,185.182 "/>
<polyline clip-path="url(#clip690)" style="stroke:#000000; stroke-linecap:round; stroke-linejoin:round; stroke-width:4; stroke-opacity:1; fill:none" points="255.977,1423.18 255.977,123.472 "/>
<polyline clip-path="url(#clip690)" style="stroke:#000000; stroke-linecap:round; stroke-linejoin:round; stroke-width:4; stroke-opacity:1; fill:none" points="255.977,1225.55 274.875,1225.55 "/>
<polyline clip-path="url(#clip690)" style="stroke:#000000; stroke-linecap:round; stroke-linejoin:round; stroke-width:4; stroke-opacity:1; fill:none" points="255.977,878.762 274.875,878.762 "/>
<polyline clip-path="url(#clip690)" style="stroke:#000000; stroke-linecap:round; stroke-linejoin:round; stroke-width:4; stroke-opacity:1; fill:none" points="255.977,531.972 274.875,531.972 "/>
<polyline clip-path="url(#clip690)" style="stroke:#000000; stroke-linecap:round; stroke-linejoin:round; stroke-width:4; stroke-opacity:1; fill:none" points="255.977,185.182 274.875,185.182 "/>
<path clip-path="url(#clip690)" d="M114.26 1226 L143.936 1226 L143.936 1229.94 L114.26 1229.94 L114.26 1226 Z" fill="#000000" fill-rule="evenodd" fill-opacity="1" /><path clip-path="url(#clip690)" d="M164.028 1211.35 Q160.417 1211.35 158.589 1214.91 Q156.783 1218.46 156.783 1225.59 Q156.783 1232.69 158.589 1236.26 Q160.417 1239.8 164.028 1239.8 Q167.663 1239.8 169.468 1236.26 Q171.297 1232.69 171.297 1225.59 Q171.297 1218.46 169.468 1214.91 Q167.663 1211.35 164.028 1211.35 M164.028 1207.65 Q169.839 1207.65 172.894 1212.25 Q175.973 1216.84 175.973 1225.59 Q175.973 1234.31 172.894 1238.92 Q169.839 1243.5 164.028 1243.5 Q158.218 1243.5 155.14 1238.92 Q152.084 1234.31 152.084 1225.59 Q152.084 1216.84 155.14 1212.25 Q158.218 1207.65 164.028 1207.65 Z" fill="#000000" fill-rule="evenodd" fill-opacity="1" /><path clip-path="url(#clip690)" d="M184.19 1236.95 L189.075 1236.95 L189.075 1242.83 L184.19 1242.83 L184.19 1236.95 Z" fill="#000000" fill-rule="evenodd" fill-opacity="1" /><path clip-path="url(#clip690)" d="M200.07 1238.9 L207.709 1238.9 L207.709 1212.53 L199.399 1214.2 L199.399 1209.94 L207.662 1208.27 L212.338 1208.27 L212.338 1238.9 L219.977 1238.9 L219.977 1242.83 L200.07 1242.83 L200.07 1238.9 Z" fill="#000000" fill-rule="evenodd" fill-opacity="1" /><path clip-path="url(#clip690)" d="M162.802 864.56 Q159.19 864.56 157.362 868.125 Q155.556 871.667 155.556 878.796 Q155.556 885.903 157.362 889.468 Q159.19 893.009 162.802 893.009 Q166.436 893.009 168.241 889.468 Q170.07 885.903 170.07 878.796 Q170.07 871.667 168.241 868.125 Q166.436 864.56 162.802 864.56 M162.802 860.857 Q168.612 860.857 171.667 865.463 Q174.746 870.046 174.746 878.796 Q174.746 887.523 171.667 892.13 Q168.612 896.713 162.802 896.713 Q156.991 896.713 153.913 892.13 Q150.857 887.523 150.857 878.796 Q150.857 870.046 153.913 865.463 Q156.991 860.857 162.802 860.857 Z" fill="#000000" fill-rule="evenodd" fill-opacity="1" /><path clip-path="url(#clip690)" d="M182.963 890.162 L187.848 890.162 L187.848 896.042 L182.963 896.042 L182.963 890.162 Z" fill="#000000" fill-rule="evenodd" fill-opacity="1" /><path clip-path="url(#clip690)" d="M208.033 864.56 Q204.422 864.56 202.593 868.125 Q200.787 871.667 200.787 878.796 Q200.787 885.903 202.593 889.468 Q204.422 893.009 208.033 893.009 Q211.667 893.009 213.473 889.468 Q215.301 885.903 215.301 878.796 Q215.301 871.667 213.473 868.125 Q211.667 864.56 208.033 864.56 M208.033 860.857 Q213.843 860.857 216.898 865.463 Q219.977 870.046 219.977 878.796 Q219.977 887.523 216.898 892.13 Q213.843 896.713 208.033 896.713 Q202.223 896.713 199.144 892.13 Q196.088 887.523 196.088 878.796 Q196.088 870.046 199.144 865.463 Q202.223 860.857 208.033 860.857 Z" fill="#000000" fill-rule="evenodd" fill-opacity="1" /><path clip-path="url(#clip690)" d="M164.028 517.771 Q160.417 517.771 158.589 521.335 Q156.783 524.877 156.783 532.007 Q156.783 539.113 158.589 542.678 Q160.417 546.219 164.028 546.219 Q167.663 546.219 169.468 542.678 Q171.297 539.113 171.297 532.007 Q171.297 524.877 169.468 521.335 Q167.663 517.771 164.028 517.771 M164.028 514.067 Q169.839 514.067 172.894 518.673 Q175.973 523.257 175.973 532.007 Q175.973 540.733 172.894 545.34 Q169.839 549.923 164.028 549.923 Q158.218 549.923 155.14 545.34 Q152.084 540.733 152.084 532.007 Q152.084 523.257 155.14 518.673 Q158.218 514.067 164.028 514.067 Z" fill="#000000" fill-rule="evenodd" fill-opacity="1" /><path clip-path="url(#clip690)" d="M184.19 543.372 L189.075 543.372 L189.075 549.252 L184.19 549.252 L184.19 543.372 Z" fill="#000000" fill-rule="evenodd" fill-opacity="1" /><path clip-path="url(#clip690)" d="M200.07 545.317 L207.709 545.317 L207.709 518.951 L199.399 520.618 L199.399 516.359 L207.662 514.692 L212.338 514.692 L212.338 545.317 L219.977 545.317 L219.977 549.252 L200.07 549.252 L200.07 545.317 Z" fill="#000000" fill-rule="evenodd" fill-opacity="1" /><path clip-path="url(#clip690)" d="M164.399 170.981 Q160.788 170.981 158.959 174.546 Q157.153 178.087 157.153 185.217 Q157.153 192.323 158.959 195.888 Q160.788 199.43 164.399 199.43 Q168.033 199.43 169.839 195.888 Q171.667 192.323 171.667 185.217 Q171.667 178.087 169.839 174.546 Q168.033 170.981 164.399 170.981 M164.399 167.277 Q170.209 167.277 173.264 171.883 Q176.343 176.467 176.343 185.217 Q176.343 193.944 173.264 198.55 Q170.209 203.133 164.399 203.133 Q158.589 203.133 155.51 198.55 Q152.454 193.944 152.454 185.217 Q152.454 176.467 155.51 171.883 Q158.589 167.277 164.399 167.277 Z" fill="#000000" fill-rule="evenodd" fill-opacity="1" /><path clip-path="url(#clip690)" d="M184.561 196.582 L189.445 196.582 L189.445 202.462 L184.561 202.462 L184.561 196.582 Z" fill="#000000" fill-rule="evenodd" fill-opacity="1" /><path clip-path="url(#clip690)" d="M203.658 198.527 L219.977 198.527 L219.977 202.462 L198.033 202.462 L198.033 198.527 Q200.695 195.772 205.278 191.143 Q209.885 186.49 211.065 185.147 Q213.311 182.624 214.19 180.888 Q215.093 179.129 215.093 177.439 Q215.093 174.684 213.149 172.948 Q211.227 171.212 208.125 171.212 Q205.926 171.212 203.473 171.976 Q201.042 172.74 198.264 174.291 L198.264 169.569 Q201.088 168.434 203.542 167.856 Q205.996 167.277 208.033 167.277 Q213.403 167.277 216.598 169.962 Q219.792 172.647 219.792 177.138 Q219.792 179.268 218.982 181.189 Q218.195 183.087 216.088 185.68 Q215.51 186.351 212.408 189.569 Q209.306 192.763 203.658 198.527 Z" fill="#000000" fill-rule="evenodd" fill-opacity="1" /><path clip-path="url(#clip690)" d="M14.479 808.894 L19.3487 808.894 L19.3487 814.496 Q19.3487 817.647 20.6219 818.889 Q21.895 820.098 25.2052 820.098 L28.3562 820.098 L28.3562 810.454 L32.9077 810.454 L32.9077 820.098 L64.0042 820.098 L64.0042 825.986 L32.9077 825.986 L32.9077 831.588 L28.3562 831.588 L28.3562 825.986 L25.8736 825.986 Q19.9216 825.986 17.2162 823.217 Q14.479 820.448 14.479 814.433 L14.479 808.894 Z" fill="#000000" fill-rule="evenodd" fill-opacity="1" /><path clip-path="url(#clip690)" d="M14.5426 789.925 Q21.8632 794.19 29.0246 796.258 Q36.186 798.327 43.5384 798.327 Q50.8908 798.327 58.1159 796.258 Q65.3091 794.158 72.5979 789.925 L72.5979 795.017 Q65.1182 799.791 57.8931 802.179 Q50.668 804.534 43.5384 804.534 Q36.4406 804.534 29.2474 802.179 Q22.0542 799.823 14.5426 795.017 L14.5426 789.925 Z" fill="#000000" fill-rule="evenodd" fill-opacity="1" /><path clip-path="url(#clip690)" d="M58.3387 737.376 L64.0042 737.376 L64.0042 756.473 L58.3387 756.473 Q55.2513 750.839 49.9678 747.688 Q44.6842 744.537 38.2549 744.537 Q30.616 744.537 26.0009 748.738 Q21.3858 752.94 21.3858 759.815 Q21.3858 766.69 26.0327 770.923 Q30.6479 775.124 38.2549 775.124 Q44.6842 775.124 49.9678 771.973 Q55.2513 768.79 58.3387 763.125 L64.0042 763.125 L64.0042 782.222 L58.3387 782.222 L58.3387 772.069 Q53.9145 777.098 49.1721 779.421 Q44.4296 781.713 38.5732 781.713 Q28.4517 781.713 22.1815 775.602 Q15.9112 769.522 15.9112 759.815 Q15.9112 750.171 22.1815 744.028 Q28.4199 737.917 38.2549 737.917 Q44.4296 737.917 49.1402 740.177 Q53.8509 742.436 58.3387 747.561 L58.3387 737.376 Z" fill="#000000" fill-rule="evenodd" fill-opacity="1" /><path clip-path="url(#clip690)" d="M14.5426 729.673 L14.5426 724.581 Q22.0542 719.806 29.2474 717.451 Q36.4406 715.064 43.5384 715.064 Q50.668 715.064 57.8931 717.451 Q65.1182 719.806 72.5979 724.581 L72.5979 729.673 Q65.3091 725.44 58.1159 723.371 Q50.8908 721.27 43.5384 721.27 Q36.186 721.27 29.0246 723.371 Q21.8632 725.44 14.5426 729.673 Z" fill="#000000" fill-rule="evenodd" fill-opacity="1" /><path clip-path="url(#clip690)" d="M1193.31 34.1734 Q1192.06 33.4443 1190.56 33.1202 Q1189.1 32.7556 1187.32 32.7556 Q1181 32.7556 1177.59 36.8875 Q1174.23 40.9789 1174.23 48.6757 L1174.23 72.576 L1166.74 72.576 L1166.74 27.2059 L1174.23 27.2059 L1174.23 34.2544 Q1176.58 30.1225 1180.35 28.1376 Q1184.12 26.1121 1189.5 26.1121 Q1190.27 26.1121 1191.2 26.2337 Q1192.14 26.3147 1193.27 26.5172 L1193.31 34.1734 Z" fill="#000000" fill-rule="evenodd" fill-opacity="1" /><path clip-path="url(#clip690)" d="M1228.47 34.9026 L1280.41 34.9026 L1280.41 41.7081 L1228.47 41.7081 L1228.47 34.9026 M1228.47 51.4303 L1280.41 51.4303 L1280.41 58.3168 L1228.47 58.3168 L1228.47 51.4303 Z" fill="#000000" fill-rule="evenodd" fill-opacity="1" /><path clip-path="url(#clip690)" d="M1349.23 39.9662 Q1355.1 41.222 1358.39 45.1919 Q1361.71 49.1618 1361.71 54.9951 Q1361.71 63.9476 1355.55 68.8492 Q1349.39 73.7508 1338.05 73.7508 Q1334.24 73.7508 1330.19 72.9811 Q1326.18 72.2519 1321.89 70.7531 L1321.89 62.8538 Q1325.29 64.8388 1329.34 65.8515 Q1333.39 66.8642 1337.81 66.8642 Q1345.5 66.8642 1349.51 63.826 Q1353.56 60.7879 1353.56 54.9951 Q1353.56 49.6479 1349.8 46.6502 Q1346.07 43.612 1339.39 43.612 L1332.34 43.612 L1332.34 36.8875 L1339.71 36.8875 Q1345.75 36.8875 1348.95 34.4975 Q1352.15 32.067 1352.15 27.5299 Q1352.15 22.8714 1348.83 20.4004 Q1345.54 17.8888 1339.39 17.8888 Q1336.02 17.8888 1332.18 18.618 Q1328.33 19.3471 1323.71 20.8865 L1323.71 13.5948 Q1328.37 12.2985 1332.42 11.6504 Q1336.51 11.0023 1340.12 11.0023 Q1349.43 11.0023 1354.86 15.2557 Q1360.29 19.4686 1360.29 26.6793 Q1360.29 31.7024 1357.41 35.1862 Q1354.54 38.6294 1349.23 39.9662 Z" fill="#000000" fill-rule="evenodd" fill-opacity="1" /><path clip-path="url(#clip690)" d="M1377.22 62.2867 L1385.77 62.2867 L1385.77 72.576 L1377.22 72.576 L1377.22 62.2867 Z" fill="#000000" fill-rule="evenodd" fill-opacity="1" /><path clip-path="url(#clip690)" d="M1421.09 17.4837 Q1414.77 17.4837 1411.57 23.7221 Q1408.41 29.92 1408.41 42.3968 Q1408.41 54.833 1411.57 61.0714 Q1414.77 67.2693 1421.09 67.2693 Q1427.45 67.2693 1430.61 61.0714 Q1433.81 54.833 1433.81 42.3968 Q1433.81 29.92 1430.61 23.7221 Q1427.45 17.4837 1421.09 17.4837 M1421.09 11.0023 Q1431.26 11.0023 1436.61 19.0636 Q1442 27.0843 1442 42.3968 Q1442 57.6687 1436.61 65.73 Q1431.26 73.7508 1421.09 73.7508 Q1410.93 73.7508 1405.54 65.73 Q1400.19 57.6687 1400.19 42.3968 Q1400.19 27.0843 1405.54 19.0636 Q1410.93 11.0023 1421.09 11.0023 Z" fill="#000000" fill-rule="evenodd" fill-opacity="1" /><polyline clip-path="url(#clip692)" style="stroke:#000000; stroke-linecap:round; stroke-linejoin:round; stroke-width:4; stroke-opacity:1; fill:none" stroke-dasharray="16, 10" points="315.32,295.273 321.936,307.252 328.551,319.147 335.167,330.959 341.783,342.688 348.398,354.333 355.014,365.894 361.63,377.372 368.246,388.767 374.861,400.078 381.477,411.306 388.093,422.451 394.708,433.512 401.324,444.489 407.94,455.384 414.555,466.194 421.171,476.922 427.787,487.566 434.403,498.126 441.018,508.603 447.634,518.997 454.25,529.307 460.865,539.534 467.481,549.677 474.097,559.737 480.712,569.714 487.328,579.607 493.944,589.417 500.559,599.143 507.175,608.786 513.791,618.345 520.407,627.821 527.022,637.214 533.638,646.523 540.254,655.749 546.869,664.891 553.485,673.95 560.101,682.925 566.716,691.817 573.332,700.626 579.948,709.351 586.564,717.993 593.179,726.551 599.795,735.026 606.411,743.417 613.026,751.725 619.642,759.95 626.258,768.091 632.873,776.149 639.489,784.123 646.105,792.014 652.72,799.822 659.336,807.546 665.952,815.186 672.568,822.744 679.183,830.217 685.799,837.608 692.415,844.915 699.03,852.138 705.646,859.278 712.262,866.335 718.877,873.308 725.493,880.198 732.109,887.004 738.725,893.727 745.34,900.367 751.956,906.923 758.572,913.396 765.187,919.785 771.803,926.091 778.419,932.313 785.034,938.452 791.65,944.508 798.266,950.48 804.881,956.369 811.497,962.174 818.113,967.896 824.729,973.534 831.344,979.089 837.96,984.561 844.576,989.949 851.191,995.254 857.807,1000.48 864.423,1005.61 871.038,1010.67 877.654,1015.64 884.27,1020.53 890.886,1025.33 897.501,1030.05 904.117,1034.69 "/>
<polyline clip-path="url(#clip692)" style="stroke:#000000; stroke-linecap:round; stroke-linejoin:round; stroke-width:4; stroke-opacity:1; fill:none" stroke-dasharray="16, 10" points="1036.43,1109.92 1043.05,1112.8 1049.66,1115.6 1056.28,1118.32 1062.89,1120.96 1069.51,1123.51 1076.13,1125.98 1082.74,1128.36 1089.36,1130.66 1095.97,1132.88 1102.59,1135.02 1109.2,1137.07 1115.82,1139.04 1122.43,1140.92 1129.05,1142.72 1135.67,1144.44 1142.28,1146.07 1148.9,1147.62 1155.51,1149.09 1162.13,1150.47 1168.74,1151.77 1175.36,1152.99 1181.98,1154.12 1188.59,1155.17 1195.21,1156.14 1201.82,1157.02 1208.44,1157.82 1215.05,1158.54 1221.67,1159.17 1228.29,1159.72 1234.9,1160.19 1241.52,1160.57 1248.13,1160.87 1254.75,1161.09 1261.36,1161.22 1267.98,1161.27 1274.6,1161.23 1281.21,1161.12 1287.83,1160.91 1294.44,1160.63 1301.06,1160.26 1307.67,1159.81 1314.29,1159.28 1320.91,1158.66 1327.52,1157.96 1334.14,1157.17 1340.75,1156.3 1347.37,1155.35 1353.98,1154.31 1360.6,1153.19 1367.22,1151.99 1373.83,1150.71 1380.45,1149.34 1387.06,1147.88 1393.68,1146.35 1400.29,1144.73 1406.91,1143.03 1413.53,1141.24 1420.14,1139.37 1426.76,1137.42 1433.37,1135.38 1439.99,1133.26 1446.6,1131.06 1453.22,1128.77 1459.84,1126.4 1466.45,1123.95 1473.07,1121.41 1479.68,1118.79 1486.3,1116.08 1492.91,1113.3 1499.53,1110.43 1506.15,1107.47 1512.76,1104.43 1519.38,1101.31 1525.99,1098.11 1532.61,1094.82 1539.22,1091.45 1545.84,1087.99 1552.46,1084.46 1559.07,1080.83 1565.69,1077.13 1572.3,1073.34 1578.92,1069.47 1585.53,1065.51 1592.15,1061.47 1598.77,1057.35 1605.38,1053.15 1612,1048.86 1618.61,1044.48 1625.23,1040.03 1631.84,1035.49 1638.46,1030.87 1645.07,1026.16 1651.69,1021.37 1658.31,1016.5 1664.92,1011.54 1671.54,1006.5 1678.15,1001.38 1684.77,996.17 1691.38,990.88 1698,985.507 1704.62,980.05 1711.23,974.509 1717.85,968.885 1724.46,963.178 1731.08,957.387 1737.69,951.513 1744.31,945.555 1750.93,939.514 1757.54,933.39 1764.16,927.182 1770.77,920.891 1777.39,914.516 1784,908.058 1790.62,901.516 1797.24,894.891 1803.85,888.183 1810.47,881.391 1817.08,874.516 1823.7,867.557 1830.31,860.515 1836.93,853.389 1843.55,846.18 1850.16,838.888 1856.78,831.512 1863.39,824.053 1870.01,816.51 1876.62,808.884 1883.24,801.175 1889.86,793.382 1896.47,785.505 1903.09,777.546 1909.7,769.502 1916.32,761.376 1922.93,753.166 1929.55,744.872 1936.17,736.495 1942.78,728.035 1949.4,719.491 1956.01,710.864 1962.63,702.153 1969.24,693.359 1975.86,684.482 1982.48,675.521 1989.09,666.477 1995.71,657.349 2002.32,648.138 2008.94,638.843 2015.55,629.465 2022.17,620.004 2028.79,610.459 2035.4,600.831 2042.02,591.119 2048.63,581.324 2055.25,571.445 2061.86,561.483 2068.48,551.438 2075.1,541.309 2081.71,531.097 2088.33,520.801 2094.94,510.422 2101.56,499.959 2108.17,489.414 2114.79,478.784 2121.41,468.071 2128.02,457.275 2134.64,446.395 2141.25,435.432 2147.87,424.386 2154.48,413.256 2161.1,402.043 2167.71,390.746 2174.33,379.366 2180.95,367.902 2187.56,356.355 2194.18,344.724 2200.79,333.011 2207.41,321.213 2214.02,309.332 2220.64,297.368 2227.26,285.321 2233.87,273.19 2240.49,260.975 2247.1,248.677 2253.72,236.296 2260.33,223.831 2266.95,211.283 2273.57,198.652 2280.18,185.937 2286.8,173.138 2293.41,160.256 "/>
<polyline clip-path="url(#clip692)" style="stroke:#000000; stroke-linecap:round; stroke-linejoin:round; stroke-width:4; stroke-opacity:1; fill:none" stroke-dasharray="16, 10" points="679.183,809.327 685.799,798.391 692.415,793.671 699.03,791.308 705.646,790.278 712.262,790.122 718.877,790.59 725.493,791.525 732.109,792.823 738.725,794.41 745.34,796.229 751.956,798.239 758.572,800.407 765.187,802.705 771.803,805.111 778.419,807.609 785.034,810.181 791.65,812.815 798.266,815.5 804.881,818.226 811.497,820.985 818.113,823.768 824.729,826.57 831.344,829.384 837.96,832.205 844.576,835.029 851.191,837.85 857.807,840.665 864.423,843.471 871.038,846.264 877.654,849.04 884.27,851.798 890.886,854.535 897.501,857.248 904.117,859.936 910.733,862.595 917.348,865.225 923.964,867.823 930.58,870.387 937.195,872.917 943.811,875.411 950.427,877.867 957.042,880.284 963.658,882.662 970.274,884.997 976.89,887.291 983.505,889.541 990.121,891.747 996.737,893.907 1003.35,896.022 1009.97,898.089 1016.58,900.109 1023.2,902.08 1029.82,904.002 1036.43,905.874 1043.05,907.695 1049.66,909.465 1056.28,911.184 1062.89,912.85 1069.51,914.463 1076.13,916.023 1082.74,917.529 1089.36,918.98 1095.97,920.377 1102.59,921.718 1109.2,923.004 1115.82,924.234 1122.43,925.407 1129.05,926.523 1135.67,927.582 1142.28,928.584 1148.9,929.528 1155.51,930.413 1162.13,931.24 1168.74,932.008 1175.36,932.717 1181.98,933.367 1188.59,933.957 1195.21,934.487 1201.82,934.957 1208.44,935.367 1215.05,935.717 1221.67,936.005 1228.29,936.233 1234.9,936.399 1241.52,936.504 1248.13,936.548 1254.75,936.53 1261.36,936.45 1267.98,936.308 1274.6,936.103 1281.21,935.837 1287.83,935.508 1294.44,935.116 1301.06,934.662 1307.67,934.145 1314.29,933.565 1320.91,932.921 1327.52,932.215 1334.14,931.445 1340.75,930.612 1347.37,929.716 1353.98,928.756 1360.6,927.733 1367.22,926.645 1373.83,925.494 1380.45,924.28 1387.06,923.001 1393.68,921.658 1400.29,920.252 1406.91,918.782 1413.53,917.247 1420.14,915.649 1426.76,913.986 1433.37,912.259 1439.99,910.469 1446.6,908.614 1453.22,906.695 1459.84,904.712 1466.45,902.664 1473.07,900.553 1479.68,898.378 1486.3,896.138 1492.91,893.835 1499.53,891.467 1506.15,889.036 1512.76,886.54 1519.38,883.981 1525.99,881.358 1532.61,878.671 1539.22,875.921 1545.84,873.107 1552.46,870.229 1559.07,867.288 1565.69,864.284 1572.3,861.216 1578.92,858.085 1585.53,854.892 1592.15,851.635 1598.77,848.316 1605.38,844.934 1612,841.49 1618.61,837.983 1625.23,834.414 1631.84,830.783 1638.46,827.091 1645.07,823.337 1651.69,819.521 1658.31,815.645 1664.92,811.707 1671.54,807.709 1678.15,803.651 1684.77,799.532 1691.38,795.354 1698,791.116 1704.62,786.819 1711.23,782.463 1717.85,778.049 "/>
<polyline clip-path="url(#clip692)" style="stroke:#000000; stroke-linecap:round; stroke-linejoin:round; stroke-width:4; stroke-opacity:1; fill:none" stroke-dasharray="16, 10" points="1836.93,689.129 1843.55,683.704 1850.16,678.235 1856.78,672.721 1863.39,667.165 1870.01,661.567 1876.62,655.93 1883.24,650.254 1889.86,644.542 1896.47,638.795 1903.09,633.016 1909.7,627.207 1916.32,621.369 1922.93,615.506 1929.55,609.621 1936.17,603.716 1942.78,597.796 1949.4,591.863 1956.01,585.924 1962.63,579.981 1969.24,574.042 1975.86,568.111 1982.48,562.197 1989.09,556.306 1995.71,550.449 2002.32,544.637 2008.94,538.881 2015.55,533.198 2022.17,527.607 2028.79,522.129 2035.4,516.793 2042.02,511.636 2048.63,506.705 2055.25,502.065 2061.86,497.808 2068.48,494.074 2075.1,491.088 2081.71,489.276 2088.33,489.637 2094.94,496.68 "/>
<polyline clip-path="url(#clip692)" style="stroke:#000000; stroke-linecap:round; stroke-linejoin:round; stroke-width:4; stroke-opacity:1; fill:none" stroke-dasharray="16, 10" points="679.183,851.108 685.799,876.825 692.415,896.158 699.03,912.968 705.646,928.279 712.262,942.548 718.877,956.027 725.493,968.871 732.109,981.185 738.725,993.045 745.34,1004.5 751.956,1015.61 758.572,1026.38 765.187,1036.87 771.803,1047.07 778.419,1057.02 785.034,1066.72 791.65,1076.2 798.266,1085.46 804.881,1094.51 811.497,1103.36 818.113,1112.02 824.729,1120.5 831.344,1128.79 837.96,1136.92 844.576,1144.87 851.191,1152.66 857.807,1160.28 864.423,1167.76 871.038,1175.07 877.654,1182.24 884.27,1189.25 890.886,1196.13 897.501,1202.85 904.117,1209.44 910.733,1215.89 917.348,1222.2 923.964,1228.38 930.58,1234.42 937.195,1240.33 943.811,1246.11 950.427,1251.76 957.042,1257.28 963.658,1262.68 970.274,1267.95 976.89,1273.1 983.505,1278.12 990.121,1283.02 996.737,1287.8 1003.35,1292.45 1009.97,1296.99 1016.58,1301.41 1023.2,1305.71 1029.82,1309.89 1036.43,1313.96 1043.05,1317.91 1049.66,1321.74 1056.28,1325.46 1062.89,1329.06 1069.51,1332.56 1076.13,1335.93 1082.74,1339.2 1089.36,1342.35 1095.97,1345.39 1102.59,1348.31 1109.2,1351.13 1115.82,1353.84 1122.43,1356.43 1129.05,1358.92 1135.67,1361.29 1142.28,1363.56 1148.9,1365.72 1155.51,1367.77 1162.13,1369.71 1168.74,1371.54 1175.36,1373.27 1181.98,1374.88 1188.59,1376.39 1195.21,1377.8 1201.82,1379.09 1208.44,1380.28 1215.05,1381.36 1221.67,1382.34 1228.29,1383.21 1234.9,1383.98 1241.52,1384.64 1248.13,1385.19 1254.75,1385.64 1261.36,1385.99 1267.98,1386.23 1274.6,1386.36 1281.21,1386.4 1287.83,1386.32 1294.44,1386.14 1301.06,1385.86 1307.67,1385.48 1314.29,1384.99 1320.91,1384.39 1327.52,1383.7 1334.14,1382.89 1340.75,1381.99 1347.37,1380.98 1353.98,1379.87 1360.6,1378.66 1367.22,1377.34 1373.83,1375.92 1380.45,1374.4 1387.06,1372.77 1393.68,1371.04 1400.29,1369.21 1406.91,1367.27 1413.53,1365.23 1420.14,1363.09 1426.76,1360.85 1433.37,1358.5 1439.99,1356.05 1446.6,1353.5 1453.22,1350.84 1459.84,1348.09 1466.45,1345.23 1473.07,1342.26 1479.68,1339.2 1486.3,1336.03 1492.91,1332.76 1499.53,1329.38 1506.15,1325.91 1512.76,1322.33 1519.38,1318.64 1525.99,1314.86 1532.61,1310.97 1539.22,1306.98 1545.84,1302.88 1552.46,1298.68 1559.07,1294.38 1565.69,1289.97 1572.3,1285.46 1578.92,1280.85 1585.53,1276.13 1592.15,1271.31 1598.77,1266.39 1605.38,1261.36 1612,1256.22 1618.61,1250.99 1625.23,1245.64 1631.84,1240.19 1638.46,1234.64 1645.07,1228.98 1651.69,1223.22 1658.31,1217.35 1664.92,1211.37 1671.54,1205.29 1678.15,1199.1 1684.77,1192.81 1691.38,1186.41 1698,1179.9 1704.62,1173.28 1711.23,1166.56 1717.85,1159.72 1724.46,1152.78 1731.08,1145.73 1737.69,1138.57 1744.31,1131.3 "/>
<polyline clip-path="url(#clip692)" style="stroke:#000000; stroke-linecap:round; stroke-linejoin:round; stroke-width:4; stroke-opacity:1; fill:none" stroke-dasharray="16, 10" points="1836.93,1017.65 1843.55,1008.66 1850.16,999.542 1856.78,990.304 1863.39,980.941 1870.01,971.454 1876.62,961.839 1883.24,952.095 1889.86,942.222 1896.47,932.216 1903.09,922.075 1909.7,911.798 1916.32,901.383 1922.93,890.825 1929.55,880.124 1936.17,869.275 1942.78,858.274 1949.4,847.119 1956.01,835.804 1962.63,824.326 1969.24,812.677 1975.86,800.853 1982.48,788.846 1989.09,776.647 1995.71,764.249 2002.32,751.639 2008.94,738.805 2015.55,725.732 2022.17,712.401 2028.79,698.789 2035.4,684.868 2042.02,670.602 2048.63,655.943 2055.25,640.826 2061.86,625.158 2068.48,608.802 2075.1,591.53 2081.71,572.917 2088.33,551.965 2094.94,524.164 "/>
<polyline clip-path="url(#clip692)" style="stroke:#000000; stroke-linecap:round; stroke-linejoin:round; stroke-width:4; stroke-opacity:1; fill:none" points="315.32,223.714 321.936,236.199 328.551,248.599 335.167,260.916 341.783,273.149 348.398,285.298 355.014,297.363 361.63,309.345 368.246,321.243 374.861,333.057 381.477,344.787 388.093,356.433 394.708,367.996 401.324,379.475 407.94,390.87 414.555,402.181 421.171,413.408 427.787,424.552 434.403,435.612 441.018,446.588 447.634,457.481 454.25,468.289 460.865,479.014 467.481,489.655 474.097,500.212 480.712,510.685 487.328,521.075 493.944,531.381 500.559,541.603 507.175,551.741 513.791,561.796 520.407,571.766 527.022,581.653 533.638,591.456 540.254,601.176 546.869,610.811 553.485,620.363 560.101,629.831 566.716,639.215 573.332,648.515 579.948,657.732 586.564,666.865 593.179,675.914 599.795,684.879 606.411,693.76 613.026,702.558 619.642,711.272 626.258,719.902 632.873,728.448 639.489,736.911 646.105,745.29 652.72,753.585 659.336,761.796 665.952,769.923 672.568,777.967 679.183,785.926 685.799,793.802 692.415,801.595 699.03,809.303 705.646,816.928 712.262,824.469 718.877,831.926 725.493,839.299 732.109,846.588 738.725,853.794 745.34,860.916 751.956,867.954 758.572,874.908 765.187,881.779 771.803,888.566 778.419,895.269 785.034,901.888 791.65,908.423 798.266,914.875 804.881,921.243 811.497,927.527 818.113,933.727 824.729,939.843 831.344,945.876 837.96,951.825 844.576,957.69 851.191,963.471 857.807,969.169 864.423,974.783 871.038,980.313 877.654,985.759 884.27,991.121 890.886,996.4 897.501,1001.59 904.117,1006.71 910.733,1011.73 917.348,1016.68 923.964,1021.54 930.58,1026.31 937.195,1031 943.811,1035.61 950.427,1040.14 957.042,1044.58 963.658,1048.93 "/>
<polyline clip-path="url(#clip692)" style="stroke:#000000; stroke-linecap:round; stroke-linejoin:round; stroke-width:4; stroke-opacity:1; fill:none" points="1082.74,1113.03 1089.36,1115.8 1095.97,1118.48 1102.59,1121.08 1109.2,1123.59 1115.82,1126.02 1122.43,1128.36 1129.05,1130.63 1135.67,1132.81 1142.28,1134.9 1148.9,1136.91 1155.51,1138.84 1162.13,1140.68 1168.74,1142.44 1175.36,1144.12 1181.98,1145.71 1188.59,1147.22 1195.21,1148.64 1201.82,1149.98 1208.44,1151.24 1215.05,1152.41 1221.67,1153.5 1228.29,1154.51 1234.9,1155.43 1241.52,1156.27 1248.13,1157.02 1254.75,1157.69 1261.36,1158.28 1267.98,1158.78 1274.6,1159.2 1281.21,1159.53 1287.83,1159.78 1294.44,1159.95 1301.06,1160.04 1307.67,1160.04 1314.29,1159.95 1320.91,1159.78 1327.52,1159.53 1334.14,1159.2 1340.75,1158.78 1347.37,1158.28 1353.98,1157.69 1360.6,1157.02 1367.22,1156.27 1373.83,1155.43 1380.45,1154.51 1387.06,1153.5 1393.68,1152.41 1400.29,1151.24 1406.91,1149.98 1413.53,1148.64 1420.14,1147.22 1426.76,1145.71 1433.37,1144.12 1439.99,1142.44 1446.6,1140.68 1453.22,1138.84 1459.84,1136.91 1466.45,1134.9 1473.07,1132.81 1479.68,1130.63 1486.3,1128.36 1492.91,1126.02 1499.53,1123.59 1506.15,1121.08 1512.76,1118.48 1519.38,1115.8 1525.99,1113.03 1532.61,1110.18 1539.22,1107.25 1545.84,1104.23 1552.46,1101.13 1559.07,1097.95 1565.69,1094.68 1572.3,1091.33 1578.92,1087.9 1585.53,1084.38 1592.15,1080.77 1598.77,1077.09 1605.38,1073.32 1612,1069.46 1618.61,1065.52 1625.23,1061.5 1631.84,1057.4 1638.46,1053.21 1645.07,1048.93 1651.69,1044.58 1658.31,1040.14 1664.92,1035.61 1671.54,1031 1678.15,1026.31 1684.77,1021.54 1691.38,1016.68 1698,1011.73 1704.62,1006.71 1711.23,1001.59 1717.85,996.4 1724.46,991.121 1731.08,985.759 1737.69,980.313 1744.31,974.783 1750.93,969.169 1757.54,963.471 1764.16,957.69 1770.77,951.825 1777.39,945.876 1784,939.843 1790.62,933.727 1797.24,927.527 1803.85,921.243 1810.47,914.875 1817.08,908.423 1823.7,901.888 1830.31,895.269 1836.93,888.566 1843.55,881.779 1850.16,874.908 1856.78,867.954 1863.39,860.916 1870.01,853.794 1876.62,846.588 1883.24,839.299 1889.86,831.926 1896.47,824.469 1903.09,816.928 1909.7,809.303 1916.32,801.595 1922.93,793.802 1929.55,785.926 1936.17,777.967 1942.78,769.923 1949.4,761.796 1956.01,753.585 1962.63,745.29 1969.24,736.911 1975.86,728.448 1982.48,719.902 1989.09,711.272 1995.71,702.558 2002.32,693.76 2008.94,684.879 2015.55,675.914 2022.17,666.865 2028.79,657.732 2035.4,648.515 2042.02,639.215 2048.63,629.831 2055.25,620.363 2061.86,610.811 2068.48,601.176 2075.1,591.456 2081.71,581.653 2088.33,571.766 2094.94,561.796 2101.56,551.741 2108.17,541.603 2114.79,531.381 2121.41,521.075 2128.02,510.685 2134.64,500.212 2141.25,489.655 2147.87,479.014 2154.48,468.289 2161.1,457.481 2167.71,446.588 2174.33,435.612 2180.95,424.552 2187.56,413.408 2194.18,402.181 2200.79,390.87 2207.41,379.475 2214.02,367.996 2220.64,356.433 2227.26,344.787 2233.87,333.057 2240.49,321.243 2247.1,309.345 2253.72,297.363 2260.33,285.298 2266.95,273.149 2273.57,260.916 2280.18,248.599 2286.8,236.199 2293.41,223.714 "/>
<polyline clip-path="url(#clip692)" style="stroke:#000000; stroke-linecap:round; stroke-linejoin:round; stroke-width:4; stroke-opacity:1; fill:none" points="593.179,652.596 599.795,646.455 606.411,644.766 613.026,644.976 619.642,646.293 626.258,648.347 632.873,650.929 639.489,653.907 646.105,657.191 652.72,660.717 659.336,664.438 665.952,668.315 672.568,672.321 679.183,676.432 685.799,680.628 692.415,684.894 699.03,689.215 705.646,693.581 712.262,697.982 718.877,702.408 725.493,706.853 732.109,711.31 738.725,715.773 745.34,720.236 751.956,724.696 758.572,729.147 765.187,733.586 771.803,738.009 778.419,742.413 785.034,746.796 791.65,751.155 798.266,755.487 804.881,759.79 811.497,764.062 818.113,768.301 824.729,772.505 831.344,776.673 837.96,780.803 844.576,784.893 851.191,788.943 857.807,792.95 864.423,796.915 871.038,800.834 877.654,804.709 884.27,808.537 890.886,812.318 897.501,816.051 904.117,819.734 910.733,823.368 917.348,826.951 923.964,830.483 930.58,833.963 937.195,837.39 943.811,840.765 950.427,844.085 957.042,847.351 963.658,850.562 970.274,853.718 976.89,856.818 983.505,859.861 990.121,862.848 996.737,865.778 1003.35,868.65 1009.97,871.465 1016.58,874.221 1023.2,876.918 1029.82,879.557 1036.43,882.136 1043.05,884.656 1049.66,887.116 1056.28,889.516 1062.89,891.855 1069.51,894.134 1076.13,896.352 1082.74,898.509 1089.36,900.604 1095.97,902.638 1102.59,904.611 1109.2,906.521 1115.82,908.369 1122.43,910.155 1129.05,911.879 1135.67,913.54 1142.28,915.138 1148.9,916.674 1155.51,918.146 1162.13,919.555 1168.74,920.901 1175.36,922.184 1181.98,923.403 1188.59,924.559 1195.21,925.651 1201.82,926.679 1208.44,927.643 1215.05,928.543 1221.67,929.379 1228.29,930.152 1234.9,930.86 1241.52,931.504 1248.13,932.083 1254.75,932.599 1261.36,933.05 1267.98,933.436 1274.6,933.758 1281.21,934.016 1287.83,934.21 1294.44,934.339 1301.06,934.403 1307.67,934.403 1314.29,934.339 1320.91,934.21 1327.52,934.016 1334.14,933.758 1340.75,933.436 1347.37,933.05 1353.98,932.599 1360.6,932.083 1367.22,931.504 1373.83,930.86 1380.45,930.152 1387.06,929.379 1393.68,928.543 1400.29,927.643 1406.91,926.679 1413.53,925.651 1420.14,924.559 1426.76,923.403 1433.37,922.184 1439.99,920.901 1446.6,919.555 1453.22,918.146 1459.84,916.674 1466.45,915.138 1473.07,913.54 1479.68,911.879 1486.3,910.155 1492.91,908.369 1499.53,906.521 1506.15,904.611 1512.76,902.638 1519.38,900.604 1525.99,898.509 1532.61,896.352 1539.22,894.134 1545.84,891.855 1552.46,889.516 1559.07,887.116 1565.69,884.656 1572.3,882.136 1578.92,879.557 1585.53,876.918 1592.15,874.221 1598.77,871.465 1605.38,868.65 1612,865.778 1618.61,862.848 1625.23,859.861 1631.84,856.818 1638.46,853.718 1645.07,850.562 1651.69,847.351 1658.31,844.085 1664.92,840.765 1671.54,837.39 1678.15,833.963 1684.77,830.483 1691.38,826.951 1698,823.368 1704.62,819.734 1711.23,816.051 1717.85,812.318 1724.46,808.537 1731.08,804.709 1737.69,800.834 1744.31,796.915 1750.93,792.95 1757.54,788.943 1764.16,784.893 1770.77,780.803 1777.39,776.673 "/>
<polyline clip-path="url(#clip692)" style="stroke:#000000; stroke-linecap:round; stroke-linejoin:round; stroke-width:4; stroke-opacity:1; fill:none" points="1883.24,706.853 1889.86,702.408 1896.47,697.982 1903.09,693.581 1909.7,689.215 1916.32,684.894 1922.93,680.628 1929.55,676.432 1936.17,672.321 1942.78,668.315 1949.4,664.438 1956.01,660.717 1962.63,657.191 1969.24,653.907 1975.86,650.929 1982.48,648.347 1989.09,646.293 1995.71,644.976 2002.32,644.766 2008.94,646.455 2015.55,652.596 "/>
<polyline clip-path="url(#clip692)" style="stroke:#000000; stroke-linecap:round; stroke-linejoin:round; stroke-width:4; stroke-opacity:1; fill:none" points="593.179,699.231 599.795,723.303 606.411,742.754 613.026,760.14 619.642,776.251 626.258,791.457 632.873,805.968 639.489,819.915 646.105,833.388 652.72,846.452 659.336,859.154 665.952,871.531 672.568,883.612 679.183,895.421 685.799,906.977 692.415,918.296 699.03,929.391 705.646,940.274 712.262,950.955 718.877,961.443 725.493,971.744 732.109,981.866 738.725,991.815 745.34,1001.6 751.956,1011.21 758.572,1020.67 765.187,1029.97 771.803,1039.12 778.419,1048.12 785.034,1056.98 791.65,1065.69 798.266,1074.26 804.881,1082.7 811.497,1090.99 818.113,1099.15 824.729,1107.18 831.344,1115.08 837.96,1122.85 844.576,1130.49 851.191,1138 857.807,1145.39 864.423,1152.65 871.038,1159.79 877.654,1166.81 884.27,1173.71 890.886,1180.48 897.501,1187.14 904.117,1193.68 910.733,1200.1 917.348,1206.4 923.964,1212.59 930.58,1218.66 937.195,1224.62 943.811,1230.46 950.427,1236.19 957.042,1241.8 963.658,1247.31 970.274,1252.7 976.89,1257.98 983.505,1263.14 990.121,1268.2 996.737,1273.15 1003.35,1277.98 1009.97,1282.71 1016.58,1287.33 1023.2,1291.83 1029.82,1296.23 1036.43,1300.53 1043.05,1304.71 1049.66,1308.78 1056.28,1312.75 1062.89,1316.61 1069.51,1320.37 1076.13,1324.01 1082.74,1327.55 1089.36,1330.99 1095.97,1334.32 1102.59,1337.54 1109.2,1340.66 1115.82,1343.67 1122.43,1346.57 1129.05,1349.37 1135.67,1352.07 1142.28,1354.66 1148.9,1357.15 1155.51,1359.53 1162.13,1361.81 1168.74,1363.98 1175.36,1366.05 1181.98,1368.01 1188.59,1369.87 1195.21,1371.63 1201.82,1373.28 1208.44,1374.83 1215.05,1376.28 1221.67,1377.62 1228.29,1378.86 1234.9,1380 1241.52,1381.03 1248.13,1381.96 1254.75,1382.78 1261.36,1383.5 1267.98,1384.12 1274.6,1384.64 1281.21,1385.05 1287.83,1385.36 1294.44,1385.57 1301.06,1385.67 1307.67,1385.67 1314.29,1385.57 1320.91,1385.36 1327.52,1385.05 1334.14,1384.64 1340.75,1384.12 1347.37,1383.5 1353.98,1382.78 1360.6,1381.96 1367.22,1381.03 1373.83,1380 1380.45,1378.86 1387.06,1377.62 1393.68,1376.28 1400.29,1374.83 1406.91,1373.28 1413.53,1371.63 1420.14,1369.87 1426.76,1368.01 1433.37,1366.05 1439.99,1363.98 1446.6,1361.81 1453.22,1359.53 1459.84,1357.15 1466.45,1354.66 1473.07,1352.07 1479.68,1349.37 1486.3,1346.57 1492.91,1343.67 1499.53,1340.66 1506.15,1337.54 1512.76,1334.32 1519.38,1330.99 1525.99,1327.55 1532.61,1324.01 1539.22,1320.37 1545.84,1316.61 1552.46,1312.75 1559.07,1308.78 1565.69,1304.71 1572.3,1300.53 1578.92,1296.23 1585.53,1291.83 1592.15,1287.33 1598.77,1282.71 1605.38,1277.98 1612,1273.15 1618.61,1268.2 1625.23,1263.14 1631.84,1257.98 1638.46,1252.7 1645.07,1247.31 1651.69,1241.8 1658.31,1236.19 1664.92,1230.46 1671.54,1224.62 1678.15,1218.66 1684.77,1212.59 1691.38,1206.4 1698,1200.1 1704.62,1193.68 1711.23,1187.14 1717.85,1180.48 1724.46,1173.71 1731.08,1166.81 1737.69,1159.79 1744.31,1152.65 1750.93,1145.39 1757.54,1138 1764.16,1130.49 "/>
<polyline clip-path="url(#clip692)" style="stroke:#000000; stroke-linecap:round; stroke-linejoin:round; stroke-width:4; stroke-opacity:1; fill:none" points="1836.93,1039.12 1843.55,1029.97 1850.16,1020.67 1856.78,1011.21 1863.39,1001.6 1870.01,991.815 1876.62,981.866 1883.24,971.744 1889.86,961.443 1896.47,950.955 1903.09,940.274 1909.7,929.391 1916.32,918.296 1922.93,906.977 1929.55,895.421 1936.17,883.612 1942.78,871.531 1949.4,859.154 1956.01,846.452 1962.63,833.388 1969.24,819.915 1975.86,805.968 1982.48,791.457 1989.09,776.251 1995.71,760.14 2002.32,742.754 2008.94,723.303 2015.55,699.231 "/>
<polyline clip-path="url(#clip692)" style="stroke:#000000; stroke-linecap:round; stroke-linejoin:round; stroke-width:4; stroke-opacity:1; fill:none" points="-1840.8,878.762 4449.53,878.762 "/>
<path clip-path="url(#clip690)" d="M1904.39 1379.86 L2282.86 1379.86 L2282.86 1224.34 L1904.39 1224.34  Z" fill="#ffffff" fill-rule="evenodd" fill-opacity="0"/>
<polyline clip-path="url(#clip690)" style="stroke:#000000; stroke-linecap:round; stroke-linejoin:round; stroke-width:4; stroke-opacity:1; fill:none" points="1904.39,1379.86 2282.86,1379.86 2282.86,1224.34 1904.39,1224.34 1904.39,1379.86 "/>
<polyline clip-path="url(#clip690)" style="stroke:#000000; stroke-linecap:round; stroke-linejoin:round; stroke-width:4; stroke-opacity:1; fill:none" stroke-dasharray="16, 10" points="1927.69,1276.18 2067.47,1276.18 "/>
<path clip-path="url(#clip690)" d="M2104.17 1280.42 Q2099.01 1280.42 2097.02 1281.6 Q2095.03 1282.79 2095.03 1285.63 Q2095.03 1287.9 2096.51 1289.24 Q2098.02 1290.56 2100.59 1290.56 Q2104.13 1290.56 2106.26 1288.06 Q2108.41 1285.54 2108.41 1281.37 L2108.41 1280.42 L2104.17 1280.42 M2112.67 1278.66 L2112.67 1293.46 L2108.41 1293.46 L2108.41 1289.52 Q2106.95 1291.88 2104.77 1293.02 Q2102.6 1294.13 2099.45 1294.13 Q2095.47 1294.13 2093.11 1291.91 Q2090.77 1289.66 2090.77 1285.91 Q2090.77 1281.54 2093.69 1279.31 Q2096.63 1277.09 2102.44 1277.09 L2108.41 1277.09 L2108.41 1276.67 Q2108.41 1273.73 2106.46 1272.14 Q2104.54 1270.52 2101.05 1270.52 Q2098.83 1270.52 2096.72 1271.05 Q2094.61 1271.58 2092.67 1272.65 L2092.67 1268.71 Q2095.01 1267.81 2097.21 1267.37 Q2099.4 1266.91 2101.49 1266.91 Q2107.11 1266.91 2109.89 1269.82 Q2112.67 1272.74 2112.67 1278.66 Z" fill="#000000" fill-rule="evenodd" fill-opacity="1" /><path clip-path="url(#clip690)" d="M2137.07 1271.93 L2166.74 1271.93 L2166.74 1275.82 L2137.07 1275.82 L2137.07 1271.93 M2137.07 1281.37 L2166.74 1281.37 L2166.74 1285.31 L2137.07 1285.31 L2137.07 1281.37 Z" fill="#000000" fill-rule="evenodd" fill-opacity="1" /><path clip-path="url(#clip690)" d="M2201.9 1261.97 Q2198.29 1261.97 2196.46 1265.54 Q2194.66 1269.08 2194.66 1276.21 Q2194.66 1283.32 2196.46 1286.88 Q2198.29 1290.42 2201.9 1290.42 Q2205.54 1290.42 2207.34 1286.88 Q2209.17 1283.32 2209.17 1276.21 Q2209.17 1269.08 2207.34 1265.54 Q2205.54 1261.97 2201.9 1261.97 M2201.9 1258.27 Q2207.71 1258.27 2210.77 1262.88 Q2213.85 1267.46 2213.85 1276.21 Q2213.85 1284.94 2210.77 1289.54 Q2207.71 1294.13 2201.9 1294.13 Q2196.09 1294.13 2193.02 1289.54 Q2189.96 1284.94 2189.96 1276.21 Q2189.96 1267.46 2193.02 1262.88 Q2196.09 1258.27 2201.9 1258.27 Z" fill="#000000" fill-rule="evenodd" fill-opacity="1" /><path clip-path="url(#clip690)" d="M2222.07 1287.58 L2226.95 1287.58 L2226.95 1293.46 L2222.07 1293.46 L2222.07 1287.58 Z" fill="#000000" fill-rule="evenodd" fill-opacity="1" /><path clip-path="url(#clip690)" d="M2249.98 1262.97 L2238.18 1281.42 L2249.98 1281.42 L2249.98 1262.97 M2248.76 1258.9 L2254.64 1258.9 L2254.64 1281.42 L2259.57 1281.42 L2259.57 1285.31 L2254.64 1285.31 L2254.64 1293.46 L2249.98 1293.46 L2249.98 1285.31 L2234.38 1285.31 L2234.38 1280.79 L2248.76 1258.9 Z" fill="#000000" fill-rule="evenodd" fill-opacity="1" /><polyline clip-path="url(#clip690)" style="stroke:#000000; stroke-linecap:round; stroke-linejoin:round; stroke-width:4; stroke-opacity:1; fill:none" points="1927.69,1328.02 2067.47,1328.02 "/>
<path clip-path="url(#clip690)" d="M2104.17 1332.26 Q2099.01 1332.26 2097.02 1333.44 Q2095.03 1334.63 2095.03 1337.47 Q2095.03 1339.74 2096.51 1341.08 Q2098.02 1342.4 2100.59 1342.4 Q2104.13 1342.4 2106.26 1339.9 Q2108.41 1337.38 2108.41 1333.21 L2108.41 1332.26 L2104.17 1332.26 M2112.67 1330.5 L2112.67 1345.3 L2108.41 1345.3 L2108.41 1341.36 Q2106.95 1343.72 2104.77 1344.86 Q2102.6 1345.97 2099.45 1345.97 Q2095.47 1345.97 2093.11 1343.75 Q2090.77 1341.5 2090.77 1337.75 Q2090.77 1333.38 2093.69 1331.15 Q2096.63 1328.93 2102.44 1328.93 L2108.41 1328.93 L2108.41 1328.51 Q2108.41 1325.57 2106.46 1323.98 Q2104.54 1322.36 2101.05 1322.36 Q2098.83 1322.36 2096.72 1322.89 Q2094.61 1323.42 2092.67 1324.49 L2092.67 1320.55 Q2095.01 1319.65 2097.21 1319.21 Q2099.4 1318.75 2101.49 1318.75 Q2107.11 1318.75 2109.89 1321.66 Q2112.67 1324.58 2112.67 1330.5 Z" fill="#000000" fill-rule="evenodd" fill-opacity="1" /><path clip-path="url(#clip690)" d="M2137.07 1323.77 L2166.74 1323.77 L2166.74 1327.66 L2137.07 1327.66 L2137.07 1323.77 M2137.07 1333.21 L2166.74 1333.21 L2166.74 1337.15 L2137.07 1337.15 L2137.07 1333.21 Z" fill="#000000" fill-rule="evenodd" fill-opacity="1" /><path clip-path="url(#clip690)" d="M2201.9 1313.81 Q2198.29 1313.81 2196.46 1317.38 Q2194.66 1320.92 2194.66 1328.05 Q2194.66 1335.16 2196.46 1338.72 Q2198.29 1342.26 2201.9 1342.26 Q2205.54 1342.26 2207.34 1338.72 Q2209.17 1335.16 2209.17 1328.05 Q2209.17 1320.92 2207.34 1317.38 Q2205.54 1313.81 2201.9 1313.81 M2201.9 1310.11 Q2207.71 1310.11 2210.77 1314.72 Q2213.85 1319.3 2213.85 1328.05 Q2213.85 1336.78 2210.77 1341.38 Q2207.71 1345.97 2201.9 1345.97 Q2196.09 1345.97 2193.02 1341.38 Q2189.96 1336.78 2189.96 1328.05 Q2189.96 1319.3 2193.02 1314.72 Q2196.09 1310.11 2201.9 1310.11 Z" fill="#000000" fill-rule="evenodd" fill-opacity="1" /><path clip-path="url(#clip690)" d="M2222.07 1339.42 L2226.95 1339.42 L2226.95 1345.3 L2222.07 1345.3 L2222.07 1339.42 Z" fill="#000000" fill-rule="evenodd" fill-opacity="1" /><path clip-path="url(#clip690)" d="M2247.14 1313.81 Q2243.52 1313.81 2241.7 1317.38 Q2239.89 1320.92 2239.89 1328.05 Q2239.89 1335.16 2241.7 1338.72 Q2243.52 1342.26 2247.14 1342.26 Q2250.77 1342.26 2252.58 1338.72 Q2254.4 1335.16 2254.4 1328.05 Q2254.4 1320.92 2252.58 1317.38 Q2250.77 1313.81 2247.14 1313.81 M2247.14 1310.11 Q2252.95 1310.11 2256 1314.72 Q2259.08 1319.3 2259.08 1328.05 Q2259.08 1336.78 2256 1341.38 Q2252.95 1345.97 2247.14 1345.97 Q2241.33 1345.97 2238.25 1341.38 Q2235.19 1336.78 2235.19 1328.05 Q2235.19 1319.3 2238.25 1314.72 Q2241.33 1310.11 2247.14 1310.11 Z" fill="#000000" fill-rule="evenodd" fill-opacity="1" /><path clip-path="url(#clip690)" d="M889.881 1080.81 Q889.881 1085.51 891.802 1088.2 Q893.747 1090.86 897.126 1090.86 Q900.506 1090.86 902.45 1088.2 Q904.395 1085.51 904.395 1080.81 Q904.395 1076.11 902.45 1073.45 Q900.506 1070.77 897.126 1070.77 Q893.747 1070.77 891.802 1073.45 Q889.881 1076.11 889.881 1080.81 M904.395 1089.86 Q903.052 1092.18 900.992 1093.31 Q898.955 1094.42 896.084 1094.42 Q891.385 1094.42 888.422 1090.67 Q885.483 1086.92 885.483 1080.81 Q885.483 1074.7 888.422 1070.95 Q891.385 1067.2 896.084 1067.2 Q898.955 1067.2 900.992 1068.34 Q903.052 1069.45 904.395 1071.76 L904.395 1067.83 L908.654 1067.83 L908.654 1103.61 L904.395 1103.61 L904.395 1089.86 Z" fill="#000000" fill-rule="evenodd" fill-opacity="1" /><path clip-path="url(#clip690)" d="M933.052 1072.23 L962.728 1072.23 L962.728 1076.11 L933.052 1076.11 L933.052 1072.23 M933.052 1081.67 L962.728 1081.67 L962.728 1085.61 L933.052 1085.61 L933.052 1081.67 Z" fill="#000000" fill-rule="evenodd" fill-opacity="1" /><path clip-path="url(#clip690)" d="M997.889 1062.27 Q994.278 1062.27 992.45 1065.84 Q990.644 1069.38 990.644 1076.51 Q990.644 1083.61 992.45 1087.18 Q994.278 1090.72 997.889 1090.72 Q1001.52 1090.72 1003.33 1087.18 Q1005.16 1083.61 1005.16 1076.51 Q1005.16 1069.38 1003.33 1065.84 Q1001.52 1062.27 997.889 1062.27 M997.889 1058.57 Q1003.7 1058.57 1006.76 1063.18 Q1009.83 1067.76 1009.83 1076.51 Q1009.83 1085.24 1006.76 1089.84 Q1003.7 1094.42 997.889 1094.42 Q992.079 1094.42 989.001 1089.84 Q985.945 1085.24 985.945 1076.51 Q985.945 1067.76 989.001 1063.18 Q992.079 1058.57 997.889 1058.57 Z" fill="#000000" fill-rule="evenodd" fill-opacity="1" /><path clip-path="url(#clip690)" d="M1018.05 1087.87 L1022.94 1087.87 L1022.94 1093.75 L1018.05 1093.75 L1018.05 1087.87 Z" fill="#000000" fill-rule="evenodd" fill-opacity="1" /><path clip-path="url(#clip690)" d="M1043.12 1062.27 Q1039.51 1062.27 1037.68 1065.84 Q1035.88 1069.38 1035.88 1076.51 Q1035.88 1083.61 1037.68 1087.18 Q1039.51 1090.72 1043.12 1090.72 Q1046.75 1090.72 1048.56 1087.18 Q1050.39 1083.61 1050.39 1076.51 Q1050.39 1069.38 1048.56 1065.84 Q1046.75 1062.27 1043.12 1062.27 M1043.12 1058.57 Q1048.93 1058.57 1051.99 1063.18 Q1055.07 1067.76 1055.07 1076.51 Q1055.07 1085.24 1051.99 1089.84 Q1048.93 1094.42 1043.12 1094.42 Q1037.31 1094.42 1034.23 1089.84 Q1031.18 1085.24 1031.18 1076.51 Q1031.18 1067.76 1034.23 1063.18 Q1037.31 1058.57 1043.12 1058.57 Z" fill="#000000" fill-rule="evenodd" fill-opacity="1" /><path clip-path="url(#clip690)" d="M1703.61 735.119 Q1703.61 739.818 1705.53 742.503 Q1707.48 745.165 1710.86 745.165 Q1714.24 745.165 1716.18 742.503 Q1718.13 739.818 1718.13 735.119 Q1718.13 730.42 1716.18 727.758 Q1714.24 725.073 1710.86 725.073 Q1707.48 725.073 1705.53 727.758 Q1703.61 730.42 1703.61 735.119 M1718.13 744.17 Q1716.78 746.485 1714.72 747.619 Q1712.69 748.73 1709.82 748.73 Q1705.12 748.73 1702.15 744.98 Q1699.21 741.23 1699.21 735.119 Q1699.21 729.008 1702.15 725.258 Q1705.12 721.508 1709.82 721.508 Q1712.69 721.508 1714.72 722.642 Q1716.78 723.753 1718.13 726.068 L1718.13 722.133 L1722.38 722.133 L1722.38 757.92 L1718.13 757.92 L1718.13 744.17 Z" fill="#000000" fill-rule="evenodd" fill-opacity="1" /><path clip-path="url(#clip690)" d="M1746.78 726.531 L1776.46 726.531 L1776.46 730.42 L1746.78 730.42 L1746.78 726.531 M1746.78 735.976 L1776.46 735.976 L1776.46 739.911 L1746.78 739.911 L1746.78 735.976 Z" fill="#000000" fill-rule="evenodd" fill-opacity="1" /><path clip-path="url(#clip690)" d="M1802.43 744.124 L1810.07 744.124 L1810.07 717.758 L1801.76 719.425 L1801.76 715.165 L1810.02 713.499 L1814.7 713.499 L1814.7 744.124 L1822.34 744.124 L1822.34 748.059 L1802.43 748.059 L1802.43 744.124 Z" fill="#000000" fill-rule="evenodd" fill-opacity="1" /><path clip-path="url(#clip690)" d="M1831.78 742.179 L1836.67 742.179 L1836.67 748.059 L1831.78 748.059 L1831.78 742.179 Z" fill="#000000" fill-rule="evenodd" fill-opacity="1" /><path clip-path="url(#clip690)" d="M1856.85 716.577 Q1853.24 716.577 1851.41 720.142 Q1849.61 723.684 1849.61 730.814 Q1849.61 737.92 1851.41 741.485 Q1853.24 745.026 1856.85 745.026 Q1860.49 745.026 1862.29 741.485 Q1864.12 737.92 1864.12 730.814 Q1864.12 723.684 1862.29 720.142 Q1860.49 716.577 1856.85 716.577 M1856.85 712.874 Q1862.66 712.874 1865.72 717.48 Q1868.8 722.064 1868.8 730.814 Q1868.8 739.54 1865.72 744.147 Q1862.66 748.73 1856.85 748.73 Q1851.04 748.73 1847.96 744.147 Q1844.91 739.54 1844.91 730.814 Q1844.91 722.064 1847.96 717.48 Q1851.04 712.874 1856.85 712.874 Z" fill="#000000" fill-rule="evenodd" fill-opacity="1" /><path clip-path="url(#clip690)" d="M1695.06 1089.68 Q1695.06 1094.38 1696.98 1097.06 Q1698.92 1099.72 1702.3 1099.72 Q1705.68 1099.72 1707.63 1097.06 Q1709.57 1094.38 1709.57 1089.68 Q1709.57 1084.98 1707.63 1082.32 Q1705.68 1079.63 1702.3 1079.63 Q1698.92 1079.63 1696.98 1082.32 Q1695.06 1084.98 1695.06 1089.68 M1709.57 1098.73 Q1708.23 1101.04 1706.17 1102.18 Q1704.13 1103.29 1701.26 1103.29 Q1696.56 1103.29 1693.6 1099.54 Q1690.66 1095.79 1690.66 1089.68 Q1690.66 1083.57 1693.6 1079.82 Q1696.56 1076.07 1701.26 1076.07 Q1704.13 1076.07 1706.17 1077.2 Q1708.23 1078.31 1709.57 1080.63 L1709.57 1076.69 L1713.83 1076.69 L1713.83 1112.48 L1709.57 1112.48 L1709.57 1098.73 Z" fill="#000000" fill-rule="evenodd" fill-opacity="1" /><path clip-path="url(#clip690)" d="M1738.23 1081.09 L1767.91 1081.09 L1767.91 1084.98 L1738.23 1084.98 L1738.23 1081.09 M1738.23 1090.53 L1767.91 1090.53 L1767.91 1094.47 L1738.23 1094.47 L1738.23 1090.53 Z" fill="#000000" fill-rule="evenodd" fill-opacity="1" /><path clip-path="url(#clip690)" d="M1790.31 1087.73 L1802.79 1087.73 L1802.79 1091.53 L1790.31 1091.53 L1790.31 1087.73 Z" fill="#000000" fill-rule="evenodd" fill-opacity="1" /><path clip-path="url(#clip690)" d="M1810.98 1098.68 L1818.62 1098.68 L1818.62 1072.32 L1810.31 1073.98 L1810.31 1069.72 L1818.58 1068.06 L1823.25 1068.06 L1823.25 1098.68 L1830.89 1098.68 L1830.89 1102.62 L1810.98 1102.62 L1810.98 1098.68 Z" fill="#000000" fill-rule="evenodd" fill-opacity="1" /><path clip-path="url(#clip690)" d="M1840.34 1096.74 L1845.22 1096.74 L1845.22 1102.62 L1840.34 1102.62 L1840.34 1096.74 Z" fill="#000000" fill-rule="evenodd" fill-opacity="1" /><path clip-path="url(#clip690)" d="M1865.4 1071.14 Q1861.79 1071.14 1859.96 1074.7 Q1858.16 1078.24 1858.16 1085.37 Q1858.16 1092.48 1859.96 1096.04 Q1861.79 1099.58 1865.4 1099.58 Q1869.04 1099.58 1870.84 1096.04 Q1872.67 1092.48 1872.67 1085.37 Q1872.67 1078.24 1870.84 1074.7 Q1869.04 1071.14 1865.4 1071.14 M1865.4 1067.43 Q1871.21 1067.43 1874.27 1072.04 Q1877.35 1076.62 1877.35 1085.37 Q1877.35 1094.1 1874.27 1098.7 Q1871.21 1103.29 1865.4 1103.29 Q1859.59 1103.29 1856.52 1098.7 Q1853.46 1094.1 1853.46 1085.37 Q1853.46 1076.62 1856.52 1072.04 Q1859.59 1067.43 1865.4 1067.43 Z" fill="#000000" fill-rule="evenodd" fill-opacity="1" /></svg>
